<svg width="16" height="16" viewBox="0 0 16 16" fill="none" xmlns="http://www.w3.org/2000/svg">
<path d="M0 12V4C0 1.79086 1.79086 0 4 0H12C14.2091 0 16 1.79086 16 4V12C16 14.2091 14.2091 16 12 16H4C1.79086 16 0 14.2091 0 12Z" fill="black"/>
<path d="M6.15381 4V12H4.70459V5.41016H4.65771L2.78662 6.60547V5.27734L4.7749 4H6.15381ZM11.1421 12.1523C10.4989 12.1523 9.94678 11.9896 9.48584 11.6641C9.02751 11.3359 8.67464 10.8633 8.42725 10.2461C8.18245 9.6263 8.06006 8.88021 8.06006 8.00781C8.06266 7.13542 8.18636 6.39323 8.43115 5.78125C8.67855 5.16667 9.03141 4.69792 9.48975 4.375C9.95068 4.05208 10.5015 3.89062 11.1421 3.89062C11.7827 3.89062 12.3335 4.05208 12.7944 4.375C13.2554 4.69792 13.6082 5.16667 13.853 5.78125C14.1004 6.39583 14.2241 7.13802 14.2241 8.00781C14.2241 8.88281 14.1004 9.63021 13.853 10.25C13.6082 10.8672 13.2554 11.3385 12.7944 11.6641C12.3361 11.9896 11.7853 12.1523 11.1421 12.1523ZM11.1421 10.9297C11.6421 10.9297 12.0366 10.6836 12.3257 10.1914C12.6174 9.69661 12.7632 8.96875 12.7632 8.00781C12.7632 7.3724 12.6968 6.83854 12.564 6.40625C12.4312 5.97396 12.2437 5.64844 12.0015 5.42969C11.7593 5.20833 11.4728 5.09766 11.1421 5.09766C10.6447 5.09766 10.2515 5.34505 9.9624 5.83984C9.67334 6.33203 9.52751 7.05469 9.5249 8.00781C9.5223 8.64583 9.5861 9.18229 9.71631 9.61719C9.84912 10.0521 10.0366 10.3802 10.2788 10.6016C10.521 10.8203 10.8088 10.9297 11.1421 10.9297Z" fill="white"/>
</svg>
