<svg width="16" height="16" viewBox="0 0 16 16" fill="none" xmlns="http://www.w3.org/2000/svg">
<path d="M0 12V4C0 1.79086 1.79086 0 4 0H12C14.2091 0 16 1.79086 16 4V12C16 14.2091 14.2091 16 12 16H4C1.79086 16 0 14.2091 0 12Z" fill="black"/>
<path d="M5.29492 12V10.9531L8.07227 8.23047C8.33789 7.96224 8.55925 7.72396 8.73633 7.51562C8.91341 7.30729 9.04622 7.10547 9.13477 6.91016C9.22331 6.71484 9.26758 6.50651 9.26758 6.28516C9.26758 6.03255 9.21029 5.81641 9.0957 5.63672C8.98112 5.45443 8.82357 5.3138 8.62305 5.21484C8.42253 5.11589 8.19466 5.06641 7.93945 5.06641C7.67643 5.06641 7.44596 5.12109 7.24805 5.23047C7.05013 5.33724 6.89648 5.48958 6.78711 5.6875C6.68034 5.88542 6.62695 6.12109 6.62695 6.39453H5.24805C5.24805 5.88672 5.36393 5.44531 5.5957 5.07031C5.82747 4.69531 6.14648 4.40495 6.55273 4.19922C6.96159 3.99349 7.43034 3.89062 7.95898 3.89062C8.49544 3.89062 8.9668 3.99089 9.37305 4.19141C9.7793 4.39193 10.0944 4.66667 10.3184 5.01562C10.5449 5.36458 10.6582 5.76302 10.6582 6.21094C10.6582 6.51042 10.6009 6.80469 10.4863 7.09375C10.3717 7.38281 10.1699 7.70312 9.88086 8.05469C9.5944 8.40625 9.19206 8.83203 8.67383 9.33203L7.29492 10.7344V10.7891H10.7793V12H5.29492Z" fill="white"/>
</svg>
