<svg width="16" height="16" viewBox="0 0 16 16" fill="none" xmlns="http://www.w3.org/2000/svg">
<path d="M0 12V4C0 1.79086 1.79086 0 4 0H12C14.2091 0 16 1.79086 16 4V12C16 14.2091 14.2091 16 12 16H4C1.79086 16 0 14.2091 0 12Z" fill="black"/>
<path d="M7.99951 12.1094C7.43701 12.1094 6.93701 12.013 6.49951 11.8203C6.06462 11.6276 5.72087 11.3594 5.46826 11.0156C5.21566 10.6719 5.08154 10.2747 5.06592 9.82422H6.53467C6.54769 10.0404 6.6193 10.2292 6.74951 10.3906C6.87972 10.5495 7.0529 10.6732 7.26904 10.7617C7.48519 10.8503 7.72738 10.8945 7.99561 10.8945C8.28206 10.8945 8.53597 10.8451 8.75732 10.7461C8.97868 10.6445 9.15186 10.5039 9.27686 10.3242C9.40186 10.1445 9.46305 9.9375 9.46045 9.70312C9.46305 9.46094 9.40055 9.2474 9.27295 9.0625C9.14535 8.8776 8.96045 8.73307 8.71826 8.62891C8.47868 8.52474 8.18962 8.47266 7.85107 8.47266H7.14404V7.35547H7.85107C8.12972 7.35547 8.37321 7.30729 8.58154 7.21094C8.79248 7.11458 8.95785 6.97917 9.07764 6.80469C9.19743 6.6276 9.25602 6.42318 9.25342 6.19141C9.25602 5.96484 9.20524 5.76823 9.10107 5.60156C8.99951 5.43229 8.85498 5.30078 8.66748 5.20703C8.48258 5.11328 8.26514 5.06641 8.01514 5.06641C7.77035 5.06641 7.54378 5.11068 7.33545 5.19922C7.12712 5.28776 6.95915 5.41406 6.83154 5.57813C6.70394 5.73958 6.63623 5.93229 6.62842 6.15625H5.23389C5.2443 5.70833 5.37321 5.3151 5.62061 4.97656C5.87061 4.63542 6.20394 4.36979 6.62061 4.17969C7.03727 3.98698 7.50472 3.89062 8.02295 3.89062C8.5568 3.89062 9.02035 3.99089 9.41357 4.19141C9.80941 4.38932 10.1154 4.65625 10.3315 4.99219C10.5477 5.32812 10.6558 5.69922 10.6558 6.10547C10.6584 6.55599 10.5256 6.93359 10.2573 7.23828C9.9917 7.54297 9.64274 7.74219 9.21045 7.83594V7.89844C9.77295 7.97656 10.2039 8.1849 10.5034 8.52344C10.8055 8.85937 10.9552 9.27734 10.9526 9.77734C10.9526 10.2253 10.825 10.6263 10.5698 10.9805C10.3172 11.332 9.96826 11.6081 9.52295 11.8086C9.08024 12.0091 8.57243 12.1094 7.99951 12.1094Z" fill="white"/>
</svg>
