<svg width="16" height="16" viewBox="0 0 16 16" fill="none" xmlns="http://www.w3.org/2000/svg">
<path d="M0 12V4C0 1.79086 1.79086 0 4 0H12C14.2091 0 16 1.79086 16 4V12C16 14.2091 14.2091 16 12 16H4C1.79086 16 0 14.2091 0 12Z" fill="black"/>
<path d="M8.01172 12.1094C7.49089 12.1094 7.02474 12.0117 6.61328 11.8164C6.20182 11.6185 5.875 11.3477 5.63281 11.0039C5.39323 10.6602 5.26563 10.2669 5.25 9.82422H6.65625C6.68229 10.1523 6.82422 10.4206 7.08203 10.6289C7.33984 10.8346 7.64974 10.9375 8.01172 10.9375C8.29557 10.9375 8.54818 10.8724 8.76953 10.7422C8.99089 10.612 9.16536 10.431 9.29297 10.1992C9.42057 9.96745 9.48307 9.70312 9.48047 9.40625C9.48307 9.10417 9.41927 8.83594 9.28906 8.60156C9.15885 8.36719 8.98047 8.18359 8.75391 8.05078C8.52734 7.91536 8.26693 7.84766 7.97266 7.84766C7.73307 7.84505 7.4974 7.88932 7.26563 7.98047C7.03385 8.07161 6.85026 8.19141 6.71484 8.33984L5.40625 8.125L5.82422 4H10.4648V5.21094H7.02344L6.79297 7.33203H6.83984C6.98828 7.15755 7.19792 7.01302 7.46875 6.89844C7.73958 6.78125 8.03646 6.72266 8.35938 6.72266C8.84375 6.72266 9.27604 6.83724 9.65625 7.06641C10.0365 7.29297 10.3359 7.60547 10.5547 8.00391C10.7734 8.40234 10.8828 8.85807 10.8828 9.37109C10.8828 9.89974 10.7604 10.3711 10.5156 10.7852C10.2734 11.1966 9.9362 11.5208 9.50391 11.7578C9.07422 11.9922 8.57682 12.1094 8.01172 12.1094Z" fill="white"/>
</svg>
