<svg width="16" height="16" viewBox="0 0 16 16" fill="none" xmlns="http://www.w3.org/2000/svg">
<path d="M0 12V4C0 1.79086 1.79086 0 4 0H12C14.2091 0 16 1.79086 16 4V12C16 14.2091 14.2091 16 12 16H4C1.79086 16 0 14.2091 0 12Z" fill="black"/>
<path d="M8.07422 12.1094C7.69141 12.1068 7.31771 12.0404 6.95313 11.9102C6.58854 11.7773 6.26042 11.5625 5.96875 11.2656C5.67708 10.9661 5.44531 10.569 5.27344 10.0742C5.10156 9.57682 5.01693 8.96094 5.01953 8.22656C5.01953 7.54167 5.09245 6.93099 5.23828 6.39453C5.38411 5.85807 5.59375 5.40495 5.86719 5.03516C6.14063 4.66276 6.47005 4.37891 6.85547 4.18359C7.24349 3.98828 7.67708 3.89062 8.15625 3.89062C8.65885 3.89062 9.10417 3.98958 9.49219 4.1875C9.88281 4.38542 10.1979 4.65625 10.4375 5C10.6771 5.34115 10.8255 5.72656 10.8828 6.15625H9.45703C9.38411 5.84896 9.23438 5.60417 9.00781 5.42187C8.78385 5.23698 8.5 5.14453 8.15625 5.14453C7.60156 5.14453 7.17448 5.38542 6.875 5.86719C6.57813 6.34896 6.42839 7.01042 6.42578 7.85156H6.48047C6.60807 7.6224 6.77344 7.42578 6.97656 7.26172C7.17969 7.09766 7.40885 6.97135 7.66406 6.88281C7.92188 6.79167 8.19401 6.74609 8.48047 6.74609C8.94922 6.74609 9.36979 6.85807 9.74219 7.08203C10.1172 7.30599 10.4141 7.61458 10.6328 8.00781C10.8516 8.39844 10.9596 8.84635 10.957 9.35156C10.9596 9.8776 10.8398 10.3503 10.5977 10.7695C10.3555 11.1862 10.0182 11.5143 9.58594 11.7539C9.15365 11.9935 8.64974 12.112 8.07422 12.1094ZM8.06641 10.9375C8.35026 10.9375 8.60417 10.8685 8.82813 10.7305C9.05208 10.5924 9.22917 10.4062 9.35938 10.1719C9.48958 9.9375 9.55339 9.67448 9.55078 9.38281C9.55339 9.09635 9.49089 8.83724 9.36328 8.60547C9.23828 8.3737 9.0651 8.1901 8.84375 8.05469C8.6224 7.91927 8.36979 7.85156 8.08594 7.85156C7.875 7.85156 7.67839 7.89193 7.49609 7.97266C7.3138 8.05339 7.15495 8.16536 7.01953 8.30859C6.88411 8.44922 6.77734 8.61328 6.69922 8.80078C6.6237 8.98568 6.58464 9.18359 6.58203 9.39453C6.58464 9.67318 6.64974 9.92969 6.77734 10.1641C6.90495 10.3984 7.08073 10.5859 7.30469 10.7266C7.52865 10.8672 7.78255 10.9375 8.06641 10.9375Z" fill="white"/>
</svg>
