<svg width="16" height="16" viewBox="0 0 16 16" fill="none" xmlns="http://www.w3.org/2000/svg">
<path d="M0 12V4C0 1.79086 1.79086 0 4 0H12C14.2091 0 16 1.79086 16 4V12C16 14.2091 14.2091 16 12 16H4C1.79086 16 0 14.2091 0 12Z" fill="black"/>
<path d="M8.00439 12.1094C7.42367 12.1094 6.90804 12.0117 6.45752 11.8164C6.0096 11.6211 5.65804 11.3542 5.40283 11.0156C5.15023 10.6745 5.02523 10.2878 5.02783 9.85547C5.02523 9.51953 5.09814 9.21094 5.24658 8.92969C5.39502 8.64844 5.59554 8.41406 5.84814 8.22656C6.10335 8.03646 6.38721 7.91536 6.69971 7.86328V7.80859C6.28825 7.71745 5.95492 7.50781 5.69971 7.17969C5.4471 6.84896 5.3221 6.46745 5.32471 6.03516C5.3221 5.6237 5.43669 5.25651 5.66846 4.93359C5.90023 4.61068 6.21794 4.35677 6.62158 4.17187C7.02523 3.98437 7.48617 3.89062 8.00439 3.89062C8.51742 3.89062 8.97445 3.98437 9.37549 4.17187C9.77913 4.35677 10.0968 4.61068 10.3286 4.93359C10.563 5.25651 10.6802 5.6237 10.6802 6.03516C10.6802 6.46745 10.5513 6.84896 10.2935 7.17969C10.0382 7.50781 9.70882 7.71745 9.30518 7.80859V7.86328C9.61768 7.91536 9.89893 8.03646 10.1489 8.22656C10.4015 8.41406 10.6021 8.64844 10.7505 8.92969C10.9015 9.21094 10.9771 9.51953 10.9771 9.85547C10.9771 10.2878 10.8494 10.6745 10.5942 11.0156C10.339 11.3542 9.98747 11.6211 9.53955 11.8164C9.09424 12.0117 8.58252 12.1094 8.00439 12.1094ZM8.00439 10.9922C8.30387 10.9922 8.56429 10.9414 8.78564 10.8398C9.007 10.7357 9.17887 10.5898 9.30127 10.4023C9.42367 10.2148 9.48617 9.9987 9.48877 9.75391C9.48617 9.4987 9.41976 9.27344 9.28955 9.07812C9.16195 8.88021 8.98617 8.72526 8.76221 8.61328C8.54085 8.5013 8.28825 8.44531 8.00439 8.44531C7.71794 8.44531 7.46273 8.5013 7.23877 8.61328C7.01481 8.72526 6.83773 8.88021 6.70752 9.07812C6.57992 9.27344 6.51742 9.4987 6.52002 9.75391C6.51742 9.9987 6.57731 10.2148 6.69971 10.4023C6.8221 10.5872 6.99398 10.7318 7.21533 10.8359C7.43929 10.9401 7.70231 10.9922 8.00439 10.9922ZM8.00439 7.34766C8.24919 7.34766 8.46533 7.29818 8.65283 7.19922C8.84294 7.10026 8.99268 6.96224 9.10205 6.78516C9.21143 6.60807 9.26742 6.40365 9.27002 6.17187C9.26742 5.94271 9.21273 5.74219 9.10596 5.57031C8.99919 5.39583 8.85075 5.26172 8.66064 5.16797C8.47054 5.07161 8.25179 5.02344 8.00439 5.02344C7.75179 5.02344 7.52913 5.07161 7.33643 5.16797C7.14632 5.26172 6.99788 5.39583 6.89111 5.57031C6.78695 5.74219 6.73617 5.94271 6.73877 6.17187C6.73617 6.40365 6.78825 6.60807 6.89502 6.78516C7.00439 6.95964 7.15413 7.09766 7.34424 7.19922C7.53695 7.29818 7.757 7.34766 8.00439 7.34766Z" fill="white"/>
</svg>
