<svg width="16" height="16" viewBox="0 0 16 16" fill="none" xmlns="http://www.w3.org/2000/svg">
<g opacity="0.9">
<path d="M0 12V4C0 1.79086 1.79086 0 4 0H12C14.2091 0 16 1.79086 16 4V12C16 14.2091 14.2091 16 12 16H4C1.79086 16 0 14.2091 0 12Z" fill="black"/>
<path d="M7.92188 3.89062C8.30469 3.89323 8.67708 3.96094 9.03906 4.09375C9.40365 4.22396 9.73177 4.4375 10.0234 4.73437C10.3151 5.02865 10.5469 5.42318 10.7188 5.91797C10.8906 6.41276 10.9766 7.02474 10.9766 7.75391C10.9792 8.44141 10.9063 9.05599 10.7578 9.59766C10.612 10.1367 10.4023 10.5924 10.1289 10.9648C9.85547 11.3372 9.52604 11.6211 9.14063 11.8164C8.75521 12.0117 8.32161 12.1094 7.83984 12.1094C7.33464 12.1094 6.88672 12.0104 6.49609 11.8125C6.10807 11.6146 5.79427 11.3437 5.55469 11C5.3151 10.6562 5.16797 10.263 5.11328 9.82031H6.53906C6.61198 10.138 6.76042 10.3906 6.98438 10.5781C7.21094 10.763 7.49609 10.8555 7.83984 10.8555C8.39453 10.8555 8.82161 10.6146 9.12109 10.1328C9.42057 9.65104 9.57031 8.98177 9.57031 8.125H9.51563C9.38802 8.35417 9.22266 8.55208 9.01953 8.71875C8.81641 8.88281 8.58594 9.00911 8.32813 9.09766C8.07292 9.1862 7.80208 9.23047 7.51562 9.23047C7.04688 9.23047 6.625 9.11849 6.25 8.89453C5.8776 8.67057 5.58203 8.36328 5.36328 7.97266C5.14714 7.58203 5.03776 7.13542 5.03516 6.63281C5.03516 6.11198 5.15495 5.64453 5.39453 5.23047C5.63672 4.8138 5.97396 4.48568 6.40625 4.24609C6.83854 4.00391 7.34375 3.88542 7.92188 3.89062ZM7.92578 5.0625C7.64453 5.0625 7.39062 5.13151 7.16406 5.26953C6.9401 5.40495 6.76302 5.58984 6.63281 5.82422C6.50521 6.05599 6.44141 6.3151 6.44141 6.60156C6.44401 6.88542 6.50781 7.14323 6.63281 7.375C6.76042 7.60677 6.93359 7.79036 7.15234 7.92578C7.3737 8.0612 7.6263 8.12891 7.91016 8.12891C8.12109 8.12891 8.31771 8.08854 8.5 8.00781C8.68229 7.92708 8.84115 7.8151 8.97656 7.67188C9.11458 7.52604 9.22135 7.36068 9.29688 7.17578C9.375 6.99089 9.41276 6.79557 9.41016 6.58984C9.41016 6.31641 9.34505 6.0638 9.21484 5.83203C9.08724 5.60026 8.91146 5.41406 8.6875 5.27344C8.46615 5.13281 8.21224 5.0625 7.92578 5.0625Z" fill="white"/>
</g>
</svg>
