<svg width="16" height="16" viewBox="0 0 16 16" fill="none" xmlns="http://www.w3.org/2000/svg">
<path fill-rule="evenodd" clip-rule="evenodd" d="M0 8C0 12.4183 3.58172 16 8 16C12.4183 16 16 12.4183 16 8C16 3.58172 12.4183 0 8 0C3.58172 0 0 3.58172 0 8ZM3.38824 8C3.38824 10.547 5.45299 12.6118 8 12.6118C10.547 12.6118 12.6118 10.547 12.6118 8C12.6118 5.45299 10.547 3.38824 8 3.38824C5.45299 3.38824 3.38824 5.45299 3.38824 8Z" fill="#D74040"/>
<path d="M3 8C3 10.7614 5.23858 13 8 13C10.7614 13 13 10.7614 13 8C13 5.23858 10.7614 3 8 3C5.23858 3 3 5.23858 3 8Z" fill="#FEFEFE"/>
</svg>
