<svg width="18" height="18" viewBox="0 0 18 18" fill="none" xmlns="http://www.w3.org/2000/svg">
<path d="M1 13V5C1 2.79086 2.79086 1 5 1H13C15.2091 1 17 2.79086 17 5V13C17 15.2091 15.2091 17 13 17H5C2.79086 17 1 15.2091 1 13Z" fill="url(#paint0_linear_78_274)" stroke="#FAFAFA"/>
<path d="M6.32528 4.77273V13.5H4.74432V6.31108H4.69318L2.65199 7.61506V6.16619L4.82102 4.77273H6.32528ZM11.767 13.6662C11.0653 13.6662 10.4631 13.4886 9.96023 13.1335C9.46023 12.7756 9.07528 12.2599 8.8054 11.5866C8.53835 10.9105 8.40483 10.0966 8.40483 9.14489C8.40767 8.19318 8.54261 7.38352 8.80966 6.71591C9.07955 6.04545 9.46449 5.53409 9.96449 5.18182C10.4673 4.82955 11.0682 4.65341 11.767 4.65341C12.4659 4.65341 13.0668 4.82955 13.5696 5.18182C14.0724 5.53409 14.4574 6.04545 14.7244 6.71591C14.9943 7.38636 15.1293 8.19602 15.1293 9.14489C15.1293 10.0994 14.9943 10.9148 14.7244 11.5909C14.4574 12.2642 14.0724 12.7784 13.5696 13.1335C13.0696 13.4886 12.4688 13.6662 11.767 13.6662ZM11.767 12.3324C12.3125 12.3324 12.7429 12.0639 13.0582 11.527C13.3764 10.9872 13.5355 10.1932 13.5355 9.14489C13.5355 8.4517 13.4631 7.86932 13.3182 7.39773C13.1733 6.92614 12.9688 6.57102 12.7045 6.33239C12.4403 6.09091 12.1278 5.97017 11.767 5.97017C11.2244 5.97017 10.7955 6.24006 10.4801 6.77983C10.1648 7.31676 10.0057 8.10511 10.0028 9.14489C10 9.84091 10.0696 10.4261 10.2116 10.9006C10.3565 11.375 10.5611 11.733 10.8253 11.9744C11.0895 12.2131 11.4034 12.3324 11.767 12.3324Z" fill="white"/>
<defs>
<linearGradient id="paint0_linear_78_274" x1="1" y1="12.5633" x2="17" y2="12.5633" gradientUnits="userSpaceOnUse">
<stop stop-color="#515151"/>
<stop offset="1"/>
</linearGradient>
</defs>
</svg>
