<svg width="18" height="18" viewBox="0 0 18 18" fill="none" xmlns="http://www.w3.org/2000/svg">
<path d="M1 13V5C1 2.79086 2.79086 1 5 1H13C15.2091 1 17 2.79086 17 5V13C17 15.2091 15.2091 17 13 17H5C2.79086 17 1 15.2091 1 13Z" fill="url(#paint0_linear_78_249)" stroke="#FAFAFA"/>
<path d="M6.27557 13.5V12.358L9.3054 9.38778C9.59517 9.09517 9.83665 8.83523 10.0298 8.60795C10.223 8.38068 10.3679 8.16051 10.4645 7.94744C10.5611 7.73437 10.6094 7.5071 10.6094 7.26562C10.6094 6.99006 10.5469 6.75426 10.4219 6.55824C10.2969 6.35938 10.125 6.20597 9.90625 6.09801C9.6875 5.99006 9.43892 5.93608 9.16051 5.93608C8.87358 5.93608 8.62216 5.99574 8.40625 6.11506C8.19034 6.23153 8.02273 6.39773 7.90341 6.61364C7.78693 6.82955 7.72869 7.08665 7.72869 7.38494H6.22443C6.22443 6.83097 6.35085 6.34943 6.60369 5.94034C6.85653 5.53125 7.20455 5.21449 7.64773 4.99006C8.09375 4.76562 8.60511 4.65341 9.18182 4.65341C9.76705 4.65341 10.2813 4.76278 10.7244 4.98153C11.1676 5.20028 11.5114 5.5 11.7557 5.88068C12.0028 6.26136 12.1264 6.69602 12.1264 7.18466C12.1264 7.51136 12.0639 7.83239 11.9389 8.14773C11.8139 8.46307 11.5938 8.8125 11.2784 9.19602C10.9659 9.57955 10.527 10.044 9.96165 10.5895L8.45739 12.1193V12.179H12.2585V13.5H6.27557Z" fill="white"/>
<defs>
<linearGradient id="paint0_linear_78_249" x1="1" y1="12.5633" x2="17" y2="12.5633" gradientUnits="userSpaceOnUse">
<stop stop-color="#515151"/>
<stop offset="1"/>
</linearGradient>
</defs>
</svg>
