<svg width="18" height="18" viewBox="0 0 18 18" fill="none" xmlns="http://www.w3.org/2000/svg">
<path d="M1 13V5C1 2.79086 2.79086 1 5 1H13C15.2091 1 17 2.79086 17 5V13C17 15.2091 15.2091 17 13 17H5C2.79086 17 1 15.2091 1 13Z" fill="url(#paint0_linear_78_253)" stroke="#FAFAFA"/>
<path d="M8.90767 13.6193C8.29403 13.6193 7.74858 13.5142 7.27131 13.304C6.79688 13.0937 6.42188 12.8011 6.14631 12.4261C5.87074 12.0511 5.72443 11.6179 5.70739 11.1264H7.30966C7.32386 11.3622 7.40199 11.5682 7.54403 11.7443C7.68608 11.9176 7.875 12.0526 8.1108 12.1491C8.34659 12.2457 8.6108 12.294 8.90341 12.294C9.21591 12.294 9.4929 12.2401 9.73438 12.1321C9.97585 12.0213 10.1648 11.8679 10.3011 11.6719C10.4375 11.4759 10.5043 11.25 10.5014 10.9943C10.5043 10.7301 10.4361 10.4972 10.2969 10.2955C10.1577 10.0937 9.95597 9.93608 9.69176 9.82244C9.4304 9.70881 9.11506 9.65199 8.74574 9.65199H7.97443V8.43324H8.74574C9.04972 8.43324 9.31534 8.38068 9.54261 8.27557C9.77273 8.17045 9.95313 8.02273 10.0838 7.83239C10.2145 7.6392 10.2784 7.41619 10.2756 7.16335C10.2784 6.91619 10.223 6.7017 10.1094 6.51989C9.99858 6.33523 9.84091 6.19176 9.63636 6.08949C9.43466 5.98722 9.19744 5.93608 8.92472 5.93608C8.65767 5.93608 8.41051 5.98437 8.18324 6.08097C7.95597 6.17756 7.77273 6.31534 7.63352 6.49432C7.49432 6.67045 7.42045 6.88068 7.41193 7.125H5.89062C5.90199 6.63636 6.04261 6.20739 6.3125 5.83807C6.58523 5.46591 6.94886 5.17614 7.40341 4.96875C7.85795 4.75852 8.3679 4.65341 8.93324 4.65341C9.51563 4.65341 10.0213 4.76278 10.4503 4.98153C10.8821 5.19744 11.2159 5.48864 11.4517 5.85511C11.6875 6.22159 11.8054 6.62642 11.8054 7.0696C11.8082 7.56108 11.6634 7.97301 11.3707 8.3054C11.081 8.63778 10.7003 8.85511 10.2287 8.95739V9.02557C10.8423 9.1108 11.3125 9.33807 11.6392 9.70739C11.9688 10.0739 12.1321 10.5298 12.1293 11.0753C12.1293 11.5639 11.9901 12.0014 11.7116 12.3878C11.4361 12.7713 11.0554 13.0724 10.5696 13.2912C10.0866 13.5099 9.53267 13.6193 8.90767 13.6193Z" fill="white"/>
<defs>
<linearGradient id="paint0_linear_78_253" x1="1" y1="12.5633" x2="17" y2="12.5633" gradientUnits="userSpaceOnUse">
<stop stop-color="#515151"/>
<stop offset="1"/>
</linearGradient>
</defs>
</svg>
