<svg width="18" height="18" viewBox="0 0 18 18" fill="none" xmlns="http://www.w3.org/2000/svg">
<path d="M1 13V5C1 2.79086 2.79086 1 5 1H13C15.2091 1 17 2.79086 17 5V13C17 15.2091 15.2091 17 13 17H5C2.79086 17 1 15.2091 1 13Z" fill="url(#paint0_linear_78_259)" stroke="#FAFAFA"/>
<path d="M8.80966 13.6193C8.24148 13.6193 7.73295 13.5128 7.28409 13.2997C6.83523 13.0838 6.47869 12.7884 6.21449 12.4134C5.95313 12.0384 5.81392 11.6094 5.79688 11.1264H7.33097C7.35938 11.4844 7.5142 11.777 7.79545 12.0043C8.0767 12.2287 8.41477 12.3409 8.80966 12.3409C9.11932 12.3409 9.39489 12.2699 9.63636 12.1278C9.87784 11.9858 10.0682 11.7884 10.2074 11.5355C10.3466 11.2827 10.4148 10.9943 10.4119 10.6705C10.4148 10.3409 10.3452 10.0483 10.2031 9.79261C10.0611 9.53693 9.86648 9.33665 9.61932 9.19176C9.37216 9.04403 9.08807 8.97017 8.76705 8.97017C8.50568 8.96733 8.24858 9.01562 7.99574 9.11506C7.7429 9.21449 7.54261 9.34517 7.39489 9.5071L5.96733 9.27273L6.4233 4.77273H11.4858V6.09375H7.73153L7.48011 8.40767H7.53125C7.69318 8.21733 7.92188 8.05966 8.21733 7.93466C8.51278 7.80682 8.83665 7.7429 9.18892 7.7429C9.71733 7.7429 10.1889 7.8679 10.6037 8.1179C11.0185 8.36506 11.3452 8.70597 11.5838 9.14062C11.8224 9.57528 11.9418 10.0724 11.9418 10.6321C11.9418 11.2088 11.8082 11.723 11.5412 12.1747C11.277 12.6236 10.9091 12.9773 10.4375 13.2358C9.96875 13.4915 9.42614 13.6193 8.80966 13.6193Z" fill="white"/>
<defs>
<linearGradient id="paint0_linear_78_259" x1="1" y1="12.5633" x2="17" y2="12.5633" gradientUnits="userSpaceOnUse">
<stop stop-color="#515151"/>
<stop offset="1"/>
</linearGradient>
</defs>
</svg>
