<svg width="18" height="18" viewBox="0 0 18 18" fill="none" xmlns="http://www.w3.org/2000/svg">
<path d="M1 13V5C1 2.79086 2.79086 1 5 1H13C15.2091 1 17 2.79086 17 5V13C17 15.2091 15.2091 17 13 17H5C2.79086 17 1 15.2091 1 13Z" fill="url(#paint0_linear_78_262)" stroke="#FAFAFA"/>
<path d="M8.97159 13.6193C8.55398 13.6165 8.14631 13.544 7.74858 13.402C7.35085 13.2571 6.9929 13.0227 6.67472 12.6989C6.35653 12.3722 6.10369 11.9389 5.91619 11.3991C5.72869 10.8565 5.63636 10.1847 5.6392 9.38352C5.6392 8.63636 5.71875 7.97017 5.87784 7.38494C6.03693 6.79972 6.26562 6.3054 6.56392 5.90199C6.86222 5.49574 7.22159 5.18608 7.64205 4.97301C8.06534 4.75994 8.53835 4.65341 9.06108 4.65341C9.60938 4.65341 10.0952 4.76136 10.5185 4.97727C10.9446 5.19318 11.2884 5.48864 11.5497 5.86364C11.8111 6.2358 11.973 6.65625 12.0355 7.125H10.4801C10.4006 6.78977 10.2372 6.52273 9.99006 6.32386C9.74574 6.12216 9.43608 6.02131 9.06108 6.02131C8.45597 6.02131 7.99006 6.28409 7.66335 6.80966C7.33949 7.33523 7.17614 8.05682 7.1733 8.97443H7.23295C7.37216 8.72443 7.55256 8.50994 7.77415 8.33097C7.99574 8.15199 8.24574 8.0142 8.52415 7.91761C8.8054 7.81818 9.10227 7.76847 9.41477 7.76847C9.92614 7.76847 10.3849 7.89062 10.7912 8.13494C11.2003 8.37926 11.5241 8.71591 11.7628 9.14489C12.0014 9.57102 12.1193 10.0597 12.1165 10.6108C12.1193 11.1847 11.9886 11.7003 11.7244 12.1577C11.4602 12.6122 11.0923 12.9702 10.6207 13.2315C10.1491 13.4929 9.59943 13.6222 8.97159 13.6193ZM8.96307 12.3409C9.27273 12.3409 9.54972 12.2656 9.79403 12.1151C10.0384 11.9645 10.2315 11.7614 10.3736 11.5057C10.5156 11.25 10.5852 10.9631 10.5824 10.6449C10.5852 10.3324 10.517 10.0497 10.3778 9.79688C10.2415 9.54403 10.0526 9.34375 9.81108 9.19602C9.5696 9.0483 9.29403 8.97443 8.98438 8.97443C8.75426 8.97443 8.53977 9.01847 8.34091 9.10653C8.14205 9.1946 7.96875 9.31676 7.82102 9.47301C7.6733 9.62642 7.55682 9.8054 7.47159 10.0099C7.3892 10.2116 7.34659 10.4276 7.34375 10.6577C7.34659 10.9616 7.41761 11.2415 7.55682 11.4972C7.69602 11.7528 7.88778 11.9574 8.1321 12.1108C8.37642 12.2642 8.65341 12.3409 8.96307 12.3409Z" fill="white"/>
<defs>
<linearGradient id="paint0_linear_78_262" x1="1" y1="12.5633" x2="17" y2="12.5633" gradientUnits="userSpaceOnUse">
<stop stop-color="#515151"/>
<stop offset="1"/>
</linearGradient>
</defs>
</svg>
