<svg width="18" height="18" viewBox="0 0 18 18" fill="none" xmlns="http://www.w3.org/2000/svg">
<path d="M1 13V5C1 2.79086 2.79086 1 5 1H13C15.2091 1 17 2.79086 17 5V13C17 15.2091 15.2091 17 13 17H5C2.79086 17 1 15.2091 1 13Z" fill="url(#paint0_linear_78_268)" stroke="#FAFAFA"/>
<path d="M8.87784 13.6193C8.24432 13.6193 7.68182 13.5128 7.19034 13.2997C6.7017 13.0866 6.31818 12.7955 6.03977 12.4261C5.7642 12.054 5.62784 11.6321 5.63068 11.1605C5.62784 10.794 5.70739 10.4574 5.86932 10.1506C6.03125 9.84375 6.25 9.58807 6.52557 9.38352C6.80398 9.17614 7.11364 9.04403 7.45455 8.98722V8.92756C7.00568 8.82812 6.64205 8.59943 6.36364 8.24148C6.08807 7.88068 5.9517 7.46449 5.95455 6.9929C5.9517 6.54403 6.0767 6.14347 6.32955 5.79119C6.58239 5.43892 6.92898 5.16193 7.36932 4.96023C7.80966 4.75568 8.3125 4.65341 8.87784 4.65341C9.4375 4.65341 9.93608 4.75568 10.3736 4.96023C10.8139 5.16193 11.1605 5.43892 11.4134 5.79119C11.669 6.14347 11.7969 6.54403 11.7969 6.9929C11.7969 7.46449 11.6562 7.88068 11.375 8.24148C11.0966 8.59943 10.7372 8.82812 10.2969 8.92756V8.98722C10.6378 9.04403 10.9446 9.17614 11.2173 9.38352C11.4929 9.58807 11.7116 9.84375 11.8736 10.1506C12.0384 10.4574 12.1207 10.794 12.1207 11.1605C12.1207 11.6321 11.9815 12.054 11.7031 12.4261C11.4247 12.7955 11.0412 13.0866 10.5526 13.2997C10.0668 13.5128 9.50852 13.6193 8.87784 13.6193ZM8.87784 12.4006C9.20455 12.4006 9.48864 12.3452 9.73011 12.2344C9.97159 12.1207 10.1591 11.9616 10.2926 11.7571C10.4261 11.5526 10.4943 11.3168 10.4972 11.0497C10.4943 10.7713 10.4219 10.5256 10.2798 10.3125C10.1406 10.0966 9.94886 9.92756 9.70455 9.8054C9.46307 9.68324 9.1875 9.62216 8.87784 9.62216C8.56534 9.62216 8.28693 9.68324 8.04261 9.8054C7.7983 9.92756 7.60511 10.0966 7.46307 10.3125C7.32386 10.5256 7.25568 10.7713 7.25852 11.0497C7.25568 11.3168 7.32102 11.5526 7.45455 11.7571C7.58807 11.9588 7.77557 12.1165 8.01705 12.2301C8.26136 12.3437 8.5483 12.4006 8.87784 12.4006ZM8.87784 8.42472C9.14489 8.42472 9.38068 8.37074 9.58523 8.26278C9.79261 8.15483 9.95597 8.00426 10.0753 7.81108C10.1946 7.6179 10.2557 7.39489 10.2585 7.14205C10.2557 6.89205 10.196 6.6733 10.0795 6.4858C9.96307 6.29545 9.80114 6.14915 9.59375 6.04688C9.38636 5.94176 9.14773 5.8892 8.87784 5.8892C8.60227 5.8892 8.35938 5.94176 8.14915 6.04688C7.94176 6.14915 7.77983 6.29545 7.66335 6.4858C7.54972 6.6733 7.49432 6.89205 7.49716 7.14205C7.49432 7.39489 7.55114 7.6179 7.66761 7.81108C7.78693 8.00142 7.95028 8.15199 8.15767 8.26278C8.3679 8.37074 8.60795 8.42472 8.87784 8.42472Z" fill="white"/>
<defs>
<linearGradient id="paint0_linear_78_268" x1="1" y1="12.5633" x2="17" y2="12.5633" gradientUnits="userSpaceOnUse">
<stop stop-color="#515151"/>
<stop offset="1"/>
</linearGradient>
</defs>
</svg>
