<svg width="18" height="18" viewBox="0 0 18 18" fill="none" xmlns="http://www.w3.org/2000/svg">
<path d="M1 13V5C1 2.79086 2.79086 1 5 1H13C15.2091 1 17 2.79086 17 5V13C17 15.2091 15.2091 17 13 17H5C2.79086 17 1 15.2091 1 13Z" fill="url(#paint0_linear_78_271)" stroke="#FAFAFA"/>
<path d="M8.8054 4.65341C9.22301 4.65625 9.62926 4.73011 10.0241 4.875C10.4219 5.01705 10.7798 5.25 11.098 5.57386C11.4162 5.89489 11.669 6.32528 11.8565 6.86506C12.044 7.40483 12.1378 8.07244 12.1378 8.8679C12.1406 9.6179 12.0611 10.2884 11.8991 10.8793C11.7401 11.4673 11.5114 11.9645 11.2131 12.3707C10.9148 12.777 10.5554 13.0866 10.1349 13.2997C9.71449 13.5128 9.24148 13.6193 8.71591 13.6193C8.16477 13.6193 7.67614 13.5114 7.25 13.2955C6.8267 13.0795 6.48438 12.7841 6.22301 12.4091C5.96165 12.0341 5.80114 11.6051 5.74148 11.1222H7.29688C7.37642 11.4687 7.53835 11.7443 7.78267 11.9489C8.02983 12.1506 8.34091 12.2514 8.71591 12.2514C9.32102 12.2514 9.78693 11.9886 10.1136 11.4631C10.4403 10.9375 10.6037 10.2074 10.6037 9.27273H10.544C10.4048 9.52273 10.2244 9.73864 10.0028 9.92045C9.78125 10.0994 9.52983 10.2372 9.24858 10.3338C8.97017 10.4304 8.67472 10.4787 8.36222 10.4787C7.85085 10.4787 7.39063 10.3565 6.98153 10.1122C6.57528 9.8679 6.25284 9.53267 6.0142 9.10653C5.77841 8.6804 5.65909 8.19318 5.65625 7.64489C5.65625 7.0767 5.78693 6.56676 6.0483 6.11506C6.3125 5.66051 6.6804 5.30256 7.15199 5.04119C7.62358 4.77699 8.17472 4.64773 8.8054 4.65341ZM8.80966 5.93182C8.50284 5.93182 8.22585 6.0071 7.97869 6.15767C7.73438 6.3054 7.54119 6.5071 7.39915 6.76278C7.25994 7.01562 7.19034 7.2983 7.19034 7.6108C7.19318 7.92045 7.26278 8.2017 7.39915 8.45455C7.53835 8.70739 7.72727 8.90767 7.96591 9.0554C8.20739 9.20312 8.48295 9.27699 8.79261 9.27699C9.02273 9.27699 9.23722 9.23295 9.43608 9.14489C9.63494 9.05682 9.80824 8.93466 9.95597 8.77841C10.1065 8.61932 10.223 8.43892 10.3054 8.23722C10.3906 8.03551 10.4318 7.82244 10.429 7.59801C10.429 7.29972 10.358 7.02415 10.2159 6.77131C10.0767 6.51847 9.88494 6.31534 9.64062 6.16193C9.39915 6.00852 9.12216 5.93182 8.80966 5.93182Z" fill="white"/>
<defs>
<linearGradient id="paint0_linear_78_271" x1="1" y1="12.5633" x2="17" y2="12.5633" gradientUnits="userSpaceOnUse">
<stop stop-color="#515151"/>
<stop offset="1"/>
</linearGradient>
</defs>
</svg>
