<svg width="73" height="73" viewBox="0 0 73 73" fill="none" xmlns="http://www.w3.org/2000/svg">
<path fill-rule="evenodd" clip-rule="evenodd" d="M28 32.5C28 37.1944 31.8056 41 36.5 41C41.1944 41 45 37.1944 45 32.5C45 27.8056 41.1944 24 36.5 24C31.8056 24 28 27.8056 28 32.5ZM31.6 32.5C31.6 35.2062 33.7938 37.4 36.5 37.4C39.2062 37.4 41.4 35.2062 41.4 32.5C41.4 29.7938 39.2062 27.6 36.5 27.6C33.7938 27.6 31.6 29.7938 31.6 32.5Z" fill="url(#paint0_linear_78_222)"/>
<path d="M36.5 41C31.8056 41 28 37.1944 28 32.5C28 39.6 35.5 41.2 35.5 47.7C35.5 47.1477 35.9477 46.7 36.5 46.7C37.0523 46.7 37.5 47.1477 37.5 47.7C37.5 41.2 45 39.6 45 32.5C45 37.1944 41.1944 41 36.5 41Z" fill="url(#paint1_linear_78_222)"/>
<path d="M35.5 47.7C35.5 48.4 35.9477 48.7 36.5 48.7C37.0523 48.7 37.5 48.4 37.5 47.7C37.5 47.1477 37.0523 46.7 36.5 46.7C35.9477 46.7 35.5 47.1477 35.5 47.7Z" fill="url(#paint2_linear_78_222)"/>
<g filter="url(#filter0_d_78_222)">
<path fill-rule="evenodd" clip-rule="evenodd" d="M28 32.5C28 37.1944 31.8056 41 36.5 41C41.1944 41 45 37.1944 45 32.5C45 27.8056 41.1944 24 36.5 24C31.8056 24 28 27.8056 28 32.5ZM31.6 32.5C31.6 35.2062 33.7938 37.4 36.5 37.4C39.2062 37.4 41.4 35.2062 41.4 32.5C41.4 29.7938 39.2062 27.6 36.5 27.6C33.7938 27.6 31.6 29.7938 31.6 32.5Z" fill="url(#paint3_linear_78_222)"/>
</g>
<path d="M31.6 32.5C31.6 35.2062 33.7938 37.4 36.5 37.4C39.2062 37.4 41.4 35.2062 41.4 32.5C41.4 29.7938 39.2062 27.6 36.5 27.6C33.7938 27.6 31.6 29.7938 31.6 32.5Z" fill="#EEF3FF"/>
<defs>
<filter id="filter0_d_78_222" x="0" y="0" width="73" height="73" filterUnits="userSpaceOnUse" color-interpolation-filters="sRGB">
<feFlood flood-opacity="0" result="BackgroundImageFix"/>
<feColorMatrix in="SourceAlpha" type="matrix" values="0 0 0 0 0 0 0 0 0 0 0 0 0 0 0 0 0 0 127 0" result="hardAlpha"/>
<feOffset dy="4"/>
<feGaussianBlur stdDeviation="14"/>
<feComposite in2="hardAlpha" operator="out"/>
<feColorMatrix type="matrix" values="0 0 0 0 0 0 0 0 0 0 0 0 0 0 0 0 0 0 0.25 0"/>
<feBlend mode="normal" in2="BackgroundImageFix" result="effect1_dropShadow_78_222"/>
<feBlend mode="normal" in="SourceGraphic" in2="effect1_dropShadow_78_222" result="shape"/>
</filter>
<linearGradient id="paint0_linear_78_222" x1="28" y1="36.286" x2="45" y2="36.286" gradientUnits="userSpaceOnUse">
<stop stop-color="#5988FF"/>
<stop offset="1" stop-color="#274DB0"/>
</linearGradient>
<linearGradient id="paint1_linear_78_222" x1="28" y1="36.286" x2="45" y2="36.286" gradientUnits="userSpaceOnUse">
<stop stop-color="#5988FF"/>
<stop offset="1" stop-color="#274DB0"/>
</linearGradient>
<linearGradient id="paint2_linear_78_222" x1="28" y1="36.286" x2="45" y2="36.286" gradientUnits="userSpaceOnUse">
<stop stop-color="#5988FF"/>
<stop offset="1" stop-color="#274DB0"/>
</linearGradient>
<linearGradient id="paint3_linear_78_222" x1="28" y1="36.286" x2="45" y2="36.286" gradientUnits="userSpaceOnUse">
<stop stop-color="#5988FF"/>
<stop offset="1" stop-color="#274DB0"/>
</linearGradient>
</defs>
</svg>
