<svg width="18" height="18" viewBox="0 0 18 18" fill="none" xmlns="http://www.w3.org/2000/svg">
<path d="M9 1C13.4183 1 17 4.58172 17 9C17 13.4183 13.4183 17 9 17C4.58172 17 1 13.4183 1 9C1 4.58172 4.58172 1 9 1Z" fill="url(#paint0_linear_77_175)"/>
<path d="M9 1C13.4183 1 17 4.58172 17 9C17 13.4183 13.4183 17 9 17C4.58172 17 1 13.4183 1 9C1 4.58172 4.58172 1 9 1Z" fill="url(#paint1_linear_77_175)"/>
<path d="M9 1C13.4183 1 17 4.58172 17 9C17 13.4183 13.4183 17 9 17C4.58172 17 1 13.4183 1 9C1 4.58172 4.58172 1 9 1Z" fill="url(#paint2_linear_77_175)"/>
<path d="M9 1C13.4183 1 17 4.58172 17 9C17 13.4183 13.4183 17 9 17C4.58172 17 1 13.4183 1 9C1 4.58172 4.58172 1 9 1Z" fill="url(#paint3_linear_77_175)"/>
<path d="M9 1C13.4183 1 17 4.58172 17 9C17 13.4183 13.4183 17 9 17C4.58172 17 1 13.4183 1 9C1 4.58172 4.58172 1 9 1Z" stroke="#FAFAFA"/>
<g filter="url(#filter0_d_77_175)">
<path d="M5 12.5H6.5M13 12.5H11.5M9 12.5L9 6.5M9 12.5H6.5M9 12.5L11.5 12.5M6.5 12.5L6.5 6.5M6.5 12.5L11.5 12.5M11.5 12.5L11.5 6.5" stroke="#FAFAFA" stroke-width="1.5" stroke-linecap="square"/>
<path d="M9 4.5L4.5 6.5L13.5 6.5L9 4.5Z" fill="#FAFAFA" stroke="#FAFAFA" stroke-linejoin="round"/>
<path d="M4.5 7L13.5 7" stroke="#FAFAFA" stroke-linejoin="round"/>
<path d="M5 12L13 12" stroke="#FAFAFA" stroke-linejoin="round"/>
</g>
<defs>
<filter id="filter0_d_77_175" x="3.49994" y="3.5" width="12.0001" height="11.25" filterUnits="userSpaceOnUse" color-interpolation-filters="sRGB">
<feFlood flood-opacity="0" result="BackgroundImageFix"/>
<feColorMatrix in="SourceAlpha" type="matrix" values="0 0 0 0 0 0 0 0 0 0 0 0 0 0 0 0 0 0 127 0" result="hardAlpha"/>
<feOffset dx="0.5" dy="0.5"/>
<feGaussianBlur stdDeviation="0.5"/>
<feComposite in2="hardAlpha" operator="out"/>
<feColorMatrix type="matrix" values="0 0 0 0 0 0 0 0 0 0 0 0 0 0 0 0 0 0 0.25 0"/>
<feBlend mode="normal" in2="BackgroundImageFix" result="effect1_dropShadow_77_175"/>
<feBlend mode="normal" in="SourceGraphic" in2="effect1_dropShadow_77_175" result="shape"/>
</filter>
<linearGradient id="paint0_linear_77_175" x1="1" y1="12.5633" x2="17" y2="12.5633" gradientUnits="userSpaceOnUse">
<stop stop-color="#5988FF"/>
<stop offset="1" stop-color="#274DB0"/>
</linearGradient>
<linearGradient id="paint1_linear_77_175" x1="1" y1="12.5633" x2="17" y2="12.5633" gradientUnits="userSpaceOnUse">
<stop stop-color="#FF5959"/>
<stop offset="1" stop-color="#B02727"/>
</linearGradient>
<linearGradient id="paint2_linear_77_175" x1="1" y1="12.5633" x2="17" y2="12.5633" gradientUnits="userSpaceOnUse">
<stop stop-color="#B659FF"/>
<stop offset="0.9999" stop-color="#5832C2"/>
</linearGradient>
<linearGradient id="paint3_linear_77_175" x1="1" y1="12.5633" x2="17" y2="12.5633" gradientUnits="userSpaceOnUse">
<stop stop-color="#84FF59"/>
<stop offset="1" stop-color="#32B027"/>
</linearGradient>
</defs>
</svg>
