<svg width="18" height="18" viewBox="0 0 18 18" fill="none" xmlns="http://www.w3.org/2000/svg">
<path d="M9 1C13.4183 1 17 4.58172 17 9C17 13.4183 13.4183 17 9 17C4.58172 17 1 13.4183 1 9C1 4.58172 4.58172 1 9 1Z" fill="url(#paint0_linear_77_215)"/>
<path d="M9 1C13.4183 1 17 4.58172 17 9C17 13.4183 13.4183 17 9 17C4.58172 17 1 13.4183 1 9C1 4.58172 4.58172 1 9 1Z" fill="url(#paint1_linear_77_215)"/>
<path d="M9 1C13.4183 1 17 4.58172 17 9C17 13.4183 13.4183 17 9 17C4.58172 17 1 13.4183 1 9C1 4.58172 4.58172 1 9 1Z" fill="url(#paint2_linear_77_215)"/>
<path d="M9 1C13.4183 1 17 4.58172 17 9C17 13.4183 13.4183 17 9 17C4.58172 17 1 13.4183 1 9C1 4.58172 4.58172 1 9 1Z" stroke="#FAFAFA"/>
<path d="M4.5 7.5C5.5 7.5 5.78845 6.5 6.75 6.5C7.71155 6.5 8.03845 7.5 9 7.5C9.96155 7.5 10.2884 6.5 11.25 6.5C12.2116 6.5 12.5 7.5 13.5 7.5" stroke="#FAFAFA" stroke-linecap="square" stroke-linejoin="round"/>
<path d="M4.5 9.5C5.5 9.5 5.78845 8.5 6.75 8.5C7.71155 8.5 8.03845 9.5 9 9.5C9.96155 9.5 10.2884 8.5 11.25 8.5C12.2116 8.5 12.5 9.5 13.5 9.5" stroke="#FAFAFA" stroke-linecap="square" stroke-linejoin="round"/>
<path d="M4.5 11.5C5.5 11.5 5.78845 10.5 6.75 10.5C7.71155 10.5 8.03845 11.5 9 11.5C9.96155 11.5 10.2884 10.5 11.25 10.5C12.2116 10.5 12.5 11.5 13.5 11.5" stroke="#FAFAFA" stroke-linecap="square" stroke-linejoin="round"/>
<defs>
<linearGradient id="paint0_linear_77_215" x1="1" y1="12.5633" x2="17" y2="12.5633" gradientUnits="userSpaceOnUse">
<stop stop-color="#5988FF"/>
<stop offset="1" stop-color="#274DB0"/>
</linearGradient>
<linearGradient id="paint1_linear_77_215" x1="1" y1="12.5633" x2="17" y2="12.5633" gradientUnits="userSpaceOnUse">
<stop stop-color="#FF5959"/>
<stop offset="1" stop-color="#B02727"/>
</linearGradient>
<linearGradient id="paint2_linear_77_215" x1="1" y1="12.5633" x2="17" y2="12.5633" gradientUnits="userSpaceOnUse">
<stop stop-color="#B659FF"/>
<stop offset="0.9999" stop-color="#5832C2"/>
</linearGradient>
</defs>
</svg>
