<svg viewBox="0 0 18 18" fill="none" xmlns="http://www.w3.org/2000/svg">
<path d="M9 1C13.4183 1 17 4.58172 17 9C17 13.4183 13.4183 17 9 17C4.58172 17 1 13.4183 1 9C1 4.58172 4.58172 1 9 1Z" fill="url(#paint0_linear_77_185)"/>
<path d="M9 1C13.4183 1 17 4.58172 17 9C17 13.4183 13.4183 17 9 17C4.58172 17 1 13.4183 1 9C1 4.58172 4.58172 1 9 1Z" fill="url(#paint1_linear_77_185)"/>
<path d="M9 1C13.4183 1 17 4.58172 17 9C17 13.4183 13.4183 17 9 17C4.58172 17 1 13.4183 1 9C1 4.58172 4.58172 1 9 1Z" fill="url(#paint2_linear_77_185)"/>
<path d="M9 1C13.4183 1 17 4.58172 17 9C17 13.4183 13.4183 17 9 17C4.58172 17 1 13.4183 1 9C1 4.58172 4.58172 1 9 1Z" fill="url(#paint3_linear_77_185)"/>
<path d="M9 1C13.4183 1 17 4.58172 17 9C17 13.4183 13.4183 17 9 17C4.58172 17 1 13.4183 1 9C1 4.58172 4.58172 1 9 1Z" fill="url(#paint4_linear_77_185)"/>
<path d="M9 1C13.4183 1 17 4.58172 17 9C17 13.4183 13.4183 17 9 17C4.58172 17 1 13.4183 1 9C1 4.58172 4.58172 1 9 1Z" fill="url(#paint5_linear_77_185)"/>
<path d="M9 1C13.4183 1 17 4.58172 17 9C17 13.4183 13.4183 17 9 17C4.58172 17 1 13.4183 1 9C1 4.58172 4.58172 1 9 1Z" stroke="#FAFAFA"/>
<g filter="url(#filter0_d_77_185)">
<path d="M9 12.5C9 12.5 9.00281 8.63256 9.00281 7.07046M9.00281 7.07046C8.86474 6.10396 7.92347 5.2455 7.00281 5.57043C6.33892 5.80475 5.96376 6.36749 6.00281 7.07043M9.00281 7.07046C8.94866 6.09565 10.0822 5.24552 11.0028 5.57046C11.6667 5.80478 12.0419 6.36752 12.0028 7.07046M5 10.1737C5.19902 9.36958 5.69581 8.87277 6.49996 8.67373C7.62006 8.39648 8.86474 9.27767 9.00281 10.2442C8.94866 9.26936 10.3814 8.39807 11.5 8.67373C12.3043 8.87196 12.8018 9.36937 13 10.1737" stroke="#FAFAFA" stroke-linecap="round" stroke-linejoin="round" shape-rendering="crispEdges"/>
</g>
<defs>
<filter id="filter0_d_77_185" x="3.99988" y="4.49963" width="11.0002" height="10.0004" filterUnits="userSpaceOnUse" color-interpolation-filters="sRGB">
<feFlood flood-opacity="0" result="BackgroundImageFix"/>
<feColorMatrix in="SourceAlpha" type="matrix" values="0 0 0 0 0 0 0 0 0 0 0 0 0 0 0 0 0 0 127 0" result="hardAlpha"/>
<feOffset dx="0.5" dy="0.5"/>
<feGaussianBlur stdDeviation="0.5"/>
<feComposite in2="hardAlpha" operator="out"/>
<feColorMatrix type="matrix" values="0 0 0 0 0 0 0 0 0 0 0 0 0 0 0 0 0 0 0.25 0"/>
<feBlend mode="normal" in2="BackgroundImageFix" result="effect1_dropShadow_77_185"/>
<feBlend mode="normal" in="SourceGraphic" in2="effect1_dropShadow_77_185" result="shape"/>
</filter>
<linearGradient id="paint0_linear_77_185" x1="1" y1="12.5633" x2="17" y2="12.5633" gradientUnits="userSpaceOnUse">
<stop stop-color="#5988FF"/>
<stop offset="1" stop-color="#274DB0"/>
</linearGradient>
<linearGradient id="paint1_linear_77_185" x1="1" y1="12.5633" x2="17" y2="12.5633" gradientUnits="userSpaceOnUse">
<stop stop-color="#FF5959"/>
<stop offset="1" stop-color="#B02727"/>
</linearGradient>
<linearGradient id="paint2_linear_77_185" x1="1" y1="12.5633" x2="17" y2="12.5633" gradientUnits="userSpaceOnUse">
<stop stop-color="#B659FF"/>
<stop offset="0.9999" stop-color="#5832C2"/>
</linearGradient>
<linearGradient id="paint3_linear_77_185" x1="1" y1="12.5633" x2="17" y2="12.5633" gradientUnits="userSpaceOnUse">
<stop stop-color="#84FF59"/>
<stop offset="1" stop-color="#32B027"/>
</linearGradient>
<linearGradient id="paint4_linear_77_185" x1="1" y1="12.5633" x2="17" y2="12.5633" gradientUnits="userSpaceOnUse">
<stop stop-color="#FBFF50"/>
<stop offset="1" stop-color="#FFC700"/>
</linearGradient>
<linearGradient id="paint5_linear_77_185" x1="1" y1="12.5633" x2="17" y2="12.5633" gradientUnits="userSpaceOnUse">
<stop stop-color="#BFD1FF"/>
<stop offset="1" stop-color="#4779FA"/>
</linearGradient>
</defs>
</svg>
