<svg width="646" height="646" viewBox="0 0 646 646" fill="none" xmlns="http://www.w3.org/2000/svg">
<path d="M279.895 633.578C279.847 634.754 280.172 635.715 280.872 636.461C281.56 637.207 282.689 637.675 284.259 637.866C285.258 637.988 286.093 637.965 286.762 637.799C287.418 637.642 287.922 637.379 288.274 637.008C288.626 636.638 288.839 636.191 288.914 635.669C288.99 635.241 288.962 634.842 288.83 634.471C288.685 634.111 288.431 633.767 288.07 633.44C287.707 633.124 287.231 632.818 286.642 632.522C286.053 632.225 285.344 631.938 284.517 631.66L281.663 630.675C279.738 630.015 278.114 629.256 276.79 628.398C275.467 627.54 274.414 626.591 273.632 625.551C272.849 624.522 272.318 623.406 272.039 622.203C271.749 620.998 271.681 619.714 271.835 618.351C272.132 616.001 272.961 614.082 274.321 612.593C275.682 611.105 277.495 610.068 279.76 609.482C282.014 608.894 284.653 608.784 287.675 609.152C290.78 609.53 293.433 610.32 295.634 611.521C297.825 612.721 299.443 614.353 300.49 616.418C301.524 618.493 301.865 621.027 301.513 624.02L292.306 622.899C292.381 621.797 292.219 620.845 291.821 620.04C291.423 619.236 290.806 618.588 289.969 618.096C289.121 617.603 288.08 617.281 286.848 617.131C285.813 617.005 284.932 617.028 284.203 617.199C283.474 617.37 282.902 617.661 282.487 618.071C282.071 618.481 281.822 618.976 281.74 619.557C281.685 620.105 281.807 620.604 282.106 621.054C282.393 621.514 282.906 621.955 283.645 622.376C284.383 622.808 285.397 623.251 286.687 623.703L290.151 624.904C293.23 625.976 295.584 627.426 297.214 629.255C298.831 631.094 299.465 633.41 299.114 636.202C298.85 638.473 298.004 640.384 296.577 641.935C295.137 643.496 293.271 644.622 290.982 645.312C288.68 646 286.117 646.172 283.291 645.828C280.408 645.477 277.973 644.69 275.986 643.468C273.999 642.245 272.543 640.686 271.617 638.79C270.678 636.903 270.345 634.79 270.618 632.448L279.895 633.578Z" fill="#5988FF"/>
<path d="M234.004 635.409L224.564 632.899L230.479 610.595C231.183 607.943 232.425 605.816 234.207 604.215C235.974 602.623 238.124 601.599 240.656 601.144C243.185 600.7 245.938 600.874 248.915 601.666C251.915 602.463 254.403 603.683 256.379 605.324C258.352 606.977 259.711 608.934 260.456 611.195C261.187 613.464 261.201 615.924 260.498 618.577L254.582 640.881L245.142 638.371L250.841 616.882C251.127 615.806 251.145 614.779 250.895 613.803C250.642 612.838 250.159 612.006 249.448 611.307C248.725 610.605 247.826 610.112 246.751 609.826C245.664 609.537 244.639 609.519 243.675 609.772C242.711 610.026 241.88 610.508 241.183 611.221C240.482 611.944 239.989 612.844 239.703 613.921L234.004 635.409Z" fill="#5988FF"/>
<path d="M224.259 594.745L210.311 627.951L195.996 621.923C193.535 620.887 191.585 619.494 190.148 617.743C188.71 615.993 187.849 614.021 187.563 611.828C187.278 609.634 187.63 607.359 188.62 605.002C189.619 602.624 191.012 600.788 192.801 599.493C194.58 598.194 196.616 597.474 198.911 597.333C201.195 597.189 203.601 597.648 206.127 598.712L214.677 602.312L211.735 609.317L204.998 606.48C203.941 606.034 202.962 605.839 202.063 605.892C201.148 605.953 200.346 606.244 199.656 606.768C198.955 607.287 198.407 608.017 198.012 608.957C197.612 609.908 197.477 610.805 197.606 611.648C197.719 612.498 198.079 613.26 198.685 613.935C199.275 614.616 200.1 615.179 201.157 615.625L204.331 616.961L215.255 590.954L224.259 594.745Z" fill="#5988FF"/>
<path d="M188.852 579.11L170.588 610.146L157.209 602.253C154.908 600.896 153.162 599.254 151.972 597.326C150.782 595.399 150.192 593.33 150.202 591.117C150.213 588.905 150.866 586.698 152.162 584.495C153.47 582.272 155.097 580.64 157.043 579.596C158.979 578.547 161.094 578.107 163.387 578.276C165.67 578.438 167.992 579.216 170.353 580.609L178.344 585.324L174.492 591.87L168.196 588.156C167.207 587.573 166.263 587.247 165.365 587.18C164.45 587.117 163.616 587.299 162.862 587.725C162.098 588.145 161.458 588.795 160.941 589.674C160.417 590.563 160.163 591.434 160.178 592.286C160.177 593.143 160.431 593.947 160.942 594.697C161.436 595.451 162.177 596.12 163.166 596.703L166.132 598.453L180.437 574.145L188.852 579.11Z" fill="#5988FF"/>
<path d="M155.879 558.746L133.866 587.239L126.141 581.256L143.338 558.995L131.833 550.084L136.648 543.851L155.879 558.746Z" fill="#5988FF"/>
<path d="M129.452 537.599L104.146 563.205L85.7147 544.944L91.2503 539.343L102.739 550.725L107.088 546.324L96.5488 535.882L102.084 530.281L112.624 540.723L116.973 536.322L105.535 524.989L111.07 519.388L129.452 537.599Z" fill="#5988FF"/>
<path d="M63.8631 519.635L57.172 509.473L69.5829 491.252L69.3509 490.9L47.7348 495.14L41.0437 484.978L71.0814 465.15L76.3414 473.139L58.9759 484.602L59.1306 484.837L80.6706 480.225L83.8421 485.042L71.0031 503.124L71.1578 503.359L88.6407 491.819L93.9007 499.807L63.8631 519.635Z" fill="#5988FF"/>
<path d="M62.4137 447.088L66.6628 456.746L28.9506 460.386L23.5684 448.152L51.706 422.749L55.9551 432.407L35.2701 450.141L35.3834 450.399L62.4137 447.088ZM50.217 454.62L42.2287 436.462L48.9165 433.513L56.9048 451.67L50.217 454.62Z" fill="#5988FF"/>
<path d="M48.9824 414.225L14.309 423.836L10.1654 408.851C9.45291 406.274 9.3374 403.879 9.81887 401.665C10.3003 399.451 11.3125 397.552 12.8554 395.968C14.3983 394.385 16.4001 393.252 18.8606 392.57C21.3437 391.881 23.647 391.839 25.7705 392.443C27.8908 393.035 29.7169 394.19 31.2488 395.907C32.7777 397.612 33.9077 399.787 34.6389 402.432L37.1138 411.382L29.7999 413.41L27.85 406.358C27.5437 405.25 27.0909 404.36 26.4915 403.686C25.8777 403.005 25.1519 402.555 24.3139 402.337C23.4728 402.108 22.5612 402.13 21.5793 402.402C20.586 402.677 19.7989 403.127 19.2178 403.75C18.6224 404.365 18.2478 405.12 18.0941 406.014C17.9259 406.9 17.995 407.897 18.3012 409.005L19.2199 412.327L46.3763 404.799L48.9824 414.225Z" fill="#5988FF"/>
<path d="M12.1702 360.822C11.0225 361.073 10.1769 361.633 9.63327 362.5C9.08807 363.356 8.92246 364.568 9.13643 366.136C9.27274 367.136 9.50632 367.938 9.83718 368.544C10.1548 369.139 10.5373 369.56 10.9847 369.807C11.432 370.053 11.9176 370.147 12.4413 370.087C12.8738 370.052 13.2523 369.923 13.5766 369.701C13.8878 369.469 14.1556 369.137 14.3802 368.703C14.5932 368.272 14.768 367.733 14.9044 367.087C15.0409 366.441 15.1383 365.682 15.1967 364.81L15.4238 361.797C15.5721 359.765 15.8927 357.999 16.3855 356.499C16.8784 355 17.5279 353.739 18.3342 352.718C19.1288 351.698 20.072 350.9 21.1637 350.325C22.2539 349.738 23.4769 349.346 24.833 349.148C27.1785 348.839 29.2428 349.155 31.0259 350.094C32.8089 351.034 34.2713 352.526 35.4132 354.572C36.5535 356.605 37.3297 359.132 37.7418 362.153C38.165 365.255 38.076 368.025 37.4747 370.462C36.8718 372.888 35.7061 374.87 33.9774 376.409C32.2355 377.937 29.8743 378.911 26.8937 379.33L25.6384 370.128C26.7212 369.921 27.6007 369.523 28.2768 368.933C28.9528 368.344 29.4221 367.581 29.6846 366.646C29.9454 365.699 29.9919 364.61 29.8239 363.378C29.6828 362.344 29.4371 361.496 29.0867 360.834C28.7363 360.172 28.3103 359.691 27.8086 359.393C27.3069 359.095 26.7652 358.979 26.1834 359.047C25.6396 359.133 25.1884 359.379 24.8299 359.783C24.4581 360.177 24.1628 360.785 23.9441 361.608C23.7138 362.432 23.544 363.527 23.4346 364.891L23.1537 368.551C22.9002 371.805 22.0972 374.453 20.7447 376.496C19.3791 378.529 17.303 379.731 14.5165 380.1C12.2554 380.421 10.1945 380.087 8.33392 379.099C6.46015 378.101 4.89932 376.58 3.65141 374.538C2.40193 372.484 1.5846 370.045 1.19945 367.222C0.806373 364.34 0.947949 361.782 1.62418 359.548C2.30041 357.313 3.43694 355.507 5.03378 354.128C6.61743 352.74 8.57465 351.881 10.9054 351.55L12.1702 360.822Z" fill="#5988FF"/>
<path d="M12.3255 284.777C11.151 284.744 10.1956 285.083 9.45917 285.793C8.72401 286.492 8.27142 287.629 8.10141 289.203C7.99311 290.205 8.02658 291.04 8.20183 291.708C8.3667 292.363 8.63652 292.864 9.0113 293.211C9.38609 293.558 9.83483 293.766 10.3575 293.834C10.7858 293.904 11.1841 293.871 11.5523 293.734C11.9101 293.584 12.2501 293.326 12.5724 292.96C12.883 292.592 13.1823 292.112 13.4703 291.518C13.7583 290.924 14.0355 290.211 14.3021 289.379L15.2482 286.509C15.8815 284.572 16.6178 282.936 17.4572 281.6C18.2965 280.263 19.2304 279.197 20.2589 278.4C21.2757 277.602 22.3832 277.056 23.5812 276.761C24.7805 276.454 26.062 276.369 27.4255 276.505C29.7763 276.771 31.7037 277.575 33.2079 278.918C34.7121 280.26 35.772 282.062 36.3878 284.322C37.0048 286.571 37.1496 289.211 36.8221 292.242C36.4859 295.355 35.7325 298.021 34.5621 300.242C33.3929 302.45 31.7842 304.093 29.7361 305.168C27.6777 306.231 25.1516 306.606 22.1579 306.294L23.1554 297.06C24.2561 297.121 25.2056 296.946 26.0037 296.537C26.8018 296.128 27.4408 295.502 27.9207 294.657C28.4019 293.801 28.7093 292.755 28.8428 291.519C28.9549 290.482 28.9206 289.599 28.74 288.872C28.5594 288.145 28.2616 287.576 27.8465 287.165C27.4315 286.755 26.9335 286.512 26.3525 286.438C25.804 286.39 25.3071 286.519 24.8618 286.825C24.4061 287.117 23.9731 287.637 23.5627 288.382C23.1406 289.127 22.7123 290.148 22.2776 291.445L21.1238 294.93C20.0943 298.026 18.6772 300.403 16.8727 302.059C15.0578 303.703 12.7537 304.367 9.96051 304.053C7.68875 303.819 5.769 302.997 4.20126 301.589C2.62314 300.168 1.47444 298.316 0.755166 296.032C0.03715 293.737 -0.168846 291.173 0.137179 288.34C0.4495 285.449 1.20284 283 2.39721 280.995C3.59157 278.989 5.12956 277.511 7.01116 276.559C8.88238 275.593 10.9888 275.232 13.3304 275.474L12.3255 284.777Z" fill="#5988FF"/>
<path d="M9.88741 238.857L12.2687 229.372L34.6215 234.998C37.2793 235.667 39.4194 236.883 41.0419 238.646C42.6559 240.394 43.7069 242.533 44.195 245.062C44.6718 247.588 44.5347 250.346 43.7837 253.337C43.0271 256.351 41.8422 258.858 40.2291 260.858C38.6046 262.855 36.6684 264.242 34.4206 265.018C32.1643 265.78 29.7072 265.827 27.0494 265.158L4.6966 259.532L7.07786 250.047L28.6129 255.468C29.6919 255.739 30.7173 255.743 31.6891 255.48C32.6495 255.214 33.4739 254.72 34.1622 253.999C34.8534 253.266 35.3346 252.359 35.6059 251.279C35.88 250.187 35.8842 249.16 35.6184 248.199C35.3527 247.237 34.8595 246.412 34.1389 245.723C33.407 245.031 32.5015 244.549 31.4225 244.277L9.88741 238.857Z" fill="#5988FF"/>
<path d="M50.3668 228.56L17.0202 215.037L22.8498 200.625C23.8522 198.147 25.2177 196.177 26.9465 194.714C28.6752 193.252 30.6331 192.363 32.8201 192.048C35.0071 191.733 37.2839 192.056 39.6502 193.015C42.0384 193.984 43.8908 195.355 45.2076 197.129C46.5288 198.892 47.2747 200.921 47.4454 203.217C47.6204 205.502 47.1935 207.916 46.1648 210.459L42.6828 219.067L35.6488 216.215L38.3921 209.433C38.823 208.368 39.0055 207.385 38.9398 206.486C38.8676 205.571 38.5655 204.772 38.0335 204.088C37.5058 203.393 36.7698 202.854 35.8254 202.471C34.8701 202.084 33.9725 201.96 33.1324 202.1C32.2859 202.225 31.5296 202.595 30.8637 203.211C30.1912 203.811 29.6396 204.644 29.2088 205.709L27.9162 208.904L54.0334 219.495L50.3668 228.56Z" fill="#5988FF"/>
<path d="M65.5113 192.904L34.274 175.031L41.979 161.531C43.3038 159.21 44.9206 157.44 46.8294 156.223C48.7382 155.006 50.7973 154.387 53.0068 154.369C55.2162 154.35 57.4293 154.974 59.646 156.243C61.8831 157.523 63.5354 159.13 64.6031 161.064C65.6766 162.989 66.1443 165.1 66.0062 167.398C65.874 169.686 65.1281 172.021 63.7684 174.403L59.1663 182.467L52.5772 178.697L56.2031 172.344C56.7725 171.346 57.0848 170.397 57.1401 169.496C57.1909 168.58 56.9984 167.747 56.5627 166.998C56.1327 166.239 55.4754 165.607 54.5907 165.1C53.6959 164.588 52.8229 164.345 51.9716 164.372C51.116 164.382 50.3171 164.647 49.5748 165.168C48.8281 165.673 48.1701 166.424 47.6006 167.422L45.8923 170.415L70.3574 184.413L65.5113 192.904Z" fill="#5988FF"/>
<path d="M85.4106 159.622L56.663 137.962L62.5359 130.148L84.995 147.07L93.7411 135.433L100.03 140.171L85.4106 159.622Z" fill="#5988FF"/>
<path d="M106.177 132.882L80.2694 107.887L98.261 89.1913L103.928 94.659L92.714 106.312L97.1669 110.608L107.455 99.9177L113.122 105.385L102.834 116.076L107.287 120.372L118.453 108.77L124.12 114.237L106.177 132.882Z" fill="#5988FF"/>
<path d="M123.246 66.9791L133.305 60.1452L151.666 72.3287L152.015 72.0917L147.494 50.5066L157.553 43.6727L177.753 73.4822L169.845 78.8546L158.167 61.6209L157.934 61.7789L162.826 83.283L158.057 86.5221L139.829 73.9082L139.597 74.0662L151.354 91.4163L143.446 96.7886L123.246 66.9791Z" fill="#5988FF"/>
<path d="M195.676 64.5639L186.088 68.9462L181.951 31.2382L194.097 25.6872L219.84 53.5204L210.251 57.9027L192.266 37.429L192.011 37.5458L195.676 64.5639ZM187.992 52.4529L206.019 44.2141L209.054 50.8706L191.027 59.1094L187.992 52.4529Z" fill="#5988FF"/>
<path d="M228.317 50.6802L218.258 16.0938L233.168 11.7463C235.732 10.9988 238.122 10.8513 240.34 11.304C242.557 11.7566 244.467 12.7447 246.069 14.2684C247.671 15.7921 248.829 17.7811 249.543 20.2355C250.263 22.7124 250.336 25.0178 249.761 27.1517C249.198 29.2824 248.069 31.126 246.375 32.6826C244.692 34.2358 242.535 35.396 239.904 36.1632L230.998 38.7599L228.876 31.4644L235.893 29.4185C236.995 29.0972 237.878 28.632 238.542 28.023C239.215 27.3994 239.654 26.6667 239.861 25.8249C240.079 24.9797 240.045 24.0674 239.76 23.0879C239.472 22.0972 239.013 21.3151 238.382 20.7416C237.76 20.1536 237.001 19.7886 236.106 19.6466C235.219 19.49 234.224 19.5724 233.122 19.8937L229.817 20.8576L237.695 47.9458L228.317 50.6802Z" fill="#5988FF"/>
<path d="M281.159 13.1165C280.893 11.9708 280.323 11.1316 279.449 10.5989C278.588 10.0644 277.375 9.91469 275.811 10.1497C274.815 10.2995 274.017 10.544 273.417 10.8833C272.826 11.2092 272.41 11.5978 272.17 12.0489C271.93 12.5001 271.843 12.9874 271.91 13.511C271.951 13.9435 272.085 14.3207 272.31 14.6425C272.546 14.9509 272.882 15.2147 273.317 15.4338C273.751 15.6413 274.291 15.8091 274.938 15.9371C275.585 16.0652 276.344 16.1526 277.216 16.1995L280.228 16.3869C282.26 16.5084 284.028 16.8058 285.532 17.2793C287.036 17.7528 288.303 18.3864 289.334 19.1801C290.363 19.9621 291.172 20.8958 291.761 21.9811C292.362 23.0647 292.77 24.2841 292.985 25.6391C293.325 27.9833 293.037 30.0542 292.122 31.8518C291.208 33.6494 289.737 35.1334 287.709 36.3037C285.694 37.4724 283.18 38.2831 280.169 38.7358C277.077 39.2006 274.31 39.1483 271.867 38.5787C269.437 38.0073 267.442 36.8665 265.883 35.1562C264.334 33.4326 263.33 31.0816 262.871 28.1031L272.044 26.7241C272.265 27.8054 272.675 28.6806 273.272 29.3496C273.87 30.0187 274.638 30.4784 275.575 30.7287C276.525 30.9773 277.613 31.0094 278.841 30.8248C279.871 30.6698 280.715 30.4125 281.372 30.053C282.028 29.6934 282.502 29.2605 282.794 28.7542C283.085 28.248 283.193 27.7041 283.117 27.1226C283.024 26.5793 282.773 26.1308 282.365 25.7772C281.966 25.4102 281.355 25.1227 280.53 24.9147C279.704 24.695 278.609 24.5395 277.245 24.4481L273.586 24.2155C270.333 24.0049 267.678 23.2362 265.619 21.9092C263.571 20.569 262.344 18.5064 261.938 15.7216C261.587 13.462 261.893 11.3943 262.855 9.51845C263.827 7.62923 265.325 6.04638 267.348 4.76989C269.383 3.49165 271.808 2.64099 274.622 2.21789C277.494 1.78608 280.051 1.89385 282.291 2.54119C284.532 3.18853 286.351 4.30241 287.749 5.88282C289.156 7.44988 290.04 9.39797 290.401 11.7271L281.159 13.1165Z" fill="#5988FF"/>
<path d="M357.103 12.2617C357.12 11.0854 356.769 10.1334 356.05 9.40551C355.342 8.67877 354.201 8.24075 352.627 8.09144C351.624 7.99632 350.791 8.04093 350.126 8.22525C349.475 8.39901 348.978 8.6758 348.636 9.05564C348.294 9.43547 348.093 9.8875 348.031 10.4117C347.967 10.8415 348.006 11.2397 348.148 11.6065C348.302 11.9628 348.564 12.2998 348.934 12.6176C349.305 12.9237 349.789 13.2169 350.386 13.4974C350.983 13.7778 351.699 14.0459 352.534 14.3018L355.412 15.2109C357.354 15.8192 358.998 16.5346 360.344 17.3572C361.69 18.1798 362.767 19.1006 363.576 20.1197C364.387 21.1271 364.947 22.2286 365.258 23.4241C365.58 24.6208 365.682 25.9026 365.564 27.2695C365.33 29.6266 364.552 31.567 363.231 33.0908C361.911 34.6145 360.126 35.6996 357.877 36.3461C355.639 36.9937 353.004 37.1737 349.973 36.8862C346.86 36.5909 344.187 35.872 341.954 34.7297C339.733 33.5885 338.071 31.9998 336.97 29.9636C335.882 27.9168 335.473 25.3928 335.746 22.3914L344.98 23.2674C344.934 24.3703 345.121 25.3185 345.54 26.1121C345.959 26.9057 346.593 27.5371 347.443 28.0064C348.304 28.4768 349.353 28.7706 350.589 28.8879C351.626 28.9863 352.507 28.9403 353.231 28.7498C353.955 28.5594 354.519 28.2536 354.924 27.8326C355.328 27.4116 355.564 26.9098 355.631 26.3272C355.671 25.7775 355.536 25.2817 355.224 24.8399C354.926 24.3876 354.402 23.9609 353.652 23.5599C352.902 23.1473 351.877 22.732 350.575 22.3141L347.081 21.2051C343.974 20.2155 341.582 18.8284 339.904 17.0438C338.239 15.2485 337.545 12.9506 337.821 10.1499C338.025 7.87241 338.82 5.9395 340.205 4.35123C341.604 2.75239 343.438 1.57774 345.709 0.827294C347.992 0.0779535 350.549 -0.162338 353.383 0.10642C356.274 0.380708 358.729 1.10242 360.748 2.27154C362.767 3.44067 364.264 4.96082 365.24 6.83198C366.228 8.69258 366.617 10.7967 366.407 13.1442L357.103 12.2617Z" fill="#5988FF"/>
<path d="M402.93 9.21076L412.433 11.4688L407.111 33.9226C406.479 36.5924 405.293 38.7512 403.554 40.3989C401.83 42.038 399.708 43.1187 397.189 43.6409C394.672 44.1518 391.916 44.0512 388.919 43.3391C385.899 42.6216 383.38 41.4686 381.361 39.8802C379.345 38.2803 377.934 36.3603 377.129 34.1202C376.338 31.8713 376.259 29.412 376.892 26.7422L382.213 4.28845L391.717 6.54654L386.59 28.1788C386.333 29.2627 386.342 30.2894 386.618 31.2588C386.897 32.2168 387.401 33.0356 388.13 33.7151C388.871 34.3974 389.783 34.8671 390.866 35.1243C391.96 35.3843 392.985 35.3748 393.942 35.096C394.899 34.8171 395.716 34.3124 396.395 33.5818C397.077 32.8399 397.546 31.9269 397.803 30.843L402.93 9.21076Z" fill="#5988FF"/>
<path d="M413.75 49.6007L426.812 16.0354L441.282 21.6805C443.77 22.6511 445.756 23.9921 447.239 25.7035C448.722 27.4148 449.636 29.3632 449.979 31.5486C450.323 33.734 450.031 36.0176 449.105 38.3995C448.169 40.8033 446.824 42.6761 445.071 44.0181C443.327 45.3642 441.311 46.138 439.02 46.3393C436.741 46.5449 434.324 46.1495 431.771 45.1534L423.128 41.7817L425.883 34.7015L432.692 37.358C433.762 37.7752 434.745 37.9449 435.643 37.8672C436.556 37.7828 437.35 37.4697 438.026 36.9279C438.712 36.3904 439.241 35.6464 439.611 34.6958C439.985 33.7343 440.096 32.8339 439.945 31.9947C439.81 31.1489 439.43 30.3966 438.806 29.7381C438.198 29.0728 437.359 28.5316 436.289 28.1144L433.081 26.8628L422.851 53.1512L413.75 49.6007Z" fill="#5988FF"/>
<path d="M449.559 64.289L466.993 32.7778L480.577 40.3125C482.913 41.6081 484.702 43.2033 485.943 45.0981C487.184 46.9929 487.828 49.0463 487.877 51.2581C487.925 53.4699 487.33 55.6938 486.093 57.93C484.845 60.1866 483.262 61.8623 481.344 62.9569C479.437 64.0572 477.334 64.5535 475.038 64.4458C472.751 64.3438 470.409 63.628 468.012 62.2984L459.898 57.798L463.576 51.1511L469.968 54.6968C470.972 55.2537 471.924 55.5538 472.824 55.5971C473.74 55.6359 474.569 55.4321 475.311 54.9859C476.064 54.5453 476.687 53.8788 477.18 52.9864C477.68 52.0837 477.911 51.2065 477.873 50.3546C477.852 49.4981 477.576 48.7017 477.046 47.9655C476.532 47.2247 475.773 46.5758 474.769 46.0189L471.758 44.3484L458.103 69.028L449.559 64.289Z" fill="#5988FF"/>
<path d="M483.06 83.7696L504.309 54.7006L512.191 60.4767L495.59 83.1868L507.327 91.7886L502.679 98.1474L483.06 83.7696Z" fill="#5988FF"/>
<path d="M510.04 104.206L534.658 77.9357L553.567 95.7001L548.182 101.447L536.396 90.374L532.165 94.8891L542.977 105.047L537.592 110.794L526.78 100.636L522.548 105.151L534.283 116.175L528.898 121.922L510.04 104.206Z" fill="#5988FF"/>
<path d="M576.081 120.42L583.039 130.4L571.116 148.944L571.357 149.291L592.853 144.477L599.812 154.458L570.311 175.077L564.84 167.231L581.896 155.31L581.735 155.08L560.325 160.262L557.027 155.531L569.381 137.115L569.221 136.884L552.05 148.885L546.58 141.039L576.081 120.42Z" fill="#5988FF"/>
<path d="M579.455 192.903L574.951 183.361L612.553 178.719L618.258 190.805L590.804 216.948L586.3 207.406L606.508 189.128L606.388 188.874L579.455 192.903ZM591.447 185.049L599.914 202.987L593.307 206.114L584.84 188.175L591.447 185.049Z" fill="#5988FF"/>
<path d="M593.754 225.397L628.16 214.866L632.7 229.736C633.48 232.293 633.659 234.684 633.237 236.911C632.814 239.137 631.853 241.062 630.352 242.686C628.852 244.31 626.881 245.496 624.44 246.243C621.976 246.997 619.674 247.101 617.536 246.553C615.4 246.018 613.544 244.912 611.967 243.236C610.394 241.572 609.206 239.428 608.405 236.804L605.694 227.922L612.951 225.701L615.088 232.699C615.423 233.798 615.899 234.676 616.516 235.333C617.148 235.998 617.886 236.428 618.729 236.624C619.576 236.831 620.487 236.785 621.461 236.487C622.447 236.185 623.222 235.715 623.786 235.076C624.365 234.445 624.719 233.681 624.849 232.783C624.994 231.892 624.898 230.898 624.563 229.799L623.556 226.502L596.609 234.749L593.754 225.397Z" fill="#5988FF"/>
<path d="M631.969 277.802C633.109 277.52 633.94 276.938 634.46 276.057C634.983 275.187 635.116 273.971 634.861 272.409C634.698 271.413 634.443 270.617 634.096 270.021C633.763 269.434 633.369 269.023 632.916 268.788C632.462 268.554 631.974 268.473 631.452 268.547C631.021 268.594 630.646 268.733 630.327 268.963C630.023 269.203 629.764 269.543 629.551 269.982C629.349 270.419 629.189 270.962 629.069 271.611C628.95 272.261 628.873 273.022 628.838 273.895L628.691 276.914C628.596 278.949 628.323 280.723 627.87 282.235C627.417 283.747 626.801 285.024 626.022 286.067C625.255 287.108 624.333 287.93 623.257 288.534C622.183 289.15 620.971 289.575 619.62 289.808C617.284 290.179 615.212 289.919 613.404 289.027C611.597 288.135 610.096 286.682 608.9 284.668C607.706 282.665 606.863 280.16 606.371 277.151C605.866 274.061 605.881 271.29 606.418 268.838C606.956 266.397 608.069 264.384 609.756 262.8C611.457 261.226 613.791 260.19 616.76 259.692L618.259 268.857C617.182 269.093 616.313 269.514 615.653 270.122C614.993 270.729 614.544 271.504 614.306 272.446C614.071 273.399 614.053 274.489 614.254 275.716C614.422 276.746 614.69 277.587 615.058 278.24C615.426 278.892 615.864 279.361 616.374 279.646C616.883 279.931 617.428 280.032 618.008 279.949C618.549 279.848 618.994 279.591 619.341 279.177C619.702 278.774 619.981 278.157 620.178 277.329C620.387 276.499 620.527 275.4 620.601 274.034L620.784 270.368C620.951 267.108 621.684 264.439 622.982 262.361C624.293 260.292 626.336 259.036 629.112 258.593C631.364 258.212 633.433 258.491 635.319 259.429C637.219 260.377 638.819 261.855 640.121 263.864C641.424 265.884 642.306 268.3 642.766 271.112C643.235 273.982 643.162 276.543 642.545 278.795C641.928 281.047 640.84 282.883 639.28 284.303C637.734 285.733 635.8 286.644 633.479 287.037L631.969 277.802Z" fill="#5988FF"/>
<path d="M633.831 353.824C635.006 353.825 635.952 353.461 636.67 352.732C637.386 352.013 637.808 350.865 637.937 349.288C638.018 348.282 637.963 347.448 637.77 346.786C637.588 346.136 637.305 345.642 636.921 345.305C636.537 344.968 636.083 344.772 635.558 344.717C635.128 344.659 634.731 344.703 634.367 344.85C634.013 345.009 633.68 345.276 633.368 345.651C633.067 346.026 632.78 346.515 632.508 347.116C632.236 347.717 631.978 348.437 631.733 349.276L630.864 352.17C630.282 354.123 629.589 355.778 628.786 357.136C627.982 358.495 627.077 359.586 626.07 360.409C625.075 361.234 623.982 361.81 622.792 362.137C621.602 362.475 620.323 362.594 618.956 362.495C616.599 362.291 614.651 361.538 613.112 360.236C611.572 358.934 610.465 357.162 609.79 354.918C609.113 352.687 608.898 350.052 609.145 347.013C609.399 343.892 610.081 341.207 611.192 338.956C612.303 336.717 613.867 335.032 615.886 333.903C617.915 332.786 620.431 332.343 623.432 332.576L622.679 341.833C621.577 341.802 620.633 342.001 619.846 342.431C619.059 342.861 618.437 343.505 617.98 344.362C617.521 345.23 617.242 346.284 617.141 347.523C617.057 348.563 617.114 349.444 617.314 350.167C617.514 350.889 617.827 351.45 618.252 351.849C618.678 352.248 619.183 352.478 619.765 352.537C620.315 352.57 620.808 352.428 621.245 352.11C621.693 351.806 622.112 351.275 622.502 350.519C622.905 349.763 623.306 348.731 623.706 347.422L624.767 343.909C625.714 340.786 627.067 338.372 628.827 336.669C630.598 334.978 632.884 334.252 635.684 334.492C637.961 334.666 639.902 335.436 641.507 336.802C643.122 338.18 644.319 340.001 645.099 342.265C645.878 344.54 646.152 347.098 645.921 349.938C645.685 352.836 644.997 355.304 643.856 357.341C642.716 359.377 641.217 360.896 639.362 361.898C637.517 362.913 635.421 363.33 633.074 363.151L633.831 353.824Z" fill="#5988FF"/>
<path d="M637.486 399.663L635.357 409.208L612.863 404.178C610.188 403.58 608.017 402.422 606.348 400.703C604.688 398.998 603.581 396.888 603.026 394.373C602.482 391.86 602.546 389.099 603.218 386.089C603.894 383.056 605.012 380.519 606.571 378.477C608.142 376.437 610.041 374.999 612.268 374.163C614.503 373.341 616.958 373.229 619.632 373.828L642.127 378.857L639.998 388.402L618.327 383.556C617.241 383.313 616.216 383.336 615.251 383.625C614.298 383.917 613.487 384.432 612.818 385.172C612.147 385.923 611.69 386.842 611.447 387.929C611.202 389.028 611.225 390.054 611.516 391.009C611.807 391.963 612.322 392.775 613.061 393.445C613.811 394.117 614.729 394.575 615.815 394.817L637.486 399.663Z" fill="#5988FF"/>
<path d="M597.295 411.033L630.988 423.664L625.543 438.226C624.607 440.73 623.294 442.736 621.604 444.243C619.915 445.751 617.981 446.692 615.804 447.065C613.626 447.438 611.341 447.176 608.95 446.28C606.537 445.375 604.649 444.054 603.286 442.316C601.918 440.588 601.119 438.579 600.887 436.289C600.652 434.009 601.014 431.585 601.975 429.015L605.228 420.318L612.335 422.982L609.772 429.835C609.37 430.911 609.214 431.898 609.303 432.795C609.4 433.708 609.723 434.499 610.273 435.168C610.819 435.849 611.569 436.368 612.523 436.726C613.488 437.087 614.389 437.187 615.225 437.025C616.068 436.877 616.814 436.487 617.463 435.854C618.12 435.236 618.649 434.389 619.051 433.313L620.259 430.084L593.87 420.192L597.295 411.033Z" fill="#5988FF"/>
<path d="M583.101 447.079L614.801 464.115L607.457 477.815C606.194 480.171 604.625 481.983 602.749 483.251C600.873 484.518 598.831 485.191 596.623 485.268C594.415 485.346 592.186 484.78 589.937 483.572C587.666 482.352 585.972 480.789 584.853 478.883C583.729 476.988 583.206 474.89 583.283 472.59C583.354 470.299 584.038 467.945 585.334 465.527L589.72 457.344L596.407 460.937L592.951 467.385C592.408 468.397 592.121 469.354 592.09 470.256C592.063 471.173 592.278 472 592.733 472.738C593.183 473.485 593.857 474.1 594.755 474.583C595.663 475.071 596.542 475.29 597.393 475.241C598.248 475.208 599.039 474.922 599.767 474.382C600.5 473.857 601.138 473.089 601.681 472.076L603.309 469.039L578.482 455.696L583.101 447.079Z" fill="#5988FF"/>
<path d="M564.092 480.878L593.404 501.766L587.74 509.734L564.84 493.415L556.406 505.281L549.994 500.712L564.092 480.878Z" fill="#5988FF"/>
<path d="M544.042 508.161L570.604 532.459L553.115 551.626L547.304 546.311L558.205 534.364L553.64 530.188L543.639 541.148L537.829 535.833L547.83 524.873L543.265 520.696L532.411 532.592L526.6 527.276L544.042 508.161Z" fill="#5988FF"/>
<path d="M528.727 574.495L518.852 581.594L500.175 569.903L499.832 570.149L504.925 591.607L495.05 598.706L474.066 569.444L481.829 563.863L493.96 580.78L494.189 580.616L488.729 559.249L493.409 555.885L511.965 568.009L512.194 567.845L499.981 550.814L507.744 545.233L528.727 574.495Z" fill="#5988FF"/>
<path d="M456.386 578.835L465.855 574.199L470.99 611.784L458.996 617.656L432.524 590.517L441.993 585.882L460.515 605.87L460.767 605.746L456.386 578.835ZM464.389 590.738L446.587 599.453L443.377 592.879L461.179 584.164L464.389 590.738Z" fill="#5988FF"/>
<path d="M424.126 593.582L435.099 627.889L420.309 632.631C417.766 633.447 415.381 633.658 413.152 633.264C410.923 632.871 408.988 631.934 407.346 630.453C405.704 628.973 404.494 627.015 403.715 624.581C402.929 622.124 402.795 619.821 403.313 617.673C403.82 615.528 404.9 613.655 406.552 612.054C408.193 610.456 410.319 609.239 412.928 608.402L421.762 605.57L424.077 612.806L417.117 615.038C416.024 615.388 415.153 615.877 414.505 616.503C413.849 617.145 413.43 617.889 413.245 618.736C413.05 619.586 413.108 620.498 413.419 621.469C413.733 622.452 414.213 623.221 414.858 623.778C415.496 624.349 416.264 624.694 417.163 624.812C418.054 624.945 419.046 624.836 420.139 624.486L423.418 623.434L414.824 596.565L424.126 593.582Z" fill="#5988FF"/>
<path d="M372.299 632.538C372.596 633.676 373.188 634.5 374.075 635.009C374.951 635.52 376.167 635.638 377.724 635.361C378.715 635.185 379.507 634.919 380.098 634.564C380.68 634.223 381.085 633.823 381.313 633.366C381.541 632.908 381.615 632.419 381.535 631.897C381.482 631.466 381.339 631.093 381.104 630.777C380.86 630.475 380.518 630.22 380.077 630.013C379.638 629.817 379.093 629.663 378.443 629.553C377.793 629.442 377.032 629.375 376.159 629.351L373.143 629.244C371.109 629.176 369.334 628.926 367.818 628.493C366.302 628.059 365.018 627.46 363.966 626.694C362.917 625.939 362.083 625.027 361.465 623.958C360.836 622.891 360.396 621.683 360.145 620.334C359.744 618 359.976 615.922 360.843 614.101C361.709 612.279 363.141 610.757 365.136 609.533C367.12 608.311 369.611 607.434 372.609 606.901C375.688 606.354 378.456 606.333 380.912 606.837C383.357 607.344 385.381 608.431 386.985 610.099C388.58 611.781 389.646 614.105 390.183 617.07L381.05 618.693C380.8 617.617 380.368 616.753 379.752 616.101C379.137 615.448 378.358 615.009 377.414 614.783C376.458 614.56 375.369 614.557 374.147 614.774C373.121 614.956 372.284 615.236 371.637 615.613C370.99 615.99 370.528 616.435 370.25 616.949C369.973 617.463 369.879 618.009 369.97 618.589C370.078 619.129 370.34 619.571 370.758 619.914C371.166 620.27 371.785 620.541 372.615 620.727C373.447 620.925 374.546 621.051 375.911 621.106L379.575 621.241C382.832 621.365 385.507 622.063 387.6 623.335C389.683 624.62 390.965 626.649 391.444 629.422C391.855 631.672 391.604 633.747 390.692 635.648C389.77 637.562 388.315 639.184 386.327 640.514C384.326 641.846 381.925 642.761 379.123 643.259C376.263 643.767 373.705 643.727 371.448 643.139C369.191 642.552 367.343 641.487 365.904 639.944C364.455 638.415 363.52 636.491 363.097 634.172L372.299 632.538Z" fill="#5988FF"/>
</svg>
