<svg width="1993" height="1989" viewBox="0 0 1993 1989" fill="none" xmlns="http://www.w3.org/2000/svg">
<path d="M901.198 1976.73C901.184 1977.9 901.538 1978.85 902.26 1979.58C902.97 1980.3 904.113 1980.74 905.689 1980.88C906.693 1980.98 907.527 1980.93 908.192 1980.74C908.844 1980.57 909.34 1980.29 909.681 1979.91C910.022 1979.53 910.223 1979.08 910.283 1978.55C910.346 1978.12 910.306 1977.72 910.163 1977.36C910.008 1977 909.744 1976.67 909.373 1976.35C909.001 1976.04 908.516 1975.75 907.918 1975.47C907.319 1975.19 906.602 1974.93 905.766 1974.67L902.883 1973.77C900.937 1973.17 899.289 1972.46 897.94 1971.64C896.591 1970.82 895.51 1969.91 894.697 1968.89C893.883 1967.88 893.319 1966.78 893.006 1965.59C892.68 1964.39 892.574 1963.11 892.688 1961.75C892.917 1959.39 893.69 1957.45 895.008 1955.92C896.326 1954.4 898.11 1953.31 900.359 1952.65C902.597 1952 905.234 1951.81 908.269 1952.09C911.386 1952.38 914.063 1953.09 916.301 1954.23C918.528 1955.36 920.195 1956.95 921.303 1958.98C922.398 1961.02 922.813 1963.54 922.549 1966.54L913.303 1965.69C913.346 1964.59 913.157 1963.64 912.735 1962.85C912.314 1962.06 911.677 1961.43 910.825 1960.96C909.962 1960.49 908.911 1960.2 907.674 1960.09C906.635 1959.99 905.754 1960.04 905.03 1960.23C904.306 1960.43 903.742 1960.73 903.338 1961.16C902.934 1961.58 902.7 1962.08 902.634 1962.66C902.595 1963.21 902.732 1963.71 903.045 1964.15C903.345 1964.6 903.871 1965.02 904.623 1965.42C905.373 1965.83 906.401 1966.25 907.705 1966.66L911.206 1967.76C914.318 1968.74 916.716 1970.12 918.4 1971.9C920.072 1973.69 920.773 1975.99 920.503 1978.79C920.305 1981.06 919.515 1983 918.133 1984.59C916.737 1986.19 914.904 1987.37 912.633 1988.13C910.35 1988.88 907.791 1989.13 904.954 1988.87C902.059 1988.6 899.6 1987.89 897.576 1986.72C895.552 1985.56 894.05 1984.04 893.068 1982.18C892.073 1980.32 891.678 1978.22 891.883 1975.87L901.198 1976.73Z" fill="#5988FF"/>
<path d="M857.715 1982.89L848.026 1981.58L851.109 1958.72C851.476 1956 852.444 1953.74 854.013 1951.93C855.569 1950.13 857.575 1948.84 860.033 1948.07C862.489 1947.32 865.245 1947.15 868.3 1947.56C871.379 1947.97 874.002 1948.87 876.17 1950.25C878.336 1951.64 879.931 1953.41 880.954 1955.56C881.964 1957.72 882.286 1960.16 881.919 1962.88L878.836 1985.74L869.147 1984.43L872.117 1962.41C872.266 1961.3 872.155 1960.28 871.785 1959.35C871.413 1958.42 870.83 1957.66 870.036 1957.05C869.23 1956.45 868.276 1956.07 867.172 1955.92C866.057 1955.77 865.036 1955.88 864.111 1956.25C863.185 1956.63 862.421 1957.21 861.817 1958C861.211 1958.81 860.834 1959.76 860.685 1960.87L857.715 1982.89Z" fill="#5988FF"/>
<path d="M842.25 1944.22L835.934 1979.67L820.631 1976.94C817.999 1976.48 815.789 1975.55 814.001 1974.16C812.212 1972.77 810.938 1971.03 810.176 1968.96C809.415 1966.88 809.258 1964.58 809.707 1962.07C810.159 1959.53 811.116 1957.43 812.578 1955.78C814.028 1954.12 815.859 1952.97 818.069 1952.32C820.267 1951.68 822.717 1951.6 825.418 1952.08L834.558 1953.71L833.226 1961.19L826.024 1959.9C824.893 1959.7 823.895 1959.73 823.028 1959.98C822.149 1960.24 821.429 1960.7 820.871 1961.36C820.301 1962.02 819.926 1962.85 819.747 1963.86C819.566 1964.87 819.632 1965.78 819.943 1966.57C820.24 1967.37 820.759 1968.04 821.499 1968.56C822.225 1969.1 823.154 1969.46 824.285 1969.67L827.678 1970.27L832.624 1942.51L842.25 1944.22Z" fill="#5988FF"/>
<path d="M803.557 1937.11L795.795 1972.27L780.616 1968.92C778.006 1968.34 775.836 1967.32 774.106 1965.86C772.376 1964.4 771.173 1962.62 770.497 1960.51C769.822 1958.41 769.759 1956.1 770.31 1953.61C770.866 1951.09 771.908 1949.03 773.437 1947.44C774.954 1945.84 776.83 1944.77 779.064 1944.22C781.287 1943.66 783.738 1943.68 786.417 1944.27L795.483 1946.27L793.846 1953.69L786.703 1952.11C785.581 1951.87 784.582 1951.85 783.706 1952.06C782.817 1952.29 782.079 1952.72 781.494 1953.36C780.897 1954 780.489 1954.81 780.269 1955.81C780.047 1956.81 780.075 1957.72 780.353 1958.53C780.618 1959.34 781.109 1960.03 781.827 1960.58C782.531 1961.14 783.443 1961.55 784.565 1961.8L787.931 1962.54L794.01 1935L803.557 1937.11Z" fill="#5988FF"/>
<path d="M765.179 1928.38L756.073 1963.22L746.614 1960.75L753.728 1933.53L739.642 1929.85L741.634 1922.23L765.179 1928.38Z" fill="#5988FF"/>
<path d="M731.927 1919.51L721.534 1953.99L696.684 1946.5L698.958 1938.96L714.447 1943.63L716.233 1937.7L702.024 1933.42L704.297 1925.88L718.507 1930.16L720.293 1924.23L704.871 1919.58L707.145 1912.04L731.927 1919.51Z" fill="#5988FF"/>
<path d="M668.978 1937.46L657.573 1933.22L656.84 1911.19L656.445 1911.04L641.488 1927.24L630.084 1922.99L642.639 1889.25L651.605 1892.58L644.346 1912.09L644.61 1912.19L659.286 1895.74L664.691 1897.75L664.997 1919.92L665.261 1920.02L672.568 1900.38L681.534 1903.71L668.978 1937.46Z" fill="#5988FF"/>
<path d="M623.5 1881.23L633.188 1885.41L608.007 1913.76L595.736 1908.47L599.089 1870.7L608.776 1874.88L605.671 1901.95L605.929 1902.06L623.5 1881.23ZM619.68 1895.05L601.468 1887.19L604.366 1880.48L622.578 1888.34L619.68 1895.05Z" fill="#5988FF"/>
<path d="M590.424 1866.63L574.712 1899.03L560.725 1892.25C558.32 1891.08 556.446 1889.59 555.103 1887.76C553.759 1885.94 553.003 1883.93 552.835 1881.72C552.667 1879.52 553.14 1877.26 554.255 1874.96C555.38 1872.64 556.871 1870.89 558.729 1869.69C560.575 1868.49 562.649 1867.88 564.951 1867.86C567.242 1867.84 569.621 1868.42 572.089 1869.62L580.444 1873.67L577.129 1880.51L570.547 1877.31C569.513 1876.81 568.546 1876.57 567.644 1876.57C566.727 1876.58 565.909 1876.83 565.191 1877.32C564.463 1877.8 563.877 1878.5 563.432 1879.41C562.982 1880.34 562.798 1881.23 562.882 1882.08C562.95 1882.93 563.269 1883.71 563.839 1884.42C564.393 1885.13 565.186 1885.74 566.22 1886.24L569.321 1887.74L581.627 1862.36L590.424 1866.63Z" fill="#5988FF"/>
<path d="M526.309 1861.91C525.837 1862.99 525.792 1864 526.174 1864.95C526.545 1865.89 527.428 1866.74 528.823 1867.49C529.711 1867.96 530.497 1868.25 531.182 1868.33C531.851 1868.43 532.416 1868.36 532.879 1868.15C533.341 1867.93 533.702 1867.59 533.962 1867.13C534.188 1866.76 534.306 1866.38 534.318 1865.99C534.313 1865.6 534.202 1865.19 533.984 1864.75C533.76 1864.32 533.427 1863.87 532.985 1863.38C532.543 1862.89 531.986 1862.36 531.315 1861.8L529.011 1859.85C527.455 1858.53 526.215 1857.24 525.292 1855.96C524.369 1854.68 523.732 1853.41 523.38 1852.16C523.022 1850.91 522.932 1849.68 523.109 1848.46C523.275 1847.23 523.678 1846.01 524.316 1844.8C525.446 1842.72 526.915 1841.23 528.724 1840.34C530.533 1839.45 532.6 1839.14 534.926 1839.42C537.242 1839.69 539.743 1840.54 542.428 1841.98C545.186 1843.46 547.374 1845.16 548.992 1847.08C550.6 1849 551.517 1851.1 551.744 1853.41C551.956 1855.72 551.354 1858.2 549.94 1860.86L541.759 1856.47C542.228 1855.47 542.424 1854.53 542.344 1853.63C542.265 1852.74 541.925 1851.91 541.322 1851.15C540.71 1850.38 539.856 1849.7 538.761 1849.12C537.842 1848.62 537.011 1848.32 536.27 1848.22C535.528 1848.11 534.889 1848.18 534.353 1848.41C533.816 1848.64 533.404 1849.01 533.117 1849.52C532.867 1850.01 532.8 1850.52 532.915 1851.05C533.015 1851.58 533.334 1852.18 533.871 1852.84C534.402 1853.51 535.187 1854.29 536.226 1855.18L539.021 1857.56C541.504 1859.67 543.174 1861.88 544.031 1864.17C544.872 1866.47 544.622 1868.86 543.282 1871.33C542.211 1873.35 540.729 1874.83 538.835 1875.75C536.925 1876.68 534.778 1877.05 532.391 1876.87C529.995 1876.67 527.542 1875.9 525.032 1874.55C522.47 1873.18 520.484 1871.56 519.074 1869.7C517.665 1867.84 516.872 1865.86 516.697 1863.76C516.506 1861.66 516.962 1859.57 518.065 1857.49L526.309 1861.91Z" fill="#5988FF"/>
<path d="M463.389 1824.65C462.839 1825.69 462.719 1826.7 463.029 1827.67C463.33 1828.64 464.147 1829.55 465.482 1830.4C466.333 1830.94 467.096 1831.28 467.772 1831.42C468.432 1831.56 469.001 1831.54 469.478 1831.36C469.956 1831.18 470.341 1830.87 470.634 1830.43C470.887 1830.07 471.033 1829.7 471.074 1829.31C471.098 1828.92 471.018 1828.5 470.832 1828.05C470.641 1827.61 470.343 1827.13 469.938 1826.61C469.534 1826.09 469.018 1825.52 468.39 1824.91L466.237 1822.79C464.783 1821.37 463.643 1819.98 462.817 1818.64C461.992 1817.29 461.45 1815.98 461.192 1814.71C460.928 1813.44 460.929 1812.21 461.196 1811C461.453 1809.79 461.945 1808.6 462.671 1807.44C463.953 1805.45 465.528 1804.07 467.398 1803.32C469.268 1802.56 471.353 1802.41 473.652 1802.86C475.941 1803.3 478.371 1804.34 480.943 1805.98C483.583 1807.66 485.639 1809.51 487.11 1811.55C488.571 1813.57 489.33 1815.74 489.385 1818.06C489.425 1820.38 488.641 1822.81 487.034 1825.36L479.201 1820.37C479.743 1819.41 480.007 1818.48 479.995 1817.59C479.982 1816.69 479.704 1815.84 479.16 1815.03C478.606 1814.22 477.805 1813.48 476.757 1812.82C475.876 1812.26 475.07 1811.9 474.339 1811.74C473.607 1811.58 472.965 1811.59 472.413 1811.78C471.861 1811.97 471.422 1812.31 471.098 1812.8C470.812 1813.27 470.707 1813.77 470.784 1814.31C470.844 1814.85 471.117 1815.47 471.604 1816.16C472.084 1816.87 472.809 1817.71 473.779 1818.67L476.39 1821.25C478.709 1823.55 480.21 1825.87 480.895 1828.22C481.563 1830.58 481.137 1832.94 479.616 1835.31C478.399 1837.24 476.812 1838.6 474.854 1839.39C472.881 1840.17 470.711 1840.38 468.346 1840.02C465.97 1839.64 463.581 1838.69 461.178 1837.16C458.725 1835.6 456.865 1833.84 455.597 1831.88C454.329 1829.92 453.686 1827.89 453.667 1825.78C453.632 1823.67 454.242 1821.62 455.497 1819.63L463.389 1824.65Z" fill="#5988FF"/>
<path d="M421.9 1810.25L413.881 1804.66L427.077 1785.74C428.646 1783.49 430.543 1781.92 432.766 1781.02C434.974 1780.13 437.346 1779.91 439.883 1780.35C442.413 1780.8 444.943 1781.91 447.472 1783.67C450.02 1785.45 451.942 1787.44 453.239 1789.66C454.529 1791.89 455.137 1794.19 455.065 1796.57C454.976 1798.95 454.147 1801.27 452.578 1803.52L439.381 1822.44L431.362 1816.85L444.076 1798.62C444.713 1797.71 445.081 1796.75 445.18 1795.75C445.272 1794.75 445.103 1793.81 444.673 1792.91C444.234 1792 443.557 1791.23 442.644 1790.59C441.721 1789.95 440.763 1789.58 439.769 1789.49C438.776 1789.39 437.83 1789.56 436.93 1789.99C436.023 1790.43 435.251 1791.11 434.614 1792.02L421.9 1810.25Z" fill="#5988FF"/>
<path d="M425.83 1768.79L404.002 1797.43L391.638 1788.01C389.512 1786.39 387.972 1784.55 387.017 1782.5C386.062 1780.44 385.721 1778.32 385.994 1776.12C386.266 1773.93 387.177 1771.82 388.726 1769.78C390.289 1767.73 392.099 1766.31 394.157 1765.5C396.206 1764.69 398.359 1764.5 400.619 1764.94C402.868 1765.37 405.084 1766.42 407.266 1768.08L414.65 1773.71L410.046 1779.75L404.228 1775.32C403.314 1774.62 402.415 1774.19 401.53 1774.01C400.629 1773.84 399.778 1773.92 398.978 1774.26C398.169 1774.59 397.456 1775.15 396.837 1775.97C396.212 1776.79 395.856 1777.62 395.77 1778.47C395.667 1779.32 395.825 1780.15 396.243 1780.95C396.645 1781.76 397.303 1782.51 398.217 1783.21L400.958 1785.29L418.054 1762.86L425.83 1768.79Z" fill="#5988FF"/>
<path d="M394.671 1744.77L371.688 1772.5L359.721 1762.58C357.663 1760.87 356.199 1758.97 355.329 1756.88C354.459 1754.79 354.205 1752.65 354.567 1750.47C354.929 1748.29 355.926 1746.22 357.557 1744.25C359.203 1742.26 361.07 1740.91 363.159 1740.19C365.239 1739.46 367.399 1739.37 369.638 1739.9C371.868 1740.42 374.039 1741.56 376.151 1743.31L383.299 1749.23L378.451 1755.08L372.82 1750.41C371.935 1749.68 371.054 1749.21 370.177 1749C369.284 1748.79 368.43 1748.84 367.618 1749.14C366.796 1749.43 366.06 1749.97 365.409 1750.76C364.75 1751.55 364.361 1752.37 364.24 1753.21C364.102 1754.06 364.226 1754.89 364.611 1755.71C364.979 1756.54 365.606 1757.31 366.49 1758.05L369.144 1760.25L387.144 1738.53L394.671 1744.77Z" fill="#5988FF"/>
<path d="M364.532 1719.47L340.502 1746.29L333.22 1739.76L351.994 1718.81L341.15 1709.1L346.407 1703.23L364.532 1719.47Z" fill="#5988FF"/>
<path d="M339.015 1696.37L314.006 1722.28L295.331 1704.26L300.802 1698.59L312.442 1709.83L316.74 1705.37L306.062 1695.07L311.533 1689.4L322.211 1699.71L326.51 1695.25L314.92 1684.07L320.391 1678.4L339.015 1696.37Z" fill="#5988FF"/>
<path d="M274.824 1683.56L266.621 1674.57L276.046 1654.64L275.761 1654.33L255.052 1661.9L246.85 1652.91L273.45 1628.63L279.898 1635.7L264.52 1649.73L264.71 1649.94L285.285 1642.02L289.173 1646.28L279.304 1666.14L279.494 1666.35L294.976 1652.22L301.424 1659.28L274.824 1683.56Z" fill="#5988FF"/>
<path d="M260.096 1612.75L266.8 1620.9L231.439 1634.6L222.947 1624.28L243.202 1592.23L249.906 1600.37L234.762 1623.03L234.941 1623.25L260.096 1612.75ZM250.376 1623.3L237.773 1607.99L243.421 1603.34L256.025 1618.65L250.376 1623.3Z" fill="#5988FF"/>
<path d="M237.356 1584.65L208.565 1606.28L199.228 1593.85C197.622 1591.72 196.639 1589.53 196.278 1587.29C195.918 1585.06 196.167 1582.92 197.025 1580.88C197.884 1578.85 199.335 1577.06 201.378 1575.52C203.44 1573.97 205.57 1573.09 207.769 1572.88C209.961 1572.65 212.084 1573.06 214.139 1574.1C216.187 1575.12 218.035 1576.73 219.682 1578.93L225.26 1586.35L219.187 1590.91L214.792 1585.06C214.102 1584.14 213.355 1583.48 212.551 1583.07C211.73 1582.66 210.889 1582.51 210.029 1582.62C209.161 1582.71 208.32 1583.06 207.504 1583.68C206.68 1584.3 206.111 1585 205.797 1585.8C205.467 1586.59 205.394 1587.42 205.578 1588.31C205.745 1589.2 206.174 1590.1 206.864 1591.02L208.934 1593.77L231.483 1576.83L237.356 1584.65Z" fill="#5988FF"/>
<path d="M182.494 1551.14C181.582 1551.88 181.079 1552.76 180.984 1553.78C180.883 1554.79 181.281 1555.94 182.179 1557.25C182.751 1558.08 183.321 1558.69 183.89 1559.08C184.442 1559.47 184.974 1559.67 185.485 1559.69C185.995 1559.71 186.471 1559.57 186.912 1559.28C187.283 1559.05 187.563 1558.77 187.753 1558.42C187.926 1558.08 188.016 1557.66 188.021 1557.17C188.017 1556.69 187.93 1556.13 187.761 1555.49C187.592 1554.85 187.337 1554.13 186.996 1553.33L185.841 1550.54C185.058 1548.66 184.548 1546.94 184.313 1545.38C184.077 1543.82 184.09 1542.4 184.35 1541.12C184.6 1539.85 185.083 1538.72 185.799 1537.71C186.509 1536.7 187.425 1535.79 188.547 1535.01C190.504 1533.67 192.49 1533.02 194.507 1533.06C196.524 1533.09 198.503 1533.76 200.445 1535.07C202.38 1536.37 204.212 1538.28 205.942 1540.79C207.718 1543.36 208.887 1545.87 209.448 1548.32C210.003 1550.76 209.854 1553.05 209.003 1555.2C208.136 1557.35 206.465 1559.29 203.991 1561.01L198.722 1553.36C199.596 1552.69 200.202 1551.94 200.541 1551.11C200.879 1550.27 200.955 1549.38 200.768 1548.43C200.574 1547.47 200.125 1546.47 199.42 1545.45C198.828 1544.59 198.226 1543.95 197.614 1543.51C197.003 1543.08 196.406 1542.84 195.823 1542.8C195.24 1542.76 194.704 1542.91 194.215 1543.23C193.768 1543.55 193.475 1543.97 193.337 1544.5C193.183 1545.02 193.193 1545.69 193.368 1546.52C193.534 1547.36 193.876 1548.42 194.393 1549.68L195.791 1553.08C197.031 1556.09 197.507 1558.82 197.22 1561.25C196.916 1563.68 195.602 1565.69 193.279 1567.28C191.403 1568.58 189.412 1569.22 187.304 1569.17C185.18 1569.13 183.1 1568.48 181.065 1567.22C179.022 1565.95 177.193 1564.14 175.577 1561.8C173.927 1559.4 172.901 1557.06 172.498 1554.76C172.095 1552.46 172.296 1550.33 173.102 1548.38C173.891 1546.43 175.252 1544.78 177.186 1543.43L182.494 1551.14Z" fill="#5988FF"/>
<path d="M143.577 1489.23C142.613 1489.91 142.045 1490.75 141.875 1491.76C141.699 1492.76 142.01 1493.94 142.809 1495.3C143.318 1496.17 143.842 1496.83 144.38 1497.26C144.902 1497.69 145.417 1497.93 145.925 1497.98C146.433 1498.04 146.917 1497.94 147.379 1497.68C147.765 1497.48 148.066 1497.22 148.28 1496.89C148.479 1496.56 148.599 1496.15 148.641 1495.66C148.672 1495.18 148.628 1494.62 148.506 1493.97C148.385 1493.32 148.184 1492.58 147.904 1491.75L146.959 1488.89C146.317 1486.95 145.937 1485.2 145.818 1483.63C145.699 1482.05 145.816 1480.64 146.17 1479.39C146.514 1478.14 147.08 1477.04 147.869 1476.09C148.652 1475.13 149.632 1474.3 150.81 1473.6C152.86 1472.41 154.889 1471.91 156.898 1472.1C158.906 1472.28 160.83 1473.1 162.67 1474.55C164.503 1475.99 166.189 1478.02 167.728 1480.65C169.308 1483.35 170.287 1485.94 170.666 1488.43C171.038 1490.9 170.72 1493.17 169.711 1495.26C168.687 1497.34 166.877 1499.14 164.282 1500.67L159.595 1492.66C160.517 1492.05 161.177 1491.35 161.576 1490.54C161.975 1489.74 162.117 1488.85 162.001 1487.89C161.879 1486.92 161.505 1485.89 160.877 1484.82C160.351 1483.92 159.799 1483.23 159.221 1482.75C158.643 1482.28 158.065 1482 157.487 1481.91C156.909 1481.83 156.364 1481.93 155.852 1482.22C155.382 1482.51 155.059 1482.91 154.883 1483.42C154.69 1483.92 154.65 1484.6 154.763 1485.44C154.866 1486.29 155.129 1487.37 155.55 1488.67L156.693 1492.15C157.706 1495.26 157.979 1498.01 157.511 1500.41C157.028 1502.82 155.569 1504.72 153.134 1506.13C151.167 1507.3 149.134 1507.78 147.035 1507.58C144.92 1507.38 142.895 1506.57 140.958 1505.17C139.016 1503.75 137.326 1501.81 135.888 1499.35C134.42 1496.84 133.571 1494.43 133.339 1492.1C133.108 1489.78 133.467 1487.68 134.415 1485.79C135.347 1483.9 136.827 1482.36 138.855 1481.16L143.577 1489.23Z" fill="#5988FF"/>
<path d="M113.264 1457.46L108.689 1448.82L129.078 1438.03C131.503 1436.74 133.908 1436.21 136.294 1436.43C138.664 1436.65 140.876 1437.54 142.931 1439.09C144.976 1440.64 146.72 1442.78 148.162 1445.51C149.616 1448.25 150.412 1450.91 150.55 1453.48C150.678 1456.05 150.166 1458.37 149.014 1460.46C147.846 1462.53 146.05 1464.21 143.625 1465.5L123.236 1476.29L118.662 1467.65L138.305 1457.25C139.289 1456.73 140.054 1456.05 140.601 1455.2C141.137 1454.36 141.42 1453.44 141.449 1452.45C141.473 1451.44 141.224 1450.44 140.703 1449.46C140.176 1448.46 139.493 1447.7 138.652 1447.16C137.811 1446.63 136.891 1446.34 135.894 1446.31C134.887 1446.29 133.891 1446.54 132.907 1447.06L113.264 1457.46Z" fill="#5988FF"/>
<path d="M135.719 1422.38L103.21 1437.87L96.5226 1423.84C95.3729 1421.43 94.843 1419.09 94.9331 1416.83C95.0232 1414.56 95.6912 1412.52 96.9371 1410.69C98.183 1408.86 99.9595 1407.4 102.266 1406.3C104.595 1405.19 106.858 1404.75 109.056 1404.98C111.249 1405.19 113.249 1406.01 115.058 1407.43C116.861 1408.85 118.352 1410.79 119.532 1413.27L123.526 1421.65L116.669 1424.91L113.522 1418.31C113.028 1417.27 112.427 1416.48 111.719 1415.92C110.996 1415.35 110.202 1415.04 109.338 1414.97C108.469 1414.89 107.574 1415.07 106.654 1415.51C105.723 1415.95 105.025 1416.53 104.56 1417.25C104.08 1417.95 103.842 1418.76 103.846 1419.67C103.834 1420.57 104.075 1421.54 104.569 1422.58L106.052 1425.69L131.514 1413.56L135.719 1422.38Z" fill="#5988FF"/>
<path d="M118.992 1386.78L85.8747 1400.92L79.7681 1386.63C78.7181 1384.17 78.2844 1381.81 78.4671 1379.56C78.6499 1377.3 79.4011 1375.28 80.7207 1373.51C82.0404 1371.73 83.8753 1370.35 86.2254 1369.34C88.5971 1368.33 90.8764 1367.98 93.0633 1368.29C95.2456 1368.6 97.211 1369.5 98.9594 1371C100.703 1372.48 102.114 1374.48 103.192 1377.01L106.839 1385.54L99.8534 1388.53L96.9797 1381.8C96.5283 1380.75 95.9605 1379.92 95.2762 1379.34C94.5766 1378.74 93.7966 1378.39 92.9362 1378.29C92.0713 1378.18 91.1699 1378.32 90.232 1378.72C89.2833 1379.12 88.5623 1379.67 88.069 1380.37C87.5602 1381.06 87.2891 1381.86 87.2557 1382.76C87.207 1383.66 87.4083 1384.64 87.8596 1385.7L89.2135 1388.87L115.151 1377.79L118.992 1386.78Z" fill="#5988FF"/>
<path d="M103.761 1350.49L70.1257 1363.35L66.6329 1354.22L92.9107 1344.17L87.7092 1330.58L95.067 1327.76L103.761 1350.49Z" fill="#5988FF"/>
<path d="M91.6286 1318.29L57.5386 1329.9L49.1724 1305.33L56.6296 1302.79L61.8443 1318.1L67.7035 1316.11L62.9196 1302.06L70.3768 1299.52L75.1607 1313.57L81.0199 1311.57L75.8279 1296.33L83.2851 1293.79L91.6286 1318.29Z" fill="#5988FF"/>
<path d="M40.4025 1277.54L37.2174 1265.8L54.7129 1252.38L54.6024 1251.97L32.7251 1249.24L29.54 1237.49L64.2967 1228.07L66.8006 1237.3L46.7069 1242.75L46.7805 1243.02L68.7015 1245.38L70.2112 1250.95L52.3522 1264.1L52.4258 1264.37L72.6553 1258.88L75.1592 1268.11L40.4025 1277.54Z" fill="#5988FF"/>
<path d="M59.6832 1207.84L61.9201 1218.15L24.2063 1214.17L21.3729 1201.11L54.0463 1181.86L56.2831 1192.17L32.4518 1205.4L32.5114 1205.67L59.6832 1207.84ZM46.2158 1212.77L42.0105 1193.39L49.1592 1191.84L53.3645 1211.22L46.2158 1212.77Z" fill="#5988FF"/>
<path d="M52.312 1172.45L16.8157 1178.52L14.1939 1163.2C13.7431 1160.57 13.8686 1158.17 14.5705 1156.02C15.2723 1153.86 16.471 1152.08 18.1666 1150.66C19.8622 1149.24 21.9695 1148.31 24.4884 1147.88C27.0305 1147.45 29.3285 1147.64 31.3826 1148.45C33.4347 1149.25 35.1374 1150.58 36.4907 1152.45C37.8419 1154.3 38.7489 1156.57 39.2116 1159.28L40.7775 1168.43L33.29 1169.71L32.0563 1162.5C31.8625 1161.37 31.501 1160.43 30.9717 1159.7C30.4288 1158.97 29.7511 1158.44 28.9384 1158.14C28.1238 1157.83 27.2138 1157.76 26.2086 1157.93C25.1918 1158.11 24.3627 1158.48 23.7214 1159.04C23.0667 1159.59 22.6178 1160.3 22.3749 1161.18C22.1185 1162.04 22.0871 1163.04 22.2809 1164.17L22.8622 1167.57L50.663 1162.81L52.312 1172.45Z" fill="#5988FF"/>
<path d="M18.8476 1117.56C17.697 1117.8 16.8465 1118.35 16.2961 1119.22C15.7442 1120.07 15.5697 1121.28 15.7725 1122.85C15.9017 1123.85 16.1297 1124.65 16.4565 1125.26C16.7701 1125.86 17.15 1126.28 17.5959 1126.53C18.0419 1126.78 18.5272 1126.88 19.0519 1126.82C19.4851 1126.79 19.8648 1126.66 20.191 1126.44C20.5041 1126.21 20.7747 1125.88 21.0026 1125.45C21.2189 1125.02 21.3977 1124.49 21.539 1123.84C21.6803 1123.2 21.7833 1122.44 21.848 1121.57L22.0972 1118.56C22.2603 1116.53 22.594 1114.76 23.0981 1113.27C23.6023 1111.77 24.2616 1110.52 25.076 1109.5C25.8787 1108.49 26.8286 1107.7 27.9255 1107.13C29.0209 1106.55 30.2479 1106.17 31.6067 1105.98C33.9566 1105.69 36.0206 1106.02 37.7985 1106.97C39.5763 1107.92 41.0294 1109.43 42.1575 1111.48C43.2841 1113.52 44.0428 1116.05 44.4334 1119.07C44.8345 1122.18 44.7253 1124.95 44.1059 1127.38C43.4849 1129.8 42.3037 1131.77 40.5623 1133.3C38.8077 1134.81 36.4372 1135.77 33.4508 1136.17L32.261 1126.96C33.3463 1126.76 34.2295 1126.37 34.9104 1125.78C35.5914 1125.2 36.0666 1124.44 36.3361 1123.51C36.6041 1122.56 36.6584 1121.47 36.4992 1120.24C36.3655 1119.21 36.1257 1118.36 35.7797 1117.69C35.4338 1117.03 35.0109 1116.55 34.5109 1116.24C34.0109 1115.94 33.4695 1115.82 32.8867 1115.89C32.3418 1115.97 31.8884 1116.21 31.5265 1116.61C31.1516 1117 30.8517 1117.61 30.6268 1118.43C30.3903 1119.25 30.2124 1120.34 30.093 1121.71L29.7854 1125.36C29.5081 1128.61 28.6852 1131.26 27.3167 1133.29C25.935 1135.31 23.8483 1136.5 21.0565 1136.85C18.791 1137.15 16.7306 1136.8 14.8754 1135.8C13.0071 1134.79 11.4559 1133.26 10.2216 1131.21C8.9858 1129.14 8.18537 1126.7 7.82029 1123.88C7.44771 1120.99 7.60793 1118.44 8.30096 1116.21C8.994 1113.98 10.1447 1112.18 11.753 1110.82C13.3481 1109.44 15.3134 1108.6 17.6487 1108.28L18.8476 1117.56Z" fill="#5988FF"/>
<path d="M12.5452 1044.71C11.3798 1044.87 10.4906 1045.36 9.8777 1046.18C9.26416 1046.99 9.00031 1048.18 9.08615 1049.76C9.14083 1050.77 9.30857 1051.59 9.58935 1052.22C9.8578 1052.84 10.2051 1053.29 10.6314 1053.57C11.0576 1053.85 11.5344 1053.98 12.0618 1053.97C12.4961 1053.97 12.8841 1053.87 13.2258 1053.67C13.5551 1053.47 13.8494 1053.16 14.1087 1052.75C14.3563 1052.33 14.5744 1051.81 14.7631 1051.18C14.9518 1050.55 15.1108 1049.8 15.2399 1048.93L15.7118 1045.95C16.0251 1043.94 16.4886 1042.2 17.1023 1040.75C17.716 1039.3 18.4665 1038.09 19.354 1037.14C20.2298 1036.19 21.2357 1035.47 22.3716 1034.99C23.5069 1034.49 24.759 1034.2 26.1279 1034.11C28.4931 1034 30.5268 1034.48 32.2292 1035.56C33.9315 1036.64 35.2691 1038.25 36.2419 1040.38C37.214 1042.5 37.7827 1045.08 37.948 1048.12C38.1178 1051.25 37.8036 1054 37.0054 1056.38C36.2066 1058.75 34.8823 1060.63 33.0325 1062.02C31.1704 1063.4 28.7355 1064.18 25.7279 1064.35L25.2243 1055.08C26.3214 1054.96 27.2312 1054.64 27.9536 1054.11C28.6761 1053.57 29.2063 1052.85 29.5442 1051.94C29.8816 1051.02 30.0165 1049.94 29.9491 1048.7C29.8925 1047.66 29.7164 1046.79 29.4207 1046.1C29.1251 1045.41 28.7391 1044.9 28.2629 1044.56C27.7867 1044.23 27.2556 1044.07 26.6697 1044.09C26.1202 1044.13 25.6501 1044.34 25.2595 1044.71C24.8565 1045.07 24.5125 1045.65 24.2273 1046.46C23.9305 1047.26 23.672 1048.33 23.4518 1049.68L22.8738 1053.31C22.3561 1056.53 21.3395 1059.1 19.824 1061.03C18.2961 1062.94 16.1272 1063.97 13.3173 1064.11C11.0354 1064.25 9.00651 1063.75 7.23074 1062.61C5.44264 1061.46 4.00921 1059.82 2.93045 1057.68C1.85106 1055.54 1.23411 1053.04 1.0796 1050.2C0.92191 1047.29 1.2713 1044.76 2.12776 1042.58C2.98423 1040.41 4.26507 1038.71 5.97028 1037.46C7.66315 1036.21 9.68567 1035.51 12.0378 1035.37L12.5452 1044.71Z" fill="#5988FF"/>
<path d="M0.117562 1002.6L0 992.821L23.0687 992.543C25.8116 992.51 28.1932 993.138 30.2134 994.427C32.2218 995.704 33.785 997.502 34.9032 999.821C36.0097 1002.14 36.5815 1004.84 36.6185 1007.92C36.6559 1011.03 36.1494 1013.76 35.099 1016.1C34.0369 1018.45 32.5174 1020.28 30.5403 1021.61C28.5514 1022.92 26.1854 1023.59 23.4425 1023.63L0.373832 1023.9L0.256269 1014.13L22.481 1013.86C23.5945 1013.85 24.5879 1013.59 25.4612 1013.09C26.3227 1012.58 26.9944 1011.9 27.4762 1011.02C27.958 1010.14 28.1922 1009.14 28.1788 1008.03C28.1652 1006.9 27.9071 1005.91 27.4044 1005.05C26.9016 1004.18 26.2136 1003.51 25.3402 1003.03C24.4552 1002.55 23.4558 1002.31 22.3423 1002.33L0.117562 1002.6Z" fill="#5988FF"/>
<path d="M36.1293 981.667L0.133499 980.579L0.603142 965.043C0.683895 962.372 1.28184 960.051 2.39697 958.079C3.51209 956.107 5.04145 954.594 6.98503 953.539C8.92861 952.483 11.1776 951.994 13.732 952.072C16.3098 952.149 18.5246 952.791 20.3764 953.996C22.2285 955.19 23.6332 956.833 24.5902 958.926C25.5477 961.007 25.9849 963.418 25.9021 966.16L25.6216 975.439L18.0287 975.21L18.2497 967.899C18.2844 966.75 18.1148 965.766 17.7408 964.946C17.3555 964.113 16.7945 963.469 16.0576 963.013C15.3212 962.545 14.4433 962.295 13.4238 962.265C12.3927 962.233 11.5072 962.43 10.7673 962.853C10.0159 963.264 9.43457 963.874 9.0231 964.682C8.60027 965.479 8.3715 966.451 8.33679 967.599L8.23266 971.044L36.4247 971.896L36.1293 981.667Z" fill="#5988FF"/>
<path d="M37.5336 942.355L1.61257 939.794L2.71809 924.291C2.90818 921.625 3.60069 919.33 4.79564 917.406C5.99058 915.481 7.58063 914.032 9.5658 913.057C11.551 912.082 13.8181 911.686 16.3672 911.867C18.9397 912.051 21.1263 912.782 22.9272 914.062C24.7289 915.331 26.0651 917.03 26.9356 919.16C27.807 921.279 28.1452 923.706 27.9501 926.442L27.2898 935.702L19.7127 935.162L20.2329 927.866C20.3146 926.72 20.1854 925.73 19.8454 924.895C19.4945 924.047 18.9603 923.38 18.2428 922.895C17.5261 922.397 16.6591 922.112 15.6418 922.039C14.6129 921.966 13.72 922.126 12.9634 922.518C12.1959 922.898 11.59 923.484 11.1458 924.275C10.6907 925.053 10.4223 926.015 10.3406 927.161L10.0955 930.598L38.2289 932.604L37.5336 942.355Z" fill="#5988FF"/>
<path d="M40.5837 903.12L4.78747 899.182L5.8567 889.465L33.8225 892.541L35.4148 878.07L43.2452 878.932L40.5837 903.12Z" fill="#5988FF"/>
<path d="M44.519 868.935L8.89359 863.671L12.6876 837.998L20.4806 839.15L18.1158 855.152L24.2389 856.056L26.4084 841.376L34.2014 842.528L32.032 857.208L38.1551 858.112L40.5096 842.18L48.3027 843.331L44.519 868.935Z" fill="#5988FF"/>
<path d="M17.5973 809.275L20.1347 797.375L41.8292 793.443L41.9172 793.03L23.7135 780.592L26.2509 768.693L61.4714 776.201L59.4767 785.556L39.1148 781.215L39.0562 781.49L57.4708 793.614L56.2681 799.254L34.3718 802.783L34.3131 803.059L54.8126 807.429L52.8179 816.783L17.5973 809.275Z" fill="#5988FF"/>
<path d="M66.6188 756.101L63.8935 766.293L32.1739 745.509L35.6259 732.6L73.4865 730.419L70.7612 740.61L43.5171 741.48L43.4444 741.752L66.6188 756.101ZM52.3843 754.334L57.5078 735.174L64.5746 737.064L59.451 756.223L52.3843 754.334Z" fill="#5988FF"/>
<path d="M76.2483 721.256L41.9029 710.428L46.5772 695.605C47.3809 693.056 48.5873 690.984 50.1963 689.39C51.8053 687.796 53.6884 686.755 55.8457 686.267C58.0029 685.78 60.3002 685.92 62.7375 686.689C65.1971 687.464 67.1542 688.683 68.6087 690.346C70.0668 691.998 70.972 693.961 71.3242 696.235C71.68 698.498 71.4455 700.938 70.6206 703.554L67.8287 712.408L60.5839 710.124L62.7836 703.148C63.1291 702.052 63.2334 701.059 63.0965 700.168C62.9519 699.262 62.5871 698.489 62.002 697.85C61.4204 697.2 60.6433 696.721 59.6706 696.414C58.6868 696.104 57.7813 696.052 56.9541 696.259C56.1194 696.45 55.3941 696.879 54.7784 697.545C54.1551 698.197 53.6707 699.07 53.3252 700.166L52.2888 703.452L79.1883 711.933L76.2483 721.256Z" fill="#5988FF"/>
<path d="M71.5882 657.142C70.4537 656.832 69.4444 656.935 68.5603 657.451C67.6801 657.956 66.9714 658.953 66.4341 660.441C66.0918 661.389 65.927 662.208 65.9396 662.898C65.9452 663.573 66.0893 664.124 66.3717 664.55C66.6542 664.976 67.0415 665.284 67.5337 665.474C67.9337 665.643 68.329 665.705 68.7195 665.659C69.1029 665.598 69.4946 665.428 69.8946 665.148C70.2835 664.865 70.6882 664.469 71.1086 663.96C71.5291 663.451 71.9673 662.825 72.4232 662.079L74.0216 659.516C75.0951 657.785 76.198 656.37 77.3301 655.27C78.4623 654.171 79.6226 653.356 80.8112 652.826C81.9887 652.291 83.195 652.022 84.4299 652.019C85.6687 652.005 86.9352 652.226 88.2293 652.68C90.4526 653.495 92.1372 654.733 93.2829 656.392C94.4286 658.052 95.0337 660.052 95.0984 662.394C95.167 664.724 94.6839 667.322 93.6491 670.189C92.5865 673.132 91.2236 675.544 89.5605 677.424C87.9013 679.292 85.9487 680.507 83.7026 681.067C81.4494 681.612 78.9039 681.379 76.0661 680.367L79.2183 671.635C80.2747 671.954 81.2393 672.009 82.1122 671.801C82.985 671.592 83.7546 671.135 84.421 670.428C85.0913 669.711 85.6374 668.768 86.0593 667.599C86.4135 666.618 86.5887 665.753 86.585 665.003C86.5812 664.254 86.426 663.631 86.1193 663.134C85.8127 662.637 85.3857 662.284 84.8383 662.074C84.3161 661.898 83.8023 661.906 83.297 662.097C82.7846 662.274 82.2407 662.675 81.6653 663.303C81.0789 663.926 80.421 664.816 79.6916 665.974L77.746 669.085C76.0129 671.849 74.0731 673.822 71.9266 675.004C69.773 676.17 67.375 676.271 64.7327 675.305C62.5785 674.54 60.9055 673.288 59.7135 671.549C58.5145 669.795 57.8351 667.724 57.6752 665.336C57.5193 662.937 57.9249 660.398 58.892 657.719C59.8791 654.985 61.1904 652.785 62.8259 651.12C64.4615 649.454 66.3068 648.382 68.3618 647.903C70.4098 647.408 72.544 647.555 74.7643 648.344L71.5882 657.142Z" fill="#5988FF"/>
<path d="M99.2953 589.476C98.1869 589.083 97.1728 589.111 96.2528 589.56C95.3376 589.998 94.5569 590.94 93.9107 592.384C93.499 593.304 93.2739 594.109 93.2353 594.798C93.1908 595.471 93.2936 596.031 93.5437 596.477C93.7938 596.922 94.1572 597.258 94.6339 597.484C95.0203 597.683 95.4099 597.774 95.8027 597.757C96.1896 597.724 96.5928 597.584 97.0124 597.335C97.4213 597.081 97.8542 596.716 98.3113 596.24C98.7683 595.764 99.2518 595.171 99.7618 594.462L101.546 592.024C102.745 590.377 103.95 589.048 105.16 588.036C106.371 587.023 107.588 586.297 108.813 585.856C110.027 585.41 111.25 585.232 112.482 585.32C113.718 585.398 114.965 585.712 116.222 586.261C118.378 587.239 119.966 588.598 120.986 590.338C122.005 592.078 122.46 594.118 122.351 596.457C122.247 598.786 121.572 601.341 120.328 604.123C119.05 606.98 117.511 609.284 115.713 611.035C113.92 612.776 111.883 613.842 109.601 614.234C107.314 614.61 104.793 614.189 102.038 612.969L105.829 604.495C106.859 604.892 107.817 605.018 108.703 604.875C109.589 604.732 110.39 604.333 111.107 603.678C111.829 603.012 112.443 602.112 112.951 600.978C113.377 600.025 113.616 599.176 113.668 598.428C113.719 597.681 113.611 597.048 113.342 596.53C113.073 596.012 112.673 595.627 112.143 595.377C111.635 595.163 111.122 595.133 110.604 595.286C110.08 595.424 109.508 595.784 108.888 596.367C108.257 596.945 107.534 597.785 106.721 598.885L104.55 601.843C102.617 604.471 100.536 606.294 98.3077 607.314C96.0735 608.318 93.6747 608.24 91.1113 607.08C89.0199 606.158 87.4443 604.785 86.3846 602.963C85.319 601.125 84.795 599.01 84.8127 596.616C84.8352 594.212 85.4281 591.71 86.5913 589.11C87.7785 586.457 89.2493 584.36 91.0039 582.821C92.7586 581.281 94.6783 580.349 96.7633 580.023C98.8423 579.682 100.96 579.987 103.115 580.938L99.2953 589.476Z" fill="#5988FF"/>
<path d="M107.504 546.338L111.87 537.591L132.512 547.892C134.967 549.117 136.798 550.764 138.005 552.833C139.207 554.887 139.775 557.201 139.709 559.775C139.632 562.344 138.905 565.007 137.529 567.766C136.142 570.545 134.445 572.738 132.438 574.343C130.421 575.943 128.23 576.881 125.866 577.155C123.496 577.414 121.085 576.931 118.63 575.706L97.9875 565.405L102.353 556.658L122.241 566.582C123.237 567.079 124.238 567.304 125.245 567.256C126.241 567.203 127.153 566.898 127.981 566.342C128.814 565.775 129.479 564.994 129.977 563.997C130.479 562.99 130.704 561.989 130.651 560.993C130.597 559.997 130.293 559.085 129.736 558.257C129.169 557.424 128.388 556.759 127.391 556.262L107.504 546.338Z" fill="#5988FF"/>
<path d="M149.101 544.192L117.587 526.766L125.109 513.165C126.402 510.826 127.996 509.035 129.889 507.791C131.782 506.548 133.835 505.901 136.046 505.851C138.257 505.801 140.481 506.394 142.717 507.631C144.974 508.879 146.65 510.462 147.746 512.381C148.847 514.289 149.345 516.392 149.239 518.691C149.139 520.98 148.425 523.324 147.098 525.724L142.605 533.849L135.957 530.173L139.497 523.772C140.053 522.767 140.352 521.814 140.395 520.913C140.433 519.997 140.228 519.167 139.782 518.425C139.341 517.672 138.674 517.049 137.782 516.555C136.879 516.056 136.002 515.825 135.15 515.864C134.294 515.886 133.498 516.162 132.762 516.693C132.022 517.208 131.374 517.968 130.818 518.973L129.15 521.989L153.833 535.637L149.101 544.192Z" fill="#5988FF"/>
<path d="M168.328 509.872L137.554 491.171L145.627 477.888C147.015 475.605 148.68 473.88 150.623 472.715C152.565 471.55 154.642 470.988 156.854 471.029C159.065 471.069 161.263 471.753 163.446 473.08C165.65 474.42 167.26 476.07 168.277 478.032C169.299 479.984 169.71 482.106 169.51 484.398C169.316 486.681 168.507 488.994 167.082 491.338L162.261 499.271L155.769 495.327L159.568 489.076C160.165 488.094 160.503 487.155 160.582 486.256C160.658 485.342 160.488 484.505 160.072 483.745C159.662 482.974 159.021 482.325 158.15 481.795C157.268 481.259 156.401 480.993 155.549 480.996C154.692 480.983 153.886 481.227 153.129 481.727C152.368 482.211 151.69 482.944 151.093 483.926L149.303 486.871L173.406 501.518L168.328 509.872Z" fill="#5988FF"/>
<path d="M188.982 476.373L158.948 456.504L164.343 448.351L187.807 463.873L195.841 451.732L202.41 456.078L188.982 476.373Z" fill="#5988FF"/>
<path d="M208.115 447.77L178.84 426.801L193.954 405.704L200.358 410.291L190.937 423.441L195.969 427.045L204.612 414.981L211.016 419.568L202.373 431.632L207.405 435.236L216.785 422.143L223.189 426.73L208.115 447.77Z" fill="#5988FF"/>
<path d="M211.456 382.404L219.154 372.981L240.246 379.403L240.513 379.076L230.012 359.692L237.71 350.269L265.599 373.05L259.547 380.458L243.424 367.287L243.246 367.505L254.079 386.706L250.43 391.173L229.342 384.3L229.164 384.518L245.397 397.778L239.345 405.185L211.456 382.404Z" fill="#5988FF"/>
<path d="M279.369 357.528L272.285 365.346L253.58 332.359L262.553 322.457L297.221 337.828L290.137 345.645L265.51 333.963L265.321 334.171L279.369 357.528ZM267.518 349.448L280.836 334.751L286.257 339.663L272.939 354.359L267.518 349.448Z" fill="#5988FF"/>
<path d="M303.868 330.942L278.275 305.609L289.211 294.563C291.091 292.664 293.111 291.373 295.271 290.691C297.431 290.009 299.582 289.944 301.723 290.497C303.865 291.05 305.844 292.225 307.66 294.023C309.493 295.837 310.676 297.816 311.209 299.96C311.75 302.096 311.657 304.255 310.931 306.439C310.212 308.614 308.888 310.676 306.958 312.625L300.426 319.223L295.028 313.879L300.174 308.681C300.982 307.865 301.529 307.029 301.815 306.174C302.101 305.302 302.13 304.448 301.902 303.612C301.682 302.768 301.21 301.987 300.485 301.27C299.752 300.544 298.97 300.084 298.14 299.889C297.31 299.678 296.469 299.728 295.617 300.039C294.765 300.333 293.934 300.888 293.126 301.705L290.701 304.154L310.746 323.995L303.868 330.942Z" fill="#5988FF"/>
<path d="M329.042 271.792C328.175 270.998 327.23 270.628 326.208 270.683C325.194 270.729 324.108 271.292 322.95 272.37C322.212 273.056 321.691 273.709 321.386 274.329C321.083 274.932 320.959 275.487 321.015 275.995C321.072 276.503 321.275 276.954 321.626 277.348C321.905 277.681 322.228 277.917 322.596 278.055C322.965 278.176 323.391 278.203 323.875 278.138C324.35 278.064 324.891 277.897 325.498 277.636C326.104 277.376 326.781 277.019 327.527 276.565L330.121 275.016C331.867 273.967 333.495 273.213 335.005 272.753C336.514 272.293 337.919 272.099 339.218 272.17C340.51 272.233 341.706 272.546 342.805 273.108C343.913 273.662 344.939 274.437 345.882 275.433C347.487 277.174 348.419 279.044 348.679 281.044C348.939 283.044 348.562 285.1 347.549 287.212C346.544 289.315 344.927 291.405 342.695 293.481C340.404 295.614 338.089 297.135 335.751 298.046C333.421 298.95 331.129 299.137 328.875 298.608C326.622 298.063 324.465 296.691 322.404 294.494L329.2 288.17C329.994 288.936 330.826 289.427 331.698 289.64C332.57 289.854 333.463 289.799 334.379 289.475C335.303 289.144 336.22 288.555 337.13 287.708C337.894 286.997 338.445 286.308 338.784 285.64C339.123 284.972 339.27 284.347 339.225 283.765C339.179 283.183 338.961 282.673 338.571 282.236C338.187 281.841 337.726 281.613 337.189 281.552C336.653 281.475 335.985 281.584 335.187 281.878C334.38 282.165 333.388 282.656 332.21 283.351L329.057 285.229C326.252 286.894 323.624 287.762 321.175 287.832C318.726 287.885 316.548 286.878 314.64 284.81C313.074 283.145 312.158 281.267 311.893 279.176C311.629 277.068 311.972 274.915 312.922 272.718C313.88 270.514 315.402 268.441 317.487 266.5C319.615 264.52 321.788 263.163 324.004 262.43C326.22 261.697 328.351 261.587 330.398 262.1C332.446 262.596 334.276 263.703 335.89 265.42L329.042 271.792Z" fill="#5988FF"/>
<path d="M384.628 224.283C383.822 223.427 382.907 222.988 381.884 222.967C380.87 222.938 379.745 223.418 378.51 224.407C377.723 225.037 377.155 225.65 376.805 226.245C376.458 226.824 376.293 227.368 376.312 227.879C376.33 228.39 376.5 228.855 376.82 229.274C377.073 229.627 377.378 229.886 377.735 230.05C378.094 230.198 378.517 230.258 379.004 230.228C379.484 230.19 380.036 230.063 380.66 229.848C381.284 229.634 381.985 229.328 382.763 228.93L385.465 227.578C387.284 226.662 388.963 226.03 390.503 225.683C392.042 225.337 393.457 225.247 394.748 225.415C396.032 225.574 397.201 225.974 398.256 226.616C399.32 227.251 400.285 228.1 401.151 229.163C402.623 231.018 403.413 232.953 403.524 234.966C403.635 236.98 403.107 239.002 401.94 241.033C400.782 243.056 399.014 245.02 396.635 246.925C394.192 248.882 391.77 250.228 389.37 250.963C386.98 251.691 384.68 251.707 382.472 251.013C380.266 250.302 378.216 248.774 376.324 246.43L383.571 240.627C384.305 241.451 385.099 242.001 385.953 242.279C386.806 242.557 387.701 242.569 388.638 242.314C389.585 242.051 390.543 241.532 391.513 240.755C392.327 240.103 392.928 239.457 393.316 238.816C393.704 238.175 393.897 237.562 393.895 236.978C393.892 236.394 393.713 235.87 393.355 235.405C393.002 234.983 392.56 234.721 392.029 234.621C391.5 234.504 390.826 234.563 390.008 234.797C389.182 235.023 388.156 235.439 386.93 236.046L383.646 237.684C380.725 239.137 378.04 239.807 375.593 239.695C373.147 239.566 371.049 238.4 369.299 236.197C367.861 234.42 367.088 232.479 366.979 230.374C366.871 228.253 367.373 226.132 368.483 224.011C369.602 221.884 371.274 219.93 373.497 218.149C375.767 216.332 378.034 215.14 380.298 214.573C382.562 214.006 384.696 214.055 386.699 214.718C388.704 215.365 390.448 216.605 391.93 218.436L384.628 224.283Z" fill="#5988FF"/>
<path d="M411.655 189.671L419.538 183.888L433.185 202.487C434.808 204.699 435.683 207.001 435.81 209.393C435.94 211.77 435.387 214.087 434.151 216.346C432.908 218.595 431.044 220.632 428.558 222.455C426.053 224.293 423.542 225.467 421.023 225.977C418.497 226.478 416.12 226.31 413.892 225.473C411.667 224.62 409.742 223.088 408.12 220.876L394.472 202.278L402.355 196.495L415.503 214.413C416.162 215.311 416.95 215.968 417.867 216.386C418.777 216.794 419.727 216.94 420.718 216.824C421.718 216.701 422.667 216.31 423.565 215.651C424.472 214.985 425.13 214.197 425.538 213.287C425.946 212.377 426.092 211.427 425.976 210.436C425.853 209.436 425.462 208.488 424.803 207.59L411.655 189.671Z" fill="#5988FF"/>
<path d="M449.631 206.781L429.572 176.875L442.482 168.218C444.702 166.729 446.938 165.865 449.191 165.625C451.443 165.384 453.564 165.748 455.553 166.714C457.543 167.681 459.249 169.225 460.672 171.347C462.109 173.489 462.875 175.663 462.973 177.871C463.079 180.071 462.56 182.169 461.415 184.165C460.279 186.155 458.572 187.914 456.294 189.441L448.583 194.612L444.352 188.304L450.427 184.23C451.381 183.59 452.083 182.879 452.533 182.098C452.986 181.3 453.184 180.469 453.126 179.604C453.078 178.733 452.77 177.874 452.202 177.027C451.627 176.171 450.953 175.565 450.178 175.209C449.406 174.837 448.572 174.719 447.675 174.855C446.781 174.975 445.857 175.354 444.903 175.994L442.041 177.914L457.751 201.336L449.631 206.781Z" fill="#5988FF"/>
<path d="M482.424 185.05L463.607 154.348L476.861 146.227C479.14 144.831 481.41 144.058 483.67 143.911C485.931 143.763 488.035 144.212 489.983 145.26C491.931 146.307 493.572 147.92 494.908 150.099C496.255 152.297 496.932 154.501 496.939 156.711C496.956 158.914 496.351 160.989 495.125 162.936C493.908 164.878 492.131 166.565 489.792 167.998L481.876 172.849L477.906 166.373L484.143 162.551C485.123 161.951 485.853 161.269 486.335 160.507C486.82 159.728 487.052 158.906 487.029 158.04C487.017 157.167 486.745 156.296 486.212 155.427C485.673 154.548 485.024 153.914 484.264 153.527C483.508 153.124 482.679 152.972 481.778 153.071C480.88 153.154 479.941 153.496 478.961 154.096L476.023 155.896L490.76 179.942L482.424 185.05Z" fill="#5988FF"/>
<path d="M516.112 164.702L498.488 133.3L507.014 128.516L520.783 153.049L533.48 145.924L537.335 152.793L516.112 164.702Z" fill="#5988FF"/>
<path d="M546.209 148.013L529.763 115.979L552.852 104.127L556.45 111.135L542.058 118.522L544.885 124.028L558.088 117.251L561.685 124.258L548.482 131.035L551.309 136.541L565.638 129.186L569.236 136.193L546.209 148.013Z" fill="#5988FF"/>
<path d="M579.071 91.4069L590.226 86.547L606.047 101.902L606.434 101.733L605.959 79.6924L617.115 74.8325L631.499 107.844L622.73 111.664L614.414 92.5796L614.156 92.692L615.009 114.721L609.721 117.025L594.11 101.272L593.852 101.384L602.225 120.598L593.455 124.418L579.071 91.4069Z" fill="#5988FF"/>
<path d="M650.845 100.335L640.969 104.049L639.419 66.1608L651.928 61.4572L675.73 90.9776L665.855 94.6909L649.296 73.0413L649.033 73.1403L650.845 100.335ZM644 87.7311L662.566 80.75L665.14 87.5961L646.575 94.5772L644 87.7311Z" fill="#5988FF"/>
<path d="M684.79 87.8926L673.614 53.6618L688.391 48.8384C690.932 48.009 693.319 47.7848 695.552 48.1656C697.785 48.5465 699.727 49.4722 701.379 50.9429C703.03 52.4137 704.253 54.3636 705.046 56.7927C705.846 59.2441 705.993 61.5451 705.487 63.6956C704.992 65.8424 703.922 67.7206 702.277 69.3303C700.643 70.9363 698.522 72.1649 695.915 73.016L687.089 75.897L684.731 68.6764L691.685 66.4066C692.777 66.0501 693.646 65.557 694.291 64.9271C694.944 64.2825 695.36 63.5363 695.539 62.6886C695.73 61.8372 695.667 60.9268 695.351 59.9574C695.031 58.9768 694.546 58.2102 693.897 57.6576C693.255 57.0902 692.485 56.7499 691.584 56.6368C690.692 56.509 689.7 56.6233 688.607 56.9798L685.331 58.0492L694.084 84.8589L684.79 87.8926Z" fill="#5988FF"/>
<path d="M734.227 46.7989C733.819 45.696 733.148 44.9352 732.214 44.5163C731.292 44.0943 730.069 44.0978 728.545 44.5268C727.575 44.8001 726.813 45.1427 726.259 45.5544C725.713 45.9517 725.349 46.3891 725.167 46.8666C724.985 47.3441 724.96 47.8383 725.092 48.3492C725.187 48.773 725.366 49.1303 725.631 49.4211C725.904 49.6974 726.27 49.917 726.73 50.0797C727.187 50.2311 727.744 50.3298 728.403 50.3757C729.061 50.4217 729.826 50.4132 730.697 50.3505L733.713 50.1588C735.745 50.0247 737.538 50.0982 739.091 50.3793C740.644 50.6604 741.982 51.1299 743.105 51.7878C744.225 52.4344 745.145 53.2589 745.866 54.2615C746.598 55.2608 747.156 56.419 747.539 57.7358C748.17 60.0181 748.143 62.1079 747.46 64.0052C746.777 65.9026 745.502 67.5586 743.635 68.9734C741.779 70.385 739.385 71.5039 736.451 72.3303C733.438 73.1788 730.684 73.4737 728.187 73.2148C725.702 72.9528 723.578 72.0714 721.816 70.5707C720.061 69.0555 718.77 66.8497 717.942 63.9533L726.879 61.4362C727.234 62.4809 727.75 63.2975 728.427 63.8861C729.105 64.4747 729.925 64.8344 730.887 64.9651C731.861 65.0927 732.946 64.9881 734.142 64.6512C735.146 64.3683 735.952 64.0075 736.559 63.5686C737.166 63.1297 737.582 62.6409 737.808 62.1024C738.034 61.5639 738.073 61.0109 737.925 60.4436C737.765 59.9165 737.459 59.5032 737.01 59.2037C736.568 58.8897 735.925 58.6812 735.08 58.5782C734.231 58.464 733.125 58.447 731.759 58.5272L728.096 58.7551C724.839 58.9539 722.106 58.5243 719.896 57.4663C717.694 56.3938 716.217 54.5021 715.465 51.7912C714.834 49.5943 714.879 47.5053 715.6 45.5244C716.329 43.529 717.618 41.7715 719.467 40.2521C721.328 38.7294 723.629 37.5819 726.371 36.8096C729.169 36.0214 731.722 35.8079 734.028 36.1691C736.334 36.5303 738.28 37.407 739.866 38.7992C741.46 40.1769 742.582 41.9981 743.232 44.2627L734.227 46.7989Z" fill="#5988FF"/>
<path d="M805.389 29.962C805.064 28.832 804.451 28.0234 803.551 27.5364C802.662 27.0471 801.442 26.9599 799.891 27.2748C798.903 27.4754 798.117 27.7604 797.535 28.13C796.961 28.4857 796.565 28.8949 796.348 29.3576C796.131 29.8202 796.07 30.3112 796.163 30.8305C796.226 31.2602 796.379 31.6298 796.622 31.9394C796.873 32.2353 797.222 32.4813 797.669 32.6777C798.113 32.8626 798.662 33.0024 799.315 33.097C799.968 33.1917 800.731 33.24 801.605 33.242L804.626 33.2745C806.663 33.2915 808.445 33.4978 809.973 33.8933C811.501 34.2888 812.8 34.8562 813.872 35.5956C814.94 36.3235 815.797 37.214 816.442 38.2673C817.098 39.3182 817.568 40.5145 817.852 41.8561C818.312 44.1789 818.131 46.261 817.309 48.1024C816.486 49.9439 815.092 51.5008 813.125 52.7732C811.17 54.0433 808.699 54.9815 805.712 55.588C802.645 56.2108 799.876 56.3005 797.406 55.8572C794.947 55.4116 792.894 54.3751 791.248 52.7478C789.611 51.1067 788.487 48.8112 787.876 45.8613L796.974 44.014C797.251 45.0821 797.705 45.9348 798.337 46.572C798.969 47.2092 799.76 47.6287 800.71 47.8305C801.672 48.03 802.761 48.0061 803.979 47.7588C805.001 47.5512 805.832 47.2511 806.47 46.8584C807.108 46.4657 807.559 46.0093 807.824 45.489C808.089 44.9686 808.169 44.4202 808.064 43.8435C807.943 43.3059 807.669 42.8711 807.243 42.539C806.826 42.1931 806.2 41.9375 805.365 41.7721C804.528 41.5953 803.425 41.4962 802.057 41.475L798.387 41.4306C795.125 41.3873 792.431 40.7561 790.305 39.5371C788.189 38.3043 786.857 36.3082 786.308 33.549C785.842 31.3114 786.041 29.2315 786.907 27.3095C787.782 25.3736 789.198 23.7166 791.155 22.3385C793.123 20.958 795.504 19.9844 798.295 19.4176C801.144 18.8391 803.705 18.8155 805.978 19.3468C808.251 19.878 810.127 20.8966 811.605 22.4026C813.092 23.8947 814.076 25.7941 814.556 28.1007L805.389 29.962Z" fill="#5988FF"/>
<path d="M845.252 11.5376L854.907 9.99861L858.539 32.7789C858.971 35.4876 858.696 37.9349 857.715 40.121C856.744 42.2936 855.192 44.1018 853.06 45.5455C850.926 46.9777 848.337 47.9365 845.292 48.4218C842.224 48.9108 839.454 48.8065 836.98 48.1087C834.505 47.3995 832.468 46.1633 830.869 44.4003C829.28 42.6239 828.27 40.3814 827.838 37.6728L824.206 14.8925L833.861 13.3535L837.36 35.3003C837.535 36.4 837.935 37.3452 838.56 38.1358C839.182 38.9149 839.961 39.4792 840.895 39.8288C841.841 40.1766 842.864 40.2628 843.963 40.0875C845.075 39.9104 846.02 39.5104 846.799 38.8877C847.578 38.265 848.143 37.4866 848.492 36.5525C848.84 35.6068 848.926 34.5842 848.751 33.4845L845.252 11.5376Z" fill="#5988FF"/>
<path d="M871.202 44.1167L867.039 8.34947L882.479 6.5529C885.134 6.24399 887.518 6.49763 889.631 7.31381C891.744 8.12999 893.464 9.42263 894.791 11.1917C896.119 12.9608 896.93 15.1144 897.225 17.6526C897.523 20.2141 897.211 22.4984 896.288 24.5057C895.377 26.5117 893.955 28.1403 892.024 29.3917C890.104 30.6418 887.781 31.4253 885.057 31.7424L875.835 32.8154L874.957 25.2708L882.223 24.4253C883.364 24.2926 884.313 23.9815 885.07 23.4921C885.838 22.9898 886.394 22.341 886.738 21.5457C887.094 20.7491 887.213 19.8443 887.095 18.8314C886.976 17.8068 886.653 16.9593 886.126 16.2889C885.61 15.6055 884.922 15.1192 884.062 14.8298C883.213 14.5274 882.217 14.4426 881.076 14.5754L877.653 14.9737L880.913 42.9867L871.202 44.1167Z" fill="#5988FF"/>
<path d="M910.304 39.7847L907.61 3.8771L923.11 2.71427C925.776 2.51433 928.147 2.86537 930.225 3.7674C932.303 4.66942 933.969 6.0314 935.222 7.85335C936.476 9.6753 937.198 11.8603 937.389 14.4085C937.582 16.98 937.177 19.2496 936.172 21.2175C935.18 23.1844 933.693 24.7535 931.711 25.9248C929.742 27.0951 927.39 27.7829 924.654 27.9881L915.396 28.6827L914.828 21.1084L922.122 20.5612C923.268 20.4753 924.229 20.2033 925.006 19.7454C925.793 19.2749 926.375 18.6494 926.752 17.8689C927.14 17.0875 927.296 16.1883 927.219 15.1714C927.142 14.1428 926.854 13.2828 926.356 12.5914C925.868 11.8875 925.2 11.3734 924.353 11.049C923.517 10.7121 922.526 10.5866 921.38 10.6726L917.943 10.9304L920.053 39.0534L910.304 39.7847Z" fill="#5988FF"/>
<path d="M949.569 37.0903L948.256 1.10572L958.026 0.74916L959.052 28.8621L973.602 28.3311L973.889 36.2028L949.569 37.0903Z" fill="#5988FF"/>
<path d="M983.966 36.0086L983.989 0L1009.94 0.01661L1009.94 7.89348L993.761 7.88313L993.757 14.0721L1008.6 14.0816L1008.59 21.9585L993.752 21.949L993.748 28.1379L1009.86 28.1482L1009.85 36.0251L983.966 36.0086Z" fill="#5988FF"/>
<path d="M1039.08 0.692392L1051.22 1.4706L1058.27 22.3596L1058.69 22.3866L1068.35 2.56818L1080.49 3.34638L1078.19 39.2812L1068.64 38.6694L1069.97 17.8946L1069.69 17.8766L1060.38 37.8579L1054.62 37.489L1047.94 16.3418L1047.66 16.3238L1046.32 37.239L1036.78 36.6272L1039.08 0.692392Z" fill="#5988FF"/>
<path d="M1098.83 41.4481L1088.35 40.2354L1104.29 5.83186L1117.57 7.36792L1125.24 44.5041L1114.76 43.2914L1109.93 16.4667L1109.65 16.4344L1098.83 41.4481ZM1098.5 27.1094L1118.21 29.3893L1117.37 36.655L1097.66 34.3752L1098.5 27.1094Z" fill="#5988FF"/>
<path d="M1134.7 45.9026L1140.42 10.3504L1155.77 12.8169C1158.41 13.2411 1160.63 14.133 1162.44 15.4926C1164.25 16.8523 1165.56 18.5637 1166.35 20.6268C1167.15 22.6899 1167.35 24.9829 1166.94 27.5058C1166.53 30.0519 1165.61 32.1654 1164.18 33.8463C1162.75 35.5291 1160.94 36.7103 1158.74 37.3897C1156.56 38.0711 1154.11 38.1941 1151.4 37.7588L1142.23 36.2856L1143.44 28.7863L1150.66 29.947C1151.8 30.1293 1152.79 30.0879 1153.66 29.8228C1154.53 29.5479 1155.24 29.0746 1155.79 28.4027C1156.35 27.7327 1156.71 26.8943 1156.87 25.8875C1157.04 24.869 1156.95 23.9657 1156.63 23.1775C1156.32 22.3796 1155.79 21.7246 1155.04 21.2124C1154.31 20.6906 1153.37 20.3385 1152.24 20.1562L1148.83 19.6094L1144.36 47.454L1134.7 45.9026Z" fill="#5988FF"/>
<path d="M1197.46 31.9606C1197.61 30.7933 1197.36 29.8098 1196.72 29.0102C1196.09 28.213 1195 27.657 1193.45 27.3421C1192.46 27.1415 1191.63 27.0976 1190.95 27.2106C1190.28 27.3144 1189.76 27.537 1189.38 27.8784C1189 28.2198 1188.75 28.6478 1188.63 29.1623C1188.52 29.5827 1188.52 29.9827 1188.62 30.3623C1188.74 30.7327 1188.96 31.0954 1189.3 31.4504C1189.63 31.794 1190.08 32.1366 1190.65 32.4785C1191.21 32.8204 1191.9 33.1626 1192.7 33.5052L1195.47 34.7133C1197.34 35.5234 1198.9 36.4084 1200.15 37.3684C1201.4 38.3284 1202.38 39.3576 1203.08 40.4562C1203.78 41.5433 1204.22 42.6974 1204.4 43.9186C1204.6 45.1422 1204.56 46.4271 1204.3 47.7734C1203.82 50.0915 1202.84 51.938 1201.36 53.3129C1199.89 54.6879 1198 55.5777 1195.69 55.9824C1193.39 56.3894 1190.75 56.2897 1187.77 55.6833C1184.7 55.0605 1182.11 54.0633 1180.01 52.6916C1177.92 51.3223 1176.44 49.5674 1175.56 47.4269C1174.69 45.2773 1174.55 42.7252 1175.14 39.7707L1184.24 41.6181C1184.07 42.7095 1184.16 43.6718 1184.49 44.505C1184.83 45.3381 1185.39 46.0329 1186.19 46.5892C1186.99 47.1479 1188.01 47.5508 1189.22 47.7981C1190.25 48.0057 1191.13 48.0531 1191.87 47.9403C1192.61 47.8276 1193.2 47.5833 1193.65 47.2077C1194.1 46.832 1194.39 46.3581 1194.51 45.7861C1194.61 45.2439 1194.53 44.7367 1194.27 44.2647C1194.02 43.7835 1193.54 43.304 1192.84 42.8261C1192.13 42.3367 1191.16 41.8154 1189.91 41.2623L1186.54 39.7904C1183.56 38.4782 1181.32 36.8464 1179.84 34.895C1178.37 32.9344 1177.92 30.5768 1178.5 27.8223C1178.94 25.5799 1179.93 23.7427 1181.48 22.3105C1183.04 20.8691 1184.99 19.8956 1187.33 19.3898C1189.68 18.8864 1192.25 18.9181 1195.05 19.4849C1197.9 20.0633 1200.26 21.0404 1202.15 22.416C1204.03 23.7916 1205.36 25.461 1206.14 27.4241C1206.92 29.3781 1207.09 31.5107 1206.63 33.822L1197.46 31.9606Z" fill="#5988FF"/>
<path d="M1268.45 49.5222C1268.68 48.3686 1268.5 47.3693 1267.92 46.5246C1267.36 45.683 1266.31 45.0477 1264.79 44.6186C1263.82 44.3453 1262.99 44.2397 1262.3 44.3018C1261.63 44.3559 1261.09 44.539 1260.69 44.8513C1260.28 45.1635 1260 45.5719 1259.85 46.0764C1259.71 46.4875 1259.67 46.8862 1259.75 47.2723C1259.84 47.6503 1260.03 48.0288 1260.34 48.4076C1260.65 48.7752 1261.08 49.1504 1261.61 49.5332C1262.15 49.916 1262.81 50.308 1263.58 50.7093L1266.26 52.1194C1268.06 53.0659 1269.55 54.0642 1270.73 55.1144C1271.91 56.1647 1272.8 57.2634 1273.42 58.4107C1274.03 59.5468 1274.39 60.7305 1274.48 61.9619C1274.58 63.1964 1274.45 64.4753 1274.09 65.7985C1273.44 68.0744 1272.33 69.8432 1270.75 71.1049C1269.18 72.3666 1267.23 73.1137 1264.9 73.3462C1262.58 73.5819 1259.95 73.2865 1257.02 72.4602C1254 71.6116 1251.5 70.4255 1249.51 68.9017C1247.52 67.3811 1246.17 65.5208 1245.45 63.3209C1244.75 61.1129 1244.8 58.5575 1245.6 55.6547L1254.54 58.1719C1254.3 59.2483 1254.31 60.2143 1254.58 61.0699C1254.85 61.9254 1255.36 62.6601 1256.12 63.274C1256.88 63.891 1257.86 64.368 1259.06 64.7049C1260.06 64.9877 1260.94 65.1004 1261.68 65.0429C1262.43 64.9854 1263.04 64.7859 1263.51 64.4444C1263.99 64.1029 1264.31 63.6517 1264.48 63.0907C1264.62 62.5573 1264.57 62.0454 1264.35 61.5552C1264.13 61.0569 1263.69 60.5433 1263.03 60.0144C1262.36 59.4743 1261.43 58.882 1260.22 58.2377L1256.98 56.5205C1254.1 54.9904 1251.99 53.1973 1250.66 51.1414C1249.34 49.0773 1249.07 46.693 1249.84 43.9884C1250.45 41.7851 1251.58 40.0267 1253.23 38.7132C1254.89 37.3916 1256.91 36.5653 1259.28 36.2345C1261.66 35.9068 1264.22 36.1291 1266.96 36.9014C1269.76 37.6896 1272.05 38.8396 1273.83 40.3513C1275.61 41.863 1276.81 43.6264 1277.43 45.6415C1278.07 47.6485 1278.08 49.7875 1277.45 52.0584L1268.45 49.5222Z" fill="#5988FF"/>
<path d="M1312.33 51.363L1321.62 54.4086L1314.43 76.3285C1313.58 78.9348 1312.21 80.9858 1310.34 82.4814C1308.48 83.9696 1306.28 84.8682 1303.72 85.1774C1301.17 85.4754 1298.43 85.1441 1295.5 84.1837C1292.54 83.216 1290.13 81.8564 1288.25 80.105C1286.37 78.3424 1285.12 76.3117 1284.51 74.0129C1283.91 71.7066 1284.03 69.2502 1284.89 66.6439L1292.08 44.724L1301.37 47.7696L1294.44 68.8876C1294.1 69.9457 1294.02 70.9691 1294.21 71.9579C1294.41 72.9355 1294.84 73.7933 1295.52 74.5313C1296.2 75.273 1297.07 75.8173 1298.13 76.1642C1299.2 76.5148 1300.22 76.5913 1301.2 76.3937C1302.17 76.1962 1303.03 75.762 1303.77 75.0911C1304.51 74.4091 1305.06 73.5391 1305.4 72.4809L1312.33 51.363Z" fill="#5988FF"/>
<path d="M1320.51 92.2011L1333.16 58.4889L1347.71 63.9506C1350.22 64.8897 1352.22 66.2053 1353.73 67.8973C1355.23 69.5893 1356.17 71.5253 1356.54 73.7053C1356.91 75.8854 1356.65 78.1716 1355.75 80.5639C1354.85 82.9782 1353.52 84.8669 1351.78 86.2301C1350.06 87.5974 1348.05 88.3959 1345.76 88.6257C1343.48 88.8597 1341.06 88.4947 1338.49 87.5309L1329.79 84.2687L1332.46 77.1576L1339.31 79.7278C1340.39 80.1314 1341.37 80.2888 1342.27 80.1999C1343.18 80.1041 1343.98 79.7813 1344.65 79.2313C1345.33 78.6855 1345.85 77.9352 1346.2 76.9805C1346.57 76.0148 1346.67 75.1135 1346.51 74.2766C1346.36 73.4328 1345.97 72.6857 1345.34 72.0352C1344.72 71.3779 1343.87 70.8474 1342.8 70.4437L1339.57 69.2328L1329.66 95.6363L1320.51 92.2011Z" fill="#5988FF"/>
<path d="M1357.26 106.226L1371.29 73.0603L1385.6 79.1133C1388.07 80.1541 1390.01 81.5506 1391.45 83.3028C1392.88 85.0551 1393.74 87.0279 1394.02 89.2213C1394.31 91.4148 1393.95 93.6883 1392.95 96.0418C1391.95 98.417 1390.55 100.25 1388.76 101.541C1386.98 102.836 1384.94 103.552 1382.64 103.688C1380.35 103.828 1377.94 103.364 1375.42 102.296L1366.87 98.6806L1369.83 91.6847L1376.56 94.5332C1377.62 94.9805 1378.6 95.1782 1379.5 95.1261C1380.42 95.0678 1381.22 94.7776 1381.91 94.2555C1382.61 93.738 1383.16 93.0096 1383.56 92.0704C1383.96 91.1203 1384.1 90.2239 1383.97 89.3811C1383.86 88.532 1383.5 87.7696 1382.9 87.0938C1382.31 86.4117 1381.48 85.847 1380.42 85.3997L1377.25 84.0576L1366.27 110.033L1357.26 106.226Z" fill="#5988FF"/>
<path d="M1393.41 121.783L1408.7 89.1797L1417.55 93.3297L1405.61 118.801L1418.79 124.981L1415.45 132.113L1393.41 121.783Z" fill="#5988FF"/>
<path d="M1424.5 136.548L1440.99 104.535L1464.06 116.416L1460.46 123.419L1446.07 116.013L1443.24 121.515L1456.43 128.309L1452.83 135.312L1439.63 128.518L1436.8 134.02L1451.12 141.394L1447.51 148.397L1424.5 136.548Z" fill="#5988FF"/>
<path d="M1489.66 130.337L1500.11 136.581L1496.82 158.381L1497.18 158.598L1514.84 145.388L1525.28 151.632L1506.8 182.537L1498.59 177.629L1509.27 159.762L1509.03 159.617L1491.61 173.128L1486.66 170.169L1490.39 148.308L1490.15 148.163L1479.39 166.151L1471.18 161.242L1489.66 130.337Z" fill="#5988FF"/>
<path d="M1524.16 193.9L1515.39 188.03L1545.31 164.725L1556.41 172.161L1546.25 208.693L1537.49 202.823L1545.46 176.761L1545.23 176.604L1524.16 193.9ZM1530.43 181.001L1546.91 192.037L1542.84 198.114L1526.36 187.078L1530.43 181.001Z" fill="#5988FF"/>
<path d="M1554.03 214.266L1575.37 185.261L1587.89 194.472C1590.05 196.056 1591.62 197.866 1592.61 199.904C1593.6 201.941 1593.97 204.06 1593.74 206.259C1593.5 208.457 1592.63 210.586 1591.11 212.644C1589.59 214.721 1587.8 216.18 1585.76 217.019C1583.72 217.865 1581.57 218.088 1579.3 217.687C1577.05 217.293 1574.81 216.283 1572.6 214.658L1565.13 209.156L1569.63 203.038L1575.52 207.373C1576.45 208.053 1577.35 208.473 1578.24 208.631C1579.14 208.787 1579.99 208.691 1580.79 208.344C1581.59 208.003 1582.29 207.423 1582.9 206.601C1583.51 205.77 1583.85 204.93 1583.92 204.081C1584.01 203.229 1583.84 202.404 1583.41 201.606C1582.99 200.806 1582.32 200.066 1581.4 199.385L1578.62 197.343L1561.91 220.059L1554.03 214.266Z" fill="#5988FF"/>
<path d="M1616.22 230.562C1616.88 229.588 1617.11 228.6 1616.91 227.596C1616.71 226.6 1616 225.608 1614.76 224.619C1613.98 223.989 1613.25 223.568 1612.6 223.357C1611.96 223.145 1611.39 223.103 1610.89 223.233C1610.4 223.363 1609.98 223.63 1609.64 224.034C1609.35 224.358 1609.17 224.712 1609.09 225.096C1609.02 225.479 1609.05 225.905 1609.19 226.373C1609.33 226.833 1609.58 227.344 1609.92 227.906C1610.27 228.468 1610.72 229.085 1611.28 229.757L1613.19 232.098C1614.48 233.673 1615.46 235.173 1616.14 236.6C1616.81 238.026 1617.21 239.387 1617.33 240.683C1617.45 241.97 1617.32 243.199 1616.92 244.368C1616.54 245.545 1615.92 246.672 1615.07 247.75C1613.58 249.591 1611.87 250.786 1609.92 251.334C1607.98 251.882 1605.89 251.809 1603.66 251.114C1601.43 250.426 1599.13 249.13 1596.75 247.225C1594.3 245.269 1592.46 243.2 1591.22 241.019C1589.99 238.846 1589.47 236.606 1589.66 234.299C1589.88 231.991 1590.92 229.657 1592.79 227.299L1600.04 233.102C1599.4 233.998 1599.03 234.893 1598.95 235.787C1598.86 236.68 1599.05 237.556 1599.5 238.415C1599.96 239.281 1600.68 240.102 1601.65 240.879C1602.46 241.531 1603.23 241.976 1603.94 242.214C1604.65 242.453 1605.29 242.507 1605.86 242.377C1606.43 242.248 1606.9 241.958 1607.27 241.508C1607.61 241.07 1607.77 240.582 1607.75 240.042C1607.75 239.5 1607.54 238.855 1607.14 238.108C1606.74 237.352 1606.1 236.442 1605.24 235.378L1602.93 232.532C1600.87 229.999 1599.63 227.526 1599.21 225.113C1598.8 222.699 1599.48 220.397 1601.24 218.208C1602.66 216.417 1604.39 215.238 1606.42 214.672C1608.47 214.103 1610.65 214.129 1612.96 214.749C1615.28 215.376 1617.55 216.58 1619.78 218.361C1622.04 220.178 1623.7 222.129 1624.75 224.215C1625.8 226.3 1626.22 228.393 1626.01 230.492C1625.82 232.59 1624.99 234.562 1623.52 236.408L1616.22 230.562Z" fill="#5988FF"/>
<path d="M1671.32 278.634C1672.05 277.712 1672.35 276.744 1672.22 275.728C1672.1 274.72 1671.46 273.678 1670.31 272.6C1669.57 271.913 1668.88 271.44 1668.24 271.181C1667.62 270.921 1667.05 270.838 1666.55 270.931C1666.05 271.023 1665.61 271.259 1665.24 271.637C1664.93 271.938 1664.72 272.278 1664.61 272.655C1664.52 273.032 1664.52 273.459 1664.62 273.936C1664.73 274.405 1664.93 274.932 1665.23 275.519C1665.54 276.105 1665.94 276.754 1666.45 277.466L1668.18 279.941C1669.35 281.608 1670.22 283.177 1670.79 284.65C1671.36 286.122 1671.65 287.509 1671.67 288.81C1671.7 290.103 1671.48 291.318 1670.99 292.455C1670.52 293.6 1669.82 294.678 1668.9 295.69C1667.27 297.416 1665.48 298.48 1663.5 298.882C1661.52 299.285 1659.44 299.057 1657.27 298.198C1655.1 297.347 1652.89 295.884 1650.66 293.807C1648.37 291.675 1646.69 289.476 1645.61 287.209C1644.54 284.95 1644.19 282.677 1644.56 280.392C1644.94 278.106 1646.15 275.856 1648.2 273.643L1654.99 279.967C1654.29 280.814 1653.86 281.679 1653.71 282.564C1653.56 283.448 1653.67 284.336 1654.06 285.226C1654.46 286.124 1655.11 286.996 1656.02 287.842C1656.79 288.553 1657.51 289.054 1658.2 289.344C1658.89 289.634 1659.53 289.736 1660.11 289.649C1660.68 289.562 1661.18 289.308 1661.58 288.887C1661.95 288.475 1662.15 288 1662.17 287.46C1662.21 286.919 1662.05 286.262 1661.7 285.486C1661.36 284.702 1660.79 283.748 1660.02 282.623L1657.92 279.613C1656.05 276.935 1655 274.377 1654.75 271.939C1654.53 269.501 1655.37 267.256 1657.3 265.204C1658.85 263.523 1660.66 262.475 1662.72 262.061C1664.81 261.646 1666.98 261.834 1669.24 262.623C1671.51 263.421 1673.68 264.79 1675.77 266.731C1677.9 268.711 1679.41 270.78 1680.3 272.937C1681.19 275.095 1681.45 277.213 1681.08 279.291C1680.74 281.369 1679.76 283.274 1678.17 285.007L1671.32 278.634Z" fill="#5988FF"/>
<path d="M1709.5 300.333L1716.37 307.289L1699.95 323.497C1698 325.424 1695.85 326.625 1693.5 327.099C1691.17 327.573 1688.8 327.364 1686.38 326.47C1683.97 325.568 1681.69 324.02 1679.52 321.826C1677.34 319.616 1675.81 317.302 1674.94 314.885C1674.08 312.459 1673.9 310.083 1674.4 307.757C1674.92 305.431 1676.16 303.305 1678.11 301.378L1694.53 285.17L1701.4 292.126L1685.58 307.741C1684.79 308.523 1684.25 309.398 1683.97 310.366C1683.7 311.326 1683.69 312.288 1683.95 313.251C1684.22 314.222 1684.75 315.104 1685.53 315.896C1686.32 316.697 1687.19 317.233 1688.15 317.504C1689.11 317.776 1690.08 317.782 1691.04 317.523C1692.01 317.255 1692.89 316.73 1693.68 315.948L1709.5 300.333Z" fill="#5988FF"/>
<path d="M1698.1 340.391L1724.77 316.196L1735.21 327.707C1737.01 329.686 1738.19 331.772 1738.76 333.966C1739.32 336.159 1739.27 338.31 1738.6 340.418C1737.94 342.527 1736.66 344.44 1734.76 346.157C1732.85 347.889 1730.81 348.964 1728.64 349.382C1726.48 349.808 1724.33 349.599 1722.19 348.757C1720.06 347.923 1718.07 346.49 1716.22 344.459L1709.99 337.583L1715.61 332.48L1720.53 337.897C1721.3 338.747 1722.1 339.338 1722.94 339.669C1723.8 340.001 1724.65 340.076 1725.5 339.893C1726.35 339.719 1727.16 339.289 1727.91 338.604C1728.68 337.911 1729.18 337.155 1729.42 336.337C1729.67 335.52 1729.67 334.677 1729.4 333.81C1729.15 332.943 1728.64 332.084 1727.87 331.233L1725.56 328.681L1704.67 347.631L1698.1 340.391Z" fill="#5988FF"/>
<path d="M1724.37 369.67L1752.01 346.586L1761.98 358.516C1763.69 360.567 1764.78 362.7 1765.26 364.914C1765.74 367.129 1765.6 369.276 1764.84 371.355C1764.09 373.435 1762.73 375.293 1760.77 376.932C1758.79 378.585 1756.71 379.575 1754.53 379.903C1752.35 380.241 1750.21 379.944 1748.1 379.015C1746 378.094 1744.08 376.581 1742.32 374.476L1736.37 367.351L1742.2 362.482L1746.89 368.095C1747.62 368.977 1748.4 369.601 1749.23 369.966C1750.07 370.333 1750.91 370.442 1751.77 370.294C1752.63 370.155 1753.45 369.759 1754.23 369.105C1755.03 368.444 1755.56 367.709 1755.83 366.901C1756.12 366.095 1756.15 365.253 1755.92 364.375C1755.71 363.499 1755.23 362.62 1754.5 361.739L1752.29 359.094L1730.64 377.172L1724.37 369.67Z" fill="#5988FF"/>
<path d="M1749.41 400.034L1777.92 378.029L1783.89 385.767L1761.62 402.958L1770.52 414.481L1764.28 419.295L1749.41 400.034Z" fill="#5988FF"/>
<path d="M1770.3 427.377L1799.61 406.445L1814.69 427.562L1808.28 432.141L1798.88 418.979L1793.84 422.576L1802.47 434.651L1796.06 439.23L1787.43 427.155L1782.4 430.753L1791.76 443.858L1785.35 448.437L1770.3 427.377Z" fill="#5988FF"/>
<path d="M1831.1 451.648L1837.53 461.976L1824.64 479.861L1824.86 480.22L1846.6 476.542L1853.03 486.871L1822.46 505.905L1817.41 497.786L1835.08 486.782L1834.93 486.543L1813.26 490.593L1810.21 485.697L1823.52 467.962L1823.37 467.723L1805.58 478.802L1800.53 470.682L1831.1 451.648Z" fill="#5988FF"/>
<path d="M1832.71 523.949L1827.6 514.72L1864.86 507.672L1871.33 519.362L1845.59 547.205L1840.48 537.976L1859.49 518.444L1859.35 518.198L1832.71 523.949ZM1844.18 515.343L1853.79 532.693L1847.39 536.237L1837.78 518.887L1844.18 515.343Z" fill="#5988FF"/>
<path d="M1849.96 555.719L1882.2 539.681L1889.13 553.597C1890.32 555.99 1890.89 558.319 1890.83 560.583C1890.78 562.848 1890.15 564.904 1888.93 566.752C1887.72 568.6 1885.97 570.093 1883.68 571.231C1881.37 572.379 1879.12 572.86 1876.91 572.672C1874.72 572.494 1872.7 571.709 1870.87 570.316C1869.05 568.934 1867.52 567.015 1866.3 564.559L1862.16 556.247L1868.97 552.864L1872.22 559.413C1872.73 560.441 1873.35 561.229 1874.07 561.776C1874.8 562.327 1875.6 562.631 1876.46 562.685C1877.33 562.749 1878.22 562.555 1879.14 562.1C1880.06 561.641 1880.75 561.05 1881.2 560.328C1881.67 559.61 1881.89 558.798 1881.88 557.891C1881.87 556.99 1881.61 556.025 1881.1 554.996L1879.57 551.911L1854.31 564.472L1849.96 555.719Z" fill="#5988FF"/>
<path d="M1897.81 598.644C1898.85 598.08 1899.5 597.306 1899.78 596.321C1900.06 595.346 1899.88 594.137 1899.24 592.693C1898.82 591.772 1898.37 591.068 1897.89 590.58C1897.41 590.098 1896.93 589.802 1896.43 589.691C1895.93 589.581 1895.44 589.628 1894.95 589.832C1894.55 589.988 1894.22 590.218 1893.97 590.522C1893.73 590.832 1893.57 591.226 1893.48 591.705C1893.39 592.179 1893.38 592.745 1893.43 593.403C1893.48 594.061 1893.6 594.816 1893.79 595.669L1894.41 598.624C1894.84 600.615 1895.03 602.399 1894.98 603.977C1894.93 605.554 1894.66 606.946 1894.17 608.152C1893.69 609.354 1893.01 610.385 1892.12 611.244C1891.24 612.114 1890.18 612.834 1888.93 613.405C1886.76 614.361 1884.69 614.639 1882.72 614.239C1880.74 613.839 1878.91 612.819 1877.24 611.178C1875.58 609.548 1874.12 607.342 1872.88 604.56C1871.6 601.703 1870.91 599.021 1870.8 596.514C1870.7 594.017 1871.26 591.788 1872.49 589.826C1873.73 587.87 1875.73 586.271 1878.47 585.031L1882.26 593.505C1881.28 594.008 1880.55 594.638 1880.06 595.394C1879.58 596.149 1879.34 597.013 1879.35 597.984C1879.37 598.966 1879.63 600.024 1880.14 601.158C1880.56 602.11 1881.04 602.855 1881.56 603.391C1882.08 603.928 1882.63 604.269 1883.19 604.414C1883.76 604.559 1884.31 604.517 1884.85 604.288C1885.35 604.053 1885.71 603.691 1885.95 603.202C1886.19 602.72 1886.3 602.053 1886.28 601.202C1886.27 600.346 1886.13 599.249 1885.85 597.909L1885.09 594.319C1884.42 591.127 1884.45 588.36 1885.17 586.02C1885.91 583.685 1887.57 581.949 1890.14 580.811C1892.23 579.867 1894.3 579.607 1896.36 580.032C1898.44 580.462 1900.37 581.482 1902.14 583.09C1903.92 584.709 1905.39 586.819 1906.55 589.419C1907.74 592.072 1908.32 594.566 1908.3 596.9C1908.28 599.234 1907.7 601.286 1906.55 603.058C1905.42 604.835 1903.78 606.21 1901.63 607.183L1897.81 598.644Z" fill="#5988FF"/>
<path d="M1924.83 666.589C1925.9 666.103 1926.61 665.379 1926.96 664.417C1927.32 663.467 1927.23 662.247 1926.69 660.759C1926.35 659.811 1925.95 659.075 1925.5 658.553C1925.07 658.037 1924.6 657.705 1924.11 657.558C1923.62 657.41 1923.13 657.421 1922.63 657.589C1922.21 657.714 1921.87 657.919 1921.6 658.204C1921.34 658.496 1921.15 658.877 1921.02 659.347C1920.9 659.813 1920.84 660.377 1920.85 661.037C1920.85 661.697 1920.91 662.459 1921.03 663.323L1921.44 666.317C1921.72 668.334 1921.78 670.127 1921.61 671.696C1921.44 673.265 1921.07 674.633 1920.49 675.8C1919.93 676.964 1919.17 677.941 1918.22 678.732C1917.28 679.534 1916.16 680.173 1914.88 680.65C1912.65 681.443 1910.56 681.566 1908.62 681.021C1906.68 680.475 1904.93 679.323 1903.39 677.562C1901.85 675.813 1900.56 673.505 1899.52 670.639C1898.46 667.695 1897.97 664.969 1898.05 662.461C1898.13 659.963 1898.86 657.782 1900.23 655.916C1901.61 654.058 1903.72 652.612 1906.55 651.578L1909.7 660.31C1908.69 660.739 1907.91 661.313 1907.37 662.031C1906.83 662.748 1906.53 663.592 1906.47 664.561C1906.41 665.541 1906.59 666.616 1907.02 667.785C1907.37 668.766 1907.79 669.543 1908.27 670.117C1908.75 670.691 1909.27 671.072 1909.82 671.258C1910.38 671.445 1910.93 671.444 1911.49 671.256C1912 671.058 1912.39 670.724 1912.66 670.254C1912.94 669.791 1913.1 669.134 1913.14 668.284C1913.19 667.43 1913.13 666.325 1912.95 664.968L1912.46 661.332C1912.03 658.098 1912.26 655.342 1913.16 653.061C1914.07 650.788 1915.85 649.18 1918.5 648.236C1920.65 647.449 1922.74 647.343 1924.77 647.92C1926.81 648.504 1928.65 649.663 1930.3 651.399C1931.95 653.145 1933.26 655.358 1934.23 658.037C1935.22 660.771 1935.61 663.301 1935.42 665.627C1935.23 667.953 1934.49 669.957 1933.22 671.638C1931.96 673.327 1930.22 674.576 1928.01 675.387L1924.83 666.589Z" fill="#5988FF"/>
<path d="M1948.86 703.344L1951.79 712.671L1929.78 719.579C1927.16 720.401 1924.7 720.485 1922.4 719.833C1920.11 719.188 1918.09 717.917 1916.35 716.018C1914.62 714.115 1913.3 711.693 1912.37 708.752C1911.44 705.788 1911.14 703.032 1911.47 700.484C1911.82 697.932 1912.74 695.737 1914.25 693.898C1915.78 692.068 1917.85 690.742 1920.47 689.921L1942.48 683.012L1945.41 692.339L1924.2 698.995C1923.14 699.328 1922.26 699.862 1921.57 700.595C1920.89 701.324 1920.45 702.176 1920.24 703.151C1920.03 704.138 1920.09 705.162 1920.43 706.224C1920.76 707.298 1921.3 708.175 1922.03 708.855C1922.76 709.535 1923.61 709.98 1924.58 710.19C1925.57 710.396 1926.6 710.333 1927.66 709.999L1948.86 703.344Z" fill="#5988FF"/>
<path d="M1920.41 733.755L1955.19 724.431L1959.21 739.444C1959.91 742.025 1960 744.42 1959.5 746.63C1959 748.839 1957.97 750.729 1956.42 752.299C1954.86 753.869 1952.85 754.985 1950.38 755.647C1947.89 756.314 1945.58 756.338 1943.46 755.717C1941.34 755.107 1939.53 753.938 1938.01 752.21C1936.49 750.492 1935.38 748.309 1934.67 745.66L1932.26 736.693L1939.6 734.726L1941.49 741.791C1941.79 742.901 1942.24 743.794 1942.83 744.472C1943.44 745.159 1944.16 745.614 1945 745.839C1945.84 746.075 1946.75 746.061 1947.74 745.797C1948.73 745.53 1949.53 745.087 1950.11 744.468C1950.71 743.858 1951.09 743.107 1951.26 742.214C1951.43 741.33 1951.37 740.333 1951.07 739.223L1950.18 735.895L1922.94 743.197L1920.41 733.755Z" fill="#5988FF"/>
<path d="M1930.38 771.806L1965.52 763.914L1968.93 779.079C1969.51 781.687 1969.51 784.084 1968.92 786.271C1968.33 788.458 1967.22 790.304 1965.6 791.809C1963.98 793.314 1961.93 794.347 1959.43 794.907C1956.92 795.472 1954.61 795.401 1952.52 794.694C1950.43 793.998 1948.66 792.755 1947.21 790.966C1945.77 789.188 1944.74 786.961 1944.14 784.285L1942.11 775.227L1949.52 773.563L1951.12 780.699C1951.38 781.82 1951.78 782.731 1952.35 783.433C1952.93 784.144 1953.63 784.628 1954.46 784.887C1955.29 785.157 1956.2 785.181 1957.2 784.957C1958.2 784.731 1959.01 784.321 1959.63 783.727C1960.25 783.142 1960.66 782.407 1960.86 781.522C1961.07 780.645 1961.05 779.647 1960.8 778.526L1960.04 775.163L1932.53 781.344L1930.38 771.806Z" fill="#5988FF"/>
<path d="M1938.76 810.257L1974.18 803.72L1975.95 813.334L1948.28 818.441L1950.93 832.757L1943.18 834.187L1938.76 810.257Z" fill="#5988FF"/>
<path d="M1944.84 844.127L1980.47 838.909L1984.23 864.587L1976.44 865.728L1974.09 849.723L1967.97 850.62L1970.12 865.303L1962.33 866.444L1960.18 851.762L1954.05 852.658L1956.39 868.594L1948.59 869.735L1944.84 844.127Z" fill="#5988FF"/>
<path d="M1987.8 893.507L1988.8 905.633L1969.16 915.645L1969.19 916.066L1990.21 922.735L1991.21 934.861L1955.31 937.813L1954.53 928.28L1975.28 926.574L1975.26 926.293L1954.13 919.986L1953.66 914.239L1973.61 904.553L1973.59 904.273L1952.7 905.991L1951.91 896.458L1987.8 893.507Z" fill="#5988FF"/>
<path d="M1956.17 958.544L1955.85 948L1992.21 958.769L1992.62 972.125L1957 985.116L1956.67 974.571L1982.51 965.893L1982.5 965.612L1956.17 958.544ZM1970.32 956.137L1970.93 975.961L1963.62 976.186L1963 956.363L1970.32 956.137Z" fill="#5988FF"/>
<path d="M1956.99 994.686L1993 995.165L1992.79 1010.71C1992.76 1013.38 1992.2 1015.71 1991.12 1017.7C1990.04 1019.69 1988.53 1021.23 1986.61 1022.32C1984.68 1023.41 1982.44 1023.93 1979.89 1023.9C1977.31 1023.86 1975.08 1023.26 1973.21 1022.09C1971.34 1020.92 1969.91 1019.3 1968.91 1017.23C1967.92 1015.16 1967.44 1012.76 1967.48 1010.02L1967.6 1000.73L1975.2 1000.84L1975.1 1008.15C1975.09 1009.3 1975.27 1010.28 1975.66 1011.09C1976.06 1011.92 1976.63 1012.55 1977.38 1013C1978.12 1013.45 1979 1013.69 1980.02 1013.7C1981.05 1013.71 1981.93 1013.5 1982.67 1013.07C1983.41 1012.64 1983.98 1012.02 1984.38 1011.21C1984.79 1010.41 1985 1009.43 1985.02 1008.28L1985.06 1004.84L1956.86 1004.46L1956.99 994.686Z" fill="#5988FF"/>
<path d="M1979.92 1054.74C1981.09 1054.71 1982.03 1054.32 1982.73 1053.57C1983.43 1052.84 1983.82 1051.68 1983.9 1050.1C1983.96 1049.09 1983.88 1048.26 1983.67 1047.6C1983.47 1046.96 1983.17 1046.47 1982.78 1046.15C1982.39 1045.82 1981.93 1045.64 1981.4 1045.59C1980.97 1045.55 1980.57 1045.6 1980.21 1045.76C1979.86 1045.93 1979.54 1046.2 1979.23 1046.59C1978.94 1046.97 1978.67 1047.47 1978.41 1048.07C1978.16 1048.68 1977.92 1049.41 1977.7 1050.25L1976.9 1053.17C1976.37 1055.14 1975.73 1056.81 1974.96 1058.19C1974.19 1059.57 1973.31 1060.68 1972.33 1061.53C1971.36 1062.38 1970.28 1062.99 1969.1 1063.34C1967.91 1063.71 1966.64 1063.87 1965.27 1063.81C1962.9 1063.67 1960.93 1062.97 1959.36 1061.71C1957.78 1060.45 1956.63 1058.71 1955.89 1056.48C1955.15 1054.27 1954.87 1051.64 1955.03 1048.6C1955.2 1045.47 1955.81 1042.77 1956.87 1040.49C1957.92 1038.23 1959.44 1036.5 1961.43 1035.32C1963.43 1034.15 1965.93 1033.64 1968.94 1033.79L1968.44 1043.06C1967.33 1043.06 1966.39 1043.28 1965.62 1043.73C1964.84 1044.18 1964.24 1044.84 1963.8 1045.71C1963.37 1046.59 1963.12 1047.65 1963.05 1048.89C1962.99 1049.94 1963.07 1050.81 1963.29 1051.53C1963.51 1052.25 1963.84 1052.8 1964.28 1053.19C1964.71 1053.57 1965.22 1053.79 1965.81 1053.83C1966.36 1053.85 1966.85 1053.7 1967.28 1053.37C1967.72 1053.05 1968.12 1052.51 1968.49 1051.74C1968.88 1050.98 1969.25 1049.94 1969.61 1048.62L1970.58 1045.08C1971.45 1041.93 1972.73 1039.48 1974.45 1037.73C1976.18 1036 1978.44 1035.21 1981.25 1035.37C1983.54 1035.49 1985.5 1036.2 1987.14 1037.52C1988.79 1038.86 1990.04 1040.65 1990.88 1042.89C1991.72 1045.14 1992.07 1047.69 1991.91 1050.53C1991.75 1053.44 1991.13 1055.92 1990.04 1057.98C1988.96 1060.05 1987.5 1061.61 1985.67 1062.66C1983.85 1063.72 1981.76 1064.2 1979.41 1064.08L1979.92 1054.74Z" fill="#5988FF"/>
<path d="M1972.87 1127.52C1974.05 1127.58 1975.01 1127.26 1975.76 1126.56C1976.51 1125.88 1976.99 1124.75 1977.19 1123.18C1977.32 1122.18 1977.31 1121.35 1977.14 1120.68C1976.99 1120.02 1976.73 1119.51 1976.37 1119.16C1976 1118.8 1975.55 1118.59 1975.03 1118.51C1974.6 1118.43 1974.21 1118.45 1973.83 1118.58C1973.47 1118.73 1973.13 1118.98 1972.8 1119.34C1972.48 1119.7 1972.17 1120.17 1971.87 1120.76C1971.57 1121.35 1971.28 1122.05 1970.99 1122.88L1969.98 1125.73C1969.31 1127.65 1968.54 1129.27 1967.67 1130.59C1966.8 1131.91 1965.85 1132.95 1964.8 1133.73C1963.77 1134.5 1962.65 1135.03 1961.44 1135.3C1960.24 1135.58 1958.95 1135.64 1957.59 1135.47C1955.24 1135.16 1953.33 1134.31 1951.85 1132.94C1950.38 1131.57 1949.35 1129.75 1948.78 1127.47C1948.21 1125.21 1948.12 1122.57 1948.51 1119.55C1948.92 1116.45 1949.72 1113.8 1950.94 1111.6C1952.16 1109.42 1953.8 1107.81 1955.87 1106.78C1957.96 1105.76 1960.49 1105.44 1963.48 1105.81L1962.29 1115.02C1961.19 1114.93 1960.24 1115.09 1959.43 1115.48C1958.62 1115.87 1957.97 1116.49 1957.47 1117.32C1956.97 1118.17 1956.64 1119.2 1956.48 1120.44C1956.35 1121.47 1956.37 1122.35 1956.53 1123.08C1956.7 1123.82 1956.98 1124.39 1957.39 1124.81C1957.8 1125.23 1958.29 1125.48 1958.87 1125.57C1959.42 1125.63 1959.92 1125.51 1960.37 1125.21C1960.83 1124.93 1961.28 1124.42 1961.7 1123.68C1962.14 1122.95 1962.59 1121.94 1963.05 1120.65L1964.28 1117.19C1965.37 1114.12 1966.84 1111.77 1968.68 1110.15C1970.53 1108.55 1972.85 1107.93 1975.64 1108.3C1977.91 1108.59 1979.81 1109.45 1981.35 1110.89C1982.9 1112.34 1984.01 1114.21 1984.69 1116.51C1985.36 1118.82 1985.51 1121.39 1985.15 1124.21C1984.77 1127.09 1983.97 1129.53 1982.73 1131.5C1981.49 1133.48 1979.92 1134.93 1978.02 1135.84C1976.13 1136.77 1974.01 1137.09 1971.68 1136.8L1972.87 1127.52Z" fill="#5988FF"/>
<path d="M1977.44 1171.19L1975.78 1180.83L1953.04 1176.91C1950.34 1176.44 1948.11 1175.39 1946.36 1173.76C1944.62 1172.14 1943.41 1170.08 1942.73 1167.6C1942.06 1165.12 1941.99 1162.36 1942.51 1159.32C1943.04 1156.26 1944.04 1153.67 1945.5 1151.56C1946.97 1149.44 1948.79 1147.91 1950.98 1146.97C1953.17 1146.04 1955.62 1145.81 1958.33 1146.27L1981.06 1150.19L1979.4 1159.83L1957.5 1156.05C1956.4 1155.86 1955.38 1155.93 1954.43 1156.27C1953.49 1156.61 1952.7 1157.16 1952.07 1157.93C1951.43 1158.72 1951.02 1159.66 1950.83 1160.75C1950.64 1161.86 1950.71 1162.89 1951.05 1163.82C1951.39 1164.76 1951.94 1165.55 1952.72 1166.18C1953.5 1166.82 1954.44 1167.23 1955.54 1167.42L1977.44 1171.19Z" fill="#5988FF"/>
<path d="M1938.22 1185.23L1973.42 1192.84L1970.13 1208.03C1969.57 1210.64 1968.56 1212.82 1967.1 1214.55C1965.65 1216.29 1963.87 1217.5 1961.77 1218.18C1959.66 1218.87 1957.36 1218.94 1954.87 1218.4C1952.35 1217.86 1950.28 1216.82 1948.68 1215.3C1947.08 1213.79 1946 1211.92 1945.44 1209.69C1944.87 1207.47 1944.88 1205.02 1945.46 1202.34L1947.42 1193.26L1954.85 1194.87L1953.3 1202.02C1953.06 1203.14 1953.05 1204.14 1953.26 1205.01C1953.49 1205.9 1953.93 1206.64 1954.57 1207.22C1955.21 1207.81 1956.03 1208.22 1957.02 1208.43C1958.03 1208.65 1958.94 1208.62 1959.74 1208.34C1960.56 1208.07 1961.24 1207.58 1961.79 1206.86C1962.35 1206.15 1962.75 1205.24 1962.99 1204.11L1963.72 1200.74L1936.16 1194.78L1938.22 1185.23Z" fill="#5988FF"/>
<path d="M1929.69 1223.63L1964.55 1232.68L1960.65 1247.72C1959.97 1250.31 1958.88 1252.44 1957.35 1254.11C1955.83 1255.79 1954 1256.92 1951.87 1257.52C1949.74 1258.12 1947.44 1258.1 1944.97 1257.46C1942.47 1256.81 1940.45 1255.69 1938.91 1254.11C1937.37 1252.53 1936.37 1250.62 1935.9 1248.36C1935.43 1246.12 1935.54 1243.67 1936.23 1241.02L1938.56 1232.03L1945.91 1233.94L1944.07 1241.02C1943.78 1242.13 1943.73 1243.13 1943.91 1244.01C1944.11 1244.91 1944.51 1245.66 1945.13 1246.27C1945.74 1246.89 1946.54 1247.33 1947.53 1247.59C1948.53 1247.84 1949.43 1247.85 1950.25 1247.6C1951.07 1247.37 1951.78 1246.9 1952.36 1246.2C1952.95 1245.52 1953.38 1244.62 1953.67 1243.51L1954.54 1240.18L1927.24 1233.09L1929.69 1223.63Z" fill="#5988FF"/>
<path d="M1919.56 1261.66L1954.05 1272.04L1951.23 1281.4L1924.29 1273.29L1920.09 1287.23L1912.55 1284.96L1919.56 1261.66Z" fill="#5988FF"/>
<path d="M1909.48 1294.56L1943.55 1306.21L1935.16 1330.76L1927.7 1328.22L1932.94 1312.91L1927.08 1310.91L1922.28 1324.95L1914.82 1322.4L1919.63 1308.36L1913.77 1306.36L1908.56 1321.6L1901.1 1319.05L1909.48 1294.56Z" fill="#5988FF"/>
<path d="M1925.11 1358.12L1920.45 1369.36L1898.4 1369.28L1898.24 1369.67L1913.88 1385.21L1909.22 1396.45L1875.95 1382.67L1879.62 1373.83L1898.85 1381.8L1898.96 1381.54L1883.05 1366.27L1885.26 1360.94L1907.43 1361.45L1907.54 1361.19L1888.18 1353.17L1891.84 1344.33L1925.11 1358.12Z" fill="#5988FF"/>
<path d="M1867.24 1401.49L1871.77 1391.97L1899.18 1418.17L1893.44 1430.24L1855.81 1425.5L1860.35 1415.97L1887.3 1420.07L1887.42 1419.82L1867.24 1401.49ZM1880.91 1405.82L1872.39 1423.73L1865.79 1420.59L1874.31 1402.68L1880.91 1405.82Z" fill="#5988FF"/>
<path d="M1851.43 1434.01L1883.24 1450.9L1875.95 1464.63C1874.69 1466.99 1873.13 1468.8 1871.26 1470.08C1869.39 1471.36 1867.35 1472.04 1865.14 1472.12C1862.93 1472.21 1860.69 1471.66 1858.43 1470.46C1856.16 1469.25 1854.45 1467.69 1853.33 1465.79C1852.19 1463.9 1851.66 1461.81 1851.73 1459.51C1851.79 1457.22 1852.46 1454.86 1853.75 1452.44L1858.1 1444.24L1864.81 1447.8L1861.38 1454.26C1860.84 1455.28 1860.56 1456.24 1860.53 1457.14C1860.51 1458.05 1860.73 1458.88 1861.19 1459.62C1861.64 1460.36 1862.32 1460.97 1863.22 1461.45C1864.13 1461.93 1865.01 1462.15 1865.86 1462.1C1866.72 1462.06 1867.51 1461.77 1868.23 1461.23C1868.97 1460.7 1869.6 1459.93 1870.14 1458.92L1871.76 1455.87L1846.85 1442.64L1851.43 1434.01Z" fill="#5988FF"/>
<path d="M1844.36 1497.9C1845.42 1498.41 1846.43 1498.5 1847.39 1498.15C1848.35 1497.81 1849.23 1496.96 1850.03 1495.6C1850.54 1494.72 1850.85 1493.95 1850.96 1493.27C1851.08 1492.6 1851.04 1492.04 1850.84 1491.57C1850.64 1491.1 1850.31 1490.72 1849.86 1490.45C1849.5 1490.21 1849.12 1490.07 1848.73 1490.05C1848.34 1490.04 1847.93 1490.14 1847.48 1490.34C1847.05 1490.55 1846.58 1490.86 1846.07 1491.29C1845.57 1491.71 1845.02 1492.25 1844.44 1492.9L1842.4 1495.13C1841.03 1496.63 1839.69 1497.82 1838.37 1498.7C1837.06 1499.57 1835.77 1500.17 1834.51 1500.47C1833.25 1500.78 1832.02 1500.83 1830.8 1500.61C1829.58 1500.39 1828.38 1499.95 1827.19 1499.27C1825.15 1498.06 1823.72 1496.54 1822.89 1494.7C1822.07 1492.86 1821.84 1490.78 1822.2 1488.47C1822.55 1486.16 1823.5 1483.69 1825.04 1481.06C1826.62 1478.36 1828.4 1476.24 1830.38 1474.69C1832.35 1473.16 1834.49 1472.32 1836.8 1472.17C1839.11 1472.05 1841.57 1472.74 1844.18 1474.25L1839.49 1482.26C1838.51 1481.76 1837.57 1481.53 1836.68 1481.58C1835.78 1481.62 1834.94 1481.93 1834.16 1482.51C1833.37 1483.09 1832.66 1483.92 1832.03 1484.99C1831.51 1485.89 1831.18 1486.71 1831.04 1487.45C1830.91 1488.18 1830.95 1488.82 1831.16 1489.37C1831.37 1489.91 1831.73 1490.34 1832.23 1490.64C1832.71 1490.91 1833.22 1491 1833.75 1490.9C1834.28 1490.82 1834.89 1490.53 1835.57 1490.01C1836.26 1489.51 1837.07 1488.75 1838 1487.75L1840.48 1485.04C1842.68 1482.64 1844.95 1481.05 1847.28 1480.28C1849.61 1479.52 1851.98 1479.86 1854.4 1481.29C1856.38 1482.43 1857.8 1483.97 1858.66 1485.89C1859.52 1487.84 1859.81 1490 1859.53 1492.37C1859.25 1494.76 1858.39 1497.18 1856.95 1499.64C1855.48 1502.15 1853.79 1504.08 1851.88 1505.42C1849.97 1506.76 1847.96 1507.48 1845.85 1507.57C1843.75 1507.69 1841.68 1507.16 1839.64 1505.98L1844.36 1497.9Z" fill="#5988FF"/>
<path d="M1804.81 1559.41C1805.83 1559.99 1806.84 1560.15 1807.82 1559.88C1808.8 1559.61 1809.74 1558.83 1810.64 1557.52C1811.21 1556.69 1811.58 1555.94 1811.74 1555.27C1811.91 1554.62 1811.91 1554.05 1811.74 1553.57C1811.58 1553.08 1811.28 1552.69 1810.85 1552.38C1810.51 1552.11 1810.14 1551.95 1809.75 1551.9C1809.37 1551.86 1808.95 1551.92 1808.49 1552.09C1808.04 1552.27 1807.55 1552.55 1807.01 1552.93C1806.48 1553.32 1805.89 1553.81 1805.26 1554.42L1803.06 1556.49C1801.59 1557.89 1800.16 1558.98 1798.79 1559.76C1797.41 1560.53 1796.08 1561.02 1794.8 1561.24C1793.52 1561.45 1792.29 1561.41 1791.09 1561.1C1789.89 1560.79 1788.72 1560.26 1787.59 1559.49C1785.64 1558.14 1784.33 1556.51 1783.64 1554.62C1782.96 1552.72 1782.88 1550.63 1783.41 1548.35C1783.94 1546.08 1785.07 1543.69 1786.8 1541.18C1788.57 1538.6 1790.5 1536.62 1792.59 1535.22C1794.67 1533.84 1796.87 1533.16 1799.18 1533.19C1801.5 1533.23 1803.9 1534.11 1806.39 1535.81L1801.12 1543.45C1800.18 1542.87 1799.26 1542.57 1798.36 1542.55C1797.47 1542.53 1796.61 1542.78 1795.78 1543.29C1794.95 1543.82 1794.18 1544.59 1793.48 1545.61C1792.89 1546.47 1792.5 1547.26 1792.31 1547.99C1792.12 1548.72 1792.11 1549.36 1792.28 1549.92C1792.45 1550.47 1792.78 1550.93 1793.25 1551.27C1793.71 1551.57 1794.21 1551.69 1794.75 1551.64C1795.29 1551.6 1795.92 1551.35 1796.63 1550.89C1797.36 1550.43 1798.22 1549.74 1799.22 1548.8L1801.9 1546.29C1804.27 1544.06 1806.65 1542.64 1809.03 1542.04C1811.41 1541.46 1813.75 1541.98 1816.06 1543.58C1817.95 1544.87 1819.25 1546.51 1819.96 1548.49C1820.68 1550.49 1820.81 1552.67 1820.35 1555.02C1819.9 1557.38 1818.86 1559.73 1817.24 1562.07C1815.59 1564.47 1813.76 1566.26 1811.76 1567.46C1809.75 1568.65 1807.7 1569.22 1805.59 1569.16C1803.48 1569.12 1801.45 1568.43 1799.51 1567.11L1804.81 1559.41Z" fill="#5988FF"/>
<path d="M1788.9 1600.33L1783.02 1608.14L1764.59 1594.26C1762.4 1592.61 1760.9 1590.66 1760.09 1588.4C1759.28 1586.16 1759.14 1583.79 1759.68 1581.27C1760.22 1578.76 1761.42 1576.27 1763.27 1573.81C1765.14 1571.33 1767.21 1569.48 1769.47 1568.26C1771.75 1567.06 1774.07 1566.53 1776.45 1566.69C1778.83 1566.87 1781.11 1567.78 1783.3 1569.43L1801.73 1583.31L1795.84 1591.12L1778.09 1577.75C1777.2 1577.08 1776.26 1576.68 1775.26 1576.54C1774.27 1576.41 1773.32 1576.54 1772.4 1576.94C1771.48 1577.35 1770.68 1577.99 1770.01 1578.88C1769.34 1579.78 1768.93 1580.73 1768.81 1581.72C1768.68 1582.7 1768.81 1583.66 1769.21 1584.57C1769.61 1585.49 1770.26 1586.29 1771.15 1586.96L1788.9 1600.33Z" fill="#5988FF"/>
<path d="M1747.61 1594.88L1775.43 1617.75L1765.56 1629.76C1763.86 1631.82 1761.97 1633.29 1759.88 1634.17C1757.8 1635.05 1755.66 1635.31 1753.48 1634.96C1751.29 1634.61 1749.21 1633.62 1747.24 1632C1745.25 1630.36 1743.89 1628.5 1743.16 1626.41C1742.42 1624.34 1742.31 1622.18 1742.84 1619.94C1743.35 1617.7 1744.48 1615.53 1746.22 1613.41L1752.12 1606.24L1757.98 1611.06L1753.34 1616.71C1752.61 1617.6 1752.14 1618.48 1751.94 1619.36C1751.73 1620.25 1751.78 1621.1 1752.09 1621.92C1752.38 1622.74 1752.93 1623.47 1753.71 1624.12C1754.51 1624.77 1755.33 1625.16 1756.18 1625.28C1757.02 1625.41 1757.86 1625.28 1758.68 1624.89C1759.5 1624.52 1760.27 1623.89 1761 1623.01L1763.19 1620.34L1741.4 1602.44L1747.61 1594.88Z" fill="#5988FF"/>
<path d="M1722.46 1625.14L1749.32 1649.12L1738.97 1660.71C1737.19 1662.71 1735.24 1664.1 1733.12 1664.89C1731 1665.69 1728.85 1665.86 1726.68 1665.42C1724.52 1664.98 1722.48 1663.91 1720.57 1662.2C1718.65 1660.49 1717.37 1658.57 1716.72 1656.46C1716.07 1654.35 1716.06 1652.19 1716.67 1649.97C1717.27 1647.76 1718.49 1645.63 1720.32 1643.59L1726.5 1636.66L1732.17 1641.72L1727.3 1647.18C1726.53 1648.04 1726.03 1648.9 1725.79 1649.77C1725.55 1650.65 1725.56 1651.51 1725.83 1652.33C1726.09 1653.16 1726.61 1653.92 1727.37 1654.6C1728.14 1655.28 1728.94 1655.7 1729.78 1655.85C1730.62 1656.02 1731.46 1655.93 1732.29 1655.58C1733.13 1655.24 1733.93 1654.64 1734.69 1653.78L1736.99 1651.21L1715.95 1632.43L1722.46 1625.14Z" fill="#5988FF"/>
<path d="M1696.06 1654.32L1721.98 1679.32L1715.2 1686.36L1694.95 1666.83L1684.84 1677.31L1679.17 1671.84L1696.06 1654.32Z" fill="#5988FF"/>
<path d="M1672.05 1678.97L1697.02 1704.91L1678.33 1722.91L1672.86 1717.24L1684.52 1706.02L1680.22 1701.56L1669.53 1711.85L1664.07 1706.18L1674.76 1695.89L1670.47 1691.43L1658.86 1702.6L1653.4 1696.92L1672.05 1678.97Z" fill="#5988FF"/>
<path d="M1656.88 1742.64L1647.6 1750.51L1628.02 1740.36L1627.7 1740.64L1634.51 1761.61L1625.22 1769.47L1601.94 1742L1609.24 1735.82L1622.7 1751.7L1622.91 1751.52L1615.75 1730.67L1620.15 1726.94L1639.64 1737.53L1639.85 1737.35L1626.3 1721.36L1633.6 1715.17L1656.88 1742.64Z" fill="#5988FF"/>
<path d="M1585.58 1754.76L1593.96 1748.36L1606.36 1784.2L1595.74 1792.31L1564.44 1770.89L1572.83 1764.49L1594.92 1780.45L1595.15 1780.28L1585.58 1754.76ZM1595.76 1764.86L1579.99 1776.89L1575.56 1771.08L1591.32 1759.05L1595.76 1764.86Z" fill="#5988FF"/>
<path d="M1556.65 1776.45L1577.22 1806.02L1564.45 1814.89C1562.26 1816.42 1560.04 1817.32 1557.79 1817.6C1555.54 1817.87 1553.42 1817.55 1551.41 1816.61C1549.41 1815.68 1547.67 1814.17 1546.21 1812.07C1544.74 1809.95 1543.94 1807.79 1543.8 1805.58C1543.66 1803.39 1544.14 1801.28 1545.25 1799.26C1546.36 1797.26 1548.03 1795.47 1550.29 1793.9L1557.91 1788.6L1562.24 1794.84L1556.24 1799.01C1555.3 1799.67 1554.61 1800.39 1554.17 1801.18C1553.73 1801.99 1553.55 1802.82 1553.62 1803.68C1553.68 1804.55 1554 1805.41 1554.59 1806.25C1555.18 1807.09 1555.86 1807.69 1556.64 1808.03C1557.42 1808.39 1558.26 1808.49 1559.15 1808.34C1560.04 1808.21 1560.96 1807.81 1561.9 1807.16L1564.73 1805.19L1548.63 1782.03L1556.65 1776.45Z" fill="#5988FF"/>
<path d="M1521.15 1830.04C1521.85 1830.98 1522.72 1831.52 1523.73 1831.65C1524.74 1831.79 1525.91 1831.43 1527.24 1830.58C1528.09 1830.04 1528.72 1829.49 1529.13 1828.94C1529.54 1828.4 1529.77 1827.88 1529.8 1827.37C1529.84 1826.86 1529.72 1826.38 1529.45 1825.93C1529.23 1825.55 1528.96 1825.26 1528.62 1825.06C1528.28 1824.87 1527.87 1824.76 1527.38 1824.74C1526.9 1824.73 1526.34 1824.79 1525.69 1824.94C1525.05 1825.09 1524.32 1825.31 1523.5 1825.62L1520.67 1826.68C1518.76 1827.39 1517.02 1827.84 1515.46 1828.01C1513.89 1828.19 1512.47 1828.13 1511.21 1827.82C1509.95 1827.52 1508.83 1827 1507.85 1826.25C1506.86 1825.5 1505.99 1824.55 1505.25 1823.4C1503.99 1821.4 1503.41 1819.39 1503.52 1817.38C1503.63 1815.36 1504.37 1813.41 1505.75 1811.52C1507.12 1809.63 1509.09 1807.87 1511.66 1806.23C1514.3 1804.55 1516.86 1803.48 1519.32 1803.01C1521.78 1802.54 1524.06 1802.77 1526.18 1803.7C1528.3 1804.65 1530.17 1806.39 1531.8 1808.92L1523.97 1813.91C1523.33 1813.01 1522.6 1812.38 1521.78 1812.01C1520.96 1811.64 1520.07 1811.53 1519.11 1811.68C1518.14 1811.84 1517.13 1812.25 1516.09 1812.92C1515.21 1813.48 1514.54 1814.06 1514.08 1814.65C1513.63 1815.25 1513.37 1815.84 1513.31 1816.42C1513.25 1817 1513.37 1817.54 1513.67 1818.04C1513.98 1818.5 1514.39 1818.81 1514.91 1818.96C1515.42 1819.14 1516.1 1819.15 1516.94 1819.01C1517.78 1818.87 1518.85 1818.57 1520.13 1818.1L1523.57 1816.83C1526.63 1815.7 1529.38 1815.32 1531.8 1815.7C1534.21 1816.09 1536.17 1817.48 1537.67 1819.86C1538.91 1821.78 1539.47 1823.79 1539.35 1825.9C1539.23 1828.02 1538.5 1830.07 1537.17 1832.06C1535.82 1834.06 1533.95 1835.82 1531.55 1837.35C1529.09 1838.91 1526.71 1839.85 1524.4 1840.16C1522.09 1840.48 1519.97 1840.2 1518.05 1839.33C1516.13 1838.47 1514.53 1837.05 1513.25 1835.06L1521.15 1830.04Z" fill="#5988FF"/>
<path d="M1457.85 1866.66C1458.49 1867.65 1459.31 1868.24 1460.31 1868.45C1461.3 1868.66 1462.49 1868.4 1463.89 1867.65C1464.78 1867.17 1465.45 1866.67 1465.9 1866.15C1466.35 1865.64 1466.61 1865.14 1466.68 1864.63C1466.76 1864.13 1466.67 1863.64 1466.43 1863.17C1466.25 1862.78 1466 1862.47 1465.68 1862.24C1465.35 1862.03 1464.94 1861.89 1464.46 1861.83C1463.98 1861.78 1463.42 1861.81 1462.76 1861.91C1462.11 1862 1461.37 1862.18 1460.53 1862.43L1457.63 1863.27C1455.67 1863.84 1453.9 1864.15 1452.33 1864.21C1450.75 1864.27 1449.34 1864.11 1448.1 1863.71C1446.87 1863.32 1445.79 1862.71 1444.87 1861.89C1443.94 1861.07 1443.15 1860.06 1442.49 1858.86C1441.38 1856.76 1440.95 1854.72 1441.21 1852.72C1441.47 1850.72 1442.35 1848.83 1443.87 1847.04C1445.38 1845.26 1447.47 1843.65 1450.16 1842.21C1452.92 1840.73 1455.54 1839.85 1458.04 1839.56C1460.52 1839.28 1462.78 1839.68 1464.83 1840.77C1466.87 1841.87 1468.61 1843.74 1470.04 1846.39L1461.86 1850.78C1461.29 1849.83 1460.61 1849.15 1459.82 1848.72C1459.03 1848.29 1458.15 1848.12 1457.18 1848.2C1456.21 1848.28 1455.17 1848.62 1454.07 1849.21C1453.15 1849.7 1452.45 1850.23 1451.95 1850.79C1451.45 1851.35 1451.15 1851.92 1451.05 1852.49C1450.94 1853.06 1451.02 1853.61 1451.29 1854.13C1451.56 1854.61 1451.95 1854.95 1452.45 1855.15C1452.95 1855.36 1453.62 1855.42 1454.47 1855.34C1455.32 1855.27 1456.41 1855.05 1457.72 1854.67L1461.25 1853.66C1464.39 1852.76 1467.15 1852.59 1469.54 1853.14C1471.92 1853.72 1473.77 1855.24 1475.09 1857.73C1476.18 1859.74 1476.59 1861.79 1476.31 1863.88C1476.03 1865.98 1475.15 1867.98 1473.68 1869.86C1472.19 1871.75 1470.19 1873.37 1467.68 1874.71C1465.12 1876.09 1462.67 1876.85 1460.34 1876.99C1458.01 1877.14 1455.92 1876.7 1454.07 1875.69C1452.22 1874.69 1450.73 1873.15 1449.61 1871.08L1457.85 1866.66Z" fill="#5988FF"/>
<path d="M1424.98 1895.78L1416.18 1900.03L1406.14 1879.27C1404.95 1876.8 1404.5 1874.37 1404.81 1872C1405.12 1869.64 1406.08 1867.46 1407.71 1865.46C1409.34 1863.48 1411.54 1861.81 1414.32 1860.47C1417.12 1859.12 1419.8 1858.42 1422.37 1858.38C1424.94 1858.34 1427.25 1858.94 1429.29 1860.17C1431.32 1861.41 1432.94 1863.27 1434.13 1865.74L1444.17 1886.51L1435.37 1890.76L1425.7 1870.75C1425.21 1869.75 1424.56 1868.96 1423.73 1868.38C1422.91 1867.82 1422 1867.5 1421.01 1867.43C1420 1867.37 1419 1867.58 1417.99 1868.07C1416.98 1868.56 1416.19 1869.21 1415.62 1870.04C1415.06 1870.86 1414.74 1871.76 1414.67 1872.76C1414.61 1873.76 1414.82 1874.77 1415.31 1875.77L1424.98 1895.78Z" fill="#5988FF"/>
<path d="M1390.75 1872.05L1405.04 1905.11L1390.77 1911.27C1388.31 1912.33 1385.96 1912.78 1383.7 1912.61C1381.44 1912.43 1379.42 1911.69 1377.64 1910.38C1375.86 1909.07 1374.46 1907.24 1373.45 1904.89C1372.43 1902.52 1372.07 1900.25 1372.37 1898.06C1372.67 1895.87 1373.56 1893.91 1375.05 1892.15C1376.53 1890.4 1378.53 1888.98 1381.04 1887.89L1389.57 1884.21L1392.58 1891.18L1385.87 1894.09C1384.81 1894.54 1383.99 1895.11 1383.41 1895.8C1382.82 1896.5 1382.47 1897.28 1382.37 1898.14C1382.26 1899.01 1382.41 1899.91 1382.81 1900.85C1383.22 1901.79 1383.77 1902.51 1384.47 1903C1385.16 1903.51 1385.96 1903.77 1386.87 1903.8C1387.77 1903.85 1388.75 1903.64 1389.8 1903.19L1392.96 1901.82L1381.77 1875.93L1390.75 1872.05Z" fill="#5988FF"/>
<path d="M1354.55 1887.46L1367.47 1921.07L1352.96 1926.65C1350.47 1927.61 1348.1 1927.96 1345.85 1927.69C1343.6 1927.43 1341.61 1926.6 1339.89 1925.22C1338.16 1923.83 1336.84 1921.95 1335.92 1919.56C1335 1917.16 1334.73 1914.87 1335.13 1912.69C1335.51 1910.52 1336.48 1908.59 1338.04 1906.9C1339.59 1905.21 1341.65 1903.88 1344.21 1902.89L1352.87 1899.56L1355.6 1906.65L1348.77 1909.28C1347.7 1909.69 1346.86 1910.22 1346.24 1910.89C1345.63 1911.56 1345.25 1912.33 1345.11 1913.19C1344.97 1914.05 1345.08 1914.95 1345.44 1915.9C1345.81 1916.87 1346.34 1917.61 1347.01 1918.13C1347.68 1918.66 1348.47 1918.96 1349.37 1919.03C1350.27 1919.11 1351.26 1918.94 1352.33 1918.53L1355.55 1917.29L1345.43 1890.97L1354.55 1887.46Z" fill="#5988FF"/>
<path d="M1317.73 1901.35L1329.35 1935.43L1320.09 1938.59L1311.01 1911.96L1297.23 1916.66L1294.69 1909.2L1317.73 1901.35Z" fill="#5988FF"/>
<path d="M1285.1 1912.29L1295.45 1946.78L1270.59 1954.24L1268.32 1946.69L1283.82 1942.05L1282.04 1936.12L1267.82 1940.38L1265.56 1932.84L1279.77 1928.57L1278 1922.65L1262.57 1927.27L1260.3 1919.73L1285.1 1912.29Z" fill="#5988FF"/>
<path d="M1242.49 1961.98L1230.64 1964.73L1217.87 1946.76L1217.46 1946.85L1213.92 1968.61L1202.07 1971.36L1193.92 1936.29L1203.24 1934.13L1207.95 1954.4L1208.22 1954.34L1211.39 1932.52L1217.01 1931.22L1229.5 1949.55L1229.77 1949.48L1225.03 1929.07L1234.35 1926.91L1242.49 1961.98Z" fill="#5988FF"/>
<path d="M1173.54 1940.16L1183.92 1938.3L1178.56 1975.84L1165.4 1978.19L1147.36 1944.84L1157.75 1942.98L1170.1 1967.28L1170.37 1967.23L1173.54 1940.16ZM1177.98 1953.8L1158.45 1957.29L1157.16 1950.09L1176.69 1946.6L1177.98 1953.8Z" fill="#5988FF"/>
<path d="M1137.89 1946.22L1142.66 1981.91L1127.25 1983.97C1124.6 1984.33 1122.22 1984.11 1120.09 1983.33C1117.96 1982.55 1116.22 1981.29 1114.86 1979.54C1113.51 1977.8 1112.66 1975.66 1112.32 1973.12C1111.98 1970.57 1112.25 1968.28 1113.14 1966.26C1114.02 1964.23 1115.41 1962.58 1117.32 1961.3C1119.22 1960.02 1121.53 1959.19 1124.25 1958.83L1133.45 1957.6L1134.46 1965.13L1127.21 1966.1C1126.07 1966.25 1125.13 1966.58 1124.38 1967.08C1123.62 1967.59 1123.07 1968.25 1122.74 1969.05C1122.4 1969.86 1122.3 1970.76 1122.43 1971.77C1122.57 1972.8 1122.9 1973.64 1123.44 1974.3C1123.97 1974.97 1124.67 1975.45 1125.53 1975.72C1126.39 1976.01 1127.38 1976.08 1128.52 1975.93L1131.94 1975.47L1128.2 1947.52L1137.89 1946.22Z" fill="#5988FF"/>
<path d="M1081.81 1977.65C1082.01 1978.81 1082.53 1979.68 1083.37 1980.26C1084.21 1980.84 1085.41 1981.06 1086.98 1980.91C1087.99 1980.82 1088.8 1980.62 1089.42 1980.32C1090.03 1980.03 1090.47 1979.66 1090.73 1979.23C1091 1978.79 1091.11 1978.31 1091.08 1977.78C1091.06 1977.35 1090.95 1976.96 1090.74 1976.63C1090.52 1976.31 1090.2 1976.03 1089.78 1975.78C1089.36 1975.55 1088.83 1975.35 1088.19 1975.19C1087.55 1975.02 1086.8 1974.89 1085.93 1974.8L1082.93 1974.44C1080.9 1974.2 1079.15 1973.8 1077.68 1973.24C1076.2 1972.68 1074.97 1971.98 1073.99 1971.13C1073 1970.29 1072.25 1969.31 1071.72 1968.19C1071.18 1967.08 1070.85 1965.84 1070.71 1964.47C1070.5 1962.11 1070.91 1960.06 1071.93 1958.32C1072.94 1956.58 1074.5 1955.18 1076.59 1954.13C1078.67 1953.08 1081.23 1952.42 1084.26 1952.14C1087.38 1951.85 1090.14 1952.06 1092.55 1952.77C1094.95 1953.48 1096.88 1954.73 1098.34 1956.53C1099.79 1958.34 1100.65 1960.74 1100.94 1963.74L1091.7 1964.59C1091.54 1963.5 1091.18 1962.6 1090.62 1961.9C1090.06 1961.2 1089.32 1960.69 1088.4 1960.39C1087.46 1960.09 1086.38 1959.99 1085.14 1960.11C1084.1 1960.2 1083.24 1960.41 1082.57 1960.73C1081.89 1961.05 1081.39 1961.46 1081.07 1961.95C1080.75 1962.44 1080.61 1962.97 1080.65 1963.56C1080.72 1964.11 1080.94 1964.57 1081.33 1964.94C1081.71 1965.33 1082.3 1965.65 1083.11 1965.91C1083.93 1966.18 1085.01 1966.39 1086.37 1966.56L1090.01 1967C1093.25 1967.4 1095.86 1968.32 1097.84 1969.76C1099.81 1971.22 1100.92 1973.35 1101.17 1976.15C1101.39 1978.42 1100.96 1980.47 1099.9 1982.29C1098.82 1984.12 1097.23 1985.61 1095.13 1986.77C1093.03 1987.93 1090.56 1988.64 1087.72 1988.9C1084.82 1989.16 1082.28 1988.91 1080.07 1988.14C1077.87 1987.36 1076.12 1986.15 1074.81 1984.49C1073.49 1982.84 1072.72 1980.85 1072.49 1978.5L1081.81 1977.65Z" fill="#5988FF"/>
</svg>
