<svg width="182" height="180" viewBox="0 0 182 180" fill="none" xmlns="http://www.w3.org/2000/svg">
<path d="M58.8913 155.28C58.5873 156.18 58.6222 156.999 58.9959 157.737C59.361 158.471 60.1309 159.09 61.3056 159.594C62.0539 159.916 62.7066 160.088 63.2636 160.11C63.8082 160.138 64.259 160.048 64.616 159.841C64.973 159.633 65.24 159.336 65.4168 158.948C65.5724 158.634 65.641 158.318 65.6226 158.001C65.5917 157.689 65.4732 157.365 65.267 157.029C65.0571 156.701 64.7571 156.356 64.3669 155.993C63.9767 155.63 63.492 155.246 62.9129 154.843L60.9218 153.432C59.5771 152.483 58.4885 151.526 57.6561 150.561C56.8236 149.595 56.2219 148.621 55.8508 147.637C55.4759 146.662 55.3168 145.676 55.3734 144.68C55.4214 143.68 55.6596 142.67 56.088 141.648C56.8514 139.894 57.9298 138.595 59.323 137.75C60.7162 136.906 62.3584 136.513 64.2497 136.573C66.1322 136.629 68.2046 137.143 70.467 138.114C72.7903 139.112 74.6702 140.326 76.1066 141.757C77.5343 143.184 78.4204 144.817 78.7648 146.655C79.0968 148.498 78.787 150.539 77.8355 152.779L70.9439 149.82C71.2516 148.983 71.3423 148.208 71.216 147.494C71.0896 146.781 70.7574 146.138 70.2194 145.567C69.6727 144.992 68.9382 144.507 68.0158 144.111C67.2414 143.778 66.552 143.595 65.9477 143.563C65.3435 143.53 64.8336 143.625 64.4181 143.849C64.0027 144.072 63.6972 144.4 63.5017 144.831C63.3348 145.244 63.3164 145.659 63.4467 146.075C63.5646 146.497 63.8627 146.955 64.341 147.449C64.8157 147.951 65.5023 148.524 66.4009 149.168L68.8169 150.885C70.9633 152.415 72.4617 154.074 73.3122 155.861C74.1503 157.653 74.1167 159.592 73.2112 161.676C72.4914 163.377 71.4019 164.666 69.9427 165.544C68.4711 166.427 66.7686 166.876 64.835 166.891C62.8928 166.902 60.8644 166.454 58.75 165.546C56.592 164.619 54.8806 163.457 53.6157 162.058C52.3509 160.66 51.5742 159.121 51.2856 157.441C50.9846 155.765 51.2052 154.052 51.9475 152.299L58.8913 155.28Z" fill="#5988FF"/>
<path d="M21.1079 131.976L16.7251 125.406L32.2285 115.064C34.0718 113.835 35.9614 113.212 37.897 113.195C39.8196 113.176 41.67 113.706 43.4484 114.785C45.219 115.869 46.7953 117.447 48.1774 119.519C49.57 121.607 50.4268 123.676 50.7478 125.727C51.061 127.784 50.8396 129.696 50.0837 131.464C49.3147 133.229 48.0085 134.726 46.1651 135.956L30.6617 146.298L26.2789 139.728L41.2151 129.764C41.9635 129.265 42.5227 128.653 42.8929 127.928C43.2551 127.208 43.4072 126.447 43.3492 125.643C43.2859 124.831 43.0047 124.051 42.5054 123.303C42.0009 122.547 41.3888 121.987 40.6691 121.625C39.9493 121.263 39.1876 121.111 38.3839 121.169C37.5724 121.232 36.7924 121.513 36.044 122.013L21.1079 131.976Z" fill="#5988FF"/>
<path d="M39.2828 103.119L10.1938 103.45L10.051 90.8939C10.0264 88.735 10.4311 86.8411 11.2649 85.2122C12.0987 83.5832 13.2822 82.3102 14.8154 81.3931C16.3486 80.476 18.1474 80.0057 20.2117 79.9822C22.2949 79.9585 24.104 80.402 25.6391 81.3127C27.174 82.2138 28.3629 83.493 29.2057 85.1502C30.0483 86.7979 30.4822 88.7296 30.5074 90.9454L30.5927 98.4449L24.4568 98.5147L24.3896 92.606C24.379 91.678 24.209 90.8892 23.8797 90.2395C23.5407 89.5804 23.0662 89.0792 22.4562 88.7357C21.8461 88.3828 21.1291 88.211 20.3053 88.2203C19.4721 88.2298 18.7639 88.4178 18.1809 88.7843C17.5884 89.1414 17.1396 89.6532 16.8347 90.3196C16.5201 90.9766 16.3682 91.7691 16.3787 92.6971L16.4104 95.481L39.193 95.2219L39.2828 103.119Z" fill="#5988FF"/>
<path d="M40.6768 73.8384L15.8468 58.6808L22.3894 47.9632C23.5144 46.1203 24.8624 44.7299 26.4336 43.7918C28.0048 42.8537 29.6835 42.4029 31.4697 42.4393C33.2559 42.4757 35.03 43.0317 36.7921 44.1073C38.5703 45.1928 39.8682 46.5288 40.686 48.1153C41.5087 49.6937 41.8375 51.4088 41.6723 53.2607C41.512 55.1044 40.8546 56.9719 39.7 58.8633L35.7922 65.2648L30.5546 62.0675L33.6335 57.0239C34.117 56.2318 34.3916 55.473 34.4572 54.7475C34.5197 54.0091 34.3836 53.3324 34.0489 52.7176C33.7191 52.0946 33.2026 51.5685 32.4994 51.1393C31.7881 50.7051 31.0882 50.4886 30.3996 50.4898C29.7078 50.478 29.0558 50.6736 28.4437 51.0766C27.8285 51.4665 27.2791 52.0575 26.7955 52.8497L25.3449 55.226L44.7918 67.0974L40.6768 73.8384Z" fill="#5988FF"/>
<path d="M57.7379 50.0034L43.8356 24.4494L50.7731 20.6752L61.6343 40.6392L71.9657 35.0186L75.0068 40.6085L57.7379 50.0034Z" fill="#5988FF"/>
<path d="M80.7752 39.0149L81.0295 9.9251L101.995 10.1084L101.939 16.4718L88.8713 16.3575L88.8276 21.3573L100.816 21.4621L100.76 27.8255L88.772 27.7207L88.7283 32.7205L101.739 32.8343L101.684 39.1977L80.7752 39.0149Z" fill="#5988FF"/>
<path d="M142 25.8663L148.308 33.4054L140.009 49.1641L140.227 49.4256L157.204 44.0385L163.511 51.5776L141.199 70.2443L136.24 64.3176L149.14 53.5259L148.994 53.3516L132.113 59.0295L129.123 55.4561L137.779 39.7694L137.633 39.595L124.647 50.4596L119.688 44.533L142 25.8663Z" fill="#5988FF"/>
<path d="M142.764 84.4737L142.787 75.951L171.852 85.6298L171.824 96.4252L142.708 105.951L142.73 97.4282L163.827 91.1201L163.827 90.8928L142.764 84.4737ZM154.246 82.913L154.204 98.9357L148.295 98.9202L148.337 82.8975L154.246 82.913Z" fill="#5988FF"/>
<path d="M140.149 110.844L164.064 127.408L156.914 137.731C155.685 139.506 154.259 140.816 152.636 141.662C151.013 142.508 149.311 142.861 147.53 142.722C145.749 142.582 144.01 141.925 142.313 140.75C140.6 139.563 139.382 138.155 138.657 136.524C137.926 134.9 137.697 133.169 137.969 131.33C138.235 129.499 138.999 127.672 140.261 125.85L144.531 119.685L149.576 123.179L146.211 128.037C145.683 128.8 145.365 129.541 145.258 130.262C145.153 130.995 145.249 131.679 145.548 132.312C145.841 132.953 146.327 133.508 147.004 133.977C147.689 134.451 148.375 134.708 149.063 134.746C149.753 134.798 150.415 134.64 151.049 134.273C151.686 133.92 152.269 133.361 152.797 132.598L154.382 130.31L135.652 117.336L140.149 110.844Z" fill="#5988FF"/>
<path d="M115.549 158.482C115.992 159.322 116.61 159.86 117.402 160.097C118.185 160.338 119.165 160.206 120.339 159.702C121.088 159.381 121.662 159.026 122.062 158.638C122.457 158.262 122.702 157.873 122.798 157.471C122.893 157.07 122.861 156.671 122.702 156.276C122.581 155.946 122.399 155.679 122.157 155.474C121.909 155.282 121.593 155.144 121.207 155.063C120.825 154.99 120.368 154.969 119.836 155.002C119.304 155.035 118.692 155.122 118.001 155.264L115.607 155.736C113.993 156.058 112.549 156.188 111.276 156.127C110.003 156.066 108.882 155.831 107.913 155.422C106.947 155.023 106.123 154.459 105.44 153.732C104.748 153.009 104.179 152.14 103.734 151.126C102.988 149.365 102.788 147.688 103.135 146.096C103.482 144.504 104.329 143.043 105.674 141.713C107.011 140.387 108.811 139.238 111.073 138.266C113.397 137.269 115.572 136.742 117.599 136.686C119.617 136.634 121.411 137.115 122.98 138.131C124.545 139.16 125.812 140.79 126.781 143.023L119.89 145.982C119.495 145.183 118.995 144.583 118.391 144.183C117.786 143.783 117.092 143.582 116.307 143.579C115.514 143.579 114.656 143.777 113.733 144.173C112.959 144.506 112.352 144.88 111.912 145.296C111.472 145.711 111.19 146.147 111.066 146.602C110.942 147.057 110.969 147.504 111.147 147.943C111.332 148.348 111.62 148.647 112.011 148.839C112.398 149.044 112.935 149.143 113.623 149.137C114.314 149.139 115.203 149.036 116.288 148.827L119.197 148.258C121.785 147.755 124.019 147.811 125.901 148.425C127.778 149.052 129.16 150.411 130.048 152.503C130.785 154.196 130.97 155.874 130.602 157.537C130.229 159.212 129.382 160.756 128.061 162.168C126.731 163.584 125.009 164.746 122.895 165.654C120.737 166.58 118.715 167.021 116.83 166.975C114.945 166.929 113.294 166.432 111.877 165.484C110.455 164.549 109.365 163.208 108.605 161.463L115.549 158.482Z" fill="#5988FF"/>
</svg>
