<svg width="303" height="302" viewBox="0 0 303 302" fill="none" xmlns="http://www.w3.org/2000/svg">
<path d="M116.702 278.866C116.557 279.805 116.731 280.606 117.226 281.268C117.711 281.929 118.576 282.407 119.82 282.703C120.612 282.891 121.284 282.949 121.837 282.876C122.378 282.81 122.807 282.644 123.123 282.379C123.44 282.113 123.652 281.774 123.759 281.362C123.859 281.025 123.872 280.702 123.8 280.393C123.716 280.091 123.544 279.792 123.283 279.497C123.02 279.21 122.665 278.921 122.219 278.63C121.772 278.339 121.229 278.045 120.589 277.746L118.386 276.697C116.899 275.993 115.662 275.237 114.677 274.428C113.691 273.619 112.931 272.762 112.397 271.856C111.861 270.96 111.535 270.016 111.42 269.025C111.296 268.032 111.358 266.996 111.605 265.916C112.057 264.057 112.896 262.592 114.124 261.521C115.352 260.45 116.903 259.782 118.777 259.517C120.641 259.25 122.771 259.401 125.166 259.971C127.626 260.556 129.686 261.43 131.346 262.594C132.997 263.755 134.15 265.212 134.804 266.964C135.447 268.723 135.491 270.787 134.938 273.157L127.641 271.422C127.801 270.545 127.758 269.766 127.511 269.084C127.264 268.403 126.827 267.826 126.199 267.356C125.562 266.883 124.755 266.531 123.778 266.299C122.958 266.104 122.248 266.042 121.647 266.113C121.046 266.184 120.56 266.366 120.189 266.657C119.818 266.948 119.573 267.323 119.454 267.782C119.361 268.217 119.414 268.629 119.613 269.017C119.802 269.412 120.174 269.812 120.73 270.217C121.283 270.631 122.058 271.078 123.054 271.558L125.728 272.836C128.105 273.975 129.865 275.353 131.009 276.968C132.142 278.59 132.441 280.506 131.906 282.715C131.488 284.514 130.635 285.97 129.348 287.085C128.05 288.208 126.449 288.942 124.547 289.287C122.635 289.631 120.56 289.537 118.321 289.004C116.036 288.461 114.151 287.609 112.666 286.448C111.18 285.287 110.151 283.903 109.579 282.297C108.995 280.699 108.919 278.972 109.35 277.118L116.702 278.866Z" fill="#5988FF"/>
<path d="M77.7584 271.964L70.8813 268.08L80.0448 251.852C81.1344 249.923 82.5391 248.514 84.2588 247.625C85.9657 246.74 87.8561 246.378 89.93 246.537C91.9993 246.705 94.1183 247.402 96.287 248.626C98.4722 249.86 100.171 251.32 101.384 253.005C102.591 254.698 103.257 256.504 103.381 258.423C103.492 260.345 103.002 262.271 101.913 264.201L92.7494 280.429L85.8723 276.545L94.7006 260.911C95.1429 260.128 95.3656 259.329 95.3684 258.515C95.3667 257.709 95.1585 256.961 94.7438 256.27C94.321 255.575 93.7179 255.006 92.9345 254.563C92.1429 254.116 91.3442 253.894 90.5385 253.895C89.7327 253.897 88.9844 254.105 88.2935 254.52C87.5979 254.943 87.029 255.546 86.5866 256.329L77.7584 271.964Z" fill="#5988FF"/>
<path d="M79.3039 238.085L58.544 258.464L49.7475 249.504C48.235 247.963 47.2157 246.316 46.6895 244.564C46.1633 242.811 46.1359 241.073 46.6072 239.35C47.0785 237.626 48.0507 236.042 49.5239 234.595C51.0106 233.136 52.623 232.203 54.3612 231.798C56.0926 231.385 57.8361 231.485 59.5916 232.097C61.3404 232.703 62.991 233.796 64.5433 235.377L69.7973 240.729L65.4183 245.028L61.2788 240.811C60.6287 240.149 59.9599 239.698 59.2724 239.457C58.5715 239.216 57.882 239.183 57.2041 239.357C56.5195 239.525 55.8833 239.898 55.2953 240.475C54.7006 241.059 54.3199 241.684 54.153 242.353C53.9727 243.02 54.0032 243.7 54.2446 244.392C54.4725 245.084 54.9116 245.761 55.5617 246.424L57.512 248.41L73.7713 232.449L79.3039 238.085Z" fill="#5988FF"/>
<path d="M58.596 215.557L33.1228 229.607L27.0584 218.612C26.0156 216.721 25.4763 214.861 25.4406 213.032C25.4048 211.202 25.8454 209.521 26.7626 207.987C27.6797 206.454 29.0421 205.189 30.8498 204.192C32.674 203.186 34.4777 202.721 36.261 202.797C38.0396 202.865 39.6921 203.43 41.2185 204.492C42.7402 205.545 44.0362 207.042 45.1064 208.982L48.7286 215.549L43.3554 218.513L40.5015 213.339C40.0533 212.526 39.5305 211.911 38.933 211.495C38.3226 211.074 37.6674 210.857 36.9675 210.843C36.2631 210.821 35.5501 211.008 34.8287 211.406C34.099 211.809 33.564 212.309 33.2237 212.908C32.8705 213.503 32.7172 214.166 32.7637 214.897C32.7973 215.625 33.0382 216.395 33.4864 217.208L34.831 219.646L54.7817 208.642L58.596 215.557Z" fill="#5988FF"/>
<path d="M44.8584 188.161L16.6642 195.328L14.7184 187.674L36.7452 182.074L33.8475 170.676L40.015 169.108L44.8584 188.161Z" fill="#5988FF"/>
<path d="M39.0541 162.077L9.96328 162.144L9.91437 141.179L16.278 141.164L16.3085 154.232L21.3085 154.22L21.2805 142.232L27.6441 142.217L27.6721 154.205L32.6721 154.194L32.6417 141.182L39.0053 141.167L39.0541 162.077Z" fill="#5988FF"/>
<path d="M15.1751 109.406L19.1705 100.425L36.9735 100.945L37.112 100.633L24.8056 87.7583L28.801 78.7774L55.3804 90.6019L52.2395 97.6621L36.8733 90.826L36.7809 91.0336L49.3066 103.695L47.4129 107.952L29.5177 107.08L29.4253 107.288L44.8953 114.17L41.7544 121.23L15.1751 109.406Z" fill="#5988FF"/>
<path d="M65.2842 78.7638L59.4206 84.9489L44.9151 57.966L52.3423 50.1315L80.0604 63.1774L74.1968 69.3625L54.5209 59.4781L54.3645 59.643L65.2842 78.7638ZM55.8604 72.0221L66.8839 60.3941L71.1722 64.4595L60.1487 76.0875L55.8604 72.0221Z" fill="#5988FF"/>
<path d="M85.5088 59.5117L71.0868 34.2474L81.9919 28.0223C83.867 26.9519 85.7189 26.3854 87.5478 26.3227C89.3766 26.2601 91.0643 26.6761 92.6108 27.5706C94.1573 28.4651 95.4423 29.8088 96.4657 31.6016C97.4986 33.4109 97.9899 35.2077 97.9398 36.9918C97.8979 38.7713 97.3575 40.4319 96.3185 41.9736C95.2877 43.5107 93.8101 44.8285 91.8857 45.9271L85.3722 49.6452L82.3301 44.3161L87.4619 41.3866C88.2678 40.9265 88.8747 40.3947 89.2826 39.7911C89.6939 39.1747 89.9015 38.5164 89.9054 37.8164C89.9174 37.1116 89.7192 36.4015 89.3108 35.686C88.8977 34.9623 88.3893 34.4347 87.7857 34.1032C87.1857 33.7588 86.5203 33.6152 85.7897 33.6724C85.0626 33.7167 84.2961 33.9689 83.4902 34.429L81.0723 35.8093L92.3677 55.5963L85.5088 59.5117Z" fill="#5988FF"/>
<path d="M122.892 21.9989C122.588 21.099 122.063 20.4694 121.318 20.11C120.583 19.7483 119.595 19.7235 118.355 20.0356C117.566 20.2344 116.942 20.4938 116.486 20.8138C116.036 21.1223 115.732 21.4673 115.575 21.8488C115.417 22.2303 115.385 22.6288 115.48 23.0444C115.547 23.3888 115.684 23.6814 115.891 23.9222C116.105 24.1516 116.396 24.3371 116.764 24.4789C117.129 24.6115 117.577 24.7038 118.108 24.7558C118.639 24.8078 119.256 24.8183 119.962 24.7873L122.401 24.7006C124.045 24.6382 125.491 24.7381 126.738 25.0002C127.986 25.2623 129.056 25.6717 129.948 26.2284C130.838 26.7758 131.562 27.4625 132.122 28.2885C132.69 29.1121 133.114 30.0599 133.394 31.1321C133.852 32.9894 133.783 34.6764 133.189 36.1933C132.594 37.7101 131.527 39.0187 129.988 40.119C128.457 41.217 126.498 42.0665 124.111 42.6676C121.659 43.2848 119.428 43.4606 117.418 43.1952C115.417 42.9274 113.722 42.1676 112.333 40.9158C110.95 39.6526 109.957 37.8421 109.354 35.4843L116.627 33.6535C116.89 34.5051 117.289 35.1763 117.823 35.6669C118.356 36.1576 119.01 36.4666 119.784 36.5939C120.568 36.719 121.446 36.659 122.419 36.414C123.237 36.2082 123.896 35.935 124.396 35.5943C124.896 35.2535 125.243 34.8683 125.438 34.4385C125.632 34.0087 125.676 33.563 125.57 33.1016C125.452 32.6723 125.215 32.3316 124.859 32.0795C124.509 31.816 123.994 31.633 123.314 31.5308C122.632 31.4194 121.738 31.3806 120.634 31.4146L117.671 31.5158C115.037 31.6028 112.839 31.1941 111.079 30.2897C109.325 29.3739 108.175 27.8128 107.629 25.6065C107.169 23.8181 107.253 22.1321 107.88 20.5487C108.513 18.9537 109.594 17.5636 111.122 16.3783C112.658 15.1907 114.543 14.316 116.774 13.7543C119.052 13.181 121.117 13.0663 122.971 13.4101C124.825 13.7539 126.377 14.5058 127.626 15.666C128.882 16.8146 129.747 18.3107 130.22 20.1542L122.892 21.9989Z" fill="#5988FF"/>
<path d="M187.434 23.9795C187.591 23.0427 187.427 22.2397 186.941 21.5706C186.465 20.9038 185.607 20.4143 184.367 20.1022C183.577 19.9034 182.905 19.8369 182.352 19.9026C181.81 19.9614 181.379 20.1215 181.059 20.3828C180.739 20.6441 180.523 20.9803 180.41 21.3912C180.306 21.7263 180.288 22.049 180.356 22.3592C180.436 22.6625 180.605 22.9636 180.861 23.2626C181.121 23.5524 181.471 23.8458 181.914 24.1428C182.357 24.4398 182.896 24.7416 183.532 25.0481L185.721 26.1265C187.199 26.8501 188.426 27.6226 189.4 28.4441C190.375 29.2656 191.124 30.1327 191.646 31.0454C192.17 31.9488 192.483 32.8968 192.585 33.8891C192.696 34.8838 192.621 35.9195 192.36 36.9962C191.884 38.8489 191.024 40.3025 189.783 41.357C188.541 42.4115 186.981 43.059 185.104 43.2994C183.237 43.5421 181.109 43.363 178.721 42.7619C176.27 42.1447 174.221 41.2434 172.576 40.0579C170.941 38.8747 169.807 37.403 169.176 35.6426C168.557 33.8755 168.539 31.8107 169.124 29.4483L176.397 31.2791C176.226 32.1538 176.259 32.9336 176.497 33.6184C176.735 34.3033 177.164 34.885 177.786 35.3638C178.417 35.8448 179.219 36.2078 180.192 36.4529C181.01 36.6586 181.719 36.7298 182.321 36.6665C182.923 36.6031 183.411 36.4282 183.786 36.1417C184.161 35.8553 184.411 35.4836 184.536 35.0267C184.635 34.5928 184.587 34.1805 184.393 33.7897C184.21 33.3921 183.843 32.9873 183.292 32.5753C182.744 32.1541 181.975 31.6969 180.986 31.2038L178.329 29.8904C175.967 28.7198 174.225 27.3194 173.103 25.6892C171.991 24.0521 171.718 22.1327 172.282 19.9311C172.723 18.138 173.595 16.6925 174.897 15.5945C176.21 14.4896 177.82 13.7767 179.727 13.456C181.643 13.1375 183.716 13.2592 185.948 13.8209C188.225 14.3942 190.099 15.2711 191.57 16.4518C193.04 17.6324 194.05 19.0293 194.601 20.6425C195.164 22.2488 195.217 23.976 194.762 25.8242L187.434 23.9795Z" fill="#5988FF"/>
<path d="M226.283 31.3943L233.108 35.3678L223.732 51.4736C222.617 53.3886 221.194 54.7791 219.462 55.6449C217.744 56.5073 215.849 56.845 213.777 56.6579C211.71 56.4627 209.601 55.7386 207.448 54.4855C205.28 53.223 203.6 51.7412 202.41 50.0401C201.224 48.3309 200.582 46.5162 200.484 44.5961C200.398 42.6726 200.913 40.7533 202.028 38.8383L211.404 22.7325L218.23 26.7061L209.196 42.2226C208.744 43.0001 208.511 43.7958 208.497 44.6097C208.488 45.4154 208.686 46.1664 209.092 46.8627C209.506 47.5637 210.101 48.1406 210.879 48.5932C211.664 49.0506 212.46 49.2837 213.266 49.2925C214.071 49.3014 214.822 49.1031 215.519 48.6976C216.22 48.2839 216.797 47.6883 217.249 46.9108L226.283 31.3943Z" fill="#5988FF"/>
<path d="M224.291 65.249L245.317 45.145L253.995 54.2209C255.487 55.7815 256.485 57.4414 256.988 59.2008C257.491 60.9602 257.495 62.6984 257.001 64.4154C256.507 66.1323 255.514 67.7041 254.022 69.1307C252.516 70.5705 250.892 71.4818 249.149 71.8646C247.412 72.2543 245.67 72.1316 243.922 71.4963C242.182 70.8678 240.546 69.7528 239.014 68.1512L233.831 62.7303L238.267 58.4896L242.35 62.7606C242.992 63.4314 243.654 63.8916 244.339 64.1414C245.036 64.3915 245.725 64.4337 246.405 64.2681C247.092 64.1094 247.733 63.7453 248.329 63.176C248.931 62.6001 249.32 61.9792 249.496 61.3134C249.685 60.6479 249.663 59.9675 249.431 59.2725C249.212 58.5777 248.782 57.8949 248.141 57.2242L246.217 55.2119L229.749 70.9573L224.291 65.249Z" fill="#5988FF"/>
<path d="M244.701 88.048L270.357 74.3349L276.276 85.4091C277.294 87.3132 277.808 89.1802 277.82 91.0101C277.832 92.84 277.369 94.5154 276.432 96.0364C275.494 97.5575 274.116 98.8045 272.295 99.7777C270.458 100.76 268.648 101.201 266.866 101.101C265.088 101.01 263.443 100.423 261.931 99.3417C260.423 98.2685 259.147 96.7548 258.103 94.8006L254.567 88.1861L259.979 85.2935L262.764 90.5049C263.202 91.3233 263.717 91.9448 264.309 92.3693C264.913 92.7977 265.566 93.0235 266.265 93.0468C266.969 93.0785 267.685 92.9002 268.411 92.5118C269.146 92.119 269.688 91.6255 270.036 91.0314C270.397 90.4411 270.559 89.7801 270.522 89.0482C270.498 88.3201 270.267 87.5469 269.83 86.7284L268.517 84.2731L248.424 95.0132L244.701 88.048Z" fill="#5988FF"/>
<path d="M258.076 115.623L286.363 108.828L288.207 116.507L266.109 121.816L268.856 133.252L262.668 134.738L258.076 115.623Z" fill="#5988FF"/>
<path d="M263.537 141.781L292.626 142.097L292.399 163.061L286.035 162.992L286.177 149.925L281.177 149.871L281.047 161.859L274.684 161.79L274.814 149.802L269.814 149.748L269.673 162.758L263.31 162.689L263.537 141.781Z" fill="#5988FF"/>
<path d="M286.72 194.762L282.606 203.689L264.812 202.935L264.669 203.245L276.805 216.281L272.691 225.208L246.27 213.035L249.504 206.017L264.779 213.054L264.874 212.848L252.516 200.022L254.465 195.791L272.348 196.898L272.443 196.692L257.065 189.607L260.298 182.588L286.72 194.762Z" fill="#5988FF"/>
<path d="M236.212 224.742L242.156 218.634L256.305 245.806L248.775 253.542L221.231 240.132L227.176 234.025L246.72 244.167L246.878 244.005L236.212 224.742ZM245.546 231.607L234.37 243.089L230.136 238.967L241.311 227.485L245.546 231.607Z" fill="#5988FF"/>
<path d="M215.735 243.725L229.823 269.177L218.837 275.258C216.948 276.304 215.089 276.846 213.26 276.885C211.43 276.923 209.748 276.485 208.213 275.57C206.679 274.655 205.412 273.295 204.412 271.489C203.403 269.666 202.935 267.863 203.009 266.08C203.074 264.301 203.637 262.647 204.696 261.12C205.747 259.596 207.241 258.298 209.18 257.225L215.742 253.593L218.714 258.962L213.544 261.823C212.732 262.273 212.118 262.796 211.702 263.395C211.283 264.006 211.067 264.661 211.054 265.361C211.032 266.065 211.221 266.778 211.62 267.499C212.024 268.228 212.525 268.762 213.124 269.102C213.72 269.454 214.383 269.606 215.114 269.559C215.842 269.524 216.612 269.282 217.424 268.832L219.859 267.484L208.826 247.55L215.735 243.725Z" fill="#5988FF"/>
<path d="M177.861 280.743C178.154 281.647 178.67 282.283 179.41 282.652C180.141 283.024 181.128 283.062 182.372 282.766C183.164 282.577 183.791 282.326 184.251 282.012C184.705 281.71 185.013 281.369 185.176 280.989C185.339 280.61 185.376 280.212 185.287 279.795C185.224 279.45 185.091 279.155 184.887 278.912C184.676 278.68 184.387 278.49 184.022 278.344C183.658 278.206 183.211 278.108 182.681 278.049C182.151 277.99 181.534 277.972 180.828 277.993L178.389 278.048C176.743 278.089 175.299 277.97 174.055 277.691C172.811 277.413 171.747 276.989 170.862 276.421C169.98 275.862 169.264 275.166 168.716 274.332C168.158 273.501 167.746 272.548 167.481 271.472C167.047 269.609 167.138 267.923 167.753 266.414C168.367 264.905 169.452 263.611 171.005 262.531C172.55 261.453 174.52 260.63 176.915 260.06C179.375 259.475 181.608 259.329 183.614 259.621C185.612 259.915 187.296 260.697 188.669 261.967C190.035 263.248 191.004 265.071 191.576 267.437L184.279 269.172C184.027 268.317 183.638 267.64 183.111 267.143C182.583 266.645 181.934 266.328 181.161 266.19C180.379 266.055 179.5 266.103 178.524 266.335C177.704 266.53 177.042 266.795 176.537 267.129C176.032 267.463 175.68 267.844 175.48 268.271C175.28 268.698 175.23 269.143 175.33 269.606C175.442 270.037 175.675 270.381 176.028 270.637C176.374 270.905 176.886 271.095 177.565 271.206C178.246 271.327 179.139 271.377 180.244 271.358L183.207 271.296C185.842 271.243 188.034 271.681 189.783 272.608C191.525 273.547 192.654 275.123 193.17 277.337C193.607 279.131 193.501 280.816 192.854 282.391C192.199 283.977 191.1 285.353 189.557 286.518C188.005 287.685 186.109 288.535 183.87 289.067C181.585 289.611 179.518 289.698 177.669 289.33C175.82 288.962 174.278 288.189 173.045 287.013C171.804 285.848 170.959 284.341 170.509 282.491L177.861 280.743Z" fill="#5988FF"/>
</svg>
