<svg width="424" height="423" viewBox="0 0 424 423" fill="none" xmlns="http://www.w3.org/2000/svg">
<path d="M181.387 401.708C181.331 402.656 181.581 403.436 182.136 404.049C182.682 404.66 183.589 405.054 184.855 405.23C185.661 405.343 186.336 405.336 186.88 405.211C187.412 405.094 187.823 404.888 188.113 404.594C188.402 404.299 188.581 403.942 188.649 403.521C188.716 403.177 188.699 402.854 188.597 402.553C188.485 402.26 188.285 401.979 187.998 401.709C187.709 401.449 187.328 401.196 186.856 400.948C186.384 400.701 185.815 400.459 185.15 400.223L182.857 399.388C181.309 398.829 180.006 398.193 178.948 397.482C177.89 396.771 177.053 395.99 176.435 395.139C175.816 394.297 175.402 393.389 175.193 392.413C174.975 391.437 174.938 390.399 175.081 389.3C175.354 387.407 176.051 385.869 177.172 384.686C178.292 383.503 179.773 382.691 181.612 382.249C183.443 381.806 185.577 381.754 188.016 382.093C190.52 382.441 192.654 383.116 194.418 384.116C196.172 385.116 197.457 386.456 198.275 388.138C199.082 389.828 199.323 391.879 198.997 394.29L191.568 393.257C191.644 392.369 191.527 391.597 191.216 390.942C190.906 390.287 190.416 389.755 189.746 389.347C189.067 388.937 188.23 388.662 187.236 388.524C186.401 388.408 185.688 388.414 185.097 388.542C184.505 388.67 184.039 388.897 183.697 389.222C183.355 389.548 183.147 389.944 183.073 390.412C183.021 390.854 183.113 391.259 183.348 391.626C183.573 392.002 183.982 392.364 184.574 392.714C185.164 393.074 185.978 393.445 187.015 393.828L189.798 394.847C192.273 395.755 194.156 396.959 195.449 398.458C196.73 399.965 197.21 401.844 196.888 404.093C196.643 405.924 195.932 407.455 194.757 408.687C193.571 409.928 192.048 410.811 190.187 411.336C188.316 411.86 186.242 411.963 183.962 411.646C181.636 411.322 179.679 410.653 178.089 409.639C176.5 408.624 175.344 407.345 174.622 405.8C173.889 404.264 173.649 402.553 173.902 400.666L181.387 401.708Z" fill="#5988FF"/>
<path d="M143.448 401.259L135.961 398.746L141.89 381.078C142.596 378.977 143.708 377.328 145.229 376.131C146.738 374.939 148.526 374.225 150.592 373.99C152.656 373.764 154.869 374.047 157.23 374.839C159.609 375.638 161.553 376.75 163.062 378.175C164.569 379.61 165.564 381.257 166.048 383.118C166.52 384.985 166.404 386.968 165.699 389.069L159.769 406.737L152.282 404.224L157.995 387.202C158.281 386.35 158.349 385.523 158.197 384.723C158.043 383.932 157.697 383.237 157.16 382.637C156.613 382.034 155.913 381.589 155.06 381.303C154.198 381.014 153.372 380.946 152.581 381.1C151.79 381.254 151.095 381.6 150.495 382.138C149.892 382.685 149.447 383.385 149.161 384.238L143.448 401.259Z" fill="#5988FF"/>
<path d="M137.987 367.88L123.8 393.277L112.838 387.154C110.953 386.101 109.511 384.808 108.513 383.274C107.515 381.74 107 380.08 106.967 378.294C106.934 376.507 107.421 374.713 108.428 372.911C109.444 371.092 110.729 369.744 112.283 368.865C113.828 367.982 115.529 367.587 117.386 367.681C119.235 367.77 121.126 368.354 123.061 369.435L129.608 373.093L126.616 378.45L121.457 375.568C120.647 375.116 119.878 374.87 119.151 374.833C118.41 374.799 117.739 374.961 117.138 375.319C116.528 375.673 116.022 376.209 115.621 376.929C115.214 377.656 115.025 378.364 115.053 379.052C115.068 379.744 115.288 380.388 115.715 380.984C116.128 381.584 116.74 382.11 117.55 382.562L119.981 383.92L131.092 364.029L137.987 367.88Z" fill="#5988FF"/>
<path d="M111.224 352.124L92.7204 374.571L83.0312 366.584C81.3652 365.211 80.1784 363.68 79.471 361.993C78.7636 360.305 78.5538 358.58 78.8414 356.816C79.129 355.053 79.9294 353.375 81.2425 351.782C82.5677 350.175 84.0732 349.078 85.7591 348.492C87.4376 347.899 89.1819 347.816 90.992 348.24C92.7948 348.658 94.5511 349.572 96.261 350.982L102.048 355.752L98.145 360.487L93.5854 356.729C92.8693 356.138 92.1568 355.76 91.4478 355.592C90.7255 355.427 90.0364 355.466 89.3805 355.711C88.7173 355.95 88.1237 356.387 87.5997 357.023C87.0696 357.666 86.7567 358.328 86.6609 359.01C86.5518 359.693 86.6536 360.366 86.9663 361.029C87.2657 361.693 87.7735 362.32 88.4896 362.91L90.6379 364.681L105.13 347.1L111.224 352.124Z" fill="#5988FF"/>
<path d="M87.7656 331.708L65.7548 350.729L60.5909 344.754L77.7868 329.893L70.0965 320.994L74.9114 316.833L87.7656 331.708Z" fill="#5988FF"/>
<path d="M70.4479 310.809L45.6406 326.003L34.6898 308.125L40.1164 304.801L46.9421 315.945L51.2058 313.333L44.944 303.11L50.3706 299.786L56.6325 310.009L60.8962 307.398L54.1002 296.302L59.5268 292.978L70.4479 310.809Z" fill="#5988FF"/>
<path d="M22.3719 282.17L19.7391 272.699L33.8033 261.772L33.712 261.443L16.0257 259.342L13.3929 249.872L41.4208 242.08L43.4906 249.525L27.2869 254.03L27.3478 254.249L45.0674 256.045L46.3154 260.534L31.9561 271.249L32.017 271.468L48.3301 266.933L50.3999 274.378L22.3719 282.17Z" fill="#5988FF"/>
<path d="M40.0005 226.223L40.394 234.736L10.8907 226.487L10.3923 215.703L39.0088 204.768L39.4023 213.282L18.6391 220.612L18.6496 220.839L40.0005 226.223ZM28.6089 228.342L27.8691 212.336L33.7719 212.063L34.5117 228.069L28.6089 228.342Z" fill="#5988FF"/>
<path d="M39.6818 197.803L10.9082 193.518L12.758 181.098C13.0761 178.962 13.7759 177.156 14.8574 175.68C15.9389 174.204 17.3093 173.135 18.9685 172.472C20.6278 171.81 22.4783 171.631 24.5202 171.935C26.5808 172.242 28.2967 172.967 29.668 174.109C31.0407 175.242 32.0117 176.694 32.5811 178.464C33.1518 180.224 33.274 182.2 32.9475 184.392L31.8427 191.81L25.7733 190.906L26.6438 185.061C26.7805 184.144 26.7377 183.338 26.5155 182.644C26.2854 181.94 25.8964 181.369 25.3485 180.934C24.8021 180.488 24.1214 180.205 23.3065 180.084C22.4823 179.961 21.7533 180.034 21.1196 180.304C20.4779 180.562 19.9537 180.997 19.5469 181.606C19.1322 182.205 18.8565 182.963 18.7198 183.881L18.3097 186.635L40.8452 189.991L39.6818 197.803Z" fill="#5988FF"/>
<path d="M31.066 145.91C30.1451 145.677 29.3314 145.775 28.6251 146.205C27.9218 146.626 27.3643 147.442 26.9527 148.652C26.6905 149.423 26.5696 150.087 26.5902 150.645C26.6049 151.19 26.7294 151.632 26.9639 151.972C27.1985 152.312 27.5159 152.555 27.9163 152.701C28.2419 152.832 28.5621 152.876 28.8768 152.833C29.1856 152.777 29.4994 152.634 29.8182 152.403C30.1281 152.168 30.449 151.842 30.7809 151.425C31.1129 151.007 31.4574 150.494 31.8145 149.886L33.067 147.791C33.9081 146.377 34.7776 145.217 35.6755 144.312C36.5734 143.407 37.4983 142.732 38.4503 142.285C39.3934 141.836 40.3636 141.601 41.3609 141.58C42.3613 141.55 43.3875 141.709 44.4395 142.057C46.2475 142.681 47.6266 143.656 48.5768 144.979C49.5271 146.302 50.0458 147.909 50.1332 149.799C50.2236 151.681 49.8724 153.787 49.0796 156.118C48.2655 158.511 47.2009 160.48 45.8859 162.023C44.5739 163.557 43.015 164.568 41.2093 165.054C39.3977 165.528 37.3383 165.378 35.0311 164.603L37.446 157.502C38.304 157.744 39.0839 157.774 39.7858 157.593C40.4876 157.411 41.1023 157.03 41.6299 156.45C42.1606 155.86 42.5875 155.09 42.9107 154.14C43.1821 153.342 43.3106 152.64 43.2963 152.035C43.282 151.43 43.1473 150.929 42.8922 150.532C42.6371 150.136 42.2869 149.856 41.8417 149.695C41.4172 149.561 41.0024 149.575 40.5971 149.737C40.186 149.887 39.7527 150.22 39.2974 150.735C38.8331 151.247 38.3151 151.976 37.7434 152.922L36.2186 155.464C34.8603 157.723 33.3232 159.346 31.6072 160.333C29.8854 161.307 27.9501 161.424 25.8015 160.684C24.0502 160.098 22.6802 159.112 21.6914 157.726C20.6967 156.327 20.1168 154.664 19.9518 152.738C19.7899 150.802 20.0794 148.745 20.8204 146.567C21.5765 144.343 22.6026 142.547 23.8986 141.177C25.1947 139.807 26.669 138.913 28.3216 138.495C29.9682 138.065 31.6941 138.152 33.4992 138.756L31.066 145.91Z" fill="#5988FF"/>
<path d="M61.6853 91.4268C60.8877 90.9108 60.0854 90.7433 59.2786 90.9242C58.4775 91.0975 57.688 91.6915 56.9102 92.7061C56.4148 93.3525 56.0875 93.9428 55.9284 94.4771C55.7676 94.9982 55.7439 95.4573 55.8571 95.8543C55.9704 96.2513 56.1932 96.5833 56.5256 96.85C56.7922 97.0782 57.0814 97.2224 57.3933 97.2825C57.7034 97.3293 58.0466 97.2941 58.4229 97.1769C58.7916 97.0538 59.2001 96.8479 59.6482 96.559C60.0963 96.2702 60.5871 95.8947 61.1204 95.4325L62.9781 93.8497C64.228 92.7794 65.4233 91.9596 66.5638 91.3901C67.7044 90.8207 68.7971 90.4771 69.8419 90.3593C70.8793 90.2357 71.8737 90.3239 72.8251 90.6237C73.7823 90.916 74.7034 91.3954 75.5885 92.062C77.1009 93.2333 78.0951 94.598 78.5711 96.1561C79.0471 97.7142 79.0237 99.4025 78.5007 101.221C77.9835 103.032 76.9759 104.914 75.478 106.868C73.9397 108.875 72.3005 110.399 70.5602 111.439C68.8258 112.472 67.0254 112.929 65.1591 112.811C63.2911 112.68 61.3884 111.877 59.4512 110.404L64.0142 104.452C64.7494 104.956 65.4785 105.235 66.2015 105.288C66.9245 105.341 67.6289 105.177 68.3148 104.796C69.0064 104.407 69.6576 103.815 70.2683 103.018C70.781 102.349 71.1276 101.726 71.3079 101.148C71.4882 100.57 71.5211 100.053 71.4066 99.595C71.2921 99.1373 71.0499 98.7607 70.6799 98.4651C70.3209 98.2019 69.9234 98.0822 69.4876 98.106C69.0499 98.1165 68.5329 98.2929 67.9365 98.6351C67.3325 98.9716 66.6082 99.4962 65.7635 100.209L63.5045 102.128C61.494 103.833 59.518 104.877 57.5763 105.262C55.6329 105.634 53.7622 105.124 51.9642 103.734C50.493 102.618 49.5112 101.245 49.0188 99.6149C48.5248 97.9713 48.5083 96.2106 48.9694 94.3328C49.4362 92.4475 50.3696 90.5917 51.7696 88.7654C53.1984 86.9016 54.7461 85.5286 56.4127 84.6465C58.0793 83.7643 59.7623 83.39 61.4618 83.5235C63.1595 83.6436 64.7665 84.279 66.2829 85.4295L61.6853 91.4268Z" fill="#5988FF"/>
<path d="M80.7889 58.6456L86.6679 53.372L99.112 67.2449C100.592 68.8945 101.477 70.676 101.769 72.5897C102.062 74.4899 101.8 76.397 100.986 78.3109C100.165 80.2177 98.8272 82.0027 96.9732 83.6657C95.1052 85.3413 93.1789 86.4841 91.1943 87.0938C89.2035 87.6966 87.2793 87.7497 85.4219 87.2532C83.5652 86.7433 81.8971 85.6636 80.4174 84.0141L67.9733 70.1412L73.8524 64.8676L85.8412 78.233C86.4419 78.9027 87.1274 79.3691 87.8978 79.6322C88.6617 79.8883 89.4373 79.9304 90.2246 79.7585C91.0188 79.5804 91.7508 79.1909 92.4205 78.5902C93.0972 77.9832 93.5636 77.2977 93.8197 76.5337C94.0758 75.7697 94.1179 74.9941 93.946 74.2069C93.7678 73.4126 93.3784 72.6806 92.7777 72.011L80.7889 58.6456Z" fill="#5988FF"/>
<path d="M112.518 70.3592L97.4233 45.4912L108.157 38.9755C110.003 37.8552 111.839 37.2391 113.666 37.1274C115.492 37.0157 117.19 37.3862 118.76 38.2389C120.33 39.0916 121.651 40.4003 122.722 42.165C123.803 43.9459 124.343 45.7288 124.34 47.5137C124.346 49.2936 123.851 50.9681 122.853 52.5372C121.864 54.1014 120.422 55.4584 118.528 56.6082L112.117 60.4999L108.933 55.2543L113.984 52.1882C114.777 51.7066 115.37 51.1587 115.761 50.5444C116.156 49.9171 116.346 49.2535 116.331 48.5536C116.324 47.8488 116.107 47.1443 115.679 46.44C115.247 45.7276 114.725 45.2139 114.112 44.8987C113.503 44.5705 112.834 44.4449 112.106 44.5217C111.38 44.5855 110.62 44.8582 109.827 45.3397L107.447 46.7844L119.27 66.2611L112.518 70.3592Z" fill="#5988FF"/>
<path d="M139.425 54.8499L129.025 27.6814L140.752 23.1924C142.768 22.4206 144.685 22.1432 146.502 22.3603C148.319 22.5773 149.924 23.2458 151.316 24.3658C152.707 25.4857 153.772 27.0097 154.51 28.9377C155.255 30.8833 155.467 32.734 155.145 34.4896C154.832 36.2418 154.045 37.8006 152.783 39.1658C151.53 40.5277 149.868 41.6047 147.799 42.3968L140.795 45.078L138.601 39.3472L144.119 37.2347C144.986 36.903 145.667 36.4699 146.162 35.9357C146.663 35.3892 146.968 34.7703 147.079 34.079C147.198 33.3843 147.111 32.6523 146.816 31.8829C146.518 31.1046 146.096 30.5057 145.55 30.086C145.01 29.6541 144.374 29.4107 143.644 29.3558C142.918 29.2887 142.122 29.421 141.256 29.7528L138.655 30.7481L146.8 52.0265L139.425 54.8499Z" fill="#5988FF"/>
<path d="M168.756 44.5132L163.066 15.9841L170.811 14.4394L175.256 36.7278L186.79 34.4275L188.035 40.6682L168.756 44.5132Z" fill="#5988FF"/>
<path d="M195.478 39.758L194.496 10.6837L215.45 9.97632L215.665 16.3363L202.604 16.7772L202.773 21.7744L214.755 21.3699L214.969 27.7299L202.988 28.1344L203.156 33.1316L216.16 32.6926L216.375 39.0526L195.478 39.758Z" fill="#5988FF"/>
<path d="M244.104 12.0626L253.64 14.4435L256.209 32.0679L256.54 32.1504L267.091 17.8016L276.628 20.1825L269.581 48.4071L262.084 46.5354L266.158 30.2181L265.938 30.163L255.634 44.6909L251.114 43.5624L248.876 25.7863L248.655 25.7313L244.554 42.1589L237.057 40.2872L244.104 12.0626Z" fill="#5988FF"/>
<path d="M284.076 54.9936L276.476 51.1366L298.204 29.5408L307.831 34.4263L303.229 64.7133L295.629 60.8563L299.493 39.179L299.291 39.0761L284.076 54.9936ZM287.852 44.039L302.14 51.2901L299.466 56.5595L285.178 49.3083L287.852 44.039Z" fill="#5988FF"/>
<path d="M308.956 68.734L326.876 45.818L336.767 53.5531C338.468 54.8831 339.694 56.3826 340.444 58.0514C341.195 59.7203 341.449 61.4398 341.207 63.2099C340.965 64.98 340.208 66.6782 338.936 68.3044C337.653 69.9455 336.176 71.0807 334.506 71.71C332.843 72.3452 331.102 72.4739 329.281 72.0962C327.468 71.7244 325.689 70.8559 323.943 69.4909L318.035 64.8709L321.815 60.037L326.47 63.6771C327.201 64.2487 327.923 64.609 328.636 64.7579C329.363 64.9051 330.051 64.848 330.7 64.5864C331.357 64.3306 331.939 63.8783 332.446 63.2293C332.96 62.5728 333.255 61.9025 333.334 61.2184C333.425 60.5326 333.306 59.8624 332.976 59.2079C332.66 58.5518 332.136 57.9379 331.405 57.3662L329.212 55.6512L315.177 73.5991L308.956 68.734Z" fill="#5988FF"/>
<path d="M358.347 86.8354C359.004 86.1494 359.319 85.3931 359.294 84.5665C359.275 83.7471 358.84 82.8599 357.99 81.9048C357.449 81.2964 356.931 80.8637 356.436 80.6068C355.955 80.3507 355.508 80.2408 355.097 80.2772C354.686 80.3136 354.318 80.4699 353.993 80.7461C353.719 80.9648 353.523 81.2217 353.405 81.5167C353.3 81.8124 353.27 82.1561 353.314 82.5477C353.366 82.933 353.491 83.373 353.69 83.8675C353.889 84.3621 354.166 84.9148 354.519 85.5257L355.724 87.6484C356.539 89.0776 357.119 90.406 357.463 91.6334C357.807 92.8608 357.939 93.9987 357.858 95.0471C357.783 96.0891 357.51 97.049 357.036 97.9269C356.568 98.8119 355.924 99.6262 355.102 100.37C353.667 101.634 352.139 102.353 350.52 102.527C348.9 102.701 347.246 102.36 345.559 101.503C343.878 100.654 342.219 99.3099 340.582 97.4705C338.901 95.5816 337.714 93.6846 337.02 91.7795C336.333 89.8814 336.223 88.0271 336.691 86.2166C337.172 84.4068 338.318 82.6894 340.13 81.0646L345.116 86.6676C344.482 87.2947 344.071 87.9582 343.883 88.6583C343.695 89.3583 343.723 90.081 343.968 90.8264C344.219 91.5788 344.678 92.33 345.346 93.0799C345.906 93.7095 346.453 94.1674 346.986 94.4533C347.519 94.7393 348.021 94.8692 348.493 94.843C348.964 94.8168 349.379 94.6499 349.739 94.3422C350.065 94.0393 350.258 93.6715 350.317 93.239C350.389 92.8072 350.313 92.2662 350.089 91.6159C349.873 90.9594 349.494 90.1492 348.953 89.1853L347.494 86.605C346.199 84.3094 345.546 82.1718 345.534 80.1924C345.535 78.2138 346.388 76.4726 348.092 74.9689C349.465 73.7344 350.999 73.0289 352.693 72.8527C354.4 72.6773 356.132 72.9929 357.889 73.7997C359.653 74.6135 361.299 75.88 362.829 77.5991C364.39 79.3536 365.447 81.1323 365.999 82.9352C366.551 84.7382 366.602 86.4616 366.15 88.1055C365.712 89.7501 364.786 91.2086 363.37 92.4809L358.347 86.8354Z" fill="#5988FF"/>
<path d="M390.637 140.345C391.48 139.906 392.021 139.291 392.262 138.5C392.506 137.717 392.379 136.737 391.88 135.56C391.562 134.811 391.21 134.235 390.823 133.833C390.45 133.436 390.062 133.189 389.661 133.092C389.259 132.994 388.861 133.024 388.465 133.182C388.135 133.301 387.867 133.482 387.661 133.723C387.467 133.97 387.328 134.286 387.245 134.671C387.17 135.053 387.147 135.509 387.178 136.042C387.208 136.574 387.293 137.186 387.432 137.878L387.892 140.275C388.207 141.89 388.33 143.334 388.263 144.607C388.196 145.88 387.956 147 387.543 147.967C387.139 148.93 386.571 149.752 385.841 150.432C385.115 151.12 384.244 151.685 383.227 152.126C381.462 152.864 379.785 153.056 378.195 152.701C376.604 152.347 375.147 151.494 373.823 150.142C372.503 148.799 371.363 146.994 370.402 144.727C369.415 142.399 368.898 140.221 368.851 138.194C368.808 136.176 369.299 134.384 370.322 132.819C371.358 131.259 372.994 130 375.231 129.041L378.158 135.946C377.357 136.337 376.755 136.834 376.352 137.437C375.95 138.04 375.745 138.733 375.738 139.518C375.735 140.311 375.929 141.17 376.321 142.094C376.65 142.87 377.021 143.479 377.435 143.921C377.848 144.363 378.282 144.647 378.737 144.773C379.191 144.899 379.639 144.874 380.078 144.698C380.484 144.515 380.785 144.229 380.979 143.838C381.185 143.452 381.287 142.915 381.284 142.228C381.289 141.536 381.19 140.647 380.986 139.561L380.431 136.649C379.94 134.06 380.006 131.825 380.629 129.947C381.264 128.073 382.63 126.697 384.726 125.818C386.423 125.089 388.101 124.912 389.762 125.288C391.436 125.669 392.975 126.523 394.382 127.85C395.791 129.186 396.945 130.914 397.843 133.032C398.76 135.195 399.191 137.218 399.136 139.103C399.081 140.988 398.577 142.637 397.623 144.049C396.681 145.467 395.335 146.551 393.587 147.303L390.637 140.345Z" fill="#5988FF"/>
<path d="M409.731 173.132L411.419 180.847L393.213 184.829C391.048 185.303 389.061 185.195 387.253 184.505C385.456 183.822 383.925 182.654 382.662 181.001C381.409 179.346 380.516 177.302 379.984 174.869C379.447 172.418 379.403 170.179 379.852 168.151C380.31 166.122 381.212 164.422 382.56 163.051C383.92 161.688 385.682 160.769 387.847 160.296L406.052 156.314L407.74 164.029L390.2 167.865C389.321 168.058 388.578 168.424 387.969 168.964C387.369 169.503 386.95 170.156 386.711 170.926C386.474 171.705 386.452 172.534 386.644 173.412C386.839 174.301 387.205 175.044 387.743 175.644C388.281 176.244 388.935 176.663 389.705 176.902C390.484 177.138 391.312 177.161 392.191 176.968L409.731 173.132Z" fill="#5988FF"/>
<path d="M383.891 194.955L412.969 194.09L413.343 206.642C413.407 208.8 413.037 210.701 412.233 212.345C411.43 213.989 410.27 215.283 408.754 216.228C407.238 217.174 405.448 217.677 403.384 217.738C401.302 217.8 399.485 217.39 397.933 216.508C396.382 215.635 395.17 214.378 394.297 212.736C393.424 211.104 392.955 209.181 392.889 206.966L392.666 199.469L398.799 199.287L398.975 205.193C399.003 206.121 399.187 206.906 399.528 207.55C399.879 208.203 400.363 208.695 400.979 209.027C401.596 209.369 402.316 209.528 403.139 209.503C403.972 209.478 404.677 209.277 405.253 208.9C405.839 208.532 406.278 208.012 406.571 207.341C406.873 206.678 407.011 205.883 406.983 204.955L406.9 202.172L384.126 202.85L383.891 194.955Z" fill="#5988FF"/>
<path d="M384.111 226.011L412.874 230.365L410.995 242.781C410.671 244.915 409.967 246.719 408.882 248.193C407.797 249.666 406.424 250.732 404.764 251.391C403.103 252.049 401.252 252.224 399.211 251.915C397.151 251.603 395.436 250.874 394.068 249.729C392.698 248.592 391.73 247.138 391.165 245.367C390.599 243.605 390.481 241.629 390.813 239.438L391.936 232.023L398.003 232.941L397.118 238.784C396.979 239.701 397.02 240.507 397.241 241.201C397.469 241.906 397.857 242.477 398.404 242.915C398.949 243.361 399.629 243.646 400.444 243.769C401.268 243.894 401.997 243.822 402.631 243.554C403.273 243.297 403.799 242.864 404.207 242.256C404.623 241.658 404.901 240.9 405.039 239.983L405.456 237.23L382.929 233.82L384.111 226.011Z" fill="#5988FF"/>
<path d="M378.636 256.624L406.26 265.747L403.783 273.246L382.202 266.119L378.514 277.287L372.471 275.292L378.636 256.624Z" fill="#5988FF"/>
<path d="M369.592 282.215L395.368 295.702L385.647 314.278L380.009 311.328L386.068 299.749L381.637 297.431L376.079 308.053L370.441 305.103L375.999 294.481L371.569 292.163L365.537 303.691L359.898 300.741L369.592 282.215Z" fill="#5988FF"/>
<path d="M369.699 338.175L362.924 345.297L346.326 338.838L346.091 339.085L353.368 355.341L346.593 362.462L325.517 342.411L330.843 336.813L343.028 348.405L343.184 348.24L335.629 332.112L338.84 328.736L355.407 335.557L355.564 335.393L343.297 323.722L348.623 318.124L369.699 338.175Z" fill="#5988FF"/>
<path d="M312.637 351.771L319.741 347.062L327.81 376.615L318.812 382.58L294.735 363.637L301.839 358.928L318.79 372.983L318.979 372.857L312.637 351.771ZM320.304 360.459L306.949 369.311L303.684 364.386L317.04 355.533L320.304 360.459Z" fill="#5988FF"/>
<path d="M288.413 366.636L299.508 393.528L287.9 398.317C285.904 399.14 283.995 399.467 282.173 399.297C280.352 399.127 278.73 398.5 277.31 397.416C275.89 396.332 274.786 394.836 273.998 392.928C273.204 391.002 272.945 389.157 273.221 387.394C273.489 385.634 274.236 384.056 275.462 382.658C276.68 381.265 278.313 380.145 280.361 379.3L287.295 376.44L289.635 382.112L284.173 384.366C283.315 384.72 282.645 385.17 282.164 385.717C281.678 386.276 281.388 386.903 281.295 387.597C281.194 388.294 281.3 389.024 281.614 389.785C281.932 390.556 282.369 391.144 282.926 391.549C283.477 391.967 284.119 392.194 284.851 392.23C285.578 392.278 286.37 392.126 287.228 391.772L289.802 390.71L281.112 369.648L288.413 366.636Z" fill="#5988FF"/>
<path d="M248.305 400.672C248.578 401.582 249.08 402.23 249.812 402.615C250.534 403.002 251.52 403.062 252.77 402.794C253.566 402.623 254.198 402.386 254.666 402.082C255.126 401.79 255.442 401.456 255.613 401.08C255.784 400.704 255.83 400.307 255.75 399.888C255.695 399.542 255.568 399.245 255.37 398.997C255.164 398.76 254.88 398.564 254.517 398.409C254.157 398.264 253.712 398.156 253.184 398.085C252.655 398.015 252.038 397.982 251.333 397.989L248.892 397.989C247.246 397.994 245.805 397.843 244.567 397.537C243.33 397.231 242.275 396.784 241.403 396.196C240.533 395.618 239.833 394.906 239.303 394.061C238.764 393.218 238.374 392.255 238.132 391.174C237.74 389.302 237.868 387.618 238.516 386.123C239.164 384.628 240.276 383.358 241.853 382.313C243.421 381.269 245.409 380.49 247.816 379.973C250.288 379.443 252.524 379.346 254.524 379.682C256.514 380.02 258.181 380.839 259.525 382.139C260.862 383.45 261.791 385.295 262.31 387.672L254.977 389.245C254.744 388.385 254.37 387.7 253.854 387.191C253.338 386.682 252.695 386.35 251.926 386.195C251.147 386.043 250.267 386.072 249.286 386.282C248.462 386.459 247.794 386.709 247.282 387.032C246.77 387.355 246.41 387.728 246.2 388.15C245.99 388.573 245.931 389.017 246.021 389.482C246.123 389.915 246.348 390.264 246.696 390.528C247.036 390.804 247.544 391.005 248.22 391.131C248.898 391.266 249.789 391.337 250.894 391.342L253.859 391.345C256.494 391.351 258.676 391.837 260.404 392.803C262.124 393.78 263.218 395.38 263.686 397.605C264.083 399.408 263.94 401.09 263.258 402.651C262.568 404.222 261.439 405.573 259.871 406.704C258.293 407.837 256.379 408.644 254.129 409.127C251.833 409.62 249.764 409.662 247.923 409.253C246.083 408.844 244.559 408.037 243.351 406.834C242.137 405.642 241.325 404.116 240.917 402.257L248.305 400.672Z" fill="#5988FF"/>
</svg>
