<svg width="799" height="797" viewBox="0 0 799 797" fill="none" xmlns="http://www.w3.org/2000/svg">
<path d="M14.0721 443.598C12.9207 443.842 12.0699 444.396 11.5196 445.258C10.9679 446.11 10.7941 447.319 10.9982 448.888C11.1283 449.887 11.3571 450.69 11.6846 451.297C11.9989 451.894 12.3794 452.317 12.8259 452.566C13.2725 452.815 13.7583 452.912 14.2834 452.855C14.7169 452.823 15.0969 452.697 15.4233 452.477C15.7365 452.248 16.007 451.917 16.2348 451.486C16.451 451.056 16.6296 450.519 16.7705 449.875C16.9114 449.231 17.0139 448.473 17.0781 447.602L17.3253 444.594C17.4871 442.565 17.8197 440.803 18.3232 439.308C18.8267 437.813 19.4856 436.558 20.3 435.543C21.1027 434.529 22.0528 433.739 23.1502 433.171C24.2462 432.592 25.474 432.208 26.8338 432.02C29.1857 431.726 31.2516 432.055 33.0318 433.005C34.8119 433.955 36.2673 435.456 37.398 437.506C38.5271 439.545 39.2883 442.074 39.6815 445.095C40.0852 448.196 39.978 450.962 39.3598 453.393C38.74 455.813 37.5592 457.785 35.8174 459.31C34.0625 460.826 31.6906 461.783 28.7019 462.183L27.5042 452.983C28.5903 452.783 29.474 452.39 30.1551 451.806C30.8362 451.221 31.3113 450.463 31.5803 449.53C31.8479 448.586 31.9015 447.498 31.7412 446.267C31.6066 445.233 31.3659 444.384 31.0192 443.72C30.6725 443.057 30.2488 442.574 29.7482 442.273C29.2475 441.972 28.7056 441.853 28.1223 441.917C27.577 441.999 27.1233 442.241 26.7615 442.643C26.3865 443.034 26.0867 443.64 25.8623 444.46C25.6262 445.282 25.4489 446.374 25.3304 447.736L25.0252 451.391C24.7501 454.639 23.9284 457.28 22.5602 459.312C21.1788 461.334 19.0911 462.52 16.2972 462.871C14.0299 463.177 11.9674 462.83 10.1099 461.831C8.23923 460.822 6.68545 459.293 5.44858 457.244C4.21019 455.184 3.40725 452.743 3.03977 449.92C2.66473 447.039 2.82321 444.485 3.51521 442.257C4.20721 440.029 5.35756 438.232 6.96627 436.866C8.56183 435.489 10.5282 434.644 12.8653 434.329L14.0721 443.598Z" fill="#5988FF"/>
<path d="M0.1833 400.43L0 390.663L23.0866 390.231C25.8316 390.18 28.2194 390.791 30.25 392.065C32.2687 393.328 33.8454 395.114 34.9801 397.425C36.1031 399.735 36.6935 402.431 36.7513 405.511C36.8095 408.614 36.3209 411.342 35.2854 413.693C34.2382 416.044 32.7296 417.888 30.7597 419.225C28.7779 420.551 26.4145 421.24 23.6694 421.291L0.582869 421.723L0.399568 411.955L22.6415 411.539C23.7559 411.518 24.7485 411.254 25.619 410.745C26.4779 410.237 27.1456 409.545 27.622 408.669C28.0982 407.781 28.3259 406.781 28.305 405.669C28.2839 404.544 28.0189 403.554 27.5099 402.696C27.0009 401.839 26.3078 401.172 25.4305 400.696C24.5414 400.221 23.5397 399.994 22.4252 400.014L0.1833 400.43Z" fill="#5988FF"/>
<path d="M36.4724 379.718L0.580216 376.419L2.00616 360.952C2.25135 358.293 2.99165 356.014 4.22707 354.116C5.46249 352.218 7.08349 350.802 9.09009 349.869C11.0967 348.936 13.3735 348.586 15.9205 348.82C18.4909 349.057 20.664 349.833 22.4397 351.149C24.2164 352.453 25.5184 354.178 26.3456 356.325C27.1739 358.459 27.4622 360.892 27.2106 363.621L26.3589 372.86L18.7879 372.164L19.4589 364.885C19.5643 363.742 19.4555 362.75 19.1324 361.908C18.7988 361.054 18.278 360.377 17.57 359.877C16.8631 359.365 16.0014 359.062 14.985 358.969C13.9568 358.874 13.0601 359.015 12.2948 359.392C11.519 359.756 10.9006 360.328 10.4398 361.11C9.96835 361.878 9.67993 362.834 9.57455 363.977L9.25839 367.406L37.3692 369.989L36.4724 379.718Z" fill="#5988FF"/>
<path d="M40.5826 341.055L5.24974 333.943L8.32461 318.717C8.85332 316.099 9.83352 313.912 11.2652 312.157C12.6969 310.402 14.4602 309.167 16.5553 308.454C18.6504 307.74 20.9516 307.636 23.4589 308.141C25.9893 308.65 28.0667 309.654 29.6912 311.152C31.318 312.638 32.4277 314.493 33.0202 316.715C33.615 318.926 33.6411 321.375 33.0985 324.062L31.2619 333.156L23.8089 331.656L25.2559 324.491C25.4831 323.366 25.4812 322.367 25.2502 321.496C25.01 320.612 24.5647 319.883 23.9144 319.31C23.2664 318.725 22.4421 318.332 21.4415 318.131C20.4293 317.927 19.5226 317.972 18.7214 318.264C17.911 318.543 17.2349 319.047 16.693 319.774C16.1419 320.488 15.7528 321.407 15.5255 322.532L14.8438 325.908L42.5166 331.479L40.5826 341.055Z" fill="#5988FF"/>
<path d="M48.9094 303.037L14.4692 292.423L17.3555 283.088L44.2619 291.381L48.5603 277.479L56.0941 279.801L48.9094 303.037Z" fill="#5988FF"/>
<path d="M59.3679 270.684L26.1209 256.785L36.1539 232.863L43.4267 235.903L37.1731 250.814L42.8874 253.203L48.6244 239.524L55.8972 242.564L50.1602 256.243L55.8745 258.632L62.101 243.786L69.3738 246.826L59.3679 270.684Z" fill="#5988FF"/>
<path d="M50.3935 204.013L56.8866 193.726L78.6249 197.517L78.8501 197.16L66.0445 179.217L72.5376 168.931L103.032 188.116L97.9272 196.203L80.2978 185.111L80.1477 185.349L93.2601 203.069L90.1825 207.945L68.3936 203.707L68.2434 203.945L85.9919 215.112L80.8875 223.198L50.3935 204.013Z" fill="#5988FF"/>
<path d="M115.601 172.261L108.828 180.35L88.8044 148.157L97.383 137.912L132.668 151.878L125.895 159.967L100.8 149.282L100.619 149.498L115.601 172.261ZM103.426 164.666L116.159 149.459L121.776 154.147L109.043 169.354L103.426 164.666Z" fill="#5988FF"/>
<path d="M139.088 145.395L114.283 119.286L125.571 108.597C127.512 106.759 129.574 105.533 131.756 104.92C133.938 104.306 136.092 104.309 138.217 104.929C140.342 105.548 142.284 106.784 144.045 108.637C145.821 110.507 146.942 112.521 147.408 114.679C147.882 116.829 147.721 118.984 146.926 121.142C146.138 123.292 144.749 125.31 142.757 127.196L136.015 133.581L130.782 128.074L136.094 123.044C136.929 122.254 137.502 121.436 137.815 120.591C138.128 119.729 138.184 118.877 137.982 118.035C137.789 117.185 137.341 116.39 136.638 115.65C135.928 114.902 135.161 114.418 134.336 114.198C133.513 113.96 132.67 113.984 131.807 114.268C130.946 114.535 130.097 115.063 129.263 115.853L126.76 118.224L146.188 138.672L139.088 145.395Z" fill="#5988FF"/>
<path d="M168.128 87.5998C167.342 86.7254 166.437 86.2655 165.413 86.2201C164.399 86.1676 163.262 86.621 162.003 87.5804C161.201 88.1915 160.618 88.7902 160.255 89.3766C159.893 89.9466 159.716 90.4869 159.722 90.9976C159.729 91.5083 159.888 91.9768 160.199 92.4029C160.443 92.7617 160.743 93.0275 161.096 93.2002C161.452 93.3566 161.873 93.4257 162.361 93.4076C162.842 93.3802 163.397 93.2666 164.027 93.0669C164.657 92.8673 165.365 92.5779 166.153 92.1988L168.888 90.911C170.73 90.0382 172.425 89.4466 173.974 89.1362C175.522 88.8258 176.94 88.7695 178.228 88.9673C179.508 89.1558 180.669 89.5831 181.709 90.2492C182.759 90.9082 183.705 91.7789 184.547 92.8614C185.976 94.7496 186.722 96.7009 186.785 98.7152C186.849 100.73 186.273 102.737 185.058 104.739C183.852 106.733 182.036 108.654 179.611 110.502C177.121 112.399 174.666 113.687 172.248 114.366C169.839 115.037 167.537 115 165.344 114.254C163.153 113.492 161.138 111.918 159.3 109.532L166.687 103.904C167.403 104.744 168.184 105.313 169.031 105.61C169.879 105.908 170.774 105.94 171.718 105.707C172.671 105.467 173.642 104.971 174.631 104.218C175.461 103.585 176.078 102.953 176.481 102.322C176.884 101.691 177.091 101.084 177.103 100.5C177.114 99.9166 176.947 99.3885 176.6 98.9158C176.256 98.4852 175.82 98.2135 175.291 98.1008C174.764 97.9716 174.089 98.0147 173.264 98.2301C172.433 98.4361 171.397 98.8278 170.155 99.4051L166.831 100.965C163.874 102.348 161.173 102.955 158.726 102.786C156.281 102.6 154.21 101.386 152.511 99.1439C151.114 97.3351 150.385 95.3779 150.325 93.2721C150.268 91.15 150.819 89.0427 151.98 86.9502C153.15 84.8507 154.868 82.9375 157.135 81.2107C159.448 79.4484 161.744 78.3106 164.023 77.7973C166.302 77.2841 168.436 77.3823 170.425 78.0921C172.416 78.7854 174.132 80.0644 175.571 81.9291L168.128 87.5998Z" fill="#5988FF"/>
<path d="M232.615 48.8538C232.012 47.8443 231.213 47.2187 230.218 46.9769C229.233 46.73 228.03 46.9558 226.609 47.6544C225.704 48.0995 225.016 48.5746 224.546 49.08C224.081 49.5696 223.803 50.0656 223.71 50.5679C223.618 51.0703 223.683 51.5605 223.906 52.0386C224.077 52.4378 224.319 52.7562 224.632 52.9938C224.951 53.2158 225.352 53.3649 225.834 53.4411C226.311 53.5069 226.878 53.5025 227.534 53.4279C228.19 53.3533 228.942 53.2059 229.788 52.9858L232.72 52.2491C234.696 51.7477 236.474 51.4939 238.053 51.4878C239.633 51.4816 241.035 51.6997 242.26 52.1419C243.48 52.5736 244.536 53.2165 245.429 54.0706C246.331 54.9195 247.091 55.9561 247.708 57.1805C248.744 59.3085 249.099 61.3668 248.772 63.3556C248.445 65.3443 247.492 67.2035 245.913 68.9332C244.344 70.6577 242.191 72.1927 239.454 73.5382C236.644 74.9199 233.987 75.7106 231.482 75.9102C228.989 76.1047 226.738 75.6248 224.73 74.4706C222.727 73.3007 221.055 71.368 219.712 68.6724L228.049 64.5738C228.589 65.5357 229.245 66.2443 230.019 66.6995C230.793 67.1548 231.666 67.3591 232.637 67.3126C233.618 67.2609 234.667 66.9608 235.783 66.4123C236.719 65.9517 237.446 65.4506 237.964 64.9089C238.482 64.3672 238.802 63.8112 238.927 63.2409C239.051 62.6707 238.988 62.1202 238.74 61.5896C238.486 61.1008 238.11 60.7502 237.613 60.5376C237.121 60.3094 236.45 60.2215 235.599 60.274C234.744 60.3159 233.651 60.5005 232.322 60.8278L228.759 61.7177C225.59 62.5053 222.821 62.5802 220.454 61.9425C218.091 61.289 216.293 59.6986 215.059 57.1713C214.038 55.1273 213.702 53.0664 214.05 50.9888C214.404 48.8954 215.353 46.934 216.896 45.1046C218.45 43.2699 220.506 41.7239 223.063 40.4664C225.674 39.183 228.147 38.5091 230.482 38.4446C232.818 38.3802 234.892 38.8878 236.707 39.9675C238.526 41.0315 239.962 42.6171 241.015 44.7242L232.615 48.8538Z" fill="#5988FF"/>
<path d="M269.065 21.8084L278.267 18.4854L286.121 40.1639C287.055 42.7416 287.245 45.1953 286.692 47.5252C286.146 49.8401 284.96 51.9062 283.136 53.7236C281.307 55.5299 278.942 56.957 276.04 58.0049C273.117 59.0607 270.373 59.4784 267.81 59.2579C265.244 59.0263 263.009 58.1954 261.105 56.765C259.209 55.3196 257.794 53.3081 256.86 50.7305L249.006 29.052L258.208 25.729L265.775 46.6144C266.154 47.6609 266.725 48.5135 267.488 49.1723C268.247 49.8202 269.118 50.228 270.102 50.3958C271.097 50.5596 272.119 50.4522 273.167 50.0737C274.226 49.6912 275.08 49.1212 275.729 48.3637C276.378 47.6062 276.786 46.7362 276.955 45.7538C277.119 44.7603 277.011 43.7403 276.632 42.6938L269.065 21.8084Z" fill="#5988FF"/>
<path d="M300.405 49.423L291.958 14.4399L307.083 10.7998C309.683 10.1739 312.083 10.1387 314.28 10.6942C316.478 11.2497 318.343 12.3251 319.875 13.9205C321.407 15.5159 322.472 17.5549 323.072 20.0374C323.677 22.5427 323.642 24.8466 322.967 26.9491C322.303 29.0488 321.087 30.8356 319.319 32.3094C317.562 33.7806 315.349 34.8373 312.68 35.4797L303.646 37.6539L301.864 30.2746L308.982 28.5616C310.099 28.2926 311.005 27.8698 311.699 27.2932C312.401 26.7025 312.875 25.9919 313.121 25.1615C313.378 24.3284 313.388 23.4165 313.148 22.4257C312.906 21.4236 312.483 20.6217 311.88 20.0199C311.284 19.4041 310.542 19.0043 309.653 18.8207C308.772 18.6229 307.773 18.6586 306.655 18.9276L303.302 19.7347L309.918 47.1336L300.405 49.423Z" fill="#5988FF"/>
<path d="M338.387 40.8407L333.737 5.15624L349.165 3.15219C351.817 2.8076 354.207 3.0288 356.332 3.81581C358.458 4.60281 360.197 5.87123 361.549 7.62107C362.901 9.3709 363.742 11.512 364.072 14.0443C364.405 16.5998 364.124 18.8867 363.227 20.905C362.342 22.9218 360.942 24.5685 359.026 25.8451C357.121 27.1201 354.808 27.9345 352.085 28.2882L342.87 29.4852L341.889 21.958L349.15 21.0149C350.29 20.8668 351.236 20.5431 351.987 20.0439C352.748 19.5315 353.296 18.8757 353.63 18.0763C353.975 17.2755 354.082 16.3697 353.95 15.3591C353.817 14.3369 353.482 13.4944 352.946 12.8317C352.42 12.1558 351.725 11.6791 350.861 11.4015C350.006 11.1109 349.009 11.0396 347.869 11.1877L344.448 11.6321L348.091 39.5802L338.387 40.8407Z" fill="#5988FF"/>
<path d="M377.118 36.4502L376.076 0.479984L385.857 0.197556L386.672 28.2993L401.238 27.8787L401.466 35.7472L377.118 36.4502Z" fill="#5988FF"/>
<path d="M411.166 35.9016L413.622 0L439.539 1.76754L439.001 9.62102L422.847 8.51929L422.425 14.6899L437.245 15.7006L436.707 23.5541L421.888 22.5433L421.465 28.7139L437.549 29.8109L437.012 37.6643L411.166 35.9016Z" fill="#5988FF"/>
<path d="M471.484 5.92032L483.331 8.73942L486.747 30.5054L487.158 30.6032L500.041 12.7155L511.888 15.5346L503.531 50.5393L494.217 48.3231L499.049 28.086L498.775 28.0208L486.202 46.1268L480.587 44.7906L477.579 22.8325L477.305 22.7674L472.441 43.1412L463.128 40.925L471.484 5.92032Z" fill="#5988FF"/>
<path d="M522.616 57.3063L512.763 53.5143L536.829 24.2099L549.309 29.0132L547.446 66.8624L537.593 63.0703L539.63 35.9088L539.367 35.8077L522.616 57.3063ZM525.892 43.3514L544.416 50.4805L541.782 57.3008L523.259 50.1717L525.892 43.3514Z" fill="#5988FF"/>
<path d="M555.662 70.8391L572.417 38.9783L586.192 46.1989C588.56 47.4404 590.387 48.9935 591.673 50.8581C592.958 52.7227 593.65 54.7589 593.748 56.9667C593.846 59.1745 593.3 61.4089 592.111 63.6699C590.911 65.9516 589.363 67.6605 587.467 68.7966C585.581 69.9382 583.487 70.481 581.184 70.4249C578.892 70.3743 576.53 69.7118 574.099 68.4376L565.872 64.1249L569.406 57.4043L575.888 60.8022C576.906 61.3358 577.866 61.6142 578.769 61.6373C579.687 61.6555 580.512 61.4334 581.246 60.9711C581.99 60.5143 582.599 59.8347 583.073 58.9324C583.553 58.0197 583.765 57.1384 583.708 56.2885C583.668 55.4336 583.374 54.6445 582.827 53.921C582.295 53.1927 581.521 52.5617 580.502 52.028L577.448 50.4271L564.325 75.3805L555.662 70.8391Z" fill="#5988FF"/>
<path d="M619.824 79.6457C620.399 78.6206 620.543 77.617 620.256 76.6351C619.979 75.6597 619.183 74.7317 617.867 73.851C617.029 73.29 616.273 72.9323 615.6 72.7778C614.943 72.6201 614.374 72.6267 613.892 72.7976C613.41 72.9686 613.017 73.2697 612.713 73.701C612.452 74.0479 612.296 74.4163 612.246 74.806C612.213 75.1925 612.283 75.6134 612.458 76.0687C612.639 76.5143 612.925 77.0024 613.318 77.533C613.71 78.0636 614.213 78.64 614.826 79.2621L616.929 81.4314C618.351 82.8907 619.458 84.302 620.252 85.6653C621.046 87.0287 621.556 88.3507 621.784 89.6314C622.018 90.9023 621.987 92.1368 621.691 93.3349C621.405 94.5394 620.884 95.7142 620.13 96.859C618.8 98.8178 617.191 100.152 615.301 100.862C613.412 101.572 611.322 101.675 609.033 101.172C606.753 100.675 604.346 99.5789 601.812 97.8828C599.21 96.1411 597.198 94.2368 595.775 92.17C594.361 90.1098 593.655 87.923 593.654 85.6098C593.67 83.2934 594.513 80.8817 596.182 78.3747L603.901 83.5413C603.335 84.4885 603.048 85.4104 603.039 86.3071C603.03 87.2038 603.288 88.0605 603.813 88.8774C604.348 89.7007 605.132 90.4582 606.165 91.1497C607.032 91.7303 607.83 92.1092 608.558 92.2866C609.287 92.4639 609.93 92.464 610.487 92.2868C611.044 92.1096 611.49 91.781 611.827 91.3011C612.124 90.8372 612.241 90.3372 612.177 89.801C612.13 89.2615 611.871 88.6371 611.401 87.9276C610.938 87.2084 610.232 86.3553 609.285 85.3684L606.734 82.7301C604.469 80.3817 603.022 78.024 602.394 75.6572C601.782 73.2871 602.264 70.9379 603.842 68.6093C605.107 66.7056 606.728 65.3859 608.705 64.6504C610.698 63.9117 612.874 63.7533 615.232 64.1754C617.6 64.604 619.968 65.6109 622.336 67.1961C624.753 68.8139 626.572 70.617 627.794 72.6053C629.015 74.5936 629.61 76.6419 629.579 78.7504C629.563 80.8556 628.904 82.8893 627.6 84.8514L619.824 79.6457Z" fill="#5988FF"/>
<path d="M677.354 128.094C678.117 127.2 678.453 126.243 678.361 125.224C678.277 124.213 677.675 123.149 676.555 122.032C675.841 121.32 675.169 120.823 674.538 120.542C673.924 120.261 673.364 120.157 672.858 120.232C672.352 120.307 671.908 120.527 671.526 120.891C671.203 121.181 670.979 121.513 670.855 121.886C670.747 122.258 670.735 122.685 670.818 123.165C670.91 123.637 671.097 124.172 671.379 124.768C671.661 125.364 672.044 126.026 672.525 126.755L674.169 129.289C675.282 130.995 676.096 132.593 676.611 134.083C677.126 135.574 677.371 136.97 677.347 138.27C677.331 139.562 677.062 140.768 676.54 141.886C676.026 143.013 675.288 144.065 674.327 145.043C672.643 146.709 670.806 147.708 668.815 148.04C666.824 148.373 664.754 148.071 662.605 147.136C660.464 146.21 658.314 144.67 656.156 142.518C653.94 140.307 652.333 138.051 651.336 135.749C650.348 133.455 650.077 131.173 650.524 128.903C650.987 126.634 652.28 124.43 654.403 122.292L660.977 128.848C660.239 129.669 659.779 130.518 659.597 131.396C659.415 132.274 659.503 133.165 659.86 134.067C660.226 134.978 660.848 135.872 661.728 136.75C662.467 137.487 663.177 138.012 663.857 138.327C664.537 138.641 665.168 138.765 665.749 138.699C666.33 138.632 666.831 138.396 667.254 137.99C667.636 137.592 667.847 137.124 667.888 136.585C667.946 136.047 667.813 135.384 667.489 134.598C667.173 133.803 666.646 132.83 665.907 131.679L663.914 128.598C662.146 125.858 661.182 123.265 661.023 120.822C660.881 118.379 661.809 116.167 663.807 114.186C665.416 112.562 667.261 111.579 669.344 111.239C671.443 110.898 673.608 111.162 675.84 112.03C678.081 112.907 680.21 114.351 682.227 116.363C684.285 118.416 685.722 120.536 686.536 122.722C687.35 124.909 687.538 127.033 687.099 129.096C686.677 131.159 685.637 133.027 683.978 134.701L677.354 128.094Z" fill="#5988FF"/>
<path d="M714.751 153.821L720.869 161.445L702.848 175.858C700.705 177.572 698.44 178.543 696.053 178.771C693.682 179.002 691.34 178.548 689.029 177.409C686.727 176.264 684.611 174.489 682.682 172.084C680.738 169.662 679.457 167.204 678.84 164.711C678.232 162.21 678.299 159.83 679.041 157.57C679.8 155.313 681.251 153.327 683.394 151.613L701.415 137.2L707.533 144.825L690.171 158.71C689.301 159.406 688.677 160.22 688.298 161.154C687.929 162.08 687.823 163.035 687.981 164.019C688.147 165.012 688.578 165.943 689.275 166.811C689.979 167.689 690.795 168.312 691.722 168.681C692.65 169.05 693.606 169.156 694.592 168.998C695.587 168.833 696.519 168.402 697.389 167.706L714.751 153.821Z" fill="#5988FF"/>
<path d="M698.673 192.342L729.118 173.079L737.446 186.199C738.878 188.455 739.685 190.711 739.867 192.967C740.049 195.223 739.631 197.332 738.612 199.294C737.594 201.256 736.004 202.921 733.844 204.288C731.663 205.668 729.468 206.377 727.257 206.417C725.052 206.467 722.966 205.894 720.998 204.698C719.037 203.512 717.321 201.762 715.851 199.446L710.877 191.61L717.299 187.547L721.218 193.721C721.834 194.69 722.527 195.41 723.297 195.88C724.083 196.353 724.91 196.572 725.777 196.536C726.65 196.511 727.517 196.226 728.379 195.68C729.251 195.128 729.875 194.47 730.251 193.705C730.643 192.944 730.783 192.114 730.67 191.214C730.574 190.318 730.218 189.386 729.602 188.416L727.756 185.507L703.911 200.594L698.673 192.342Z" fill="#5988FF"/>
<path d="M719.059 225.47L751.393 209.568L758.268 223.502C759.45 225.898 760.011 228.227 759.95 230.49C759.889 232.752 759.247 234.805 758.024 236.647C756.801 238.489 755.042 239.974 752.748 241.103C750.432 242.241 748.173 242.713 745.971 242.516C743.773 242.33 741.76 241.538 739.932 240.139C738.109 238.75 736.591 236.826 735.378 234.367L731.271 226.045L738.092 222.691L741.327 229.248C741.835 230.278 742.447 231.067 743.162 231.616C743.894 232.17 744.692 232.476 745.558 232.534C746.428 232.602 747.321 232.411 748.237 231.96C749.163 231.505 749.854 230.917 750.31 230.197C750.781 229.482 751.009 228.671 750.993 227.765C750.993 226.864 750.739 225.898 750.231 224.869L748.707 221.779L723.383 234.234L719.059 225.47Z" fill="#5988FF"/>
<path d="M735.712 260.657L769.48 248.073L772.902 257.225L746.52 267.057L751.616 280.687L744.229 283.439L735.712 260.657Z" fill="#5988FF"/>
<path d="M747.211 292.656L782.042 283.401L788.724 308.463L781.104 310.488L776.94 294.866L770.953 296.457L774.774 310.788L767.154 312.813L763.334 298.482L757.347 300.072L761.494 315.626L753.874 317.651L747.211 292.656Z" fill="#5988FF"/>
<path d="M795.087 339.992L796.234 352.097L776.699 362.344L776.739 362.764L797.853 369.17L799 381.275L763.117 384.665L762.214 375.149L782.96 373.189L782.933 372.909L761.712 366.866L761.168 361.128L781.017 351.205L780.991 350.925L760.105 352.898L759.203 343.382L795.087 339.992Z" fill="#5988FF"/>
<path d="M762.856 404.884L763.274 394.349L798.818 407.643L798.288 420.986L761.802 431.43L762.22 420.896L788.629 414.063L788.641 413.782L762.856 404.884ZM777.143 403.479L776.357 423.284L769.041 422.994L769.827 403.19L777.143 403.479Z" fill="#5988FF"/>
<path d="M760.68 440.477L796.291 446.037L793.887 461.384C793.474 464.022 792.591 466.25 791.237 468.066C789.884 469.882 788.176 471.192 786.115 471.997C784.053 472.801 781.758 473.006 779.231 472.611C776.681 472.213 774.562 471.301 772.873 469.876C771.183 468.462 769.993 466.657 769.303 464.463C768.612 462.28 768.478 459.835 768.903 457.127L770.339 447.961L777.85 449.134L776.719 456.355C776.541 457.489 776.587 458.487 776.856 459.347C777.135 460.22 777.612 460.929 778.287 461.473C778.96 462.029 779.8 462.385 780.809 462.543C781.829 462.702 782.733 462.618 783.52 462.29C784.318 461.976 784.971 461.444 785.481 460.693C786 459.956 786.348 459.021 786.526 457.887L787.059 454.484L759.168 450.129L760.68 440.477Z" fill="#5988FF"/>
<path d="M773.021 503.953C774.178 504.166 775.176 503.979 776.015 503.391C776.85 502.815 777.473 501.763 777.884 500.235C778.145 499.262 778.241 498.433 778.17 497.747C778.108 497.075 777.918 496.539 777.601 496.139C777.283 495.738 776.871 495.464 776.364 495.316C775.951 495.181 775.551 495.153 775.166 495.231C774.789 495.324 774.412 495.527 774.037 495.838C773.673 496.153 773.302 496.581 772.926 497.123C772.549 497.665 772.165 498.326 771.773 499.107L770.394 501.794C769.469 503.607 768.488 505.109 767.451 506.299C766.415 507.489 765.326 508.397 764.185 509.026C763.056 509.657 761.875 510.026 760.644 510.132C759.409 510.25 758.128 510.137 756.799 509.793C754.513 509.168 752.729 508.077 751.447 506.521C750.165 504.964 749.393 503.023 749.131 500.697C748.867 498.382 749.131 495.754 749.922 492.813C750.734 489.792 751.89 487.276 753.391 485.264C754.889 483.264 756.734 481.891 758.927 481.145C761.129 480.413 763.687 480.432 766.602 481.201L764.192 490.161C763.112 489.932 762.145 489.958 761.292 490.239C760.439 490.52 759.71 491.04 759.105 491.799C758.497 492.57 758.031 493.555 757.709 494.754C757.438 495.761 757.336 496.638 757.403 497.383C757.47 498.129 757.677 498.736 758.024 499.205C758.372 499.675 758.828 499.991 759.391 500.154C759.927 500.285 760.439 500.235 760.926 500.002C761.423 499.783 761.931 499.337 762.452 498.664C762.985 497.994 763.566 497.052 764.196 495.839L765.875 492.577C767.371 489.679 769.14 487.552 771.182 486.195C773.231 484.852 775.615 484.551 778.331 485.291C780.544 485.872 782.318 486.978 783.653 488.61C784.996 490.256 785.848 492.261 786.208 494.625C786.565 497.001 786.374 499.564 785.635 502.313C784.88 505.119 783.757 507.419 782.266 509.215C780.775 511.011 779.024 512.233 777.015 512.883C775.014 513.548 772.873 513.58 770.593 512.981L773.021 503.953Z" fill="#5988FF"/>
<path d="M745.636 573.944C746.731 574.376 747.746 574.385 748.682 573.969C749.614 573.565 750.428 572.653 751.127 571.233C751.571 570.329 751.826 569.534 751.889 568.847C751.958 568.176 751.875 567.613 751.641 567.159C751.407 566.705 751.055 566.356 750.586 566.114C750.207 565.901 749.821 565.797 749.427 565.8C749.039 565.818 748.631 565.944 748.202 566.178C747.784 566.416 747.338 566.765 746.864 567.224C746.389 567.683 745.884 568.258 745.349 568.948L743.477 571.319C742.218 572.92 740.965 574.205 739.718 575.172C738.471 576.14 737.227 576.822 735.986 577.218C734.756 577.62 733.526 577.754 732.297 577.622C731.063 577.499 729.828 577.141 728.59 576.548C726.468 575.494 724.929 574.08 723.972 572.306C723.014 570.531 722.633 568.478 722.826 566.145C723.014 563.823 723.781 561.295 725.125 558.561C726.506 555.754 728.128 553.508 729.989 551.824C731.845 550.15 733.921 549.158 736.217 548.849C738.519 548.555 741.025 549.066 743.737 550.383L739.64 558.71C738.625 558.277 737.671 558.116 736.78 558.227C735.889 558.339 735.073 558.708 734.332 559.337C733.586 559.976 732.939 560.853 732.391 561.968C731.931 562.903 731.661 563.743 731.582 564.488C731.504 565.232 731.59 565.868 731.84 566.396C732.09 566.923 732.476 567.321 732.998 567.59C733.498 567.822 734.01 567.871 734.533 567.736C735.063 567.617 735.648 567.278 736.289 566.718C736.941 566.163 737.694 565.351 738.547 564.281L740.825 561.405C742.853 558.85 745 557.103 747.265 556.165C749.536 555.243 751.932 555.406 754.455 556.656C756.514 557.653 758.04 559.08 759.035 560.938C760.034 562.812 760.482 564.943 760.379 567.333C760.27 569.733 759.587 572.211 758.33 574.766C757.047 577.373 755.501 579.414 753.69 580.888C751.88 582.363 749.926 583.225 747.829 583.476C745.737 583.742 743.63 583.362 741.508 582.334L745.636 573.944Z" fill="#5988FF"/>
<path d="M733.305 617.581L728.048 625.821L708.572 613.438C706.256 611.966 704.605 610.138 703.618 607.956C702.636 605.789 702.311 603.43 702.645 600.879C702.989 598.334 703.989 595.762 705.647 593.163C707.317 590.545 709.235 588.542 711.399 587.155C713.574 585.774 715.852 585.07 718.234 585.043C720.62 585.032 722.97 585.763 725.286 587.235L744.763 599.618L739.506 607.859L720.742 595.929C719.802 595.331 718.829 595.003 717.822 594.946C716.825 594.896 715.885 595.104 715.003 595.571C714.115 596.048 713.371 596.755 712.772 597.694C712.167 598.642 711.84 599.614 711.789 600.61C711.738 601.605 711.946 602.543 712.414 603.424C712.892 604.311 713.601 605.053 714.541 605.651L733.305 617.581Z" fill="#5988FF"/>
<path d="M691.597 614.81L719.678 637.37L709.924 649.471C708.247 651.552 706.369 653.042 704.288 653.942C702.208 654.841 700.073 655.126 697.884 654.796C695.695 654.466 693.605 653.501 691.612 651.9C689.601 650.284 688.22 648.438 687.469 646.361C686.711 644.294 686.581 642.137 687.081 639.892C687.573 637.656 688.679 635.471 690.4 633.335L696.226 626.107L702.149 630.866L697.559 636.56C696.839 637.455 696.38 638.342 696.183 639.221C695.988 640.117 696.047 640.969 696.36 641.776C696.665 642.593 697.216 643.321 698.011 643.96C698.816 644.606 699.641 644.984 700.487 645.092C701.335 645.217 702.168 645.081 702.984 644.685C703.802 644.305 704.572 643.668 705.293 642.773L707.455 640.09L685.462 622.421L691.597 614.81Z" fill="#5988FF"/>
<path d="M666.761 644.757L692.264 670.186L681.27 681.176C679.38 683.066 677.352 684.347 675.187 685.019C673.022 685.692 670.869 685.747 668.729 685.185C666.588 684.623 664.612 683.44 662.803 681.635C660.976 679.814 659.801 677.831 659.277 675.686C658.744 673.55 658.847 671.392 659.584 669.213C660.312 667.042 661.647 664.987 663.587 663.048L670.154 656.483L675.533 661.847L670.36 667.019C669.547 667.832 668.996 668.664 668.706 669.518C668.416 670.388 668.384 671.241 668.608 672.077C668.824 672.922 669.294 673.704 670.016 674.424C670.746 675.153 671.527 675.616 672.356 675.814C673.186 676.029 674.028 675.983 674.883 675.676C675.737 675.386 676.57 674.834 677.383 674.022L679.821 671.585L659.846 651.669L666.761 644.757Z" fill="#5988FF"/>
<path d="M638.77 671.842L661.59 699.696L654.016 705.881L636.187 684.12L624.907 693.331L619.916 687.238L638.77 671.842Z" fill="#5988FF"/>
<path d="M612.138 693.028L632.145 722.96L610.538 737.356L606.161 730.808L619.629 721.835L616.19 716.691L603.835 724.922L599.458 718.374L611.814 710.143L608.375 704.998L594.966 713.932L590.589 707.384L612.138 693.028Z" fill="#5988FF"/>
<path d="M582.696 753.536L571.589 758.523L555.575 743.366L555.189 743.539L555.924 765.558L544.817 770.546L530.031 737.728L538.763 733.807L547.311 752.78L547.568 752.664L546.454 730.661L551.719 728.297L567.528 743.855L567.785 743.74L559.179 724.638L567.911 720.717L582.696 753.536Z" fill="#5988FF"/>
<path d="M510.778 744L520.9 740.998L519.758 778.876L506.936 782.679L485.269 751.565L495.391 748.563L510.386 771.318L510.656 771.238L510.778 744ZM516.716 757.05L497.686 762.693L495.601 755.686L514.632 750.043L516.716 757.05Z" fill="#5988FF"/>
<path d="M476.329 753.424L482.54 788.871L467.215 791.547C464.58 792.007 462.183 791.891 460.025 791.198C457.867 790.504 456.074 789.313 454.646 787.624C453.219 785.935 452.285 783.833 451.844 781.317C451.399 778.779 451.58 776.482 452.387 774.426C453.183 772.373 454.51 770.666 456.368 769.307C458.215 767.95 460.49 767.035 463.195 766.563L472.348 764.964L473.658 772.441L466.446 773.701C465.314 773.899 464.383 774.264 463.654 774.795C462.916 775.34 462.398 776.019 462.1 776.833C461.79 777.648 461.723 778.557 461.899 779.561C462.077 780.577 462.448 781.404 463.013 782.042C463.568 782.695 464.283 783.14 465.159 783.38C466.025 783.633 467.024 783.661 468.157 783.463L471.555 782.869L466.69 755.107L476.329 753.424Z" fill="#5988FF"/>
<path d="M420.126 785.554C420.297 786.717 420.796 787.6 421.624 788.202C422.44 788.806 423.638 789.056 425.219 788.951C426.226 788.885 427.043 788.708 427.671 788.42C428.287 788.144 428.734 787.792 429.012 787.363C429.289 786.933 429.416 786.455 429.393 785.929C429.388 785.495 429.286 785.108 429.087 784.769C428.877 784.442 428.564 784.152 428.147 783.898C427.731 783.655 427.206 783.443 426.571 783.262C425.935 783.081 425.185 782.931 424.318 782.812L421.326 782.376C419.308 782.086 417.568 781.644 416.106 781.047C414.643 780.451 413.431 779.716 412.467 778.84C411.505 777.976 410.774 776.979 410.276 775.85C409.766 774.722 409.46 773.474 409.358 772.107C409.213 769.745 409.672 767.708 410.735 765.994C411.797 764.28 413.389 762.925 415.51 761.928C417.619 760.932 420.196 760.333 423.24 760.132C426.366 759.926 429.124 760.207 431.515 760.977C433.894 761.747 435.791 763.049 437.206 764.881C438.61 766.725 439.417 769.149 439.628 772.152L430.355 772.764C430.224 771.669 429.888 770.764 429.347 770.048C428.805 769.333 428.077 768.811 427.162 768.484C426.235 768.158 425.151 768.036 423.91 768.118C422.868 768.187 422.004 768.373 421.319 768.676C420.633 768.98 420.124 769.371 419.791 769.851C419.459 770.331 419.306 770.864 419.333 771.449C419.381 771.997 419.594 772.465 419.972 772.85C420.34 773.249 420.926 773.586 421.733 773.861C422.539 774.148 423.62 774.394 424.974 774.598L428.607 775.133C431.838 775.613 434.425 776.598 436.37 778.09C438.304 779.594 439.358 781.749 439.532 784.555C439.695 786.833 439.218 788.867 438.101 790.654C436.974 792.454 435.348 793.906 433.222 795.009C431.084 796.113 428.593 796.758 425.748 796.946C422.845 797.138 420.301 796.818 418.118 795.988C415.935 795.158 414.211 793.898 412.947 792.209C411.672 790.532 410.95 788.519 410.783 786.171L420.126 785.554Z" fill="#5988FF"/>
<path d="M344.935 782.244C344.878 783.418 345.197 784.38 345.893 785.131C346.577 785.881 347.704 786.356 349.275 786.559C350.276 786.687 351.112 786.671 351.784 786.509C352.442 786.358 352.949 786.098 353.304 785.731C353.659 785.363 353.876 784.919 353.955 784.397C354.034 783.97 354.008 783.571 353.879 783.2C353.736 782.84 353.485 782.494 353.125 782.164C352.764 781.846 352.29 781.537 351.701 781.237C351.113 780.937 350.406 780.645 349.579 780.362L346.727 779.357C344.803 778.684 343.181 777.914 341.861 777.047C340.542 776.181 339.494 775.225 338.718 774.18C337.941 773.147 337.417 772.028 337.146 770.824C336.864 769.619 336.805 768.336 336.969 766.975C337.284 764.629 338.128 762.719 339.502 761.242C340.875 759.765 342.699 758.742 344.973 758.172C347.236 757.602 349.88 757.511 352.905 757.9C356.012 758.3 358.664 759.108 360.861 760.324C363.047 761.538 364.657 763.18 365.691 765.251C366.712 767.331 367.035 769.864 366.661 772.852L357.445 771.665C357.528 770.566 357.373 769.613 356.98 768.806C356.587 768 355.973 767.348 355.139 766.851C354.292 766.352 353.252 766.023 352.018 765.865C350.983 765.731 350.099 765.748 349.368 765.913C348.637 766.079 348.062 766.365 347.642 766.772C347.223 767.179 346.97 767.672 346.884 768.251C346.825 768.798 346.944 769.298 347.24 769.75C347.524 770.211 348.034 770.655 348.772 771.081C349.508 771.518 350.521 771.967 351.81 772.428L355.272 773.653C358.348 774.746 360.697 776.212 362.316 778.05C363.923 779.899 364.541 782.217 364.169 785.003C363.888 787.27 363.027 789.173 361.586 790.712C360.132 792.261 358.256 793.372 355.957 794.045C353.646 794.716 351.077 794.869 348.249 794.505C345.363 794.134 342.929 793.33 340.948 792.095C338.966 790.86 337.518 789.291 336.604 787.39C335.677 785.499 335.359 783.385 335.649 781.049L344.935 782.244Z" fill="#5988FF"/>
<path d="M299.585 784.662L290.077 782.352L295.537 759.952C296.186 757.289 297.387 755.139 299.138 753.503C300.875 751.876 303.007 750.809 305.534 750.301C308.058 749.805 310.819 749.922 313.817 750.65C316.838 751.384 319.355 752.551 321.369 754.149C323.379 755.759 324.781 757.685 325.575 759.927C326.355 762.178 326.42 764.635 325.771 767.299L320.31 789.698L310.802 787.388L316.063 765.808C316.327 764.727 316.323 763.701 316.052 762.731C315.779 761.772 315.279 760.952 314.552 760.269C313.813 759.583 312.902 759.108 311.819 758.845C310.725 758.579 309.698 758.583 308.737 758.856C307.777 759.129 306.955 759.628 306.271 760.354C305.584 761.092 305.109 762.001 304.845 763.082L299.585 784.662Z" fill="#5988FF"/>
<path d="M288.763 744.352L276.429 778.164L261.81 772.849C259.296 771.935 257.277 770.64 255.754 768.964C254.23 767.288 253.271 765.363 252.878 763.188C252.485 761.013 252.727 758.726 253.602 756.326C254.485 753.905 255.79 752.004 257.517 750.625C259.233 749.242 261.236 748.424 263.525 748.172C265.804 747.916 268.233 748.257 270.813 749.195L279.544 752.369L276.943 759.502L270.063 757.001C268.983 756.608 267.994 756.46 267.097 756.558C266.185 756.662 265.396 756.993 264.731 757.549C264.055 758.101 263.543 758.856 263.193 759.813C262.84 760.782 262.748 761.684 262.918 762.518C263.073 763.36 263.471 764.103 264.11 764.747C264.734 765.398 265.586 765.919 266.667 766.312L269.908 767.491L279.568 741.008L288.763 744.352Z" fill="#5988FF"/>
<path d="M252.36 730.539L236.474 762.84L222.509 755.995C220.107 754.818 218.239 753.314 216.903 751.485C215.568 749.656 214.821 747.639 214.664 745.435C214.506 743.23 214.991 740.982 216.118 738.69C217.256 736.377 218.757 734.627 220.622 733.44C222.476 732.247 224.555 731.648 226.858 731.642C229.151 731.631 231.53 732.229 233.994 733.437L242.336 737.526L238.985 744.34L232.413 741.118C231.381 740.612 230.413 740.36 229.511 740.361C228.593 740.368 227.773 740.612 227.053 741.094C226.321 741.571 225.731 742.267 225.281 743.182C224.826 744.107 224.638 744.993 224.718 745.842C224.782 746.695 225.097 747.476 225.664 748.184C226.214 748.898 227.006 749.508 228.038 750.014L231.135 751.532L243.576 726.233L252.36 730.539Z" fill="#5988FF"/>
<path d="M217.655 712.818L198.604 743.366L190.297 738.203L205.181 714.337L192.81 706.647L196.978 699.965L217.655 712.818Z" fill="#5988FF"/>
<path d="M188.981 694.483L167.053 723.043L146.437 707.265L151.233 701.018L164.084 710.852L167.853 705.943L156.064 696.921L160.861 690.674L172.65 699.696L176.418 694.787L163.624 684.996L168.421 678.748L188.981 694.483Z" fill="#5988FF"/>
<path d="M122.117 686.171L113.807 677.282L123.014 657.26L122.726 656.952L102.085 664.746L93.7747 655.858L120.123 631.302L126.656 638.29L111.423 652.486L111.616 652.691L132.119 644.544L136.058 648.757L126.405 668.714L126.597 668.92L141.932 654.628L148.465 661.615L122.117 686.171Z" fill="#5988FF"/>
<path d="M107.967 615.131L114.077 623.729L77.7957 634.864L70.0561 623.973L92.5687 593.463L98.679 602.061L81.9401 623.569L82.103 623.799L107.967 615.131ZM97.5092 624.951L86.0219 608.786L91.9931 604.556L103.48 620.721L97.5092 624.951Z" fill="#5988FF"/>
<path d="M87.9241 585.613L56.3189 602.913L48.8392 589.293C47.5532 586.951 46.8908 584.649 46.8522 582.385C46.8135 580.122 47.3648 578.044 48.5059 576.15C49.647 574.256 51.3389 572.695 53.5818 571.468C55.8452 570.229 58.0814 569.659 60.2906 569.759C62.4942 569.849 64.5399 570.553 66.4277 571.87C68.3099 573.178 69.911 575.033 71.2309 577.437L75.6984 585.572L69.0316 589.221L65.5118 582.812C64.959 581.805 64.3131 581.043 63.5741 580.526C62.8192 580.004 62.0081 579.733 61.141 579.714C60.2682 579.684 59.3843 579.914 58.4892 580.404C57.5838 580.899 56.9194 581.517 56.4959 582.256C56.0564 582.991 55.8644 583.811 55.9197 584.716C55.9591 585.616 56.2552 586.569 56.808 587.576L58.4664 590.596L83.2197 577.046L87.9241 585.613Z" fill="#5988FF"/>
<path d="M39.3369 542.86C38.2897 543.396 37.6139 544.153 37.3093 545.129C37.0002 546.095 37.1499 547.308 37.7585 548.768C38.1462 549.698 38.5777 550.413 39.0531 550.914C39.5132 551.408 39.9914 551.717 40.4878 551.84C40.9841 551.964 41.4783 551.93 41.9702 551.738C42.38 551.593 42.7136 551.372 42.971 551.075C43.213 550.771 43.3874 550.382 43.4941 549.906C43.59 549.435 43.6213 548.87 43.5882 548.211C43.5551 547.552 43.4553 546.795 43.2887 545.938L42.7377 542.969C42.3613 540.969 42.2199 539.181 42.3136 537.607C42.4072 536.033 42.7138 534.65 43.2333 533.457C43.7419 532.268 44.4513 531.257 45.3615 530.422C46.2671 529.576 47.3513 528.885 48.6142 528.347C50.8069 527.449 52.8869 527.226 54.8543 527.677C56.8216 528.128 58.6199 529.196 60.2491 530.879C61.8739 532.551 63.2723 534.793 64.4443 537.605C65.6479 540.492 66.2704 543.19 66.3117 545.698C66.3485 548.195 65.7266 550.407 64.4459 552.335C63.1499 554.256 61.1122 555.8 58.3328 556.968L54.7625 548.403C55.7582 547.925 56.5081 547.316 57.012 546.573C57.5159 545.831 57.7754 544.975 57.7902 544.004C57.8006 543.023 57.5668 541.959 57.089 540.813C56.6878 539.85 56.2328 539.094 55.724 538.544C55.2152 537.994 54.6797 537.64 54.1175 537.48C53.5553 537.32 53.0011 537.347 52.455 537.562C51.9504 537.784 51.5761 538.136 51.3322 538.618C51.073 539.094 50.9427 539.757 50.9414 540.607C50.9293 541.463 51.0448 542.563 51.2879 543.908L51.9524 547.515C52.5394 550.722 52.4394 553.485 51.6522 555.804C50.8498 558.117 49.1464 559.808 46.5421 560.877C44.4342 561.765 42.3529 561.97 40.298 561.492C38.2278 561.007 36.3271 559.938 34.5958 558.285C32.8601 556.621 31.4445 554.475 30.3491 551.847C29.2311 549.164 28.7137 546.658 28.7969 544.327C28.88 541.996 29.5186 539.961 30.7125 538.221C31.8911 536.475 33.5668 535.145 35.7396 534.229L39.3369 542.86Z" fill="#5988FF"/>
</svg>
