<svg width="1096" height="1094" viewBox="0 0 1096 1094" fill="none" xmlns="http://www.w3.org/2000/svg">
<path d="M482.425 1081.59C482.386 1082.76 482.719 1083.72 483.425 1084.46C484.119 1085.2 485.252 1085.66 486.824 1085.84C487.825 1085.95 488.66 1085.92 489.328 1085.75C489.983 1085.59 490.485 1085.32 490.834 1084.95C491.183 1084.58 491.393 1084.13 491.465 1083.61C491.537 1083.18 491.505 1082.78 491.371 1082.41C491.223 1082.05 490.967 1081.71 490.603 1081.38C490.237 1081.07 489.759 1080.77 489.167 1080.48C488.575 1080.18 487.864 1079.9 487.034 1079.63L484.171 1078.67C482.24 1078.02 480.609 1077.28 479.278 1076.43C477.948 1075.58 476.887 1074.64 476.096 1073.61C475.305 1072.59 474.765 1071.47 474.476 1070.27C474.177 1069.07 474.099 1067.79 474.242 1066.42C474.521 1064.07 475.335 1062.14 476.685 1060.65C478.034 1059.15 479.84 1058.1 482.102 1057.49C484.352 1056.89 486.991 1056.76 490.018 1057.1C493.127 1057.45 495.787 1058.22 497.999 1059.41C500.2 1060.59 501.832 1062.21 502.895 1064.27C503.946 1066.33 504.307 1068.86 503.979 1071.86L494.758 1070.81C494.824 1069.71 494.655 1068.76 494.251 1067.95C493.847 1067.15 493.224 1066.51 492.383 1066.03C491.53 1065.54 490.487 1065.23 489.252 1065.08C488.216 1064.97 487.334 1065 486.607 1065.17C485.879 1065.35 485.309 1065.65 484.896 1066.06C484.484 1066.47 484.239 1066.97 484.161 1067.55C484.11 1068.1 484.237 1068.6 484.539 1069.05C484.829 1069.5 485.346 1069.94 486.089 1070.35C486.831 1070.78 487.848 1071.22 489.143 1071.66L492.618 1072.83C495.706 1073.88 498.073 1075.31 499.718 1077.13C501.351 1078.95 502.002 1081.26 501.673 1084.06C501.426 1086.33 500.595 1088.25 499.18 1089.81C497.751 1091.38 495.894 1092.52 493.608 1093.23C491.311 1093.94 488.748 1094.13 485.919 1093.81C483.031 1093.48 480.589 1092.71 478.592 1091.51C476.594 1090.3 475.125 1088.75 474.184 1086.86C473.23 1084.98 472.88 1082.87 473.134 1080.53L482.425 1081.59Z" fill="#5988FF"/>
<path d="M437.937 1085.69L428.344 1083.83L432.743 1061.18C433.266 1058.48 434.363 1056.28 436.033 1054.56C437.69 1052.85 439.767 1051.68 442.263 1051.06C444.758 1050.44 447.518 1050.43 450.543 1051.02C453.591 1051.61 456.156 1052.66 458.24 1054.16C460.321 1055.68 461.81 1057.54 462.706 1059.75C463.589 1061.96 463.769 1064.41 463.246 1067.11L458.848 1089.76L449.255 1087.9L453.493 1066.07C453.705 1064.98 453.654 1063.95 453.338 1062.99C453.02 1062.05 452.483 1061.25 451.726 1060.6C450.957 1059.95 450.026 1059.52 448.933 1059.31C447.829 1059.09 446.805 1059.14 445.86 1059.46C444.915 1059.78 444.118 1060.32 443.469 1061.08C442.819 1061.85 442.387 1062.78 442.175 1063.87L437.937 1085.69Z" fill="#5988FF"/>
<path d="M425.017 1046.02L415.393 1080.73L400.422 1076.58C397.848 1075.86 395.736 1074.73 394.087 1073.17C392.439 1071.62 391.333 1069.78 390.771 1067.64C390.209 1065.5 390.27 1063.2 390.953 1060.73C391.642 1058.25 392.792 1056.25 394.403 1054.74C396.002 1053.22 397.932 1052.25 400.192 1051.82C402.44 1051.38 404.885 1051.53 407.527 1052.26L416.469 1054.75L414.44 1062.07L407.394 1060.11C406.288 1059.81 405.292 1059.74 404.406 1059.9C403.506 1060.08 402.747 1060.47 402.129 1061.08C401.499 1061.68 401.048 1062.48 400.776 1063.46C400.5 1064.45 400.479 1065.36 400.714 1066.18C400.935 1067.01 401.388 1067.72 402.075 1068.31C402.748 1068.91 403.637 1069.36 404.744 1069.67L408.063 1070.59L415.601 1043.41L425.017 1046.02Z" fill="#5988FF"/>
<path d="M387.457 1035.18L375.216 1069.06L360.605 1063.77C358.093 1062.86 356.074 1061.57 354.548 1059.9C353.023 1058.22 352.061 1056.3 351.664 1054.12C351.267 1051.94 351.502 1049.65 352.371 1047.25C353.248 1044.82 354.547 1042.92 356.268 1041.53C357.978 1040.15 359.977 1039.32 362.263 1039.07C364.538 1038.8 366.964 1039.14 369.543 1040.07L378.27 1043.23L375.688 1050.38L368.812 1047.89C367.732 1047.5 366.744 1047.35 365.848 1047.45C364.938 1047.56 364.151 1047.89 363.488 1048.45C362.814 1049 362.304 1049.76 361.958 1050.72C361.607 1051.69 361.517 1052.59 361.689 1053.43C361.846 1054.27 362.244 1055.01 362.884 1055.66C363.509 1056.31 364.361 1056.83 365.441 1057.22L368.68 1058.39L378.267 1031.86L387.457 1035.18Z" fill="#5988FF"/>
<path d="M350.829 1021.44L336.199 1054.35L327.27 1050.38L338.7 1024.66L325.403 1018.75L328.603 1011.55L350.829 1021.44Z" fill="#5988FF"/>
<path d="M319.722 1007.25L302.854 1039.07L279.936 1026.9L283.626 1019.94L297.911 1027.52L300.81 1022.06L287.706 1015.1L291.396 1008.14L304.5 1015.09L307.399 1009.62L293.177 1002.07L296.867 995.113L319.722 1007.25Z" fill="#5988FF"/>
<path d="M253.414 1011.33L243.416 1004.4L248.148 982.857L247.801 982.616L229.315 994.621L219.317 987.69L239.813 958.078L247.673 963.527L235.823 980.646L236.055 980.807L254.332 968.486L259.071 971.771L253.89 993.342L254.121 993.502L266.051 976.267L273.911 981.715L253.414 1011.33Z" fill="#5988FF"/>
<path d="M223.928 945.173L231.985 951.982L199.685 971.834L189.479 963.21L203.624 928.016L211.681 934.824L200.87 959.851L201.085 960.033L223.928 945.173ZM216.27 957.303L201.122 944.503L205.84 938.912L220.987 951.712L216.27 957.303Z" fill="#5988FF"/>
<path d="M196.867 921.585L171.462 947.104L160.455 936.13C158.562 934.243 157.278 932.218 156.603 930.056C155.928 927.893 155.87 925.741 156.429 923.601C156.989 921.461 158.17 919.485 159.973 917.674C161.792 915.847 163.774 914.67 165.919 914.143C168.056 913.609 170.214 913.708 172.395 914.442C174.567 915.168 176.624 916.499 178.567 918.435L185.141 924.99L179.782 930.373L174.602 925.209C173.789 924.398 172.955 923.848 172.101 923.559C171.231 923.271 170.377 923.239 169.541 923.464C168.696 923.682 167.914 924.152 167.195 924.874C166.467 925.605 166.004 926.386 165.807 927.215C165.593 928.045 165.64 928.886 165.948 929.74C166.24 930.593 166.792 931.425 167.606 932.236L170.046 934.67L189.944 914.683L196.867 921.585Z" fill="#5988FF"/>
<path d="M138.04 895.143C137.213 895.979 136.808 896.909 136.823 897.933C136.83 898.948 137.35 900.055 138.382 901.254C139.04 902.019 139.672 902.565 140.279 902.893C140.869 903.219 141.419 903.364 141.929 903.328C142.438 903.291 142.897 903.105 143.304 902.769C143.648 902.504 143.896 902.19 144.047 901.827C144.182 901.463 144.227 901.038 144.18 900.552C144.124 900.074 143.978 899.527 143.741 898.911C143.505 898.294 143.174 897.604 142.749 896.841L141.302 894.189C140.321 892.403 139.631 890.746 139.229 889.22C138.828 887.693 138.688 886.282 138.81 884.986C138.922 883.697 139.281 882.514 139.884 881.436C140.481 880.35 141.294 879.355 142.325 878.451C144.127 876.914 146.031 876.054 148.039 875.872C150.046 875.689 152.085 876.145 154.155 877.239C156.218 878.324 158.243 880.022 160.231 882.332C162.273 884.704 163.704 887.077 164.524 889.45C165.336 891.813 165.435 894.112 164.82 896.344C164.188 898.575 162.735 900.678 160.461 902.653L154.406 895.616C155.202 894.852 155.724 894.039 155.971 893.176C156.218 892.313 156.197 891.418 155.909 890.49C155.614 889.554 155.06 888.614 154.25 887.672C153.57 886.882 152.902 886.304 152.248 885.939C151.594 885.574 150.975 885.403 150.392 885.426C149.809 885.449 149.291 885.648 148.84 886.021C148.43 886.39 148.185 886.841 148.103 887.376C148.005 887.909 148.088 888.58 148.352 889.39C148.607 890.207 149.059 891.218 149.709 892.422L151.462 895.646C153.018 898.514 153.784 901.174 153.759 903.625C153.717 906.074 152.627 908.213 150.489 910.041C148.765 911.541 146.854 912.384 144.754 912.568C142.639 912.751 140.502 912.326 138.344 911.291C136.179 910.248 134.167 908.647 132.309 906.488C130.413 904.285 129.141 902.061 128.494 899.818C127.847 897.574 127.819 895.44 128.411 893.413C128.986 891.386 130.162 889.599 131.939 888.052L138.04 895.143Z" fill="#5988FF"/>
<path d="M94.1762 835.24C93.2422 835.954 92.712 836.819 92.5859 837.835C92.4533 838.842 92.8156 840.01 93.6726 841.341C94.2186 842.188 94.7696 842.816 95.3255 843.225C95.8653 843.63 96.3901 843.85 96.8998 843.884C97.4096 843.918 97.8892 843.796 98.3388 843.52C98.7158 843.305 99.0045 843.028 99.2047 842.69C99.3888 842.348 99.491 841.933 99.5116 841.445C99.5222 840.964 99.4529 840.402 99.3035 839.759C99.1542 839.116 98.9217 838.387 98.606 837.572L97.538 834.746C96.8133 832.841 96.3575 831.106 96.1704 829.538C95.9833 827.971 96.0393 826.554 96.3383 825.286C96.6275 824.026 97.1454 822.903 97.8918 821.92C98.6319 820.926 99.5749 820.052 100.721 819.299C102.717 818.026 104.721 817.437 106.735 817.533C108.749 817.63 110.705 818.362 112.605 819.732C114.498 821.091 116.27 823.052 117.921 825.615C119.616 828.246 120.706 830.794 121.191 833.257C121.67 835.71 121.451 838 120.534 840.126C119.601 842.249 117.873 844.131 115.348 845.774L110.32 837.968C111.214 837.321 111.843 836.588 112.207 835.767C112.57 834.947 112.673 834.057 112.516 833.098C112.352 832.13 111.934 831.123 111.261 830.079C110.696 829.201 110.114 828.537 109.517 828.085C108.919 827.634 108.33 827.379 107.749 827.321C107.168 827.264 106.628 827.389 106.13 827.697C105.673 828.005 105.368 828.418 105.213 828.936C105.043 829.451 105.033 830.127 105.182 830.965C105.322 831.81 105.631 832.873 106.108 834.156L107.401 837.591C108.546 840.647 108.938 843.386 108.576 845.811C108.197 848.231 106.823 850.199 104.453 851.714C102.539 852.962 100.529 853.533 98.4249 853.426C96.3042 853.315 94.2466 852.599 92.2518 851.277C90.2508 849.945 88.4789 848.081 86.9363 845.686C85.3619 843.242 84.4089 840.864 84.0772 838.553C83.7456 836.242 84.0123 834.124 84.8773 832.198C85.7261 830.27 87.137 828.662 89.1102 827.375L94.1762 835.24Z" fill="#5988FF"/>
<path d="M62.8263 803.387L58.1941 794.776L78.4983 783.837C80.9125 782.536 83.3128 781.989 85.6991 782.195C88.0696 782.396 90.2872 783.265 92.352 784.803C94.4064 786.346 96.164 788.476 97.6248 791.191C99.0967 793.927 99.9106 796.578 100.067 799.144C100.213 801.716 99.7167 804.047 98.5793 806.138C97.426 808.224 95.6423 809.918 93.2281 811.219L72.9238 822.157L68.2916 813.546L87.853 803.008C88.8332 802.48 89.5935 801.79 90.134 800.94C90.6642 800.095 90.9404 799.174 90.9627 798.176C90.9795 797.168 90.7241 796.174 90.1964 795.193C89.6632 794.202 88.9744 793.441 88.1301 792.911C87.2858 792.38 86.3652 792.103 85.3685 792.081C84.3614 792.064 83.3678 792.32 82.3877 792.848L62.8263 803.387Z" fill="#5988FF"/>
<path d="M85.3241 768.257L52.3861 782.785L46.1198 768.557C45.0424 766.11 44.5821 763.757 44.739 761.496C44.8959 759.236 45.6237 757.21 46.9225 755.42C48.2212 753.63 50.0393 752.219 52.3767 751.188C54.7355 750.148 57.0097 749.773 59.199 750.063C61.3837 750.342 63.3582 751.221 65.1228 752.698C66.8826 754.164 68.3154 756.153 69.4212 758.663L73.1639 767.162L66.216 770.226L63.2672 763.531C62.8041 762.479 62.2272 761.663 61.5366 761.084C60.8306 760.498 60.047 760.158 59.1859 760.064C58.3201 759.959 57.4208 760.112 56.488 760.524C55.5445 760.94 54.8301 761.498 54.3449 762.199C53.8443 762.894 53.5825 763.695 53.5594 764.602C53.5209 765.504 53.7333 766.48 54.1964 767.531L55.5857 770.686L81.3829 759.308L85.3241 768.257Z" fill="#5988FF"/>
<path d="M69.9204 732.302L35.9711 744.274L30.8074 729.609C29.9195 727.088 29.6399 724.706 29.9686 722.464C30.2973 720.222 31.1773 718.258 32.6087 716.572C34.0401 714.886 35.9604 713.619 38.3695 712.769C40.8008 711.912 43.0969 711.711 45.2578 712.168C47.4147 712.613 49.3166 713.639 50.9635 715.247C52.6064 716.843 53.8835 718.935 54.7948 721.523L57.879 730.282L50.7178 732.807L48.2878 725.906C47.9062 724.823 47.3931 723.965 46.7487 723.335C46.0893 722.697 45.3339 722.298 44.4826 722.138C43.6273 721.968 42.719 722.052 41.7575 722.391C40.785 722.734 40.0302 723.236 39.493 723.898C38.9408 724.553 38.6187 725.331 38.5266 726.234C38.4196 727.13 38.5569 728.12 38.9385 729.203L40.0834 732.455L66.6726 723.078L69.9204 732.302Z" fill="#5988FF"/>
<path d="M57.3533 695.229L22.6355 704.741L20.0551 695.309L47.1784 687.878L43.3356 673.831L50.9301 671.75L57.3533 695.229Z" fill="#5988FF"/>
<path d="M48.6303 662.148L13.3386 669.236L8.23433 643.782L15.9544 642.232L19.1359 658.097L25.2017 656.879L22.283 642.324L30.0031 640.774L32.9218 655.328L38.9875 654.11L35.8198 638.314L43.5399 636.763L48.6303 662.148Z" fill="#5988FF"/>
<path d="M3.48376 613.378L2.51219 601.245L22.1667 591.27L22.1331 590.849L1.1419 584.133L0.170334 572L36.0507 569.123L36.8145 578.661L16.0711 580.324L16.0936 580.605L37.1968 586.959L37.6573 592.709L17.6944 602.357L17.7169 602.637L38.6003 600.962L39.3641 610.5L3.48376 613.378Z" fill="#5988FF"/>
<path d="M35.9704 548.646L35.8075 559.199L0 546.753L0.206405 533.387L36.3811 522.055L36.2181 532.607L10.017 540.083L10.0126 540.364L35.9704 548.646ZM21.7404 550.397L22.0468 530.558L29.3575 530.672L29.0511 550.51L21.7404 550.397Z" fill="#5988FF"/>
<path d="M37.0752 512.75L1.25164 509.234L2.76801 493.76C3.02874 491.099 3.78164 488.822 5.02671 486.93C6.27178 485.037 7.89903 483.63 9.90846 482.708C11.9179 481.785 14.1937 481.449 16.7359 481.699C19.3013 481.95 21.4668 482.74 23.2322 484.068C24.9987 485.384 26.2886 487.119 27.1019 489.273C27.9163 491.415 28.1897 493.851 27.9221 496.582L27.0164 505.824L19.4599 505.083L20.1735 497.801C20.2856 496.657 20.1828 495.663 19.8652 494.819C19.5371 493.962 19.0211 493.281 18.3171 492.776C17.6142 492.259 16.7555 491.951 15.741 491.852C14.7148 491.751 13.8184 491.887 13.052 492.259C12.275 492.619 11.6541 493.188 11.1892 493.967C10.7138 494.734 10.4201 495.689 10.308 496.832L9.97181 500.263L38.0289 503.017L37.0752 512.75Z" fill="#5988FF"/>
<path d="M20.271 450.442C19.1008 450.332 18.1245 450.606 17.3423 451.266C16.5621 451.915 16.035 453.019 15.761 454.578C15.5865 455.571 15.5646 456.406 15.6953 457.084C15.8165 457.749 16.0527 458.266 16.4038 458.638C16.7549 459.009 17.1891 459.246 17.7064 459.349C18.1293 459.447 18.5291 459.44 18.9058 459.328C19.2729 459.202 19.6295 458.967 19.9754 458.623C20.3099 458.277 20.6405 457.818 20.9673 457.244C21.2942 456.671 21.6182 455.978 21.9395 455.165L23.0741 452.365C23.8345 450.474 24.678 448.89 25.6044 447.613C26.5309 446.335 27.5338 445.333 28.6133 444.606C29.6813 443.878 30.823 443.406 32.0386 443.191C33.2561 442.965 34.541 442.965 35.8932 443.191C38.2223 443.613 40.0932 444.543 41.5059 445.983C42.9185 447.422 43.8573 449.29 44.3223 451.586C44.7892 453.871 44.7589 456.514 44.2312 459.517C43.6893 462.601 42.7606 465.211 41.445 467.349C40.1315 469.475 38.4168 471.007 36.301 471.944C34.1756 472.868 31.629 473.075 28.6612 472.564L30.2686 463.417C31.3635 463.551 32.3229 463.44 33.1467 463.085C33.9705 462.73 34.65 462.147 35.185 461.336C35.7221 460.514 36.0982 459.491 36.3134 458.266C36.494 457.239 36.5183 456.356 36.3861 455.618C36.254 454.881 35.9944 454.293 35.6073 453.856C35.2201 453.419 34.739 453.144 34.1641 453.031C33.6197 452.947 33.115 453.042 32.6503 453.318C32.176 453.58 31.7093 454.069 31.2501 454.786C30.7795 455.501 30.2842 456.491 29.7644 457.757L28.3817 461.157C27.1488 464.178 25.5767 466.455 23.6656 467.988C21.7449 469.507 19.4007 470.017 16.6331 469.518C14.3808 469.134 12.5187 468.187 11.047 466.678C9.56568 465.155 8.54166 463.231 7.9749 460.905C7.41016 458.567 7.37438 455.995 7.86756 453.189C8.37089 450.324 9.28515 447.932 10.6103 446.01C11.9355 444.088 13.5688 442.715 15.5103 441.89C17.4422 441.051 19.569 440.83 21.8906 441.227L20.271 450.442Z" fill="#5988FF"/>
<path d="M38.8183 378.535C37.6745 378.264 36.6697 378.401 35.804 378.947C34.9419 379.482 34.2677 380.502 33.7815 382.008C33.4717 382.968 33.3349 383.793 33.3709 384.482C33.3995 385.157 33.562 385.702 33.8586 386.118C34.1552 386.535 34.5526 386.829 35.0507 387.003C35.4561 387.158 35.853 387.207 36.2415 387.147C36.6225 387.073 37.008 386.89 37.3981 386.597C37.777 386.301 38.1678 385.891 38.5706 385.368C38.9733 384.845 39.3898 384.203 39.8199 383.443L41.3297 380.826C42.3434 379.059 43.397 377.606 44.4907 376.469C45.5844 375.331 46.7159 374.477 47.8852 373.906C49.0434 373.332 50.2392 373.022 51.4727 372.977C52.7098 372.921 53.9825 373.099 55.2906 373.509C57.5393 374.248 59.264 375.428 60.4649 377.049C61.6657 378.669 62.3381 380.649 62.4821 382.987C62.6297 385.315 62.2353 387.929 61.2989 390.83C60.3372 393.809 59.0576 396.267 57.46 398.203C55.866 400.127 53.9566 401.408 51.7318 402.044C49.4995 402.665 46.9488 402.519 44.0796 401.603L46.9322 392.766C47.9983 393.049 48.9638 393.072 49.8287 392.834C50.6935 392.596 51.4468 392.112 52.0885 391.383C52.7338 390.643 53.2473 389.681 53.6291 388.498C53.9496 387.505 54.0953 386.634 54.0661 385.886C54.0369 385.137 53.8607 384.519 53.5375 384.033C53.2143 383.546 52.7758 383.207 52.2219 383.016C51.6943 382.858 51.1813 382.883 50.683 383.091C50.1771 383.285 49.6475 383.706 49.0939 384.352C48.5293 384.995 47.9023 385.908 47.2129 387.09L45.3749 390.266C43.7374 393.089 41.8665 395.127 39.7624 396.382C37.6506 397.621 35.2586 397.803 32.5862 396.927C30.4084 396.235 28.6946 395.04 27.4449 393.342C26.1876 391.63 25.4386 389.582 25.1978 387.2C24.9607 384.807 25.2797 382.254 26.1549 379.543C27.0482 376.776 28.2835 374.532 29.8608 372.811C31.4382 371.091 33.2452 369.956 35.2818 369.407C37.3108 368.843 39.4477 368.917 41.6925 369.631L38.8183 378.535Z" fill="#5988FF"/>
<path d="M43.5992 334.082L47.3251 325.041L68.6428 333.84C71.1775 334.886 73.1209 336.398 74.4728 338.377C75.8184 340.34 76.5504 342.608 76.6687 345.181C76.7763 347.75 76.2426 350.46 75.0677 353.311C73.8838 356.183 72.3491 358.493 70.4635 360.238C68.5671 361.98 66.4502 363.072 64.1128 363.515C61.7691 363.943 59.3299 363.634 56.7952 362.588L35.4775 353.79L39.2033 344.749L59.7411 353.225C60.7702 353.65 61.7847 353.803 62.7847 353.683C63.774 353.558 64.6613 353.189 65.4469 352.574C66.2369 351.949 66.8441 351.121 67.2685 350.092C67.6974 349.051 67.8496 348.036 67.7253 347.046C67.6009 346.056 67.2317 345.168 66.6178 344.382C65.993 343.591 65.1661 342.983 64.137 342.559L43.5992 334.082Z" fill="#5988FF"/>
<path d="M85.014 329.261L52.9199 312.95L59.9549 299.087C61.1645 296.703 62.6931 294.856 64.5406 293.546C66.3881 292.236 68.4153 291.517 70.6222 291.389C72.8291 291.262 75.0714 291.776 77.3489 292.934C79.6473 294.102 81.3775 295.626 82.5396 297.505C83.707 299.374 84.2783 301.46 84.2534 303.762C84.2339 306.053 83.6034 308.422 82.3619 310.869L78.16 319.149L71.3902 315.709L74.7008 309.185C75.2207 308.16 75.4861 307.197 75.497 306.295C75.5027 305.377 75.2694 304.555 74.797 303.828C74.33 303.091 73.6421 302.492 72.7331 302.03C71.8138 301.563 70.9294 301.363 70.0801 301.431C69.2256 301.484 68.4403 301.788 67.7242 302.345C67.0029 302.886 66.3823 303.668 65.8623 304.693L64.3025 307.767L89.4388 320.541L85.014 329.261Z" fill="#5988FF"/>
<path d="M103.065 294.56L72.3069 275.848L80.3779 262.562C81.7656 260.277 83.4305 258.552 85.3724 257.387C87.3143 256.222 89.3904 255.66 91.6007 255.701C93.8109 255.742 96.0074 256.426 98.1901 257.754C100.393 259.094 102.002 260.746 103.017 262.708C104.039 264.661 104.45 266.784 104.249 269.077C104.055 271.361 103.246 273.675 101.822 276.02L97.0011 283.955L90.5132 280.008L94.3113 273.756C94.9078 272.774 95.2458 271.834 95.3254 270.935C95.401 270.021 95.231 269.183 94.8154 268.422C94.406 267.652 93.7657 267.002 92.8946 266.472C92.0135 265.936 91.147 265.669 90.2949 265.672C89.4389 265.659 88.6327 265.903 87.8762 266.403C87.1158 266.887 86.4374 267.621 85.8409 268.602L84.0514 271.548L108.141 286.204L103.065 294.56Z" fill="#5988FF"/>
<path d="M123.777 261.35L94.4348 240.485L100.095 232.513L123.019 248.814L131.448 236.942L137.867 241.507L123.777 261.35Z" fill="#5988FF"/>
<path d="M143.836 233.645L116.005 210.8L132.458 190.727L138.546 195.724L128.291 208.236L133.074 212.162L142.482 200.684L148.57 205.682L139.162 217.16L143.946 221.086L154.156 208.629L160.244 213.627L143.836 233.645Z" fill="#5988FF"/>
<path d="M152.962 167.793L161.73 159.357L181.891 168.263L182.195 167.97L174.096 147.459L182.863 139.024L207.811 164.991L200.918 171.622L186.495 156.61L186.293 156.805L194.743 177.173L190.587 181.172L170.485 171.82L170.282 172.015L184.802 187.129L177.91 193.76L152.962 167.793Z" fill="#5988FF"/>
<path d="M223.595 151.962L215.332 158.518L202.28 122.904L212.748 114.599L244.42 135.44L236.156 141.996L213.782 126.438L213.562 126.613L223.595 151.962ZM213.23 142.049L228.766 129.723L233.308 135.457L217.773 147.783L213.23 142.049Z" fill="#5988FF"/>
<path d="M252.056 130.086L232.089 100.114L245.016 91.4886C247.239 90.0055 249.476 89.1469 251.728 88.9127C253.981 88.6785 256.099 89.0475 258.085 90.0199C260.071 90.9923 261.772 92.5419 263.189 94.6688C264.619 96.8153 265.379 98.9926 265.47 101.201C265.571 103.403 265.046 105.5 263.896 107.494C262.755 109.481 261.044 111.236 258.763 112.758L251.042 117.909L246.83 111.587L252.913 107.528C253.869 106.891 254.572 106.182 255.024 105.401C255.479 104.604 255.679 103.774 255.624 102.908C255.578 102.037 255.273 101.177 254.707 100.328C254.135 99.4693 253.462 98.8611 252.689 98.5034C251.919 98.1294 251.085 98.0091 250.188 98.1425C249.295 98.2596 248.37 98.6369 247.415 99.2743L244.548 101.187L260.187 124.661L252.056 130.086Z" fill="#5988FF"/>
<path d="M289.6 77.6127C288.944 76.6362 288.114 76.054 287.108 75.8662C286.112 75.6726 284.925 75.9633 283.546 76.7385C282.667 77.2322 282.007 77.7444 281.565 78.2749C281.129 78.7894 280.878 79.3002 280.813 79.8074C280.748 80.3145 280.84 80.801 281.088 81.2668C281.279 81.6566 281.538 81.9618 281.863 82.1824C282.193 82.387 282.601 82.5144 283.086 82.5646C283.565 82.6045 284.13 82.5694 284.78 82.4594C285.431 82.3493 286.172 82.1614 287.004 81.8956L289.888 81.0008C291.832 80.3928 293.591 80.0431 295.165 79.9516C296.74 79.86 298.15 80.0022 299.396 80.378C300.636 80.7436 301.724 81.3292 302.659 82.1347C303.605 82.9344 304.419 83.9295 305.101 85.12C306.249 87.191 306.715 89.2293 306.496 91.2348C306.278 93.2404 305.428 95.1503 303.946 96.9646C302.475 98.7732 300.411 100.424 297.755 101.917C295.027 103.45 292.42 104.384 289.934 104.719C287.458 105.048 285.187 104.69 283.123 103.644C281.062 102.583 279.29 100.742 277.805 98.12L285.897 93.5726C286.487 94.505 287.18 95.1777 287.977 95.5909C288.773 96.0041 289.654 96.1612 290.62 96.0623C291.596 95.9576 292.625 95.6009 293.708 94.9923C294.617 94.4813 295.315 93.9411 295.802 93.3716C296.289 92.8022 296.579 92.2291 296.672 91.6524C296.765 91.0757 296.673 90.5288 296.396 90.0119C296.116 89.5371 295.723 89.2069 295.216 89.0213C294.713 88.8197 294.039 88.7682 293.194 88.8666C292.343 88.9548 291.263 89.1983 289.955 89.5973L286.45 90.6794C283.333 91.6379 280.576 91.8624 278.18 91.3529C275.789 90.8275 273.91 89.335 272.543 86.8755C271.414 84.8875 270.967 82.8457 271.203 80.7501C271.442 78.6386 272.282 76.6268 273.722 74.7147C275.172 72.7969 277.139 71.1404 279.621 69.7452C282.155 68.3212 284.584 67.5139 286.91 67.3233C289.235 67.1327 291.332 67.5279 293.199 68.5091C295.071 69.4743 296.589 70.9815 297.752 73.0309L289.6 77.6127Z" fill="#5988FF"/>
<path d="M356.954 46.4406C356.44 45.383 355.697 44.6917 354.727 44.3669C353.768 44.0377 352.552 44.1618 351.079 44.7391C350.14 45.1069 349.416 45.5231 348.906 45.9876C348.402 46.4369 348.083 46.9082 347.949 47.4015C347.815 47.8949 347.839 48.3893 348.02 48.8849C348.156 49.2975 348.371 49.6354 348.662 49.8988C348.961 50.147 349.347 50.3295 349.82 50.4461C350.29 50.5518 350.854 50.595 351.513 50.5758C352.173 50.5566 352.933 50.4728 353.793 50.3244L356.773 49.8362C358.782 49.5023 360.572 49.3986 362.145 49.5253C363.717 49.652 365.094 49.9874 366.276 50.5316C367.454 51.0648 368.451 51.7949 369.266 52.7219C370.093 53.6446 370.762 54.7425 371.273 56.0156C372.125 58.2254 372.305 60.3084 371.812 62.2646C371.32 64.2209 370.214 65.9952 368.497 67.5877C366.791 69.176 364.519 70.526 361.683 71.638C358.77 72.7799 356.059 73.345 353.55 73.3336C351.052 73.3178 348.853 72.6498 346.952 71.3297C345.058 69.9943 343.556 67.9258 342.447 65.124L351.087 61.7369C351.544 62.7419 352.138 63.5039 352.869 64.023C353.601 64.5422 354.452 64.8194 355.422 64.8547C356.403 64.8857 357.472 64.6745 358.629 64.2212C359.6 63.8406 360.365 63.4018 360.926 62.905C361.487 62.4082 361.853 61.8806 362.024 61.3223C362.196 60.7639 362.18 60.2096 361.977 59.6594C361.766 59.1505 361.421 58.7691 360.944 58.5153C360.474 58.2463 359.814 58.1022 358.963 58.083C358.108 58.0529 357.005 58.1451 355.655 58.3597L352.034 58.9478C348.815 59.4669 346.053 59.3088 343.751 58.4735C341.455 57.623 339.799 55.8854 338.785 53.2608C337.941 51.136 337.779 49.052 338.301 47.0089C338.829 44.9506 339.938 43.0739 341.628 41.3788C343.329 39.6795 345.504 38.3103 348.156 37.271C350.861 36.2104 353.379 35.7462 355.708 35.8783C358.038 36.0104 360.06 36.6913 361.774 37.9208C363.495 39.1352 364.791 40.8375 365.661 43.0278L356.954 46.4406Z" fill="#5988FF"/>
<path d="M394.36 21.9927L403.712 19.1531L410.407 41.2356C411.203 43.8613 411.264 46.3242 410.59 48.6243C409.924 50.9097 408.634 52.913 406.719 54.6341C404.801 56.344 402.367 57.6466 399.418 58.5421C396.447 59.4444 393.689 59.7182 391.145 59.3634C388.597 58.9974 386.412 58.0496 384.589 56.52C382.774 54.9758 381.468 52.8909 380.672 50.2652L373.976 28.1827L383.327 25.3431L389.778 46.6177C390.101 47.6837 390.626 48.5659 391.352 49.2645C392.075 49.9518 392.922 50.4051 393.895 50.6245C394.879 50.8404 395.903 50.7866 396.969 50.4631C398.045 50.1363 398.926 49.6112 399.613 48.888C400.3 48.1648 400.753 47.3165 400.972 46.3431C401.188 45.3586 401.134 44.3333 400.811 43.2673L394.36 21.9927Z" fill="#5988FF"/>
<path d="M424.317 51.0155L416.606 15.8295L431.782 12.4987C434.392 11.926 436.788 11.9403 438.971 12.5416C441.154 13.1429 442.994 14.2578 444.49 15.8861C445.987 17.5144 447.008 19.5771 447.556 22.074C448.108 24.5938 448.025 26.8989 447.308 28.9891C446.602 31.0768 445.351 32.8399 443.555 34.2785C441.77 35.7146 439.539 36.7265 436.86 37.3143L427.796 39.3037L426.169 31.8816L433.311 30.3142C434.433 30.068 435.346 29.6636 436.05 29.1008C436.764 28.5241 437.252 27.8228 437.514 26.9968C437.789 26.1683 437.817 25.2558 437.598 24.2593C437.377 23.2514 436.972 22.4401 436.381 21.8254C435.8 21.1968 435.067 20.7814 434.183 20.5792C433.308 20.3631 432.309 20.3781 431.188 20.6243L427.823 21.3628L433.862 48.9206L424.317 51.0155Z" fill="#5988FF"/>
<path d="M462.582 43.0207L457.575 7.34858L472.962 5.18577C475.607 4.81389 477.995 5.01103 480.126 5.7772C482.257 6.54336 484.006 7.79535 485.374 9.53315C486.742 11.271 487.604 13.4056 487.959 15.937C488.318 18.4916 488.06 20.7836 487.185 22.813C486.322 24.8408 484.94 26.5033 483.04 27.8006C481.151 29.0963 478.849 29.935 476.134 30.3166L466.944 31.6084L465.888 24.0839L473.128 23.0661C474.265 22.9062 475.207 22.5726 475.952 22.0653C476.707 21.5447 477.247 20.8826 477.572 20.0791C477.909 19.274 478.006 18.3663 477.864 17.356C477.721 16.3342 477.378 15.4943 476.836 14.8363C476.304 14.1651 475.605 13.695 474.739 13.4259C473.883 13.1437 472.887 13.0825 471.749 13.2423L468.338 13.7219L472.26 41.6603L462.582 43.0207Z" fill="#5988FF"/>
<path d="M501.381 38.0309L498.936 2.0918L508.686 1.42744L510.596 29.5048L525.115 28.5154L525.65 36.3771L501.381 38.0309Z" fill="#5988FF"/>
<path d="M535.511 36.0222L535.553 0L561.495 0.0309654L561.486 7.91083L545.316 7.89153L545.309 14.0829L560.143 14.1006L560.134 21.9804L545.3 21.9627L545.292 28.154L561.392 28.1733L561.382 36.0531L535.511 36.0222Z" fill="#5988FF"/>
<path d="M592.216 1.38832L604.292 2.83665L610.173 24.0912L610.592 24.1414L621.325 4.87937L633.401 6.32769L629.117 42.094L619.624 40.9555L622.1 20.278L621.821 20.2446L611.421 39.6882L605.697 39.0017L600.199 17.5096L599.919 17.4761L597.426 38.2932L587.933 37.1547L592.216 1.38832Z" fill="#5988FF"/>
<path d="M649.19 46.0687L638.886 43.8203L658.164 11.1582L671.215 14.0062L675.154 51.7346L664.851 49.4862L662.715 22.3046L662.44 22.2447L649.19 46.0687ZM650.292 31.7634L669.662 35.9903L668.105 43.1394L648.734 38.9124L650.292 31.7634Z" fill="#5988FF"/>
<path d="M684.131 54.2573L694.665 19.8121L709.522 24.3624C712.076 25.1448 714.157 26.3339 715.765 27.9299C717.372 29.5258 718.428 31.4006 718.934 33.5543C719.439 35.7079 719.318 38.007 718.571 40.4513C717.816 42.9181 716.614 44.8859 714.964 46.3549C713.325 47.8273 711.371 48.7492 709.1 49.1208C706.841 49.4957 704.401 49.2817 701.779 48.4787L692.905 45.7609L695.127 38.4951L702.119 40.6364C703.217 40.9727 704.211 41.0687 705.1 40.9242C706.005 40.772 706.774 40.4005 707.408 39.8099C708.053 39.2227 708.525 38.4413 708.823 37.4658C709.125 36.4791 709.169 35.573 708.956 34.7474C708.757 33.914 708.323 33.1922 707.651 32.582C706.995 31.964 706.118 31.4868 705.02 31.1505L701.726 30.1417L693.475 57.1193L684.131 54.2573Z" fill="#5988FF"/>
<path d="M748.486 50.1045C748.826 48.9785 748.75 47.9665 748.259 47.0685C747.778 46.1748 746.801 45.4393 745.328 44.862C744.39 44.4942 743.576 44.3073 742.886 44.3014C742.212 44.2888 741.658 44.418 741.224 44.6889C740.791 44.9599 740.473 45.3389 740.27 45.8259C740.09 46.2214 740.018 46.6149 740.053 47.0066C740.104 47.3917 740.263 47.7879 740.531 48.1954C740.804 48.5919 741.189 49.0072 741.686 49.4413C742.183 49.8754 742.798 50.3305 743.53 50.8065L746.049 52.4738C747.75 53.5939 749.134 54.7347 750.202 55.8964C751.27 57.0581 752.053 58.2403 752.551 59.443C753.054 60.6349 753.29 61.8482 753.26 63.0831C753.24 64.3223 752.986 65.5827 752.497 66.8644C751.623 69.0656 750.341 70.7167 748.652 71.8176C746.962 72.9185 744.947 73.4697 742.606 73.4713C740.275 73.4771 737.692 72.9241 734.855 71.8121C731.942 70.6703 729.569 69.2425 727.736 67.5289C725.913 65.8196 724.752 63.8344 724.253 61.5734C723.769 59.3057 724.07 56.7667 725.158 53.9564L733.799 57.3436C733.451 58.3913 733.37 59.3543 733.555 60.2327C733.74 61.1111 734.176 61.893 734.864 62.5783C735.563 63.2679 736.491 63.8394 737.647 64.2927C738.618 64.6733 739.478 64.8718 740.227 64.8882C740.976 64.9046 741.602 64.7662 742.107 64.473C742.612 64.1797 742.977 63.7623 743.201 63.2207C743.391 62.7032 743.397 62.1893 743.22 61.6789C743.057 61.1618 742.67 60.6071 742.059 60.0149C741.452 59.4117 740.58 58.7299 739.443 57.9694L736.386 55.9401C733.671 54.1327 731.752 52.1399 730.629 49.9617C729.521 47.7769 729.485 45.3764 730.521 42.7603C731.344 40.627 732.64 38.9878 734.409 37.8428C736.194 36.6911 738.282 36.0675 740.672 35.9719C743.074 35.8807 745.6 36.3546 748.251 37.3939C750.957 38.4545 753.12 39.8249 754.74 41.5052C756.36 43.1855 757.382 45.0596 757.806 47.1274C758.245 49.1885 758.04 51.3185 757.192 53.5173L748.486 50.1045Z" fill="#5988FF"/>
<path d="M815.248 82.532C815.74 81.4636 815.805 80.4508 815.441 79.4936C815.088 78.5421 814.222 77.6788 812.843 76.9036C811.964 76.4099 811.184 76.1124 810.502 76.0113C809.835 75.9058 809.269 75.9573 808.802 76.1658C808.336 76.3744 807.968 76.7059 807.7 77.1602C807.467 77.527 807.341 77.9068 807.323 78.2997C807.32 78.688 807.423 79.1025 807.633 79.5431C807.848 79.9735 808.172 80.438 808.604 80.9365C809.037 81.4351 809.583 81.9706 810.243 82.5431L812.508 84.5421C814.038 85.8863 815.252 87.2073 816.149 88.5053C817.047 89.8033 817.66 91.0823 817.987 92.3423C818.321 93.5921 818.388 94.8264 818.187 96.0453C817.997 97.27 817.572 98.4833 816.911 99.6852C815.742 101.745 814.245 103.203 812.42 104.06C810.595 104.918 808.523 105.185 806.204 104.864C803.895 104.548 801.412 103.644 798.756 102.151C796.028 100.618 793.874 98.8761 792.295 96.9258C790.725 94.9813 789.849 92.8548 789.666 90.5465C789.499 88.2337 790.148 85.7606 791.612 83.1272L799.703 87.6746C799.215 88.6644 799.002 89.607 799.064 90.5025C799.126 91.398 799.45 92.2326 800.037 93.0064C800.635 93.7859 801.475 94.48 802.558 95.0886C803.467 95.5996 804.291 95.9149 805.03 96.0344C805.77 96.154 806.41 96.1034 806.95 95.8827C807.49 95.6619 807.909 95.2988 808.206 94.7933C808.466 94.3071 808.543 93.7989 808.437 93.2688C808.347 92.7342 808.04 92.1314 807.517 91.4605C806.998 90.7793 806.229 89.9836 805.207 89.0735L802.46 86.6417C800.02 84.4768 798.393 82.2381 797.581 79.9258C796.785 77.6089 797.08 75.2265 798.467 72.7784C799.576 70.779 801.085 69.3343 802.996 68.4445C804.922 67.5501 807.076 67.2206 809.457 67.4559C811.848 67.697 814.285 68.5151 816.767 69.9103C819.301 71.3343 821.254 72.9902 822.627 74.878C824 76.7658 824.754 78.763 824.889 80.8695C825.04 82.9716 824.544 85.053 823.401 87.1138L815.248 82.532Z" fill="#5988FF"/>
<path d="M857.842 96.02L865.96 101.464L853.123 120.634C851.596 122.914 849.73 124.521 847.525 125.455C845.335 126.387 842.969 126.656 840.425 126.263C837.888 125.86 835.34 124.8 832.78 123.083C830.2 121.353 828.242 119.391 826.905 117.195C825.575 114.99 824.924 112.698 824.952 110.317C824.997 107.933 825.783 105.602 827.309 103.322L840.146 84.1523L848.264 89.5965L835.897 108.065C835.277 108.991 834.927 109.956 834.846 110.961C834.773 111.956 834.959 112.899 835.405 113.791C835.861 114.69 836.552 115.449 837.476 116.07C838.411 116.696 839.375 117.047 840.369 117.121C841.364 117.194 842.306 117.008 843.198 116.561C844.096 116.105 844.855 115.414 845.475 114.489L857.842 96.02Z" fill="#5988FF"/>
<path d="M854.368 137.6L876.696 109.346L888.883 118.991C890.978 120.649 892.484 122.514 893.402 124.586C894.319 126.657 894.622 128.788 894.311 130.979C893.999 133.169 893.051 135.266 891.466 137.271C889.867 139.295 888.032 140.69 885.962 141.458C883.9 142.234 881.744 142.381 879.494 141.901C877.254 141.429 875.058 140.341 872.907 138.639L865.628 132.878L870.338 126.918L876.073 131.457C876.974 132.17 877.865 132.621 878.746 132.81C879.644 132.997 880.495 132.931 881.3 132.612C882.115 132.3 882.838 131.743 883.471 130.943C884.11 130.134 884.481 129.306 884.582 128.459C884.7 127.611 884.557 126.78 884.154 125.967C883.767 125.153 883.123 124.389 882.222 123.676L879.52 121.538L862.033 143.667L854.368 137.6Z" fill="#5988FF"/>
<path d="M884.783 162.175L909.199 135.707L920.615 146.254C922.578 148.068 923.938 150.042 924.695 152.178C925.452 154.313 925.592 156.461 925.114 158.621C924.636 160.781 923.531 162.8 921.799 164.678C920.05 166.574 918.114 167.826 915.991 168.433C913.876 169.049 911.715 169.031 909.509 168.381C907.31 167.739 905.204 166.487 903.189 164.626L896.371 158.326L901.521 152.743L906.893 157.706C907.737 158.486 908.591 159.004 909.455 159.26C910.336 159.515 911.19 159.514 912.017 159.257C912.853 159.007 913.617 158.508 914.308 157.759C915.008 157 915.44 156.203 915.606 155.367C915.788 154.529 915.709 153.69 915.369 152.849C915.045 152.008 914.461 151.197 913.617 150.417L911.086 148.079L891.963 168.809L884.783 162.175Z" fill="#5988FF"/>
<path d="M913.213 189.065L939.458 164.412L946.146 171.542L925.642 190.803L935.602 201.421L929.861 206.814L913.213 189.065Z" fill="#5988FF"/>
<path d="M936.379 214.226L964.264 191.448L980.668 211.559L974.569 216.542L964.344 204.006L959.551 207.922L968.931 219.422L962.831 224.405L953.451 212.904L948.658 216.819L958.839 229.301L952.739 234.284L936.379 214.226Z" fill="#5988FF"/>
<path d="M999.074 236.213L1005.6 246.483L992.888 264.497L993.115 264.853L1014.81 260.968L1021.34 271.238L990.963 290.571L985.831 282.497L1003.39 271.32L1003.24 271.083L981.616 275.341L978.523 270.473L991.662 252.604L991.511 252.367L973.833 263.619L968.702 255.545L999.074 236.213Z" fill="#5988FF"/>
<path d="M1000.6 308.633L995.815 299.23L1033.28 293.476L1039.34 305.387L1012.66 332.331L1007.88 322.927L1027.54 304.059L1027.42 303.809L1000.6 308.633ZM1012.36 300.428L1021.36 318.107L1014.84 321.428L1005.85 303.749L1012.36 300.428Z" fill="#5988FF"/>
<path d="M1016.4 340.882L1049.7 327.227L1055.59 341.615C1056.61 344.089 1057 346.454 1056.79 348.71C1056.57 350.965 1055.79 352.971 1054.45 354.726C1053.1 356.482 1051.25 357.844 1048.88 358.813C1046.5 359.791 1044.21 360.106 1042.03 359.758C1039.86 359.421 1037.9 358.491 1036.18 356.968C1034.46 355.456 1033.08 353.43 1032.04 350.891L1028.52 342.297L1035.55 339.417L1038.32 346.188C1038.76 347.251 1039.31 348.082 1039.99 348.679C1040.68 349.283 1041.45 349.644 1042.31 349.761C1043.17 349.888 1044.07 349.759 1045.02 349.372C1045.97 348.981 1046.7 348.442 1047.2 347.754C1047.72 347.072 1048.01 346.278 1048.05 345.372C1048.11 344.472 1047.93 343.491 1047.49 342.427L1046.19 339.237L1020.1 349.932L1016.4 340.882Z" fill="#5988FF"/>
<path d="M1060.36 388.095C1061.45 387.646 1062.18 386.946 1062.56 385.997C1062.95 385.058 1062.9 383.836 1062.42 382.33C1062.11 381.37 1061.73 380.621 1061.3 380.083C1060.88 379.553 1060.43 379.206 1059.95 379.042C1059.47 378.878 1058.97 378.871 1058.47 379.022C1058.05 379.133 1057.7 379.327 1057.42 379.602C1057.15 379.885 1056.94 380.26 1056.8 380.725C1056.67 381.188 1056.59 381.749 1056.57 382.409C1056.55 383.069 1056.58 383.833 1056.68 384.701L1056.98 387.708C1057.2 389.735 1057.19 391.529 1056.97 393.092C1056.75 394.655 1056.33 396.01 1055.71 397.158C1055.11 398.302 1054.32 399.253 1053.35 400.011C1052.38 400.781 1051.24 401.382 1049.94 401.815C1047.68 402.532 1045.59 402.585 1043.67 401.974C1041.75 401.363 1040.05 400.151 1038.57 398.339C1037.09 396.537 1035.88 394.186 1034.94 391.285C1033.98 388.306 1033.58 385.564 1033.74 383.058C1033.91 380.564 1034.71 378.408 1036.14 376.589C1037.59 374.778 1039.75 373.404 1042.61 372.467L1045.46 381.304C1044.43 381.699 1043.63 382.246 1043.07 382.945C1042.51 383.644 1042.18 384.477 1042.09 385.444C1042 386.423 1042.14 387.503 1042.52 388.686C1042.84 389.679 1043.24 390.471 1043.7 391.061C1044.16 391.651 1044.66 392.049 1045.21 392.254C1045.76 392.459 1046.31 392.478 1046.87 392.308C1047.39 392.128 1047.79 391.807 1048.07 391.346C1048.37 390.893 1048.56 390.242 1048.63 389.393C1048.71 388.541 1048.68 387.434 1048.55 386.072L1048.19 382.42C1047.86 379.172 1048.19 376.423 1049.16 374.174C1050.15 371.932 1051.98 370.385 1054.66 369.531C1056.83 368.817 1058.92 368.782 1060.93 369.428C1062.95 370.081 1064.75 371.303 1066.34 373.094C1067.93 374.896 1069.17 377.153 1070.04 379.864C1070.93 382.631 1071.24 385.175 1070.97 387.493C1070.7 389.812 1069.9 391.79 1068.56 393.428C1067.25 395.074 1065.47 396.264 1063.23 397L1060.36 388.095Z" fill="#5988FF"/>
<path d="M1077.56 460.338C1078.7 460.042 1079.52 459.451 1080.03 458.563C1080.55 457.687 1080.66 456.47 1080.39 454.911C1080.22 453.917 1079.95 453.124 1079.6 452.532C1079.26 451.949 1078.86 451.543 1078.4 451.314C1077.95 451.084 1077.46 451.01 1076.94 451.09C1076.5 451.142 1076.13 451.285 1075.82 451.519C1075.51 451.763 1075.26 452.105 1075.05 452.547C1074.85 452.986 1074.7 453.531 1074.59 454.182C1074.48 454.832 1074.41 455.594 1074.38 456.468L1074.27 459.488C1074.2 461.524 1073.95 463.301 1073.51 464.818C1073.08 466.336 1072.48 467.62 1071.71 468.672C1070.95 469.722 1070.04 470.555 1068.97 471.172C1067.9 471.8 1066.7 472.239 1065.35 472.488C1063.02 472.887 1060.94 472.651 1059.12 471.78C1057.3 470.91 1055.78 469.475 1054.56 467.475C1053.35 465.487 1052.47 462.991 1051.94 459.988C1051.4 456.905 1051.39 454.134 1051.89 451.675C1052.4 449.228 1053.49 447.203 1055.16 445.599C1056.85 444.005 1059.17 442.942 1062.13 442.408L1063.74 451.555C1062.67 451.803 1061.8 452.235 1061.15 452.85C1060.49 453.465 1060.05 454.245 1059.83 455.19C1059.6 456.146 1059.6 457.236 1059.81 458.461C1059.99 459.488 1060.27 460.326 1060.65 460.975C1061.02 461.623 1061.47 462.086 1061.98 462.365C1062.49 462.644 1063.04 462.738 1063.62 462.648C1064.16 462.541 1064.6 462.279 1064.94 461.862C1065.3 461.454 1065.57 460.834 1065.76 460.004C1065.96 459.171 1066.09 458.071 1066.14 456.704L1066.28 453.036C1066.41 449.775 1067.11 447.097 1068.39 445.004C1069.68 442.92 1071.71 441.64 1074.48 441.164C1076.73 440.756 1078.8 441.011 1080.7 441.927C1082.61 442.852 1084.23 444.312 1085.55 446.305C1086.88 448.309 1087.79 450.715 1088.28 453.521C1088.79 456.385 1088.74 458.947 1088.15 461.206C1087.56 463.465 1086.5 465.313 1084.95 466.752C1083.42 468.2 1081.5 469.134 1079.18 469.553L1077.56 460.338Z" fill="#5988FF"/>
<path d="M1094.1 501.869L1095.03 511.604L1072.08 513.802C1069.35 514.063 1066.93 513.635 1064.81 512.519C1062.7 511.413 1060.99 509.751 1059.69 507.532C1058.39 505.311 1057.6 502.666 1057.3 499.596C1057.01 496.503 1057.29 493.744 1058.14 491.318C1059 488.891 1060.36 486.935 1062.22 485.45C1064.09 483.975 1066.39 483.107 1069.12 482.846L1092.08 480.648L1093.01 490.383L1070.89 492.5C1069.78 492.606 1068.82 492.946 1067.99 493.52C1067.17 494.093 1066.56 494.835 1066.15 495.746C1065.75 496.668 1065.6 497.684 1065.7 498.793C1065.81 499.913 1066.15 500.882 1066.72 501.699C1067.29 502.516 1068.03 503.128 1068.94 503.535C1069.87 503.942 1070.88 504.092 1071.99 503.986L1094.1 501.869Z" fill="#5988FF"/>
<path d="M1059.75 525.51L1095.74 524.91L1096 540.457C1096.04 543.13 1095.55 545.478 1094.53 547.5C1093.51 549.523 1092.06 551.107 1090.16 552.252C1088.27 553.398 1086.05 553.992 1083.5 554.034C1080.92 554.077 1078.68 553.54 1076.77 552.423C1074.87 551.317 1073.39 549.741 1072.33 547.694C1071.28 545.659 1070.73 543.27 1070.69 540.527L1070.53 531.241L1078.12 531.114L1078.24 538.43C1078.26 539.579 1078.48 540.555 1078.89 541.357C1079.31 542.171 1079.9 542.789 1080.66 543.21C1081.42 543.643 1082.31 543.851 1083.33 543.834C1084.36 543.817 1085.23 543.58 1085.95 543.122C1086.68 542.676 1087.23 542.039 1087.61 541.212C1087.99 540.397 1088.18 539.414 1088.16 538.265L1088.1 534.818L1059.91 535.288L1059.75 525.51Z" fill="#5988FF"/>
<path d="M1060 564.629L1095.94 566.778L1095.01 582.299C1094.85 584.968 1094.18 587.271 1093.01 589.21C1091.84 591.149 1090.27 592.617 1088.29 593.615C1086.32 594.613 1084.06 595.036 1081.51 594.883C1078.94 594.729 1076.74 594.023 1074.93 592.763C1073.11 591.515 1071.76 589.83 1070.86 587.709C1069.97 585.6 1069.6 583.176 1069.77 580.437L1070.32 571.166L1077.9 571.62L1077.46 578.924C1077.39 580.071 1077.53 581.06 1077.88 581.892C1078.24 582.735 1078.79 583.396 1079.51 583.874C1080.23 584.364 1081.1 584.639 1082.12 584.7C1083.15 584.761 1084.04 584.591 1084.79 584.19C1085.55 583.801 1086.15 583.208 1086.59 582.412C1087.03 581.628 1087.29 580.663 1087.36 579.516L1087.56 576.074L1059.42 574.391L1060 564.629Z" fill="#5988FF"/>
<path d="M1057.21 603.677L1092.9 608.392L1091.62 618.087L1063.74 614.404L1061.84 628.843L1054.03 627.811L1057.21 603.677Z" fill="#5988FF"/>
<path d="M1052.43 637.554L1087.7 644.725L1082.54 670.167L1074.82 668.598L1078.04 652.74L1071.98 651.508L1069.02 666.055L1061.31 664.487L1064.26 649.939L1058.2 648.706L1054.99 664.495L1047.27 662.926L1052.43 637.554Z" fill="#5988FF"/>
<path d="M1075.13 700.034L1071.32 711.594L1049.33 713.156L1049.2 713.556L1065.94 727.897L1062.14 739.457L1027.95 728.176L1030.95 719.089L1050.71 725.61L1050.8 725.343L1033.81 711.292L1035.62 705.813L1057.75 704.674L1057.84 704.407L1037.95 697.841L1040.94 688.754L1075.13 700.034Z" fill="#5988FF"/>
<path d="M1020.09 747.079L1024.33 737.417L1052.5 762.792L1047.13 775.03L1009.4 771.428L1013.64 761.765L1040.68 765.05L1040.8 764.792L1020.09 747.079ZM1033.88 750.992L1025.9 769.157L1019.21 766.213L1027.18 748.049L1033.88 750.992Z" fill="#5988FF"/>
<path d="M1005.15 779.734L1036.8 796.884L1029.4 810.558C1028.13 812.909 1026.56 814.715 1024.67 815.975C1022.79 817.236 1020.75 817.901 1018.54 817.971C1016.33 818.041 1014.1 817.467 1011.85 816.25C1009.59 815.021 1007.9 813.453 1006.79 811.543C1005.67 809.644 1005.15 807.544 1005.24 805.244C1005.32 802.954 1006.01 800.602 1007.32 798.189L1011.73 790.022L1018.41 793.64L1014.93 800.074C1014.38 801.085 1014.09 802.041 1014.06 802.942C1014.03 803.859 1014.24 804.688 1014.69 805.426C1015.14 806.175 1015.81 806.793 1016.71 807.279C1017.62 807.77 1018.49 807.993 1019.34 807.947C1020.2 807.917 1020.99 807.634 1021.72 807.096C1022.46 806.574 1023.1 805.808 1023.65 804.798L1025.29 801.766L1000.5 788.333L1005.15 779.734Z" fill="#5988FF"/>
<path d="M996.478 843.684C997.514 844.241 998.52 844.367 999.497 844.062C1000.47 843.768 1001.38 842.955 1002.24 841.624C1002.78 840.777 1003.13 840.015 1003.27 839.34C1003.42 838.681 1003.4 838.112 1003.22 837.633C1003.04 837.154 1002.73 836.767 1002.3 836.471C1001.94 836.217 1001.57 836.068 1001.18 836.025C1000.79 835.999 1000.37 836.077 999.923 836.259C999.48 836.448 998.997 836.744 998.474 837.145C997.95 837.547 997.383 838.06 996.772 838.684L994.64 840.825C993.206 842.271 991.815 843.404 990.466 844.221C989.116 845.039 987.804 845.573 986.527 845.824C985.26 846.081 984.025 846.072 982.821 845.798C981.611 845.534 980.427 845.035 979.268 844.301C977.285 843.008 975.922 841.424 975.178 839.549C974.434 837.674 974.293 835.588 974.755 833.291C975.21 831.004 976.263 828.579 977.914 826.017C979.609 823.385 981.477 821.34 983.518 819.88C985.553 818.431 987.728 817.685 990.041 817.643C992.358 817.617 994.785 818.415 997.323 820.038L992.295 827.844C991.337 827.296 990.41 827.026 989.513 827.033C988.616 827.04 987.764 827.314 986.957 827.853C986.143 828.402 985.399 829.199 984.727 830.244C984.162 831.121 983.797 831.925 983.633 832.656C983.468 833.388 983.48 834.03 983.667 834.583C983.854 835.136 984.191 835.577 984.677 835.904C985.147 836.193 985.649 836.301 986.184 836.227C986.723 836.17 987.342 835.901 988.043 835.418C988.754 834.942 989.595 834.222 990.565 833.257L993.157 830.66C995.465 828.354 997.797 826.866 1000.15 826.195C1002.51 825.541 1004.87 825.981 1007.23 827.516C1009.15 828.745 1010.5 830.34 1011.27 832.303C1012.05 834.281 1012.25 836.453 1011.87 838.817C1011.48 841.191 1010.52 843.575 1008.97 845.97C1007.4 848.414 1005.63 850.265 1003.66 851.521C1001.7 852.778 999.659 853.409 997.55 853.416C995.444 853.439 993.398 852.817 991.412 851.549L996.478 843.684Z" fill="#5988FF"/>
<path d="M951.503 902.756C952.452 903.45 953.431 903.714 954.441 903.547C955.443 903.389 956.46 902.71 957.492 901.511C958.149 900.747 958.595 900.04 958.829 899.39C959.064 898.758 959.126 898.192 959.014 897.693C958.902 897.194 958.65 896.768 958.258 896.415C957.945 896.114 957.598 895.915 957.217 895.819C956.837 895.739 956.411 895.759 955.938 895.877C955.473 896.003 954.954 896.229 954.38 896.555C953.807 896.88 953.174 897.31 952.483 897.844L950.076 899.67C948.457 900.905 946.923 901.834 945.474 902.458C944.025 903.082 942.651 903.429 941.352 903.502C940.061 903.581 938.839 903.402 937.685 902.965C936.523 902.536 935.419 901.878 934.372 900.992C932.587 899.437 931.454 897.68 930.976 895.72C930.497 893.761 930.645 891.675 931.419 889.464C932.186 887.262 933.563 885.005 935.551 882.695C937.592 880.323 939.724 878.555 941.947 877.391C944.163 876.236 946.419 875.797 948.716 876.075C951.015 876.369 953.309 877.495 955.598 879.452L949.542 886.49C948.67 885.815 947.788 885.419 946.899 885.302C946.01 885.186 945.128 885.339 944.254 885.762C943.372 886.194 942.526 886.88 941.716 887.822C941.035 888.613 940.563 889.359 940.3 890.061C940.036 890.762 939.959 891.4 940.068 891.974C940.178 892.547 940.45 893.03 940.887 893.422C941.312 893.772 941.794 893.948 942.334 893.95C942.876 893.967 943.527 893.786 944.288 893.405C945.058 893.031 945.989 892.434 947.083 891.612L950.008 889.398C952.612 887.433 955.127 886.28 957.552 885.941C959.979 885.619 962.254 886.38 964.378 888.225C966.117 889.709 967.233 891.475 967.726 893.525C968.221 895.592 968.118 897.77 967.416 900.059C966.706 902.357 965.423 904.585 963.565 906.744C961.669 908.948 959.66 910.536 957.539 911.51C955.418 912.483 953.313 912.827 951.223 912.542C949.134 912.274 947.194 911.376 945.401 909.847L951.503 902.756Z" fill="#5988FF"/>
<path d="M929.86 941.869L922.921 948.755L906.685 932.368C904.754 930.42 903.55 928.271 903.071 925.922C902.592 923.591 902.797 921.216 903.685 918.798C904.582 916.389 906.125 914.099 908.313 911.928C910.518 909.74 912.828 908.208 915.242 907.331C917.666 906.462 920.04 906.277 922.366 906.776C924.692 907.292 926.82 908.524 928.751 910.473L944.987 926.86L938.048 933.745L922.406 917.958C921.622 917.167 920.746 916.632 919.778 916.355C918.818 916.085 917.857 916.081 916.894 916.342C915.924 916.612 915.043 917.139 914.253 917.923C913.454 918.716 912.92 919.592 912.651 920.553C912.382 921.514 912.378 922.475 912.639 923.438C912.908 924.41 913.434 925.291 914.218 926.082L929.86 941.869Z" fill="#5988FF"/>
<path d="M889.82 930.231L913.075 957.726L901.216 967.772C899.177 969.499 897.052 970.608 894.842 971.098C892.631 971.588 890.484 971.463 888.4 970.724C886.317 969.985 884.45 968.639 882.8 966.688C881.134 964.719 880.13 962.643 879.788 960.46C879.437 958.284 879.719 956.14 880.634 954.028C881.541 951.923 883.04 949.985 885.133 948.212L892.216 942.212L897.122 948.012L891.541 952.739C890.665 953.481 890.047 954.266 889.687 955.093C889.326 955.937 889.222 956.785 889.376 957.638C889.52 958.499 889.922 959.319 890.58 960.097C891.247 960.885 891.984 961.412 892.793 961.679C893.601 961.963 894.443 961.987 895.319 961.752C896.194 961.534 897.069 961.053 897.945 960.311L900.575 958.084L882.361 936.549L889.82 930.231Z" fill="#5988FF"/>
<path d="M859.73 955.204L880.823 984.393L868.233 993.505C866.068 995.071 863.865 996.014 861.623 996.334C859.382 996.654 857.25 996.366 855.229 995.47C853.208 994.574 851.449 993.09 849.952 991.019C848.442 988.928 847.599 986.781 847.424 984.578C847.24 982.382 847.684 980.266 848.758 978.23C849.822 976.201 851.465 974.382 853.687 972.774L861.207 967.332L865.656 973.49L859.731 977.777C858.801 978.451 858.125 979.186 857.703 979.983C857.279 980.797 857.111 981.635 857.199 982.497C857.277 983.366 857.615 984.214 858.213 985.041C858.817 985.877 859.512 986.459 860.299 986.787C861.083 987.131 861.92 987.22 862.811 987.052C863.7 986.901 864.61 986.489 865.54 985.816L868.332 983.796L851.812 960.934L859.73 955.204Z" fill="#5988FF"/>
<path d="M827.765 977.769L846.718 1008.39L838.41 1013.54L823.604 989.618L811.231 997.286L807.085 990.587L827.765 977.769Z" fill="#5988FF"/>
<path d="M798.535 995.515L815.327 1027.38L792.381 1039.49L788.708 1032.52L803.01 1024.97L800.124 1019.49L787.003 1026.42L783.33 1019.45L796.451 1012.52L793.564 1007.05L779.324 1014.56L775.651 1007.59L798.535 995.515Z" fill="#5988FF"/>
<path d="M764.591 1052.66L753.239 1057.03L738.11 1041L737.717 1041.15L737.229 1063.2L725.878 1067.57L712.953 1033.95L721.877 1030.51L729.349 1049.95L729.611 1049.85L729.72 1027.79L735.101 1025.72L750.002 1042.15L750.265 1042.05L742.743 1022.48L751.666 1019.04L764.591 1052.66Z" fill="#5988FF"/>
<path d="M693.354 1039.83L703.512 1036.99L701.732 1074.88L688.865 1078.47L667.755 1046.97L677.913 1044.13L692.501 1067.16L692.772 1067.09L693.354 1039.83ZM699.063 1052.99L679.966 1058.31L678.002 1051.27L697.1 1045.94L699.063 1052.99Z" fill="#5988FF"/>
<path d="M658.64 1048.94L665.422 1084.31L650.163 1087.24C647.54 1087.75 645.144 1087.67 642.978 1087.01C640.812 1086.35 639.002 1085.19 637.549 1083.52C636.096 1081.86 635.129 1079.77 634.647 1077.26C634.162 1074.72 634.305 1072.42 635.077 1070.35C635.838 1068.28 637.135 1066.55 638.968 1065.16C640.79 1063.77 643.047 1062.82 645.74 1062.3L654.854 1060.55L656.284 1068.02L649.104 1069.39C647.976 1069.61 647.053 1069.99 646.334 1070.54C645.605 1071.09 645.099 1071.78 644.815 1072.6C644.519 1073.42 644.467 1074.33 644.659 1075.33C644.853 1076.35 645.237 1077.17 645.811 1077.8C646.376 1078.44 647.098 1078.88 647.976 1079.1C648.845 1079.34 649.844 1079.35 650.971 1079.14L654.355 1078.49L649.043 1050.78L658.64 1048.94Z" fill="#5988FF"/>
<path d="M603.693 1082.72C603.919 1083.88 604.459 1084.73 605.313 1085.3C606.155 1085.86 607.362 1086.06 608.934 1085.88C609.935 1085.76 610.742 1085.55 611.355 1085.23C611.957 1084.93 612.386 1084.55 612.643 1084.11C612.899 1083.67 613.003 1083.18 612.955 1082.66C612.93 1082.22 612.81 1081.84 612.595 1081.51C612.371 1081.2 612.044 1080.92 611.617 1080.69C611.191 1080.46 610.656 1080.28 610.014 1080.13C609.372 1079.97 608.616 1079.86 607.746 1079.78L604.741 1079.49C602.714 1079.29 600.957 1078.93 599.47 1078.4C597.984 1077.88 596.739 1077.2 595.737 1076.37C594.736 1075.55 593.96 1074.59 593.41 1073.48C592.848 1072.38 592.484 1071.14 592.317 1069.78C592.062 1067.43 592.423 1065.37 593.402 1063.6C594.381 1061.84 595.905 1060.41 597.974 1059.31C600.031 1058.22 602.573 1057.5 605.6 1057.15C608.709 1056.8 611.474 1056.95 613.895 1057.61C616.305 1058.27 618.258 1059.48 619.756 1061.24C621.244 1063.02 622.163 1065.41 622.515 1068.4L613.294 1069.45C613.112 1068.36 612.734 1067.47 612.16 1066.78C611.586 1066.09 610.835 1065.6 609.907 1065.32C608.966 1065.04 607.879 1064.97 606.645 1065.11C605.609 1065.23 604.756 1065.45 604.087 1065.79C603.417 1066.12 602.928 1066.54 602.619 1067.03C602.31 1067.53 602.182 1068.07 602.237 1068.65C602.311 1069.2 602.545 1069.66 602.941 1070.03C603.326 1070.41 603.927 1070.72 604.744 1070.95C605.563 1071.2 606.652 1071.4 608.012 1071.54L611.662 1071.9C614.907 1072.23 617.535 1073.09 619.545 1074.49C621.545 1075.9 622.699 1078.01 623.005 1080.81C623.274 1083.08 622.895 1085.13 621.865 1086.97C620.826 1088.83 619.272 1090.35 617.203 1091.56C615.123 1092.76 612.668 1093.52 609.839 1093.85C606.952 1094.18 604.4 1093.98 602.183 1093.25C599.966 1092.52 598.187 1091.34 596.846 1089.71C595.495 1088.1 594.68 1086.12 594.403 1083.78L603.693 1082.72Z" fill="#5988FF"/>
</svg>
