<svg width="1253" height="1253" viewBox="0 0 1253 1253" fill="none" xmlns="http://www.w3.org/2000/svg">
<path d="M253.337 138.019C252.543 137.151 251.635 136.699 250.612 136.662C249.599 136.619 248.467 137.082 247.218 138.053C246.422 138.672 245.845 139.276 245.487 139.866C245.131 140.44 244.958 140.982 244.969 141.493C244.98 142.004 245.143 142.471 245.457 142.895C245.705 143.252 246.006 143.515 246.361 143.685C246.717 143.838 247.139 143.904 247.627 143.881C248.107 143.849 248.661 143.731 249.288 143.526C249.915 143.32 250.62 143.025 251.404 142.638L254.125 141.326C255.957 140.436 257.645 139.829 259.19 139.505C260.734 139.181 262.15 139.112 263.438 139.299C264.719 139.476 265.882 139.894 266.927 140.551C267.982 141.201 268.934 142.064 269.785 143.14C271.229 145.017 271.991 146.963 272.073 148.978C272.154 150.993 271.596 153.007 270.4 155.021C269.212 157.027 267.416 158.965 265.009 160.835C262.538 162.755 260.097 164.065 257.687 164.766C255.286 165.458 252.987 165.441 250.789 164.715C248.594 163.971 246.567 162.414 244.71 160.042L252.04 154.346C252.762 155.18 253.548 155.742 254.397 156.033C255.246 156.323 256.141 156.348 257.082 156.106C258.032 155.858 258.997 155.353 259.979 154.59C260.802 153.95 261.413 153.313 261.81 152.677C262.207 152.042 262.409 151.433 262.415 150.849C262.422 150.265 262.25 149.738 261.899 149.268C261.552 148.84 261.114 148.572 260.584 148.464C260.057 148.339 259.383 148.388 258.561 148.611C257.732 148.824 256.7 149.225 255.466 149.814L252.159 151.404C249.217 152.814 246.523 153.445 244.077 153.297C241.634 153.133 239.553 151.936 237.837 149.707C236.425 147.91 235.68 145.958 235.602 143.851C235.525 141.728 236.058 139.615 237.199 137.511C238.349 135.4 240.049 133.47 242.298 131.722C244.594 129.939 246.877 128.78 249.15 128.247C251.422 127.713 253.554 127.793 255.548 128.485C257.543 129.162 259.268 130.426 260.723 132.28L253.337 138.019Z" fill="#5988FF"/>
<path d="M281.894 103.926L290.005 98.4696L302.881 117.61C304.412 119.886 305.192 122.222 305.221 124.618C305.254 126.997 304.607 129.29 303.28 131.497C301.947 133.694 300.001 135.652 297.443 137.373C294.866 139.107 292.308 140.177 289.771 140.585C287.227 140.982 284.859 140.717 282.667 139.79C280.479 138.847 278.619 137.237 277.088 134.961L264.212 115.821L272.324 110.364L284.728 128.804C285.35 129.728 286.11 130.418 287.009 130.872C287.902 131.317 288.846 131.502 289.84 131.426C290.844 131.344 291.808 130.992 292.732 130.37C293.666 129.742 294.355 128.982 294.8 128.089C295.245 127.197 295.43 126.253 295.354 125.259C295.272 124.254 294.92 123.29 294.298 122.366L281.894 103.926Z" fill="#5988FF"/>
<path d="M319.075 122.791L301.066 91.6093L314.525 83.8358C316.839 82.4992 319.128 81.7864 321.392 81.6975C323.655 81.6086 325.746 82.1129 327.666 83.2105C329.586 84.3081 331.185 85.9632 332.463 88.176C333.753 90.4091 334.372 92.63 334.321 94.8387C334.28 97.0416 333.622 99.1005 332.345 101.015C331.079 102.924 329.258 104.565 326.883 105.937L318.844 110.58L315.045 104.002L321.379 100.344C322.374 99.7694 323.122 99.1074 323.623 98.3578C324.128 97.5921 324.381 96.7761 324.381 95.9095C324.392 95.0371 324.142 94.1594 323.632 93.2763C323.116 92.3831 322.484 91.7332 321.735 91.3266C320.99 90.904 320.165 90.7305 319.261 90.8059C318.362 90.8653 317.414 91.1822 316.42 91.7567L313.436 93.4803L327.54 117.902L319.075 122.791Z" fill="#5988FF"/>
<path d="M353.166 103.5L337.264 71.1922L351.209 64.3282C353.606 63.1479 355.937 62.5885 358.202 62.6498C360.466 62.7111 362.519 63.353 364.362 64.5755C366.205 65.7979 367.691 67.5555 368.819 69.8481C369.958 72.1618 370.429 74.4189 370.232 76.6194C370.045 78.8147 369.251 80.8254 367.851 82.6514C366.461 84.4722 364.535 85.9883 362.074 87.1996L353.745 91.2994L350.391 84.4846L356.953 81.2544C357.984 80.7471 358.774 80.1361 359.324 79.4214C359.878 78.6909 360.185 77.8934 360.243 77.0288C360.311 76.159 360.12 75.2667 359.67 74.3517C359.214 73.4262 358.626 72.7358 357.906 72.2805C357.19 71.8095 356.379 71.5816 355.472 71.5969C354.571 71.5965 353.604 71.85 352.574 72.3573L349.482 73.8792L361.936 99.1824L353.166 103.5Z" fill="#5988FF"/>
<path d="M388.506 86.551L374.643 53.3175L383.666 49.5539L394.496 75.5175L407.932 69.9127L410.965 77.1825L388.506 86.551Z" fill="#5988FF"/>
<path d="M420.231 73.6168L408.39 39.6104L432.898 31.0765L435.488 38.5154L420.212 43.8346L422.247 49.6795L436.262 44.7996L438.852 52.2386L424.837 57.1184L426.873 62.9632L442.082 57.6671L444.673 65.106L420.231 73.6168Z" fill="#5988FF"/>
<path d="M461.866 22.1799L473.706 19.3772L486.549 37.2966L486.959 37.1994L490.405 15.4243L502.245 12.6216L510.54 47.6622L501.232 49.8655L496.437 29.6076L496.163 29.6724L493.091 51.5034L487.48 52.8319L474.915 34.5577L474.641 34.6226L479.469 55.0173L470.161 57.2206L461.866 22.1799Z" fill="#5988FF"/>
<path d="M530.802 44.2591L520.37 45.8304L526.76 8.4527L539.974 6.46237L557.09 40.2994L546.658 41.8707L534.983 17.2425L534.705 17.2844L530.802 44.2591ZM526.739 30.5042L546.35 27.5501L547.44 34.7828L527.828 37.7369L526.739 30.5042Z" fill="#5988FF"/>
<path d="M566.44 39.377L563.635 3.47742L579.131 2.26675C581.795 2.05858 584.168 2.40231 586.248 3.29793C588.329 4.19355 589.999 5.5504 591.258 7.3685C592.517 9.18659 593.246 11.3694 593.445 13.917C593.645 16.4879 593.247 18.7588 592.249 20.7298C591.262 22.6998 589.78 24.2735 587.803 25.4509C585.837 26.6273 583.487 27.3224 580.753 27.5361L571.497 28.2592L570.906 20.6866L578.198 20.1169C579.343 20.0274 580.303 19.7525 581.078 19.2922C581.864 18.8192 582.444 18.1919 582.818 17.4102C583.204 16.6276 583.357 15.728 583.278 14.7113C583.197 13.6829 582.907 12.8238 582.406 12.134C581.916 11.4315 581.247 10.9195 580.399 10.5977C579.562 10.2634 578.57 10.141 577.425 10.2305L573.99 10.4989L576.186 38.6156L566.44 39.377Z" fill="#5988FF"/>
<path d="M624.639 11.6897C624.532 10.5187 624.082 9.60956 623.289 8.96232C622.508 8.31494 621.326 8.00044 619.744 8.01883C618.736 8.03055 617.911 8.16322 617.269 8.41685C616.639 8.65863 616.174 8.9864 615.874 9.40017C615.574 9.81395 615.421 10.2846 615.415 10.8122C615.397 11.2461 615.478 11.6379 615.658 11.9875C615.849 12.3252 616.146 12.6324 616.548 12.9091C616.949 13.174 617.462 13.4142 618.086 13.6297C618.71 13.8452 619.45 14.0359 620.308 14.2017L623.269 14.8003C625.266 15.1991 626.978 15.7361 628.404 16.4111C629.831 17.0862 631.001 17.8873 631.914 18.8145C632.827 19.7299 633.502 20.7654 633.937 21.9208C634.384 23.0762 634.622 24.3394 634.649 25.7106C634.665 28.0784 634.096 30.0896 632.943 31.7441C631.79 33.3986 630.129 34.6664 627.959 35.5474C625.8 36.4282 623.197 36.8863 620.15 36.9217C617.021 36.9581 614.284 36.5269 611.941 35.628C609.61 34.7291 607.788 33.3259 606.476 31.4187C605.176 29.4996 604.503 27.034 604.456 24.0219L613.739 23.914C613.81 25.015 614.097 25.9378 614.598 26.6822C615.099 27.4266 615.797 27.9871 616.692 28.3635C617.599 28.7398 618.674 28.9207 619.916 28.9063C620.959 28.8942 621.831 28.7551 622.531 28.489C623.231 28.223 623.761 27.8593 624.119 27.398C624.477 26.9366 624.658 26.4129 624.663 25.8267C624.645 25.276 624.458 24.7975 624.101 24.3914C623.756 23.9734 623.19 23.6048 622.4 23.2858C621.611 22.955 620.547 22.6509 619.207 22.3734L615.612 21.6415C612.416 20.987 609.888 19.8617 608.029 18.2656C606.182 16.6577 605.248 14.4471 605.227 11.634C605.188 9.34853 605.775 7.34304 606.985 5.61748C608.208 3.88007 609.909 2.51807 612.09 1.53148C614.282 0.54476 616.802 0.0348465 619.651 0.0017435C622.557 -0.0320406 625.077 0.425156 627.21 1.37333C629.343 2.32151 630.994 3.67385 632.163 5.43036C633.344 7.175 633.954 9.22521 633.993 11.581L624.639 11.6897Z" fill="#5988FF"/>
<path d="M698.445 15.8769C698.478 14.7015 698.141 13.7449 697.431 13.0072C696.733 12.2708 695.598 11.8168 694.025 11.6452C693.022 11.5359 692.188 11.5687 691.52 11.7435C690.865 11.9079 690.364 12.1775 690.017 12.5523C689.67 12.9271 689.461 13.3761 689.392 13.8992C689.322 14.3278 689.355 14.7264 689.492 15.095C689.642 15.4533 689.899 15.7938 690.265 16.1167C690.632 16.4279 691.112 16.7279 691.705 17.0167C692.299 17.3054 693.011 17.5836 693.843 17.8512L696.711 18.8007C698.646 19.4362 700.281 20.1746 701.616 21.0159C702.951 21.8572 704.016 22.7928 704.812 23.8229C705.609 24.8413 706.154 25.9502 706.448 27.1496C706.753 28.3502 706.837 29.6328 706.7 30.9974C706.432 33.35 705.626 35.2784 704.283 36.7827C702.94 38.2869 701.138 39.3462 698.878 39.9605C696.629 40.576 693.99 40.7185 690.961 40.3881C687.849 40.0488 685.185 39.2924 682.966 38.1189C680.759 36.9468 679.119 35.3352 678.046 33.2844C676.985 31.2232 676.613 28.6946 676.928 25.6986L686.156 26.7052C686.095 27.8069 686.269 28.7573 686.677 29.5564C687.085 30.3556 687.711 30.9957 688.554 31.4768C689.41 31.9592 690.455 32.2678 691.69 32.4025C692.727 32.5156 693.609 32.4821 694.336 32.302C695.063 32.1219 695.632 31.8243 696.043 31.4093C696.454 30.9942 696.697 30.496 696.772 29.9146C696.82 29.3657 696.692 28.8683 696.387 28.4223C696.094 27.9659 695.576 27.5321 694.831 27.1206C694.087 26.6976 693.067 26.2679 691.77 25.8317L688.288 24.6738C685.194 23.6406 682.819 22.2202 681.165 20.4126C679.524 18.5947 678.862 16.288 679.179 13.4926C679.415 11.2191 680.237 9.29844 681.646 7.73061C683.068 6.15239 684.921 5.00435 687.204 4.28649C689.499 3.56991 692.062 3.36603 694.894 3.67485C697.784 3.99003 700.23 4.74622 702.234 5.94341C704.238 7.1406 705.714 8.68124 706.665 10.5653C707.627 12.439 707.987 14.5476 707.743 16.891L698.445 15.8769Z" fill="#5988FF"/>
<path d="M742.674 11.2469L752.297 12.9687L748.234 35.6764C747.751 38.3763 746.687 40.5973 745.042 42.3391C743.41 44.0715 741.35 45.2688 738.862 45.931C736.376 46.5817 733.616 46.6355 730.581 46.0925C727.523 45.5454 724.941 44.5357 722.835 43.0633C720.731 41.5794 719.214 39.742 718.284 37.5513C717.368 35.3512 717.152 32.9011 717.635 30.2011L721.698 7.49346L731.321 9.21532L727.406 31.0922C727.21 32.1883 727.277 33.2125 727.607 34.1646C727.939 35.1051 728.488 35.8941 729.255 36.5315C730.034 37.1709 730.971 37.5887 732.067 37.7849C733.175 37.9831 734.199 37.9162 735.14 37.5844C736.08 37.2526 736.869 36.7031 737.507 35.936C738.146 35.1573 738.564 34.2199 738.76 33.1237L742.674 11.2469Z" fill="#5988FF"/>
<path d="M756.265 50.663L765.016 15.7335L780.093 19.5107C782.685 20.1602 784.825 21.2402 786.513 22.7506C788.201 24.2611 789.353 26.0783 789.969 28.2022C790.585 30.3262 790.582 32.6276 789.961 35.1063C789.334 37.6077 788.235 39.6342 786.662 41.1856C785.1 42.7399 783.195 43.761 780.946 44.2489C778.708 44.7396 776.259 44.6517 773.599 43.9851L764.593 41.729L766.439 34.361L773.534 36.1386C774.649 36.4177 775.646 36.4623 776.528 36.2723C777.423 36.0737 778.173 35.6633 778.776 35.041C779.39 34.4215 779.821 33.6172 780.069 32.628C780.32 31.6274 780.317 30.7205 780.062 29.9073C779.821 29.0856 779.349 28.3874 778.647 27.8128C777.96 27.2296 777.059 26.7985 775.944 26.5193L772.601 25.6818L765.748 53.0387L756.265 50.663Z" fill="#5988FF"/>
<path d="M794.176 60.5162L805.223 26.2438L820.016 31.0123C822.56 31.8323 824.624 33.0517 826.208 34.6708C827.792 36.2898 828.821 38.1794 829.295 40.3395C829.768 42.4996 829.613 44.7957 828.829 47.2278C828.038 49.6822 826.806 51.6313 825.134 53.0751C823.473 54.5224 821.504 55.4149 819.228 55.7526C816.962 56.0939 814.525 55.8438 811.914 55.0023L803.078 52.1541L805.408 44.9247L812.37 47.1687C813.463 47.5212 814.456 47.6318 815.348 47.5006C816.255 47.3619 817.03 47.002 817.673 46.4211C818.327 45.8437 818.81 45.0697 819.123 44.0991C819.44 43.1174 819.497 42.2123 819.296 41.384C819.11 40.5481 818.686 39.8202 818.024 39.2003C817.376 38.5728 816.506 38.0829 815.412 37.7304L812.132 36.6732L803.48 63.5154L794.176 60.5162Z" fill="#5988FF"/>
<path d="M831.356 72.922L844.513 39.4026L853.613 42.9744L843.334 69.1615L856.886 74.4806L854.008 81.813L831.356 72.922Z" fill="#5988FF"/>
<path d="M863.145 85.6972L878.292 53.0289L901.836 63.9455L898.522 71.0916L883.847 64.2873L881.244 69.9021L894.707 76.1444L891.393 83.2906L877.931 77.0483L875.327 82.6632L889.938 89.438L886.625 96.5841L863.145 85.6972Z" fill="#5988FF"/>
<path d="M928.836 77.7033L939.292 83.9254L936.054 105.732L936.417 105.948L954.039 92.7009L964.495 98.923L946.08 129.867L937.861 124.976L948.507 107.086L948.265 106.943L930.873 120.49L925.917 117.541L929.601 95.6723L929.359 95.5285L918.642 113.539L910.422 108.648L928.836 77.7033Z" fill="#5988FF"/>
<path d="M963.006 141.517L954.418 135.39L985.008 112.981L995.885 120.742L984.647 156.958L976.059 150.831L984.802 125.016L984.573 124.852L963.006 141.517ZM969.654 128.809L985.799 140.328L981.551 146.282L965.406 134.763L969.654 128.809Z" fill="#5988FF"/>
<path d="M992.005 162.799L1014.96 135.056L1026.94 144.965C1028.99 146.669 1030.46 148.566 1031.33 150.657C1032.2 152.747 1032.46 154.883 1032.1 157.065C1031.74 159.247 1030.74 161.323 1029.12 163.291C1027.47 165.278 1025.61 166.632 1023.52 167.354C1021.44 168.083 1019.28 168.183 1017.04 167.654C1014.81 167.132 1012.64 165.996 1010.52 164.248L1003.37 158.329L1008.21 152.477L1013.85 157.14C1014.73 157.872 1015.62 158.343 1016.49 158.552C1017.39 158.759 1018.24 158.711 1019.05 158.41C1019.87 158.116 1020.61 157.576 1021.26 156.79C1021.92 155.996 1022.31 155.176 1022.43 154.332C1022.56 153.487 1022.44 152.654 1022.05 151.833C1021.68 151.01 1021.06 150.232 1020.17 149.5L1017.52 147.303L999.537 169.031L992.005 162.799Z" fill="#5988FF"/>
<path d="M1053.08 183.39C1053.81 182.474 1054.12 181.508 1054 180.491C1053.89 179.483 1053.26 178.435 1052.11 177.348C1051.38 176.655 1050.69 176.176 1050.06 175.912C1049.44 175.647 1048.87 175.559 1048.37 175.648C1047.87 175.737 1047.43 175.969 1047.06 176.344C1046.74 176.643 1046.53 176.98 1046.42 177.357C1046.32 177.732 1046.32 178.159 1046.41 178.638C1046.52 179.107 1046.72 179.637 1047.02 180.225C1047.32 180.814 1047.72 181.466 1048.22 182.182L1049.93 184.672C1051.09 186.348 1051.94 187.924 1052.5 189.401C1053.05 190.878 1053.34 192.268 1053.35 193.569C1053.37 194.862 1053.13 196.075 1052.64 197.208C1052.16 198.349 1051.45 199.422 1050.52 200.426C1048.88 202.138 1047.07 203.188 1045.09 203.574C1043.11 203.961 1041.04 203.716 1038.87 202.84C1036.7 201.971 1034.51 200.49 1032.3 198.395C1030.03 196.245 1028.36 194.031 1027.3 191.756C1026.25 189.488 1025.92 187.213 1026.3 184.93C1026.7 182.647 1027.94 180.408 1030 178.211L1036.74 184.591C1036.03 185.431 1035.59 186.293 1035.43 187.177C1035.28 188.06 1035.39 188.948 1035.77 189.841C1036.16 190.743 1036.8 191.62 1037.71 192.474C1038.47 193.191 1039.19 193.697 1039.88 193.993C1040.56 194.289 1041.2 194.396 1041.78 194.314C1042.35 194.231 1042.85 193.981 1043.26 193.563C1043.63 193.155 1043.83 192.681 1043.85 192.141C1043.9 191.601 1043.75 190.942 1043.4 190.164C1043.06 189.377 1042.51 188.418 1041.74 187.287L1039.67 184.26C1037.83 181.567 1036.79 179.001 1036.57 176.561C1036.36 174.12 1037.23 171.883 1039.17 169.847C1040.73 168.178 1042.55 167.145 1044.62 166.748C1046.7 166.35 1048.87 166.555 1051.13 167.363C1053.39 168.179 1055.55 169.565 1057.62 171.523C1059.73 173.52 1061.23 175.602 1062.1 177.766C1062.97 179.931 1063.22 182.051 1062.84 184.126C1062.47 186.201 1061.48 188.098 1059.87 189.818L1053.08 183.39Z" fill="#5988FF"/>
<path d="M1103.19 237.736C1104.03 236.915 1104.45 235.992 1104.46 234.969C1104.47 233.954 1103.97 232.838 1102.96 231.621C1102.31 230.845 1101.69 230.288 1101.09 229.949C1100.5 229.612 1099.96 229.457 1099.45 229.485C1098.94 229.513 1098.47 229.69 1098.06 230.018C1097.71 230.277 1097.46 230.587 1097.3 230.947C1097.16 231.308 1097.11 231.732 1097.15 232.218C1097.19 232.697 1097.33 233.247 1097.55 233.867C1097.78 234.487 1098.1 235.183 1098.51 235.953L1099.91 238.63C1100.86 240.433 1101.52 242.101 1101.89 243.634C1102.27 245.167 1102.38 246.58 1102.24 247.873C1102.1 249.159 1101.72 250.335 1101.1 251.401C1100.48 252.476 1099.65 253.456 1098.6 254.341C1096.77 255.845 1094.85 256.67 1092.84 256.816C1090.83 256.963 1088.8 256.471 1086.75 255.34C1084.7 254.218 1082.71 252.485 1080.76 250.14C1078.76 247.732 1077.37 245.335 1076.6 242.949C1075.83 240.572 1075.77 238.273 1076.42 236.053C1077.1 233.834 1078.59 231.759 1080.9 229.825L1086.83 236.968C1086.02 237.717 1085.48 238.52 1085.22 239.378C1084.96 240.236 1084.96 241.131 1085.23 242.064C1085.51 243.005 1086.05 243.954 1086.84 244.91C1087.51 245.713 1088.16 246.302 1088.81 246.679C1089.46 247.055 1090.08 247.237 1090.66 247.224C1091.24 247.212 1091.76 247.023 1092.22 246.658C1092.64 246.297 1092.89 245.85 1092.98 245.317C1093.09 244.786 1093.02 244.114 1092.77 243.3C1092.53 242.478 1092.1 241.46 1091.47 240.245L1089.77 236.991C1088.27 234.096 1087.55 231.424 1087.62 228.975C1087.7 226.527 1088.83 224.41 1091.01 222.622C1092.76 221.152 1094.68 220.345 1096.79 220.198C1098.91 220.054 1101.04 220.517 1103.17 221.59C1105.32 222.671 1107.31 224.308 1109.12 226.499C1110.98 228.736 1112.21 230.981 1112.82 233.235C1113.43 235.489 1113.42 237.623 1112.79 239.637C1112.18 241.653 1110.97 243.418 1109.16 244.932L1103.19 237.736Z" fill="#5988FF"/>
<path d="M1138.19 265.176L1143.9 273.107L1125.19 286.595C1122.96 288.198 1120.65 289.054 1118.26 289.161C1115.88 289.27 1113.57 288.698 1111.32 287.443C1109.08 286.181 1107.06 284.3 1105.26 281.799C1103.44 279.279 1102.29 276.757 1101.8 274.234C1101.32 271.705 1101.51 269.33 1102.37 267.109C1103.24 264.891 1104.79 262.98 1107.01 261.376L1125.73 247.888L1131.44 255.819L1113.41 268.813C1112.51 269.465 1111.85 270.247 1111.42 271.16C1111 272.067 1110.85 273.016 1110.96 274.007C1111.07 275.008 1111.46 275.961 1112.11 276.864C1112.77 277.777 1113.55 278.441 1114.45 278.857C1115.36 279.273 1116.31 279.427 1117.3 279.319C1118.3 279.205 1119.25 278.822 1120.16 278.171L1138.19 265.176Z" fill="#5988FF"/>
<path d="M1120.53 302.947L1151.12 283.939L1159.32 297.14C1160.73 299.41 1161.52 301.675 1161.68 303.934C1161.84 306.193 1161.41 308.3 1160.37 310.254C1159.34 312.209 1157.73 313.86 1155.56 315.209C1153.37 316.571 1151.17 317.261 1148.96 317.282C1146.76 317.312 1144.68 316.721 1142.73 315.507C1140.78 314.303 1139.08 312.536 1137.63 310.207L1132.73 302.322L1139.18 298.312L1143.04 304.525C1143.65 305.5 1144.34 306.226 1145.1 306.703C1145.88 307.183 1146.71 307.41 1147.57 307.382C1148.45 307.364 1149.31 307.086 1150.18 306.548C1151.06 306.003 1151.69 305.35 1152.07 304.588C1152.47 303.83 1152.61 303.001 1152.51 302.099C1152.42 301.202 1152.07 300.266 1151.47 299.29L1149.65 296.363L1125.69 311.25L1120.53 302.947Z" fill="#5988FF"/>
<path d="M1140.92 336.397L1172.69 319.459L1180 333.175C1181.26 335.533 1181.9 337.845 1181.91 340.11C1181.92 342.375 1181.34 344.448 1180.18 346.329C1179.02 348.211 1177.31 349.753 1175.06 350.955C1172.78 352.168 1170.54 352.711 1168.33 352.585C1166.13 352.47 1164.1 351.741 1162.23 350.401C1160.36 349.07 1158.79 347.195 1157.5 344.774L1153.13 336.582L1159.83 333.009L1163.27 339.463C1163.81 340.477 1164.45 341.247 1165.18 341.773C1165.93 342.304 1166.74 342.585 1167.6 342.615C1168.47 342.655 1169.36 342.435 1170.26 341.955C1171.17 341.47 1171.84 340.86 1172.27 340.125C1172.72 339.395 1172.92 338.577 1172.88 337.671C1172.85 336.77 1172.56 335.812 1172.02 334.799L1170.4 331.758L1145.52 345.024L1140.92 336.397Z" fill="#5988FF"/>
<path d="M1159 371.172L1191.77 356.241L1195.82 365.137L1170.22 376.801L1176.26 390.049L1169.09 393.315L1159 371.172Z" fill="#5988FF"/>
<path d="M1172.95 402.462L1206.56 389.527L1215.88 413.747L1208.53 416.577L1202.72 401.48L1196.94 403.703L1202.27 417.553L1194.92 420.382L1189.59 406.533L1183.82 408.756L1189.6 423.787L1182.25 426.616L1172.95 402.462Z" fill="#5988FF"/>
<path d="M1225.71 442.413L1228.89 454.156L1211.4 467.571L1211.51 467.978L1233.38 470.718L1236.57 482.462L1201.81 491.885L1199.31 482.653L1219.4 477.205L1219.33 476.934L1197.41 474.57L1195.9 469.004L1213.76 455.855L1213.69 455.583L1193.46 461.068L1190.95 451.836L1225.71 442.413Z" fill="#5988FF"/>
<path d="M1205.87 512.027L1203.96 501.652L1241.53 506.829L1243.94 519.972L1210.68 538.174L1208.77 527.798L1233.01 515.332L1232.96 515.056L1205.87 512.027ZM1219.49 507.521L1223.07 527.027L1215.88 528.35L1212.29 508.844L1219.49 507.521Z" fill="#5988FF"/>
<path d="M1211.9 547.489L1247.69 543.525L1249.4 558.974C1249.7 561.63 1249.43 564.012 1248.6 566.121C1247.77 568.229 1246.47 569.942 1244.7 571.259C1242.92 572.576 1240.76 573.375 1238.22 573.656C1235.66 573.94 1233.38 573.615 1231.37 572.681C1229.37 571.759 1227.75 570.329 1226.51 568.39C1225.27 566.464 1224.5 564.137 1224.2 561.411L1223.18 552.184L1230.73 551.348L1231.53 558.618C1231.66 559.76 1231.96 560.71 1232.45 561.47C1232.95 562.241 1233.59 562.8 1234.39 563.149C1235.18 563.509 1236.09 563.633 1237.1 563.521C1238.12 563.407 1238.97 563.089 1239.65 562.566C1240.33 562.054 1240.82 561.368 1241.12 560.51C1241.42 559.663 1241.51 558.668 1241.39 557.526L1241.01 554.101L1212.98 557.206L1211.9 547.489Z" fill="#5988FF"/>
<path d="M1241.46 604.763C1242.62 604.618 1243.52 604.138 1244.14 603.325C1244.76 602.523 1245.04 601.332 1244.97 599.751C1244.92 598.744 1244.76 597.924 1244.49 597.29C1244.23 596.668 1243.88 596.214 1243.46 595.928C1243.04 595.641 1242.56 595.504 1242.03 595.515C1241.6 595.511 1241.21 595.604 1240.87 595.795C1240.54 595.998 1240.24 596.304 1239.97 596.715C1239.72 597.125 1239.5 597.645 1239.3 598.275C1239.11 598.906 1238.94 599.652 1238.8 600.515L1238.3 603.494C1237.97 605.503 1237.49 607.231 1236.86 608.679C1236.23 610.126 1235.47 611.321 1234.57 612.264C1233.68 613.206 1232.67 613.914 1231.53 614.386C1230.39 614.871 1229.14 615.149 1227.77 615.221C1225.4 615.313 1223.37 614.81 1221.68 613.711C1219.99 612.612 1218.67 610.992 1217.72 608.852C1216.77 606.723 1216.23 604.136 1216.09 601.091C1215.95 597.965 1216.3 595.216 1217.12 592.845C1217.94 590.486 1219.29 588.62 1221.15 587.247C1223.03 585.886 1225.47 585.133 1228.48 584.989L1228.89 594.263C1227.79 594.37 1226.87 594.686 1226.15 595.211C1225.42 595.736 1224.88 596.452 1224.53 597.359C1224.19 598.277 1224.04 599.357 1224.1 600.599C1224.14 601.641 1224.31 602.508 1224.6 603.199C1224.89 603.89 1225.27 604.407 1225.74 604.75C1226.21 605.093 1226.74 605.258 1227.33 605.244C1227.88 605.208 1228.35 605.005 1228.74 604.636C1229.15 604.277 1229.5 603.699 1229.79 602.9C1230.1 602.1 1230.37 601.027 1230.6 599.679L1231.22 596.061C1231.77 592.846 1232.81 590.283 1234.35 588.374C1235.89 586.475 1238.07 585.47 1240.88 585.358C1243.17 585.246 1245.19 585.767 1246.95 586.921C1248.73 588.087 1250.15 589.744 1251.2 591.891C1252.26 594.05 1252.85 596.553 1252.98 599.399C1253.1 602.303 1252.73 604.836 1251.85 606.998C1250.97 609.161 1249.67 610.855 1247.95 612.08C1246.25 613.317 1244.22 613.992 1241.87 614.108L1241.46 604.763Z" fill="#5988FF"/>
<path d="M1239.66 678.665C1240.83 678.66 1241.78 678.292 1242.49 677.559C1243.21 676.837 1243.62 675.688 1243.74 674.11C1243.82 673.105 1243.76 672.272 1243.56 671.61C1243.38 670.961 1243.09 670.469 1242.71 670.134C1242.32 669.799 1241.87 669.605 1241.34 669.553C1240.91 669.497 1240.51 669.543 1240.15 669.691C1239.8 669.852 1239.46 670.121 1239.15 670.497C1238.85 670.874 1238.57 671.363 1238.3 671.966C1238.03 672.568 1237.78 673.289 1237.54 674.129L1236.68 677.026C1236.11 678.981 1235.42 680.639 1234.62 682C1233.83 683.362 1232.93 684.457 1231.92 685.285C1230.93 686.115 1229.84 686.696 1228.65 687.028C1227.46 687.372 1226.18 687.497 1224.81 687.405C1222.45 687.212 1220.5 686.469 1218.95 685.176C1217.4 683.882 1216.29 682.115 1215.6 679.876C1214.91 677.649 1214.68 675.016 1214.92 671.977C1215.16 668.856 1215.83 666.168 1216.93 663.913C1218.03 661.67 1219.58 659.978 1221.6 658.839C1223.63 657.713 1226.14 657.258 1229.14 657.476L1228.44 666.733C1227.33 666.707 1226.39 666.911 1225.6 667.345C1224.82 667.779 1224.2 668.425 1223.75 669.284C1223.29 670.154 1223.02 671.209 1222.92 672.448C1222.84 673.488 1222.9 674.368 1223.11 675.089C1223.31 675.81 1223.63 676.369 1224.06 676.767C1224.48 677.164 1224.99 677.39 1225.57 677.447C1226.12 677.477 1226.62 677.333 1227.05 677.013C1227.5 676.707 1227.92 676.174 1228.3 675.416C1228.7 674.659 1229.1 673.625 1229.49 672.315L1230.54 668.798C1231.47 665.671 1232.81 663.252 1234.57 661.541C1236.33 659.842 1238.61 659.105 1241.42 659.331C1243.7 659.494 1245.64 660.254 1247.26 661.612C1248.88 662.982 1250.09 664.796 1250.88 667.055C1251.67 669.326 1251.95 671.881 1251.74 674.721C1251.52 677.62 1250.84 680.09 1249.71 682.131C1248.58 684.172 1247.08 685.698 1245.23 686.709C1243.39 687.732 1241.29 688.159 1238.94 687.991L1239.66 678.665Z" fill="#5988FF"/>
<path d="M1245.72 722.723L1244.31 732.397L1221.48 729.07C1218.76 728.675 1216.51 727.683 1214.72 726.095C1212.93 724.52 1211.67 722.5 1210.93 720.034C1210.2 717.571 1210.05 714.813 1210.5 711.763C1210.94 708.689 1211.87 706.076 1213.27 703.923C1214.69 701.772 1216.48 700.196 1218.64 699.196C1220.81 698.209 1223.25 697.914 1225.96 698.309L1248.79 701.636L1247.38 711.31L1225.39 708.105C1224.28 707.944 1223.26 708.044 1222.32 708.404C1221.39 708.767 1220.62 709.341 1220.01 710.129C1219.4 710.927 1219.01 711.878 1218.85 712.98C1218.69 714.093 1218.79 715.115 1219.15 716.044C1219.51 716.974 1220.08 717.744 1220.87 718.357C1221.67 718.97 1222.62 719.358 1223.72 719.518L1245.72 722.723Z" fill="#5988FF"/>
<path d="M1206.76 737.581L1241.95 745.198L1238.67 760.389C1238.1 763.001 1237.09 765.175 1235.63 766.911C1234.18 768.647 1232.4 769.857 1230.3 770.541C1228.19 771.226 1225.89 771.297 1223.4 770.757C1220.88 770.211 1218.82 769.178 1217.21 767.656C1215.61 766.145 1214.53 764.274 1213.97 762.042C1213.41 759.821 1213.41 757.371 1213.99 754.69L1215.96 745.616L1223.38 747.223L1221.83 754.372C1221.59 755.495 1221.58 756.493 1221.8 757.368C1222.02 758.257 1222.46 758.993 1223.1 759.575C1223.74 760.169 1224.56 760.574 1225.55 760.79C1226.56 761.008 1227.47 760.976 1228.27 760.695C1229.09 760.427 1229.77 759.933 1230.32 759.213C1230.88 758.507 1231.28 757.592 1231.53 756.469L1232.26 753.101L1204.69 747.136L1206.76 737.581Z" fill="#5988FF"/>
<path d="M1198.14 775.791L1232.75 785.725L1228.46 800.665C1227.72 803.234 1226.57 805.336 1225 806.972C1223.44 808.607 1221.58 809.697 1219.44 810.24C1217.29 810.783 1214.99 810.702 1212.54 809.997C1210.06 809.286 1208.07 808.118 1206.57 806.493C1205.07 804.88 1204.12 802.941 1203.71 800.676C1203.29 798.423 1203.46 795.979 1204.22 793.342L1206.78 784.419L1214.08 786.514L1212.07 793.545C1211.75 794.649 1211.67 795.645 1211.83 796.532C1212 797.434 1212.38 798.197 1212.98 798.821C1213.58 799.456 1214.37 799.914 1215.35 800.195C1216.34 800.48 1217.25 800.508 1218.07 800.281C1218.9 800.067 1219.61 799.62 1220.21 798.938C1220.82 798.27 1221.28 797.385 1221.6 796.28L1222.55 792.968L1195.44 785.188L1198.14 775.791Z" fill="#5988FF"/>
<path d="M1186.94 813.353L1220.87 825.419L1217.59 834.63L1191.09 825.203L1186.21 838.92L1178.79 836.281L1186.94 813.353Z" fill="#5988FF"/>
<path d="M1175.2 845.539L1208.34 859.622L1198.19 883.507L1190.94 880.426L1197.27 865.539L1191.57 863.118L1185.77 876.776L1178.52 873.695L1184.32 860.037L1178.63 857.617L1172.33 872.44L1165.08 869.359L1175.2 845.539Z" fill="#5988FF"/>
<path d="M1185.31 910.937L1179.43 921.589L1157.53 919.058L1157.33 919.427L1171.14 936.612L1165.26 947.263L1133.73 929.859L1138.36 921.486L1156.58 931.548L1156.72 931.301L1142.61 914.356L1145.4 909.308L1167.38 912.283L1167.51 912.036L1149.17 901.907L1153.79 893.533L1185.31 910.937Z" fill="#5988FF"/>
<path d="M1122.64 947.154L1128.48 938.372L1151.87 968.222L1144.46 979.345L1107.9 969.282L1113.75 960.501L1139.84 968.405L1139.99 968.17L1122.64 947.154ZM1135.55 953.388L1124.56 969.896L1118.47 965.843L1129.47 949.334L1135.55 953.388Z" fill="#5988FF"/>
<path d="M1102.3 976.826L1130.77 998.873L1121.26 1011.16C1119.62 1013.27 1117.77 1014.8 1115.71 1015.74C1113.65 1016.68 1111.52 1017 1109.33 1016.71C1107.14 1016.42 1105.03 1015.5 1103.01 1013.93C1100.97 1012.35 1099.56 1010.53 1098.77 1008.47C1097.97 1006.41 1097.81 1004.26 1098.26 1002C1098.71 999.758 1099.78 997.551 1101.46 995.382L1107.14 988.042L1113.14 992.692L1108.67 998.476C1107.96 999.384 1107.52 1000.28 1107.34 1001.16C1107.16 1002.06 1107.24 1002.91 1107.57 1003.72C1107.89 1004.53 1108.45 1005.25 1109.26 1005.87C1110.07 1006.5 1110.9 1006.86 1111.75 1006.96C1112.6 1007.07 1113.43 1006.91 1114.24 1006.5C1115.05 1006.11 1115.8 1005.46 1116.51 1004.55L1118.62 1001.82L1096.32 984.555L1102.3 976.826Z" fill="#5988FF"/>
<path d="M1083.7 1038.53C1084.64 1039.24 1085.61 1039.52 1086.63 1039.36C1087.63 1039.22 1088.66 1038.56 1089.71 1037.37C1090.38 1036.62 1090.83 1035.92 1091.08 1035.27C1091.32 1034.64 1091.39 1034.08 1091.29 1033.58C1091.18 1033.08 1090.93 1032.65 1090.55 1032.29C1090.24 1031.98 1089.89 1031.78 1089.51 1031.68C1089.14 1031.59 1088.71 1031.61 1088.23 1031.72C1087.77 1031.84 1087.25 1032.06 1086.67 1032.37C1086.09 1032.69 1085.45 1033.11 1084.75 1033.64L1082.32 1035.43C1080.68 1036.64 1079.13 1037.54 1077.67 1038.15C1076.21 1038.75 1074.84 1039.08 1073.53 1039.13C1072.24 1039.19 1071.02 1039 1069.88 1038.54C1068.72 1038.1 1067.62 1037.42 1066.59 1036.52C1064.83 1034.94 1063.72 1033.17 1063.27 1031.2C1062.82 1029.24 1063 1027.16 1063.8 1024.96C1064.6 1022.77 1066.01 1020.53 1068.03 1018.25C1070.11 1015.91 1072.27 1014.17 1074.51 1013.04C1076.74 1011.92 1079 1011.51 1081.29 1011.82C1083.59 1012.15 1085.87 1013.31 1088.13 1015.3L1081.97 1022.24C1081.11 1021.56 1080.23 1021.15 1079.34 1021.02C1078.46 1020.89 1077.57 1021.03 1076.69 1021.44C1075.8 1021.86 1074.95 1022.53 1074.12 1023.46C1073.43 1024.24 1072.95 1024.98 1072.68 1025.68C1072.4 1026.38 1072.32 1027.01 1072.42 1027.59C1072.52 1028.16 1072.78 1028.65 1073.21 1029.05C1073.63 1029.41 1074.11 1029.59 1074.65 1029.6C1075.2 1029.62 1075.85 1029.45 1076.62 1029.08C1077.39 1028.72 1078.33 1028.13 1079.44 1027.33L1082.4 1025.16C1085.03 1023.23 1087.56 1022.12 1089.99 1021.81C1092.42 1021.52 1094.69 1022.32 1096.79 1024.19C1098.5 1025.7 1099.6 1027.48 1100.06 1029.54C1100.53 1031.61 1100.39 1033.79 1099.66 1036.06C1098.91 1038.35 1097.6 1040.56 1095.71 1042.69C1093.78 1044.87 1091.75 1046.42 1089.61 1047.37C1087.48 1048.31 1085.37 1048.62 1083.28 1048.31C1081.19 1048.01 1079.27 1047.08 1077.49 1045.53L1083.7 1038.53Z" fill="#5988FF"/>
<path d="M1031 1090.38C1031.85 1091.19 1032.79 1091.58 1033.81 1091.55C1034.82 1091.53 1035.92 1091 1037.11 1089.95C1037.86 1089.28 1038.4 1088.64 1038.72 1088.02C1039.03 1087.43 1039.17 1086.88 1039.13 1086.37C1039.08 1085.86 1038.89 1085.4 1038.55 1085C1038.28 1084.66 1037.96 1084.42 1037.6 1084.27C1037.23 1084.14 1036.81 1084.1 1036.32 1084.16C1035.84 1084.22 1035.3 1084.37 1034.69 1084.62C1034.07 1084.86 1033.39 1085.2 1032.63 1085.64L1030 1087.13C1028.23 1088.13 1026.59 1088.85 1025.07 1089.27C1023.55 1089.69 1022.14 1089.85 1020.84 1089.75C1019.55 1089.66 1018.36 1089.32 1017.28 1088.73C1016.18 1088.15 1015.18 1087.35 1014.26 1086.33C1012.7 1084.55 1011.81 1082.66 1011.6 1080.65C1011.39 1078.64 1011.81 1076.6 1012.88 1074.51C1013.93 1072.43 1015.6 1070.38 1017.88 1068.36C1020.22 1066.29 1022.57 1064.82 1024.93 1063.97C1027.28 1063.12 1029.58 1062.99 1031.82 1063.57C1034.06 1064.17 1036.18 1065.59 1038.19 1067.84L1031.24 1074C1030.47 1073.21 1029.65 1072.7 1028.78 1072.47C1027.91 1072.23 1027.02 1072.27 1026.1 1072.57C1025.16 1072.88 1024.23 1073.44 1023.3 1074.27C1022.52 1074.96 1021.95 1075.64 1021.6 1076.3C1021.24 1076.95 1021.08 1077.58 1021.11 1078.16C1021.14 1078.74 1021.35 1079.26 1021.73 1079.7C1022.1 1080.11 1022.56 1080.35 1023.09 1080.42C1023.63 1080.51 1024.3 1080.42 1025.1 1080.14C1025.92 1079.88 1026.92 1079.41 1028.12 1078.74L1031.31 1076.94C1034.16 1075.34 1036.8 1074.54 1039.25 1074.53C1041.7 1074.54 1043.86 1075.6 1045.71 1077.71C1047.24 1079.41 1048.11 1081.31 1048.32 1083.41C1048.54 1085.52 1048.14 1087.67 1047.14 1089.84C1046.13 1092.02 1044.56 1094.06 1042.42 1095.95C1040.25 1097.87 1038.05 1099.18 1035.81 1099.86C1033.58 1100.54 1031.45 1100.59 1029.41 1100.03C1027.38 1099.49 1025.57 1098.34 1024 1096.58L1031 1090.38Z" fill="#5988FF"/>
<path d="M1004.71 1126.24L996.968 1132.21L982.882 1113.94C981.207 1111.77 980.278 1109.49 980.093 1107.1C979.907 1104.73 980.404 1102.4 981.586 1100.11C982.775 1097.83 984.59 1095.75 987.031 1093.87C989.491 1091.97 991.974 1090.74 994.48 1090.17C996.992 1089.61 999.372 1089.72 1001.62 1090.5C1003.86 1091.3 1005.82 1092.79 1007.5 1094.96L1021.59 1113.23L1013.84 1119.2L1000.27 1101.6C999.593 1100.72 998.79 1100.08 997.863 1099.68C996.944 1099.3 995.99 1099.17 995.003 1099.31C994.006 1099.46 993.066 1099.87 992.185 1100.55C991.293 1101.24 990.655 1102.04 990.268 1102.96C989.882 1103.88 989.759 1104.84 989.899 1105.82C990.046 1106.82 990.459 1107.76 991.139 1108.64L1004.71 1126.24Z" fill="#5988FF"/>
<path d="M966.387 1109.82L986.373 1139.77L973.445 1148.4C971.222 1149.88 968.984 1150.74 966.731 1150.98C964.478 1151.21 962.358 1150.84 960.371 1149.87C958.385 1148.9 956.682 1147.35 955.264 1145.23C953.833 1143.08 953.071 1140.91 952.979 1138.7C952.877 1136.5 953.401 1134.4 954.551 1132.41C955.692 1130.42 957.402 1128.67 959.684 1127.14L967.406 1121.99L971.622 1128.31L965.538 1132.37C964.583 1133.01 963.879 1133.72 963.427 1134.5C962.973 1135.29 962.773 1136.12 962.829 1136.99C962.874 1137.86 963.181 1138.72 963.747 1139.57C964.319 1140.43 964.992 1141.03 965.766 1141.39C966.537 1141.76 967.371 1141.88 968.268 1141.75C969.162 1141.63 970.087 1141.26 971.042 1140.62L973.909 1138.71L958.255 1115.25L966.387 1109.82Z" fill="#5988FF"/>
<path d="M933.614 1131.27L951.571 1162.49L938.099 1170.24C935.782 1171.57 933.492 1172.28 931.229 1172.36C928.965 1172.45 926.874 1171.94 924.956 1170.84C923.038 1169.74 921.442 1168.08 920.168 1165.87C918.882 1163.63 918.266 1161.41 918.321 1159.2C918.365 1157 919.027 1154.94 920.307 1153.03C921.577 1151.12 923.4 1149.48 925.777 1148.11L933.824 1143.49L937.612 1150.07L931.272 1153.72C930.276 1154.29 929.527 1154.95 929.025 1155.7C928.519 1156.46 928.264 1157.28 928.263 1158.15C928.251 1159.02 928.499 1159.9 929.007 1160.78C929.522 1161.67 930.153 1162.33 930.902 1162.73C931.646 1163.16 932.47 1163.33 933.374 1163.26C934.274 1163.2 935.222 1162.89 936.217 1162.31L939.204 1160.59L925.141 1136.15L933.614 1131.27Z" fill="#5988FF"/>
<path d="M899.441 1150.47L915.423 1182.74L906.663 1187.08L894.177 1161.87L881.131 1168.33L877.635 1161.27L899.441 1150.47Z" fill="#5988FF"/>
<path d="M868.62 1165.43L882.634 1198.6L858.728 1208.7L855.663 1201.44L870.563 1195.15L868.155 1189.45L854.485 1195.22L851.419 1187.97L865.089 1182.19L862.68 1176.49L847.845 1182.76L844.779 1175.5L868.62 1165.43Z" fill="#5988FF"/>
<path d="M830.396 1219.45L818.762 1223.01L804.789 1205.96L804.385 1206.08L802.354 1228.04L790.72 1231.6L780.178 1197.17L789.323 1194.37L795.418 1214.27L795.687 1214.19L797.341 1192.21L802.855 1190.52L816.575 1207.94L816.844 1207.86L810.708 1187.82L819.854 1185.02L830.396 1219.45Z" fill="#5988FF"/>
<path d="M760.176 1201.87L770.485 1199.63L766.524 1237.34L753.467 1240.18L734.199 1207.52L744.508 1205.28L757.75 1229.1L758.025 1229.04L760.176 1201.87ZM765.12 1215.34L745.74 1219.55L744.186 1212.4L763.566 1208.19L765.12 1215.34Z" fill="#5988FF"/>
<path d="M724.929 1209.05L730.048 1244.69L714.663 1246.9C712.017 1247.28 709.628 1247.09 707.494 1246.33C705.36 1245.57 703.606 1244.33 702.232 1242.59C700.858 1240.86 699.989 1238.73 699.626 1236.2C699.26 1233.65 699.511 1231.35 700.379 1229.32C701.237 1227.29 702.614 1225.63 704.511 1224.32C706.396 1223.02 708.697 1222.18 711.412 1221.79L720.601 1220.47L721.68 1227.99L714.441 1229.03C713.303 1229.19 712.363 1229.53 711.619 1230.04C710.865 1230.56 710.327 1231.22 710.004 1232.03C709.67 1232.83 709.575 1233.74 709.72 1234.75C709.867 1235.77 710.212 1236.61 710.757 1237.27C711.291 1237.93 711.992 1238.4 712.859 1238.67C713.716 1238.95 714.713 1239.01 715.85 1238.84L719.261 1238.35L715.252 1210.44L724.929 1209.05Z" fill="#5988FF"/>
<path d="M668.641 1240.44C668.824 1241.6 669.332 1242.48 670.165 1243.07C670.987 1243.67 672.186 1243.9 673.764 1243.78C674.769 1243.71 675.584 1243.52 676.208 1243.23C676.821 1242.94 677.264 1242.59 677.537 1242.16C677.809 1241.72 677.931 1241.24 677.903 1240.72C677.893 1240.28 677.787 1239.9 677.585 1239.56C677.372 1239.23 677.056 1238.95 676.637 1238.7C676.219 1238.46 675.692 1238.25 675.056 1238.08C674.419 1237.9 673.668 1237.76 672.801 1237.65L669.808 1237.24C667.789 1236.98 666.046 1236.55 664.579 1235.97C663.112 1235.39 661.893 1234.66 660.922 1233.8C659.951 1232.94 659.211 1231.95 658.702 1230.83C658.181 1229.7 657.863 1228.46 657.746 1227.09C657.578 1224.73 658.015 1222.69 659.059 1220.96C660.102 1219.24 661.678 1217.86 663.787 1216.84C665.884 1215.83 668.452 1215.2 671.491 1214.97C674.611 1214.73 677.37 1214.98 679.766 1215.73C682.151 1216.47 684.059 1217.76 685.491 1219.58C686.913 1221.41 687.744 1223.82 687.985 1226.83L678.729 1227.53C678.586 1226.44 678.241 1225.54 677.693 1224.83C677.145 1224.12 676.412 1223.6 675.494 1223.28C674.565 1222.97 673.481 1222.86 672.242 1222.95C671.202 1223.03 670.341 1223.23 669.659 1223.54C668.978 1223.85 668.473 1224.24 668.146 1224.73C667.818 1225.21 667.671 1225.75 667.704 1226.33C667.758 1226.88 667.975 1227.34 668.357 1227.73C668.728 1228.12 669.318 1228.45 670.126 1228.72C670.935 1229 672.017 1229.23 673.372 1229.42L677.007 1229.92C680.239 1230.37 682.834 1231.33 684.792 1232.8C686.739 1234.29 687.814 1236.43 688.017 1239.24C688.203 1241.52 687.748 1243.56 686.651 1245.36C685.543 1247.17 683.934 1248.64 681.821 1249.76C679.697 1250.89 677.215 1251.56 674.375 1251.78C671.477 1252 668.933 1251.71 666.743 1250.9C664.553 1250.09 662.818 1248.85 661.538 1247.17C660.247 1245.5 659.506 1243.5 659.315 1241.15L668.641 1240.44Z" fill="#5988FF"/>
<path d="M594.72 1241.03C594.762 1242.2 595.161 1243.14 595.917 1243.83C596.661 1244.52 597.824 1244.9 599.404 1244.97C600.412 1245.01 601.243 1244.92 601.897 1244.71C602.54 1244.5 603.023 1244.2 603.345 1243.8C603.668 1243.41 603.846 1242.94 603.881 1242.42C603.924 1241.99 603.865 1241.59 603.705 1241.23C603.532 1240.88 603.253 1240.56 602.867 1240.26C602.481 1239.97 601.982 1239.71 601.372 1239.46C600.761 1239.21 600.032 1238.97 599.185 1238.76L596.261 1238C594.289 1237.49 592.61 1236.86 591.223 1236.11C589.837 1235.35 588.713 1234.49 587.853 1233.51C586.992 1232.55 586.376 1231.48 586.005 1230.3C585.623 1229.12 585.456 1227.84 585.505 1226.47C585.621 1224.11 586.3 1222.13 587.543 1220.54C588.786 1218.96 590.516 1217.78 592.731 1217.02C594.935 1216.26 597.56 1215.95 600.604 1216.09C603.731 1216.22 606.439 1216.81 608.729 1217.83C611.007 1218.86 612.748 1220.36 613.951 1222.34C615.143 1224.33 615.678 1226.83 615.557 1229.84L606.283 1229.43C606.273 1228.33 606.038 1227.39 605.579 1226.62C605.121 1225.85 604.455 1225.25 603.582 1224.82C602.697 1224.4 601.634 1224.16 600.393 1224.1C599.35 1224.06 598.472 1224.15 597.758 1224.37C597.044 1224.6 596.496 1224.93 596.113 1225.37C595.73 1225.81 595.519 1226.33 595.482 1226.91C595.469 1227.46 595.63 1227.95 595.963 1228.38C596.284 1228.81 596.83 1229.21 597.6 1229.58C598.37 1229.95 599.416 1230.31 600.738 1230.66L604.287 1231.59C607.442 1232.43 609.903 1233.69 611.67 1235.39C613.425 1237.09 614.235 1239.35 614.1 1242.16C614.011 1244.45 613.315 1246.42 612.01 1248.07C610.693 1249.74 608.918 1251 606.686 1251.87C604.442 1252.73 601.898 1253.1 599.052 1252.98C596.148 1252.85 593.658 1252.25 591.581 1251.19C589.504 1250.12 587.931 1248.68 586.861 1246.86C585.779 1245.05 585.284 1242.97 585.375 1240.62L594.72 1241.03Z" fill="#5988FF"/>
<path d="M550.881 1248.51L541.167 1247.41L543.754 1224.49C544.062 1221.76 544.98 1219.48 546.509 1217.63C548.026 1215.8 550.004 1214.47 552.444 1213.65C554.883 1212.84 557.634 1212.61 560.697 1212.95C563.784 1213.3 566.426 1214.14 568.623 1215.48C570.818 1216.82 572.451 1218.56 573.52 1220.68C574.577 1222.82 574.951 1225.25 574.644 1227.98L572.057 1250.9L562.343 1249.8L564.835 1227.72C564.96 1226.61 564.827 1225.59 564.436 1224.66C564.044 1223.75 563.445 1223 562.638 1222.41C561.82 1221.82 560.857 1221.47 559.751 1221.34C558.633 1221.21 557.615 1221.35 556.698 1221.74C555.781 1222.13 555.029 1222.73 554.443 1223.54C553.855 1224.36 553.498 1225.32 553.374 1226.42L550.881 1248.51Z" fill="#5988FF"/>
<path d="M534.771 1210.05L528.296 1245.48L513.006 1242.68C510.377 1242.2 508.172 1241.26 506.39 1239.86C504.608 1238.46 503.341 1236.73 502.589 1234.65C501.837 1232.57 501.691 1230.27 502.151 1227.76C502.614 1225.22 503.581 1223.13 505.05 1221.48C506.508 1219.82 508.343 1218.68 510.556 1218.05C512.757 1217.42 515.207 1217.34 517.905 1217.84L527.037 1219.51L525.671 1226.98L518.476 1225.66C517.346 1225.46 516.348 1225.48 515.48 1225.72C514.6 1225.98 513.878 1226.44 513.317 1227.1C512.744 1227.76 512.366 1228.59 512.182 1229.59C511.997 1230.6 512.058 1231.51 512.365 1232.3C512.659 1233.11 513.175 1233.77 513.912 1234.3C514.636 1234.84 515.563 1235.21 516.693 1235.42L520.083 1236.04L525.154 1208.3L534.771 1210.05Z" fill="#5988FF"/>
<path d="M496.303 1202.67L487.493 1237.59L472.423 1233.78C469.832 1233.13 467.693 1232.05 466.008 1230.53C464.322 1229.02 463.174 1227.2 462.561 1225.07C461.949 1222.95 461.955 1220.65 462.581 1218.17C463.211 1215.67 464.315 1213.65 465.89 1212.1C467.454 1210.55 469.361 1209.53 471.611 1209.04C473.849 1208.56 476.298 1208.65 478.958 1209.32L487.959 1211.59L486.101 1218.96L479.009 1217.17C477.895 1216.89 476.897 1216.84 476.016 1217.03C475.12 1217.22 474.37 1217.63 473.766 1218.25C473.15 1218.87 472.718 1219.68 472.468 1220.67C472.216 1221.67 472.217 1222.57 472.471 1223.39C472.711 1224.21 473.181 1224.91 473.882 1225.48C474.569 1226.07 475.469 1226.5 476.583 1226.78L479.924 1227.62L486.824 1200.28L496.303 1202.67Z" fill="#5988FF"/>
<path d="M458.4 1192.69L447.437 1226.99L438.125 1224.02L446.69 1197.22L432.823 1192.79L435.221 1185.28L458.4 1192.69Z" fill="#5988FF"/>
<path d="M425.851 1182L412.847 1215.58L388.647 1206.21L391.491 1198.86L406.575 1204.7L408.81 1198.93L394.972 1193.57L397.817 1186.23L411.655 1191.59L413.89 1185.81L398.872 1180L401.716 1172.65L425.851 1182Z" fill="#5988FF"/>
<path d="M360.814 1194.22L349.978 1188.69L351.799 1166.72L351.423 1166.53L334.694 1180.89L323.858 1175.35L340.234 1143.28L348.753 1147.63L339.285 1166.17L339.536 1166.3L356.016 1151.66L361.152 1154.28L358.889 1176.34L359.14 1176.47L368.671 1157.8L377.189 1162.15L360.814 1194.22Z" fill="#5988FF"/>
<path d="M322.592 1132.75L331.557 1138.31L302.48 1162.65L291.123 1155.61L299.998 1118.74L308.964 1124.3L301.908 1150.63L302.147 1150.77L322.592 1132.75ZM316.778 1145.86L299.923 1135.41L303.778 1129.19L320.633 1139.65L316.778 1145.86Z" fill="#5988FF"/>
<path d="M292.277 1113.39L271.163 1142.56L258.572 1133.44C256.408 1131.87 254.823 1130.08 253.818 1128.05C252.813 1126.02 252.419 1123.9 252.638 1121.7C252.856 1119.5 253.714 1117.36 255.213 1115.29C256.725 1113.21 258.499 1111.73 260.536 1110.88C262.564 1110.02 264.712 1109.78 266.981 1110.16C269.241 1110.54 271.482 1111.53 273.704 1113.14L281.224 1118.58L276.77 1124.74L270.845 1120.45C269.914 1119.77 269.005 1119.36 268.116 1119.21C267.211 1119.06 266.362 1119.16 265.571 1119.52C264.77 1119.86 264.071 1120.45 263.473 1121.27C262.868 1122.11 262.533 1122.95 262.468 1123.8C262.386 1124.66 262.564 1125.48 263.002 1126.27C263.424 1127.07 264.1 1127.81 265.03 1128.48L267.821 1130.5L284.359 1107.66L292.277 1113.39Z" fill="#5988FF"/>
<path d="M230.002 1096.79C229.325 1097.75 229.08 1098.73 229.265 1099.74C229.44 1100.74 230.137 1101.74 231.355 1102.76C232.13 1103.4 232.845 1103.83 233.498 1104.05C234.135 1104.28 234.701 1104.33 235.198 1104.21C235.694 1104.09 236.116 1103.83 236.462 1103.43C236.757 1103.11 236.949 1102.76 237.038 1102.38C237.111 1102 237.084 1101.57 236.957 1101.1C236.823 1100.64 236.588 1100.12 236.252 1099.55C235.916 1098.99 235.475 1098.36 234.929 1097.68L233.061 1095.31C231.798 1093.71 230.841 1092.19 230.192 1090.75C229.542 1089.31 229.17 1087.95 229.074 1086.65C228.971 1085.36 229.128 1084.13 229.545 1082.97C229.953 1081.8 230.59 1080.68 231.457 1079.62C232.978 1077.81 234.714 1076.64 236.664 1076.13C238.614 1075.62 240.702 1075.73 242.926 1076.46C245.141 1077.19 247.42 1078.52 249.765 1080.47C252.173 1082.47 253.979 1084.57 255.182 1086.77C256.376 1088.97 256.855 1091.22 256.619 1093.52C256.366 1095.82 255.282 1098.14 253.367 1100.46L246.225 1094.53C246.883 1093.65 247.263 1092.76 247.363 1091.87C247.464 1090.98 247.295 1090.1 246.857 1089.23C246.409 1088.36 245.708 1087.52 244.752 1086.73C243.949 1086.06 243.195 1085.6 242.489 1085.35C241.783 1085.1 241.145 1085.04 240.573 1085.16C240.001 1085.28 239.524 1085.56 239.14 1086C238.798 1086.43 238.63 1086.92 238.639 1087.46C238.631 1088 238.824 1088.65 239.219 1089.4C239.606 1090.17 240.22 1091.09 241.061 1092.17L243.326 1095.05C245.337 1097.62 246.534 1100.12 246.917 1102.54C247.283 1104.96 246.563 1107.25 244.757 1109.4C243.306 1111.17 241.56 1112.32 239.52 1112.85C237.463 1113.38 235.285 1113.32 232.984 1112.66C230.675 1111.99 228.424 1110.74 226.233 1108.92C223.996 1107.07 222.373 1105.09 221.362 1102.98C220.351 1100.88 219.969 1098.78 220.216 1096.68C220.446 1094.59 221.309 1092.63 222.805 1090.81L230.002 1096.79Z" fill="#5988FF"/>
<path d="M176.483 1045.79C175.696 1046.67 175.334 1047.61 175.397 1048.64C175.452 1049.65 176.023 1050.73 177.11 1051.88C177.803 1052.61 178.46 1053.13 179.082 1053.43C179.687 1053.73 180.243 1053.84 180.751 1053.78C181.258 1053.72 181.708 1053.52 182.099 1053.16C182.43 1052.88 182.663 1052.56 182.798 1052.19C182.916 1051.82 182.94 1051.39 182.871 1050.91C182.793 1050.43 182.621 1049.89 182.356 1049.29C182.091 1048.69 181.728 1048.01 181.268 1047.27L179.698 1044.69C178.635 1042.95 177.868 1041.33 177.395 1039.82C176.923 1038.32 176.718 1036.91 176.779 1035.61C176.831 1034.32 177.134 1033.12 177.687 1032.02C178.232 1030.91 178.999 1029.88 179.987 1028.93C181.715 1027.31 183.578 1026.36 185.576 1026.08C187.573 1025.81 189.632 1026.17 191.752 1027.16C193.864 1028.15 195.967 1029.75 198.061 1031.97C200.212 1034.24 201.752 1036.54 202.682 1038.87C203.604 1041.19 203.81 1043.48 203.3 1045.74C202.773 1048 201.419 1050.17 199.238 1052.25L192.859 1045.5C193.619 1044.7 194.103 1043.87 194.309 1042.99C194.516 1042.12 194.454 1041.23 194.123 1040.31C193.783 1039.39 193.187 1038.48 192.333 1037.58C191.616 1036.82 190.922 1036.27 190.252 1035.94C189.581 1035.61 188.955 1035.46 188.373 1035.51C187.791 1035.56 187.283 1035.79 186.85 1036.18C186.457 1036.57 186.233 1037.03 186.177 1037.57C186.104 1038.1 186.218 1038.77 186.519 1039.57C186.812 1040.37 187.311 1041.36 188.016 1042.53L189.919 1045.67C191.608 1048.46 192.497 1051.08 192.586 1053.53C192.659 1055.98 191.67 1058.16 189.618 1060.09C187.965 1061.67 186.095 1062.6 184.005 1062.88C181.9 1063.16 179.745 1062.84 177.54 1061.9C175.328 1060.96 173.243 1059.46 171.285 1057.39C169.288 1055.28 167.913 1053.12 167.162 1050.91C166.411 1048.7 166.284 1046.57 166.78 1044.52C167.26 1042.46 168.352 1040.63 170.055 1039L176.483 1045.79Z" fill="#5988FF"/>
<path d="M139.784 1020.67L133.567 1013.13L151.37 998.459C153.487 996.715 155.736 995.712 158.118 995.451C160.483 995.188 162.828 995.61 165.153 996.717C167.469 997.831 169.606 999.578 171.567 1001.96C173.542 1004.35 174.855 1006.8 175.506 1009.28C176.148 1011.78 176.114 1014.16 175.404 1016.43C174.677 1018.7 173.255 1020.71 171.138 1022.45L153.335 1037.12L147.118 1029.57L164.27 1015.44C165.129 1014.73 165.742 1013.91 166.107 1012.97C166.464 1012.04 166.556 1011.08 166.384 1010.1C166.205 1009.11 165.762 1008.18 165.054 1007.32C164.338 1006.46 163.514 1005.84 162.583 1005.49C161.651 1005.13 160.694 1005.04 159.712 1005.21C158.72 1005.39 157.795 1005.83 156.935 1006.54L139.784 1020.67Z" fill="#5988FF"/>
<path d="M154.959 981.84L125.669 1002.78L116.628 990.141C115.074 987.967 114.143 985.758 113.835 983.514C113.527 981.27 113.826 979.14 114.733 977.123C115.639 975.105 117.132 973.354 119.21 971.867C121.308 970.367 123.459 969.536 125.662 969.373C127.858 969.2 129.971 969.656 132.001 970.741C134.023 971.816 135.832 973.47 137.428 975.701L142.828 983.252L136.649 987.67L132.395 981.721C131.726 980.786 130.995 980.106 130.2 979.68C129.389 979.251 128.553 979.078 127.69 979.162C126.821 979.236 125.972 979.57 125.142 980.163C124.303 980.763 123.717 981.455 123.385 982.24C123.037 983.023 122.944 983.86 123.107 984.752C123.253 985.642 123.66 986.554 124.328 987.489L126.333 990.292L149.273 973.888L154.959 981.84Z" fill="#5988FF"/>
<path d="M132.457 949.777L101.842 968.734L93.6596 955.519C92.2526 953.247 91.47 950.981 91.3118 948.721C91.1535 946.462 91.5934 944.356 92.6316 942.403C93.6698 940.451 95.2752 938.802 97.4477 937.457C99.6402 936.099 101.841 935.412 104.05 935.395C106.253 935.368 108.331 935.963 110.284 937.18C112.231 938.388 113.927 940.157 115.371 942.489L120.258 950.382L113.8 954.381L109.95 948.162C109.345 947.185 108.66 946.458 107.896 945.98C107.115 945.499 106.291 945.271 105.425 945.297C104.553 945.313 103.683 945.59 102.816 946.127C101.939 946.67 101.309 947.322 100.926 948.083C100.526 948.841 100.378 949.67 100.481 950.571C100.568 951.469 100.914 952.406 101.519 953.383L103.333 956.313L127.31 941.466L132.457 949.777Z" fill="#5988FF"/>
<path d="M112.165 916.243L80.4305 933.26L75.8107 924.645L100.603 911.35L93.7231 898.52L100.665 894.798L112.165 916.243Z" fill="#5988FF"/>
<path d="M96.2186 885.92L63.5193 901L52.6517 877.433L59.8047 874.134L66.5785 888.824L72.1987 886.232L65.9844 872.756L73.1374 869.458L79.3517 882.933L84.9719 880.342L78.2275 865.716L85.3804 862.418L96.2186 885.92Z" fill="#5988FF"/>
<path d="M40.9914 849.463L37.0551 837.95L53.6462 823.432L53.5096 823.033L31.5033 821.712L27.567 810.2L61.6392 798.55L64.7336 807.6L45.0356 814.335L45.1267 814.602L67.1523 815.544L69.0181 821.001L52.0471 835.277L52.1381 835.543L71.9691 828.762L75.0636 837.813L40.9914 849.463Z" fill="#5988FF"/>
<path d="M56.2882 778.712L58.8625 788.943L21.042 786.203L17.7812 773.245L49.8009 752.931L52.3752 763.161L28.9939 777.168L29.0626 777.44L56.2882 778.712ZM42.9917 784.089L38.1519 764.855L45.2451 763.07L50.0848 782.304L42.9917 784.089Z" fill="#5988FF"/>
<path d="M47.9783 743.714L12.5194 749.982L9.81357 734.677C9.3483 732.045 9.46061 729.651 10.1505 727.493C10.8404 725.336 12.0291 723.542 13.7167 722.113C15.4043 720.684 17.5062 719.747 20.0225 719.302C22.5619 718.853 24.8607 719.03 26.919 719.833C28.9753 720.624 30.6852 721.946 32.0485 723.8C33.4098 725.643 34.3293 727.914 34.8068 730.615L36.4229 739.757L28.9433 741.08L27.67 733.877C27.47 732.746 27.1034 731.817 26.5701 731.09C26.0233 730.353 25.3428 729.836 24.5286 729.54C23.7123 729.232 22.802 729.167 21.7978 729.344C20.7821 729.524 19.9552 729.896 19.3171 730.461C18.6654 731.017 18.2205 731.732 17.9825 732.608C17.7308 733.474 17.705 734.472 17.905 735.603L18.5049 738.997L46.2764 734.087L47.9783 743.714Z" fill="#5988FF"/>
<path d="M14.7846 688.469C13.6295 688.69 12.7683 689.226 12.2009 690.078C11.6322 690.918 11.4337 692.125 11.6052 693.698C11.7145 694.7 11.9265 695.508 12.2411 696.122C12.5427 696.726 12.914 697.157 13.3549 697.416C13.7958 697.674 14.279 697.781 14.8047 697.735C15.2383 697.711 15.6204 697.593 15.951 697.38C16.2685 697.157 16.5456 696.832 16.782 696.405C17.0068 695.98 17.1962 695.446 17.3503 694.804C17.5043 694.163 17.6223 693.407 17.7044 692.537L18.0133 689.532C18.2168 687.505 18.5854 685.75 19.1191 684.265C19.6528 682.78 20.3368 681.538 21.1712 680.539C21.9939 679.541 22.9591 678.77 24.067 678.224C25.1735 677.668 26.4079 677.309 27.7699 677.149C30.125 676.903 32.1818 677.275 33.9402 678.262C35.6986 679.249 37.1213 680.78 38.2084 682.855C39.2941 684.918 40.0022 687.464 40.3326 690.494C40.6719 693.605 40.5078 696.37 39.8401 698.789C39.1712 701.197 37.9512 703.146 36.1799 704.636C34.3958 706.116 32.007 707.025 29.0136 707.363L28.0071 698.135C29.0961 697.957 29.9867 697.583 30.6791 697.012C31.3715 696.441 31.8617 695.692 32.1496 694.764C32.4363 693.825 32.5123 692.738 32.3776 691.503C32.2645 690.466 32.0416 689.612 31.709 688.94C31.3764 688.269 30.9632 687.778 30.4693 687.466C29.9755 687.154 29.4366 687.025 28.8527 687.077C28.3063 687.148 27.8483 687.381 27.4786 687.775C27.0959 688.158 26.784 688.758 26.5429 689.575C26.2901 690.392 26.0905 691.481 25.9441 692.841L25.5639 696.491C25.2221 699.735 24.3469 702.36 22.9384 704.365C21.517 706.359 19.4073 707.503 16.6095 707.797C14.3385 708.056 12.2857 707.667 10.451 706.629C8.60335 705.58 7.08295 704.019 5.8898 701.944C4.69537 699.858 3.94375 697.399 3.63493 694.567C3.31975 691.677 3.53073 689.125 4.26786 686.91C5.00499 684.696 6.19104 682.921 7.82602 681.588C9.44808 680.243 11.4295 679.438 13.7704 679.171L14.7846 688.469Z" fill="#5988FF"/>
<path d="M11.8023 614.606C10.6292 614.687 9.70982 615.116 9.04433 615.893C8.37898 616.659 8.0371 617.833 8.01871 619.416C8.007 620.424 8.12046 621.251 8.35911 621.899C8.58617 622.534 8.90304 623.007 9.30972 623.317C9.71641 623.626 10.1834 623.79 10.7107 623.808C11.1441 623.836 11.5376 623.764 11.8913 623.593C12.2334 623.409 12.5474 623.12 12.8333 622.725C13.1075 622.329 13.3596 621.822 13.5895 621.204C13.8194 620.585 14.0273 619.849 14.213 618.995L14.8803 616.049C15.3254 614.061 15.9019 612.362 16.6099 610.952C17.3179 609.542 18.146 608.391 19.0942 607.499C20.0306 606.608 21.0815 605.958 22.2467 605.549C23.4121 605.129 24.6806 604.921 26.052 604.925C28.4195 604.964 30.4169 605.58 32.0441 606.771C33.6714 607.962 34.9002 609.653 35.7305 611.843C36.5609 614.021 36.9584 616.634 36.923 619.681C36.8866 622.811 36.3919 625.536 35.4389 627.858C34.4859 630.168 33.0409 631.956 31.1037 633.223C29.1549 634.478 26.6743 635.094 23.662 635.071L23.7698 625.788C24.8723 625.742 25.8014 625.478 26.5573 624.994C27.3131 624.511 27.8896 623.826 28.2868 622.939C28.684 622.041 28.8899 620.971 28.9043 619.729C28.9165 618.686 28.7977 617.811 28.548 617.105C28.2983 616.398 27.947 615.861 27.4941 615.492C27.0413 615.124 26.5219 614.93 25.936 614.911C25.3849 614.917 24.9023 615.093 24.488 615.44C24.0621 615.775 23.6805 616.333 23.3432 617.114C22.9941 617.896 22.6653 618.953 22.3568 620.286L21.5415 623.863C20.8129 627.043 19.6292 629.544 17.9904 631.365C16.3399 633.175 14.1083 634.057 11.2954 634.013C9.00974 633.998 7.01843 633.365 5.3215 632.115C3.61299 630.852 2.29091 629.12 1.35528 626.917C0.41979 624.702 -0.0314057 622.171 0.00169697 619.322C0.0354808 616.416 0.551114 613.907 1.5486 611.797C2.54608 609.687 3.93641 608.068 5.7196 606.94C7.49121 605.8 9.55501 605.238 11.911 605.253L11.8023 614.606Z" fill="#5988FF"/>
<path d="M2.90999 571.031L3.69165 561.286L26.6859 563.131C29.4199 563.35 31.7335 564.194 33.6265 565.663C35.5087 567.119 36.8999 569.054 37.8 571.466C38.6884 573.877 39.0094 576.619 38.7629 579.692C38.5145 582.789 37.7596 585.456 36.4982 587.695C35.225 589.933 33.5433 591.621 31.453 592.759C29.3519 593.884 26.9344 594.336 24.2003 594.117L1.20608 592.273L1.98774 582.528L24.1407 584.305C25.2507 584.394 26.2635 584.228 27.1792 583.808C28.0832 583.386 28.8152 582.763 29.3753 581.938C29.9363 581.101 30.2613 580.127 30.3504 579.018C30.4403 577.896 30.2746 576.883 29.8533 575.979C29.4319 575.075 28.8086 574.343 27.9833 573.783C27.1464 573.222 26.1729 572.897 25.0629 572.808L2.90999 571.031Z" fill="#5988FF"/>
<path d="M40.8241 553.687L5.21151 548.361L7.51062 532.989C7.90595 530.345 8.77352 528.111 10.1134 526.284C11.4532 524.458 13.1503 523.136 15.2046 522.317C17.2589 521.498 19.5496 521.278 22.0768 521.656C24.6272 522.037 26.7506 522.936 28.4471 524.351C30.1454 525.755 31.3462 527.552 32.0496 529.743C32.7547 531.923 32.9044 534.369 32.4987 537.082L31.1255 546.263L23.6134 545.139L24.6954 537.906C24.8653 536.769 24.813 535.772 24.5385 534.913C24.2541 534.041 23.773 533.335 23.0953 532.795C22.4192 532.244 21.5769 531.892 20.5684 531.742C19.5482 531.589 18.6458 531.679 17.8612 532.012C17.0667 532.332 16.4175 532.869 15.9136 533.623C15.3998 534.364 15.0579 535.303 14.888 536.439L14.3782 539.847L42.2701 544.019L40.8241 553.687Z" fill="#5988FF"/>
<path d="M46.9589 515L11.7778 507.324L15.091 492.138C15.6607 489.527 16.6745 487.355 18.1325 485.621C19.5905 483.888 21.3715 482.681 23.4756 482C25.5796 481.319 27.88 481.251 30.3765 481.796C32.896 482.346 34.9552 483.383 36.5541 484.908C38.1556 486.421 39.2346 488.294 39.7912 490.527C40.3502 492.748 40.3374 495.199 39.7527 497.879L37.7738 506.949L30.3528 505.33L31.912 498.184C32.1568 497.061 32.1708 496.063 31.9538 495.187C31.7279 494.298 31.2947 493.562 30.6542 492.978C30.0162 492.383 29.199 491.977 28.2027 491.76C27.1949 491.54 26.2885 491.57 25.4835 491.85C24.6696 492.116 23.9862 492.609 23.4334 493.328C22.8716 494.034 22.4683 494.948 22.2234 496.07L21.4888 499.437L49.0427 505.449L46.9589 515Z" fill="#5988FF"/>
<path d="M55.7056 476.793L21.0697 466.945L23.7433 457.542L50.8026 465.235L54.784 451.232L62.3606 453.386L55.7056 476.793Z" fill="#5988FF"/>
<path d="M65.3405 443.915L31.359 432.003L39.9436 407.512L47.3771 410.118L42.0262 425.383L47.8668 427.431L52.7756 413.426L60.2091 416.032L55.3002 430.036L61.1408 432.084L66.4684 416.885L73.9018 419.49L65.3405 443.915Z" fill="#5988FF"/>
<path d="M51.0221 379.307L56.202 368.297L78.2199 369.408L78.3996 369.026L63.5079 352.77L68.6878 341.76L101.27 357.091L97.198 365.745L78.3614 356.882L78.2416 357.137L93.4103 373.135L90.9551 378.353L68.8323 376.805L68.7126 377.059L87.6765 385.982L83.6044 394.637L51.0221 379.307Z" fill="#5988FF"/>
<path d="M111.225 339.116L105.959 348.257L80.692 319.982L87.363 308.403L124.497 316.081L119.23 325.222L92.69 319.021L92.5496 319.265L111.225 339.116ZM97.9326 333.73L107.834 316.545L114.171 320.197L104.27 337.382L97.9326 333.73Z" fill="#5988FF"/>
<path d="M129.598 308.192L99.7622 288.031L108.464 275.153C109.961 272.938 111.707 271.296 113.703 270.226C115.7 269.156 117.801 268.694 120.008 268.841C122.214 268.988 124.376 269.777 126.493 271.208C128.63 272.652 130.159 274.378 131.079 276.386C132.006 278.385 132.315 280.524 132.005 282.805C131.701 285.075 130.781 287.347 129.246 289.619L124.048 297.312L117.755 293.059L121.85 286.998C122.493 286.047 122.876 285.124 122.998 284.231C123.118 283.321 122.988 282.477 122.609 281.697C122.237 280.908 121.629 280.228 120.784 279.657C119.929 279.08 119.076 278.772 118.224 278.734C117.37 278.68 116.552 278.885 115.773 279.348C114.989 279.795 114.276 280.495 113.633 281.446L111.704 284.302L135.071 300.092L129.598 308.192Z" fill="#5988FF"/>
<path d="M144.176 245.412C143.193 244.767 142.201 244.553 141.201 244.771C140.208 244.979 139.226 245.708 138.255 246.957C137.637 247.753 137.227 248.481 137.026 249.141C136.822 249.785 136.789 250.353 136.926 250.845C137.063 251.338 137.336 251.75 137.746 252.083C138.074 252.368 138.43 252.549 138.816 252.626C139.2 252.686 139.625 252.645 140.091 252.503C140.549 252.354 141.056 252.102 141.613 251.748C142.17 251.394 142.78 250.934 143.444 250.366L145.757 248.422C147.312 247.107 148.799 246.102 150.215 245.407C151.631 244.711 152.987 244.294 154.281 244.157C155.566 244.013 156.796 244.13 157.971 244.509C159.154 244.878 160.29 245.479 161.38 246.311C163.242 247.773 164.462 249.471 165.038 251.403C165.615 253.336 165.572 255.425 164.91 257.672C164.255 259.909 162.993 262.231 161.123 264.638C159.203 267.109 157.161 268.981 154.999 270.255C152.844 271.52 150.611 272.071 148.302 271.91C145.991 271.732 143.643 270.723 141.257 268.884L146.953 261.554C147.859 262.183 148.759 262.534 149.654 262.606C150.548 262.677 151.421 262.48 152.273 262.014C153.133 261.539 153.943 260.81 154.706 259.829C155.346 259.005 155.78 258.237 156.008 257.523C156.236 256.81 156.281 256.169 156.143 255.602C156.005 255.034 155.708 254.566 155.252 254.197C154.81 253.868 154.319 253.717 153.779 253.743C153.238 253.753 152.596 253.967 151.855 254.385C151.105 254.797 150.204 255.44 149.153 256.316L146.341 258.673C143.839 260.767 141.384 262.043 138.978 262.504C136.569 262.948 134.258 262.303 132.044 260.567C130.232 259.174 129.028 257.466 128.431 255.445C127.833 253.406 127.827 251.227 128.413 248.906C129.006 246.576 130.177 244.287 131.924 242.038C133.708 239.742 135.635 238.055 137.705 236.977C139.775 235.899 141.861 235.449 143.964 235.628C146.064 235.79 148.048 236.59 149.916 238.026L144.176 245.412Z" fill="#5988FF"/>
</svg>
