<svg width="943" height="943" viewBox="0 0 943 943" fill="none" xmlns="http://www.w3.org/2000/svg">
<path d="M749.853 838.017C750.646 838.885 751.553 839.338 752.576 839.374C753.589 839.418 754.721 838.955 755.97 837.984C756.766 837.366 757.344 836.762 757.702 836.172C758.058 835.599 758.23 835.057 758.219 834.546C758.208 834.035 758.046 833.568 757.732 833.144C757.484 832.787 757.183 832.523 756.829 832.354C756.472 832.2 756.05 832.135 755.563 832.157C755.083 832.188 754.529 832.307 753.902 832.512C753.275 832.717 752.57 833.013 751.786 833.399L749.066 834.71C747.233 835.599 745.545 836.206 744.001 836.529C742.457 836.853 741.041 836.921 739.754 836.734C738.473 836.557 737.31 836.139 736.265 835.481C735.211 834.831 734.259 833.968 733.409 832.892C731.966 831.015 731.204 829.069 731.124 827.054C731.043 825.039 731.601 823.025 732.798 821.012C733.985 819.006 735.782 817.068 738.189 815.199C740.66 813.279 743.101 811.97 745.51 811.271C747.911 810.578 750.21 810.596 752.407 811.323C754.602 812.067 756.627 813.625 758.484 815.997L751.153 821.691C750.431 820.857 749.646 820.294 748.797 820.004C747.948 819.713 747.054 819.689 746.113 819.929C745.163 820.178 744.198 820.683 743.217 821.445C742.393 822.085 741.782 822.722 741.385 823.357C740.988 823.992 740.786 824.602 740.779 825.185C740.773 825.769 740.945 826.296 741.295 826.766C741.642 827.194 742.08 827.462 742.609 827.571C743.137 827.695 743.811 827.647 744.632 827.424C745.461 827.211 746.493 826.81 747.727 826.222L751.034 824.633C753.976 823.224 756.669 822.593 759.114 822.742C761.557 822.907 763.637 824.105 765.353 826.333C766.764 828.131 767.508 830.084 767.586 832.19C767.661 834.313 767.128 836.426 765.987 838.53C764.836 840.641 763.136 842.569 760.887 844.316C758.592 846.099 756.308 847.257 754.036 847.79C751.764 848.323 749.632 848.243 747.64 847.55C745.645 846.873 743.921 845.608 742.467 843.754L749.853 838.017Z" fill="#5988FF"/>
<path d="M720.352 871.97L712.112 877.228L699.707 857.782C698.232 855.47 697.508 853.116 697.537 850.72C697.562 848.341 698.264 846.064 699.644 843.891C701.03 841.727 703.022 839.816 705.621 838.158C708.239 836.487 710.821 835.479 713.367 835.133C715.919 834.797 718.279 835.12 720.447 836.1C722.612 837.096 724.432 838.75 725.907 841.062L738.313 860.508L730.073 865.766L718.121 847.032C717.523 846.093 716.779 845.385 715.892 844.909C715.01 844.443 714.072 844.235 713.076 844.287C712.07 844.345 711.098 844.673 710.159 845.272C709.211 845.877 708.503 846.621 708.037 847.502C707.571 848.384 707.363 849.323 707.415 850.319C707.473 851.325 707.801 852.297 708.4 853.236L720.352 871.97Z" fill="#5988FF"/>
<path d="M683.708 852.014L700.19 884.027L686.375 891.142C683.999 892.366 681.679 892.967 679.415 892.947C677.15 892.927 675.086 892.323 673.221 891.134C671.357 889.945 669.84 888.215 668.67 885.943C667.49 883.651 666.978 881.402 667.136 879.199C667.282 877.001 668.039 874.976 669.406 873.125C670.763 871.279 672.66 869.728 675.098 868.473L683.35 864.223L686.827 870.975L680.325 874.324C679.304 874.85 678.525 875.475 677.989 876.199C677.447 876.94 677.156 877.743 677.113 878.608C677.061 879.479 677.268 880.368 677.735 881.274C678.207 882.191 678.807 882.871 679.536 883.313C680.259 883.771 681.074 883.984 681.981 883.952C682.882 883.936 683.843 883.665 684.864 883.14L687.927 881.562L675.018 856.49L683.708 852.014Z" fill="#5988FF"/>
<path d="M648.817 869.469L662.37 902.827L647.974 908.678C645.498 909.684 643.134 910.076 640.88 909.853C638.627 909.63 636.625 908.844 634.874 907.493C633.124 906.142 631.767 904.283 630.806 901.916C629.835 899.527 629.527 897.242 629.88 895.061C630.223 892.885 631.158 890.936 632.685 889.215C634.201 887.498 636.23 886.123 638.77 885.091L647.369 881.596L650.228 888.632L643.453 891.386C642.389 891.818 641.557 892.371 640.958 893.045C640.353 893.734 639.99 894.507 639.871 895.366C639.741 896.228 639.867 897.132 640.251 898.077C640.64 899.032 641.177 899.763 641.863 900.268C642.542 900.789 643.335 901.075 644.241 901.124C645.14 901.189 646.121 901.005 647.185 900.572L650.377 899.275L639.763 873.149L648.817 869.469Z" fill="#5988FF"/>
<path d="M612.449 883.672L623.156 918.05L613.825 920.957L605.46 894.099L591.563 898.429L589.221 890.909L612.449 883.672Z" fill="#5988FF"/>
<path d="M579.77 893.467L587.654 928.601L562.338 934.284L560.613 926.599L576.393 923.056L575.038 917.018L560.562 920.268L558.837 912.582L573.313 909.332L571.958 903.294L556.247 906.821L554.522 899.135L579.77 893.467Z" fill="#5988FF"/>
<path d="M531.424 939.592L519.301 940.592L509.287 920.953L508.867 920.988L502.202 942.001L490.078 943L487.122 907.114L496.652 906.329L498.362 927.075L498.642 927.052L504.945 905.927L510.691 905.454L520.378 925.402L520.658 925.379L518.937 904.492L528.468 903.707L531.424 939.592Z" fill="#5988FF"/>
<path d="M466.76 906.967L477.302 907.281L464.353 942.919L450.999 942.521L440.192 906.176L450.735 906.49L457.83 932.804L458.111 932.812L466.76 906.967ZM468.305 921.225L448.485 920.635L448.702 913.324L468.523 913.915L468.305 921.225Z" fill="#5988FF"/>
<path d="M431 905.261L426.464 940.981L411.048 939.023C408.397 938.686 406.144 937.868 404.289 936.569C402.434 935.27 401.075 933.602 400.211 931.567C399.347 929.531 399.076 927.246 399.398 924.711C399.723 922.153 400.574 920.01 401.951 918.283C403.317 916.554 405.087 915.314 407.261 914.562C409.424 913.809 411.866 913.605 414.586 913.951L423.794 915.121L422.837 922.656L415.583 921.734C414.443 921.589 413.447 921.663 412.595 921.957C411.729 922.26 411.034 922.757 410.51 923.446C409.973 924.135 409.641 924.984 409.513 925.996C409.383 927.019 409.493 927.919 409.843 928.696C410.18 929.484 410.731 930.121 411.496 930.608C412.248 931.105 413.194 931.426 414.333 931.571L417.751 932.005L421.304 904.029L431 905.261Z" fill="#5988FF"/>
<path d="M368.101 919.91C367.942 921.075 368.175 922.063 368.801 922.872C369.416 923.679 370.496 924.252 372.042 924.591C373.026 924.807 373.86 924.864 374.542 924.761C375.21 924.668 375.737 924.454 376.123 924.118C376.508 923.783 376.763 923.359 376.888 922.846C377.003 922.427 377.013 922.028 376.917 921.647C376.806 921.274 376.587 920.908 376.258 920.548C375.926 920.199 375.481 919.85 374.922 919.499C374.363 919.148 373.685 918.795 372.887 918.44L370.138 917.189C368.282 916.35 366.736 915.441 365.499 914.461C364.262 913.482 363.303 912.438 362.623 911.328C361.94 910.231 361.516 909.07 361.353 907.846C361.178 906.62 361.232 905.335 361.514 903.993C362.033 901.683 363.04 899.852 364.536 898.5C366.033 897.149 367.937 896.289 370.249 895.92C372.55 895.549 375.189 895.69 378.165 896.343C381.222 897.013 383.79 898.051 385.869 899.455C387.937 900.857 389.395 902.634 390.242 904.788C391.076 906.951 391.176 909.505 390.542 912.45L381.476 910.461C381.655 909.372 381.584 908.409 381.264 907.57C380.944 906.732 380.39 906.029 379.603 905.46C378.804 904.889 377.798 904.47 376.585 904.204C375.566 903.98 374.686 903.919 373.944 904.02C373.202 904.122 372.604 904.356 372.152 904.725C371.699 905.094 371.404 905.563 371.267 906.133C371.16 906.674 371.235 907.182 371.49 907.658C371.732 908.143 372.201 908.63 372.898 909.119C373.592 909.619 374.56 910.156 375.802 910.728L379.139 912.252C382.105 913.611 384.313 915.277 385.763 917.251C387.2 919.235 387.611 921.599 386.997 924.344C386.519 926.579 385.496 928.401 383.927 929.808C382.345 931.225 380.38 932.168 378.034 932.637C375.676 933.104 373.106 933.032 370.324 932.422C367.485 931.799 365.134 930.785 363.271 929.381C361.407 927.976 360.104 926.286 359.361 924.311C358.605 922.345 358.473 920.21 358.966 917.906L368.101 919.91Z" fill="#5988FF"/>
<path d="M296.98 897.278C296.635 898.402 296.705 899.414 297.193 900.314C297.669 901.21 298.642 901.95 300.113 902.534C301.049 902.907 301.862 903.098 302.552 903.107C303.227 903.123 303.782 902.997 304.216 902.728C304.651 902.459 304.971 902.082 305.177 901.596C305.359 901.202 305.433 900.809 305.399 900.417C305.351 900.032 305.193 899.635 304.927 899.226C304.656 898.829 304.273 898.412 303.778 897.975C303.283 897.539 302.671 897.081 301.941 896.601L299.43 894.922C297.734 893.794 296.355 892.647 295.293 891.48C294.231 890.314 293.453 889.128 292.961 887.924C292.464 886.73 292.234 885.516 292.271 884.281C292.296 883.043 292.557 881.784 293.052 880.506C293.938 878.31 295.228 876.666 296.923 875.574C298.618 874.482 300.636 873.941 302.978 873.951C305.309 873.957 307.89 874.522 310.721 875.648C313.629 876.804 315.996 878.243 317.821 879.965C319.635 881.682 320.787 883.672 321.275 885.935C321.748 888.204 321.433 890.741 320.332 893.544L311.706 890.116C312.059 889.07 312.145 888.108 311.964 887.229C311.784 886.35 311.351 885.566 310.667 884.878C309.971 884.185 309.046 883.609 307.891 883.15C306.922 882.765 306.063 882.562 305.314 882.542C304.566 882.522 303.938 882.657 303.432 882.948C302.925 883.238 302.559 883.654 302.331 884.194C302.139 884.71 302.13 885.224 302.305 885.735C302.465 886.253 302.85 886.809 303.458 887.404C304.062 888.01 304.931 888.696 306.064 889.462L309.111 891.506C311.818 893.326 313.728 895.327 314.84 897.51C315.937 899.7 315.961 902.099 314.911 904.709C314.078 906.837 312.774 908.469 310.998 909.605C309.208 910.747 307.117 911.36 304.725 911.444C302.323 911.523 299.798 911.037 297.152 909.985C294.451 908.911 292.295 907.531 290.683 905.843C289.071 904.155 288.058 902.277 287.644 900.208C287.215 898.145 287.431 896.017 288.29 893.824L296.98 897.278Z" fill="#5988FF"/>
<path d="M252.758 889.08L244.047 884.647L254.506 864.088C255.75 861.644 257.411 859.826 259.49 858.635C261.553 857.449 263.87 856.899 266.443 856.985C269.011 857.082 271.668 857.83 274.415 859.228C277.183 860.636 279.361 862.35 280.951 864.369C282.535 866.398 283.455 868.596 283.711 870.962C283.951 873.333 283.449 875.741 282.206 878.185L271.746 898.744L263.035 894.311L273.112 874.504C273.617 873.512 273.85 872.512 273.809 871.505C273.764 870.509 273.467 869.595 272.917 868.763C272.357 867.925 271.58 867.254 270.588 866.749C269.586 866.239 268.586 866.006 267.59 866.052C266.594 866.097 265.68 866.395 264.848 866.945C264.011 867.505 263.339 868.281 262.835 869.273L252.758 889.08Z" fill="#5988FF"/>
<path d="M251.359 847.372L232.142 877.821L219.001 869.525C216.742 868.098 215.046 866.404 213.915 864.442C212.783 862.48 212.256 860.394 212.335 858.184C212.413 855.974 213.134 853.789 214.497 851.628C215.874 849.447 217.551 847.866 219.529 846.883C221.498 845.894 223.626 845.519 225.915 845.758C228.193 845.991 230.492 846.839 232.811 848.303L240.659 853.258L236.606 859.681L230.422 855.777C229.451 855.164 228.517 854.81 227.62 854.715C226.708 854.624 225.868 854.78 225.101 855.183C224.324 855.579 223.663 856.209 223.119 857.071C222.569 857.943 222.288 858.806 222.276 859.658C222.249 860.514 222.479 861.324 222.966 862.089C223.437 862.858 224.158 863.549 225.13 864.162L228.043 866.002L243.094 842.154L251.359 847.372Z" fill="#5988FF"/>
<path d="M218.618 826.159L196.754 854.766L184.408 845.327C182.285 843.704 180.748 841.865 179.796 839.81C178.845 837.754 178.507 835.63 178.782 833.436C179.058 831.241 179.972 829.129 181.523 827.099C183.089 825.051 184.901 823.625 186.959 822.824C189.008 822.015 191.162 821.832 193.42 822.275C195.668 822.71 197.882 823.761 200.06 825.427L207.434 831.064L202.822 837.099L197.013 832.657C196.1 831.959 195.202 831.523 194.317 831.349C193.417 831.176 192.566 831.256 191.766 831.589C190.957 831.914 190.243 832.482 189.623 833.292C188.997 834.112 188.64 834.945 188.553 835.793C188.449 836.643 188.605 837.471 189.022 838.277C189.423 839.084 190.079 839.837 190.991 840.535L193.729 842.628L210.853 820.223L218.618 826.159Z" fill="#5988FF"/>
<path d="M187.928 802.021L163.741 828.692L156.502 822.125L175.397 801.288L164.616 791.508L169.906 785.673L187.928 802.021Z" fill="#5988FF"/>
<path d="M162.906 778.827L136.637 803.449L118.895 784.513L124.641 779.127L135.7 790.93L140.215 786.698L130.07 775.87L135.816 770.484L145.961 781.312L150.476 777.08L139.466 765.329L145.212 759.943L162.906 778.827Z" fill="#5988FF"/>
<path d="M98.6356 760.563L91.6233 750.621L103.462 732.026L103.219 731.681L81.7332 736.6L74.7209 726.658L104.139 705.901L109.651 713.717L92.6442 725.717L92.8063 725.946L114.205 720.66L117.528 725.372L105.257 743.842L105.419 744.072L122.541 731.991L128.054 739.807L98.6356 760.563Z" fill="#5988FF"/>
<path d="M93.9329 688.278L99.0117 697.523L61.7368 704.445L55.3036 692.734L81.1343 664.979L86.2131 674.225L67.1418 693.692L67.2772 693.938L93.9329 688.278ZM82.4324 696.844L72.8842 679.463L79.2934 675.941L88.8416 693.322L82.4324 696.844Z" fill="#5988FF"/>
<path d="M77.2603 656.593L44.1827 670.808L38.0482 656.527C36.9934 654.072 36.555 651.715 36.7329 649.457C36.9109 647.199 37.6577 645.182 38.9733 643.405C40.2888 641.627 42.1203 640.234 44.4676 639.226C46.8364 638.208 49.1143 637.854 51.3013 638.164C53.4836 638.464 55.4502 639.36 57.2012 640.853C58.9476 642.335 60.3621 644.336 61.4446 646.856L65.1087 655.385L58.1314 658.384L55.2446 651.664C54.7912 650.608 54.2218 649.788 53.5365 649.202C52.8358 648.61 52.0553 648.263 51.195 648.161C50.3301 648.047 49.4293 648.192 48.4925 648.595C47.545 649.002 46.8253 649.554 46.3335 650.25C45.8264 650.94 45.557 651.738 45.5256 652.644C45.4787 653.545 45.6819 654.523 46.1353 655.578L47.4955 658.744L73.4019 647.611L77.2603 656.593Z" fill="#5988FF"/>
<path d="M32.7232 609.816C31.6386 610.27 30.9065 610.972 30.5269 611.923C30.1437 612.862 30.1981 614.084 30.6901 615.588C31.0035 616.546 31.3774 617.293 31.8118 617.829C32.2313 618.357 32.6834 618.703 33.168 618.865C33.6526 619.027 34.1473 619.032 34.6522 618.879C35.0716 618.766 35.421 618.572 35.7005 618.295C35.9652 618.011 36.1692 617.636 36.3126 617.17C36.4449 616.707 36.5203 616.146 36.5387 615.486C36.5572 614.827 36.517 614.063 36.418 613.195L36.101 610.191C35.8825 608.166 35.8812 606.372 36.0974 604.809C36.3136 603.246 36.7269 601.89 37.3373 600.74C37.9366 599.595 38.722 598.641 39.6935 597.879C40.6613 597.106 41.795 596.5 43.0945 596.063C45.348 595.338 47.4367 595.277 49.3605 595.881C51.2843 596.484 52.9917 597.689 54.4826 599.495C55.9699 601.29 57.1874 603.635 58.1349 606.532C59.108 609.506 59.5172 612.246 59.3626 614.751C59.2042 617.244 58.4122 619.403 56.9864 621.226C55.5459 623.042 53.3962 624.424 50.5373 625.372L47.6509 616.549C48.6797 616.15 49.4739 615.601 50.0337 614.899C50.5935 614.198 50.9187 613.364 51.0092 612.397C51.0962 611.419 50.9465 610.34 50.5602 609.159C50.2358 608.167 49.8418 607.378 49.3781 606.789C48.9144 606.201 48.4088 605.805 47.8615 605.602C47.3141 605.399 46.7601 605.383 46.1996 605.554C45.6797 605.737 45.2796 606.059 44.9991 606.52C44.7038 606.975 44.5223 607.626 44.4546 608.475C44.3758 609.327 44.4049 610.433 44.5419 611.794L44.922 615.444C45.2561 618.689 44.9407 621.437 43.9759 623.689C42.9962 625.934 41.168 627.488 38.4912 628.352C36.3229 629.074 34.2343 629.116 32.2255 628.478C30.2018 627.833 28.3926 626.619 26.7977 624.834C25.1993 623.039 23.9572 620.788 23.0716 618.081C22.1678 615.318 21.8483 612.777 22.1131 610.458C22.3779 608.139 23.1727 606.159 24.4974 604.517C25.8073 602.867 27.5798 601.67 29.8149 600.927L32.7232 609.816Z" fill="#5988FF"/>
<path d="M16.1358 537.035C14.9921 537.308 14.1561 537.882 13.6279 538.759C13.0979 539.624 12.9541 540.838 13.1966 542.402C13.351 543.398 13.5992 544.196 13.9412 544.795C14.2698 545.385 14.6601 545.799 15.1121 546.037C15.5642 546.275 16.0516 546.36 16.5746 546.29C17.0067 546.247 17.3829 546.112 17.7034 545.884C18.0105 545.647 18.2725 545.309 18.4894 544.873C18.6947 544.437 18.8598 543.896 18.9846 543.248C19.1095 542.6 19.1932 541.84 19.2358 540.967L19.4086 537.951C19.5202 535.917 19.809 534.147 20.275 532.639C20.7409 531.132 21.368 529.86 22.1562 528.825C22.9328 527.791 23.862 526.977 24.9438 526.382C26.0239 525.776 27.2405 525.361 28.5937 525.14C30.9348 524.788 33.0058 525.066 34.8067 525.973C36.6076 526.88 38.0978 528.345 39.2772 530.368C40.4549 532.38 41.2772 534.891 41.7441 537.903C42.2236 540.996 42.1846 543.765 41.6271 546.212C41.0678 548.647 39.9373 550.649 38.2356 552.218C36.5206 553.777 34.1758 554.793 31.2013 555.266L29.7789 546.093C30.8585 545.866 31.7312 545.452 32.397 544.85C33.0627 544.249 33.5184 543.479 33.7641 542.539C34.008 541.588 34.0347 540.498 33.8444 539.271C33.6845 538.24 33.4234 537.397 33.0608 536.741C32.6983 536.086 32.2634 535.613 31.756 535.324C31.2487 535.035 30.7046 534.93 30.1238 535.008C29.5813 535.104 29.1343 535.357 28.7829 535.768C28.418 536.168 28.1336 536.782 27.9297 537.608C27.7142 538.436 27.564 539.533 27.4793 540.898L27.2645 544.561C27.0697 547.818 26.3142 550.479 24.998 552.545C23.6684 554.602 21.6131 555.84 18.8319 556.26C16.5754 556.621 14.5075 556.325 12.6281 555.372C10.7354 554.408 9.14626 552.917 7.8608 550.898C6.57354 548.868 5.71171 546.445 5.2753 543.631C4.82991 540.758 4.92529 538.199 5.56144 535.953C6.19758 533.708 7.30201 531.882 8.87471 530.476C10.434 529.059 12.3767 528.165 14.7026 527.792L16.1358 537.035Z" fill="#5988FF"/>
<path d="M0.760616 494.764L0.160231 485.007L23.1802 483.59C25.9173 483.421 28.3263 483.931 30.4071 485.118C32.4755 486.294 34.1253 488.013 35.3563 490.274C36.5757 492.536 37.2801 495.205 37.4694 498.282C37.6602 501.382 37.2891 504.129 36.3563 506.524C35.4117 508.919 33.9851 510.827 32.0765 512.248C30.1555 513.658 27.8264 514.447 25.0893 514.616L2.06937 516.033L1.46898 506.276L23.6467 504.91C24.7579 504.842 25.7371 504.535 26.5841 503.99C27.4195 503.445 28.0562 502.725 28.4942 501.829C28.9314 500.921 29.1159 499.912 29.0475 498.8C28.9784 497.677 28.6716 496.698 28.127 495.862C27.5825 495.027 26.8623 494.39 25.9665 493.952C25.0589 493.515 24.0496 493.33 22.9383 493.399L0.760616 494.764Z" fill="#5988FF"/>
<path d="M35.9843 472.395L0 471.282L0.480394 455.747C0.562996 453.076 1.16239 450.755 2.27857 448.784C3.39474 446.814 4.9247 445.301 6.86845 444.247C8.81219 443.193 11.0608 442.706 13.6144 442.785C16.1914 442.865 18.4051 443.508 20.2555 444.714C22.1063 445.909 23.5093 447.553 24.4646 449.647C25.4203 451.728 25.8558 454.14 25.771 456.881L25.4841 466.16L17.8936 465.925L18.1197 458.615C18.1552 457.467 17.9863 456.482 17.613 455.662C17.2284 454.829 16.668 454.184 15.9317 453.727C15.1958 453.259 14.3183 453.009 13.2992 452.977C12.2684 452.946 11.383 453.141 10.643 453.564C9.89165 453.974 9.31001 454.584 8.8981 455.392C8.47483 456.188 8.24545 457.16 8.20995 458.308L8.10343 461.753L36.2865 462.624L35.9843 472.395Z" fill="#5988FF"/>
<path d="M37.6489 433.413L1.90849 429.085L3.77657 413.655C4.09777 411.002 4.90237 408.744 6.19036 406.881C7.47835 405.018 9.13746 403.649 11.1677 402.773C13.1979 401.897 15.4811 401.613 18.0174 401.92C20.5769 402.23 22.7242 403.069 24.4593 404.436C26.1958 405.791 27.4461 407.554 28.2103 409.725C28.976 411.884 29.194 414.325 28.8643 417.048L27.7485 426.264L20.2095 425.35L21.0886 418.089C21.2267 416.949 21.1465 415.954 20.8482 415.103C20.5396 414.239 20.0391 413.547 19.3466 413.026C18.6555 412.494 17.8039 412.166 16.7917 412.043C15.7679 411.919 14.8686 412.035 14.0937 412.39C13.3087 412.731 12.6748 413.286 12.1923 414.054C11.6995 414.809 11.3841 415.757 11.246 416.897L10.8318 420.318L38.8239 423.709L37.6489 433.413Z" fill="#5988FF"/>
<path d="M42.8732 394.715L7.62177 387.403L9.60654 377.831L37.1467 383.544L40.1024 369.289L47.8137 370.889L42.8732 394.715Z" fill="#5988FF"/>
<path d="M50.1614 361.381L15.619 351.234L22.9309 326.335L30.4871 328.554L25.9295 344.074L31.8665 345.818L36.0476 331.58L43.6037 333.8L39.4227 348.038L45.3596 349.782L49.8974 334.33L57.4535 336.549L50.1614 361.381Z" fill="#5988FF"/>
<path d="M33.2847 296.723L38.2922 285.635L60.3203 286.403L60.4939 286.019L45.3547 269.997L50.3622 258.909L83.172 273.731L79.2355 282.447L60.2673 273.878L60.1515 274.135L75.5637 289.894L73.1902 295.15L51.0504 293.945L50.9347 294.202L70.031 302.829L66.0945 311.545L33.2847 296.723Z" fill="#5988FF"/>
<path d="M93.1786 255.992L87.7899 265.061L62.913 236.447L69.7386 224.961L106.758 233.14L101.369 242.208L74.9205 235.649L74.7768 235.891L93.1786 255.992ZM79.9627 250.427L90.0934 233.379L96.3798 237.115L86.2491 254.164L79.9627 250.427Z" fill="#5988FF"/>
<path d="M112.018 225.546L82.9876 204.25L92.1781 191.717C93.7584 189.562 95.5664 187.989 97.6021 186.996C99.6378 186.004 101.755 185.624 103.954 185.856C106.153 186.088 108.282 186.96 110.342 188.471C112.421 189.996 113.882 191.78 114.724 193.822C115.573 195.855 115.799 198.005 115.401 200.271C115.01 202.528 114.004 204.763 112.382 206.974L106.893 214.46L100.769 209.968L105.094 204.07C105.773 203.144 106.191 202.237 106.348 201.349C106.503 200.445 106.406 199.596 106.057 198.803C105.716 198 105.134 197.297 104.312 196.694C103.481 196.084 102.64 195.743 101.791 195.673C100.939 195.586 100.115 195.759 99.3176 196.191C98.5181 196.608 97.7787 197.279 97.0994 198.206L95.0617 200.984L117.798 217.663L112.018 225.546Z" fill="#5988FF"/>
<path d="M129.721 163.427C128.78 162.722 127.803 162.447 126.792 162.603C125.788 162.749 124.763 163.416 123.717 164.603C123.051 165.359 122.597 166.06 122.355 166.707C122.113 167.337 122.045 167.901 122.151 168.401C122.257 168.901 122.504 169.33 122.892 169.687C123.202 169.992 123.547 170.194 123.927 170.295C124.306 170.379 124.732 170.364 125.207 170.251C125.672 170.131 126.194 169.911 126.772 169.592C127.35 169.273 127.987 168.851 128.685 168.325L131.112 166.528C132.746 165.312 134.291 164.401 135.747 163.794C137.204 163.187 138.582 162.855 139.882 162.798C141.173 162.733 142.393 162.926 143.543 163.377C144.7 163.819 145.797 164.489 146.833 165.387C148.601 166.961 149.713 168.73 150.169 170.695C150.625 172.659 150.454 174.742 149.654 176.943C148.863 179.136 147.459 181.375 145.445 183.661C143.376 186.009 141.223 187.752 138.987 188.89C136.758 190.019 134.496 190.431 132.202 190.127C129.907 189.807 127.625 188.656 125.358 186.673L131.495 179.708C132.36 180.393 133.237 180.798 134.125 180.925C135.013 181.052 135.897 180.909 136.776 180.496C137.663 180.075 138.517 179.398 139.338 178.466C140.028 177.683 140.508 176.943 140.78 176.245C141.051 175.547 141.136 174.91 141.033 174.336C140.93 173.761 140.663 173.275 140.231 172.879C139.81 172.523 139.33 172.342 138.789 172.334C138.248 172.31 137.595 172.485 136.83 172.857C136.055 173.221 135.117 173.808 134.014 174.616L131.062 176.796C128.436 178.73 125.908 179.853 123.478 180.164C121.047 180.459 118.781 179.672 116.678 177.803C114.956 176.3 113.86 174.522 113.39 172.467C112.919 170.395 113.047 168.22 113.775 165.94C114.511 163.651 115.821 161.439 117.704 159.302C119.625 157.121 121.652 155.556 123.784 154.608C125.917 153.66 128.026 153.34 130.113 153.648C132.199 153.94 134.13 154.861 135.904 156.41L129.721 163.427Z" fill="#5988FF"/>
<path d="M184.009 112.203C183.194 111.355 182.275 110.926 181.252 110.916C180.237 110.898 179.118 111.39 177.894 112.392C177.114 113.031 176.553 113.65 176.21 114.249C175.869 114.831 175.71 115.377 175.734 115.888C175.758 116.398 175.933 116.861 176.258 117.277C176.514 117.627 176.822 117.883 177.181 118.044C177.541 118.188 177.964 118.242 178.451 118.208C178.93 118.164 179.48 118.031 180.102 117.81C180.724 117.589 181.421 117.275 182.194 116.869L184.881 115.488C186.689 114.552 188.361 113.903 189.897 113.54C191.432 113.176 192.846 113.071 194.138 113.225C195.422 113.37 196.595 113.758 197.657 114.388C198.727 115.012 199.701 115.85 200.579 116.904C202.069 118.743 202.881 120.669 203.013 122.681C203.146 124.694 202.64 126.721 201.495 128.764C200.359 130.8 198.613 132.783 196.255 134.714C193.834 136.696 191.428 138.068 189.037 138.829C186.655 139.582 184.356 139.624 182.141 138.953C179.928 138.266 177.863 136.761 175.946 134.437L183.128 128.557C183.871 129.372 184.671 129.914 185.527 130.183C186.383 130.451 187.278 130.453 188.212 130.188C189.155 129.916 190.107 129.386 191.068 128.599C191.876 127.938 192.469 127.285 192.85 126.64C193.231 125.995 193.417 125.381 193.409 124.797C193.4 124.213 193.215 123.691 192.853 123.23C192.495 122.811 192.05 122.554 191.518 122.459C190.988 122.348 190.315 122.414 189.5 122.658C188.677 122.892 187.656 123.319 186.436 123.939L183.172 125.613C180.267 127.097 177.591 127.796 175.143 127.71C172.696 127.608 170.587 126.465 168.814 124.281C167.357 122.52 166.563 120.587 166.431 118.483C166.301 116.363 166.78 114.237 167.867 112.105C168.963 109.965 170.613 107.993 172.816 106.189C175.065 104.347 177.318 103.131 179.576 102.54C181.833 101.949 183.967 101.974 185.976 102.616C187.988 103.242 189.744 104.462 191.245 106.278L184.009 112.203Z" fill="#5988FF"/>
<path d="M212.629 77.5024L220.731 72.0343L233.632 91.1552C235.166 93.4287 235.949 95.7633 235.982 98.1591C236.019 100.539 235.375 102.832 234.051 105.041C232.721 107.239 230.779 109.201 228.224 110.925C225.65 112.663 223.094 113.737 220.558 114.148C218.015 114.549 215.648 114.288 213.455 113.364C211.265 112.423 209.404 110.817 207.87 108.543L194.969 89.4222L203.07 83.954L215.499 102.375C216.122 103.298 216.883 103.987 217.783 104.44C218.676 104.883 219.62 105.067 220.614 104.99C221.618 104.906 222.581 104.553 223.504 103.93C224.437 103.3 225.125 102.539 225.568 101.646C226.012 100.753 226.195 99.8087 226.118 98.8144C226.034 97.8103 225.681 96.8468 225.058 95.9238L212.629 77.5024Z" fill="#5988FF"/>
<path d="M249.772 96.5109L232.473 64.9328L246.101 57.4645C248.445 56.1803 250.748 55.5192 253.013 55.4813C255.277 55.4433 257.356 55.9945 259.25 57.135C261.145 58.2755 262.706 59.9662 263.933 62.2071C265.172 64.4685 265.741 66.7027 265.641 68.9096C265.551 71.1109 264.846 73.1544 263.527 75.04C262.218 76.9199 260.361 78.5188 257.957 79.8368L249.817 84.2975L246.168 77.6365L252.581 74.122C253.588 73.57 254.35 72.925 254.868 72.1869C255.391 71.4328 255.662 70.6227 255.681 69.7564C255.712 68.8845 255.482 68.0014 254.992 67.1071C254.496 66.2025 253.879 65.5386 253.139 65.1153C252.404 64.6761 251.584 64.484 250.678 64.539C249.778 64.5782 248.824 64.8737 247.817 65.4257L244.795 67.0816L258.344 91.8136L249.772 96.5109Z" fill="#5988FF"/>
<path d="M284.203 78.1658L269.798 45.1664L284.039 38.9475C286.488 37.8781 288.842 37.4259 291.101 37.5907C293.359 37.7555 295.381 38.4906 297.165 39.796C298.95 41.1014 300.354 42.9249 301.376 45.2667C302.407 47.6299 302.774 49.9061 302.477 52.0952C302.19 54.2796 301.305 56.2518 299.823 58.0117C298.352 59.7671 296.359 61.1934 293.846 62.2909L285.34 66.0054L282.301 59.0446L289.003 56.118C290.056 55.6584 290.873 55.0841 291.454 54.3953C292.042 53.691 292.384 52.9084 292.482 52.0474C292.59 51.1817 292.44 50.2815 292.032 49.347C291.619 48.4017 291.063 47.6851 290.365 47.1974C289.672 46.6941 288.872 46.4294 287.966 46.4033C287.065 46.3616 286.088 46.5706 285.036 47.0303L281.878 48.4091L293.161 74.2544L284.203 78.1658Z" fill="#5988FF"/>
<path d="M320.195 63.0326L308.609 28.9408L317.863 25.7947L326.915 52.4289L340.696 47.7436L343.23 55.2012L320.195 63.0326Z" fill="#5988FF"/>
<path d="M352.612 52.4002L343.828 17.4809L368.99 11.1491L370.911 18.7876L355.228 22.7344L356.737 28.7361L371.126 25.1154L373.047 32.754L358.659 36.3747L360.169 42.3764L375.784 38.4469L377.706 46.0855L352.612 52.4002Z" fill="#5988FF"/>
<path d="M399.757 5.04768L411.851 3.73737L422.366 23.1123L422.785 23.0669L428.908 1.8893L441.002 0.578991L444.879 36.3771L435.372 37.4072L433.13 16.7114L432.851 16.7417L427.093 38.0213L421.36 38.6423L411.165 18.9498L410.885 18.9801L413.142 39.8157L403.634 40.8458L399.757 5.04768Z" fill="#5988FF"/>
<path d="M465.238 36.0018L454.691 35.9588L466.721 0L480.08 0.0544578L491.817 36.1102L481.27 36.0672L473.501 9.94387L473.219 9.94272L465.238 36.0018ZM463.327 21.7878L483.156 21.8686L483.126 29.1826L463.297 29.1018L463.327 21.7878Z" fill="#5988FF"/>
<path d="M501.03 36.7888L504.647 0.963523L520.108 2.52537C522.767 2.79393 525.04 3.5537 526.928 4.80468C528.816 6.05566 530.218 7.68755 531.133 9.70033C532.049 11.7131 532.379 13.9907 532.122 16.5329C531.863 19.0986 531.067 21.2624 529.735 23.0246C528.414 24.7879 526.677 26.0732 524.522 26.8804C522.379 27.6889 519.943 27.9553 517.215 27.6797L507.98 26.7468L508.743 19.1899L516.019 19.9249C517.162 20.0403 518.155 19.9404 519 19.6252C519.857 19.2995 520.54 18.7853 521.046 18.0825C521.565 17.3809 521.875 16.5228 521.978 15.5082C522.081 14.482 521.948 13.5849 521.578 12.8171C521.221 12.0389 520.654 11.4161 519.876 10.9488C519.112 10.471 518.158 10.1744 517.015 10.059L513.587 9.71267L510.754 37.7712L501.03 36.7888Z" fill="#5988FF"/>
<path d="M563.532 20.5278C563.661 19.359 563.403 18.3782 562.756 17.5851C562.12 16.7943 561.026 16.2493 559.472 15.95C558.483 15.7594 557.648 15.724 556.969 15.8438C556.303 15.9543 555.782 16.1822 555.405 16.5274C555.028 16.8726 554.784 17.3031 554.673 17.8188C554.568 18.2402 554.568 18.6402 554.674 19.0187C554.794 19.388 555.023 19.7484 555.361 20.1C555.702 20.4401 556.156 20.7782 556.724 21.1144C557.291 21.4505 557.979 21.7858 558.785 22.1203L561.566 23.3003C563.442 24.0915 565.011 24.9607 566.273 25.908C567.535 26.8552 568.52 27.8746 569.229 28.966C569.94 30.046 570.393 31.1956 570.588 32.4148C570.794 33.6363 570.774 34.9215 570.526 36.2703C570.067 38.5931 569.106 40.4493 567.645 41.839C566.184 43.2287 564.303 44.1376 562.001 44.5655C559.71 44.9957 557.068 44.9226 554.076 44.3463C551.004 43.7545 548.41 42.7835 546.295 41.4331C544.192 40.085 542.689 38.3452 541.786 36.2138C540.898 34.0731 540.732 31.5226 541.29 28.5624L550.404 30.3179C550.254 31.4109 550.349 32.3722 550.69 33.2019C551.032 34.0317 551.603 34.7206 552.405 35.2689C553.218 35.8194 554.234 36.2121 555.454 36.4471C556.478 36.6443 557.36 36.6829 558.099 36.5626C558.838 36.4424 559.43 36.1922 559.873 35.8121C560.316 35.4319 560.599 34.9552 560.721 34.3819C560.814 33.8387 560.726 33.3325 560.459 32.8631C560.205 32.3845 559.723 31.9098 559.014 31.439C558.307 30.9567 557.326 30.4454 556.069 29.905L552.694 28.4671C549.695 27.1851 547.445 25.576 545.944 23.6396C544.457 21.694 543.985 19.3411 544.528 16.581C544.949 14.3344 545.925 12.4873 547.457 11.0396C549.002 9.58258 550.942 8.58943 553.276 8.06011C555.621 7.53301 558.192 7.53877 560.988 8.07737C563.842 8.62706 566.218 9.58015 568.117 10.9366C570.016 12.2931 571.363 13.949 572.156 15.9042C572.962 17.85 573.149 19.9808 572.715 22.2965L563.532 20.5278Z" fill="#5988FF"/>
<path d="M635.21 41.3258C635.527 40.1934 635.43 39.1836 634.92 38.2964C634.42 37.4132 633.428 36.6984 631.944 36.1519C630.998 35.8038 630.18 35.6339 629.49 35.6423C628.815 35.6437 628.264 35.7843 627.836 36.064C627.409 36.3438 627.098 36.7291 626.905 37.2201C626.733 37.619 626.669 38.0138 626.713 38.4045C626.772 38.7883 626.939 39.181 627.216 39.5826C627.497 39.9732 627.89 40.3803 628.396 40.8039C628.902 41.2274 629.526 41.6694 630.269 42.1299L632.822 43.744C634.546 44.8282 635.954 45.9397 637.046 47.0785C638.138 48.2173 638.945 49.3826 639.468 50.5743C639.995 51.755 640.256 52.9627 640.252 54.1974C640.258 55.4362 640.03 56.7011 639.567 57.9921C638.739 60.2101 637.491 61.8867 635.825 63.0219C634.158 64.1571 632.154 64.7497 629.813 64.7998C627.483 64.8539 624.888 64.3547 622.029 63.3023C619.092 62.2214 616.69 60.8437 614.821 59.1692C612.963 57.4987 611.761 55.5388 611.215 53.2895C610.684 51.0333 610.933 48.4896 611.962 45.6586L620.673 48.8646C620.347 49.9188 620.286 50.883 620.489 51.757C620.692 52.631 621.144 53.4033 621.847 54.074C622.56 54.7487 623.499 55.3006 624.665 55.7297C625.644 56.0899 626.508 56.2705 627.257 56.2714C628.006 56.2723 628.63 56.121 629.129 55.8174C629.627 55.5139 629.983 55.0892 630.197 54.5432C630.376 54.0222 630.371 53.5084 630.183 53.002C630.01 52.4886 629.612 51.9423 628.988 51.3631C628.368 50.7729 627.482 50.1095 626.33 49.3731L623.231 47.4084C620.479 45.6583 618.518 43.7065 617.35 41.553C616.197 39.3925 616.112 36.9943 617.094 34.3583C617.872 32.2092 619.134 30.5442 620.88 29.3633C622.641 28.1754 624.715 27.5089 627.104 27.3639C629.503 27.2229 632.039 27.6442 634.712 28.6279C637.44 29.6318 639.631 30.9566 641.285 32.6023C642.94 34.248 644.001 36.0997 644.468 38.1574C644.949 40.2082 644.789 42.3411 643.986 44.5561L635.21 41.3258Z" fill="#5988FF"/>
<path d="M679.628 48.3849L688.45 52.5928L678.522 73.4136C677.342 75.8893 675.728 77.7491 673.68 78.9931C671.649 80.2316 669.346 80.8408 666.772 80.8206C664.203 80.7899 661.527 80.111 658.745 78.7841C655.942 77.447 653.72 75.7898 652.079 73.8124C650.443 71.8244 649.467 69.6511 649.15 67.2925C648.849 64.9284 649.289 62.5085 650.47 60.0329L660.398 39.2121L669.22 43.4201L659.655 63.4791C659.176 64.4842 658.969 65.4894 659.035 66.4948C659.106 67.4896 659.427 68.3959 659.998 69.2136C660.579 70.0363 661.372 70.6874 662.377 71.1667C663.393 71.6511 664.398 71.8578 665.392 71.7868C666.387 71.7158 667.293 71.3948 668.111 70.8239C668.933 70.2423 669.584 69.449 670.063 68.4439L679.628 48.3849Z" fill="#5988FF"/>
<path d="M682.098 90.0416L700.527 59.1094L713.876 67.0655C716.172 68.4335 717.91 70.0836 719.092 72.0158C720.274 73.9481 720.854 76.0198 720.832 78.2311C720.811 80.4423 720.146 82.6455 718.838 84.8406C717.519 87.0558 715.882 88.6799 713.93 89.713C711.988 90.7521 709.87 91.1817 707.576 91.0017C705.292 90.8277 702.972 90.0387 700.617 88.6347L692.643 83.8827L696.531 77.3579L702.813 81.1019C703.799 81.6899 704.742 82.0198 705.64 82.0914C706.555 82.159 707.391 81.9816 708.147 81.5592C708.914 81.1427 709.558 80.4965 710.08 79.6205C710.608 78.7344 710.866 77.8653 710.856 77.013C710.861 76.1566 710.61 75.3523 710.104 74.6C709.613 73.8437 708.874 73.1715 707.888 72.5835L704.928 70.8195L690.494 95.0457L682.098 90.0416Z" fill="#5988FF"/>
<path d="M715.373 110.408L736.495 81.2487L749.079 90.3674C751.243 91.9353 752.827 93.7343 753.831 95.7645C754.835 97.7947 755.227 99.9101 755.008 102.111C754.789 104.311 753.93 106.446 752.431 108.515C750.919 110.603 749.144 112.075 747.107 112.929C745.079 113.79 742.931 114.028 740.663 113.644C738.404 113.266 736.164 112.273 733.943 110.664L726.427 105.217L730.882 99.0664L736.804 103.357C737.734 104.031 738.644 104.444 739.532 104.596C740.437 104.745 741.285 104.643 742.076 104.29C742.877 103.944 743.577 103.358 744.175 102.532C744.78 101.697 745.115 100.854 745.181 100.005C745.263 99.1522 745.085 98.3287 744.648 97.5341C744.227 96.7369 743.551 96.0013 742.621 95.3273L739.831 93.3056L723.288 116.143L715.373 110.408Z" fill="#5988FF"/>
<path d="M746.674 133.749L770.167 106.465L777.573 112.844L759.219 134.16L770.248 143.66L765.109 149.628L746.674 133.749Z" fill="#5988FF"/>
<path d="M772.282 156.294L797.91 131.005L816.133 149.478L810.527 155.01L799.168 143.496L794.764 147.842L805.184 158.406L799.577 163.938L789.157 153.374L784.752 157.721L796.061 169.185L790.455 174.717L772.282 156.294Z" fill="#5988FF"/>
<path d="M837 172.899L844.266 182.657L832.908 201.551L833.16 201.889L854.513 196.42L861.778 206.179L832.903 227.684L827.191 220.013L843.885 207.58L843.717 207.355L822.462 213.189L819.018 208.564L830.811 189.785L830.643 189.559L813.837 202.076L808.125 194.405L837 172.899Z" fill="#5988FF"/>
<path d="M843.558 245.04L838.243 235.928L875.328 228.051L882.06 239.593L856.951 268.002L851.636 258.89L870.201 238.94L870.059 238.697L843.558 245.04ZM854.835 236.181L864.826 253.311L858.51 256.997L848.518 239.866L854.835 236.181Z" fill="#5988FF"/>
<path d="M861.039 276.286L893.741 261.226L900.24 275.344C901.358 277.772 901.856 280.116 901.736 282.378C901.617 284.64 900.922 286.676 899.652 288.486C898.383 290.297 896.588 291.737 894.267 292.805C891.925 293.884 889.657 294.296 887.463 294.042C885.274 293.798 883.285 292.953 881.496 291.506C879.712 290.069 878.247 288.105 877.1 285.613L873.218 277.181L880.116 274.005L883.174 280.648C883.655 281.692 884.245 282.497 884.945 283.065C885.661 283.639 886.45 283.966 887.312 284.046C888.18 284.137 889.077 283.969 890.003 283.543C890.94 283.111 891.645 282.541 892.119 281.833C892.608 281.13 892.857 280.325 892.865 279.418C892.889 278.517 892.66 277.544 892.18 276.501L890.739 273.371L865.127 285.165L861.039 276.286Z" fill="#5988FF"/>
<path d="M906.763 321.904C907.835 321.422 908.549 320.702 908.904 319.742C909.263 318.793 909.178 317.573 908.647 316.082C908.309 315.133 907.916 314.395 907.468 313.87C907.035 313.353 906.574 313.019 906.086 312.87C905.597 312.72 905.103 312.728 904.602 312.894C904.185 313.017 903.841 313.221 903.569 313.504C903.311 313.795 903.117 314.175 902.986 314.645C902.865 315.111 902.804 315.674 902.803 316.334C902.801 316.994 902.861 317.756 902.983 318.621L903.377 321.616C903.647 323.635 903.694 325.428 903.518 326.996C903.342 328.564 902.964 329.931 902.383 331.095C901.814 332.256 901.053 333.23 900.102 334.016C899.154 334.814 898.036 335.448 896.748 335.919C894.514 336.702 892.428 336.816 890.489 336.262C888.55 335.708 886.813 334.548 885.276 332.781C883.743 331.025 882.466 328.711 881.444 325.84C880.395 322.892 879.915 320.163 880.006 317.655C880.1 315.158 880.836 312.98 882.215 311.121C883.608 309.269 885.722 307.832 888.555 306.811L891.667 315.557C890.649 315.982 889.869 316.552 889.328 317.267C888.786 317.982 888.482 318.825 888.417 319.794C888.355 320.774 888.532 321.849 888.949 323.019C889.298 324.002 889.713 324.782 890.191 325.358C890.67 325.934 891.185 326.316 891.738 326.505C892.29 326.694 892.844 326.696 893.4 326.511C893.915 326.315 894.307 325.983 894.576 325.514C894.859 325.052 895.024 324.396 895.07 323.546C895.127 322.693 895.069 321.587 894.897 320.23L894.424 316.592C894.006 313.356 894.251 310.6 895.158 308.324C896.079 306.055 897.867 304.455 900.521 303.523C902.67 302.745 904.757 302.649 906.781 303.235C908.821 303.828 910.661 304.996 912.301 306.738C913.945 308.492 915.244 310.711 916.199 313.394C917.173 316.133 917.558 318.664 917.353 320.989C917.148 323.314 916.404 325.315 915.122 326.99C913.855 328.673 912.114 329.915 909.898 330.716L906.763 321.904Z" fill="#5988FF"/>
<path d="M922.104 377.776C923.228 377.433 924.027 376.808 924.5 375.9C924.975 375.004 925.043 373.783 924.704 372.238C924.488 371.253 924.191 370.472 923.813 369.895C923.448 369.327 923.033 368.938 922.567 368.729C922.101 368.519 921.609 368.465 921.092 368.566C920.663 368.636 920.296 368.795 919.99 369.042C919.698 369.298 919.458 369.651 919.268 370.1C919.091 370.547 918.959 371.098 918.875 371.753C918.791 372.407 918.754 373.171 918.766 374.044L918.78 377.065C918.795 379.102 918.617 380.887 918.245 382.421C917.874 383.954 917.327 385.262 916.604 386.345C915.893 387.425 915.016 388.295 913.974 388.956C912.933 389.628 911.745 390.117 910.408 390.422C908.093 390.918 906.009 390.769 904.155 389.976C902.301 389.183 900.723 387.813 899.42 385.867C898.12 383.932 897.144 381.476 896.491 378.499C895.82 375.443 895.688 372.676 896.092 370.199C896.499 367.734 897.504 365.665 899.105 363.994C900.72 362.332 902.997 361.172 905.936 360.515L907.925 369.583C906.862 369.876 906.016 370.344 905.389 370.985C904.762 371.627 904.355 372.424 904.168 373.377C903.984 374.342 904.024 375.431 904.291 376.644C904.514 377.663 904.827 378.489 905.23 379.12C905.632 379.752 906.095 380.196 906.62 380.453C907.144 380.71 907.694 380.782 908.268 380.667C908.804 380.538 909.234 380.258 909.56 379.826C909.899 379.404 910.145 378.774 910.297 377.936C910.461 377.097 910.543 375.993 910.542 374.625L910.53 370.955C910.522 367.693 911.111 364.99 912.296 362.846C913.496 360.711 915.47 359.348 918.22 358.756C920.45 358.255 922.532 358.422 924.467 359.258C926.416 360.102 928.095 361.492 929.503 363.427C930.914 365.373 931.924 367.738 932.534 370.52C933.157 373.359 933.22 375.919 932.725 378.2C932.229 380.481 931.24 382.372 929.758 383.873C928.289 385.383 926.406 386.396 924.107 386.912L922.104 377.776Z" fill="#5988FF"/>
<path d="M940.071 419.013L941.276 428.714L918.388 431.557C915.667 431.895 913.231 431.536 911.08 430.481C908.943 429.435 907.19 427.822 905.821 425.642C904.464 423.46 903.595 420.839 903.215 417.78C902.832 414.698 903.032 411.933 903.815 409.485C904.609 407.036 905.914 405.043 907.731 403.506C909.561 401.98 911.837 401.047 914.558 400.709L937.446 397.867L938.65 407.568L916.6 410.306C915.495 410.444 914.537 410.811 913.725 411.408C912.925 412.003 912.335 412.761 911.953 413.683C911.573 414.616 911.451 415.635 911.589 416.74C911.727 417.857 912.094 418.815 912.69 419.615C913.285 420.415 914.043 421.006 914.965 421.388C915.897 421.768 916.916 421.889 918.021 421.752L940.071 419.013Z" fill="#5988FF"/>
<path d="M906.304 443.523L942.288 442.401L942.772 457.936C942.855 460.607 942.401 462.961 941.409 464.997C940.418 467.033 938.984 468.638 937.11 469.81C935.235 470.983 933.021 471.609 930.467 471.688C927.89 471.769 925.641 471.264 923.719 470.175C921.798 469.097 920.296 467.543 919.213 465.513C918.13 463.495 917.545 461.115 917.46 458.374L917.171 449.095L924.761 448.858L924.989 456.169C925.025 457.317 925.254 458.289 925.678 459.085C926.113 459.892 926.713 460.501 927.476 460.911C928.239 461.333 929.131 461.528 930.15 461.496C931.181 461.464 932.052 461.214 932.765 460.746C933.489 460.289 934.032 459.645 934.393 458.813C934.766 457.992 934.934 457.008 934.899 455.86L934.791 452.415L906.608 453.294L906.304 443.523Z" fill="#5988FF"/>
<path d="M907.06 482.534L943 484.637L942.093 500.153C941.937 502.82 941.274 505.124 940.104 507.063C938.934 509.003 937.363 510.472 935.391 511.472C933.419 512.473 931.158 512.898 928.607 512.749C926.033 512.598 923.838 511.894 922.022 510.638C920.205 509.392 918.847 507.71 917.95 505.591C917.052 503.484 916.683 501.061 916.843 498.323L917.385 489.056L924.966 489.499L924.539 496.801C924.472 497.948 924.614 498.936 924.964 499.767C925.326 500.61 925.868 501.27 926.592 501.747C927.314 502.235 928.185 502.509 929.203 502.569C930.232 502.629 931.123 502.458 931.874 502.056C932.636 501.666 933.234 501.073 933.668 500.276C934.113 499.492 934.369 498.527 934.436 497.38L934.638 493.94L906.489 492.293L907.06 482.534Z" fill="#5988FF"/>
<path d="M904.246 521.482L939.883 526.592L938.496 536.269L910.655 532.277L908.589 546.687L900.793 545.569L904.246 521.482Z" fill="#5988FF"/>
<path d="M899.041 555.204L934.146 563.188L928.393 588.493L920.714 586.746L924.3 570.974L918.266 569.601L914.976 584.071L907.297 582.325L910.587 567.855L904.553 566.483L900.983 582.187L893.303 580.44L899.041 555.204Z" fill="#5988FF"/>
<path d="M919.895 618.691L915.585 630.068L893.552 630.668L893.402 631.063L909.507 646.115L905.197 657.492L871.53 644.735L874.919 635.79L894.382 643.166L894.482 642.903L878.121 628.13L880.164 622.737L902.336 622.566L902.436 622.303L882.841 614.877L886.229 605.933L919.895 618.691Z" fill="#5988FF"/>
<path d="M862.644 663.058L867.46 653.673L894.064 680.688L887.964 692.576L850.509 686.709L855.324 677.324L882.129 682.229L882.258 681.979L862.644 663.058ZM876.18 667.793L867.126 685.437L860.62 682.097L869.674 664.453L876.18 667.793Z" fill="#5988FF"/>
<path d="M845.731 694.616L876.026 714.069L867.631 727.148C866.187 729.397 864.481 731.079 862.51 732.196C860.54 733.313 858.451 733.824 856.242 733.729C854.033 733.633 851.853 732.896 849.703 731.515C847.534 730.122 845.965 728.432 844.998 726.446C844.025 724.47 843.666 722.338 843.922 720.051C844.172 717.774 845.038 715.482 846.52 713.174L851.534 705.362L857.924 709.465L853.974 715.62C853.353 716.587 852.992 717.518 852.891 718.414C852.793 719.326 852.942 720.167 853.339 720.937C853.729 721.717 854.354 722.383 855.212 722.934C856.08 723.491 856.939 723.779 857.791 723.796C858.647 723.83 859.459 723.607 860.228 723.125C861 722.66 861.696 721.944 862.317 720.977L864.178 718.078L840.451 702.842L845.731 694.616Z" fill="#5988FF"/>
<path d="M831.914 757.714C832.897 758.359 833.889 758.572 834.889 758.355C835.881 758.146 836.863 757.417 837.833 756.168C838.452 755.371 838.861 754.643 839.062 753.983C839.265 753.339 839.298 752.771 839.161 752.279C839.024 751.787 838.751 751.374 838.342 751.041C838.013 750.757 837.657 750.576 837.271 750.499C836.888 750.439 836.463 750.48 835.996 750.622C835.539 750.772 835.032 751.023 834.475 751.377C833.918 751.731 833.308 752.192 832.644 752.76L830.333 754.705C828.778 756.02 827.292 757.025 825.877 757.721C824.461 758.417 823.106 758.834 821.812 758.972C820.527 759.117 819.297 759 818.122 758.621C816.94 758.252 815.804 757.651 814.713 756.819C812.851 755.358 811.631 753.661 811.054 751.729C810.477 749.797 810.519 747.707 811.181 745.46C811.835 743.223 813.097 740.901 814.965 738.494C816.885 736.022 818.925 734.149 821.087 732.875C823.241 731.61 825.473 731.058 827.782 731.219C830.092 731.396 832.441 732.404 834.827 734.242L829.133 741.574C828.227 740.944 827.327 740.594 826.433 740.523C825.539 740.451 824.666 740.649 823.814 741.115C822.955 741.591 822.145 742.319 821.383 743.3C820.743 744.124 820.309 744.893 820.082 745.607C819.854 746.32 819.809 746.961 819.947 747.528C820.085 748.095 820.382 748.564 820.838 748.932C821.28 749.261 821.771 749.412 822.311 749.386C822.852 749.376 823.493 749.162 824.234 748.743C824.984 748.331 825.885 747.688 826.936 746.812L829.746 744.454C832.247 742.36 834.701 741.083 837.107 740.621C839.515 740.177 841.826 740.821 844.04 742.556C845.852 743.949 847.056 745.656 847.653 747.678C848.252 749.716 848.258 751.895 847.673 754.216C847.081 756.546 845.911 758.836 844.164 761.085C842.382 763.381 840.456 765.068 838.386 766.147C836.317 767.226 834.231 767.676 832.129 767.498C830.029 767.336 828.045 766.537 826.178 765.101L831.914 757.714Z" fill="#5988FF"/>
</svg>
