<svg width="1392" height="1395" viewBox="0 0 1392 1395" fill="none" xmlns="http://www.w3.org/2000/svg">
<path d="M1379.66 772.679C1380.83 772.706 1381.79 772.362 1382.52 771.648C1383.25 770.946 1383.7 769.808 1383.86 768.234C1383.97 767.231 1383.93 766.397 1383.75 765.73C1383.58 765.077 1383.31 764.577 1382.93 764.232C1382.55 763.887 1382.1 763.682 1381.58 763.616C1381.15 763.548 1380.75 763.584 1380.39 763.723C1380.03 763.875 1379.69 764.134 1379.37 764.502C1379.06 764.871 1378.76 765.353 1378.48 765.948C1378.19 766.543 1377.92 767.257 1377.66 768.09L1376.72 770.963C1376.1 772.902 1375.37 774.541 1374.54 775.881C1373.71 777.221 1372.78 778.292 1371.75 779.094C1370.74 779.897 1369.63 780.449 1368.43 780.75C1367.24 781.062 1365.95 781.154 1364.59 781.026C1362.23 780.772 1360.3 779.978 1358.79 778.644C1357.28 777.31 1356.21 775.516 1355.58 773.26C1354.95 771.015 1354.79 768.377 1355.1 765.346C1355.42 762.233 1356.16 759.564 1357.32 757.339C1358.48 755.125 1360.08 753.476 1362.13 752.39C1364.18 751.317 1366.71 750.929 1369.7 751.226L1368.75 760.459C1367.65 760.405 1366.7 760.584 1365.91 760.997C1365.11 761.41 1364.47 762.039 1364 762.886C1363.52 763.744 1363.22 764.791 1363.09 766.027C1362.98 767.064 1363.02 767.946 1363.21 768.672C1363.39 769.398 1363.69 769.965 1364.11 770.373C1364.53 770.781 1365.03 771.021 1365.61 771.093C1366.16 771.137 1366.66 771.006 1367.1 770.698C1367.55 770.403 1367.99 769.882 1368.39 769.134C1368.81 768.388 1369.23 767.365 1369.66 766.066L1370.8 762.578C1371.81 759.478 1373.22 757.095 1375.02 755.43C1376.82 753.778 1379.13 753.102 1381.92 753.401C1384.2 753.623 1386.13 754.434 1387.7 755.833C1389.29 757.245 1390.45 759.091 1391.18 761.369C1391.91 763.659 1392.13 766.221 1391.84 769.054C1391.54 771.945 1390.8 774.396 1389.62 776.407C1388.43 778.417 1386.9 779.904 1385.02 780.865C1383.15 781.839 1381.05 782.212 1378.7 781.982L1379.66 772.679Z" fill="#5988FF"/>
<path d="M1384.78 816.692L1383.19 826.336L1360.43 822.578C1357.72 822.132 1355.49 821.097 1353.73 819.476C1351.97 817.868 1350.75 815.824 1350.05 813.346C1349.37 810.869 1349.28 808.11 1349.78 805.069C1350.28 802.004 1351.26 799.41 1352.7 797.284C1354.16 795.161 1355.98 793.619 1358.15 792.66C1360.34 791.715 1362.79 791.465 1365.5 791.912L1388.26 795.67L1386.66 805.314L1364.74 801.694C1363.64 801.512 1362.61 801.593 1361.67 801.935C1360.73 802.28 1359.95 802.84 1359.32 803.615C1358.69 804.402 1358.29 805.345 1358.11 806.443C1357.92 807.554 1358 808.576 1358.35 809.512C1358.69 810.448 1359.25 811.23 1360.03 811.857C1360.81 812.485 1361.76 812.891 1362.86 813.072L1384.78 816.692Z" fill="#5988FF"/>
<path d="M1345.59 830.862L1380.69 838.886L1377.23 854.036C1376.63 856.641 1375.59 858.803 1374.12 860.521C1372.64 862.24 1370.85 863.429 1368.74 864.088C1366.63 864.748 1364.33 864.793 1361.84 864.224C1359.32 863.649 1357.27 862.592 1355.69 861.051C1354.1 859.523 1353.04 857.639 1352.51 855.401C1351.97 853.174 1352.01 850.724 1352.62 848.051L1354.69 839.002L1362.09 840.695L1360.46 847.824C1360.21 848.944 1360.18 849.942 1360.39 850.819C1360.61 851.711 1361.04 852.451 1361.67 853.041C1362.3 853.642 1363.12 854.057 1364.11 854.284C1365.12 854.514 1366.02 854.493 1366.83 854.22C1367.65 853.962 1368.33 853.476 1368.89 852.763C1369.46 852.063 1369.88 851.154 1370.13 850.034L1370.9 846.675L1343.41 840.39L1345.59 830.862Z" fill="#5988FF"/>
<path d="M1336.54 869.017L1371.11 879.107L1366.75 894.025C1366 896.59 1364.84 898.687 1363.27 900.315C1361.69 901.943 1359.83 903.024 1357.69 903.557C1355.54 904.091 1353.24 903.999 1350.79 903.283C1348.31 902.561 1346.33 901.384 1344.84 899.752C1343.35 898.132 1342.4 896.189 1342 893.924C1341.6 891.669 1341.78 889.225 1342.55 886.593L1345.15 877.683L1352.44 879.811L1350.39 886.831C1350.07 887.934 1349.99 888.929 1350.14 889.817C1350.31 890.719 1350.69 891.484 1351.29 892.11C1351.88 892.748 1352.67 893.21 1353.65 893.496C1354.64 893.785 1355.54 893.817 1356.37 893.593C1357.2 893.384 1357.91 892.94 1358.51 892.261C1359.12 891.596 1359.59 890.712 1359.91 889.61L1360.88 886.302L1333.8 878.4L1336.54 869.017Z" fill="#5988FF"/>
<path d="M1325.2 906.576L1359.15 918.57L1355.9 927.787L1329.37 918.416L1324.52 932.141L1317.09 929.517L1325.2 906.576Z" fill="#5988FF"/>
<path d="M1313.54 938.831L1346.8 952.631L1336.85 976.597L1329.58 973.578L1335.78 958.64L1330.06 956.268L1324.37 969.973L1317.1 966.954L1322.79 953.25L1317.07 950.878L1310.9 965.751L1303.62 962.732L1313.54 938.831Z" fill="#5988FF"/>
<path d="M1324.45 1003.89L1318.78 1014.65L1296.83 1012.55L1296.64 1012.92L1310.78 1029.83L1305.11 1040.59L1273.25 1023.8L1277.71 1015.34L1296.13 1025.05L1296.26 1024.8L1281.83 1008.14L1284.52 1003.03L1306.55 1005.58L1306.68 1005.33L1288.14 995.562L1292.6 987.102L1324.45 1003.89Z" fill="#5988FF"/>
<path d="M1262.59 1041.43L1268.18 1032.49L1292.4 1061.66L1285.31 1072.99L1248.48 1063.96L1254.08 1055.02L1280.38 1062.18L1280.53 1061.95L1262.59 1041.43ZM1275.67 1047.3L1265.15 1064.11L1258.95 1060.23L1269.47 1043.42L1275.67 1047.3Z" fill="#5988FF"/>
<path d="M1243.11 1071.73L1272.36 1092.74L1263.29 1105.36C1261.73 1107.53 1259.93 1109.12 1257.91 1110.13C1255.88 1111.14 1253.77 1111.55 1251.57 1111.33C1249.37 1111.12 1247.23 1110.27 1245.15 1108.78C1243.06 1107.28 1241.58 1105.51 1240.72 1103.48C1239.85 1101.45 1239.6 1099.3 1239.98 1097.03C1240.35 1094.77 1241.33 1092.53 1242.93 1090.3L1248.35 1082.76L1254.52 1087.2L1250.25 1093.13C1249.58 1094.07 1249.17 1094.98 1249.02 1095.87C1248.87 1096.77 1248.98 1097.62 1249.34 1098.41C1249.69 1099.21 1250.27 1099.91 1251.1 1100.5C1251.94 1101.1 1252.78 1101.44 1253.63 1101.5C1254.49 1101.58 1255.31 1101.4 1256.1 1100.96C1256.9 1100.53 1257.63 1099.85 1258.3 1098.92L1260.31 1096.12L1237.41 1079.67L1243.11 1071.73Z" fill="#5988FF"/>
<path d="M1226.95 1134.06C1227.92 1134.73 1228.91 1134.97 1229.91 1134.77C1230.91 1134.58 1231.91 1133.88 1232.9 1132.65C1233.54 1131.87 1233.97 1131.15 1234.18 1130.49C1234.4 1129.85 1234.44 1129.29 1234.32 1128.79C1234.19 1128.3 1233.93 1127.88 1233.53 1127.54C1233.2 1127.24 1232.85 1127.06 1232.47 1126.97C1232.08 1126.9 1231.66 1126.93 1231.19 1127.07C1230.73 1127.2 1230.22 1127.45 1229.65 1127.79C1229.09 1128.13 1228.47 1128.58 1227.79 1129.13L1225.44 1131.02C1223.85 1132.3 1222.34 1133.27 1220.91 1133.94C1219.48 1134.6 1218.12 1134.99 1216.82 1135.1C1215.53 1135.22 1214.31 1135.07 1213.14 1134.67C1211.96 1134.27 1210.84 1133.65 1209.77 1132.79C1207.94 1131.29 1206.76 1129.57 1206.22 1127.62C1205.69 1125.68 1205.78 1123.59 1206.49 1121.36C1207.19 1119.14 1208.5 1116.84 1210.43 1114.48C1212.4 1112.05 1214.48 1110.22 1216.67 1109C1218.85 1107.78 1221.1 1107.28 1223.4 1107.49C1225.71 1107.72 1228.03 1108.77 1230.38 1110.67L1224.53 1117.87C1223.63 1117.22 1222.74 1116.85 1221.85 1116.76C1220.96 1116.67 1220.08 1116.85 1219.22 1117.29C1218.35 1117.75 1217.52 1118.46 1216.74 1119.42C1216.08 1120.23 1215.63 1120.99 1215.39 1121.7C1215.14 1122.41 1215.08 1123.05 1215.21 1123.62C1215.33 1124.19 1215.62 1124.66 1216.07 1125.04C1216.5 1125.38 1216.99 1125.54 1217.53 1125.53C1218.07 1125.53 1218.72 1125.33 1219.47 1124.93C1220.23 1124.53 1221.14 1123.91 1222.21 1123.06L1225.08 1120.76C1227.62 1118.72 1230.1 1117.5 1232.52 1117.09C1234.94 1116.7 1237.23 1117.4 1239.41 1119.18C1241.19 1120.61 1242.36 1122.34 1242.91 1124.38C1243.46 1126.43 1243.42 1128.61 1242.79 1130.92C1242.14 1133.23 1240.92 1135.49 1239.13 1137.7C1237.29 1139.96 1235.33 1141.6 1233.24 1142.64C1231.14 1143.67 1229.05 1144.07 1226.95 1143.85C1224.85 1143.64 1222.89 1142.8 1221.05 1141.32L1226.95 1134.06Z" fill="#5988FF"/>
<path d="M1177.07 1188.31C1177.96 1189.08 1178.92 1189.42 1179.94 1189.33C1180.95 1189.25 1182.02 1188.66 1183.14 1187.54C1183.86 1186.84 1184.36 1186.17 1184.64 1185.54C1184.93 1184.93 1185.03 1184.37 1184.96 1183.86C1184.89 1183.36 1184.67 1182.91 1184.31 1182.53C1184.02 1182.2 1183.69 1181.98 1183.31 1181.85C1182.94 1181.74 1182.52 1181.73 1182.03 1181.81C1181.56 1181.9 1181.03 1182.08 1180.43 1182.36C1179.83 1182.64 1179.17 1183.02 1178.43 1183.5L1175.89 1185.13C1174.18 1186.23 1172.57 1187.03 1171.08 1187.54C1169.59 1188.05 1168.19 1188.29 1166.89 1188.26C1165.59 1188.23 1164.39 1187.96 1163.27 1187.43C1162.15 1186.91 1161.1 1186.17 1160.12 1185.21C1158.47 1183.52 1157.48 1181.68 1157.15 1179.69C1156.83 1177.7 1157.14 1175.63 1158.09 1173.49C1159.03 1171.35 1160.58 1169.21 1162.74 1167.07C1164.96 1164.87 1167.23 1163.27 1169.54 1162.29C1171.84 1161.31 1174.12 1161.05 1176.39 1161.51C1178.66 1161.98 1180.86 1163.29 1182.99 1165.42L1176.4 1171.95C1175.58 1171.21 1174.73 1170.75 1173.85 1170.56C1172.98 1170.37 1172.08 1170.46 1171.18 1170.81C1170.27 1171.17 1169.37 1171.79 1168.49 1172.66C1167.74 1173.4 1167.22 1174.1 1166.9 1174.78C1166.58 1175.46 1166.45 1176.09 1166.52 1176.67C1166.58 1177.25 1166.81 1177.75 1167.22 1178.18C1167.61 1178.56 1168.08 1178.77 1168.62 1178.82C1169.16 1178.88 1169.82 1178.75 1170.61 1178.43C1171.41 1178.12 1172.38 1177.59 1173.54 1176.86L1176.63 1174.89C1179.38 1173.13 1181.98 1172.18 1184.43 1172.04C1186.87 1171.91 1189.08 1172.84 1191.05 1174.85C1192.67 1176.47 1193.65 1178.31 1193.98 1180.39C1194.31 1182.49 1194.03 1184.65 1193.15 1186.88C1192.26 1189.11 1190.81 1191.23 1188.79 1193.24C1186.72 1195.28 1184.59 1196.71 1182.4 1197.51C1180.21 1198.31 1178.08 1198.49 1176.02 1198.04C1173.96 1197.61 1172.09 1196.56 1170.43 1194.9L1177.07 1188.31Z" fill="#5988FF"/>
<path d="M1153.1 1225.59L1145.75 1232.03L1130.54 1214.69C1128.74 1212.63 1127.66 1210.41 1127.33 1208.04C1126.99 1205.68 1127.34 1203.32 1128.38 1200.97C1129.42 1198.62 1131.1 1196.43 1133.42 1194.4C1135.76 1192.35 1138.16 1190.96 1140.62 1190.23C1143.09 1189.52 1145.48 1189.48 1147.77 1190.12C1150.06 1190.77 1152.11 1192.13 1153.92 1194.2L1169.13 1211.54L1161.78 1217.98L1147.12 1201.27C1146.39 1200.44 1145.55 1199.85 1144.6 1199.51C1143.66 1199.19 1142.7 1199.12 1141.72 1199.33C1140.73 1199.53 1139.82 1200.01 1138.99 1200.74C1138.14 1201.48 1137.55 1202.32 1137.22 1203.27C1136.9 1204.21 1136.83 1205.17 1137.04 1206.14C1137.25 1207.13 1137.72 1208.04 1138.45 1208.88L1153.1 1225.59Z" fill="#5988FF"/>
<path d="M1113.81 1211.67L1135.85 1240.14L1123.56 1249.66C1121.45 1251.29 1119.28 1252.31 1117.05 1252.7C1114.82 1253.09 1112.68 1252.87 1110.62 1252.04C1108.57 1251.22 1106.77 1249.79 1105.2 1247.77C1103.62 1245.73 1102.71 1243.61 1102.47 1241.42C1102.21 1239.23 1102.58 1237.1 1103.59 1235.03C1104.59 1232.97 1106.17 1231.1 1108.34 1229.42L1115.68 1223.74L1120.33 1229.75L1114.55 1234.22C1113.64 1234.93 1112.99 1235.68 1112.59 1236.49C1112.2 1237.32 1112.05 1238.16 1112.17 1239.02C1112.28 1239.89 1112.64 1240.72 1113.27 1241.53C1113.9 1242.34 1114.61 1242.9 1115.41 1243.21C1116.21 1243.52 1117.05 1243.58 1117.93 1243.39C1118.81 1243.21 1119.71 1242.77 1120.62 1242.06L1123.34 1239.95L1106.08 1217.66L1113.81 1211.67Z" fill="#5988FF"/>
<path d="M1082.61 1235.43L1102.93 1265.16L1090.09 1273.92C1087.89 1275.43 1085.66 1276.32 1083.41 1276.58C1081.16 1276.84 1079.04 1276.49 1077.04 1275.54C1075.04 1274.59 1073.32 1273.06 1071.88 1270.95C1070.42 1268.82 1069.64 1266.66 1069.52 1264.45C1069.4 1262.25 1069.9 1260.15 1071.03 1258.14C1072.14 1256.15 1073.84 1254.37 1076.1 1252.82L1083.76 1247.59L1088.05 1253.86L1082.01 1257.98C1081.06 1258.63 1080.37 1259.35 1079.92 1260.13C1079.48 1260.94 1079.29 1261.77 1079.35 1262.63C1079.41 1263.5 1079.72 1264.36 1080.3 1265.2C1080.88 1266.05 1081.56 1266.65 1082.34 1267C1083.11 1267.37 1083.95 1267.48 1084.84 1267.33C1085.74 1267.21 1086.66 1266.82 1087.61 1266.17L1090.45 1264.23L1074.54 1240.94L1082.61 1235.43Z" fill="#5988FF"/>
<path d="M1050.01 1257.27L1068.64 1288.08L1060.28 1293.13L1045.72 1269.06L1033.26 1276.6L1029.19 1269.86L1050.01 1257.27Z" fill="#5988FF"/>
<path d="M1020.53 1274.8L1037.48 1306.57L1014.59 1318.78L1010.88 1311.83L1025.15 1304.22L1022.23 1298.76L1009.14 1305.74L1005.43 1298.8L1018.53 1291.81L1015.61 1286.35L1001.4 1293.93L997.695 1286.98L1020.53 1274.8Z" fill="#5988FF"/>
<path d="M987.684 1332.01L976.47 1336.73L960.843 1321.18L960.454 1321.35L960.653 1343.39L949.439 1348.11L935.468 1314.93L944.283 1311.22L952.361 1330.4L952.62 1330.29L952.042 1308.26L957.357 1306.02L972.769 1321.96L973.029 1321.85L964.897 1302.54L973.713 1298.83L987.684 1332.01Z" fill="#5988FF"/>
<path d="M916.041 1321.79L926.041 1318.42L926.25 1356.34L913.584 1360.6L890.842 1330.26L900.842 1326.9L916.624 1349.11L916.89 1349.02L916.041 1321.79ZM922.435 1334.62L903.636 1340.94L901.305 1334.01L920.104 1327.69L922.435 1334.62Z" fill="#5988FF"/>
<path d="M881.762 1332.85L891.035 1367.64L876.016 1371.65C873.433 1372.33 871.038 1372.43 868.829 1371.92C866.621 1371.42 864.733 1370.39 863.165 1368.83C861.597 1367.27 860.484 1365.26 859.825 1362.79C859.161 1360.3 859.141 1357.99 859.766 1355.87C860.378 1353.76 861.55 1351.94 863.281 1350.42C865 1348.91 867.185 1347.8 869.836 1347.09L878.807 1344.7L880.763 1352.04L873.695 1353.93C872.585 1354.22 871.69 1354.67 871.011 1355.26C870.324 1355.87 869.868 1356.59 869.642 1357.43C869.404 1358.26 869.417 1359.18 869.68 1360.16C869.945 1361.16 870.387 1361.95 871.004 1362.54C871.614 1363.14 872.365 1363.52 873.257 1363.68C874.141 1363.86 875.138 1363.8 876.248 1363.51L879.578 1362.62L872.316 1335.37L881.762 1332.85Z" fill="#5988FF"/>
<path d="M829.715 1370.78C830.041 1371.91 830.654 1372.72 831.555 1373.21C832.444 1373.7 833.664 1373.78 835.214 1373.47C836.202 1373.26 836.987 1372.98 837.57 1372.61C838.143 1372.25 838.538 1371.84 838.755 1371.38C838.971 1370.92 839.033 1370.43 838.939 1369.91C838.875 1369.48 838.722 1369.11 838.48 1368.8C838.228 1368.5 837.879 1368.26 837.432 1368.06C836.988 1367.88 836.439 1367.74 835.786 1367.64C835.132 1367.55 834.369 1367.5 833.495 1367.5L830.475 1367.47C828.438 1367.46 826.655 1367.25 825.127 1366.86C823.599 1366.46 822.3 1365.9 821.228 1365.16C820.158 1364.43 819.301 1363.54 818.656 1362.49C817.999 1361.44 817.528 1360.24 817.242 1358.9C816.781 1356.58 816.96 1354.5 817.781 1352.66C818.601 1350.81 819.994 1349.26 821.96 1347.98C823.914 1346.71 826.384 1345.77 829.37 1345.16C832.437 1344.54 835.205 1344.44 837.676 1344.89C840.135 1345.33 842.188 1346.36 843.836 1347.99C845.474 1349.63 846.6 1351.92 847.213 1354.87L838.117 1356.73C837.839 1355.66 837.384 1354.81 836.752 1354.17C836.12 1353.53 835.329 1353.12 834.378 1352.91C833.417 1352.72 832.327 1352.74 831.11 1352.99C830.087 1353.2 829.258 1353.5 828.62 1353.89C827.982 1354.28 827.531 1354.74 827.266 1355.26C827.002 1355.78 826.922 1356.33 827.028 1356.91C827.149 1357.44 827.424 1357.88 827.85 1358.21C828.267 1358.56 828.894 1358.81 829.729 1358.98C830.566 1359.15 831.669 1359.25 833.037 1359.27L836.706 1359.31C839.968 1359.35 842.663 1359.98 844.789 1361.2C846.906 1362.43 848.24 1364.42 848.791 1367.18C849.259 1369.42 849.061 1371.5 848.197 1373.42C847.324 1375.36 845.909 1377.02 843.954 1378.39C841.986 1379.78 839.607 1380.75 836.816 1381.32C833.968 1381.9 831.407 1381.93 829.134 1381.4C826.861 1380.87 824.984 1379.85 823.505 1378.35C822.017 1376.86 821.031 1374.96 820.549 1372.65L829.715 1370.78Z" fill="#5988FF"/>
<path d="M756.734 1381.08C756.937 1382.23 757.46 1383.1 758.304 1383.68C759.135 1384.26 760.339 1384.48 761.914 1384.33C762.918 1384.24 763.729 1384.04 764.348 1383.73C764.956 1383.44 765.393 1383.08 765.658 1382.64C765.923 1382.2 766.037 1381.72 765.999 1381.19C765.982 1380.76 765.869 1380.38 765.661 1380.04C765.443 1379.72 765.122 1379.44 764.699 1379.2C764.277 1378.97 763.746 1378.77 763.107 1378.61C762.467 1378.44 761.713 1378.31 760.845 1378.22L757.845 1377.86C755.821 1377.63 754.071 1377.24 752.594 1376.68C751.118 1376.12 749.886 1375.42 748.9 1374.57C747.914 1373.73 747.157 1372.76 746.629 1371.64C746.088 1370.53 745.748 1369.29 745.608 1367.92C745.398 1365.57 745.8 1363.52 746.813 1361.77C747.827 1360.03 749.379 1358.63 751.47 1357.57C753.549 1356.52 756.105 1355.85 759.14 1355.56C762.256 1355.27 765.018 1355.48 767.427 1356.18C769.825 1356.89 771.755 1358.13 773.219 1359.93C774.672 1361.73 775.545 1364.13 775.839 1367.13L766.596 1368C766.434 1366.91 766.073 1366.01 765.513 1365.31C764.953 1364.61 764.211 1364.11 763.288 1363.81C762.353 1363.51 761.267 1363.42 760.03 1363.53C758.991 1363.63 758.134 1363.84 757.458 1364.16C756.782 1364.48 756.284 1364.89 755.965 1365.38C755.646 1365.87 755.508 1366.41 755.551 1366.99C755.614 1367.54 755.84 1368 756.229 1368.37C756.607 1368.76 757.202 1369.08 758.015 1369.34C758.828 1369.6 759.914 1369.82 761.272 1369.98L764.916 1370.42C768.155 1370.81 770.766 1371.72 772.75 1373.16C774.723 1374.61 775.835 1376.74 776.087 1379.54C776.312 1381.81 775.892 1383.86 774.827 1385.68C773.751 1387.51 772.167 1389.01 770.075 1390.17C767.971 1391.33 765.501 1392.05 762.665 1392.31C759.77 1392.59 757.221 1392.34 755.018 1391.57C752.815 1390.8 751.058 1389.58 749.749 1387.93C748.429 1386.29 747.653 1384.29 747.421 1381.95L756.734 1381.08Z" fill="#5988FF"/>
<path d="M714.557 1394.68L704.786 1395L704.035 1371.95C703.946 1369.21 704.524 1366.81 705.771 1364.77C707.007 1362.73 708.772 1361.13 711.068 1359.97C713.365 1358.81 716.053 1358.19 719.135 1358.09C722.239 1357.99 724.975 1358.44 727.341 1359.44C729.708 1360.45 731.575 1361.93 732.94 1363.88C734.294 1365.84 735.016 1368.19 735.105 1370.94L735.856 1393.99L726.085 1394.31L725.362 1372.1C725.325 1370.98 725.047 1370 724.526 1369.13C724.006 1368.28 723.304 1367.63 722.421 1367.16C721.526 1366.7 720.523 1366.49 719.41 1366.52C718.285 1366.56 717.297 1366.84 716.446 1367.36C715.595 1367.88 714.938 1368.58 714.474 1369.46C714.011 1370.36 713.797 1371.36 713.833 1372.47L714.557 1394.68Z" fill="#5988FF"/>
<path d="M693.015 1359L691.986 1394.99L676.449 1394.55C673.778 1394.47 671.455 1393.88 669.482 1392.77C667.508 1391.66 665.992 1390.13 664.934 1388.19C663.875 1386.25 663.382 1384 663.455 1381.45C663.529 1378.87 664.167 1376.65 665.369 1374.8C666.559 1372.95 668.2 1371.54 670.292 1370.58C672.371 1369.62 674.782 1369.18 677.524 1369.26L686.804 1369.52L686.587 1377.11L679.275 1376.9C678.127 1376.87 677.143 1377.04 676.323 1377.42C675.491 1377.8 674.848 1378.37 674.393 1379.1C673.926 1379.84 673.678 1380.72 673.649 1381.74C673.62 1382.77 673.817 1383.65 674.242 1384.39C674.654 1385.14 675.265 1385.72 676.074 1386.13C676.871 1386.55 677.844 1386.78 678.992 1386.81L682.437 1386.91L683.242 1358.73L693.015 1359Z" fill="#5988FF"/>
<path d="M653.823 1357.58L650.664 1393.44L635.181 1392.08C632.518 1391.84 630.235 1391.11 628.331 1389.89C626.427 1388.66 625.004 1387.05 624.062 1385.04C623.121 1383.04 622.762 1380.77 622.986 1378.23C623.212 1375.66 623.98 1373.48 625.29 1371.7C626.588 1369.92 628.31 1368.62 630.454 1367.78C632.587 1366.95 635.02 1366.65 637.752 1366.89L647 1367.7L646.334 1375.27L639.047 1374.63C637.903 1374.53 636.911 1374.64 636.07 1374.97C635.217 1375.3 634.541 1375.83 634.043 1376.53C633.534 1377.24 633.234 1378.1 633.145 1379.12C633.054 1380.15 633.199 1381.04 633.579 1381.81C633.946 1382.58 634.522 1383.19 635.305 1383.65C636.076 1384.12 637.033 1384.4 638.177 1384.5L641.61 1384.81L644.085 1356.72L653.823 1357.58Z" fill="#5988FF"/>
<path d="M614.767 1353.78L609.62 1389.41L599.944 1388.01L603.965 1360.17L589.556 1358.09L590.682 1350.3L614.767 1353.78Z" fill="#5988FF"/>
<path d="M580.852 1348.63L573.799 1383.94L548.35 1378.85L549.893 1371.13L565.755 1374.3L566.968 1368.23L552.415 1365.32L553.958 1357.6L568.511 1360.51L569.723 1354.44L553.929 1351.28L555.472 1343.56L580.852 1348.63Z" fill="#5988FF"/>
<path d="M519.161 1372.01L507.497 1368.55L505.284 1346.62L504.88 1346.5L491.047 1363.66L479.384 1360.2L489.641 1325.68L498.81 1328.41L492.88 1348.36L493.15 1348.44L506.685 1331.04L512.213 1332.68L514.009 1354.79L514.279 1354.87L520.249 1334.78L529.418 1337.5L519.161 1372.01Z" fill="#5988FF"/>
<path d="M470.271 1318.66L480.134 1322.41L456.238 1351.85L443.745 1347.1L445.418 1309.23L455.28 1312.97L453.381 1340.16L453.644 1340.26L470.271 1318.66ZM467.068 1332.64L448.527 1325.6L451.124 1318.76L469.665 1325.81L467.068 1332.64Z" fill="#5988FF"/>
<path d="M436.752 1305.47L421.843 1338.25L407.695 1331.81C405.262 1330.71 403.352 1329.26 401.964 1327.47C400.576 1325.68 399.771 1323.69 399.548 1321.49C399.325 1319.29 399.743 1317.02 400.801 1314.7C401.869 1312.35 403.316 1310.56 405.143 1309.31C406.959 1308.07 409.018 1307.41 411.318 1307.33C413.607 1307.25 416 1307.78 418.497 1308.92L426.948 1312.76L423.803 1319.67L417.145 1316.64C416.099 1316.17 415.126 1315.95 414.225 1315.97C413.308 1316.01 412.497 1316.28 411.791 1316.78C411.075 1317.28 410.506 1317.99 410.084 1318.92C409.657 1319.86 409.496 1320.75 409.6 1321.6C409.689 1322.45 410.027 1323.22 410.614 1323.91C411.185 1324.61 411.994 1325.19 413.039 1325.67L416.176 1327.1L427.853 1301.43L436.752 1305.47Z" fill="#5988FF"/>
<path d="M372.453 1301.78C371.988 1302.86 371.949 1303.87 372.337 1304.82C372.714 1305.76 373.603 1306.6 375.002 1307.34C375.893 1307.81 376.681 1308.09 377.366 1308.17C378.035 1308.26 378.601 1308.19 379.062 1307.97C379.523 1307.75 379.882 1307.41 380.139 1306.95C380.362 1306.58 380.478 1306.2 380.487 1305.8C380.48 1305.42 380.366 1305 380.145 1304.57C379.919 1304.14 379.583 1303.69 379.138 1303.2C378.692 1302.71 378.133 1302.19 377.458 1301.64L375.142 1299.7C373.577 1298.4 372.33 1297.11 371.399 1295.83C370.468 1294.56 369.822 1293.3 369.463 1292.05C369.097 1290.81 368.999 1289.57 369.168 1288.35C369.327 1287.12 369.721 1285.9 370.352 1284.68C371.468 1282.59 372.928 1281.1 374.731 1280.2C376.535 1279.29 378.6 1278.97 380.927 1279.23C383.244 1279.49 385.75 1280.33 388.445 1281.75C391.212 1283.22 393.411 1284.9 395.04 1286.81C396.66 1288.71 397.59 1290.81 397.832 1293.12C398.058 1295.42 397.473 1297.91 396.075 1300.58L387.867 1296.24C388.33 1295.24 388.519 1294.29 388.435 1293.4C388.35 1292.51 388.004 1291.68 387.397 1290.92C386.78 1290.16 385.922 1289.49 384.823 1288.91C383.901 1288.42 383.069 1288.13 382.326 1288.03C381.584 1287.92 380.945 1287.99 380.41 1288.23C379.876 1288.46 379.466 1288.83 379.182 1289.35C378.935 1289.84 378.871 1290.35 378.99 1290.88C379.094 1291.41 379.416 1292 379.957 1292.66C380.492 1293.33 381.282 1294.1 382.327 1294.99L385.137 1297.34C387.633 1299.45 389.316 1301.64 390.188 1303.93C391.043 1306.22 390.809 1308.61 389.484 1311.09C388.426 1313.12 386.954 1314.6 385.066 1315.54C383.162 1316.48 381.017 1316.87 378.63 1316.69C376.232 1316.51 373.774 1315.76 371.256 1314.43C368.685 1313.07 366.69 1311.46 365.268 1309.61C363.847 1307.76 363.042 1305.79 362.853 1303.69C362.649 1301.59 363.092 1299.5 364.182 1297.41L372.453 1301.78Z" fill="#5988FF"/>
<path d="M309.511 1263.44C308.933 1264.46 308.786 1265.47 309.07 1266.45C309.344 1267.43 310.137 1268.36 311.449 1269.24C312.284 1269.8 313.038 1270.16 313.71 1270.32C314.366 1270.48 314.935 1270.48 315.417 1270.31C315.899 1270.14 316.293 1269.84 316.597 1269.41C316.86 1269.06 317.016 1268.69 317.067 1268.3C317.102 1267.92 317.032 1267.49 316.859 1267.04C316.68 1266.59 316.395 1266.1 316.004 1265.57C315.614 1265.04 315.113 1264.46 314.502 1263.84L312.408 1261.66C310.992 1260.2 309.89 1258.78 309.101 1257.41C308.312 1256.05 307.805 1254.72 307.582 1253.44C307.352 1252.17 307.386 1250.93 307.685 1249.74C307.975 1248.53 308.498 1247.36 309.256 1246.21C310.59 1244.26 312.202 1242.93 314.091 1242.22C315.981 1241.52 318.069 1241.42 320.355 1241.93C322.631 1242.44 325.032 1243.54 327.559 1245.24C330.153 1246.99 332.158 1248.91 333.574 1250.98C334.98 1253.04 335.679 1255.23 335.673 1257.55C335.65 1259.86 334.801 1262.28 333.126 1264.78L325.43 1259.59C325.998 1258.64 326.288 1257.72 326.299 1256.82C326.311 1255.93 326.055 1255.07 325.533 1254.25C325.001 1253.42 324.221 1252.66 323.191 1251.97C322.326 1251.38 321.53 1251 320.802 1250.82C320.075 1250.64 319.433 1250.64 318.876 1250.82C318.319 1250.99 317.872 1251.32 317.535 1251.8C317.236 1252.26 317.118 1252.76 317.18 1253.3C317.226 1253.84 317.482 1254.47 317.95 1255.18C318.411 1255.9 319.113 1256.75 320.057 1257.74L322.597 1260.39C324.853 1262.75 326.292 1265.11 326.913 1267.48C327.517 1269.85 327.028 1272.2 325.444 1274.53C324.176 1276.43 322.553 1277.74 320.575 1278.47C318.581 1279.21 316.407 1279.36 314.052 1278.93C311.688 1278.49 309.325 1277.48 306.964 1275.89C304.554 1274.26 302.742 1272.45 301.528 1270.46C300.313 1268.47 299.725 1266.41 299.762 1264.3C299.784 1262.2 300.449 1260.17 301.757 1258.21L309.511 1263.44Z" fill="#5988FF"/>
<path d="M268.276 1247.2L260.521 1241.25L274.568 1222.95C276.239 1220.78 278.205 1219.3 280.467 1218.5C282.712 1217.72 285.092 1217.6 287.606 1218.16C290.113 1218.72 292.589 1219.94 295.035 1221.82C297.499 1223.71 299.327 1225.79 300.521 1228.07C301.708 1230.35 302.21 1232.68 302.029 1235.05C301.831 1237.43 300.897 1239.7 299.227 1241.88L285.179 1260.18L277.425 1254.22L290.958 1236.6C291.636 1235.71 292.048 1234.77 292.193 1233.78C292.33 1232.79 292.205 1231.84 291.817 1230.92C291.419 1229.99 290.779 1229.19 289.895 1228.51C289.003 1227.83 288.063 1227.42 287.075 1227.28C286.087 1227.14 285.134 1227.27 284.215 1227.65C283.289 1228.05 282.487 1228.69 281.809 1229.57L268.276 1247.2Z" fill="#5988FF"/>
<path d="M274.263 1205.96L250.631 1233.12L238.903 1222.92C236.887 1221.17 235.468 1219.24 234.648 1217.13C233.828 1215.02 233.625 1212.88 234.039 1210.7C234.452 1208.53 235.498 1206.48 237.175 1204.55C238.867 1202.61 240.766 1201.3 242.871 1200.63C244.968 1199.95 247.129 1199.91 249.355 1200.49C251.572 1201.07 253.715 1202.25 255.785 1204.05L262.79 1210.15L257.805 1215.88L252.286 1211.08C251.419 1210.32 250.55 1209.83 249.678 1209.6C248.789 1209.37 247.936 1209.4 247.116 1209.68C246.288 1209.95 245.539 1210.48 244.869 1211.24C244.192 1212.02 243.784 1212.83 243.643 1213.67C243.485 1214.51 243.589 1215.35 243.955 1216.18C244.303 1217.01 244.911 1217.8 245.778 1218.56L248.378 1220.82L266.887 1199.54L274.263 1205.96Z" fill="#5988FF"/>
<path d="M244.876 1179.99L219.676 1205.71L208.573 1194.84C206.664 1192.97 205.362 1190.95 204.669 1188.8C203.975 1186.64 203.899 1184.49 204.441 1182.35C204.983 1180.2 206.148 1178.22 207.936 1176.39C209.741 1174.55 211.714 1173.36 213.855 1172.81C215.988 1172.26 218.148 1172.34 220.335 1173.06C222.514 1173.77 224.583 1175.08 226.543 1177L233.174 1183.49L227.859 1188.92L222.634 1183.8C221.813 1183 220.975 1182.46 220.118 1182.17C219.245 1181.89 218.391 1181.87 217.556 1182.1C216.713 1182.32 215.934 1182.8 215.221 1183.53C214.499 1184.27 214.043 1185.05 213.852 1185.88C213.645 1186.71 213.699 1187.55 214.015 1188.4C214.314 1189.25 214.873 1190.08 215.694 1190.88L218.156 1193.3L237.892 1173.15L244.876 1179.99Z" fill="#5988FF"/>
<path d="M217.098 1152.28L190.508 1176.56L183.916 1169.34L204.689 1150.37L194.871 1139.63L200.688 1134.31L217.098 1152.28Z" fill="#5988FF"/>
<path d="M194.149 1126.79L166.294 1149.61L149.847 1129.53L155.94 1124.54L166.192 1137.05L170.979 1133.13L161.575 1121.65L167.668 1116.66L177.073 1128.14L181.86 1124.22L171.654 1111.76L177.747 1106.77L194.149 1126.79Z" fill="#5988FF"/>
<path d="M131.624 1105.73L124.808 1095.65L137.014 1077.3L136.777 1076.95L115.193 1081.44L108.377 1071.36L138.205 1051.19L143.564 1059.12L126.319 1070.78L126.477 1071.01L147.98 1066.15L151.211 1070.92L138.575 1089.15L138.733 1089.38L156.094 1077.64L161.452 1085.56L131.624 1105.73Z" fill="#5988FF"/>
<path d="M127.687 1033.48L132.935 1042.63L95.783 1050.23L89.1367 1038.64L114.465 1010.42L119.712 1019.57L100.993 1039.38L101.133 1039.62L127.687 1033.48ZM116.342 1042.25L106.477 1025.05L112.823 1021.41L122.687 1038.62L116.342 1042.25Z" fill="#5988FF"/>
<path d="M110.147 1002.02L77.8275 1017.9L70.9738 1003.95C69.7953 1001.55 69.2376 999.221 69.3006 996.958C69.3636 994.694 70.0071 992.641 71.2309 990.799C72.4548 988.958 74.2135 987.473 76.507 986.347C78.8216 985.21 81.0791 984.741 83.2795 984.94C85.4747 985.128 87.4848 985.923 89.3098 987.325C91.1297 988.716 92.6443 990.642 93.8538 993.104L97.9474 1001.44L91.1299 1004.78L87.9046 998.22C87.3981 997.189 86.7877 996.399 86.0733 995.848C85.3433 995.293 84.546 994.986 83.6814 994.928C82.8117 994.859 81.9191 995.049 81.0038 995.499C80.078 995.953 79.3871 996.541 78.9313 997.261C78.4597 997.976 78.2312 998.786 78.2458 999.693C78.2448 1000.59 78.4975 1001.56 79.004 1002.59L80.5236 1005.68L105.837 993.251L110.147 1002.02Z" fill="#5988FF"/>
<path d="M62.7927 958.378C61.7482 958.918 61.0752 959.677 60.7739 960.655C60.468 961.622 60.6213 962.835 61.2337 964.294C61.6238 965.224 62.0571 965.938 62.5336 966.437C62.9947 966.93 63.4734 967.237 63.9696 967.36C64.4659 967.482 64.9594 967.446 65.4504 967.253C65.8594 967.107 66.192 966.885 66.4482 966.587C66.689 966.282 66.8621 965.892 66.9672 965.415C67.0616 964.944 67.0912 964.378 67.0562 963.719C67.0211 963.06 66.9191 962.303 66.75 961.446L66.1906 958.477C65.8085 956.477 65.6619 954.689 65.7507 953.114C65.8395 951.539 66.1416 950.154 66.657 948.959C67.1616 947.768 67.8672 946.754 68.774 945.916C69.6762 945.067 70.7573 944.372 72.0174 943.83C74.2052 942.925 76.2826 942.695 78.2494 943.141C80.2162 943.587 82.0161 944.649 83.6488 946.328C85.2771 947.996 86.6809 950.235 87.8604 953.045C89.0716 955.93 89.7016 958.627 89.7504 961.136C89.7947 963.634 89.1801 965.85 87.9065 967.782C86.6175 969.708 84.5864 971.26 81.8131 972.436L78.2204 963.877C79.2137 963.397 79.961 962.785 80.4622 962.04C80.9634 961.296 81.22 960.439 81.2319 959.468C81.2393 958.486 81.0026 957.422 80.5217 956.277C80.118 955.315 79.6612 954.56 79.1512 954.011C78.6412 953.463 78.1052 953.109 77.543 952.951C76.9808 952.793 76.4273 952.822 75.8823 953.038C75.3788 953.262 75.006 953.615 74.7638 954.098C74.5062 954.575 74.3781 955.239 74.3794 956.09C74.3699 956.945 74.4886 958.046 74.7355 959.391L75.4103 962.997C76.0064 966.204 75.9148 968.969 75.1354 971.292C74.3407 973.608 72.6441 975.305 70.0455 976.383C67.9423 977.278 65.8636 977.489 63.8092 977.017C61.7395 976.538 59.8374 975.474 58.1028 973.825C56.3636 972.166 54.9429 970.023 53.8406 967.397C52.7156 964.717 52.1911 962.21 52.2671 959.878C52.3432 957.545 52.975 955.507 54.1625 953.763C55.3347 952.013 57.0048 950.677 59.1728 949.754L62.7927 958.378Z" fill="#5988FF"/>
<path d="M38.4693 888.817C37.3728 889.242 36.6223 889.924 36.2178 890.864C35.81 891.793 35.8322 893.016 36.2846 894.532C36.5728 895.498 36.927 896.254 37.3472 896.802C37.7528 897.341 38.1957 897.698 38.676 897.873C39.1563 898.048 39.6508 898.065 40.1597 897.926C40.582 897.824 40.9365 897.639 41.2232 897.37C41.4953 897.093 41.7092 896.723 41.8649 896.261C42.0093 895.802 42.0994 895.243 42.1352 894.585C42.171 893.926 42.1509 893.161 42.0747 892.291L41.8369 889.28C41.6716 887.25 41.7175 885.457 41.9748 883.9C42.232 882.344 42.681 880.999 43.3216 879.866C43.9509 878.737 44.7613 877.804 45.7527 877.068C46.7407 876.321 47.8902 875.745 49.2011 875.342C51.4734 874.677 53.5634 874.671 55.4711 875.325C57.3788 875.979 59.0543 877.228 60.4976 879.072C61.9375 880.905 63.0931 883.282 63.9644 886.202C64.8591 889.201 65.1962 891.95 64.9757 894.45C64.7518 896.938 63.9031 899.074 62.4295 900.859C60.9414 902.636 58.7556 903.961 55.8721 904.833L53.2181 895.938C54.2572 895.567 55.0659 895.039 55.644 894.353C56.2222 893.667 56.5693 892.841 56.6853 891.877C56.7979 890.902 56.6766 889.819 56.3214 888.629C56.0232 887.629 55.65 886.829 55.2018 886.229C54.7536 885.629 54.2585 885.22 53.7166 885.003C53.1746 884.785 52.6211 884.755 52.0562 884.911C51.5316 885.08 51.123 885.391 50.8304 885.845C50.5232 886.291 50.3246 886.938 50.2346 887.784C50.1333 888.634 50.1333 889.741 50.2345 891.105L50.5186 894.762C50.7673 898.015 50.3797 900.754 49.3557 902.98C48.3171 905.197 46.4482 906.703 43.749 907.495C41.562 908.16 39.4726 908.147 37.4807 907.457C35.4743 906.759 33.6972 905.498 32.1495 903.672C30.5984 901.835 29.4157 899.553 28.6014 896.823C27.7704 894.038 27.5178 891.49 27.8435 889.179C28.1693 886.868 29.0161 884.91 30.3838 883.303C31.737 881.689 33.5407 880.539 35.7952 879.855L38.4693 888.817Z" fill="#5988FF"/>
<path d="M16.8983 850.108L14.6811 840.588L37.1487 835.357C39.8201 834.735 42.2808 834.836 44.5308 835.66C46.7667 836.475 48.68 837.895 50.2708 839.919C51.8502 841.946 52.9894 844.461 53.6886 847.463C54.3931 850.488 54.4847 853.258 53.9635 855.774C53.4308 858.293 52.3416 860.412 50.6959 862.131C49.0361 863.841 46.8705 865.007 44.199 865.629L21.7314 870.86L19.5142 861.34L41.1599 856.3C42.2444 856.048 43.159 855.582 43.9036 854.903C44.6367 854.227 45.1447 853.411 45.4275 852.455C45.7076 851.487 45.7213 850.461 45.4688 849.377C45.2136 848.281 44.7478 847.366 44.0716 846.633C43.3954 845.9 42.579 845.392 41.6226 845.11C40.6547 844.83 39.6285 844.816 38.5439 845.068L16.8983 850.108Z" fill="#5988FF"/>
<path d="M47.6977 822.027L12.1929 828.035L9.59915 812.712C9.15318 810.077 9.28304 807.684 9.98873 805.532C10.6944 803.38 11.8963 801.595 13.5944 800.179C15.2924 798.762 17.4012 797.841 19.9208 797.415C22.4634 796.984 24.761 797.178 26.8135 797.996C28.864 798.802 30.5641 800.136 31.9139 802C33.2617 803.852 34.1644 806.13 34.6222 808.834L36.1713 817.986L28.682 819.254L27.4615 812.043C27.2698 810.91 26.91 809.979 26.382 809.248C25.8406 808.508 25.1639 807.986 24.3518 807.684C23.5378 807.37 22.628 807.298 21.6225 807.468C20.6055 807.64 19.7758 808.006 19.1336 808.567C18.4778 809.117 18.0277 809.83 17.7832 810.703C17.5252 811.567 17.4921 812.565 17.6838 813.697L18.2589 817.095L46.0663 812.389L47.6977 822.027Z" fill="#5988FF"/>
<path d="M41.4582 783.314L5.65974 787.209L3.97856 771.759C3.68949 769.103 3.96094 766.721 4.79292 764.615C5.6249 762.508 6.93039 760.798 8.70941 759.485C10.4884 758.171 12.6481 757.377 15.1885 757.1C17.7522 756.821 20.0343 757.151 22.0347 758.088C24.0338 759.015 25.6518 760.448 26.8888 762.388C28.1245 764.317 28.8907 766.644 29.1874 769.371L30.1915 778.598L22.6403 779.42L21.8491 772.149C21.7249 771.008 21.4209 770.056 20.9372 769.296C20.4406 768.524 19.796 767.964 19.0033 767.614C18.2093 767.252 17.3054 767.126 16.2915 767.237C15.2661 767.348 14.4162 767.665 13.7419 768.186C13.0546 768.697 12.5631 769.381 12.2673 770.239C11.9586 771.086 11.8663 772.08 11.9906 773.222L12.3633 776.647L40.4008 773.597L41.4582 783.314Z" fill="#5988FF"/>
<path d="M37.5718 744.274L1.61228 746.174L1.09637 736.413L29.1898 734.929L28.4215 720.393L36.2876 719.977L37.5718 744.274Z" fill="#5988FF"/>
<path d="M36.0097 710.012L0 709.979L0.0240377 684.031L7.90116 684.038L7.88618 700.211L14.0753 700.217L14.0891 685.38L21.9662 685.387L21.9525 700.224L28.1416 700.23L28.1565 684.127L36.0337 684.134L36.0097 710.012Z" fill="#5988FF"/>
<path d="M1.04118 654.073L2.16659 641.96L23.2494 635.514L23.2884 635.094L3.75388 624.875L4.87929 612.762L40.7346 616.092L39.8499 625.615L19.121 623.69L19.095 623.97L38.8022 633.851L38.2687 639.592L16.9383 645.662L16.9123 645.942L37.7812 647.881L36.8965 657.403L1.04118 654.073Z" fill="#5988FF"/>
<path d="M43.845 595.729L42.0942 606.131L8.55642 588.436L10.7741 575.261L48.257 569.517L46.5062 579.918L19.4678 583.355L19.4211 583.633L43.845 595.729ZM29.5083 595.313L32.7998 575.758L40.0128 576.972L36.7213 596.527L29.5083 595.313Z" fill="#5988FF"/>
<path d="M50.248 560.287L15.1918 552.057L18.745 536.927C19.356 534.326 20.4041 532.17 21.8893 530.46C23.3746 528.75 25.1745 527.572 27.2892 526.925C29.4038 526.277 31.705 526.246 34.1927 526.83C36.7033 527.419 38.7458 528.489 40.3205 530.038C41.8978 531.576 42.9471 533.466 43.4683 535.707C43.9921 537.937 43.9405 540.387 43.3135 543.057L41.1912 552.093L33.7966 550.357L35.4687 543.237C35.7313 542.119 35.761 541.121 35.5579 540.243C35.3461 539.35 34.9246 538.607 34.2934 538.014C33.6649 537.409 32.8542 536.989 31.8614 536.756C30.8572 536.521 29.9504 536.536 29.1411 536.804C28.323 537.057 27.6319 537.539 27.0678 538.249C26.4949 538.946 26.0771 539.853 25.8145 540.971L25.0267 544.325L52.4828 550.771L50.248 560.287Z" fill="#5988FF"/>
<path d="M41.3404 496.51C40.1903 496.265 39.1885 496.425 38.3349 496.99C37.4847 497.543 36.8334 498.578 36.381 500.094C36.0929 501.06 35.9746 501.887 36.0261 502.575C36.0698 503.249 36.2447 503.79 36.5507 504.199C36.8567 504.609 37.2608 504.894 37.7629 505.056C38.1718 505.203 38.5699 505.242 38.9571 505.174C39.3365 505.092 39.718 504.9 40.1015 504.598C40.4738 504.293 40.8554 503.875 41.2464 503.344C41.6375 502.812 42.0395 502.161 42.4527 501.392L43.9037 498.743C44.8777 496.954 45.8989 495.479 46.9671 494.318C48.0353 493.156 49.1477 492.278 50.3043 491.681C51.4498 491.081 52.6388 490.744 53.8715 490.672C55.1075 490.588 56.3843 490.736 57.7019 491.117C59.9675 491.805 61.7191 492.945 62.9566 494.537C64.1941 496.13 64.9112 498.092 65.1078 500.426C65.3079 502.748 64.9723 505.369 64.101 508.289C63.2063 511.288 61.9818 513.772 60.4276 515.743C58.8767 517.702 56.9958 519.024 54.7851 519.71C52.5664 520.381 50.012 520.292 47.1218 519.442L49.7759 510.547C50.8485 510.806 51.8146 510.807 52.6743 510.55C53.5339 510.293 54.2764 509.792 54.9017 509.049C55.5305 508.295 56.0224 507.323 56.3776 506.132C56.6759 505.133 56.802 504.259 56.7559 503.512C56.7098 502.764 56.5197 502.151 56.1855 501.672C55.8513 501.193 55.4051 500.865 54.8468 500.686C54.3155 500.54 53.803 500.576 53.3094 500.796C52.8078 501.001 52.2875 501.433 51.7485 502.092C51.1982 502.747 50.5917 503.673 49.9288 504.869L48.162 508.085C46.5878 510.942 44.7626 513.021 42.6864 514.322C40.6023 515.608 38.214 515.844 35.5215 515.028C33.3278 514.386 31.5868 513.231 30.2987 511.562C29.0027 509.879 28.2075 507.851 27.9131 505.476C27.622 503.089 27.8836 500.532 28.6979 497.803C29.5289 495.017 30.7139 492.748 32.2527 490.993C33.7916 489.238 35.5733 488.063 37.5978 487.469C39.6145 486.859 41.7534 486.886 44.0145 487.548L41.3404 496.51Z" fill="#5988FF"/>
<path d="M66.6796 427.313C65.5624 426.946 64.5492 426.997 63.64 427.467C62.7354 427.927 61.9768 428.886 61.3644 430.345C60.9743 431.274 60.768 432.084 60.7455 432.773C60.7167 433.447 60.8324 434.004 61.0928 434.444C61.3532 434.884 61.7243 435.211 62.2061 435.426C62.597 435.616 62.9885 435.697 63.3808 435.671C63.7669 435.63 64.1667 435.48 64.5803 435.221C64.9832 434.958 65.4075 434.583 65.8533 434.097C66.299 433.61 66.7686 433.006 67.2619 432.286L68.9887 429.807C70.149 428.133 71.3224 426.776 72.509 425.736C73.6956 424.696 74.8959 423.942 76.1099 423.472C77.313 422.999 78.5313 422.792 79.7647 422.852C81.0025 422.901 82.2561 423.185 83.5252 423.705C85.704 424.632 87.3232 425.953 88.3827 427.669C89.4423 429.385 89.9447 431.413 89.89 433.754C89.8398 436.085 89.225 438.655 88.0456 441.465C86.8344 444.35 85.3505 446.689 83.5939 448.481C81.8418 450.262 79.83 451.376 77.5584 451.82C75.2805 452.25 72.7504 451.887 69.968 450.733L73.5608 442.174C74.5995 442.546 75.56 442.65 76.4422 442.487C77.3245 442.323 78.1164 441.905 78.8178 441.234C79.5238 440.551 80.1172 439.637 80.5981 438.492C81.0018 437.53 81.2209 436.675 81.2552 435.927C81.2896 435.179 81.1664 434.549 80.8855 434.037C80.6046 433.525 80.1961 433.15 79.6603 432.913C79.1477 432.71 78.6343 432.692 78.1199 432.857C77.5992 433.007 77.0356 433.381 76.429 433.978C75.8116 434.57 75.1093 435.426 74.3219 436.545L72.2204 439.552C70.3489 442.224 68.3112 444.095 66.1074 445.166C63.8973 446.221 61.4976 446.199 58.908 445.1C56.7958 444.226 55.1889 442.891 54.0871 441.094C52.9791 439.282 52.4061 437.18 52.3681 434.787C52.3346 432.383 52.869 429.868 53.9714 427.242C55.0964 424.562 56.518 422.432 58.2361 420.853C59.9543 419.273 61.8517 418.296 63.9284 417.922C65.9988 417.533 68.1225 417.788 70.2995 418.689L66.6796 427.313Z" fill="#5988FF"/>
<path d="M74.5683 383.71L78.8953 374.945L99.5813 385.153C102.041 386.367 103.879 388.006 105.095 390.07C106.306 392.119 106.884 394.43 106.829 397.004C106.764 399.572 106.049 402.239 104.685 405.003C103.31 407.788 101.623 409.987 99.6231 411.601C97.6131 413.21 95.4267 414.157 93.0639 414.442C90.6958 414.711 88.2819 414.238 85.8223 413.025L65.1362 402.816L69.4631 394.051L89.3924 403.886C90.391 404.379 91.3934 404.599 92.3996 404.547C93.3954 404.489 94.3059 404.181 95.1313 403.621C95.9619 403.05 96.6236 402.266 97.1165 401.268C97.6146 400.259 97.8348 399.256 97.7773 398.261C97.7198 397.265 97.411 396.355 96.8511 395.53C96.2806 394.699 95.4961 394.038 94.4976 393.545L74.5683 383.71Z" fill="#5988FF"/>
<path d="M116.194 381.542L84.9375 363.663L92.6558 350.174C93.9829 347.855 95.602 346.087 97.513 344.871C99.4241 343.655 101.485 343.039 103.697 343.021C105.908 343.003 108.123 343.628 110.341 344.897C112.579 346.177 114.232 347.785 115.3 349.719C116.374 351.642 116.841 353.753 116.702 356.049C116.568 358.336 115.82 360.669 114.458 363.05L109.848 371.107L103.255 367.336L106.887 360.988C107.458 359.991 107.771 359.042 107.826 358.143C107.878 357.227 107.686 356.394 107.25 355.646C106.82 354.887 106.162 354.254 105.277 353.748C104.382 353.235 103.508 352.992 102.656 353.018C101.8 353.028 101 353.293 100.257 353.813C99.509 354.317 98.85 355.067 98.2796 356.064L96.5683 359.055L121.048 373.057L116.194 381.542Z" fill="#5988FF"/>
<path d="M135.936 347.659L105.794 327.961L114.298 314.953C115.76 312.716 117.481 311.047 119.461 309.947C121.441 308.846 123.535 308.353 125.743 308.466C127.952 308.579 130.126 309.335 132.265 310.733C134.423 312.143 135.978 313.846 136.93 315.839C137.887 317.823 138.229 319.958 137.953 322.242C137.685 324.517 136.8 326.802 135.299 329.097L130.22 336.867L123.862 332.712L127.864 326.59C128.492 325.629 128.861 324.701 128.97 323.806C129.075 322.895 128.933 322.053 128.542 321.279C128.158 320.496 127.539 319.825 126.685 319.268C125.822 318.703 124.964 318.409 124.112 318.384C123.257 318.343 122.443 318.56 121.67 319.035C120.894 319.494 120.191 320.204 119.563 321.166L117.677 324.05L141.285 339.478L135.936 347.659Z" fill="#5988FF"/>
<path d="M157.705 315.017L128.704 293.675L134.499 285.803L157.156 302.476L165.786 290.753L172.13 295.422L157.705 315.017Z" fill="#5988FF"/>
<path d="M178.238 287.543L150.425 264.675L166.909 244.633L172.993 249.635L162.719 262.128L167.499 266.058L176.925 254.598L183.009 259.6L173.583 271.06L178.364 274.991L188.594 262.553L194.678 267.556L178.238 287.543Z" fill="#5988FF"/>
<path d="M186.705 222.122L195.261 213.473L215.648 221.864L215.945 221.564L207.329 201.274L215.886 192.625L241.488 217.944L234.761 224.743L219.96 210.106L219.762 210.306L228.725 230.445L224.669 234.544L204.33 225.705L204.132 225.905L219.033 240.641L212.307 247.441L186.705 222.122Z" fill="#5988FF"/>
<path d="M256.814 204.176L248.86 211.105L234.164 176.154L244.239 167.376L276.857 186.713L268.903 193.643L245.823 179.148L245.611 179.333L256.814 204.176ZM245.996 194.76L260.949 181.733L265.754 187.246L250.801 200.274L245.996 194.76Z" fill="#5988FF"/>
<path d="M284.253 180.843L262.378 152.244L274.725 142.803C276.848 141.18 279.026 140.179 281.259 139.799C283.492 139.42 285.631 139.65 287.677 140.492C289.722 141.333 291.521 142.768 293.073 144.798C294.639 146.846 295.54 148.968 295.773 151.165C296.017 153.354 295.629 155.48 294.609 157.543C293.599 159.599 292.005 161.46 289.826 163.126L282.452 168.765L277.837 162.732L283.648 158.289C284.56 157.592 285.217 156.839 285.617 156.031C286.02 155.207 286.165 154.365 286.054 153.506C285.952 152.64 285.591 151.801 284.972 150.991C284.345 150.172 283.634 149.609 282.839 149.303C282.046 148.98 281.206 148.914 280.319 149.105C279.435 149.279 278.536 149.716 277.624 150.413L274.886 152.506L292.018 174.906L284.253 180.843Z" fill="#5988FF"/>
<path d="M317.836 125.895C317.103 124.976 316.227 124.464 315.209 124.359C314.2 124.248 313.04 124.635 311.729 125.519C310.893 126.083 310.277 126.647 309.88 127.212C309.486 127.76 309.278 128.29 309.255 128.8C309.232 129.311 309.363 129.788 309.648 130.231C309.871 130.604 310.154 130.887 310.496 131.08C310.842 131.257 311.259 131.35 311.746 131.361C312.228 131.361 312.788 131.28 313.428 131.117C314.067 130.954 314.791 130.707 315.598 130.374L318.401 129.246C320.289 128.482 322.014 127.989 323.577 127.769C325.139 127.549 326.557 127.576 327.83 127.848C329.096 128.111 330.228 128.605 331.227 129.331C332.236 130.05 333.129 130.975 333.905 132.105C335.22 134.074 335.851 136.066 335.797 138.082C335.743 140.098 335.052 142.07 333.723 143.998C332.404 145.92 330.481 147.733 327.955 149.438C325.361 151.188 322.838 152.332 320.386 152.869C317.944 153.399 315.651 153.228 313.507 152.356C311.366 151.468 309.448 149.778 307.754 147.288L315.449 142.096C316.114 142.977 316.86 143.59 317.688 143.937C318.516 144.283 319.407 144.367 320.362 144.19C321.327 144.006 322.324 143.566 323.354 142.871C324.219 142.288 324.87 141.693 325.309 141.086C325.748 140.478 325.99 139.884 326.036 139.302C326.081 138.72 325.945 138.182 325.627 137.69C325.309 137.24 324.889 136.943 324.368 136.8C323.851 136.64 323.174 136.644 322.34 136.811C321.499 136.969 320.442 137.3 319.171 137.804L315.765 139.169C312.735 140.379 310.005 140.828 307.574 140.516C305.147 140.189 303.152 138.856 301.588 136.518C300.3 134.63 299.687 132.632 299.75 130.526C299.816 128.403 300.489 126.33 301.768 124.307C303.058 122.278 304.883 120.467 307.244 118.874C309.654 117.249 312.01 116.246 314.313 115.865C316.616 115.485 318.738 115.708 320.681 116.532C322.626 117.34 324.263 118.718 325.59 120.664L317.836 125.895Z" fill="#5988FF"/>
<path d="M381.333 88.4799C380.702 87.4875 379.886 86.8846 378.885 86.6712C377.895 86.4523 376.7 86.7125 375.301 87.4517C374.409 87.9226 373.736 88.4175 373.281 88.9362C372.831 89.4392 372.567 89.9432 372.489 90.4482C372.412 90.9533 372.491 91.4417 372.727 91.9134C372.909 92.3078 373.159 92.6193 373.479 92.8481C373.804 93.061 374.208 93.1987 374.692 93.2612C375.17 93.3133 375.736 93.2927 376.389 93.1994C377.043 93.1061 377.789 92.9373 378.627 92.693L381.535 91.8726C383.494 91.3148 385.262 91.0103 386.839 90.9591C388.416 90.9079 389.823 91.086 391.059 91.4933C392.29 91.8903 393.363 92.5032 394.278 93.3319C395.204 94.1551 395.992 95.1702 396.643 96.3771C397.739 98.4757 398.152 100.524 397.883 102.522C397.613 104.521 396.714 106.407 395.186 108.182C393.669 109.952 391.563 111.548 388.868 112.972C386.101 114.434 383.47 115.3 380.975 115.572C378.49 115.837 376.229 115.421 374.19 114.324C372.157 113.211 370.432 111.326 369.014 108.669L377.222 104.332C377.789 105.278 378.465 105.968 379.25 106.402C380.036 106.835 380.913 107.014 381.882 106.94C382.861 106.86 383.899 106.53 384.998 105.95C385.92 105.463 386.632 104.941 387.133 104.384C387.635 103.828 387.939 103.262 388.047 102.689C388.155 102.115 388.077 101.566 387.813 101.042C387.545 100.561 387.16 100.221 386.658 100.022C386.16 99.8082 385.487 99.7395 384.64 99.8162C383.786 99.8826 382.701 100.098 381.382 100.464L377.849 101.455C374.707 102.333 371.945 102.487 369.562 101.917C367.184 101.331 365.343 99.7914 364.039 97.299C362.96 95.2839 362.566 93.2324 362.854 91.1446C363.148 89.0409 364.039 87.0523 365.528 85.1786C367.027 83.2995 369.036 81.6946 371.555 80.364C374.125 79.006 376.575 78.2615 378.906 78.1305C381.236 77.9994 383.323 78.448 385.165 79.476C387.013 80.4882 388.492 82.033 389.603 84.1103L381.333 88.4799Z" fill="#5988FF"/>
<path d="M415.099 59.7817L424.005 55.7515L433.517 76.7645C434.648 79.263 435.028 81.6958 434.659 84.0628C434.295 86.4144 433.275 88.5675 431.6 90.5221C429.919 92.4661 427.675 94.0735 424.866 95.3444C422.036 96.625 419.336 97.255 416.766 97.2343C414.192 97.2029 411.901 96.5479 409.894 95.2691C407.893 93.9749 406.327 92.0785 405.196 89.58L395.684 68.567L404.59 64.5368L413.754 84.781C414.213 85.7954 414.848 86.6015 415.659 87.1993C416.466 87.7865 417.365 88.1255 418.359 88.2163C419.362 88.3023 420.372 88.1158 421.386 87.6567C422.411 87.1928 423.218 86.5578 423.805 85.7518C424.392 84.9458 424.731 84.0462 424.822 83.0531C424.908 82.0493 424.722 81.0403 424.262 80.0259L415.099 59.7817Z" fill="#5988FF"/>
<path d="M448.65 84.5104L435.834 50.864L450.36 45.3332C452.858 44.3822 455.231 44.0429 457.479 44.3154C459.728 44.5879 461.713 45.4187 463.433 46.8077C465.154 48.1967 466.469 50.0851 467.379 52.4727C468.296 54.8823 468.554 57.1732 468.152 59.3453C467.761 61.5133 466.784 63.4407 465.218 65.1277C463.664 66.8105 461.606 68.14 459.042 69.116L450.366 72.4194L447.663 65.3221L454.499 62.7194C455.572 62.3106 456.416 61.7762 457.03 61.116C457.651 60.4407 458.03 59.6754 458.169 58.8201C458.318 57.9606 458.211 57.0544 457.848 56.1015C457.481 55.1377 456.96 54.3955 456.285 53.875C455.617 53.3393 454.831 53.0367 453.926 52.9672C453.029 52.8826 452.043 53.0447 450.969 53.4535L447.749 54.6798L457.786 81.0318L448.65 84.5104Z" fill="#5988FF"/>
<path d="M485.409 70.8434L474.61 36.4968L489.438 31.8362C491.987 31.0348 494.377 30.8367 496.605 31.242C498.834 31.6472 500.766 32.594 502.401 34.0826C504.036 35.5711 505.237 37.534 506.003 39.9714C506.777 42.4311 506.899 44.7332 506.369 46.8777C505.85 49.0187 504.759 50.8848 503.097 52.4762C501.446 54.064 499.312 55.2691 496.696 56.0915L487.839 58.8753L485.561 51.6303L492.539 49.4371C493.635 49.0926 494.509 48.6091 495.161 47.9864C495.821 47.349 496.245 46.6076 496.434 45.762C496.634 44.9129 496.581 44.0019 496.275 43.0292C495.965 42.0454 495.489 41.2736 494.846 40.714C494.211 40.1396 493.444 39.791 492.545 39.6681C491.654 39.5305 490.661 39.6339 489.565 39.9784L486.277 41.0117L494.735 67.912L485.409 70.8434Z" fill="#5988FF"/>
<path d="M522.95 59.4208L514.075 24.5275L523.55 22.1187L530.483 49.379L544.593 45.7917L546.534 53.4246L522.95 59.4208Z" fill="#5988FF"/>
<path d="M556.255 51.2097L549.268 15.8903L574.727 10.8552L576.255 18.5813L560.387 21.7197L561.588 27.7903L576.146 24.9111L577.674 32.6372L563.116 35.5164L564.317 41.5869L580.117 38.4621L581.645 46.1882L556.255 51.2097Z" fill="#5988FF"/>
<path d="M604.312 6.0129L616.414 4.75499L626.848 24.1732L627.267 24.1295L633.483 2.98083L645.585 1.72292L649.309 37.5337L639.795 38.5226L637.642 17.8195L637.362 17.8485L631.511 39.1008L625.775 39.697L615.662 19.9627L615.382 19.9918L617.549 40.8348L608.036 41.8236L604.312 6.0129Z" fill="#5988FF"/>
<path d="M669.892 36.6127L659.347 36.9237L670.166 0.585213L683.523 0.191331L696.465 35.8291L685.92 36.14L677.277 10.2949L676.996 10.3032L669.892 36.6127ZM667.504 22.4723L687.329 21.8877L687.545 29.1978L667.72 29.7824L667.504 22.4723Z" fill="#5988FF"/>
<path d="M705.908 35.9824L707.147 0L722.681 0.534925C725.352 0.626904 727.671 1.23447 729.638 2.35763C731.605 3.48078 733.112 5.01613 734.159 6.96368C735.207 8.91123 735.686 11.1617 735.598 13.7152C735.51 16.292 734.859 18.5036 733.646 20.3498C732.444 22.1965 730.795 23.5939 728.698 24.5419C726.613 25.4903 724.2 25.9173 721.458 25.8229L712.18 25.5034L712.442 17.9134L719.752 18.1651C720.9 18.2047 721.885 18.0392 722.707 17.6688C723.541 17.2871 724.188 16.7289 724.647 15.9942C725.118 15.2599 725.371 14.3832 725.406 13.3642C725.442 12.3334 725.249 11.4473 724.829 10.7058C724.421 9.95292 723.814 9.36911 723.007 8.95434C722.213 8.52826 721.241 8.29546 720.093 8.25592L716.649 8.13732L715.678 36.3188L705.908 35.9824Z" fill="#5988FF"/>
<path d="M766.733 14.814C766.75 13.6383 766.398 12.6871 765.677 11.9601C764.968 11.2343 763.826 10.7974 762.251 10.6493C761.247 10.555 760.413 10.6002 759.748 10.785C759.096 10.9591 758.599 11.2361 758.257 11.616C757.915 11.9959 757.714 12.4478 757.653 12.9718C757.589 13.4014 757.628 13.7994 757.77 14.1659C757.925 14.5218 758.188 14.8585 758.558 15.1758C758.93 15.4815 759.414 15.7742 760.012 16.054C760.61 16.3339 761.326 16.6013 762.162 16.8564L765.043 17.7629C766.988 18.3694 768.634 19.0832 769.981 19.9043C771.329 20.7255 772.408 21.645 773.219 22.6629C774.031 23.6692 774.592 24.7696 774.904 25.9643C775.227 27.1601 775.331 28.4411 775.214 29.8074C774.981 32.1634 774.204 34.1033 772.883 35.6272C771.562 37.1512 769.777 38.237 767.526 38.8849C765.287 39.5338 762.65 39.7157 759.616 39.4306C756.5 39.1378 753.824 38.4213 751.588 37.2813C749.364 36.1423 747.7 34.5557 746.596 32.5214C745.505 30.4766 745.095 27.9542 745.365 24.9543L754.608 25.8228C754.563 26.9252 754.751 27.8728 755.171 28.6656C755.591 29.4585 756.226 30.0891 757.077 30.5575C757.939 31.027 758.989 31.3199 760.226 31.4361C761.265 31.5337 762.146 31.4871 762.871 31.2962C763.595 31.1052 764.159 30.7993 764.564 30.3782C764.969 29.9571 765.204 29.4554 765.271 28.8731C765.31 28.3235 765.175 27.8281 764.863 27.3868C764.564 26.935 764.039 26.5089 763.288 26.1087C762.538 25.6969 761.511 25.2826 760.208 24.8658L756.709 23.7601C753.599 22.7734 751.204 21.3888 749.523 19.6064C747.855 17.8134 747.159 15.5172 747.433 12.7178C747.636 10.4414 748.43 8.50892 749.815 6.92046C751.213 5.32143 753.049 4.14604 755.321 3.3943C757.605 2.64365 760.165 2.40157 763.001 2.66806C765.895 2.94003 768.353 3.65951 770.374 4.82649C772.396 5.99348 773.895 7.51168 774.873 9.38111C775.864 11.24 776.255 13.3426 776.047 15.6891L766.733 14.814Z" fill="#5988FF"/>
<path d="M839.555 26.1724C839.698 25.0053 839.45 24.0218 838.811 23.2218C838.184 22.4242 837.096 21.8673 835.545 21.5512C834.557 21.3498 833.723 21.3053 833.042 21.4177C832.375 21.5209 831.851 21.743 831.471 22.0841C831.09 22.4251 830.841 22.8528 830.724 23.3673C830.615 23.7875 830.611 24.1874 830.713 24.567C830.829 24.9375 831.054 25.3004 831.388 25.6556C831.725 25.9993 832.175 26.3424 832.74 26.6847C833.304 27.027 833.988 27.3697 834.791 27.7129L837.559 28.9231C839.427 29.7346 840.987 30.6208 842.238 31.5817C843.49 32.5426 844.464 33.5725 845.161 34.6715C845.861 35.759 846.301 36.9134 846.483 38.1346C846.676 39.3581 846.641 40.6428 846.379 41.9887C845.894 44.3061 844.914 46.1515 843.437 47.5251C841.961 48.8986 840.069 49.7868 837.762 50.1895C835.466 50.5946 832.825 50.4927 829.838 49.8839C826.772 49.2587 824.188 48.2595 822.088 46.8863C819.998 45.5154 818.514 43.7595 817.635 41.6186C816.769 39.4686 816.632 36.9167 817.222 33.9631L826.319 35.8177C826.156 36.9089 826.241 37.8711 826.574 38.7044C826.906 39.5377 827.47 40.2328 828.266 40.7898C829.073 41.349 830.085 41.7528 831.303 42.001C832.325 42.2094 833.206 42.2575 833.947 42.1454C834.688 42.0333 835.282 41.7896 835.729 41.4143C836.176 41.039 836.464 40.5655 836.593 39.9936C836.692 39.4515 836.61 38.9444 836.347 38.4722C836.098 37.9909 835.622 37.511 834.918 37.0326C834.216 36.5427 833.24 36.0207 831.989 35.4667L828.629 33.9922C825.643 32.6777 823.41 31.0443 821.93 29.0919C820.464 27.1304 820.018 24.7728 820.592 22.019C821.037 19.7774 822.033 17.9412 823.581 16.5104C825.143 15.0706 827.094 14.0987 829.434 13.595C831.785 13.0935 834.356 13.1273 837.147 13.6964C839.996 14.2771 842.362 15.256 844.246 16.633C846.131 18.0099 847.459 19.6802 848.231 21.6437C849.017 23.5981 849.18 25.7305 848.721 28.0411L839.555 26.1724Z" fill="#5988FF"/>
<path d="M883.867 25.4074L893.308 27.9419L887.327 50.2179C886.616 52.8666 885.366 54.9885 883.578 56.5838C881.805 58.1707 879.651 59.1881 877.115 59.6361C874.583 60.0727 871.828 59.8914 868.85 59.0921C865.85 58.2868 863.364 57.0611 861.39 55.415C859.42 53.7576 858.065 51.7981 857.325 49.5365C856.6 47.2667 856.592 44.8074 857.304 42.1587L863.285 19.8827L872.727 22.4171L866.964 43.8782C866.675 44.9535 866.655 45.9795 866.902 46.956C867.153 47.9213 867.633 48.7541 868.343 49.4543C869.065 50.1577 869.963 50.6537 871.039 50.9424C872.125 51.2341 873.152 51.2547 874.117 51.0042C875.082 50.7537 875.915 50.2734 876.616 49.5634C877.319 48.8421 877.815 47.9438 878.104 46.8685L883.867 25.4074Z" fill="#5988FF"/>
<path d="M894.11 65.8054L905.554 31.6683L920.292 36.6074C922.826 37.4566 924.875 38.6998 926.441 40.3368C928.006 41.9739 929.013 43.875 929.461 46.0402C929.91 48.2053 929.728 50.4991 928.916 52.9216C928.096 55.3663 926.842 57.3007 925.153 58.7248C923.475 60.1526 921.496 61.022 919.216 61.3333C916.947 61.6482 914.512 61.3699 911.911 60.4983L903.109 57.5482L905.523 50.3475L912.458 52.6717C913.548 53.0368 914.539 53.1589 915.432 53.038C916.341 52.9099 917.12 52.5591 917.769 51.9857C918.43 51.4161 918.923 50.6478 919.247 49.6811C919.575 48.7032 919.643 47.799 919.451 46.9685C919.275 46.1306 918.859 45.3979 918.204 44.7705C917.564 44.1357 916.699 43.6357 915.61 43.2707L912.342 42.1756L903.379 68.9119L894.11 65.8054Z" fill="#5988FF"/>
<path d="M931.195 78.5591L944.642 45.16L959.061 50.9633C961.54 51.9612 963.512 53.3236 964.978 55.0505C966.443 56.7774 967.336 58.7348 967.655 60.9227C967.975 63.1106 967.658 65.3897 966.703 67.7598C965.74 70.1517 964.374 72.0083 962.603 73.3298C960.844 74.6557 958.817 75.4065 956.522 75.5821C954.238 75.762 951.824 75.3399 949.28 74.3158L940.667 70.8496L943.504 63.8044L950.289 66.5354C951.355 66.9643 952.337 67.1449 953.236 67.0773C954.151 67.0031 954.949 66.6991 955.632 66.1652C956.325 65.6357 956.862 64.898 957.243 63.9521C957.628 62.9954 957.75 62.0968 957.608 61.2565C957.482 60.4096 957.11 59.6536 956.493 58.9884C955.892 58.3168 955.058 57.7665 953.992 57.3376L950.796 56.0509L940.264 82.2092L931.195 78.5591Z" fill="#5988FF"/>
<path d="M967.461 93.5439L982.743 60.9431L991.595 65.0913L979.656 90.5606L992.838 96.738L989.495 103.869L967.461 93.5439Z" fill="#5988FF"/>
<path d="M998.416 108.323L1015.43 76.5896L1038.3 88.8473L1034.58 95.7889L1020.32 88.1486L1017.4 93.6028L1030.48 100.612L1026.76 107.554L1013.68 100.544L1010.75 105.999L1024.95 113.606L1021.23 120.547L998.416 108.323Z" fill="#5988FF"/>
<path d="M1064.24 103.871L1074.39 110.576L1070.14 132.204L1070.49 132.436L1088.71 120.032L1098.87 126.737L1079.02 156.779L1071.04 151.508L1082.51 134.14L1082.28 133.985L1064.27 146.701L1059.46 143.523L1064.16 121.854L1063.93 121.699L1052.38 139.184L1044.4 133.914L1064.24 103.871Z" fill="#5988FF"/>
<path d="M1095.51 169.126L1087.17 162.677L1118.59 141.451L1129.16 149.62L1116.55 185.377L1108.2 178.928L1117.92 153.468L1117.7 153.296L1095.51 169.126ZM1102.64 156.681L1118.34 168.805L1113.86 174.592L1098.17 162.468L1102.64 156.681Z" fill="#5988FF"/>
<path d="M1123.75 191.485L1147.54 164.458L1159.21 174.725C1161.22 176.49 1162.63 178.431 1163.43 180.547C1164.24 182.663 1164.43 184.806 1164.01 186.975C1163.58 189.145 1162.52 191.189 1160.83 193.107C1159.13 195.042 1157.22 196.339 1155.11 196.996C1153.01 197.662 1150.85 197.696 1148.63 197.098C1146.42 196.509 1144.28 195.308 1142.22 193.496L1135.25 187.363L1140.27 181.663L1145.76 186.494C1146.62 187.253 1147.49 187.75 1148.36 187.985C1149.25 188.219 1150.1 188.198 1150.92 187.921C1151.75 187.653 1152.5 187.136 1153.18 186.37C1153.86 185.596 1154.27 184.789 1154.42 183.949C1154.58 183.108 1154.48 182.272 1154.12 181.44C1153.78 180.606 1153.17 179.81 1152.31 179.051L1149.73 176.775L1131.09 197.942L1123.75 191.485Z" fill="#5988FF"/>
<path d="M1184.2 213.705C1184.96 212.807 1185.29 211.848 1185.2 210.829C1185.11 209.819 1184.5 208.756 1183.38 207.642C1182.66 206.933 1181.99 206.439 1181.36 206.16C1180.75 205.88 1180.19 205.779 1179.68 205.856C1179.17 205.933 1178.73 206.155 1178.35 206.521C1178.03 206.812 1177.81 207.145 1177.69 207.518C1177.58 207.892 1177.57 208.319 1177.65 208.799C1177.75 209.271 1177.94 209.804 1178.22 210.4C1178.5 210.995 1178.89 211.657 1179.37 212.384L1181.03 214.912C1182.14 216.615 1182.96 218.211 1183.48 219.7C1184 221.189 1184.25 222.585 1184.24 223.886C1184.22 225.179 1183.96 226.386 1183.44 227.507C1182.93 228.636 1182.2 229.692 1181.24 230.674C1179.57 232.347 1177.74 233.354 1175.75 233.694C1173.76 234.034 1171.69 233.741 1169.54 232.814C1167.4 231.895 1165.25 230.363 1163.08 228.218C1160.86 226.015 1159.24 223.764 1158.24 221.464C1157.24 219.173 1156.96 216.891 1157.4 214.619C1157.86 212.346 1159.14 210.136 1161.25 207.988L1167.84 214.523C1167.11 215.347 1166.65 216.198 1166.48 217.077C1166.3 217.957 1166.39 218.847 1166.75 219.749C1167.12 220.659 1167.74 221.551 1168.63 222.426C1169.37 223.16 1170.08 223.683 1170.76 223.995C1171.44 224.307 1172.07 224.428 1172.65 224.36C1173.23 224.291 1173.73 224.052 1174.15 223.644C1174.53 223.245 1174.74 222.776 1174.78 222.237C1174.83 221.698 1174.7 221.036 1174.37 220.25C1174.05 219.456 1173.52 218.484 1172.78 217.335L1170.78 214.261C1169 211.526 1168.03 208.936 1167.86 206.492C1167.71 204.048 1168.63 201.832 1170.61 199.842C1172.22 198.211 1174.06 197.221 1176.13 196.872C1178.23 196.523 1180.39 196.778 1182.63 197.639C1184.87 198.507 1187 199.944 1189.02 201.949C1191.09 203.995 1192.53 206.11 1193.35 208.295C1194.18 210.479 1194.37 212.604 1193.94 214.669C1193.53 216.735 1192.5 218.608 1190.85 220.289L1184.2 213.705Z" fill="#5988FF"/>
<path d="M1233.28 268.679C1234.14 267.867 1234.57 266.95 1234.58 265.926C1234.6 264.912 1234.12 263.791 1233.12 262.563C1232.48 261.781 1231.87 261.217 1231.27 260.872C1230.69 260.529 1230.14 260.368 1229.63 260.39C1229.12 260.413 1228.66 260.585 1228.24 260.909C1227.89 261.164 1227.63 261.471 1227.47 261.829C1227.32 262.189 1227.27 262.612 1227.3 263.099C1227.34 263.578 1227.47 264.129 1227.69 264.751C1227.91 265.374 1228.22 266.073 1228.62 266.847L1230 269.539C1230.93 271.351 1231.57 273.026 1231.93 274.562C1232.28 276.099 1232.38 277.513 1232.22 278.805C1232.08 280.089 1231.68 281.261 1231.05 282.32C1230.42 283.388 1229.58 284.359 1228.52 285.233C1226.68 286.717 1224.75 287.521 1222.74 287.646C1220.72 287.771 1218.7 287.258 1216.66 286.105C1214.63 284.962 1212.65 283.208 1210.73 280.843C1208.75 278.415 1207.39 276.004 1206.64 273.61C1205.89 271.225 1205.86 268.926 1206.54 266.713C1207.23 264.502 1208.75 262.443 1211.08 260.534L1216.93 267.738C1216.11 268.478 1215.57 269.276 1215.3 270.131C1215.03 270.986 1215.02 271.881 1215.28 272.816C1215.55 273.761 1216.08 274.715 1216.86 275.679C1217.52 276.488 1218.17 277.085 1218.81 277.468C1219.46 277.851 1220.07 278.039 1220.66 278.033C1221.24 278.027 1221.76 277.844 1222.22 277.483C1222.64 277.127 1222.9 276.683 1223 276.151C1223.11 275.621 1223.05 274.948 1222.81 274.132C1222.58 273.308 1222.15 272.285 1221.54 271.064L1219.88 267.793C1218.4 264.882 1217.71 262.203 1217.81 259.755C1217.92 257.309 1219.07 255.204 1221.26 253.439C1223.03 251.989 1224.96 251.201 1227.07 251.077C1229.19 250.955 1231.31 251.441 1233.44 252.536C1235.58 253.64 1237.54 255.297 1239.34 257.508C1241.17 259.763 1242.38 262.021 1242.96 264.281C1243.55 266.541 1243.51 268.674 1242.86 270.682C1242.23 272.691 1241 274.443 1239.18 275.937L1233.28 268.679Z" fill="#5988FF"/>
<path d="M1268.02 296.196L1273.71 304.145L1254.95 317.569C1252.72 319.165 1250.41 320.013 1248.02 320.112C1245.64 320.213 1243.33 319.633 1241.08 318.371C1238.85 317.102 1236.83 315.214 1235.04 312.708C1233.23 310.182 1232.09 307.658 1231.61 305.133C1231.14 302.602 1231.33 300.228 1232.19 298.011C1233.07 295.796 1234.63 293.891 1236.86 292.294L1255.62 278.87L1261.31 286.818L1243.24 299.752C1242.33 300.4 1241.66 301.179 1241.23 302.091C1240.82 302.996 1240.66 303.945 1240.76 304.937C1240.87 305.938 1241.25 306.891 1241.9 307.797C1242.56 308.711 1243.34 309.378 1244.24 309.797C1245.15 310.216 1246.1 310.373 1247.09 310.268C1248.09 310.157 1249.04 309.777 1249.95 309.129L1268.02 296.196Z" fill="#5988FF"/>
<path d="M1250.3 333.92L1280.81 314.793L1289.07 327.959C1290.49 330.223 1291.28 332.484 1291.46 334.742C1291.63 337.001 1291.2 339.109 1290.17 341.067C1289.14 343.025 1287.55 344.683 1285.38 346.04C1283.2 347.41 1281 348.11 1278.79 348.139C1276.59 348.178 1274.51 347.595 1272.55 346.389C1270.59 345.193 1268.89 343.434 1267.43 341.11L1262.5 333.246L1268.93 329.211L1272.82 335.407C1273.43 336.38 1274.12 337.104 1274.89 337.577C1275.67 338.054 1276.5 338.277 1277.36 338.246C1278.23 338.225 1279.1 337.944 1279.97 337.402C1280.84 336.854 1281.47 336.198 1281.85 335.435C1282.24 334.675 1282.38 333.845 1282.28 332.945C1282.18 332.048 1281.83 331.113 1281.22 330.14L1279.39 327.221L1255.5 342.201L1250.3 333.92Z" fill="#5988FF"/>
<path d="M1270.88 367.304L1302.46 350.018L1309.93 363.65C1311.21 365.994 1311.87 368.298 1311.91 370.563C1311.94 372.827 1311.39 374.906 1310.25 376.8C1309.11 378.694 1307.42 380.255 1305.18 381.481C1302.91 382.719 1300.68 383.287 1298.47 383.186C1296.27 383.095 1294.23 382.389 1292.34 381.069C1290.46 379.76 1288.86 377.902 1287.55 375.496L1283.09 367.354L1289.75 363.708L1293.26 370.123C1293.82 371.13 1294.46 371.893 1295.2 372.411C1295.95 372.934 1296.76 373.205 1297.63 373.226C1298.5 373.256 1299.38 373.027 1300.28 372.537C1301.18 372.042 1301.85 371.424 1302.27 370.685C1302.71 369.95 1302.9 369.13 1302.85 368.225C1302.81 367.324 1302.52 366.37 1301.96 365.362L1300.31 362.34L1275.57 375.878L1270.88 367.304Z" fill="#5988FF"/>
<path d="M1289.4 401.89L1321.9 386.385L1326.11 395.207L1300.72 407.32L1306.99 420.457L1299.88 423.849L1289.4 401.89Z" fill="#5988FF"/>
<path d="M1303.95 432.95L1337.23 419.212L1347.14 443.197L1339.86 446.202L1333.68 431.252L1327.96 433.614L1333.63 447.328L1326.34 450.334L1320.68 436.619L1314.96 438.98L1321.11 453.865L1313.82 456.87L1303.95 432.95Z" fill="#5988FF"/>
<path d="M1357.66 471.266L1361.25 482.888L1344.23 496.906L1344.36 497.309L1366.32 499.281L1369.91 510.904L1335.51 521.537L1332.68 512.4L1352.57 506.253L1352.49 505.984L1330.5 504.389L1328.8 498.88L1346.18 485.116L1346.1 484.847L1326.08 491.036L1323.25 481.899L1357.66 471.266Z" fill="#5988FF"/>
<path d="M1340.42 541.541L1338.06 531.261L1375.82 534.786L1378.81 547.808L1346.37 567.448L1344.01 557.168L1367.68 543.653L1367.62 543.379L1340.42 541.541ZM1353.83 536.444L1358.27 555.771L1351.14 557.407L1346.7 538.08L1353.83 536.444Z" fill="#5988FF"/>
<path d="M1348.06 576.738L1383.6 570.939L1386.1 586.276C1386.54 588.914 1386.39 591.306 1385.67 593.454C1384.95 595.602 1383.74 597.379 1382.04 598.786C1380.33 600.192 1378.22 601.101 1375.69 601.513C1373.15 601.928 1370.85 601.721 1368.8 600.892C1366.76 600.073 1365.07 598.729 1363.73 596.857C1362.39 594.997 1361.5 592.714 1361.06 590.007L1359.56 580.846L1367.06 579.623L1368.24 586.841C1368.42 587.974 1368.78 588.908 1369.3 589.642C1369.84 590.385 1370.51 590.911 1371.32 591.218C1372.13 591.537 1373.04 591.614 1374.05 591.45C1375.07 591.284 1375.9 590.922 1376.55 590.366C1377.2 589.819 1377.66 589.109 1377.91 588.237C1378.17 587.375 1378.21 586.377 1378.03 585.244L1377.47 581.843L1349.64 586.385L1348.06 576.738Z" fill="#5988FF"/>
<path d="M1380.69 632.261C1381.84 632.048 1382.71 631.517 1383.28 630.669C1383.85 629.832 1384.06 628.627 1383.9 627.053C1383.79 626.05 1383.59 625.241 1383.28 624.625C1382.98 624.019 1382.61 623.586 1382.17 623.325C1381.73 623.064 1381.25 622.954 1380.72 622.997C1380.29 623.018 1379.91 623.134 1379.57 623.344C1379.26 623.566 1378.98 623.889 1378.74 624.314C1378.51 624.738 1378.32 625.27 1378.16 625.911C1378 626.552 1377.88 627.307 1377.79 628.176L1377.46 631.178C1377.25 633.204 1376.87 634.957 1376.33 636.438C1375.78 637.92 1375.09 639.157 1374.25 640.151C1373.42 641.143 1372.45 641.909 1371.34 642.447C1370.23 642.997 1368.99 643.348 1367.63 643.5C1365.27 643.731 1363.22 643.347 1361.47 642.349C1359.72 641.351 1358.3 639.812 1357.23 637.731C1356.15 635.662 1355.46 633.111 1355.15 630.08C1354.83 626.967 1355.01 624.204 1355.69 621.789C1356.38 619.386 1357.61 617.445 1359.39 615.965C1361.18 614.497 1363.58 613.603 1366.57 613.283L1367.52 622.516C1366.43 622.687 1365.54 623.056 1364.84 623.622C1364.15 624.189 1363.65 624.935 1363.36 625.86C1363.07 626.798 1362.98 627.884 1363.11 629.12C1363.22 630.158 1363.44 631.013 1363.76 631.686C1364.09 632.359 1364.5 632.853 1365 633.168C1365.49 633.482 1366.03 633.616 1366.61 633.567C1367.16 633.499 1367.62 633.269 1367.99 632.878C1368.37 632.496 1368.69 631.898 1368.93 631.084C1369.19 630.268 1369.4 629.18 1369.55 627.821L1369.96 624.175C1370.32 620.933 1371.21 618.314 1372.63 616.318C1374.06 614.333 1376.18 613.202 1378.98 612.926C1381.25 612.68 1383.3 613.082 1385.13 614.131C1386.97 615.19 1388.48 616.761 1389.66 618.843C1390.85 620.936 1391.58 623.4 1391.87 626.233C1392.17 629.124 1391.94 631.674 1391.19 633.884C1390.44 636.094 1389.25 637.86 1387.6 639.184C1385.97 640.518 1383.99 641.312 1381.64 641.564L1380.69 632.261Z" fill="#5988FF"/>
</svg>
