<svg width="1544" height="1544" viewBox="0 0 1544 1544" fill="none" xmlns="http://www.w3.org/2000/svg">
<path d="M1219.75 157.139C1220.35 156.133 1220.53 155.134 1220.28 154.143C1220.03 153.159 1219.27 152.206 1217.98 151.283C1217.16 150.696 1216.42 150.314 1215.75 150.137C1215.1 149.959 1214.54 149.947 1214.05 150.102C1213.56 150.258 1213.16 150.546 1212.84 150.967C1212.57 151.306 1212.4 151.669 1212.34 152.057C1212.3 152.442 1212.35 152.865 1212.51 153.326C1212.68 153.777 1212.95 154.275 1213.32 154.818C1213.7 155.361 1214.18 155.953 1214.77 156.595L1216.8 158.831C1218.17 160.335 1219.23 161.782 1219.98 163.17C1220.73 164.559 1221.2 165.897 1221.38 167.184C1221.57 168.462 1221.5 169.695 1221.17 170.884C1220.85 172.079 1220.29 173.236 1219.5 174.356C1218.11 176.272 1216.46 177.554 1214.55 178.202C1212.64 178.851 1210.55 178.887 1208.29 178.311C1206.03 177.741 1203.66 176.567 1201.19 174.79C1198.65 172.965 1196.7 170.997 1195.35 168.885C1194 166.78 1193.37 164.571 1193.44 162.259C1193.53 159.944 1194.45 157.56 1196.2 155.108L1203.73 160.521C1203.14 161.45 1202.82 162.362 1202.78 163.258C1202.75 164.154 1202.98 165.019 1203.47 165.852C1203.98 166.693 1204.74 167.475 1205.75 168.2C1206.59 168.808 1207.38 169.212 1208.1 169.413C1208.82 169.614 1209.46 169.635 1210.02 169.475C1210.58 169.316 1211.04 169.002 1211.39 168.533C1211.7 168.079 1211.84 167.583 1211.79 167.045C1211.76 166.504 1211.52 165.871 1211.08 165.147C1210.64 164.413 1209.96 163.538 1209.05 162.521L1206.59 159.801C1204.4 157.381 1203.03 154.977 1202.48 152.591C1201.95 150.202 1202.51 147.869 1204.16 145.592C1205.48 143.73 1207.14 142.463 1209.14 141.791C1211.15 141.117 1213.32 141.028 1215.66 141.526C1218.01 142.031 1220.34 143.114 1222.66 144.774C1225.02 146.47 1226.77 148.33 1227.93 150.357C1229.08 152.384 1229.61 154.451 1229.51 156.558C1229.43 158.662 1228.7 160.674 1227.34 162.593L1219.75 157.139Z" fill="#5988FF"/>
<path d="M1260.42 174.331L1268.03 180.459L1253.57 198.418C1251.86 200.554 1249.86 201.99 1247.58 202.728C1245.32 203.464 1242.94 203.525 1240.44 202.912C1237.95 202.289 1235.5 201.012 1233.1 199.079C1230.68 197.132 1228.9 195.008 1227.76 192.706C1226.63 190.395 1226.18 188.056 1226.42 185.689C1226.67 183.321 1227.66 181.069 1229.38 178.933L1243.83 160.973L1251.44 167.101L1237.52 184.404C1236.82 185.271 1236.38 186.201 1236.22 187.194C1236.06 188.178 1236.16 189.133 1236.53 190.06C1236.9 190.994 1237.52 191.811 1238.39 192.509C1239.27 193.214 1240.2 193.647 1241.18 193.807C1242.16 193.968 1243.12 193.865 1244.05 193.498C1244.98 193.122 1245.8 192.501 1246.49 191.634L1260.42 174.331Z" fill="#5988FF"/>
<path d="M1253.54 215.409L1277.61 188.657L1289.16 199.05C1291.15 200.837 1292.53 202.793 1293.31 204.917C1294.1 207.041 1294.26 209.185 1293.81 211.349C1293.36 213.513 1292.28 215.544 1290.58 217.442C1288.85 219.358 1286.93 220.633 1284.82 221.267C1282.71 221.909 1280.55 221.919 1278.34 221.297C1276.13 220.683 1274.01 219.459 1271.97 217.625L1265.08 211.417L1270.15 205.774L1275.59 210.665C1276.44 211.433 1277.3 211.94 1278.17 212.184C1279.05 212.428 1279.91 212.416 1280.73 212.149C1281.56 211.89 1282.32 211.381 1283 210.623C1283.69 209.857 1284.11 209.055 1284.27 208.217C1284.44 207.379 1284.35 206.541 1284 205.705C1283.66 204.868 1283.07 204.066 1282.22 203.298L1279.66 200.994L1260.8 221.946L1253.54 215.409Z" fill="#5988FF"/>
<path d="M1282.51 241.865L1307.98 216.434L1318.95 227.427C1320.84 229.318 1322.12 231.344 1322.79 233.507C1323.46 235.67 1323.51 237.82 1322.94 239.957C1322.38 242.094 1321.19 244.064 1319.39 245.869C1317.56 247.69 1315.58 248.861 1313.43 249.381C1311.3 249.91 1309.14 249.805 1306.96 249.066C1304.79 248.335 1302.74 247 1300.8 245.06L1294.24 238.493L1299.62 233.129L1304.78 238.303C1305.59 239.115 1306.42 239.667 1307.28 239.957C1308.15 240.248 1309 240.282 1309.84 240.059C1310.68 239.844 1311.46 239.376 1312.19 238.656C1312.92 237.928 1313.38 237.149 1313.58 236.321C1313.8 235.493 1313.75 234.652 1313.44 233.798C1313.16 232.945 1312.61 232.112 1311.79 231.299L1309.36 228.862L1289.42 248.779L1282.51 241.865Z" fill="#5988FF"/>
<path d="M1310.02 269.873L1336.72 245.747L1343.27 252.998L1322.41 271.847L1332.16 282.644L1326.32 287.922L1310.02 269.873Z" fill="#5988FF"/>
<path d="M1332.85 295.491L1360.69 272.683L1377.13 292.749L1371.04 297.738L1360.79 285.231L1356.01 289.151L1365.41 300.625L1359.32 305.614L1349.92 294.14L1345.13 298.061L1355.33 310.513L1349.24 315.503L1332.85 295.491Z" fill="#5988FF"/>
<path d="M1395.25 316.264L1402.16 326.274L1390.13 344.736L1390.37 345.083L1411.9 340.393L1418.8 350.403L1389.18 370.841L1383.75 362.971L1400.88 351.156L1400.72 350.924L1379.27 355.983L1376 351.239L1388.46 332.907L1388.3 332.675L1371.06 344.57L1365.63 336.701L1395.25 316.264Z" fill="#5988FF"/>
<path d="M1399.98 388.427L1394.59 379.368L1431.58 371.155L1438.42 382.63L1413.58 411.256L1408.18 402.197L1426.56 382.086L1426.41 381.844L1399.98 388.427ZM1411.17 379.469L1421.32 396.5L1415.04 400.241L1404.89 383.21L1411.17 379.469Z" fill="#5988FF"/>
<path d="M1418.09 419.592L1450.01 402.98L1457.18 416.762C1458.42 419.131 1459.03 421.448 1459.02 423.712C1459.01 425.976 1458.41 428.043 1457.23 429.911C1456.05 431.78 1454.33 433.304 1452.06 434.483C1449.78 435.673 1447.53 436.193 1445.33 436.045C1443.13 435.908 1441.1 435.16 1439.25 433.801C1437.4 432.453 1435.84 430.562 1434.58 428.13L1430.29 419.899L1437.03 416.395L1440.4 422.88C1440.93 423.899 1441.56 424.675 1442.29 425.208C1443.03 425.746 1443.83 426.035 1444.7 426.073C1445.57 426.122 1446.45 425.911 1447.36 425.441C1448.27 424.965 1448.95 424.362 1449.39 423.631C1449.84 422.906 1450.05 422.091 1450.02 421.185C1450 420.284 1449.72 419.324 1449.19 418.305L1447.6 415.25L1422.6 428.26L1418.09 419.592Z" fill="#5988FF"/>
<path d="M1466.5 461.958C1467.53 461.388 1468.18 460.61 1468.45 459.624C1468.73 458.648 1468.54 457.44 1467.88 456C1467.47 455.083 1467.01 454.382 1466.52 453.897C1466.05 453.418 1465.56 453.125 1465.06 453.017C1464.56 452.909 1464.07 452.959 1463.59 453.166C1463.18 453.324 1462.86 453.556 1462.61 453.861C1462.38 454.173 1462.22 454.568 1462.12 455.047C1462.04 455.521 1462.03 456.087 1462.09 456.744C1462.14 457.401 1462.26 458.156 1462.46 459.007L1463.1 461.957C1463.54 463.945 1463.74 465.727 1463.7 467.303C1463.65 468.88 1463.39 470.273 1462.91 471.482C1462.44 472.686 1461.77 473.72 1460.89 474.584C1460.01 475.458 1458.95 476.184 1457.71 476.762C1455.55 477.73 1453.48 478.02 1451.5 477.632C1449.52 477.244 1447.7 476.234 1446.02 474.604C1444.34 472.985 1442.87 470.788 1441.61 468.015C1440.32 465.167 1439.61 462.49 1439.49 459.984C1439.37 457.489 1439.92 455.258 1441.14 453.29C1442.37 451.328 1444.35 449.718 1447.09 448.462L1450.93 456.91C1449.95 457.419 1449.22 458.053 1448.74 458.811C1448.26 459.569 1448.03 460.434 1448.05 461.404C1448.07 462.385 1448.34 463.441 1448.85 464.572C1449.28 465.521 1449.76 466.263 1450.28 466.796C1450.81 467.33 1451.36 467.667 1451.92 467.809C1452.49 467.95 1453.04 467.905 1453.58 467.674C1454.07 467.435 1454.44 467.071 1454.67 466.582C1454.91 466.098 1455.02 465.431 1454.99 464.581C1454.98 463.725 1454.83 462.629 1454.54 461.292L1453.76 457.708C1453.07 454.521 1453.08 451.755 1453.79 449.412C1454.52 447.074 1456.17 445.329 1458.73 444.177C1460.81 443.221 1462.88 442.95 1464.94 443.362C1467.02 443.781 1468.95 444.788 1470.74 446.386C1472.52 447.994 1474 450.094 1475.18 452.686C1476.38 455.331 1476.98 457.82 1476.97 460.153C1476.96 462.486 1476.39 464.541 1475.25 466.318C1474.13 468.101 1472.5 469.485 1470.37 470.47L1466.5 461.958Z" fill="#5988FF"/>
<path d="M1493.17 530.422C1494.25 529.954 1494.97 529.243 1495.34 528.287C1495.71 527.343 1495.64 526.123 1495.12 524.627C1494.8 523.673 1494.41 522.932 1493.97 522.402C1493.55 521.879 1493.09 521.54 1492.6 521.385C1492.12 521.229 1491.62 521.231 1491.12 521.391C1490.7 521.509 1490.35 521.708 1490.08 521.989C1489.82 522.276 1489.62 522.654 1489.48 523.122C1489.36 523.586 1489.29 524.148 1489.28 524.807C1489.27 525.467 1489.32 526.23 1489.43 527.096L1489.79 530.094C1490.03 532.115 1490.06 533.908 1489.87 535.473C1489.67 537.038 1489.28 538.399 1488.68 539.556C1488.1 540.709 1487.33 541.673 1486.36 542.448C1485.41 543.234 1484.28 543.854 1482.99 544.309C1480.75 545.065 1478.66 545.154 1476.73 544.576C1474.8 543.999 1473.08 542.818 1471.56 541.033C1470.05 539.26 1468.8 536.932 1467.82 534.05C1466.8 531.09 1466.36 528.358 1466.48 525.852C1466.6 523.358 1467.36 521.189 1468.76 519.348C1470.18 517.514 1472.31 516.103 1475.15 515.117L1478.16 523.896C1477.14 524.308 1476.35 524.869 1475.8 525.577C1475.25 526.285 1474.94 527.123 1474.86 528.091C1474.78 529.07 1474.95 530.147 1475.35 531.322C1475.69 532.308 1476.09 533.092 1476.56 533.674C1477.04 534.255 1477.55 534.644 1478.1 534.84C1478.65 535.035 1479.2 535.044 1479.76 534.865C1480.28 534.676 1480.67 534.348 1480.94 533.883C1481.23 533.425 1481.41 532.771 1481.46 531.923C1481.53 531.07 1481.49 529.964 1481.33 528.606L1480.9 524.963C1480.52 521.725 1480.8 518.973 1481.73 516.709C1482.68 514.453 1484.49 512.875 1487.15 511.975C1489.31 511.224 1491.4 511.154 1493.41 511.764C1495.45 512.381 1497.27 513.57 1498.89 515.332C1500.51 517.105 1501.78 519.338 1502.7 522.031C1503.65 524.78 1504 527.316 1503.77 529.637C1503.53 531.958 1502.76 533.948 1501.46 535.607C1500.18 537.274 1498.42 538.494 1496.2 539.268L1493.17 530.422Z" fill="#5988FF"/>
<path d="M1516.36 568.008L1519.01 577.412L1496.82 583.669C1494.18 584.413 1491.72 584.426 1489.44 583.706C1487.17 582.995 1485.19 581.665 1483.51 579.717C1481.84 577.766 1480.59 575.307 1479.75 572.341C1478.91 569.353 1478.69 566.591 1479.09 564.054C1479.51 561.514 1480.5 559.348 1482.06 557.556C1483.64 555.772 1485.75 554.508 1488.39 553.764L1510.58 547.507L1513.23 556.912L1491.85 562.94C1490.78 563.242 1489.89 563.749 1489.18 564.461C1488.48 565.17 1488.01 566.008 1487.77 566.976C1487.53 567.956 1487.57 568.981 1487.87 570.052C1488.17 571.135 1488.68 572.026 1489.39 572.727C1490.1 573.428 1490.94 573.898 1491.91 574.136C1492.88 574.371 1493.91 574.338 1494.98 574.036L1516.36 568.008Z" fill="#5988FF"/>
<path d="M1486.95 597.496L1522.07 589.647L1525.45 604.809C1526.04 607.416 1526.03 609.812 1525.44 611.997C1524.85 614.182 1523.74 616.026 1522.12 617.529C1520.5 619.032 1518.44 620.061 1515.95 620.618C1513.43 621.181 1511.13 621.107 1509.04 620.398C1506.95 619.7 1505.19 618.456 1503.74 616.666C1502.3 614.887 1501.28 612.66 1500.68 609.985L1498.66 600.929L1506.07 599.273L1507.66 606.408C1507.91 607.529 1508.32 608.44 1508.89 609.142C1509.46 609.853 1510.17 610.338 1510.99 610.598C1511.82 610.869 1512.73 610.893 1513.73 610.671C1514.73 610.446 1515.54 610.037 1516.15 609.444C1516.78 608.86 1517.19 608.126 1517.39 607.241C1517.6 606.365 1517.58 605.367 1517.33 604.247L1516.58 600.885L1489.08 607.032L1486.95 597.496Z" fill="#5988FF"/>
<path d="M1495.23 635.849L1530.72 629.883L1533.29 645.203C1533.73 647.838 1533.6 650.23 1532.89 652.381C1532.19 654.531 1530.98 656.313 1529.29 657.728C1527.59 659.142 1525.48 660.061 1522.96 660.484C1520.42 660.911 1518.12 660.715 1516.07 659.895C1514.02 659.087 1512.33 657.751 1510.98 655.886C1509.63 654.033 1508.74 651.755 1508.28 649.051L1506.74 639.901L1514.23 638.642L1515.44 645.852C1515.63 646.984 1515.99 647.916 1516.52 648.647C1517.06 649.388 1517.73 649.91 1518.54 650.213C1519.36 650.528 1520.27 650.601 1521.27 650.432C1522.29 650.261 1523.12 649.896 1523.76 649.336C1524.41 648.787 1524.87 648.075 1525.11 647.202C1525.37 646.339 1525.4 645.341 1525.21 644.209L1524.64 640.812L1496.85 645.484L1495.23 635.849Z" fill="#5988FF"/>
<path d="M1501.42 674.616L1537.16 670.432L1538.29 680.136L1510.37 683.406L1512.06 697.858L1504.24 698.774L1501.42 674.616Z" fill="#5988FF"/>
<path d="M1505.18 708.73L1541.08 706.276L1542.85 732.155L1535 732.692L1533.9 716.562L1527.73 716.983L1528.74 731.781L1520.88 732.318L1519.87 717.52L1513.7 717.942L1514.8 734.002L1506.95 734.539L1505.18 708.73Z" fill="#5988FF"/>
<path d="M1544 761.825L1543.83 773.985L1523.33 782.058L1523.32 782.48L1543.58 791.135L1543.41 803.295L1507.43 802.782L1507.56 793.223L1528.36 793.519L1528.37 793.238L1507.96 784.933L1508.04 779.169L1528.82 771.451L1528.82 771.169L1507.88 770.871L1508.02 761.312L1544 761.825Z" fill="#5988FF"/>
<path d="M1506.04 823.376L1506.89 812.866L1541.8 827.615L1540.72 840.928L1503.89 849.861L1504.74 839.351L1531.37 833.611L1531.39 833.331L1506.04 823.376ZM1520.35 822.561L1518.75 842.32L1511.46 841.729L1513.06 821.97L1520.35 822.561Z" fill="#5988FF"/>
<path d="M1502.74 859.27L1538.38 864.235L1536.24 879.622C1535.87 882.268 1535.03 884.51 1533.71 886.349C1532.39 888.188 1530.7 889.526 1528.66 890.365C1526.61 891.204 1524.33 891.448 1521.8 891.095C1519.25 890.74 1517.11 889.863 1515.4 888.466C1513.69 887.08 1512.48 885.296 1511.75 883.113C1511.02 880.942 1510.85 878.498 1511.23 875.783L1512.51 866.593L1520.03 867.64L1519.02 874.881C1518.86 876.018 1518.92 877.014 1519.2 877.87C1519.5 878.739 1519.98 879.44 1520.67 879.972C1521.35 880.517 1522.19 880.859 1523.2 881C1524.22 881.142 1525.13 881.043 1525.91 880.702C1526.7 880.375 1527.34 879.831 1527.84 879.072C1528.34 878.327 1528.67 877.385 1528.83 876.248L1529.31 872.836L1501.39 868.948L1502.74 859.27Z" fill="#5988FF"/>
<path d="M1517.64 921.854C1518.81 921.985 1519.79 921.728 1520.59 921.082C1521.38 920.448 1521.92 919.355 1522.22 917.802C1522.42 916.813 1522.45 915.979 1522.33 915.299C1522.22 914.633 1522 914.112 1521.65 913.735C1521.31 913.358 1520.88 913.113 1520.36 913.001C1519.94 912.896 1519.54 912.896 1519.16 913.001C1518.79 913.12 1518.43 913.349 1518.08 913.686C1517.74 914.026 1517.4 914.479 1517.07 915.047C1516.73 915.614 1516.39 916.3 1516.06 917.106L1514.87 919.884C1514.08 921.759 1513.21 923.327 1512.26 924.587C1511.31 925.847 1510.29 926.83 1509.2 927.537C1508.12 928.246 1506.97 928.698 1505.75 928.891C1504.53 929.095 1503.25 929.073 1501.9 928.823C1499.58 928.361 1497.73 927.398 1496.34 925.935C1494.95 924.473 1494.05 922.59 1493.62 920.288C1493.19 917.997 1493.27 915.357 1493.85 912.366C1494.45 909.296 1495.42 906.704 1496.78 904.591C1498.13 902.491 1499.87 900.99 1502 900.091C1504.14 899.206 1506.69 899.044 1509.65 899.607L1507.88 908.716C1506.79 908.563 1505.82 908.657 1504.99 908.998C1504.17 909.338 1503.48 909.908 1502.93 910.709C1502.38 911.521 1501.98 912.536 1501.74 913.755C1501.55 914.779 1501.51 915.66 1501.63 916.399C1501.74 917.139 1501.99 917.73 1502.37 918.174C1502.75 918.617 1503.23 918.901 1503.8 919.024C1504.34 919.117 1504.85 919.03 1505.32 918.763C1505.8 918.51 1506.27 918.03 1506.74 917.322C1507.23 916.616 1507.74 915.635 1508.28 914.38L1509.72 911.008C1511.01 908.011 1512.62 905.764 1514.56 904.266C1516.51 902.782 1518.86 902.314 1521.62 902.861C1523.86 903.285 1525.7 904.263 1527.15 905.797C1528.6 907.344 1529.59 909.285 1530.12 911.619C1530.64 913.964 1530.63 916.534 1530.09 919.329C1529.54 922.181 1528.58 924.556 1527.22 926.452C1525.86 928.349 1524.21 929.692 1522.25 930.482C1520.31 931.286 1518.18 931.469 1515.86 931.032L1517.64 921.854Z" fill="#5988FF"/>
<path d="M1499.71 993.108C1500.86 993.352 1501.86 993.19 1502.71 992.624C1503.56 992.069 1504.21 991.034 1504.66 989.517C1504.95 988.551 1505.06 987.725 1505.01 987.037C1504.97 986.364 1504.79 985.823 1504.48 985.414C1504.18 985.005 1503.77 984.721 1503.27 984.559C1502.86 984.414 1502.46 984.375 1502.08 984.444C1501.7 984.527 1501.32 984.719 1500.93 985.021C1500.56 985.326 1500.18 985.745 1499.79 986.277C1499.4 986.809 1499 987.46 1498.59 988.23L1497.14 990.881C1496.17 992.67 1495.16 994.147 1494.09 995.309C1493.02 996.472 1491.91 997.352 1490.76 997.95C1489.61 998.552 1488.43 998.89 1487.2 998.965C1485.96 999.051 1484.68 998.904 1483.37 998.526C1481.1 997.842 1479.35 996.705 1478.11 995.115C1476.87 993.525 1476.15 991.564 1475.95 989.232C1475.75 986.911 1476.08 984.29 1476.94 981.369C1477.83 978.37 1479.05 975.885 1480.6 973.913C1482.15 971.952 1484.03 970.627 1486.24 969.938C1488.45 969.263 1491.01 969.348 1493.89 970.193L1491.26 979.089C1490.18 978.832 1489.22 978.833 1488.36 979.092C1487.5 979.35 1486.76 979.851 1486.14 980.595C1485.51 981.35 1485.02 982.323 1484.67 983.513C1484.37 984.513 1484.25 985.387 1484.29 986.134C1484.34 986.881 1484.53 987.494 1484.87 987.972C1485.2 988.45 1485.65 988.778 1486.2 988.956C1486.74 989.101 1487.25 989.064 1487.74 988.843C1488.24 988.637 1488.76 988.205 1489.3 987.546C1489.85 986.89 1490.45 985.963 1491.11 984.766L1492.87 981.549C1494.44 978.69 1496.26 976.609 1498.34 975.305C1500.42 974.016 1502.8 973.777 1505.49 974.587C1507.69 975.226 1509.43 976.378 1510.72 978.044C1512.02 979.724 1512.82 981.751 1513.11 984.125C1513.41 986.51 1513.15 989.067 1512.34 991.796C1511.52 994.582 1510.33 996.853 1508.8 998.61C1507.26 1000.37 1505.49 1001.54 1503.46 1002.14C1501.45 1002.75 1499.31 1002.73 1497.05 1002.07L1499.71 993.108Z" fill="#5988FF"/>
<path d="M1496.83 1037.18L1493.54 1046.38L1471.83 1038.62C1469.25 1037.7 1467.24 1036.28 1465.79 1034.37C1464.35 1032.47 1463.52 1030.25 1463.27 1027.68C1463.04 1025.12 1463.45 1022.39 1464.48 1019.49C1465.53 1016.57 1466.95 1014.19 1468.75 1012.36C1470.56 1010.53 1472.62 1009.34 1474.94 1008.78C1477.26 1008.25 1479.71 1008.44 1482.29 1009.36L1504 1017.12L1500.71 1026.32L1479.79 1018.85C1478.75 1018.47 1477.73 1018.37 1476.73 1018.53C1475.75 1018.71 1474.88 1019.12 1474.13 1019.77C1473.37 1020.43 1472.8 1021.28 1472.43 1022.33C1472.05 1023.39 1471.94 1024.41 1472.12 1025.39C1472.29 1026.38 1472.7 1027.25 1473.35 1028C1474.01 1028.76 1474.87 1029.33 1475.91 1029.7L1496.83 1037.18Z" fill="#5988FF"/>
<path d="M1455.77 1044.16L1488.94 1058.12L1482.92 1072.44C1481.88 1074.91 1480.49 1076.85 1478.74 1078.29C1476.99 1079.73 1475.02 1080.59 1472.83 1080.88C1470.64 1081.16 1468.37 1080.81 1466.01 1079.82C1463.64 1078.82 1461.8 1077.42 1460.51 1075.63C1459.21 1073.86 1458.49 1071.82 1458.35 1069.52C1458.21 1067.24 1458.67 1064.83 1459.73 1062.3L1463.33 1053.75L1470.33 1056.7L1467.49 1063.43C1467.05 1064.49 1466.85 1065.47 1466.9 1066.37C1466.96 1067.29 1467.26 1068.09 1467.78 1068.78C1468.3 1069.48 1469.03 1070.03 1469.96 1070.42C1470.92 1070.82 1471.81 1070.96 1472.65 1070.83C1473.5 1070.72 1474.26 1070.36 1474.94 1069.75C1475.62 1069.16 1476.18 1068.34 1476.63 1067.28L1477.96 1064.1L1451.98 1053.17L1455.77 1044.16Z" fill="#5988FF"/>
<path d="M1440.3 1080.22L1472.68 1095.93L1465.9 1109.91C1464.73 1112.31 1463.24 1114.18 1461.42 1115.52C1459.59 1116.87 1457.58 1117.62 1455.38 1117.79C1453.17 1117.96 1450.92 1117.49 1448.63 1116.37C1446.31 1115.25 1444.55 1113.75 1443.35 1111.9C1442.15 1110.05 1441.54 1107.98 1441.53 1105.68C1441.5 1103.39 1442.09 1101.01 1443.29 1098.55L1447.34 1090.2L1454.17 1093.51L1450.98 1100.09C1450.47 1101.12 1450.23 1102.09 1450.23 1102.99C1450.24 1103.91 1450.49 1104.72 1450.98 1105.44C1451.46 1106.17 1452.16 1106.75 1453.07 1107.2C1454 1107.65 1454.89 1107.83 1455.74 1107.75C1456.59 1107.68 1457.37 1107.36 1458.07 1106.79C1458.79 1106.24 1459.39 1105.45 1459.89 1104.41L1461.4 1101.31L1436.04 1089.01L1440.3 1080.22Z" fill="#5988FF"/>
<path d="M1422.88 1115.4L1454.43 1132.71L1449.73 1141.27L1425.08 1127.75L1418.09 1140.51L1411.19 1136.73L1422.88 1115.4Z" fill="#5988FF"/>
<path d="M1406.18 1145.39L1436.86 1164.2L1423.31 1186.31L1416.6 1182.2L1425.05 1168.41L1419.77 1165.18L1412.02 1177.82L1405.31 1173.71L1413.06 1161.06L1407.79 1157.83L1399.38 1171.56L1392.66 1167.44L1406.18 1145.39Z" fill="#5988FF"/>
<path d="M1407.05 1211.15L1399.87 1220.96L1378.48 1215.66L1378.23 1216L1389.73 1234.8L1382.54 1244.61L1353.51 1223.33L1359.16 1215.62L1375.95 1227.92L1376.11 1227.7L1364.29 1209.1L1367.7 1204.45L1389.1 1210.2L1389.27 1209.97L1372.38 1197.59L1378.03 1189.88L1407.05 1211.15Z" fill="#5988FF"/>
<path d="M1340.45 1239.31L1347.24 1231.24L1367.14 1263.5L1358.55 1273.72L1323.36 1259.65L1330.14 1251.58L1355.17 1262.34L1355.35 1262.12L1340.45 1239.31ZM1352.59 1246.95L1339.83 1262.12L1334.24 1257.42L1346.99 1242.24L1352.59 1246.95Z" fill="#5988FF"/>
<path d="M1316.96 1266.65L1343.14 1291.36L1332.47 1302.66C1330.64 1304.6 1328.65 1305.94 1326.51 1306.67C1324.37 1307.4 1322.22 1307.52 1320.07 1307.02C1317.92 1306.52 1315.91 1305.39 1314.06 1303.64C1312.18 1301.87 1310.95 1299.92 1310.37 1297.79C1309.78 1295.67 1309.82 1293.51 1310.49 1291.31C1311.16 1289.12 1312.43 1287.03 1314.31 1285.03L1320.68 1278.28L1326.2 1283.49L1321.18 1288.81C1320.4 1289.65 1319.87 1290.49 1319.61 1291.36C1319.34 1292.23 1319.33 1293.09 1319.58 1293.92C1319.82 1294.76 1320.31 1295.52 1321.05 1296.22C1321.8 1296.93 1322.59 1297.37 1323.43 1297.55C1324.26 1297.74 1325.1 1297.67 1325.94 1297.34C1326.79 1297.02 1327.6 1296.45 1328.39 1295.61L1330.76 1293.11L1310.26 1273.76L1316.96 1266.65Z" fill="#5988FF"/>
<path d="M1292.85 1326.3C1293.72 1327.08 1294.67 1327.44 1295.69 1327.37C1296.7 1327.31 1297.78 1326.74 1298.93 1325.65C1299.66 1324.95 1300.17 1324.3 1300.47 1323.67C1300.77 1323.07 1300.88 1322.51 1300.82 1322C1300.76 1321.5 1300.55 1321.05 1300.19 1320.66C1299.91 1320.33 1299.59 1320.1 1299.22 1319.96C1298.85 1319.85 1298.42 1319.82 1297.94 1319.89C1297.46 1319.97 1296.93 1320.15 1296.32 1320.41C1295.72 1320.68 1295.05 1321.05 1294.31 1321.51L1291.73 1323.09C1290 1324.15 1288.38 1324.93 1286.88 1325.4C1285.38 1325.88 1283.97 1326.09 1282.68 1326.03C1281.38 1325.99 1280.19 1325.69 1279.08 1325.14C1277.97 1324.6 1276.93 1323.84 1275.98 1322.85C1274.36 1321.13 1273.4 1319.27 1273.12 1317.27C1272.84 1315.28 1273.19 1313.22 1274.18 1311.1C1275.16 1308.98 1276.75 1306.88 1278.96 1304.77C1281.22 1302.62 1283.52 1301.07 1285.84 1300.13C1288.16 1299.2 1290.45 1298.99 1292.71 1299.49C1294.96 1300.01 1297.14 1301.36 1299.22 1303.53L1292.5 1309.93C1291.7 1309.17 1290.86 1308.69 1289.99 1308.49C1289.12 1308.28 1288.22 1308.35 1287.31 1308.68C1286.39 1309.03 1285.48 1309.62 1284.58 1310.48C1283.83 1311.2 1283.29 1311.9 1282.95 1312.57C1282.62 1313.24 1282.48 1313.86 1282.54 1314.45C1282.59 1315.03 1282.81 1315.53 1283.21 1315.97C1283.6 1316.36 1284.06 1316.58 1284.6 1316.63C1285.13 1316.71 1285.8 1316.59 1286.59 1316.29C1287.39 1315.99 1288.38 1315.49 1289.55 1314.78L1292.68 1312.87C1295.46 1311.17 1298.08 1310.27 1300.52 1310.17C1302.97 1310.09 1305.16 1311.08 1307.09 1313.12C1308.67 1314.77 1309.61 1316.63 1309.9 1318.72C1310.19 1320.82 1309.87 1322.98 1308.95 1325.19C1308.01 1327.4 1306.52 1329.49 1304.45 1331.45C1302.35 1333.46 1300.2 1334.84 1297.99 1335.6C1295.78 1336.35 1293.66 1336.49 1291.6 1336C1289.55 1335.53 1287.71 1334.44 1286.08 1332.74L1292.85 1326.3Z" fill="#5988FF"/>
<path d="M1236.95 1373.97C1237.74 1374.84 1238.65 1375.28 1239.67 1375.32C1240.69 1375.36 1241.82 1374.89 1243.06 1373.91C1243.85 1373.29 1244.43 1372.69 1244.78 1372.1C1245.14 1371.52 1245.31 1370.98 1245.29 1370.47C1245.28 1369.96 1245.12 1369.49 1244.8 1369.07C1244.55 1368.71 1244.25 1368.45 1243.9 1368.28C1243.54 1368.13 1243.12 1368.07 1242.63 1368.09C1242.15 1368.12 1241.6 1368.24 1240.97 1368.45C1240.34 1368.66 1239.64 1368.96 1238.86 1369.35L1236.15 1370.67C1234.32 1371.56 1232.63 1372.18 1231.09 1372.51C1229.55 1372.84 1228.13 1372.91 1226.85 1372.73C1225.56 1372.56 1224.4 1372.14 1223.35 1371.49C1222.3 1370.84 1221.34 1369.99 1220.49 1368.91C1219.04 1367.04 1218.27 1365.1 1218.18 1363.09C1218.09 1361.07 1218.64 1359.06 1219.83 1357.04C1221.01 1355.03 1222.8 1353.09 1225.19 1351.21C1227.66 1349.28 1230.09 1347.96 1232.5 1347.25C1234.89 1346.55 1237.19 1346.56 1239.39 1347.28C1241.59 1348.01 1243.62 1349.56 1245.48 1351.93L1238.18 1357.65C1237.45 1356.82 1236.67 1356.26 1235.82 1355.97C1234.97 1355.68 1234.07 1355.66 1233.13 1355.91C1232.19 1356.16 1231.22 1356.67 1230.25 1357.43C1229.42 1358.08 1228.82 1358.71 1228.42 1359.35C1228.03 1359.99 1227.83 1360.6 1227.82 1361.18C1227.82 1361.76 1227.99 1362.29 1228.35 1362.76C1228.69 1363.19 1229.13 1363.45 1229.66 1363.56C1230.19 1363.68 1230.86 1363.63 1231.68 1363.4C1232.51 1363.19 1233.54 1362.78 1234.77 1362.19L1238.07 1360.59C1241.01 1359.17 1243.7 1358.53 1246.14 1358.67C1248.58 1358.82 1250.67 1360.01 1252.39 1362.23C1253.81 1364.02 1254.56 1365.97 1254.65 1368.08C1254.73 1370.2 1254.21 1372.31 1253.07 1374.42C1251.93 1376.53 1250.24 1378.47 1248 1380.22C1245.71 1382.01 1243.43 1383.18 1241.17 1383.72C1238.9 1384.26 1236.77 1384.19 1234.77 1383.51C1232.77 1382.84 1231.05 1381.58 1229.59 1379.73L1236.95 1373.97Z" fill="#5988FF"/>
<path d="M1209.06 1408.22L1201.05 1413.81L1187.86 1394.9C1186.29 1392.65 1185.47 1390.33 1185.4 1387.94C1185.32 1385.56 1185.93 1383.26 1187.22 1381.03C1188.51 1378.81 1190.42 1376.82 1192.95 1375.06C1195.5 1373.28 1198.03 1372.17 1200.56 1371.72C1203.1 1371.28 1205.47 1371.5 1207.67 1372.39C1209.88 1373.29 1211.76 1374.87 1213.33 1377.12L1226.53 1396.03L1218.51 1401.62L1205.8 1383.4C1205.17 1382.49 1204.39 1381.81 1203.49 1381.38C1202.59 1380.95 1201.64 1380.78 1200.65 1380.87C1199.65 1380.97 1198.69 1381.34 1197.78 1381.98C1196.86 1382.62 1196.18 1383.39 1195.75 1384.29C1195.32 1385.19 1195.15 1386.14 1195.25 1387.13C1195.35 1388.13 1195.71 1389.09 1196.35 1390L1209.06 1408.22Z" fill="#5988FF"/>
<path d="M1171.56 1390.11L1190.5 1420.72L1177.29 1428.89C1175.02 1430.3 1172.76 1431.08 1170.5 1431.24C1168.24 1431.4 1166.14 1430.96 1164.19 1429.92C1162.23 1428.88 1160.59 1427.28 1159.24 1425.11C1157.88 1422.92 1157.2 1420.72 1157.18 1418.51C1157.15 1416.31 1157.75 1414.23 1158.97 1412.28C1160.17 1410.33 1161.94 1408.64 1164.27 1407.19L1172.16 1402.31L1176.16 1408.76L1169.94 1412.61C1168.96 1413.22 1168.24 1413.9 1167.76 1414.66C1167.28 1415.44 1167.05 1416.27 1167.08 1417.13C1167.09 1418.01 1167.37 1418.87 1167.91 1419.74C1168.45 1420.62 1169.1 1421.25 1169.86 1421.63C1170.62 1422.03 1171.45 1422.18 1172.35 1422.08C1173.25 1421.99 1174.18 1421.64 1175.16 1421.04L1178.09 1419.23L1163.25 1395.26L1171.56 1390.11Z" fill="#5988FF"/>
<path d="M1138.05 1410.53L1155.34 1442.1L1141.72 1449.56C1139.37 1450.85 1137.07 1451.51 1134.81 1451.54C1132.54 1451.58 1130.47 1451.03 1128.57 1449.89C1126.68 1448.75 1125.12 1447.06 1123.89 1444.82C1122.65 1442.56 1122.09 1440.32 1122.19 1438.12C1122.28 1435.92 1122.98 1433.88 1124.3 1431.99C1125.61 1430.11 1127.47 1428.51 1129.87 1427.2L1138.01 1422.74L1141.65 1429.4L1135.24 1432.91C1134.24 1433.46 1133.47 1434.11 1132.96 1434.84C1132.43 1435.6 1132.16 1436.41 1132.14 1437.27C1132.11 1438.15 1132.34 1439.03 1132.83 1439.92C1133.33 1440.83 1133.94 1441.49 1134.68 1441.91C1135.42 1442.35 1136.24 1442.54 1137.14 1442.49C1138.04 1442.45 1139 1442.16 1140 1441.6L1143.02 1439.95L1129.48 1415.23L1138.05 1410.53Z" fill="#5988FF"/>
<path d="M1103.47 1429.1L1119.16 1461.5L1110.37 1465.76L1098.11 1440.45L1085.02 1446.79L1081.59 1439.71L1103.47 1429.1Z" fill="#5988FF"/>
<path d="M1072.49 1443.86L1086.6 1476.98L1062.74 1487.14L1059.65 1479.9L1074.52 1473.56L1072.1 1467.87L1058.45 1473.69L1055.37 1466.44L1069.01 1460.63L1066.59 1454.94L1051.78 1461.25L1048.69 1454L1072.49 1443.86Z" fill="#5988FF"/>
<path d="M1035.09 1497.97L1023.55 1501.8L1009.2 1485.08L1008.79 1485.21L1007.27 1507.2L995.732 1511.03L984.402 1476.87L993.475 1473.86L1000.03 1493.6L1000.29 1493.52L1001.44 1471.51L1006.91 1469.7L1021.02 1486.79L1021.28 1486.7L1014.69 1466.82L1023.76 1463.81L1035.09 1497.97Z" fill="#5988FF"/>
<path d="M964.498 1482.32L974.704 1479.67L972.236 1517.49L959.309 1520.84L938.78 1488.98L948.986 1486.34L963.149 1509.61L963.422 1509.54L964.498 1482.32ZM969.966 1495.57L950.78 1500.54L948.945 1493.47L968.132 1488.49L969.966 1495.57Z" fill="#5988FF"/>
<path d="M929.515 1490.98L936.529 1526.29L921.293 1529.31C918.674 1529.83 916.279 1529.77 914.109 1529.13C911.938 1528.49 910.121 1527.34 908.658 1525.68C907.194 1524.02 906.213 1521.94 905.716 1519.44C905.213 1516.91 905.341 1514.61 906.1 1512.53C906.847 1510.46 908.132 1508.73 909.955 1507.32C911.768 1505.93 914.018 1504.96 916.706 1504.42L925.806 1502.62L927.286 1510.06L920.116 1511.49C918.99 1511.71 918.07 1512.1 917.355 1512.65C916.63 1513.21 916.128 1513.9 915.849 1514.72C915.559 1515.54 915.513 1516.45 915.712 1517.45C915.913 1518.46 916.302 1519.28 916.88 1519.91C917.449 1520.55 918.174 1520.98 919.053 1521.19C919.924 1521.43 920.922 1521.43 922.048 1521.21L925.426 1520.54L919.932 1492.89L929.515 1490.98Z" fill="#5988FF"/>
<path d="M875.303 1525.61C875.562 1526.76 876.127 1527.6 876.998 1528.14C877.856 1528.68 879.068 1528.84 880.634 1528.61C881.631 1528.47 882.431 1528.23 883.033 1527.89C883.626 1527.57 884.044 1527.18 884.287 1526.74C884.53 1526.29 884.62 1525.8 884.557 1525.28C884.518 1524.84 884.387 1524.47 884.163 1524.14C883.929 1523.83 883.595 1523.57 883.161 1523.35C882.728 1523.14 882.189 1522.97 881.543 1522.83C880.896 1522.7 880.138 1522.61 879.266 1522.56L876.254 1522.35C874.223 1522.22 872.457 1521.91 870.955 1521.43C869.454 1520.94 868.19 1520.3 867.164 1519.5C866.139 1518.72 865.336 1517.78 864.753 1516.69C864.159 1515.6 863.759 1514.38 863.552 1513.03C863.227 1510.68 863.527 1508.62 864.453 1506.83C865.379 1505.04 866.86 1503.56 868.895 1502.41C870.918 1501.25 873.437 1500.46 876.452 1500.02C879.547 1499.58 882.315 1499.65 884.754 1500.23C887.182 1500.82 889.17 1501.97 890.719 1503.69C892.258 1505.42 893.248 1507.77 893.688 1510.75L884.504 1512.07C884.29 1510.99 883.885 1510.12 883.292 1509.44C882.698 1508.77 881.933 1508.31 880.997 1508.05C880.049 1507.8 878.961 1507.76 877.731 1507.94C876.699 1508.08 875.854 1508.34 875.195 1508.69C874.536 1509.05 874.059 1509.48 873.765 1509.98C873.47 1510.48 873.359 1511.03 873.431 1511.61C873.521 1512.15 873.769 1512.6 874.175 1512.96C874.571 1513.33 875.181 1513.62 876.005 1513.83C876.83 1514.05 877.925 1514.22 879.288 1514.32L882.946 1514.57C886.199 1514.8 888.85 1515.59 890.9 1516.92C892.941 1518.28 894.156 1520.34 894.544 1523.13C894.881 1525.39 894.563 1527.45 893.589 1529.32C892.605 1531.2 891.097 1532.78 889.065 1534.04C887.022 1535.3 884.592 1536.14 881.774 1536.54C878.899 1536.96 876.342 1536.83 874.105 1536.17C871.868 1535.51 870.055 1534.39 868.667 1532.8C867.269 1531.23 866.397 1529.27 866.05 1526.94L875.303 1525.61Z" fill="#5988FF"/>
<path d="M802.12 1532.07C802.267 1533.23 802.748 1534.12 803.563 1534.74C804.365 1535.36 805.557 1535.64 807.136 1535.56C808.143 1535.52 808.962 1535.36 809.594 1535.08C810.215 1534.82 810.669 1534.47 810.954 1534.05C811.239 1533.63 811.375 1533.15 811.363 1532.62C811.366 1532.19 811.272 1531.8 811.08 1531.46C810.877 1531.13 810.57 1530.83 810.16 1530.57C809.749 1530.32 809.229 1530.09 808.598 1529.9C807.968 1529.71 807.222 1529.54 806.359 1529.41L803.381 1528.91C801.372 1528.58 799.644 1528.1 798.196 1527.48C796.748 1526.85 795.552 1526.09 794.608 1525.2C793.664 1524.32 792.955 1523.31 792.48 1522.17C791.993 1521.03 791.713 1519.77 791.638 1518.41C791.54 1516.04 792.038 1514.01 793.133 1512.32C794.227 1510.63 795.843 1509.3 797.98 1508.35C800.105 1507.39 802.689 1506.85 805.732 1506.71C808.856 1506.56 811.604 1506.9 813.975 1507.71C816.335 1508.53 818.203 1509.87 819.579 1511.73C820.944 1513.6 821.701 1516.04 821.852 1519.05L812.584 1519.48C812.475 1518.38 812.157 1517.47 811.631 1516.74C811.105 1516.02 810.388 1515.48 809.481 1515.13C808.562 1514.79 807.483 1514.65 806.242 1514.7C805.201 1514.75 804.335 1514.92 803.645 1515.21C802.955 1515.5 802.439 1515.88 802.097 1516.36C801.755 1516.83 801.592 1517.36 801.608 1517.94C801.645 1518.49 801.848 1518.97 802.218 1519.36C802.577 1519.76 803.156 1520.11 803.955 1520.4C804.755 1520.71 805.829 1520.97 807.176 1521.21L810.793 1521.81C814.007 1522.36 816.571 1523.39 818.483 1524.92C820.383 1526.46 821.393 1528.64 821.511 1531.45C821.628 1533.73 821.112 1535.75 819.962 1537.52C818.801 1539.3 817.149 1540.72 815.005 1541.78C812.85 1542.84 810.35 1543.44 807.507 1543.57C804.604 1543.7 802.072 1543.33 799.909 1542.46C797.746 1541.59 796.05 1540.29 794.822 1538.58C793.582 1536.88 792.902 1534.85 792.782 1532.5L802.12 1532.07Z" fill="#5988FF"/>
<path d="M759.553 1543.81L749.784 1543.73L749.986 1520.67C750.01 1517.93 750.687 1515.56 752.016 1513.57C753.334 1511.59 755.163 1510.07 757.504 1509C759.844 1507.94 762.555 1507.42 765.635 1507.45C768.74 1507.48 771.453 1508.04 773.774 1509.14C776.096 1510.25 777.898 1511.81 779.181 1513.81C780.452 1515.82 781.075 1518.2 781.051 1520.94L780.849 1544L771.079 1543.91L771.274 1521.7C771.284 1520.59 771.047 1519.59 770.563 1518.71C770.078 1517.84 769.405 1517.15 768.542 1516.65C767.668 1516.15 766.674 1515.9 765.562 1515.89C764.437 1515.88 763.439 1516.11 762.568 1516.6C761.697 1517.08 761.012 1517.76 760.512 1518.62C760.012 1519.49 759.758 1520.49 759.748 1521.6L759.553 1543.81Z" fill="#5988FF"/>
<path d="M739.475 1507.32L737.183 1543.24L721.681 1542.25C719.016 1542.08 716.717 1541.41 714.785 1540.23C712.853 1539.05 711.393 1537.47 710.404 1535.49C709.415 1533.51 709.002 1531.25 709.164 1528.7C709.329 1526.13 710.044 1523.94 711.309 1522.13C712.564 1520.32 714.252 1518.97 716.374 1518.09C718.485 1517.2 720.908 1516.84 723.644 1517.02L732.903 1517.61L732.419 1525.19L725.124 1524.72C723.979 1524.65 722.99 1524.78 722.158 1525.13C721.313 1525.49 720.651 1526.03 720.171 1526.75C719.679 1527.47 719.4 1528.33 719.335 1529.35C719.269 1530.38 719.436 1531.27 719.834 1532.03C720.219 1532.79 720.809 1533.39 721.602 1533.83C722.384 1534.28 723.347 1534.54 724.493 1534.61L727.93 1534.83L729.726 1506.7L739.475 1507.32Z" fill="#5988FF"/>
<path d="M700.342 1504.54L696.139 1540.29L680.712 1538.47C678.06 1538.16 675.8 1537.37 673.934 1536.08C672.068 1534.8 670.693 1533.15 669.811 1531.12C668.929 1529.1 668.637 1526.81 668.935 1524.28C669.236 1521.72 670.067 1519.57 671.427 1517.83C672.776 1516.09 674.534 1514.83 676.7 1514.06C678.855 1513.29 681.294 1513.06 684.017 1513.38L693.231 1514.47L692.344 1522.01L685.085 1521.15C683.944 1521.02 682.95 1521.1 682.1 1521.4C681.238 1521.71 680.548 1522.22 680.03 1522.91C679.5 1523.6 679.176 1524.46 679.057 1525.47C678.936 1526.49 679.055 1527.39 679.412 1528.16C679.756 1528.95 680.313 1529.58 681.082 1530.06C681.839 1530.55 682.787 1530.86 683.927 1531L687.347 1531.4L690.639 1503.4L700.342 1504.54Z" fill="#5988FF"/>
<path d="M661.398 1499.64L655.414 1535.13L645.78 1533.5L650.455 1505.78L636.108 1503.36L637.417 1495.59L661.398 1499.64Z" fill="#5988FF"/>
<path d="M627.597 1493.71L619.906 1528.87L594.57 1523.33L596.252 1515.64L612.044 1519.09L613.366 1513.05L598.878 1509.88L600.561 1502.19L615.048 1505.36L616.37 1499.31L600.647 1495.87L602.329 1488.18L627.597 1493.71Z" fill="#5988FF"/>
<path d="M565.769 1516.13L554.145 1512.56L552.131 1490.61L551.727 1490.49L537.75 1507.52L526.126 1503.95L536.687 1469.55L545.825 1472.35L539.719 1492.24L539.988 1492.33L553.671 1475.06L559.18 1476.75L560.776 1498.86L561.045 1498.94L567.191 1478.91L576.33 1481.72L565.769 1516.13Z" fill="#5988FF"/>
<path d="M517.306 1462.45L527.156 1466.21L503.23 1495.61L490.753 1490.84L492.483 1452.98L502.333 1456.74L500.393 1483.91L500.656 1484.01L517.306 1462.45ZM514.084 1476.42L495.565 1469.36L498.171 1462.53L516.689 1469.59L514.084 1476.42Z" fill="#5988FF"/>
<path d="M483.774 1449.24L469.035 1482.08L454.865 1475.71C452.428 1474.62 450.512 1473.18 449.116 1471.4C447.721 1469.62 446.906 1467.63 446.673 1465.43C446.44 1463.23 446.846 1460.97 447.892 1458.64C448.947 1456.29 450.385 1454.48 452.205 1453.23C454.014 1451.98 456.067 1451.31 458.366 1451.22C460.653 1451.13 463.047 1451.65 465.548 1452.77L474.012 1456.57L470.903 1463.5L464.235 1460.5C463.187 1460.03 462.213 1459.82 461.313 1459.85C460.397 1459.89 459.588 1460.16 458.885 1460.66C458.172 1461.17 457.607 1461.88 457.189 1462.81C456.767 1463.75 456.61 1464.65 456.719 1465.49C456.812 1466.34 457.154 1467.11 457.743 1467.8C458.318 1468.49 459.129 1469.08 460.176 1469.55L463.318 1470.96L474.861 1445.24L483.774 1449.24Z" fill="#5988FF"/>
<path d="M419.528 1446.04C419.076 1447.13 419.048 1448.14 419.446 1449.08C419.833 1450.02 420.73 1450.85 422.136 1451.57C423.032 1452.04 423.822 1452.3 424.508 1452.38C425.177 1452.46 425.741 1452.39 426.2 1452.16C426.658 1451.94 427.013 1451.59 427.265 1451.13C427.484 1450.76 427.596 1450.37 427.601 1449.98C427.589 1449.59 427.471 1449.18 427.246 1448.75C427.015 1448.33 426.674 1447.88 426.224 1447.39C425.774 1446.91 425.209 1446.4 424.529 1445.85L422.193 1443.94C420.616 1442.65 419.355 1441.37 418.411 1440.11C417.467 1438.85 416.808 1437.59 416.435 1436.35C416.056 1435.11 415.945 1433.88 416.1 1432.66C416.246 1431.43 416.627 1430.2 417.243 1428.98C418.337 1426.88 419.779 1425.37 421.571 1424.44C423.363 1423.52 425.424 1423.18 427.752 1423.42C430.071 1423.65 432.584 1424.46 435.292 1425.85C438.073 1427.28 440.288 1428.94 441.938 1430.83C443.577 1432.72 444.529 1434.81 444.796 1437.11C445.047 1439.41 444.489 1441.91 443.122 1444.59L434.872 1440.34C435.324 1439.34 435.503 1438.39 435.408 1437.49C435.314 1436.6 434.959 1435.78 434.344 1435.03C433.719 1434.27 432.855 1433.61 431.751 1433.04C430.824 1432.57 429.989 1432.28 429.246 1432.19C428.503 1432.1 427.865 1432.17 427.333 1432.41C426.801 1432.65 426.396 1433.03 426.118 1433.54C425.876 1434.04 425.818 1434.55 425.943 1435.07C426.052 1435.6 426.38 1436.2 426.928 1436.85C427.471 1437.51 428.269 1438.27 429.322 1439.15L432.155 1441.47C434.672 1443.55 436.379 1445.72 437.274 1448C438.154 1450.29 437.945 1452.68 436.649 1455.17C435.614 1457.21 434.158 1458.7 432.282 1459.66C430.39 1460.63 428.25 1461.03 425.863 1460.88C423.465 1460.73 421 1460 418.469 1458.7C415.886 1457.37 413.874 1455.79 412.434 1453.95C410.994 1452.12 410.168 1450.15 409.956 1448.05C409.729 1445.96 410.149 1443.86 411.216 1441.76L419.528 1446.04Z" fill="#5988FF"/>
<path d="M356.149 1408.89C355.593 1409.92 355.468 1410.93 355.773 1411.9C356.068 1412.87 356.881 1413.79 358.21 1414.64C359.058 1415.19 359.819 1415.53 360.493 1415.67C361.152 1415.82 361.721 1415.8 362.199 1415.62C362.677 1415.44 363.063 1415.13 363.358 1414.7C363.613 1414.35 363.761 1413.97 363.803 1413.58C363.83 1413.2 363.751 1412.78 363.569 1412.32C363.38 1411.88 363.084 1411.4 362.683 1410.88C362.281 1410.35 361.768 1409.79 361.144 1409.18L359.004 1407.05C357.558 1405.61 356.426 1404.22 355.608 1402.87C354.791 1401.53 354.256 1400.21 354.005 1398.94C353.747 1397.67 353.755 1396.43 354.028 1395.23C354.291 1394.02 354.789 1392.84 355.521 1391.68C356.812 1389.69 358.393 1388.33 360.266 1387.58C362.138 1386.84 364.222 1386.7 366.517 1387.16C368.802 1387.61 371.226 1388.66 373.787 1390.31C376.417 1392 378.461 1393.87 379.921 1395.91C381.37 1397.95 382.117 1400.12 382.16 1402.43C382.188 1404.75 381.392 1407.18 379.772 1409.71L371.971 1404.69C372.518 1403.73 372.787 1402.81 372.779 1401.91C372.771 1401.01 372.497 1400.16 371.958 1399.35C371.409 1398.54 370.612 1397.8 369.568 1397.13C368.691 1396.56 367.888 1396.2 367.157 1396.03C366.427 1395.87 365.785 1395.88 365.233 1396.07C364.68 1396.26 364.24 1396.59 363.913 1397.08C363.625 1397.55 363.518 1398.05 363.591 1398.59C363.649 1399.13 363.919 1399.75 364.401 1400.45C364.877 1401.16 365.598 1402 366.562 1402.97L369.158 1405.56C371.463 1407.86 372.951 1410.19 373.623 1412.55C374.278 1414.91 373.84 1417.26 372.308 1419.62C371.082 1421.55 369.489 1422.9 367.529 1423.67C365.553 1424.45 363.384 1424.65 361.022 1424.27C358.65 1423.89 356.267 1422.92 353.874 1421.38C351.431 1419.81 349.581 1418.04 348.324 1416.07C347.068 1414.11 346.435 1412.07 346.428 1409.96C346.403 1407.86 347.024 1405.81 348.288 1403.83L356.149 1408.89Z" fill="#5988FF"/>
<path d="M314.651 1393.79L306.739 1388.06L320.263 1369.38C321.871 1367.16 323.794 1365.63 326.031 1364.77C328.253 1363.92 330.627 1363.74 333.154 1364.23C335.674 1364.72 338.182 1365.87 340.677 1367.68C343.191 1369.5 345.075 1371.53 346.331 1373.77C347.58 1376.02 348.147 1378.34 348.031 1380.71C347.9 1383.09 347.03 1385.39 345.422 1387.61L331.898 1406.28L323.986 1400.55L337.015 1382.56C337.668 1381.66 338.053 1380.71 338.17 1379.71C338.28 1378.72 338.128 1377.77 337.715 1376.86C337.292 1375.95 336.63 1375.16 335.729 1374.51C334.818 1373.85 333.867 1373.47 332.877 1373.36C331.886 1373.25 330.937 1373.4 330.03 1373.81C329.116 1374.23 328.333 1374.9 327.68 1375.8L314.651 1393.79Z" fill="#5988FF"/>
<path d="M319.432 1352.41L296.751 1380.36L284.692 1370.56C282.618 1368.88 281.136 1367 280.245 1364.92C279.354 1362.84 279.079 1360.7 279.418 1358.52C279.757 1356.33 280.732 1354.25 282.341 1352.27C283.966 1350.27 285.818 1348.9 287.898 1348.16C289.969 1347.41 292.126 1347.29 294.369 1347.8C296.602 1348.3 298.784 1349.41 300.912 1351.14L308.115 1356.99L303.331 1362.88L297.656 1358.27C296.764 1357.55 295.879 1357.09 295.001 1356.89C294.106 1356.69 293.254 1356.74 292.445 1357.05C291.626 1357.35 290.896 1357.9 290.254 1358.69C289.604 1359.49 289.223 1360.32 289.111 1361.16C288.983 1362.01 289.115 1362.84 289.508 1363.66C289.884 1364.47 290.518 1365.25 291.409 1365.97L294.083 1368.14L311.847 1346.25L319.432 1352.41Z" fill="#5988FF"/>
<path d="M289.15 1327.47L265.012 1354.16L253.491 1343.74C251.51 1341.95 250.13 1339.99 249.352 1337.87C248.573 1335.74 248.412 1333.59 248.867 1331.43C249.322 1329.27 250.406 1327.24 252.119 1325.35C253.848 1323.43 255.77 1322.16 257.887 1321.53C259.995 1320.9 262.155 1320.89 264.368 1321.52C266.572 1322.14 268.69 1323.37 270.723 1325.21L277.605 1331.43L272.513 1337.06L267.092 1332.16C266.24 1331.39 265.381 1330.88 264.514 1330.63C263.631 1330.39 262.777 1330.4 261.953 1330.66C261.12 1330.92 260.362 1331.43 259.678 1332.18C258.987 1332.95 258.563 1333.75 258.406 1334.59C258.232 1335.42 258.32 1336.26 258.669 1337.1C259.001 1337.94 259.593 1338.74 260.444 1339.51L262.999 1341.82L281.903 1320.91L289.15 1327.47Z" fill="#5988FF"/>
<path d="M260.255 1300.9L234.814 1326.35L227.904 1319.44L247.78 1299.56L237.489 1289.27L243.055 1283.7L260.255 1300.9Z" fill="#5988FF"/>
<path d="M236.143 1276.47L209.503 1300.67L192.066 1281.47L197.894 1276.18L208.762 1288.14L213.341 1283.99L203.37 1273.01L209.198 1267.71L219.168 1278.69L223.747 1274.53L212.926 1262.62L218.754 1257.32L236.143 1276.47Z" fill="#5988FF"/>
<path d="M172.767 1258.91L165.362 1249.26L176.435 1230.21L176.178 1229.88L154.917 1235.66L147.512 1226.01L176.054 1204.09L181.876 1211.68L165.375 1224.35L165.546 1224.57L186.704 1218.43L190.214 1223L178.704 1241.94L178.875 1242.16L195.488 1229.41L201.31 1236.99L172.767 1258.91Z" fill="#5988FF"/>
<path d="M164.369 1187.08L170.218 1195.85L133.689 1205.94L126.279 1194.83L149.627 1164.97L155.477 1173.74L138.151 1194.77L138.307 1195L164.369 1187.08ZM153.649 1196.59L142.651 1180.1L148.733 1176.05L159.73 1192.54L153.649 1196.59Z" fill="#5988FF"/>
<path d="M144.696 1156.88L113.66 1175.09L105.798 1161.69C104.446 1159.39 103.718 1157.11 103.613 1154.85C103.508 1152.58 103.998 1150.49 105.081 1148.56C106.165 1146.64 107.808 1145.03 110.01 1143.74C112.233 1142.43 114.448 1141.8 116.656 1141.83C118.858 1141.86 120.92 1142.5 122.842 1143.76C124.759 1145.02 126.411 1146.82 127.798 1149.19L132.494 1157.19L125.947 1161.03L122.248 1154.73C121.666 1153.74 121 1153 120.247 1152.5C119.478 1152 118.661 1151.75 117.795 1151.76C116.923 1151.75 116.048 1152.01 115.169 1152.53C114.28 1153.05 113.635 1153.68 113.234 1154.44C112.816 1155.18 112.649 1156.01 112.73 1156.91C112.796 1157.81 113.119 1158.76 113.7 1159.75L115.443 1162.72L139.751 1148.45L144.696 1156.88Z" fill="#5988FF"/>
<path d="M94.1928 1117.03C93.1954 1117.65 92.5857 1118.46 92.3636 1119.46C92.1362 1120.45 92.3858 1121.65 93.1124 1123.05C93.5753 1123.95 94.064 1124.62 94.5785 1125.08C95.0772 1125.54 95.5786 1125.81 96.0827 1125.89C96.5868 1125.97 97.0757 1125.9 97.5493 1125.66C97.945 1125.48 98.2586 1125.24 98.49 1124.92C98.7056 1124.6 98.8468 1124.19 98.9135 1123.71C98.9698 1123.23 98.9542 1122.67 98.8666 1122.01C98.779 1121.36 98.6168 1120.61 98.38 1119.77L97.5855 1116.86C97.0451 1114.9 96.7562 1113.13 96.7188 1111.55C96.6814 1109.97 96.8717 1108.57 97.2896 1107.34C97.6972 1106.11 98.3191 1105.04 99.1554 1104.14C99.9863 1103.22 101.008 1102.44 102.22 1101.8C104.327 1100.72 106.378 1100.33 108.373 1100.61C110.368 1100.9 112.245 1101.82 114.006 1103.36C115.761 1104.89 117.339 1107.01 118.738 1109.71C120.175 1112.49 121.018 1115.13 121.267 1117.63C121.511 1120.11 121.076 1122.37 119.961 1124.4C118.831 1126.42 116.932 1128.13 114.263 1129.52L110.001 1121.28C110.952 1120.72 111.647 1120.05 112.087 1119.27C112.527 1118.49 112.714 1117.61 112.648 1116.64C112.577 1115.67 112.256 1114.62 111.686 1113.52C111.207 1112.6 110.691 1111.88 110.14 1111.37C109.588 1110.87 109.025 1110.56 108.453 1110.45C107.88 1110.33 107.331 1110.41 106.805 1110.66C106.322 1110.93 105.979 1111.31 105.776 1111.81C105.557 1112.31 105.483 1112.98 105.552 1113.83C105.611 1114.68 105.817 1115.77 106.171 1117.09L107.131 1120.63C107.981 1123.78 108.111 1126.54 107.52 1128.91C106.913 1131.29 105.359 1133.11 102.856 1134.39C100.833 1135.45 98.7787 1135.83 96.6945 1135.52C94.5945 1135.21 92.6147 1134.3 90.755 1132.8C88.8899 1131.28 87.3035 1129.26 85.9956 1126.73C84.6608 1124.15 83.9381 1121.7 83.8275 1119.37C83.7169 1117.04 84.1834 1114.96 85.227 1113.12C86.2549 1111.29 87.8118 1109.82 89.8977 1108.73L94.1928 1117.03Z" fill="#5988FF"/>
<path d="M64.0703 1050.02C63.0176 1050.54 62.3326 1051.29 62.0152 1052.26C61.6935 1053.22 61.8265 1054.43 62.4142 1055.9C62.7886 1056.84 63.2097 1057.56 63.6775 1058.07C64.1301 1058.57 64.6033 1058.88 65.0971 1059.01C65.5909 1059.14 66.0847 1059.12 66.5785 1058.93C66.9896 1058.79 67.3256 1058.57 67.5866 1058.28C67.8323 1057.98 68.0117 1057.59 68.1247 1057.12C68.2268 1056.65 68.2658 1056.08 68.2417 1055.43C68.2176 1054.77 68.1282 1054.01 67.9736 1053.15L67.4638 1050.17C67.1153 1048.17 66.9985 1046.38 67.1134 1044.8C67.2283 1043.23 67.5531 1041.85 68.088 1040.66C68.6119 1039.48 69.3339 1038.48 70.2538 1037.66C71.1694 1036.83 72.2613 1036.15 73.5293 1035.63C75.7305 1034.76 77.8101 1034.56 79.768 1035.04C81.7258 1035.52 83.5066 1036.61 85.1102 1038.32C86.7095 1040.01 88.075 1042.27 89.2069 1045.1C90.3692 1048.01 90.954 1050.71 90.9611 1053.22C90.9639 1055.72 90.3129 1057.92 89.0082 1059.83C87.6883 1061.74 85.633 1063.25 82.8424 1064.38L79.3946 1055.77C80.3951 1055.3 81.152 1054.71 81.6651 1053.97C82.1783 1053.23 82.4489 1052.38 82.477 1051.41C82.5007 1050.43 82.2818 1049.36 81.8203 1048.21C81.4329 1047.24 80.9889 1046.48 80.4885 1045.92C79.988 1045.37 79.4583 1045 78.8992 1044.84C78.3401 1044.67 77.7865 1044.69 77.2383 1044.9C76.7315 1045.11 76.3531 1045.46 76.1031 1045.94C75.8378 1046.41 75.6988 1047.07 75.6859 1047.92C75.6622 1048.78 75.7625 1049.88 75.9869 1051.23L76.6013 1054.84C77.1437 1058.06 77.0062 1060.82 76.1889 1063.13C75.3563 1065.43 73.6328 1067.1 71.0184 1068.13C68.902 1068.99 66.8214 1069.17 64.7765 1068.66C62.7163 1068.15 60.8333 1067.05 59.1275 1065.38C57.4173 1063.69 56.0332 1061.52 54.9754 1058.88C53.8958 1056.18 53.4133 1053.67 53.528 1051.34C53.6428 1049.01 54.3079 1046.98 55.5235 1045.26C56.7238 1043.53 58.4148 1042.22 60.5964 1041.34L64.0703 1050.02Z" fill="#5988FF"/>
<path d="M39.0001 1013.66L35.8734 1004.4L57.7147 997.024C60.3117 996.146 62.769 996.009 65.0867 996.611C67.3895 997.205 69.4301 998.433 71.2083 1000.29C72.9754 1002.16 74.3519 1004.55 75.3379 1007.47C76.3314 1010.41 76.6907 1013.16 76.4157 1015.71C76.1296 1018.27 75.2513 1020.48 73.7808 1022.35C72.2954 1024.21 70.2542 1025.58 67.6572 1026.46L45.8159 1033.84L42.6891 1024.58L63.7314 1017.47C64.7857 1017.12 65.6504 1016.57 66.3253 1015.82C66.9891 1015.07 67.4153 1014.21 67.604 1013.23C67.789 1012.24 67.7034 1011.22 67.3472 1010.17C66.9873 1009.1 66.4356 1008.24 65.692 1007.57C64.9484 1006.91 64.0873 1006.48 63.1086 1006.29C62.1187 1006.11 61.0967 1006.19 60.0423 1006.55L39.0001 1013.66Z" fill="#5988FF"/>
<path d="M66.8696 982.711L32.1945 992.338L28.0394 977.369C27.325 974.795 27.2078 972.402 27.6878 970.189C28.1679 967.977 29.179 966.079 30.7212 964.496C32.2634 962.912 34.2648 961.779 36.7255 961.096C39.2087 960.406 41.5125 960.363 43.6369 960.964C45.7581 961.555 47.5855 962.707 49.119 964.421C50.6494 966.124 51.7812 968.297 52.5144 970.938L54.9962 979.879L47.6819 981.91L45.7266 974.866C45.4195 973.759 44.9659 972.87 44.366 972.198C43.7515 971.517 43.0252 971.068 42.1868 970.851C41.3454 970.623 40.4336 970.645 39.4516 970.917C38.4583 971.193 37.6713 971.643 37.0905 972.266C36.4954 972.881 36.1212 973.635 35.9681 974.529C35.8005 975.415 35.8703 976.411 36.1773 977.517L37.0986 980.836L64.2563 973.296L66.8696 982.711Z" fill="#5988FF"/>
<path d="M56.6454 944.83L21.5066 952.596L18.155 937.426C17.5788 934.818 17.5893 932.422 18.1865 930.238C18.7838 928.054 19.8946 926.213 21.5189 924.714C23.1433 923.215 25.2022 922.19 27.6958 921.639C30.2123 921.083 32.5151 921.162 34.6044 921.876C36.6912 922.579 38.4545 923.827 39.8945 925.621C41.332 927.403 42.3464 929.632 42.9379 932.309L44.9397 941.37L37.5276 943.008L35.9504 935.869C35.7027 934.748 35.2972 933.836 34.7339 933.132C34.1566 932.42 33.4552 931.933 32.6296 931.672C31.8015 931.399 30.8899 931.372 29.8948 931.592C28.8882 931.815 28.0783 932.222 27.4652 932.813C26.8381 933.396 26.4242 934.129 26.2237 935.013C26.0092 935.889 26.0258 936.887 26.2735 938.008L27.0166 941.371L54.5375 935.289L56.6454 944.83Z" fill="#5988FF"/>
<path d="M48.4928 906.428L13.0099 912.428L11.3811 902.794L39.1022 898.106L36.6767 883.759L44.4386 882.446L48.4928 906.428Z" fill="#5988FF"/>
<path d="M42.9927 872.551L7.26142 876.83L4.1779 851.075L11.9941 850.138L13.9161 866.192L20.0574 865.456L18.2942 850.729L26.1104 849.793L27.8736 864.52L34.0149 863.785L32.1013 847.801L39.9175 846.865L42.9927 872.551Z" fill="#5988FF"/>
<path d="M1.52161 821.503L1.07544 809.349L21.1378 800.242L21.1223 799.82L0.446166 792.209L0 780.056L35.9623 778.735L36.313 788.289L15.5223 789.052L15.5326 789.333L36.3364 796.589L36.5479 802.349L16.1917 811.116L16.202 811.397L37.1332 810.628L37.4839 820.182L1.52161 821.503Z" fill="#5988FF"/>
<path d="M36.2979 758.097L35.9823 768.637L0.367528 755.685L0.767345 742.334L37.0934 731.537L36.7777 742.077L10.4776 749.166L10.4691 749.447L36.2979 758.097ZM22.0476 759.64L22.641 739.825L29.9475 740.044L29.3541 759.858L22.0476 759.64Z" fill="#5988FF"/>
<path d="M37.7655 722.081L1.91644 718.939L3.27269 703.462C3.50589 700.801 4.23508 698.519 5.46024 696.615C6.68541 694.712 8.29765 693.289 10.297 692.347C12.2963 691.405 14.5679 691.045 17.1119 691.268C19.6792 691.493 21.8522 692.26 23.6307 693.568C25.4103 694.865 26.7178 696.585 27.553 698.728C28.3893 700.86 28.6877 703.291 28.4484 706.022L27.6383 715.266L20.0764 714.603L20.7146 707.32C20.8149 706.176 20.7019 705.184 20.3757 704.344C20.0389 703.492 19.5159 702.816 18.8069 702.319C18.0989 701.81 17.2373 701.511 16.2221 701.422C15.1951 701.332 14.3005 701.477 13.5381 701.857C12.7651 702.225 12.1502 702.8 11.6935 703.583C11.2262 704.354 10.9424 705.311 10.8421 706.455L10.5414 709.886L38.6185 712.347L37.7655 722.081Z" fill="#5988FF"/>
<path d="M19.6939 660.338C18.5209 660.266 17.5546 660.573 16.795 661.258C16.037 661.932 15.5471 663.052 15.3253 664.618C15.184 665.615 15.1899 666.451 15.3431 667.123C15.4863 667.782 15.7396 668.292 16.1028 668.651C16.466 669.01 16.9078 669.232 17.4281 669.318C17.8539 669.402 18.2532 669.381 18.6258 669.257C18.9884 669.119 19.3368 668.872 19.6711 668.517C19.9937 668.161 20.3088 667.691 20.6162 667.107C20.9237 666.523 21.2244 665.821 21.5183 664.998L22.5588 662.164C23.2556 660.251 24.0457 658.641 24.9288 657.335C25.812 656.028 26.7807 654.994 27.8352 654.232C28.878 653.469 30.0031 652.959 31.2105 652.705C32.4195 652.438 33.7034 652.395 35.0621 652.576C37.4033 652.919 39.3037 653.786 40.7632 655.176C42.2227 656.566 43.2229 658.4 43.764 660.678C44.3067 662.944 44.3644 665.585 43.9371 668.601C43.4984 671.698 42.6574 674.336 41.4141 676.515C40.1724 678.682 38.5102 680.269 36.4272 681.275C34.3344 682.268 31.7967 682.56 28.8142 682.149L30.1157 672.961C31.2142 673.058 32.1691 672.915 32.9804 672.533C33.7917 672.151 34.4512 671.546 34.9588 670.719C35.4681 669.88 35.8098 668.846 35.984 667.616C36.1303 666.584 36.1251 665.701 35.9685 664.969C35.812 664.237 35.533 663.659 35.1316 663.235C34.7302 662.812 34.2403 662.553 33.662 662.459C33.1153 662.394 32.6143 662.506 32.159 662.797C31.6938 663.074 31.2438 663.578 30.8089 664.309C30.3625 665.039 29.9006 666.044 29.4233 667.325L28.155 670.767C27.0237 673.825 25.5288 676.151 23.6702 677.746C21.8016 679.327 19.4764 679.915 16.6944 679.508C14.431 679.2 12.5389 678.316 11.0181 676.858C9.48725 675.387 8.39995 673.499 7.75616 671.195C7.11401 668.88 6.99258 666.313 7.39189 663.494C7.79941 660.617 8.63323 658.197 9.89333 656.234C11.1534 654.27 12.7397 652.844 14.6521 651.956C16.5546 651.054 18.6723 650.762 21.0052 651.081L19.6939 660.338Z" fill="#5988FF"/>
<path d="M33.9771 588.263C32.8165 588.079 31.8251 588.291 31.0029 588.9C30.1835 589.497 29.5879 590.564 29.216 592.102C28.9791 593.081 28.9044 593.913 28.992 594.597C29.071 595.267 29.2739 595.798 29.6008 596.191C29.9277 596.583 30.346 596.847 30.8556 596.982C31.2713 597.107 31.6707 597.125 32.0536 597.037C32.4278 596.935 32.7984 596.723 33.1653 596.402C33.5209 596.078 33.8798 595.641 34.2421 595.09C34.6045 594.538 34.9716 593.868 35.3434 593.078L36.6524 590.357C37.5306 588.52 38.4723 586.994 39.4773 585.779C40.4824 584.564 41.5464 583.628 42.6694 582.971C43.781 582.312 44.95 581.914 46.1764 581.777C47.4055 581.628 48.6875 581.709 50.0224 582.02C52.3196 582.588 54.1275 583.634 55.446 585.159C56.7646 586.683 57.5833 588.605 57.9021 590.924C58.2236 593.232 58.0263 595.866 57.3101 598.827C56.5746 601.868 55.483 604.412 54.0354 606.461C52.5905 608.498 50.7829 609.917 48.6126 610.717C46.4336 611.504 43.8797 611.549 40.9508 610.852L43.1325 601.833C44.2165 602.035 45.1807 601.985 46.0251 601.684C46.8695 601.382 47.5843 600.843 48.1694 600.069C48.7572 599.283 49.1971 598.286 49.4891 597.079C49.7343 596.066 49.8142 595.187 49.729 594.443C49.6438 593.699 49.4219 593.097 49.0632 592.637C48.7046 592.176 48.242 591.872 47.6754 591.722C47.1376 591.604 46.628 591.668 46.1469 591.913C45.6571 592.144 45.1605 592.603 44.6572 593.288C44.1424 593.971 43.5857 594.928 42.987 596.157L41.3926 599.46C39.9716 602.395 38.2592 604.566 36.2555 605.973C34.2431 607.367 31.872 607.727 29.1422 607.055C26.9192 606.529 25.1211 605.467 23.748 603.869C22.3663 602.257 21.4662 600.273 21.0476 597.918C20.6319 595.551 20.7587 592.984 21.4281 590.217C22.1112 587.393 23.1746 585.065 24.6182 583.232C26.0618 581.4 27.7783 580.134 29.7675 579.434C31.7481 578.719 33.884 578.634 36.1753 579.176L33.9771 588.263Z" fill="#5988FF"/>
<path d="M34.61 544.103L37.4257 534.747L59.5013 541.392C62.1262 542.182 64.2086 543.494 65.7486 545.328C67.2808 547.147 68.2326 549.33 68.6039 551.877C68.9641 554.42 68.7002 557.167 67.8122 560.118C66.9175 563.091 65.6183 565.538 63.9144 567.46C62.1993 569.378 60.201 570.673 57.9193 571.345C55.6297 572.001 53.1725 571.934 50.5477 571.144L28.4721 564.499L31.2878 555.143L52.5558 561.545C53.6214 561.865 54.6458 561.917 55.6289 561.699C56.6008 561.478 57.4472 561.023 58.1682 560.334C58.8925 559.635 59.415 558.752 59.7358 557.686C60.0599 556.609 60.1113 555.585 59.89 554.613C59.6687 553.641 59.2139 552.794 58.5257 552.073C57.8262 551.349 56.9436 550.826 55.8779 550.505L34.61 544.103Z" fill="#5988FF"/>
<path d="M75.2553 535.035L41.4178 522.783L46.7052 508.176C47.6144 505.664 48.9056 503.646 50.5787 502.121C52.2519 500.596 54.1757 499.635 56.3499 499.239C58.5241 498.842 60.8118 499.079 63.2131 499.948C65.6363 500.826 67.5393 502.125 68.9219 503.847C70.3085 505.557 71.13 507.556 71.3865 509.841C71.647 512.116 71.3107 514.543 70.3776 517.12L67.2195 525.845L60.0819 523.261L62.5701 516.387C62.9609 515.307 63.1066 514.32 63.0072 513.424C62.9008 512.513 62.5689 511.726 62.0115 511.064C61.4581 510.39 60.7022 509.879 59.7439 509.532C58.7746 509.181 57.8728 509.092 57.0383 509.263C56.1968 509.419 55.4548 509.817 54.8122 510.457C54.1625 511.081 53.6423 511.933 53.2515 513.013L52.0792 516.252L78.5808 525.847L75.2553 535.035Z" fill="#5988FF"/>
<path d="M88.8722 498.237L55.7356 484.199L61.7939 469.894C62.8356 467.434 64.2325 465.488 65.9845 464.054C67.7366 462.621 69.7088 461.764 71.901 461.484C74.0933 461.204 76.3652 461.562 78.7167 462.558C81.0897 463.563 82.9207 464.963 84.2096 466.755C85.5031 468.538 86.217 470.577 86.3513 472.873C86.4902 475.159 86.0251 477.564 84.956 480.088L81.3375 488.632L74.3477 485.671L77.1987 478.939C77.6464 477.882 77.8445 476.904 77.7931 476.004C77.7353 475.089 77.4458 474.285 76.9245 473.594C76.4078 472.891 75.6802 472.341 74.7418 471.944C73.7926 471.542 72.8967 471.404 72.0544 471.531C71.2057 471.642 70.4436 472 69.7678 472.604C69.0858 473.193 68.5209 474.016 68.0732 475.074L66.7299 478.245L92.6826 489.239L88.8722 498.237Z" fill="#5988FF"/>
<path d="M104.479 462.216L72.0854 446.54L76.3405 437.744L101.648 449.991L107.985 436.892L115.071 440.321L104.479 462.216Z" fill="#5988FF"/>
<path d="M119.627 431.419L88.0282 414.197L100.439 391.42L107.351 395.187L99.6155 409.384L105.047 412.344L112.143 399.32L119.055 403.088L111.959 416.112L117.39 419.072L125.092 404.937L132.004 408.704L119.627 431.419Z" fill="#5988FF"/>
<path d="M115.408 365.78L122.086 355.617L143.713 359.823L143.945 359.47L131.505 341.283L138.183 331.12L168.256 350.888L163.006 358.877L145.62 347.449L145.466 347.684L158.216 365.654L155.051 370.472L133.382 365.818L133.227 366.053L150.731 377.558L145.481 385.547L115.408 365.78Z" fill="#5988FF"/>
<path d="M180.488 334.263L174.124 342.67L152.604 311.472L160.665 300.824L196.526 313.079L190.162 321.485L164.621 312.019L164.451 312.243L180.488 334.263ZM167.981 327.261L179.946 311.456L185.773 315.869L173.809 331.674L167.981 327.261Z" fill="#5988FF"/>
<path d="M202.553 305.762L175.158 282.423L185.231 270.596C186.962 268.563 188.879 267.126 190.981 266.284C193.082 265.443 195.221 265.218 197.396 265.609C199.571 266 201.631 267.023 203.575 268.68C205.537 270.351 206.863 272.235 207.554 274.333C208.253 276.421 208.322 278.58 207.761 280.811C207.208 283.033 206.042 285.187 204.265 287.274L198.248 294.338L192.47 289.415L197.21 283.85C197.954 282.975 198.437 282.102 198.658 281.228C198.878 280.338 198.843 279.484 198.553 278.668C198.271 277.843 197.742 277.1 196.966 276.439C196.181 275.77 195.368 275.37 194.527 275.238C193.684 275.089 192.849 275.202 192.023 275.576C191.196 275.933 190.41 276.548 189.666 277.422L187.432 280.044L208.888 298.323L202.553 305.762Z" fill="#5988FF"/>
<path d="M223.602 244.969C222.687 244.231 221.722 243.921 220.706 244.039C219.698 244.149 218.65 244.778 217.562 245.925C216.868 246.656 216.389 247.34 216.124 247.977C215.859 248.598 215.771 249.159 215.858 249.663C215.946 250.166 216.178 250.603 216.552 250.974C216.85 251.29 217.188 251.504 217.563 251.619C217.939 251.716 218.366 251.718 218.844 251.622C219.313 251.518 219.842 251.318 220.431 251.02C221.02 250.723 221.672 250.325 222.388 249.825L224.878 248.118C226.555 246.963 228.131 246.109 229.608 245.556C231.085 245.003 232.474 244.721 233.774 244.712C235.067 244.694 236.279 244.931 237.41 245.423C238.55 245.907 239.621 246.616 240.624 247.551C242.333 249.188 243.379 250.996 243.763 252.974C244.147 254.953 243.9 257.028 243.021 259.197C242.15 261.359 240.667 263.544 238.571 265.755C236.419 268.025 234.205 269.687 231.93 270.742C229.662 271.788 227.388 272.118 225.107 271.731C222.826 271.327 220.589 270.094 218.397 268.031L224.781 261.297C225.62 262.013 226.481 262.45 227.363 262.609C228.246 262.768 229.134 262.657 230.027 262.277C230.928 261.888 231.806 261.244 232.66 260.342C233.378 259.586 233.885 258.864 234.181 258.176C234.478 257.489 234.586 256.856 234.504 256.278C234.422 255.7 234.173 255.206 233.756 254.794C233.349 254.424 232.875 254.225 232.336 254.198C231.796 254.154 231.137 254.304 230.359 254.648C229.572 254.984 228.613 255.535 227.482 256.303L224.454 258.372C221.76 260.209 219.194 261.239 216.756 261.461C214.317 261.666 212.081 260.797 210.049 258.854C208.384 257.291 207.354 255.474 206.959 253.404C206.564 251.318 206.771 249.15 207.582 246.899C208.4 244.639 209.789 242.477 211.747 240.411C213.746 238.303 215.828 236.814 217.993 235.944C220.157 235.074 222.276 234.832 224.35 235.216C226.423 235.584 228.317 236.573 230.034 238.185L223.602 244.969Z" fill="#5988FF"/>
<path d="M277.003 194.509C276.164 193.686 275.233 193.284 274.211 193.304C273.197 193.315 272.093 193.84 270.899 194.877C270.139 195.538 269.596 196.173 269.271 196.781C268.947 197.373 268.804 197.923 268.843 198.433C268.882 198.942 269.07 199.4 269.407 199.805C269.674 200.148 269.989 200.394 270.352 200.544C270.716 200.678 271.141 200.72 271.626 200.671C272.103 200.613 272.649 200.465 273.264 200.226C273.879 199.986 274.566 199.653 275.327 199.224L277.97 197.766C279.75 196.778 281.402 196.08 282.925 195.672C284.449 195.264 285.858 195.118 287.154 195.234C288.441 195.341 289.625 195.694 290.704 196.293C291.792 196.884 292.789 197.694 293.697 198.721C295.24 200.515 296.107 202.415 296.298 204.422C296.49 206.429 296.043 208.469 294.959 210.544C293.884 212.611 292.197 214.644 289.898 216.642C287.537 218.693 285.173 220.134 282.806 220.965C280.448 221.787 278.153 221.896 275.92 221.291C273.689 220.669 271.581 219.225 269.598 216.96L276.602 210.874C277.368 211.667 278.183 212.185 279.046 212.429C279.909 212.672 280.803 212.648 281.729 212.356C282.663 212.056 283.599 211.499 284.537 210.684C285.324 210 285.898 209.331 286.26 208.675C286.621 208.019 286.789 207.4 286.764 206.817C286.738 206.234 286.538 205.717 286.163 205.267C285.793 204.859 285.341 204.616 284.806 204.537C284.273 204.441 283.603 204.527 282.795 204.794C281.98 205.052 280.972 205.509 279.772 206.164L276.559 207.931C273.701 209.5 271.047 210.277 268.598 210.262C266.151 210.232 264.01 209.151 262.175 207.021C260.668 205.304 259.818 203.396 259.624 201.298C259.432 199.184 259.848 197.045 260.872 194.883C261.905 192.713 263.495 190.695 265.644 188.828C267.837 186.922 270.053 185.641 272.291 184.984C274.53 184.328 276.662 184.29 278.689 184.873C280.717 185.439 282.507 186.607 284.06 188.377L277.003 194.509Z" fill="#5988FF"/>
<path d="M303.107 158.887L310.823 152.894L324.963 171.104C326.645 173.27 327.582 175.546 327.774 177.933C327.968 180.304 327.479 182.635 326.306 184.925C325.126 187.206 323.32 189.292 320.886 191.182C318.434 193.086 315.957 194.328 313.455 194.907C310.946 195.476 308.567 195.373 306.319 194.598C304.072 193.806 302.108 192.328 300.427 190.162L286.287 171.952L294.003 165.958L307.626 183.503C308.308 184.382 309.113 185.017 310.041 185.41C310.961 185.792 311.915 185.912 312.901 185.769C313.897 185.619 314.834 185.202 315.713 184.52C316.601 183.83 317.237 183.025 317.619 182.104C318.002 181.184 318.122 180.23 317.979 179.244C317.829 178.248 317.412 177.311 316.73 176.431L303.107 158.887Z" fill="#5988FF"/>
<path d="M341.486 175.055L321.009 145.459L333.782 136.618C335.978 135.098 338.2 134.202 340.447 133.929C342.694 133.656 344.819 133.988 346.82 134.925C348.822 135.862 350.549 137.381 352.003 139.481C353.469 141.601 354.267 143.763 354.396 145.967C354.535 148.165 354.047 150.27 352.931 152.281C351.825 154.286 350.145 156.068 347.891 157.628L340.262 162.909L335.942 156.666L341.953 152.505C342.897 151.852 343.588 151.132 344.026 150.344C344.467 149.54 344.653 148.707 344.583 147.843C344.522 146.973 344.202 146.119 343.622 145.281C343.035 144.433 342.352 143.837 341.573 143.494C340.797 143.133 339.961 143.027 339.067 143.176C338.176 143.309 337.258 143.702 336.314 144.355L333.482 146.315L349.52 169.495L341.486 175.055Z" fill="#5988FF"/>
<path d="M373.905 152.958L355.034 122.312L368.26 114.165C370.534 112.764 372.8 111.988 375.059 111.835C377.317 111.682 379.421 112.127 381.37 113.169C383.319 114.212 384.963 115.82 386.302 117.995C387.653 120.19 388.335 122.391 388.346 124.599C388.368 126.801 387.768 128.877 386.547 130.826C385.336 132.769 383.564 134.46 381.23 135.897L373.33 140.763L369.349 134.299L375.573 130.465C376.551 129.863 377.279 129.181 377.758 128.417C378.242 127.638 378.471 126.816 378.447 125.95C378.433 125.078 378.159 124.208 377.624 123.34C377.084 122.462 376.433 121.831 375.673 121.446C374.917 121.045 374.089 120.894 373.188 120.995C372.291 121.08 371.354 121.424 370.376 122.026L367.444 123.832L382.224 147.834L373.905 152.958Z" fill="#5988FF"/>
<path d="M407.496 132.647L390.179 101.096L398.743 96.3945L412.272 121.043L425.026 114.041L428.814 120.943L407.496 132.647Z" fill="#5988FF"/>
<path d="M437.684 116.328L421.911 83.9777L445.222 72.6083L448.673 79.6849L434.143 86.7715L436.854 92.3317L450.184 85.8305L453.634 92.9071L440.304 99.4083L443.015 104.968L457.482 97.9127L460.932 104.989L437.684 116.328Z" fill="#5988FF"/>
<path d="M472.28 60.3901L483.611 55.9783L498.8 71.9408L499.193 71.7878L499.593 49.7559L510.924 45.3442L523.979 78.884L515.071 82.3522L507.524 62.962L507.262 63.064L507.24 85.0994L501.869 87.1905L486.906 70.8385L486.644 70.9405L494.243 90.4617L485.335 93.9299L472.28 60.3901Z" fill="#5988FF"/>
<path d="M543.579 72.4247L533.521 75.5871L534.06 37.6893L546.8 33.6836L568.924 64.4555L558.867 67.6179L543.536 45.0998L543.268 45.1841L543.579 72.4247ZM537.444 59.4688L556.352 53.5236L558.544 60.4978L539.636 66.4431L537.444 59.4688Z" fill="#5988FF"/>
<path d="M578.076 61.9857L569.274 27.0874L584.335 23.2873C586.925 22.6339 589.32 22.5734 591.52 23.1057C593.72 23.6381 595.593 24.694 597.139 26.2734C598.686 27.8528 599.771 29.8808 600.396 32.3573C601.026 34.8566 601.015 37.1611 600.363 39.2709C599.723 41.3779 598.528 43.1777 596.778 44.6705C595.04 46.1603 592.842 47.2405 590.184 47.9112L581.188 50.1809L579.331 42.8196L586.419 41.0313C587.532 40.7504 588.431 40.318 589.118 39.734C589.813 39.1358 590.278 38.4201 590.515 37.587C590.764 36.7511 590.763 35.839 590.514 34.8506C590.262 33.8509 589.831 33.0534 589.222 32.4579C588.621 31.8483 587.876 31.4563 586.986 31.2821C586.105 31.0936 585.108 31.1397 583.994 31.4206L580.655 32.2632L587.549 59.5956L578.076 61.9857Z" fill="#5988FF"/>
<path d="M630.454 24.6406C630.136 23.509 629.529 22.6969 628.633 22.2043C627.748 21.7094 626.529 21.6142 624.978 21.9188C623.989 22.1129 623.202 22.3927 622.617 22.7582C622.042 23.11 621.644 23.5164 621.424 23.9775C621.204 24.4385 621.139 24.9288 621.229 25.4484C621.29 25.8783 621.44 26.2488 621.68 26.5599C621.93 26.8572 622.277 27.1054 622.722 27.3046C623.164 27.4923 623.712 27.6356 624.364 27.7345C625.016 27.8333 625.779 27.8866 626.652 27.8943L629.67 27.9465C631.706 27.9768 633.485 28.1946 635.009 28.5999C636.533 29.0052 637.828 29.5808 638.894 30.3268C639.957 31.0613 640.807 31.957 641.444 33.014C642.093 34.0687 642.555 35.2674 642.831 36.6103C643.275 38.9349 643.08 41.0148 642.246 42.8499C641.413 44.6851 640.009 46.2322 638.036 47.4911C636.074 48.7478 633.599 49.6695 630.61 50.2562C627.541 50.8586 624.773 50.9303 622.308 50.471C619.853 50.0096 617.809 48.9602 616.175 47.3229C614.549 45.6719 613.441 43.3702 612.85 40.4178L621.954 38.6308C622.223 39.7002 622.672 40.5554 623.299 41.1964C623.926 41.8374 624.714 42.2619 625.662 42.4698C626.621 42.6754 627.71 42.6587 628.929 42.4195C629.952 42.2187 630.784 41.9241 631.424 41.5358C632.064 41.1475 632.518 40.6942 632.786 40.1759C633.055 39.6575 633.138 39.1098 633.037 38.5327C632.919 37.9947 632.649 37.5583 632.225 37.2236C631.81 36.8751 631.186 36.6155 630.353 36.4448C629.517 36.2626 628.416 36.1564 627.049 36.1262L623.383 36.0579C620.123 35.9933 617.435 35.3449 615.319 34.1126C613.212 32.8665 611.894 30.8628 611.364 28.1013C610.913 25.8617 611.126 23.7842 612.003 21.8688C612.89 19.9396 614.316 18.2926 616.28 16.928C618.256 15.561 620.641 14.6034 623.434 14.0551C626.285 13.4955 628.844 13.4886 631.112 14.0344C633.38 14.5803 635.248 15.6106 636.715 17.1255C638.191 18.6266 639.162 20.5314 639.627 22.84L630.454 24.6406Z" fill="#5988FF"/>
<path d="M703.213 14.469C703.006 13.312 702.48 12.4451 701.635 11.8682C700.802 11.2902 699.598 11.078 698.024 11.2314C697.022 11.3292 696.212 11.5317 695.594 11.8391C694.987 12.1337 694.552 12.4999 694.289 12.9375C694.025 13.3752 693.914 13.857 693.953 14.3829C693.972 14.8166 694.086 15.1998 694.295 15.5326C694.514 15.8526 694.836 16.1332 695.259 16.3744C695.682 16.6039 696.213 16.7994 696.853 16.9607C697.492 17.122 698.246 17.2486 699.114 17.3406L702.113 17.6838C704.136 17.9104 705.887 18.2989 707.365 18.8493C708.842 19.3998 710.076 20.0977 711.064 20.943C712.052 21.7767 712.812 22.7503 713.344 23.8638C713.888 24.9762 714.232 26.2139 714.377 27.5771C714.595 29.9337 714.2 31.9851 713.193 33.7313C712.187 35.4774 710.64 36.8819 708.555 37.9445C706.481 39.006 703.928 39.6845 700.897 39.9801C697.784 40.2835 695.022 40.0878 692.612 39.3928C690.214 38.6966 688.281 37.4549 686.812 35.6675C685.353 33.8674 684.472 31.4695 684.169 28.4738L693.403 27.5736C693.568 28.664 693.931 29.5585 694.494 30.2571C695.056 30.9556 695.799 31.4541 696.723 31.7525C697.658 32.0498 698.744 32.1382 699.98 32.0177C701.017 31.9166 701.873 31.7036 702.548 31.3789C703.222 31.0542 703.718 30.6468 704.035 30.1568C704.352 29.6668 704.488 29.1297 704.443 28.5455C704.378 27.9986 704.151 27.5381 703.761 27.1641C703.382 26.7773 702.786 26.4587 701.973 26.2083C701.159 25.9463 700.073 25.7343 698.716 25.5724L695.073 25.1506C691.835 24.7718 689.222 23.867 687.235 22.4363C685.258 20.9927 684.139 18.8711 683.878 16.0714C683.644 13.7987 684.057 11.7514 685.115 9.92957C686.184 8.09496 687.762 6.59328 689.849 5.42455C691.948 4.25468 694.414 3.53165 697.247 3.25545C700.138 2.97356 702.686 3.21368 704.891 3.97579C707.096 4.73791 708.855 5.94366 710.169 7.59305C711.494 9.22964 712.276 11.2193 712.517 13.5619L703.213 14.469Z" fill="#5988FF"/>
<path d="M745.126 0.567521L754.888 0.155438L755.86 23.1921C755.975 25.9312 755.42 28.3293 754.194 30.3863C752.979 32.4311 751.229 34.0469 748.946 35.2339C746.663 36.4091 743.982 37.0617 740.904 37.1917C737.802 37.3226 735.064 36.8988 732.689 35.9202C730.314 34.9299 728.435 33.4672 727.052 31.5321C725.68 29.5848 724.937 27.2416 724.821 24.5024L723.849 1.4658L733.61 1.05372L734.546 23.2476C734.593 24.3596 734.881 25.3442 735.41 26.2014C735.938 27.0468 736.645 27.6971 737.532 28.1522C738.431 28.6067 739.436 28.8106 740.548 28.7636C741.671 28.7162 742.656 28.4284 743.501 27.9002C744.347 27.372 744.997 26.6644 745.452 25.7774C745.906 24.8788 746.11 23.8734 746.063 22.7614L745.126 0.567521Z" fill="#5988FF"/>
<path d="M767.037 35.9887L767.497 0L783.029 0.198785C785.7 0.232965 788.03 0.790052 790.019 1.87004C792.009 2.95004 793.548 4.45193 794.636 6.37573C795.724 8.29953 796.252 10.5384 796.22 13.0923C796.187 15.6696 795.584 17.894 794.412 19.7654C793.252 21.637 791.634 23.0692 789.56 24.062C787.497 25.055 785.095 25.5339 782.354 25.4989L773.077 25.3801L773.174 17.7888L780.483 17.8823C781.631 17.897 782.612 17.7104 783.425 17.3224C784.25 16.9229 784.884 16.351 785.327 15.6068C785.782 14.8627 786.016 13.981 786.029 12.9618C786.042 11.9309 785.831 11.0494 785.395 10.3174C784.971 9.5738 784.352 9.00346 783.537 8.60637C782.733 8.19771 781.758 7.98603 780.61 7.97134L777.166 7.92727L776.806 36.1137L767.037 35.9887Z" fill="#5988FF"/>
<path d="M806.26 36.7694L808.637 0.856407L824.136 1.88273C826.801 2.0592 829.098 2.73969 831.028 3.92418C832.957 5.10867 834.413 6.69046 835.398 8.66953C836.382 10.6486 836.79 12.9124 836.621 15.4609C836.451 18.0328 835.731 20.2219 834.461 22.0282C833.202 23.8353 831.511 25.1793 829.386 26.0601C827.273 26.9417 824.849 27.292 822.114 27.1109L812.856 26.4979L813.358 18.9225L820.652 19.4054C821.797 19.4813 822.786 19.3472 823.619 19.0031C824.465 18.6481 825.128 18.1109 825.61 17.3913C826.104 16.6725 826.384 15.8046 826.452 14.7875C826.52 13.7588 826.356 12.8673 825.96 12.1131C825.576 11.3479 824.988 10.7454 824.195 10.3054C823.415 9.85453 822.452 9.59117 821.307 9.51531L817.87 9.28776L816.008 37.415L806.26 36.7694Z" fill="#5988FF"/>
<path d="M845.404 39.6863L849.572 3.93695L859.276 5.06879L856.02 32.998L870.471 34.6835L869.559 42.5037L845.404 39.6863Z" fill="#5988FF"/>
<path d="M879.463 43.8841L885.353 8.37777L910.939 12.6233L909.65 20.3903L893.702 17.744L892.69 23.8467L907.32 26.2744L906.032 34.0414L891.402 31.6137L890.389 37.7163L906.268 40.3511L904.979 48.1181L879.463 43.8841Z" fill="#5988FF"/>
<path d="M940.068 18.3468L951.859 21.3188L954.988 43.1309L955.397 43.234L968.489 25.5105L980.279 28.4826L971.485 63.3829L962.216 61.0465L967.3 40.8697L967.027 40.801L954.242 58.7467L948.653 57.338L945.934 35.3391L945.661 35.2704L940.542 55.5835L931.273 53.2471L940.068 18.3468Z" fill="#5988FF"/>
<path d="M991.202 69.4798L981.173 66.2277L1003.57 35.6546L1016.27 39.7739L1016.47 77.6751L1006.45 74.423L1007 47.1862L1006.73 47.0995L991.202 69.4798ZM993.709 55.3651L1012.56 61.4791L1010.31 68.4335L991.454 62.3196L993.709 55.3651Z" fill="#5988FF"/>
<path d="M1025.36 80.9663L1038.41 47.4234L1052.89 53.0559C1055.38 54.0244 1057.36 55.3631 1058.85 57.0722C1060.33 58.7813 1061.25 60.7275 1061.59 62.9108C1061.94 65.0941 1061.65 67.3759 1060.72 69.7562C1059.79 72.1584 1058.44 74.0303 1056.69 75.372C1054.95 76.7179 1052.93 77.492 1050.64 77.6943C1048.36 77.9009 1045.94 77.5072 1043.39 76.5133L1034.74 73.1491L1037.49 66.0736L1044.3 68.7242C1045.37 69.1405 1046.36 69.3096 1047.25 69.2314C1048.17 69.1466 1048.96 68.8334 1049.64 68.2917C1050.32 67.7543 1050.85 67.0106 1051.22 66.0607C1051.6 65.0998 1051.71 64.2002 1051.56 63.3618C1051.42 62.5168 1051.04 61.7654 1050.41 61.1077C1049.81 60.4434 1048.97 59.9031 1047.9 59.4868L1044.69 58.238L1034.47 84.5089L1025.36 80.9663Z" fill="#5988FF"/>
<path d="M1089.69 80.8896C1090.09 79.7833 1090.06 78.7696 1089.62 77.8485C1089.18 76.9323 1088.24 76.1485 1086.8 75.4974C1085.88 75.0825 1085.08 74.8546 1084.39 74.8135C1083.72 74.7666 1083.16 74.8672 1082.71 75.1155C1082.27 75.3638 1081.93 75.7258 1081.7 76.2014C1081.5 76.5868 1081.41 76.9759 1081.43 77.3685C1081.46 77.7553 1081.6 78.1589 1081.84 78.5791C1082.1 78.9887 1082.46 79.4227 1082.93 79.8812C1083.41 80.3397 1084 80.8251 1084.7 81.3374L1087.13 83.1295C1088.78 84.3339 1090.1 85.5429 1091.11 86.7565C1092.11 87.9701 1092.84 89.1897 1093.27 90.4152C1093.71 91.6301 1093.89 92.8529 1093.79 94.0836C1093.71 95.3191 1093.39 96.5639 1092.84 97.8179C1091.85 99.9698 1090.49 101.552 1088.75 102.564C1087.01 103.577 1084.97 104.024 1082.63 103.906C1080.3 103.793 1077.75 103.11 1074.97 101.856C1072.12 100.568 1069.83 99.0223 1068.08 97.2189C1066.35 95.4204 1065.29 93.3803 1064.91 91.0987C1064.54 88.8112 1064.97 86.293 1066.2 83.5442L1074.66 87.3645C1074.26 88.3923 1074.13 89.3491 1074.26 90.235C1074.4 91.1209 1074.8 91.9234 1075.45 92.6423C1076.12 93.366 1077.01 93.9836 1078.14 94.4949C1079.09 94.9242 1079.94 95.1661 1080.69 95.2206C1081.44 95.2751 1082.07 95.1689 1082.59 94.9021C1083.11 94.6352 1083.49 94.2372 1083.74 93.7082C1083.96 93.2016 1083.99 92.689 1083.84 92.1706C1083.71 91.6464 1083.35 91.0732 1082.77 90.4511C1082.19 89.8182 1081.36 89.0934 1080.26 88.2766L1077.31 86.0959C1074.69 84.154 1072.88 82.0676 1071.87 79.8369C1070.87 77.6003 1070.96 75.2032 1072.13 72.6455C1073.06 70.5587 1074.43 68.9891 1076.26 67.9367C1078.1 66.8785 1080.21 66.3626 1082.61 66.3891C1085.01 66.4204 1087.51 67.0222 1090.1 68.1943C1092.75 69.3905 1094.84 70.8683 1096.37 72.6275C1097.9 74.3868 1098.83 76.3089 1099.15 78.3938C1099.48 80.4729 1099.17 82.5879 1098.21 84.7388L1089.69 80.8896Z" fill="#5988FF"/>
</svg>
