<svg width="1694" height="1691" viewBox="0 0 1694 1691" fill="none" xmlns="http://www.w3.org/2000/svg">
<path d="M761.41 1678.69C761.391 1679.87 761.74 1680.82 762.458 1681.55C763.165 1682.28 764.305 1682.72 765.88 1682.87C766.883 1682.97 767.718 1682.93 768.383 1682.74C769.035 1682.57 769.533 1682.3 769.876 1681.92C770.219 1681.54 770.421 1681.09 770.484 1680.56C770.549 1680.13 770.511 1679.74 770.37 1679.37C770.216 1679.01 769.955 1678.67 769.585 1678.36C769.215 1678.05 768.731 1677.75 768.134 1677.47C767.537 1677.19 766.822 1676.92 765.987 1676.66L763.109 1675.75C761.166 1675.14 759.523 1674.42 758.178 1673.59C756.833 1672.77 755.757 1671.84 754.949 1670.82C754.14 1669.81 753.582 1668.71 753.274 1667.52C752.954 1666.32 752.855 1665.04 752.975 1663.67C753.215 1661.31 753.998 1659.38 755.323 1657.86C756.648 1656.34 758.436 1655.25 760.688 1654.61C762.929 1653.97 765.566 1653.8 768.598 1654.09C771.713 1654.39 774.386 1655.12 776.618 1656.26C778.839 1657.41 780.498 1659 781.595 1661.04C782.68 1663.09 783.083 1665.61 782.804 1668.61L773.566 1667.72C773.614 1666.61 773.429 1665.67 773.011 1664.87C772.594 1664.08 771.96 1663.44 771.111 1662.97C770.25 1662.5 769.202 1662.21 767.965 1662.09C766.927 1661.98 766.045 1662.03 765.321 1662.22C764.596 1662.41 764.031 1662.71 763.625 1663.13C763.219 1663.55 762.982 1664.05 762.914 1664.63C762.873 1665.18 763.007 1665.68 763.317 1666.12C763.615 1666.58 764.139 1667 764.889 1667.41C765.637 1667.82 766.662 1668.24 767.964 1668.66L771.459 1669.77C774.565 1670.77 776.956 1672.16 778.631 1673.95C780.294 1675.75 780.983 1678.05 780.7 1680.85C780.492 1683.12 779.692 1685.05 778.302 1686.64C776.9 1688.23 775.061 1689.4 772.787 1690.15C770.501 1690.89 767.941 1691.13 765.107 1690.85C762.214 1690.57 759.758 1689.85 757.741 1688.67C755.723 1687.5 754.229 1685.98 753.256 1684.1C752.271 1682.24 751.886 1680.14 752.102 1677.79L761.41 1678.69Z" fill="#5988FF"/>
<path d="M717.713 1684.42L708.044 1682.99L711.413 1660.16C711.813 1657.45 712.809 1655.2 714.401 1653.41C715.979 1651.63 718.001 1650.37 720.467 1649.63C722.932 1648.9 725.689 1648.76 728.738 1649.21C731.81 1649.67 734.421 1650.6 736.571 1652.01C738.719 1653.43 740.291 1655.22 741.287 1657.38C742.27 1659.55 742.561 1661.99 742.16 1664.71L738.791 1687.53L729.122 1686.1L732.368 1664.11C732.53 1663.01 732.432 1661.99 732.074 1661.05C731.713 1660.12 731.14 1659.35 730.354 1658.73C729.556 1658.12 728.607 1657.73 727.506 1657.56C726.393 1657.4 725.371 1657.5 724.441 1657.86C723.511 1658.22 722.74 1658.79 722.126 1659.58C721.511 1660.38 721.122 1661.33 720.959 1662.43L717.713 1684.42Z" fill="#5988FF"/>
<path d="M702.795 1645.51L695.764 1680.83L680.523 1677.8C677.902 1677.28 675.712 1676.3 673.953 1674.88C672.193 1673.45 670.954 1671.69 670.235 1669.6C669.516 1667.51 669.406 1665.21 669.905 1662.7C670.409 1660.17 671.408 1658.09 672.903 1656.47C674.386 1654.84 676.239 1653.72 678.461 1653.13C680.671 1652.53 683.121 1652.5 685.811 1653.03L694.914 1654.84L693.431 1662.29L686.259 1660.87C685.133 1660.64 684.134 1660.65 683.263 1660.88C682.378 1661.12 681.65 1661.57 681.078 1662.22C680.495 1662.87 680.104 1663.69 679.905 1664.69C679.704 1665.7 679.75 1666.61 680.045 1667.41C680.326 1668.22 680.831 1668.89 681.56 1669.43C682.276 1669.98 683.196 1670.37 684.323 1670.59L687.702 1671.27L693.209 1643.6L702.795 1645.51Z" fill="#5988FF"/>
<path d="M664.32 1637.59L655.588 1672.53L640.512 1668.76C637.919 1668.11 635.779 1667.03 634.091 1665.52C632.402 1664.01 631.25 1662.19 630.633 1660.07C630.016 1657.95 630.017 1655.64 630.637 1653.16C631.262 1650.66 632.361 1648.63 633.933 1647.08C635.493 1645.53 637.398 1644.5 639.646 1644.02C641.883 1643.52 644.332 1643.61 646.992 1644.28L655.997 1646.53L654.155 1653.9L647.061 1652.12C645.946 1651.85 644.949 1651.8 644.068 1651.99C643.172 1652.19 642.423 1652.6 641.821 1653.22C641.207 1653.84 640.776 1654.65 640.529 1655.64C640.279 1656.64 640.281 1657.55 640.537 1658.36C640.779 1659.18 641.251 1659.88 641.953 1660.45C642.641 1661.04 643.542 1661.47 644.656 1661.75L647.999 1662.58L654.838 1635.22L664.32 1637.59Z" fill="#5988FF"/>
<path d="M626.265 1627.77L615.956 1662.27L606.591 1659.47L614.645 1632.52L600.699 1628.35L602.954 1620.8L626.265 1627.77Z" fill="#5988FF"/>
<path d="M593.402 1617.73L581.59 1651.75L557.079 1643.23L559.663 1635.79L574.941 1641.1L576.971 1635.25L562.955 1630.38L565.539 1622.94L579.555 1627.81L581.585 1621.96L566.374 1616.68L568.958 1609.24L593.402 1617.73Z" fill="#5988FF"/>
<path d="M529.502 1632.82L518.342 1627.97L518.779 1605.93L518.392 1605.76L502.601 1621.15L491.44 1616.3L505.766 1583.26L514.54 1587.07L506.258 1606.17L506.516 1606.28L522.04 1590.63L527.33 1592.92L526.458 1615.09L526.716 1615.2L535.054 1595.97L543.828 1599.78L529.502 1632.82Z" fill="#5988FF"/>
<path d="M487.206 1574.13L496.611 1578.9L469.717 1605.63L457.804 1599.58L463.505 1562.09L472.91 1566.87L468.123 1593.7L468.374 1593.83L487.206 1574.13ZM482.532 1587.69L464.85 1578.71L468.161 1572.18L485.842 1581.16L482.532 1587.69Z" fill="#5988FF"/>
<path d="M455.185 1557.47L437.234 1588.68L423.763 1580.93C421.447 1579.6 419.683 1577.98 418.472 1576.06C417.261 1574.15 416.649 1572.09 416.636 1569.87C416.624 1567.66 417.254 1565.45 418.528 1563.23C419.814 1561 421.425 1559.35 423.361 1558.28C425.287 1557.22 427.399 1556.75 429.695 1556.9C431.981 1557.04 434.313 1557.79 436.69 1559.16L444.736 1563.79L440.949 1570.37L434.61 1566.73C433.615 1566.15 432.667 1565.84 431.767 1565.78C430.852 1565.73 430.019 1565.92 429.269 1566.35C428.509 1566.78 427.875 1567.43 427.366 1568.32C426.852 1569.21 426.607 1570.09 426.631 1570.94C426.638 1571.8 426.901 1572.6 427.42 1573.34C427.922 1574.09 428.671 1574.75 429.666 1575.32L432.653 1577.04L446.713 1552.59L455.185 1557.47Z" fill="#5988FF"/>
<path d="M391.563 1548.01C391.009 1549.05 390.885 1550.05 391.192 1551.03C391.489 1552 392.303 1552.91 393.634 1553.77C394.483 1554.31 395.244 1554.65 395.92 1554.8C396.579 1554.94 397.148 1554.92 397.626 1554.74C398.104 1554.56 398.49 1554.25 398.785 1553.81C399.039 1553.46 399.186 1553.09 399.228 1552.7C399.254 1552.31 399.175 1551.89 398.992 1551.44C398.802 1551 398.506 1550.51 398.103 1549.99C397.701 1549.47 397.187 1548.9 396.562 1548.29L394.418 1546.16C392.969 1544.73 391.834 1543.34 391.014 1541.99C390.194 1540.65 389.657 1539.33 389.404 1538.06C389.144 1536.79 389.15 1535.55 389.422 1534.35C389.683 1533.14 390.179 1531.95 390.91 1530.79C392.198 1528.8 393.778 1527.44 395.651 1526.69C397.523 1525.94 399.608 1525.79 401.904 1526.25C404.191 1526.7 406.617 1527.75 409.182 1529.4C411.815 1531.09 413.864 1532.95 415.327 1534.99C416.78 1537.02 417.53 1539.2 417.577 1541.51C417.608 1543.83 416.815 1546.26 415.199 1548.8L407.386 1543.79C407.932 1542.83 408.2 1541.9 408.191 1541C408.181 1540.11 407.906 1539.26 407.366 1538.45C406.815 1537.64 406.017 1536.89 404.971 1536.22C404.093 1535.66 403.289 1535.3 402.558 1535.13C401.827 1534.97 401.185 1534.98 400.632 1535.17C400.08 1535.36 399.64 1535.7 399.314 1536.19C399.026 1536.66 398.92 1537.16 398.994 1537.69C399.052 1538.23 399.323 1538.85 399.807 1539.55C400.284 1540.26 401.006 1541.1 401.972 1542.07L404.573 1544.66C406.883 1546.96 408.375 1549.29 409.05 1551.65C409.71 1554.01 409.275 1556.37 407.746 1558.73C406.522 1560.66 404.93 1562.01 402.97 1562.79C400.994 1563.57 398.824 1563.77 396.461 1563.4C394.088 1563.02 391.702 1562.06 389.305 1560.52C386.859 1558.95 385.006 1557.18 383.746 1555.21C382.486 1553.25 381.85 1551.21 381.839 1549.1C381.812 1546.99 382.429 1544.95 383.692 1542.96L391.563 1548.01Z" fill="#5988FF"/>
<path d="M331.884 1505.36C331.241 1506.34 331.03 1507.34 331.249 1508.33C331.46 1509.33 332.191 1510.31 333.442 1511.28C334.24 1511.89 334.969 1512.3 335.629 1512.5C336.273 1512.7 336.841 1512.73 337.333 1512.6C337.825 1512.46 338.237 1512.18 338.569 1511.77C338.853 1511.45 339.033 1511.09 339.109 1510.7C339.168 1510.32 339.126 1509.89 338.983 1509.43C338.833 1508.97 338.58 1508.46 338.225 1507.91C337.87 1507.35 337.408 1506.74 336.838 1506.08L334.889 1503.77C333.571 1502.22 332.563 1500.73 331.864 1499.32C331.165 1497.9 330.746 1496.55 330.605 1495.25C330.458 1493.97 330.572 1492.74 330.948 1491.56C331.315 1490.38 331.913 1489.24 332.743 1488.15C334.2 1486.28 335.894 1485.06 337.825 1484.48C339.756 1483.9 341.845 1483.93 344.093 1484.59C346.331 1485.24 348.656 1486.5 351.066 1488.36C353.542 1490.28 355.419 1492.32 356.697 1494.47C357.966 1496.63 358.523 1498.86 358.367 1501.17C358.195 1503.48 357.192 1505.83 355.359 1508.22L348.016 1502.54C348.644 1501.63 348.992 1500.73 349.062 1499.84C349.131 1498.94 348.932 1498.07 348.464 1497.22C347.986 1496.36 347.256 1495.55 346.274 1494.79C345.449 1494.15 344.679 1493.72 343.965 1493.5C343.251 1493.27 342.611 1493.23 342.044 1493.37C341.477 1493.5 341.009 1493.8 340.641 1494.26C340.314 1494.7 340.164 1495.19 340.191 1495.73C340.202 1496.28 340.417 1496.92 340.838 1497.66C341.251 1498.41 341.896 1499.31 342.774 1500.35L345.138 1503.16C347.236 1505.66 348.519 1508.11 348.985 1510.52C349.435 1512.92 348.795 1515.24 347.065 1517.46C345.676 1519.27 343.972 1520.48 341.952 1521.08C339.915 1521.68 337.736 1521.7 335.414 1521.12C333.083 1520.53 330.792 1519.36 328.539 1517.62C326.239 1515.84 324.548 1513.92 323.465 1511.85C322.382 1509.78 321.928 1507.7 322.102 1505.59C322.259 1503.49 323.054 1501.51 324.486 1499.63L331.884 1505.36Z" fill="#5988FF"/>
<path d="M291.851 1486.92L284.427 1480.56L299.43 1463.04C301.213 1460.96 303.256 1459.58 305.556 1458.91C307.84 1458.24 310.222 1458.25 312.703 1458.94C315.176 1459.64 317.582 1460.99 319.924 1463C322.282 1465.02 323.997 1467.2 325.067 1469.54C326.129 1471.88 326.507 1474.23 326.199 1476.59C325.874 1478.96 324.82 1481.18 323.036 1483.26L308.034 1500.79L300.61 1494.43L315.064 1477.54C315.788 1476.7 316.249 1475.78 316.447 1474.79C316.637 1473.81 316.563 1472.85 316.224 1471.92C315.877 1470.97 315.28 1470.14 314.435 1469.41C313.58 1468.68 312.664 1468.22 311.685 1468.03C310.706 1467.84 309.747 1467.91 308.809 1468.25C307.864 1468.6 307.029 1469.19 306.305 1470.04L291.851 1486.92Z" fill="#5988FF"/>
<path d="M299.937 1446.05L275.182 1472.2L263.898 1461.51C261.958 1459.67 260.622 1457.68 259.893 1455.53C259.163 1453.39 259.05 1451.24 259.555 1449.09C260.06 1446.93 261.191 1444.93 262.948 1443.07C264.721 1441.2 266.673 1439.97 268.804 1439.39C270.927 1438.81 273.088 1438.85 275.286 1439.53C277.477 1440.2 279.568 1441.48 281.559 1443.36L288.299 1449.75L283.077 1455.26L277.767 1450.23C276.933 1449.44 276.085 1448.91 275.224 1448.65C274.346 1448.38 273.492 1448.37 272.662 1448.62C271.822 1448.86 271.052 1449.35 270.351 1450.09C269.642 1450.84 269.2 1451.63 269.023 1452.46C268.83 1453.3 268.899 1454.14 269.229 1454.98C269.542 1455.83 270.115 1456.64 270.949 1457.43L273.451 1459.8L292.839 1439.32L299.937 1446.05Z" fill="#5988FF"/>
<path d="M271.588 1418.84L245.597 1443.76L234.843 1432.54C232.994 1430.61 231.757 1428.56 231.132 1426.38C230.507 1424.2 230.499 1422.05 231.107 1419.93C231.716 1417.8 232.943 1415.85 234.787 1414.08C236.648 1412.3 238.658 1411.17 240.814 1410.69C242.963 1410.21 245.119 1410.36 247.283 1411.14C249.438 1411.91 251.464 1413.29 253.362 1415.27L259.785 1421.98L254.302 1427.23L249.242 1421.95C248.447 1421.12 247.626 1420.55 246.779 1420.24C245.915 1419.94 245.062 1419.89 244.221 1420.09C243.371 1420.29 242.578 1420.74 241.842 1421.45C241.098 1422.16 240.617 1422.93 240.401 1423.75C240.168 1424.58 240.196 1425.42 240.484 1426.28C240.756 1427.14 241.289 1427.98 242.084 1428.81L244.468 1431.3L264.825 1411.78L271.588 1418.84Z" fill="#5988FF"/>
<path d="M244.609 1390.26L217.513 1413.97L211.077 1406.61L232.246 1388.09L222.661 1377.13L228.588 1371.94L244.609 1390.26Z" fill="#5988FF"/>
<path d="M222.136 1364.25L194.026 1386.76L177.814 1366.49L183.963 1361.57L194.068 1374.2L198.9 1370.33L189.629 1358.74L195.778 1353.82L205.049 1365.41L209.88 1361.54L199.819 1348.97L205.968 1344.04L222.136 1364.25Z" fill="#5988FF"/>
<path d="M160.02 1342.98L153.151 1332.94L165.258 1314.51L165.02 1314.17L143.464 1318.77L136.596 1308.73L166.311 1288.4L171.71 1296.29L154.531 1308.05L154.69 1308.28L176.163 1303.3L179.419 1308.06L166.882 1326.36L167.04 1326.59L184.336 1314.75L189.735 1322.65L160.02 1342.98Z" fill="#5988FF"/>
<path d="M155.466 1270.78L160.884 1279.83L123.889 1288.13L117.027 1276.66L141.814 1247.96L147.231 1257.01L128.893 1277.18L129.037 1277.42L155.466 1270.78ZM144.29 1279.76L134.105 1262.74L140.38 1258.99L150.565 1276.01L144.29 1279.76Z" fill="#5988FF"/>
<path d="M137.233 1239.62L105.419 1256.48L98.1441 1242.74C96.8932 1240.38 96.2647 1238.06 96.2586 1235.8C96.2524 1233.53 96.8328 1231.46 97.9996 1229.58C99.1665 1227.7 100.879 1226.17 103.136 1224.97C105.415 1223.76 107.656 1223.22 109.861 1223.36C112.061 1223.48 114.094 1224.21 115.961 1225.56C117.822 1226.89 119.394 1228.77 120.678 1231.2L125.023 1239.4L118.312 1242.96L114.889 1236.49C114.351 1235.48 113.717 1234.71 112.986 1234.18C112.24 1233.64 111.434 1233.36 110.568 1233.33C109.697 1233.29 108.811 1233.5 107.91 1233.98C106.998 1234.47 106.326 1235.07 105.892 1235.81C105.443 1236.54 105.239 1237.35 105.281 1238.26C105.308 1239.16 105.59 1240.12 106.128 1241.14L107.741 1244.18L132.658 1230.98L137.233 1239.62Z" fill="#5988FF"/>
<path d="M88.4173 1197.72C87.3962 1198.3 86.7553 1199.09 86.4947 1200.08C86.2292 1201.06 86.4325 1202.26 87.1045 1203.7C87.5327 1204.61 87.9951 1205.3 88.4917 1205.78C88.9727 1206.26 89.4637 1206.54 89.9644 1206.65C90.4652 1206.75 90.9568 1206.69 91.4392 1206.48C91.8417 1206.31 92.1648 1206.08 92.4084 1205.77C92.6364 1205.46 92.7931 1205.06 92.8785 1204.58C92.9533 1204.1 92.9595 1203.54 92.8972 1202.88C92.8349 1202.22 92.7017 1201.47 92.4974 1200.62L91.8157 1197.68C91.3513 1195.69 91.1309 1193.91 91.1545 1192.33C91.178 1190.76 91.4225 1189.36 91.888 1188.14C92.3428 1186.93 93.0058 1185.89 93.8769 1185.01C94.743 1184.13 95.7943 1183.39 97.0306 1182.8C99.1788 1181.8 101.244 1181.49 103.228 1181.85C105.211 1182.21 107.053 1183.2 108.753 1184.81C110.449 1186.41 111.944 1188.59 113.238 1191.35C114.567 1194.18 115.308 1196.85 115.461 1199.36C115.608 1201.85 115.086 1204.09 113.894 1206.08C112.686 1208.06 110.721 1209.69 107.999 1210.98L104.056 1202.58C105.029 1202.05 105.75 1201.41 106.22 1200.65C106.69 1199.88 106.911 1199.01 106.882 1198.04C106.849 1197.06 106.569 1196.01 106.041 1194.88C105.598 1193.94 105.11 1193.2 104.578 1192.68C104.046 1192.15 103.496 1191.82 102.928 1191.68C102.36 1191.55 101.808 1191.6 101.272 1191.84C100.779 1192.08 100.421 1192.45 100.199 1192.94C99.9613 1193.43 99.8607 1194.1 99.8972 1194.95C99.9231 1195.81 100.087 1196.9 100.39 1198.24L101.213 1201.81C101.941 1204.99 101.964 1207.76 101.281 1210.11C100.583 1212.46 98.9584 1214.23 96.4071 1215.41C94.3432 1216.39 92.2754 1216.69 90.2036 1216.3C88.1163 1215.91 86.1721 1214.93 84.3711 1213.35C82.5652 1211.76 81.0573 1209.68 79.8475 1207.1C78.6129 1204.47 77.9853 1201.99 77.9648 1199.65C77.9443 1197.32 78.4911 1195.25 79.6053 1193.46C80.7038 1191.66 82.3169 1190.26 84.4445 1189.25L88.4173 1197.72Z" fill="#5988FF"/>
<path d="M60.6118 1129.82C59.5435 1130.32 58.8361 1131.04 58.4898 1132.01C58.1394 1132.96 58.2362 1134.18 58.7801 1135.66C59.1266 1136.61 59.5262 1137.34 59.9789 1137.87C60.4166 1138.38 60.8804 1138.71 61.3703 1138.85C61.8603 1139 62.3549 1138.99 62.8541 1138.82C63.2694 1138.69 63.6119 1138.48 63.8816 1138.2C64.1363 1137.9 64.3272 1137.52 64.4544 1137.05C64.5705 1136.58 64.6263 1136.02 64.6219 1135.36C64.6175 1134.7 64.5507 1133.94 64.4217 1133.07L64.0007 1130.08C63.7119 1128.07 63.6485 1126.27 63.8103 1124.7C63.9721 1123.13 64.3381 1121.76 64.9083 1120.59C65.4675 1119.43 66.2193 1118.45 67.1638 1117.65C68.1042 1116.84 69.2163 1116.2 70.4999 1115.72C72.727 1114.91 74.8123 1114.78 76.756 1115.32C78.6997 1115.85 80.4479 1117 82.0007 1118.75C83.5494 1120.49 84.8476 1122.8 85.8951 1125.66C86.9709 1128.6 87.4749 1131.32 87.4073 1133.83C87.3356 1136.33 86.6189 1138.52 85.2572 1140.39C83.8805 1142.25 81.78 1143.71 78.9556 1144.76L75.7646 1136.04C76.779 1135.6 77.5537 1135.02 78.0889 1134.3C78.624 1133.58 78.92 1132.74 78.977 1131.77C79.0299 1130.79 78.8429 1129.72 78.4158 1128.55C78.0572 1127.57 77.636 1126.79 77.1521 1126.22C76.6683 1125.65 76.1493 1125.27 75.5952 1125.09C75.0411 1124.9 74.4869 1124.91 73.9326 1125.1C73.4194 1125.3 73.0306 1125.63 72.7663 1126.1C72.4869 1126.57 72.3281 1127.23 72.2899 1128.08C72.2407 1128.93 72.3082 1130.04 72.4924 1131.39L72.9989 1135.03C73.4455 1138.26 73.2257 1141.02 72.3395 1143.3C71.4383 1145.58 69.665 1147.2 67.0197 1148.15C64.8777 1148.95 62.7918 1149.06 60.7619 1148.5C58.7171 1147.92 56.8667 1146.77 55.2108 1145.04C53.5509 1143.3 52.2315 1141.1 51.2524 1138.42C50.2532 1135.69 49.8457 1133.16 50.0299 1130.83C50.2141 1128.51 50.9397 1126.5 52.2067 1124.81C53.4586 1123.12 55.1886 1121.86 57.3966 1121.04L60.6118 1129.82Z" fill="#5988FF"/>
<path d="M36.5422 1092.9L33.6445 1083.56L55.6719 1076.72C58.2911 1075.9 60.7522 1075.83 63.0553 1076.49C65.3437 1077.14 67.3541 1078.42 69.0865 1080.32C70.8076 1082.23 72.1251 1084.66 73.0389 1087.6C73.9596 1090.57 74.2508 1093.33 73.9125 1095.87C73.563 1098.43 72.6296 1100.62 71.1125 1102.45C69.5808 1104.28 67.5053 1105.6 64.8862 1106.41L42.8587 1113.25L39.961 1103.91L61.1826 1097.32C62.2459 1096.99 63.1244 1096.46 63.8179 1095.73C64.5002 1095 64.9479 1094.15 65.1609 1093.18C65.3704 1092.19 65.3101 1091.17 64.98 1090.1C64.6465 1089.03 64.1161 1088.15 63.3889 1087.47C62.6617 1086.79 61.811 1086.34 60.8368 1086.12C59.8514 1085.92 58.8271 1085.98 57.7638 1086.31L36.5422 1092.9Z" fill="#5988FF"/>
<path d="M65.1473 1062.6L30.2729 1071.55L26.4127 1056.49C25.7489 1053.9 25.679 1051.51 26.2029 1049.3C26.7268 1047.1 27.7756 1045.22 29.3495 1043.67C30.9234 1042.11 32.9477 1041.02 35.4225 1040.38C37.92 1039.74 40.2253 1039.74 42.3383 1040.39C44.4484 1041.02 46.2535 1042.21 47.7535 1043.96C49.2507 1045.69 50.3398 1047.89 51.0211 1050.54L53.3267 1059.54L45.9704 1061.42L44.1538 1054.34C43.8685 1053.22 43.4324 1052.33 42.8456 1051.64C42.2445 1050.95 41.5268 1050.49 40.6925 1050.25C39.8553 1050.01 38.9429 1050.01 37.9553 1050.26C36.9563 1050.52 36.1602 1050.95 35.5669 1051.57C34.9595 1052.17 34.5703 1052.92 34.3995 1053.81C34.2143 1054.69 34.2644 1055.69 34.5497 1056.8L35.4056 1060.14L62.7194 1053.13L65.1473 1062.6Z" fill="#5988FF"/>
<path d="M55.6364 1024.48L20.3699 1031.73L17.2431 1016.5C16.7054 1013.88 16.7516 1011.48 17.3815 1009.31C18.0115 1007.13 19.1501 1005.3 20.7973 1003.83C22.4445 1002.35 24.5195 1001.36 27.0221 1000.84C29.5477 1000.33 31.8502 1000.44 33.9296 1001.18C36.0066 1001.92 37.752 1003.19 39.1658 1005.01C40.5772 1006.81 41.5588 1009.06 42.1106 1011.75L43.9782 1020.84L36.5392 1022.37L35.0677 1015.2C34.8366 1014.08 34.4446 1013.16 33.8915 1012.45C33.3247 1011.73 32.6302 1011.23 31.8083 1010.96C30.9839 1010.67 30.0724 1010.63 29.0736 1010.84C28.0634 1011.04 27.2472 1011.44 26.6251 1012.02C25.9891 1012.59 25.5642 1013.32 25.3504 1014.2C25.1228 1015.08 25.1245 1016.07 25.3556 1017.2L26.0489 1020.58L53.6698 1014.9L55.6364 1024.48Z" fill="#5988FF"/>
<path d="M48.0178 985.91L12.4587 991.548L10.9287 981.891L38.7092 977.487L36.4308 963.105L44.2093 961.872L48.0178 985.91Z" fill="#5988FF"/>
<path d="M42.8412 951.93L7.06908 956.001L4.13608 930.211L11.9612 929.321L13.7894 945.396L19.9377 944.696L18.2606 929.949L26.0857 929.058L27.7629 943.805L33.9112 943.106L32.091 927.101L39.9161 926.21L42.8412 951.93Z" fill="#5988FF"/>
<path d="M1.59053 900.835L1.12416 888.674L21.1806 879.528L21.1644 879.106L0.466376 871.524L0 859.363L35.9764 857.983L36.343 867.542L15.5442 868.34L15.5549 868.622L36.38 875.847L36.6011 881.611L16.2501 890.417L16.2609 890.698L37.2003 889.894L37.5669 899.454L1.59053 900.835Z" fill="#5988FF"/>
<path d="M36.1777 837.291L35.9435 847.84L0.213396 835.156L0.510028 821.794L36.7678 810.709L36.5337 821.257L10.2772 828.554L10.271 828.836L36.1777 837.291ZM21.9332 838.945L22.3735 819.114L29.6848 819.276L29.2445 839.107L21.9332 838.945Z" fill="#5988FF"/>
<path d="M37.3327 801.206L1.42948 798.528L2.58507 783.025C2.78377 780.36 3.48356 778.067 4.68443 776.146C5.8853 774.225 7.47965 772.781 9.46746 771.812C11.4553 770.843 13.7231 770.454 16.2709 770.644C18.8421 770.836 21.0258 771.575 22.822 772.861C24.6191 774.135 25.9494 775.839 26.8128 777.973C27.6771 780.095 28.0073 782.523 27.8033 785.259L27.1131 794.519L19.5398 793.954L20.0836 786.658C20.169 785.513 20.0431 784.522 19.7059 783.685C19.3578 782.836 18.8259 782.168 18.1102 781.679C17.3953 781.179 16.5295 780.891 15.5127 780.816C14.4842 780.739 13.5911 780.896 12.8334 781.286C12.0649 781.663 11.4572 782.247 11.0106 783.037C10.5531 783.814 10.2816 784.775 10.1962 785.921L9.93999 789.358L38.0595 791.456L37.3327 801.206Z" fill="#5988FF"/>
<path d="M18.321 739.737C17.1463 739.687 16.1852 740.011 15.4376 740.71C14.6915 741.398 14.2214 742.527 14.0275 744.097C13.904 745.098 13.9249 745.933 14.0901 746.604C14.2452 747.261 14.5076 747.766 14.8773 748.118C15.2471 748.471 15.693 748.686 16.2149 748.762C16.6424 748.838 17.0414 748.811 17.4119 748.68C17.7722 748.535 18.1163 748.282 18.4443 747.921C18.7607 747.559 19.0674 747.083 19.3645 746.493C19.6616 745.904 19.9499 745.195 20.2292 744.367L21.2193 741.513C21.8822 739.587 22.6436 737.962 23.5037 736.639C24.3637 735.316 25.3143 734.264 26.3554 733.483C27.3849 732.7 28.5013 732.171 29.7045 731.894C30.9091 731.606 32.1926 731.54 33.5549 731.697C35.903 731.999 37.8194 732.832 39.3041 734.196C40.7889 735.561 41.8222 737.378 42.4041 739.647C42.9875 741.905 43.0924 744.546 42.719 747.571C42.3355 750.678 41.5414 753.332 40.3366 755.534C39.1334 757.724 37.499 759.341 35.4334 760.385C33.3577 761.417 30.8245 761.753 27.8338 761.396L28.9714 752.181C30.0719 752.258 31.0246 752.098 31.8293 751.701C32.634 751.304 33.2829 750.687 33.7759 749.851C34.2703 749.002 34.5937 747.961 34.7459 746.728C34.8738 745.692 34.8528 744.81 34.6831 744.08C34.5134 743.35 34.224 742.777 33.8149 742.36C33.4058 741.943 32.9112 741.693 32.3311 741.61C31.783 741.554 31.2838 741.675 30.8336 741.974C30.3733 742.26 29.9321 742.772 29.5102 743.512C29.0767 744.25 28.6326 745.264 28.1781 746.554L26.9709 750.02C25.8939 753.1 24.4402 755.454 22.6095 757.083C20.7687 758.698 18.4532 759.327 15.6632 758.971C13.3936 758.702 11.4852 757.852 9.93781 756.421C8.38027 754.976 7.25891 753.107 6.57374 750.814C5.89001 748.508 5.72267 745.942 6.07171 743.115C6.42793 740.229 7.21873 737.793 8.44412 735.806C9.6695 733.82 11.2307 732.365 13.1278 731.441C15.0147 730.505 17.1279 730.175 19.4672 730.452L18.321 739.737Z" fill="#5988FF"/>
<path d="M30.9309 667.46C29.7652 667.306 28.7794 667.545 27.9734 668.176C27.1699 668.795 26.6027 669.879 26.2718 671.426C26.0611 672.412 26.0086 673.246 26.1145 673.928C26.2114 674.597 26.4285 675.122 26.7659 675.506C27.1033 675.89 27.5287 676.143 28.0419 676.265C28.4611 676.379 28.8609 676.386 29.2415 676.288C29.6131 676.175 29.9781 675.954 30.3364 675.623C30.6833 675.289 31.0306 674.842 31.3783 674.281C31.7259 673.72 32.0751 673.039 32.426 672.239L33.6624 669.483C34.4916 667.622 35.3926 666.07 36.3653 664.828C37.338 663.585 38.3771 662.621 39.4827 661.934C40.5768 661.245 41.7352 660.815 42.9581 660.645C44.1833 660.464 45.4676 660.511 46.811 660.786C49.1236 661.293 50.9596 662.291 52.319 663.781C53.6784 665.27 54.5485 667.171 54.9292 669.482C55.3125 671.782 55.1855 674.422 54.5483 677.403C53.894 680.464 52.8702 683.039 51.4772 685.126C50.0865 687.203 48.3166 688.67 46.1675 689.529C44.0094 690.374 41.4564 690.488 38.5086 689.869L40.4496 680.789C41.5392 680.962 42.5021 680.887 43.3385 680.562C44.1749 680.237 44.8754 679.68 45.4398 678.89C46.0067 678.088 46.4201 677.079 46.6799 675.864C46.898 674.844 46.9545 673.963 46.8494 673.221C46.7443 672.479 46.5063 671.883 46.1353 671.432C45.7643 670.981 45.2935 670.688 44.7229 670.554C44.1818 670.45 43.674 670.527 43.1993 670.785C42.7157 671.03 42.2313 671.502 41.7462 672.201C41.2497 672.898 40.7184 673.869 40.1525 675.115L38.6462 678.461C37.3034 681.435 35.6489 683.653 33.6825 685.114C31.7072 686.562 29.3455 686.986 26.5974 686.386C24.3601 685.919 22.5336 684.905 21.1176 683.344C19.6927 681.768 18.7395 679.808 18.258 677.463C17.779 675.106 17.8373 672.535 18.4328 669.75C19.0406 666.906 20.0419 664.549 21.4367 662.677C22.8315 660.806 24.5143 659.493 26.485 658.74C28.4467 657.973 30.5806 657.83 32.8866 658.311L30.9309 667.46Z" fill="#5988FF"/>
<path d="M30.2183 623.38L32.7369 613.933L55.0224 619.878C57.6722 620.585 59.7961 621.831 61.3943 623.617C62.9841 625.388 64.0051 627.541 64.4573 630.076C64.8981 632.608 64.7214 635.364 63.9271 638.343C63.1268 641.345 61.9053 643.834 60.2625 645.81C58.6084 647.783 56.6513 649.142 54.391 649.886C52.1224 650.615 49.6632 650.626 47.0134 649.919L24.728 643.974L27.2466 634.527L48.7167 640.254C49.7925 640.541 50.8185 640.56 51.7946 640.311C52.7594 640.059 53.5913 639.577 54.2904 638.866C54.9925 638.143 55.487 637.244 55.7739 636.168C56.0638 635.08 56.0827 634.054 55.8306 633.089C55.5785 632.124 55.0969 631.291 54.3857 630.592C53.6633 629.89 52.7642 629.395 51.6884 629.108L30.2183 623.38Z" fill="#5988FF"/>
<path d="M70.5555 612.981L36.2751 601.974L41.0244 587.173C41.841 584.628 43.0577 582.562 44.6745 580.975C46.2912 579.389 48.1792 578.358 50.3384 577.881C52.4976 577.405 54.7935 577.557 57.2261 578.338C59.6811 579.126 61.6314 580.356 63.077 582.027C64.5262 583.686 65.421 585.654 65.7614 587.931C66.1055 590.196 65.8584 592.634 65.0203 595.246L62.1837 604.087L54.9527 601.766L57.1876 594.8C57.5386 593.706 57.648 592.713 57.5157 591.821C57.3759 590.914 57.0151 590.14 56.4334 589.497C55.8554 588.844 55.0809 588.361 54.1101 588.05C53.1281 587.734 52.2231 587.678 51.3952 587.88C50.5596 588.067 49.8324 588.492 49.2134 589.156C48.5869 589.804 48.0981 590.675 47.7471 591.769L46.6941 595.051L73.5426 603.671L70.5555 612.981Z" fill="#5988FF"/>
<path d="M82.8025 575.645L49.0951 562.991L54.5553 548.436C55.4941 545.934 56.8094 543.929 58.501 542.423C60.1927 540.917 62.1284 539.978 64.3081 539.607C66.4878 539.236 68.7736 539.499 71.1656 540.397C73.5796 541.303 75.468 542.626 76.8311 544.364C78.1982 546.092 78.9967 548.101 79.2266 550.392C79.4606 552.671 79.0958 555.094 78.1322 557.663L74.871 566.356L67.7608 563.687L70.3303 556.838C70.7338 555.762 70.8911 554.776 70.8022 553.878C70.7064 552.966 70.3836 552.174 69.8337 551.505C69.2879 550.824 68.5378 550.304 67.5832 549.946C66.6176 549.584 65.7164 549.483 64.8796 549.645C64.036 549.792 63.289 550.181 62.6387 550.813C61.9815 551.431 61.4511 552.277 61.0476 553.353L59.837 556.58L86.2367 566.491L82.8025 575.645Z" fill="#5988FF"/>
<path d="M96.8878 538.942L63.7895 524.771L67.6356 515.782L93.4937 526.854L99.2214 513.468L106.462 516.568L96.8878 538.942Z" fill="#5988FF"/>
<path d="M110.595 507.423L78.1506 491.812L89.3978 468.421L96.4951 471.836L89.4846 486.416L95.0611 489.099L101.492 475.724L108.59 479.139L102.158 492.514L107.735 495.197L114.715 480.681L121.812 484.096L110.595 507.423Z" fill="#5988FF"/>
<path d="M102.882 442.201L108.961 431.66L130.806 434.603L131.017 434.237L117.535 416.793L123.614 406.252L154.8 424.249L150.021 432.536L131.992 422.131L131.851 422.375L145.631 439.585L142.749 444.581L120.836 441.193L120.696 441.436L138.847 451.911L134.068 460.198L102.882 442.201Z" fill="#5988FF"/>
<path d="M165.986 406.843L160.172 415.647L136.683 385.876L144.047 374.725L180.637 384.658L174.823 393.462L148.715 385.65L148.56 385.885L165.986 406.843ZM153.049 400.654L163.979 384.104L170.081 388.136L159.151 404.687L153.049 400.654Z" fill="#5988FF"/>
<path d="M186.174 376.916L157.212 355.523L166.443 343.017C168.03 340.867 169.843 339.299 171.882 338.313C173.921 337.327 176.04 336.953 178.238 337.192C180.436 337.432 182.563 338.31 184.618 339.828C186.692 341.361 188.147 343.149 188.983 345.195C189.825 347.231 190.044 349.382 189.639 351.647C189.241 353.904 188.227 356.135 186.598 358.342L181.085 365.812L174.975 361.299L179.319 355.414C180.002 354.49 180.423 353.584 180.583 352.696C180.74 351.792 180.646 350.943 180.3 350.148C179.961 349.344 179.381 348.639 178.561 348.034C177.732 347.421 176.892 347.078 176.043 347.004C175.192 346.914 174.367 347.085 173.568 347.515C172.767 347.929 172.026 348.598 171.343 349.522L169.297 352.295L191.98 369.051L186.174 376.916Z" fill="#5988FF"/>
<path d="M202.807 314.761C201.84 314.092 200.854 313.855 199.849 314.048C198.852 314.232 197.853 314.938 196.852 316.164C196.215 316.945 195.788 317.663 195.571 318.318C195.353 318.957 195.306 319.524 195.431 320.02C195.556 320.516 195.819 320.935 196.22 321.277C196.542 321.57 196.894 321.759 197.277 321.845C197.659 321.915 198.085 321.884 198.555 321.753C199.016 321.615 199.529 321.375 200.094 321.035C200.659 320.694 201.28 320.248 201.958 319.696L204.315 317.808C205.902 316.53 207.411 315.561 208.844 314.899C210.276 314.238 211.641 313.854 212.937 313.747C214.225 313.633 215.452 313.78 216.618 314.187C217.791 314.585 218.912 315.213 219.982 316.071C221.809 317.577 222.987 319.303 223.517 321.249C224.047 323.195 223.955 325.284 223.239 327.514C222.531 329.736 221.214 332.027 219.287 334.389C217.309 336.814 215.224 338.637 213.032 339.859C210.847 341.072 208.603 341.57 206.299 341.354C203.993 341.121 201.67 340.056 199.329 338.16L205.197 330.967C206.088 331.618 206.979 331.99 207.872 332.083C208.764 332.176 209.642 332 210.504 331.554C211.375 331.099 212.203 330.39 212.988 329.427C213.647 328.619 214.1 327.861 214.344 327.153C214.589 326.445 214.65 325.805 214.525 325.235C214.401 324.664 214.115 324.189 213.669 323.809C213.235 323.47 212.747 323.307 212.207 323.32C211.666 323.316 211.019 323.515 210.269 323.916C209.509 324.31 208.593 324.932 207.521 325.782L204.655 328.072C202.103 330.105 199.62 331.323 197.203 331.726C194.785 332.113 192.49 331.412 190.318 329.624C188.541 328.188 187.378 326.452 186.83 324.416C186.281 322.363 186.327 320.184 186.968 317.878C187.616 315.562 188.841 313.301 190.642 311.094C192.479 308.841 194.446 307.201 196.54 306.172C198.635 305.143 200.731 304.743 202.829 304.972C204.924 305.185 206.888 306.032 208.721 307.513L202.807 314.761Z" fill="#5988FF"/>
<path d="M251.958 260.303C251.053 259.552 250.092 259.229 249.074 259.334C248.064 259.43 247.007 260.045 245.903 261.178C245.2 261.901 244.711 262.579 244.438 263.212C244.164 263.829 244.068 264.39 244.149 264.895C244.23 265.399 244.456 265.84 244.825 266.217C245.12 266.536 245.454 266.755 245.829 266.875C246.203 266.978 246.63 266.985 247.109 266.895C247.58 266.798 248.112 266.605 248.705 266.315C249.298 266.025 249.956 265.635 250.679 265.145L253.193 263.47C254.886 262.337 256.474 261.504 257.959 260.97C259.444 260.437 260.837 260.174 262.138 260.182C263.431 260.181 264.64 260.435 265.766 260.943C266.899 261.442 267.961 262.166 268.952 263.114C270.639 264.775 271.662 266.598 272.02 268.583C272.377 270.568 272.102 272.64 271.194 274.799C270.294 276.95 268.78 279.117 266.654 281.301C264.471 283.543 262.234 285.177 259.943 286.202C257.661 287.218 255.382 287.517 253.105 287.1C250.829 286.665 248.608 285.401 246.442 283.307L252.919 276.656C253.749 277.383 254.604 277.832 255.485 278.003C256.365 278.174 257.255 278.075 258.154 277.706C259.06 277.33 259.947 276.696 260.814 275.806C261.542 275.059 262.059 274.343 262.365 273.659C262.671 272.975 262.787 272.344 262.713 271.765C262.639 271.185 262.396 270.687 261.984 270.269C261.582 269.893 261.111 269.688 260.572 269.654C260.032 269.603 259.371 269.744 258.588 270.078C257.797 270.403 256.83 270.942 255.688 271.695L252.631 273.725C249.912 275.526 247.331 276.522 244.888 276.712C242.446 276.885 240.221 275.985 238.215 274.014C236.569 272.427 235.563 270.595 235.196 268.519C234.829 266.427 235.066 264.26 235.907 262.018C236.756 259.769 238.174 257.624 240.161 255.583C242.189 253.5 244.291 252.038 246.468 251.197C248.645 250.356 250.768 250.142 252.837 250.554C254.906 250.95 256.788 251.966 258.484 253.601L251.958 260.303Z" fill="#5988FF"/>
<path d="M274.823 222.615L281.984 215.96L297.681 232.864C299.548 234.874 300.682 237.061 301.084 239.423C301.487 241.769 301.205 244.135 300.238 246.522C299.263 248.9 297.647 251.138 295.388 253.237C293.113 255.351 290.754 256.807 288.311 257.605C285.861 258.394 283.481 258.501 281.172 257.926C278.863 257.335 276.776 256.035 274.91 254.025L259.212 237.12L266.374 230.466L281.497 246.752C282.254 247.568 283.113 248.13 284.071 248.439C285.022 248.74 285.983 248.775 286.953 248.546C287.932 248.308 288.83 247.81 289.646 247.052C290.47 246.286 291.032 245.428 291.333 244.476C291.633 243.525 291.668 242.564 291.439 241.593C291.201 240.614 290.704 239.716 289.946 238.9L274.823 222.615Z" fill="#5988FF"/>
<path d="M314.5 235.302L291.345 207.724L303.245 197.725C305.291 196.006 307.42 194.906 309.633 194.425C311.846 193.943 313.993 194.076 316.074 194.823C318.156 195.57 320.018 196.922 321.661 198.879C323.319 200.854 324.315 202.934 324.649 205.118C324.992 207.295 324.702 209.437 323.778 211.545C322.864 213.646 321.356 215.578 319.256 217.342L312.149 223.314L307.265 217.497L312.864 212.792C313.744 212.053 314.365 211.271 314.728 210.445C315.092 209.603 315.199 208.756 315.049 207.902C314.908 207.041 314.509 206.22 313.853 205.439C313.19 204.649 312.454 204.119 311.646 203.849C310.839 203.562 309.997 203.535 309.12 203.766C308.245 203.981 307.367 204.458 306.488 205.197L303.849 207.414L321.985 229.013L314.5 235.302Z" fill="#5988FF"/>
<path d="M344.743 210.225L322.95 181.557L335.319 172.147C337.446 170.529 339.627 169.533 341.86 169.16C344.094 168.786 346.232 169.023 348.275 169.87C350.317 170.717 352.112 172.157 353.658 174.192C355.219 176.245 356.113 178.37 356.341 180.568C356.579 182.759 356.185 184.884 355.16 186.945C354.145 188.999 352.546 190.856 350.363 192.517L342.975 198.137L338.378 192.09L344.199 187.662C345.113 186.967 345.771 186.215 346.174 185.408C346.578 184.585 346.726 183.743 346.618 182.884C346.518 182.017 346.16 181.177 345.542 180.366C344.918 179.544 344.209 178.979 343.415 178.67C342.622 178.345 341.783 178.277 340.896 178.466C340.011 178.638 339.111 179.072 338.197 179.767L335.454 181.854L352.523 204.306L344.743 210.225Z" fill="#5988FF"/>
<path d="M376.203 186.663L355.733 157.035L363.774 151.476L379.766 174.623L391.74 166.344L396.218 172.825L376.203 186.663Z" fill="#5988FF"/>
<path d="M404.586 167.288L385.436 136.791L407.408 122.984L411.597 129.656L397.902 138.261L401.193 143.503L413.757 135.608L417.946 142.28L405.382 150.174L408.674 155.416L422.31 146.848L426.499 153.519L404.586 167.288Z" fill="#5988FF"/>
<path d="M432.779 107.975L443.536 102.291L460.459 116.42L460.832 116.223L458.708 94.2758L469.465 88.5925L486.279 120.439L477.823 124.906L468.102 106.495L467.853 106.627L470.354 128.534L465.256 131.228L448.512 116.686L448.263 116.818L458.05 135.353L449.594 139.821L432.779 107.975Z" fill="#5988FF"/>
<path d="M505.013 111.665L495.405 116.019L491.373 78.3081L503.543 72.793L529.225 100.693L519.617 105.047L501.678 84.5268L501.421 84.6429L505.013 111.665ZM497.358 99.5351L515.421 91.3495L518.439 98.0131L500.376 106.199L497.358 99.5351Z" fill="#5988FF"/>
<path d="M538.034 97.0904L524.909 63.5538L539.38 57.8868C541.869 56.9123 544.238 56.551 546.489 56.8027C548.739 57.0544 550.731 57.8669 552.464 59.2404C554.198 60.6138 555.53 62.4905 556.461 64.8703C557.401 67.272 557.68 69.5611 557.299 71.7376C556.928 73.9097 555.968 75.8468 554.419 77.5488C552.881 79.2464 550.835 80.5953 548.281 81.5954L539.638 84.9802L536.87 77.9061L543.679 75.2393C544.749 74.8204 545.587 74.278 546.195 73.6119C546.81 72.9307 547.182 72.1616 547.312 71.3048C547.454 70.4437 547.338 69.5383 546.967 68.5885C546.591 67.6279 546.063 66.8903 545.383 66.3759C544.71 65.8462 543.922 65.5509 543.017 65.4898C542.118 65.4135 541.134 65.5848 540.065 66.0036L536.856 67.2601L547.136 93.5261L538.034 97.0904Z" fill="#5988FF"/>
<path d="M585.201 53.3427C584.738 52.2615 584.03 51.5351 583.077 51.1635C582.134 50.7881 580.913 50.8529 579.414 51.3578C578.459 51.6795 577.715 52.0598 577.182 52.4989C576.657 52.923 576.316 53.3782 576.158 53.8643C576 54.3505 576 54.8454 576.157 55.3491C576.273 55.7677 576.47 56.1156 576.749 56.3929C577.035 56.6552 577.412 56.8562 577.879 56.9957C578.343 57.124 578.905 57.1947 579.564 57.2076C580.224 57.2204 580.987 57.1737 581.854 57.0673L584.855 56.7248C586.878 56.489 588.672 56.4725 590.236 56.6755C591.801 56.8785 593.16 57.2805 594.315 57.8813C595.465 58.4711 596.426 59.2487 597.196 60.214C597.977 61.1756 598.592 62.3045 599.04 63.6008C599.785 65.849 599.863 67.9378 599.276 69.8674C598.688 71.7969 597.498 73.5151 595.705 75.0219C593.923 76.5249 591.588 77.7626 588.701 78.7351C585.735 79.7337 582.999 80.1663 580.494 80.0328C577.999 79.8956 575.834 79.1216 573.999 77.7108C572.172 76.2852 570.772 74.1465 569.8 71.2947L578.597 68.3325C579.004 69.3582 579.56 70.1481 580.266 70.7021C580.972 71.2561 581.808 71.5743 582.776 71.6567C583.754 71.7354 584.833 71.5765 586.01 71.18C586.998 70.8472 587.785 70.4463 588.369 69.9775C588.953 69.5086 589.344 68.9995 589.543 68.4503C589.741 67.901 589.753 67.3467 589.577 66.7874C589.39 66.2689 589.065 65.8714 588.601 65.5947C588.144 65.3032 587.491 65.1271 586.642 65.0666C585.79 64.995 584.683 65.0335 583.324 65.1821L579.678 65.5932C576.436 65.955 573.686 65.6629 571.426 64.7168C569.173 63.7558 567.604 61.9401 566.718 59.2697C565.978 57.1068 565.918 55.0179 566.538 53.003C567.166 50.9732 568.365 49.1531 570.135 47.5426C571.917 45.9283 574.157 44.6668 576.856 43.7579C579.611 42.8303 582.149 42.4892 584.469 42.7344C586.79 42.9796 588.777 43.7579 590.43 45.0691C592.091 46.3655 593.302 48.1284 594.065 50.358L585.201 53.3427Z" fill="#5988FF"/>
<path d="M655.794 33.434C655.428 32.3164 654.786 31.5307 653.869 31.0768C652.963 30.6202 651.741 30.5777 650.203 30.9491C649.224 31.1858 648.449 31.4994 647.881 31.89C647.32 32.2665 646.94 32.69 646.74 33.1604C646.54 33.6308 646.497 34.1238 646.609 34.6394C646.688 35.0665 646.854 35.4304 647.108 35.731C647.37 36.0175 647.727 36.2507 648.181 36.4307C648.631 36.5992 649.185 36.7189 649.841 36.7896C650.497 36.8603 651.261 36.8807 652.134 36.8507L655.154 36.7728C657.189 36.7153 658.977 36.8562 660.518 37.1957C662.059 37.5351 663.378 38.0548 664.475 38.7546C665.57 39.443 666.458 40.3018 667.141 41.331C667.834 42.3574 668.348 43.5359 668.681 44.8665C669.225 47.1713 669.12 49.259 668.366 51.1296C667.612 53.0002 666.276 54.6074 664.358 55.9511C662.451 57.292 660.017 58.3202 657.055 59.0356C654.013 59.7702 651.25 59.9611 648.765 59.6084C646.292 59.2529 644.204 58.292 642.5 56.7257C640.804 55.1452 639.597 52.892 638.879 49.9659L647.901 47.7867C648.217 48.8442 648.702 49.6798 649.357 50.2936C650.011 50.9074 650.816 51.2978 651.773 51.4648C652.741 51.629 653.829 51.5652 655.036 51.2736C656.05 51.0287 656.869 50.6984 657.492 50.2826C658.115 49.8668 658.549 49.394 658.795 48.8642C659.041 48.3345 659.101 47.7833 658.975 47.2108C658.834 46.6779 658.545 46.2533 658.107 45.937C657.677 45.6065 657.043 45.3739 656.202 45.2392C655.359 45.093 654.254 45.0344 652.886 45.0631L649.219 45.1529C645.958 45.229 643.243 44.6966 641.075 43.5559C638.916 42.4011 637.511 40.4548 636.863 37.7169C636.315 35.4974 636.438 33.4113 637.233 31.4586C638.036 29.4917 639.39 27.7837 641.295 26.3347C643.211 24.883 645.554 23.8228 648.322 23.1542C651.147 22.4718 653.705 22.3545 655.995 22.8024C658.286 23.2503 660.197 24.1998 661.728 25.6509C663.269 27.088 664.321 28.9504 664.885 31.2383L655.794 33.434Z" fill="#5988FF"/>
<path d="M695.21 13.7152L704.814 11.8979L709.101 34.568C709.611 37.2635 709.407 39.7182 708.49 41.932C707.582 44.1322 706.083 45.9847 703.994 47.4896C701.903 48.983 699.343 50.0163 696.315 50.5894C693.263 51.1668 690.491 51.1424 687.999 50.5163C685.505 49.8786 683.434 48.7015 681.785 46.9851C680.146 45.255 679.072 43.0422 678.562 40.3467L674.275 17.6766L683.879 15.8593L688.009 37.7C688.216 38.7943 688.643 39.7277 689.29 40.5001C689.935 41.2611 690.729 41.8028 691.673 42.1254C692.628 42.4458 693.652 42.5024 694.746 42.2954C695.852 42.0863 696.785 41.6591 697.546 41.0141C698.306 40.369 698.848 39.5745 699.17 38.6306C699.491 37.6751 699.547 36.6502 699.34 35.5559L695.21 13.7152Z" fill="#5988FF"/>
<path d="M722.039 45.5904L717.123 9.9129L732.517 7.78987C735.164 7.42482 737.552 7.62803 739.682 8.39948C741.811 9.17094 743.558 10.4271 744.922 12.1681C746.285 13.909 747.142 16.0454 747.491 18.5772C747.843 21.1322 747.579 23.4231 746.699 25.4498C745.83 27.4749 744.444 29.1336 742.54 30.4258C740.647 31.7164 738.343 32.549 735.626 32.9236L726.431 34.1917L725.394 26.666L732.639 25.6669C733.776 25.51 734.719 25.1789 735.465 24.6735C736.222 24.155 736.764 23.4944 737.091 22.6919C737.43 21.8878 737.529 20.9805 737.39 19.9701C737.249 18.9481 736.909 18.1075 736.368 17.4483C735.838 16.7759 735.14 16.3041 734.274 16.0329C733.419 15.7485 732.422 15.6847 731.284 15.8417L727.871 16.3124L731.722 44.2551L722.039 45.5904Z" fill="#5988FF"/>
<path d="M760.988 40.4765L757.804 4.60263L773.283 3.22779C775.945 2.99139 778.32 3.31003 780.41 4.18373C782.499 5.05742 784.183 6.39674 785.461 8.20171C786.739 10.0067 787.491 12.182 787.717 14.7277C787.945 17.2968 787.57 19.5722 786.593 21.554C785.628 23.5346 784.163 25.1242 782.198 26.3226C780.246 27.52 777.904 28.24 775.172 28.4827L765.926 29.3038L765.255 21.7367L772.539 21.0897C773.683 20.9881 774.64 20.703 775.41 20.2344C776.191 19.7531 776.765 19.1196 777.13 18.3339C777.507 17.5471 777.651 16.6458 777.561 15.6298C777.47 14.6022 777.17 13.746 776.662 13.0614C776.165 12.3641 775.491 11.859 774.639 11.5462C773.799 11.2207 772.806 11.1088 771.662 11.2104L768.23 11.5152L770.724 39.6117L760.988 40.4765Z" fill="#5988FF"/>
<path d="M800.159 37.2936L798.606 1.31213L808.371 0.89043L809.584 29.0009L824.126 28.3729L824.466 36.2439L800.159 37.2936Z" fill="#5988FF"/>
<path d="M834.496 36.0149L834.523 0L860.471 0.0196458L860.465 7.89791L844.292 7.88567L844.287 14.0757L859.124 14.087L859.118 21.9652L844.281 21.954L844.276 28.1441L860.379 28.1563L860.373 36.0345L834.496 36.0149Z" fill="#5988FF"/>
<path d="M889.936 0.832011L902.066 1.7522L908.868 22.7258L909.289 22.7578L919.175 3.05003L931.305 3.97022L928.582 39.882L919.047 39.1587L920.62 18.3971L920.34 18.3759L910.794 38.2505L905.045 37.8143L898.614 16.5867L898.334 16.5654L896.749 37.4672L887.214 36.7438L889.936 0.832011Z" fill="#5988FF"/>
<path d="M949.11 42.4368L938.66 41.0038L955.324 6.93714L968.56 8.75235L975.444 46.0481L964.994 44.6151L960.735 17.6901L960.456 17.6519L949.11 42.4368ZM949.089 28.092L968.735 30.7861L967.742 38.0339L948.096 35.3397L949.089 28.092Z" fill="#5988FF"/>
<path d="M984.819 47.6916L991.564 12.3144L1006.83 15.2268C1009.45 15.7276 1011.65 16.684 1013.42 18.0961C1015.19 19.5081 1016.45 21.257 1017.18 23.3428C1017.92 25.4285 1018.05 27.7267 1017.57 30.2372C1017.09 32.7707 1016.1 34.8569 1014.62 36.4957C1013.15 38.1367 1011.31 39.2649 1009.09 39.8802C1006.88 40.4977 1004.43 40.5495 1001.74 40.0356L992.623 38.296L994.046 30.8336L1001.23 32.2042C1002.36 32.4194 1003.36 32.407 1004.23 32.1671C1005.11 31.9177 1005.83 31.4652 1006.4 30.8095C1006.98 30.1559 1007.36 29.3282 1007.55 28.3263C1007.75 27.3129 1007.69 26.4074 1007.39 25.61C1007.1 24.8032 1006.59 24.1329 1005.86 23.5991C1005.14 23.056 1004.22 22.6769 1003.09 22.4616L999.703 21.8159L994.42 49.5234L984.819 47.6916Z" fill="#5988FF"/>
<path d="M1048.03 35.7913C1048.21 34.6297 1048 33.6376 1047.39 32.8151C1046.79 31.9953 1045.73 31.3997 1044.19 31.0282C1043.21 30.7916 1042.38 30.7173 1041.69 30.8053C1041.02 30.8846 1040.49 31.0879 1040.1 31.4153C1039.71 31.7426 1039.44 32.1613 1039.31 32.6714C1039.18 33.0875 1039.16 33.4872 1039.25 33.8703C1039.36 34.2448 1039.57 34.6156 1039.89 34.9827C1040.21 35.3384 1040.65 35.6974 1041.2 36.0597C1041.75 36.4221 1042.42 36.7892 1043.21 37.161L1045.94 38.4697C1047.77 39.3477 1049.3 40.2894 1050.52 41.2947C1051.73 42.3 1052.67 43.3644 1053.33 44.488C1053.99 45.6001 1054.39 46.7699 1054.52 47.9971C1054.67 49.2272 1054.59 50.5102 1054.28 51.8463C1053.72 54.1456 1052.67 55.9554 1051.15 57.2757C1049.62 58.596 1047.7 59.4163 1045.38 59.7364C1043.07 60.0593 1040.44 59.863 1037.47 59.1477C1034.43 58.413 1031.89 57.3218 1029.84 55.8739C1027.8 54.4288 1026.38 52.6205 1025.58 50.4488C1024.79 48.2686 1024.74 45.7126 1025.44 42.7811L1034.46 44.9603C1034.26 46.0452 1034.31 47.0102 1034.61 47.8551C1034.91 48.7 1035.45 49.4151 1036.23 50.0003C1037.01 50.5882 1038.01 51.028 1039.22 51.3197C1040.23 51.5645 1041.11 51.6442 1041.86 51.5586C1042.6 51.4729 1043.2 51.2505 1043.66 50.8914C1044.12 50.5322 1044.43 50.0691 1044.58 49.5021C1044.69 48.9637 1044.63 48.4538 1044.38 47.9724C1044.15 47.4823 1043.69 46.9856 1043.01 46.4821C1042.32 45.9673 1041.37 45.4106 1040.14 44.812L1036.83 43.2179C1033.9 41.7971 1031.72 40.0844 1030.32 38.0798C1028.92 36.0665 1028.56 33.6937 1029.23 30.9613C1029.76 28.7363 1030.82 26.9364 1032.41 25.5614C1034.03 24.1779 1036.01 23.2761 1038.37 22.8561C1040.73 22.4389 1043.3 22.5646 1046.07 23.2332C1048.9 23.9156 1051.22 24.9787 1053.06 26.4226C1054.89 27.8665 1056.16 29.5837 1056.86 31.5742C1057.58 33.556 1057.66 35.6936 1057.12 37.987L1048.03 35.7913Z" fill="#5988FF"/>
<path d="M1118.38 56.5473C1118.66 55.4063 1118.54 54.3993 1118.01 53.5265C1117.48 52.6575 1116.47 51.9705 1114.97 51.4655C1114.02 51.1439 1113.19 50.9969 1112.5 51.0245C1111.83 51.0447 1111.28 51.2007 1110.86 51.4923C1110.44 51.784 1110.14 52.1779 1109.96 52.6742C1109.8 53.0778 1109.75 53.4743 1109.8 53.8638C1109.87 54.2458 1110.05 54.6338 1110.34 55.0276C1110.63 55.4103 1111.04 55.8063 1111.55 56.2157C1112.07 56.625 1112.71 57.0495 1113.46 57.4892L1116.06 59.0318C1117.81 60.0676 1119.25 61.1395 1120.38 62.2477C1121.5 63.3558 1122.34 64.4983 1122.89 65.6751C1123.45 66.8409 1123.75 68.0411 1123.78 69.2757C1123.82 70.5141 1123.63 71.7852 1123.2 73.0889C1122.43 75.3296 1121.23 77.0407 1119.6 78.2222C1117.97 79.4037 1115.98 80.0522 1113.64 80.1676C1111.31 80.2868 1108.7 79.8601 1105.82 78.8877C1102.85 77.8891 1100.41 76.5787 1098.5 74.9567C1096.59 73.3383 1095.34 71.4124 1094.73 69.1788C1094.13 66.9378 1094.31 64.3876 1095.26 61.5284L1104.06 64.4906C1103.76 65.5537 1103.73 66.5194 1103.96 67.3876C1104.18 68.2558 1104.66 69.0153 1105.38 69.6662C1106.11 70.3209 1107.06 70.8464 1108.24 71.2429C1109.23 71.5758 1110.1 71.7322 1110.85 71.7122C1111.6 71.6921 1112.21 71.5234 1112.71 71.206C1113.2 70.8887 1113.54 70.4541 1113.74 69.9023C1113.9 69.3763 1113.88 68.8628 1113.68 68.3617C1113.49 67.8532 1113.08 67.3181 1112.44 66.7564C1111.8 66.1836 1110.9 65.5452 1109.73 64.841L1106.58 62.9632C1103.77 61.2903 1101.76 59.3936 1100.53 57.2731C1099.32 55.1452 1099.17 52.7498 1100.08 50.0869C1100.79 47.9165 1102.01 46.2166 1103.72 44.9871C1105.45 43.7502 1107.5 43.0259 1109.89 42.8143C1112.28 42.6063 1114.83 42.9568 1117.53 43.8656C1120.28 44.7932 1122.51 46.0566 1124.21 47.6557C1125.91 49.2549 1127.02 51.0767 1127.55 53.121C1128.08 55.1579 1127.98 57.2949 1127.24 59.5319L1118.38 56.5473Z" fill="#5988FF"/>
<path d="M1162.24 60.8552L1171.34 64.4334L1162.9 85.905C1161.89 88.458 1160.41 90.4271 1158.46 91.8123C1156.52 93.1908 1154.26 93.9605 1151.69 94.1214C1149.13 94.2714 1146.41 93.7822 1143.54 92.6538C1140.65 91.5169 1138.32 90.0197 1136.54 88.1622C1134.77 86.2937 1133.65 84.194 1133.16 81.863C1132.7 79.5254 1132.97 77.0801 1133.97 74.527L1142.41 53.0554L1151.51 56.6336L1143.38 77.3196C1142.97 78.3561 1142.83 79.3736 1142.97 80.3721C1143.11 81.3596 1143.49 82.2413 1144.12 83.017C1144.76 83.797 1145.6 84.3908 1146.63 84.7984C1147.68 85.2102 1148.7 85.3458 1149.68 85.2051C1150.67 85.0643 1151.55 84.6803 1152.33 84.0532C1153.11 83.4151 1153.7 82.5778 1154.11 81.5413L1162.24 60.8552Z" fill="#5988FF"/>
<path d="M1167.98 102.127L1182.81 69.3106L1196.97 75.7149C1199.4 76.816 1201.32 78.2603 1202.71 80.0476C1204.1 81.8349 1204.91 83.8286 1205.14 86.0287C1205.37 88.2288 1204.95 90.4932 1203.9 92.822C1202.84 95.1722 1201.39 96.9705 1199.57 98.2171C1197.76 99.4685 1195.7 100.134 1193.4 100.213C1191.11 100.297 1188.72 99.7744 1186.22 98.6442L1177.76 94.8191L1180.89 87.8968L1187.55 90.9106C1188.6 91.3839 1189.58 91.6055 1190.48 91.5756C1191.39 91.5398 1192.2 91.2694 1192.91 90.7644C1193.62 90.2643 1194.19 89.5495 1194.61 88.6201C1195.03 87.6801 1195.19 86.7871 1195.09 85.9413C1195 85.0895 1194.66 84.3184 1194.07 83.6278C1193.5 82.9313 1192.69 82.3464 1191.64 81.8731L1188.5 80.4532L1176.88 106.155L1167.98 102.127Z" fill="#5988FF"/>
<path d="M1203.67 118.547L1220.07 86.4875L1233.9 93.5701C1236.28 94.7879 1238.12 96.3232 1239.43 98.1758C1240.73 100.028 1241.44 102.059 1241.56 104.268C1241.68 106.476 1241.16 108.718 1240 110.993C1238.82 113.289 1237.29 115.015 1235.41 116.172C1233.54 117.334 1231.45 117.899 1229.15 117.867C1226.86 117.84 1224.5 117.202 1222.06 115.952L1213.79 111.722L1217.25 104.959L1223.76 108.292C1224.79 108.815 1225.75 109.084 1226.65 109.098C1227.57 109.106 1228.39 108.876 1229.12 108.405C1229.85 107.94 1230.46 107.254 1230.92 106.346C1231.39 105.428 1231.59 104.543 1231.53 103.693C1231.48 102.838 1231.18 102.052 1230.62 101.333C1230.08 100.61 1229.3 99.9864 1228.28 99.463L1225.21 97.8926L1212.37 123.002L1203.67 118.547Z" fill="#5988FF"/>
<path d="M1238.51 136.722L1256.36 105.44L1264.85 110.285L1250.91 134.724L1263.55 141.939L1259.65 148.782L1238.51 136.722Z" fill="#5988FF"/>
<path d="M1268.26 153.932L1287.45 123.464L1309.41 137.303L1305.21 143.968L1291.52 135.342L1288.23 140.579L1300.78 148.492L1296.58 155.157L1284.03 147.244L1280.73 152.48L1294.35 161.069L1290.15 167.734L1268.26 153.932Z" fill="#5988FF"/>
<path d="M1333.91 153.688L1343.69 160.929L1338.28 182.305L1338.62 182.556L1357.48 171.142L1367.26 178.383L1345.83 207.328L1338.15 201.636L1350.53 184.902L1350.31 184.734L1331.65 196.471L1327.01 193.039L1332.87 171.646L1332.64 171.479L1320.18 188.326L1312.49 182.633L1333.91 153.688Z" fill="#5988FF"/>
<path d="M1361.85 220.425L1353.77 213.645L1386.01 193.689L1396.24 202.276L1382.22 237.511L1374.13 230.731L1384.86 205.672L1384.65 205.492L1361.85 220.425ZM1369.47 208.272L1384.66 221.019L1379.96 226.624L1364.77 213.878L1369.47 208.272Z" fill="#5988FF"/>
<path d="M1389.27 243.896L1413.82 217.546L1425.19 228.143C1427.14 229.965 1428.49 231.945 1429.24 234.084C1429.99 236.223 1430.12 238.371 1429.63 240.528C1429.14 242.685 1428.03 244.699 1426.29 246.569C1424.53 248.456 1422.59 249.698 1420.46 250.296C1418.34 250.902 1416.18 250.874 1413.98 250.214C1411.78 249.562 1409.68 248.301 1407.67 246.43L1400.88 240.101L1406.06 234.543L1411.41 239.53C1412.25 240.313 1413.1 240.834 1413.97 241.094C1414.84 241.353 1415.7 241.356 1416.53 241.103C1417.36 240.858 1418.13 240.362 1418.83 239.616C1419.53 238.861 1419.97 238.066 1420.13 237.23C1420.32 236.394 1420.25 235.555 1419.91 234.713C1419.59 233.869 1419.01 233.056 1418.17 232.273L1415.65 229.923L1396.43 250.561L1389.27 243.896Z" fill="#5988FF"/>
<path d="M1449.11 267.498C1449.89 266.613 1450.23 265.66 1450.16 264.639C1450.09 263.627 1449.5 262.554 1448.4 261.42C1447.69 260.698 1447.03 260.192 1446.4 259.902C1445.79 259.612 1445.23 259.501 1444.73 259.569C1444.22 259.637 1443.78 259.851 1443.39 260.21C1443.06 260.496 1442.83 260.825 1442.71 261.196C1442.59 261.568 1442.57 261.994 1442.65 262.476C1442.74 262.95 1442.92 263.487 1443.19 264.088C1443.46 264.688 1443.84 265.356 1444.31 266.092L1445.91 268.65C1447 270.372 1447.79 271.983 1448.29 273.481C1448.78 274.98 1449.01 276.38 1448.97 277.681C1448.93 278.974 1448.65 280.177 1448.11 281.289C1447.58 282.409 1446.83 283.452 1445.86 284.418C1444.15 286.062 1442.3 287.037 1440.31 287.342C1438.32 287.648 1436.25 287.318 1434.12 286.353C1432 285.397 1429.87 283.827 1427.74 281.643C1425.56 279.401 1423.99 277.121 1423.02 274.804C1422.07 272.495 1421.83 270.208 1422.3 267.942C1422.8 265.677 1424.12 263.489 1426.27 261.378L1432.75 268.029C1432 268.84 1431.53 269.684 1431.33 270.56C1431.14 271.437 1431.21 272.329 1431.56 273.237C1431.91 274.154 1432.52 275.057 1433.39 275.947C1434.11 276.695 1434.82 277.23 1435.49 277.554C1436.17 277.878 1436.8 278.011 1437.38 277.952C1437.96 277.893 1438.46 277.664 1438.89 277.263C1439.28 276.87 1439.49 276.404 1439.54 275.866C1439.61 275.328 1439.48 274.663 1439.17 273.872C1438.87 273.072 1438.35 272.091 1437.63 270.929L1435.68 267.819C1433.95 265.052 1433.03 262.445 1432.9 259.998C1432.79 257.551 1433.75 255.35 1435.77 253.395C1437.4 251.791 1439.26 250.833 1441.34 250.521C1443.44 250.208 1445.6 250.502 1447.82 251.402C1450.04 252.31 1452.15 253.784 1454.14 255.825C1456.17 257.907 1457.57 260.048 1458.36 262.247C1459.14 264.446 1459.3 266.575 1458.83 268.633C1458.38 270.691 1457.32 272.547 1455.64 274.2L1449.11 267.498Z" fill="#5988FF"/>
<path d="M1497.61 322.543C1498.45 321.729 1498.88 320.811 1498.9 319.787C1498.92 318.772 1498.43 317.652 1497.42 316.426C1496.79 315.645 1496.17 315.082 1495.57 314.738C1494.99 314.396 1494.44 314.237 1493.93 314.26C1493.42 314.283 1492.96 314.457 1492.54 314.781C1492.19 315.038 1491.94 315.345 1491.78 315.704C1491.63 316.064 1491.58 316.487 1491.61 316.974C1491.65 317.453 1491.78 318.004 1492 318.626C1492.22 319.249 1492.54 319.947 1492.94 320.721L1494.32 323.41C1495.25 325.221 1495.9 326.895 1496.26 328.431C1496.62 329.967 1496.72 331.382 1496.57 332.674C1496.42 333.959 1496.03 335.132 1495.4 336.193C1494.77 337.263 1493.93 338.236 1492.88 339.112C1491.04 340.601 1489.11 341.409 1487.1 341.539C1485.09 341.668 1483.06 341.159 1481.02 340.011C1478.99 338.871 1477.01 337.121 1475.08 334.759C1473.1 332.334 1471.73 329.925 1470.98 327.532C1470.23 325.148 1470.19 322.849 1470.86 320.634C1471.55 318.421 1473.06 316.357 1475.39 314.443L1481.25 321.637C1480.44 322.379 1479.9 323.178 1479.63 324.034C1479.36 324.89 1479.35 325.785 1479.62 326.72C1479.89 327.664 1480.41 328.618 1481.2 329.58C1481.86 330.389 1482.51 330.984 1483.16 331.366C1483.8 331.748 1484.41 331.935 1485 331.927C1485.58 331.92 1486.1 331.735 1486.57 331.374C1486.99 331.016 1487.24 330.572 1487.34 330.04C1487.45 329.509 1487.39 328.836 1487.14 328.02C1486.91 327.197 1486.48 326.174 1485.87 324.954L1484.2 321.685C1482.72 318.777 1482.02 316.099 1482.11 313.65C1482.22 311.203 1483.37 309.094 1485.55 307.324C1487.32 305.87 1489.25 305.078 1491.35 304.95C1493.47 304.823 1495.6 305.305 1497.73 306.395C1499.87 307.495 1501.83 309.148 1503.64 311.356C1505.47 313.608 1506.69 315.864 1507.27 318.123C1507.86 320.383 1507.83 322.517 1507.19 324.526C1506.56 326.537 1505.34 328.292 1503.52 329.791L1497.61 322.543Z" fill="#5988FF"/>
<path d="M1532.43 349.555L1538.23 357.429L1519.65 371.106C1517.45 372.732 1515.14 373.611 1512.75 373.742C1510.38 373.875 1508.06 373.326 1505.8 372.093C1503.55 370.854 1501.51 368.992 1499.68 366.509C1497.84 364.007 1496.66 361.497 1496.15 358.979C1495.64 356.453 1495.81 354.076 1496.64 351.847C1497.49 349.62 1499.02 347.693 1501.23 346.067L1519.8 332.39L1525.6 340.264L1507.7 353.441C1506.81 354.101 1506.15 354.89 1505.73 355.808C1505.33 356.719 1505.18 357.669 1505.3 358.66C1505.43 359.66 1505.82 360.608 1506.48 361.505C1507.14 362.412 1507.93 363.068 1508.84 363.475C1509.75 363.882 1510.7 364.026 1511.69 363.909C1512.69 363.784 1513.64 363.391 1514.54 362.731L1532.43 349.555Z" fill="#5988FF"/>
<path d="M1515.32 387.544L1545.34 367.67L1553.92 380.634C1555.39 382.863 1556.24 385.105 1556.47 387.359C1556.7 389.613 1556.32 391.732 1555.34 393.715C1554.36 395.698 1552.81 397.395 1550.68 398.806C1548.53 400.229 1546.35 400.982 1544.14 401.066C1541.94 401.159 1539.85 400.627 1537.86 399.469C1535.88 398.321 1534.13 396.603 1532.61 394.315L1527.49 386.572L1533.83 382.379L1537.86 388.48C1538.49 389.438 1539.2 390.145 1539.98 390.599C1540.77 391.057 1541.6 391.26 1542.47 391.208C1543.34 391.165 1544.2 390.863 1545.05 390.3C1545.91 389.73 1546.52 389.059 1546.88 388.287C1547.26 387.518 1547.38 386.684 1547.25 385.786C1547.14 384.891 1546.76 383.965 1546.13 383.007L1544.23 380.133L1520.71 395.698L1515.32 387.544Z" fill="#5988FF"/>
<path d="M1536.78 420.454L1567.74 402.057L1575.67 415.421C1577.04 417.719 1577.78 419.999 1577.9 422.262C1578.01 424.524 1577.54 426.622 1576.46 428.556C1575.39 430.49 1573.75 432.109 1571.56 433.415C1569.34 434.732 1567.13 435.379 1564.92 435.355C1562.72 435.342 1560.65 434.709 1558.72 433.456C1556.8 432.213 1555.13 430.413 1553.73 428.054L1548.99 420.072L1555.52 416.191L1559.26 422.48C1559.84 423.468 1560.51 424.208 1561.27 424.7C1562.04 425.196 1562.86 425.438 1563.73 425.428C1564.6 425.428 1565.47 425.167 1566.35 424.646C1567.24 424.119 1567.88 423.478 1568.27 422.724C1568.69 421.974 1568.85 421.147 1568.76 420.244C1568.69 419.345 1568.37 418.402 1567.78 417.414L1566.02 414.451L1541.78 428.859L1536.78 420.454Z" fill="#5988FF"/>
<path d="M1556.6 454.402L1588.36 437.429L1592.97 446.053L1568.16 459.313L1575.02 472.155L1568.07 475.868L1556.6 454.402Z" fill="#5988FF"/>
<path d="M1572.62 484.814L1605.09 469.252L1616.3 492.66L1609.2 496.064L1602.21 481.474L1596.63 484.149L1603.04 497.534L1595.93 500.938L1589.52 487.553L1583.94 490.227L1590.9 504.754L1583.8 508.158L1572.62 484.814Z" fill="#5988FF"/>
<path d="M1628.32 519.584L1632.74 530.921L1616.78 546.132L1616.93 546.525L1638.97 546.911L1643.39 558.248L1609.85 571.335L1606.38 562.423L1625.77 554.857L1625.67 554.595L1603.62 554.588L1601.53 549.214L1617.88 534.228L1617.77 533.966L1598.25 541.583L1594.78 532.671L1628.32 519.584Z" fill="#5988FF"/>
<path d="M1616.43 590.953L1613.2 580.909L1651.12 581.193L1655.21 593.915L1624.58 616.264L1621.35 606.22L1643.77 590.726L1643.68 590.458L1616.43 590.953ZM1629.35 584.725L1635.43 603.608L1628.47 605.849L1622.39 586.966L1629.35 584.725Z" fill="#5988FF"/>
<path d="M1627.15 625.428L1661.95 616.2L1665.93 631.227C1666.62 633.81 1666.71 636.206 1666.2 638.414C1665.7 640.623 1664.66 642.51 1663.1 644.076C1661.54 645.642 1659.52 646.753 1657.05 647.408C1654.56 648.068 1652.26 648.085 1650.14 647.458C1648.02 646.843 1646.21 645.668 1644.69 643.935C1643.18 642.213 1642.08 640.027 1641.37 637.375L1639 628.4L1646.34 626.453L1648.21 633.525C1648.51 634.635 1648.95 635.53 1649.54 636.21C1650.15 636.898 1650.87 637.356 1651.7 637.583C1652.54 637.821 1653.46 637.81 1654.44 637.548C1655.44 637.284 1656.23 636.844 1656.82 636.227C1657.42 635.618 1657.81 634.868 1657.97 633.975C1658.15 633.091 1658.09 632.094 1657.79 630.983L1656.91 627.652L1629.66 634.879L1627.15 625.428Z" fill="#5988FF"/>
<path d="M1665.23 677.283C1666.36 676.946 1667.16 676.325 1667.64 675.419C1668.12 674.525 1668.19 673.305 1667.86 671.757C1667.65 670.771 1667.36 669.988 1666.98 669.409C1666.62 668.839 1666.21 668.448 1665.74 668.236C1665.28 668.024 1664.79 667.967 1664.27 668.066C1663.84 668.134 1663.47 668.29 1663.17 668.536C1662.87 668.79 1662.63 669.142 1662.44 669.59C1662.26 670.037 1662.12 670.587 1662.04 671.241C1661.95 671.895 1661.91 672.659 1661.91 673.533L1661.91 676.554C1661.92 678.591 1661.73 680.376 1661.35 681.908C1660.97 683.44 1660.42 684.745 1659.69 685.824C1658.97 686.9 1658.09 687.766 1657.04 688.422C1656 689.089 1654.81 689.571 1653.47 689.869C1651.15 690.353 1649.07 690.193 1647.22 689.39C1645.37 688.587 1643.8 687.209 1642.51 685.255C1641.22 683.313 1640.25 680.852 1639.62 677.871C1638.96 674.81 1638.84 672.042 1639.26 669.567C1639.68 667.103 1640.7 665.04 1642.31 663.377C1643.93 661.723 1646.21 660.575 1649.16 659.933L1651.1 669.013C1650.03 669.301 1649.18 669.764 1648.55 670.403C1647.92 671.041 1647.51 671.836 1647.32 672.788C1647.13 673.752 1647.17 674.842 1647.43 676.057C1647.64 677.077 1647.95 677.904 1648.35 678.538C1648.75 679.172 1649.21 679.619 1649.73 679.879C1650.26 680.139 1650.81 680.213 1651.38 680.102C1651.92 679.975 1652.35 679.697 1652.68 679.267C1653.02 678.846 1653.27 678.218 1653.43 677.381C1653.59 676.542 1653.68 675.438 1653.69 674.07L1653.69 670.4C1653.7 667.137 1654.31 664.436 1655.5 662.298C1656.72 660.169 1658.7 658.816 1661.45 658.239C1663.68 657.749 1665.76 657.927 1667.69 658.773C1669.64 659.628 1671.31 661.027 1672.71 662.97C1674.11 664.924 1675.11 667.294 1675.7 670.08C1676.31 672.923 1676.36 675.484 1675.85 677.763C1675.34 680.041 1674.35 681.927 1672.86 683.421C1671.38 684.924 1669.49 685.927 1667.19 686.431L1665.23 677.283Z" fill="#5988FF"/>
<path d="M1676.97 749.706C1678.13 749.469 1678.98 748.921 1679.53 748.061C1680.09 747.212 1680.27 746.003 1680.08 744.432C1679.95 743.431 1679.73 742.626 1679.41 742.016C1679.1 741.417 1678.72 740.991 1678.28 740.739C1677.83 740.487 1677.35 740.387 1676.82 740.44C1676.39 740.47 1676.01 740.594 1675.68 740.811C1675.37 741.039 1675.09 741.368 1674.86 741.798C1674.65 742.227 1674.46 742.763 1674.32 743.407C1674.17 744.051 1674.07 744.808 1674 745.679L1673.73 748.689C1673.56 750.719 1673.21 752.48 1672.7 753.973C1672.19 755.465 1671.52 756.717 1670.7 757.728C1669.89 758.737 1668.94 759.522 1667.84 760.084C1666.74 760.656 1665.51 761.033 1664.15 761.212C1661.8 761.491 1659.74 761.149 1657.97 760.187C1656.2 759.224 1654.75 757.714 1653.64 755.654C1652.52 753.607 1651.78 751.07 1651.4 748.045C1651.02 744.938 1651.15 742.171 1651.78 739.742C1652.41 737.325 1653.6 735.358 1655.35 733.843C1657.12 732.337 1659.49 731.394 1662.48 731.013L1663.62 740.228C1662.53 740.422 1661.65 740.809 1660.96 741.389C1660.28 741.97 1659.8 742.726 1659.52 743.658C1659.25 744.601 1659.19 745.689 1659.34 746.923C1659.47 747.958 1659.71 748.809 1660.05 749.476C1660.39 750.142 1660.81 750.628 1661.31 750.932C1661.81 751.237 1662.35 751.359 1662.93 751.299C1663.47 751.22 1663.93 750.981 1664.29 750.581C1664.67 750.192 1664.97 749.588 1665.2 748.768C1665.44 747.947 1665.63 746.855 1665.76 745.493L1666.08 741.837C1666.38 738.588 1667.22 735.951 1668.6 733.926C1669.99 731.911 1672.08 730.737 1674.87 730.403C1677.14 730.112 1679.2 730.472 1681.05 731.484C1682.91 732.506 1684.45 734.046 1685.67 736.104C1686.9 738.173 1687.69 740.622 1688.03 743.449C1688.39 746.335 1688.22 748.89 1687.51 751.115C1686.8 753.341 1685.64 755.132 1684.03 756.489C1682.43 757.856 1680.46 758.69 1678.12 758.991L1676.97 749.706Z" fill="#5988FF"/>
<path d="M1692.07 791.123L1692.78 800.875L1669.78 802.556C1667.05 802.756 1664.63 802.274 1662.54 801.11C1660.45 799.958 1658.79 798.257 1657.53 796.01C1656.28 793.762 1655.55 791.1 1655.32 788.025C1655.1 784.927 1655.44 782.175 1656.34 779.769C1657.26 777.363 1658.66 775.438 1660.56 773.995C1662.46 772.563 1664.78 771.747 1667.52 771.547L1690.52 769.866L1691.23 779.618L1669.07 781.237C1667.96 781.318 1666.98 781.637 1666.14 782.192C1665.31 782.746 1664.69 783.474 1664.26 784.375C1663.83 785.288 1663.66 786.299 1663.74 787.41C1663.82 788.533 1664.14 789.509 1664.69 790.338C1665.25 791.167 1665.98 791.796 1666.88 792.224C1667.79 792.651 1668.8 792.824 1669.91 792.743L1692.07 791.123Z" fill="#5988FF"/>
<path d="M1657.36 814.16L1693.36 813.333L1693.71 828.875C1693.77 831.547 1693.3 833.897 1692.29 835.926C1691.28 837.954 1689.84 839.547 1687.95 840.704C1686.07 841.862 1683.85 842.47 1681.29 842.528C1678.72 842.588 1676.47 842.065 1674.56 840.959C1672.65 839.866 1671.16 838.299 1670.09 836.26C1669.02 834.232 1668.46 831.847 1668.4 829.105L1668.18 819.822L1675.78 819.647L1675.94 826.961C1675.97 828.11 1676.19 829.084 1676.61 829.883C1677.04 830.694 1677.63 831.308 1678.39 831.725C1679.15 832.153 1680.04 832.355 1681.06 832.332C1682.09 832.308 1682.97 832.065 1683.68 831.603C1684.41 831.152 1684.96 830.512 1685.33 829.683C1685.71 828.865 1685.88 827.882 1685.86 826.733L1685.78 823.288L1657.59 823.935L1657.36 814.16Z" fill="#5988FF"/>
<path d="M1658.01 853.45L1694 854.367L1693.6 869.908C1693.54 872.58 1692.95 874.905 1691.84 876.882C1690.74 878.859 1689.22 880.38 1687.28 881.445C1685.34 882.509 1683.09 883.009 1680.54 882.944C1677.96 882.878 1675.75 882.247 1673.89 881.05C1672.03 879.866 1670.62 878.229 1669.65 876.14C1668.69 874.063 1668.24 871.653 1668.31 868.911L1668.54 859.629L1676.14 859.822L1675.95 867.136C1675.92 868.284 1676.09 869.268 1676.47 870.087C1676.86 870.917 1677.42 871.559 1678.16 872.012C1678.9 872.476 1679.78 872.722 1680.8 872.748C1681.83 872.774 1682.72 872.574 1683.45 872.147C1684.2 871.732 1684.78 871.119 1685.19 870.309C1685.61 869.51 1685.83 868.537 1685.86 867.388L1685.95 863.943L1657.76 863.224L1658.01 853.45Z" fill="#5988FF"/>
<path d="M1656.71 892.742L1692.63 895.293L1691.93 905.046L1663.88 903.053L1662.85 917.577L1654.99 917.019L1656.71 892.742Z" fill="#5988FF"/>
<path d="M1654.07 927.013L1689.84 931.138L1686.87 956.924L1679.04 956.021L1680.9 939.949L1674.75 939.24L1673.05 953.984L1665.23 953.082L1666.93 938.338L1660.78 937.629L1658.93 953.631L1651.11 952.728L1654.07 927.013Z" fill="#5988FF"/>
<path d="M1682.71 986.115L1680.41 998.066L1658.81 1002.44L1658.73 1002.85L1677.18 1014.92L1674.88 1026.87L1639.53 1020.08L1641.33 1010.69L1661.77 1014.61L1661.83 1014.34L1643.17 1002.59L1644.26 996.923L1666.07 992.948L1666.13 992.671L1645.55 988.718L1647.35 979.323L1682.71 986.115Z" fill="#5988FF"/>
<path d="M1634.66 1040.19L1637.27 1029.97L1669.21 1050.41L1665.9 1063.35L1628.07 1065.95L1630.68 1055.73L1657.91 1054.56L1657.98 1054.29L1634.66 1040.19ZM1648.9 1041.8L1643.99 1061.02L1636.91 1059.21L1641.82 1039.99L1648.9 1041.8Z" fill="#5988FF"/>
<path d="M1625.37 1075.08L1659.74 1085.81L1655.11 1100.65C1654.32 1103.2 1653.12 1105.28 1651.51 1106.88C1649.91 1108.47 1648.03 1109.52 1645.87 1110.02C1643.72 1110.51 1641.42 1110.38 1638.98 1109.61C1636.52 1108.85 1634.56 1107.63 1633.1 1105.97C1631.64 1104.33 1630.73 1102.36 1630.37 1100.09C1630.01 1097.83 1630.23 1095.39 1631.05 1092.77L1633.82 1083.91L1641.07 1086.17L1638.89 1093.15C1638.55 1094.25 1638.44 1095.24 1638.58 1096.13C1638.73 1097.04 1639.1 1097.81 1639.68 1098.45C1640.27 1099.1 1641.05 1099.57 1642.02 1099.88C1643 1100.19 1643.91 1100.23 1644.74 1100.03C1645.57 1099.83 1646.29 1099.4 1646.91 1098.73C1647.53 1098.08 1648.01 1097.2 1648.35 1096.11L1649.38 1092.82L1622.46 1084.41L1625.37 1075.08Z" fill="#5988FF"/>
<path d="M1630 1139.26C1631.13 1139.57 1632.14 1139.47 1633.03 1138.96C1633.91 1138.46 1634.62 1137.47 1635.17 1135.98C1635.51 1135.03 1635.68 1134.22 1635.67 1133.53C1635.67 1132.85 1635.53 1132.3 1635.25 1131.87C1634.97 1131.45 1634.58 1131.14 1634.09 1130.94C1633.69 1130.77 1633.3 1130.71 1632.91 1130.75C1632.52 1130.81 1632.13 1130.98 1631.73 1131.26C1631.34 1131.54 1630.93 1131.93 1630.51 1132.44C1630.09 1132.95 1629.65 1133.57 1629.19 1134.32L1627.58 1136.87C1626.5 1138.6 1625.39 1140.01 1624.25 1141.1C1623.11 1142.2 1621.95 1143.01 1620.76 1143.53C1619.58 1144.06 1618.37 1144.33 1617.14 1144.32C1615.9 1144.33 1614.63 1144.11 1613.34 1143.64C1611.12 1142.82 1609.45 1141.57 1608.31 1139.91C1607.17 1138.24 1606.57 1136.24 1606.52 1133.9C1606.46 1131.57 1606.96 1128.97 1608 1126.11C1609.08 1123.17 1610.45 1120.76 1612.12 1118.89C1613.79 1117.03 1615.75 1115.82 1618 1115.27C1620.25 1114.74 1622.8 1114.98 1625.63 1116.01L1622.44 1124.73C1621.38 1124.4 1620.42 1124.34 1619.55 1124.55C1618.67 1124.75 1617.9 1125.21 1617.23 1125.91C1616.56 1126.63 1616.01 1127.57 1615.58 1128.73C1615.22 1129.71 1615.04 1130.58 1615.04 1131.33C1615.04 1132.08 1615.2 1132.7 1615.5 1133.2C1615.8 1133.7 1616.23 1134.05 1616.78 1134.27C1617.3 1134.44 1617.81 1134.44 1618.32 1134.25C1618.83 1134.07 1619.38 1133.68 1619.95 1133.05C1620.54 1132.43 1621.2 1131.54 1621.94 1130.39L1623.9 1127.29C1625.64 1124.53 1627.59 1122.56 1629.74 1121.39C1631.9 1120.23 1634.3 1120.15 1636.94 1121.12C1639.09 1121.9 1640.75 1123.16 1641.94 1124.9C1643.13 1126.66 1643.8 1128.74 1643.95 1131.13C1644.09 1133.53 1643.67 1136.06 1642.7 1138.74C1641.7 1141.47 1640.38 1143.66 1638.73 1145.32C1637.09 1146.98 1635.24 1148.04 1633.18 1148.51C1631.13 1149 1629 1148.84 1626.78 1148.04L1630 1139.26Z" fill="#5988FF"/>
<path d="M1601.38 1206.81C1602.48 1207.22 1603.5 1207.21 1604.42 1206.78C1605.35 1206.36 1606.14 1205.43 1606.82 1204C1607.24 1203.09 1607.48 1202.29 1607.53 1201.6C1607.59 1200.93 1607.5 1200.36 1607.26 1199.91C1607.02 1199.46 1606.66 1199.12 1606.19 1198.89C1605.8 1198.68 1605.42 1198.58 1605.02 1198.59C1604.63 1198.62 1604.23 1198.75 1603.81 1198.99C1603.39 1199.24 1602.95 1199.6 1602.49 1200.06C1602.02 1200.53 1601.53 1201.12 1601.01 1201.82L1599.18 1204.22C1597.95 1205.85 1596.72 1207.16 1595.49 1208.15C1594.26 1209.14 1593.03 1209.84 1591.8 1210.26C1590.58 1210.68 1589.35 1210.84 1588.13 1210.73C1586.89 1210.63 1585.65 1210.29 1584.4 1209.72C1582.27 1208.7 1580.7 1207.32 1579.72 1205.56C1578.73 1203.8 1578.31 1201.75 1578.46 1199.41C1578.61 1197.09 1579.33 1194.54 1580.62 1191.78C1581.95 1188.95 1583.53 1186.67 1585.36 1184.95C1587.18 1183.25 1589.24 1182.22 1591.53 1181.87C1593.82 1181.53 1596.33 1182 1599.06 1183.27L1595.12 1191.67C1594.1 1191.26 1593.14 1191.11 1592.26 1191.24C1591.37 1191.37 1590.56 1191.75 1589.83 1192.4C1589.1 1193.05 1588.47 1193.94 1587.94 1195.06C1587.5 1196.01 1587.24 1196.85 1587.18 1197.6C1587.11 1198.35 1587.21 1198.98 1587.47 1199.5C1587.73 1200.03 1588.12 1200.42 1588.65 1200.68C1589.15 1200.9 1589.66 1200.94 1590.18 1200.8C1590.71 1200.67 1591.29 1200.32 1591.92 1199.75C1592.56 1199.18 1593.3 1198.35 1594.13 1197.27L1596.35 1194.35C1598.33 1191.76 1600.45 1189.97 1602.69 1188.99C1604.94 1188.03 1607.34 1188.15 1609.88 1189.35C1611.95 1190.32 1613.5 1191.72 1614.53 1193.56C1615.56 1195.41 1616.05 1197.54 1615.99 1199.93C1615.92 1202.34 1615.28 1204.83 1614.07 1207.41C1612.84 1210.04 1611.33 1212.11 1609.55 1213.62C1607.77 1215.12 1605.83 1216.02 1603.74 1216.31C1601.66 1216.61 1599.55 1216.27 1597.41 1215.28L1601.38 1206.81Z" fill="#5988FF"/>
<path d="M1592.11 1249.91L1587.52 1258.54L1567.16 1247.71C1564.74 1246.42 1562.95 1244.73 1561.8 1242.63C1560.65 1240.54 1560.14 1238.22 1560.27 1235.64C1560.41 1233.08 1561.21 1230.43 1562.66 1227.71C1564.11 1224.97 1565.87 1222.82 1567.91 1221.27C1569.97 1219.72 1572.18 1218.84 1574.55 1218.62C1576.93 1218.43 1579.33 1218.97 1581.75 1220.26L1602.11 1231.09L1597.52 1239.72L1577.91 1229.29C1576.92 1228.77 1575.93 1228.52 1574.92 1228.54C1573.92 1228.57 1573 1228.85 1572.16 1229.38C1571.31 1229.93 1570.63 1230.69 1570.11 1231.67C1569.58 1232.67 1569.33 1233.66 1569.36 1234.66C1569.38 1235.66 1569.66 1236.58 1570.2 1237.42C1570.74 1238.27 1571.51 1238.95 1572.49 1239.48L1592.11 1249.91Z" fill="#5988FF"/>
<path d="M1550.47 1250.92L1581.37 1269.39L1573.4 1282.74C1572.03 1285.03 1570.38 1286.77 1568.45 1287.95C1566.51 1289.13 1564.44 1289.7 1562.23 1289.68C1560.02 1289.66 1557.82 1288.99 1555.62 1287.68C1553.41 1286.35 1551.79 1284.72 1550.76 1282.76C1549.72 1280.82 1549.29 1278.7 1549.48 1276.4C1549.65 1274.12 1550.44 1271.8 1551.85 1269.44L1556.61 1261.47L1563.13 1265.37L1559.38 1271.65C1558.79 1272.64 1558.46 1273.58 1558.39 1274.48C1558.32 1275.39 1558.5 1276.23 1558.92 1276.99C1559.33 1277.75 1559.98 1278.4 1560.85 1278.92C1561.74 1279.45 1562.61 1279.71 1563.46 1279.7C1564.32 1279.71 1565.12 1279.46 1565.87 1278.95C1566.63 1278.46 1567.3 1277.72 1567.89 1276.74L1569.66 1273.78L1545.45 1259.31L1550.47 1250.92Z" fill="#5988FF"/>
<path d="M1530.1 1284.52L1560.07 1304.47L1551.47 1317.41C1549.99 1319.64 1548.25 1321.29 1546.26 1322.37C1544.27 1323.46 1542.18 1323.94 1539.97 1323.8C1537.76 1323.67 1535.6 1322.9 1533.47 1321.48C1531.32 1320.06 1529.78 1318.34 1528.85 1316.34C1527.9 1314.35 1527.58 1312.21 1527.87 1309.93C1528.16 1307.65 1529.07 1305.37 1530.58 1303.09L1535.73 1295.36L1542.05 1299.57L1538 1305.66C1537.36 1306.61 1536.99 1307.54 1536.87 1308.43C1536.76 1309.34 1536.89 1310.19 1537.28 1310.97C1537.65 1311.75 1538.27 1312.43 1539.12 1312.99C1539.97 1313.56 1540.83 1313.87 1541.68 1313.9C1542.54 1313.95 1543.35 1313.73 1544.13 1313.27C1544.91 1312.81 1545.62 1312.11 1546.25 1311.15L1548.16 1308.28L1524.69 1292.66L1530.1 1284.52Z" fill="#5988FF"/>
<path d="M1508.08 1317.08L1537.12 1338.37L1531.34 1346.26L1508.66 1329.63L1500.05 1341.37L1493.7 1336.71L1508.08 1317.08Z" fill="#5988FF"/>
<path d="M1487.61 1344.69L1515.68 1367.23L1499.44 1387.47L1493.3 1382.54L1503.42 1369.92L1498.6 1366.05L1489.31 1377.62L1483.17 1372.69L1492.46 1361.12L1487.63 1357.24L1477.55 1369.8L1471.41 1364.87L1487.61 1344.69Z" fill="#5988FF"/>
<path d="M1480.38 1409.96L1472.07 1418.86L1451.46 1411.05L1451.17 1411.36L1460.36 1431.4L1452.06 1440.29L1425.75 1415.71L1432.28 1408.72L1447.49 1422.93L1447.68 1422.72L1438.15 1402.84L1442.08 1398.63L1462.66 1406.88L1462.85 1406.68L1447.54 1392.37L1454.07 1385.38L1480.38 1409.96Z" fill="#5988FF"/>
<path d="M1410.92 1430.13L1418.57 1422.87L1434.72 1457.18L1425.03 1466.38L1391.63 1448.43L1399.29 1441.17L1422.95 1454.68L1423.16 1454.49L1410.92 1430.13ZM1422.12 1439.09L1407.73 1452.74L1402.7 1447.43L1417.09 1433.78L1422.12 1439.09Z" fill="#5988FF"/>
<path d="M1384.49 1454.72L1407.86 1482.11L1396.05 1492.2C1394.01 1493.94 1391.89 1495.06 1389.68 1495.56C1387.48 1496.05 1385.33 1495.94 1383.24 1495.21C1381.15 1494.48 1379.28 1493.14 1377.62 1491.2C1375.95 1489.24 1374.93 1487.17 1374.58 1484.98C1374.22 1482.81 1374.49 1480.67 1375.4 1478.55C1376.3 1476.44 1377.79 1474.5 1379.88 1472.72L1386.94 1466.69L1391.87 1472.46L1386.3 1477.21C1385.43 1477.96 1384.82 1478.75 1384.46 1479.58C1384.1 1480.42 1384 1481.27 1384.16 1482.12C1384.31 1482.98 1384.71 1483.8 1385.38 1484.58C1386.04 1485.36 1386.78 1485.88 1387.6 1486.15C1388.4 1486.43 1389.25 1486.45 1390.12 1486.21C1391 1485.99 1391.87 1485.5 1392.74 1484.76L1395.36 1482.52L1377.05 1461.07L1384.49 1454.72Z" fill="#5988FF"/>
<path d="M1354.24 1511.5C1355.03 1512.37 1355.93 1512.83 1356.96 1512.87C1357.97 1512.91 1359.1 1512.45 1360.35 1511.48C1361.15 1510.87 1361.73 1510.26 1362.09 1509.67C1362.45 1509.1 1362.62 1508.56 1362.61 1508.05C1362.6 1507.54 1362.44 1507.07 1362.13 1506.64C1361.88 1506.29 1361.58 1506.02 1361.22 1505.85C1360.87 1505.7 1360.45 1505.63 1359.96 1505.65C1359.48 1505.68 1358.93 1505.8 1358.3 1506C1357.67 1506.21 1356.96 1506.5 1356.18 1506.89L1353.46 1508.19C1351.62 1509.08 1349.93 1509.68 1348.39 1510C1346.84 1510.32 1345.43 1510.39 1344.14 1510.2C1342.86 1510.02 1341.7 1509.6 1340.65 1508.94C1339.6 1508.28 1338.65 1507.42 1337.8 1506.34C1336.36 1504.46 1335.61 1502.51 1335.53 1500.5C1335.45 1498.48 1336.02 1496.47 1337.22 1494.46C1338.41 1492.45 1340.21 1490.52 1342.62 1488.66C1345.1 1486.74 1347.54 1485.44 1349.95 1484.74C1352.35 1484.05 1354.65 1484.08 1356.85 1484.81C1359.04 1485.56 1361.06 1487.12 1362.91 1489.5L1355.57 1495.18C1354.85 1494.34 1354.07 1493.78 1353.22 1493.48C1352.37 1493.19 1351.48 1493.16 1350.53 1493.4C1349.58 1493.65 1348.62 1494.15 1347.63 1494.91C1346.81 1495.55 1346.2 1496.19 1345.8 1496.82C1345.4 1497.46 1345.2 1498.07 1345.19 1498.65C1345.18 1499.23 1345.35 1499.76 1345.7 1500.23C1346.05 1500.66 1346.49 1500.93 1347.01 1501.04C1347.54 1501.16 1348.22 1501.12 1349.04 1500.9C1349.87 1500.68 1350.9 1500.29 1352.14 1499.7L1355.45 1498.12C1358.39 1496.71 1361.09 1496.09 1363.53 1496.24C1365.97 1496.41 1368.05 1497.62 1369.76 1499.85C1371.17 1501.65 1371.91 1503.6 1371.98 1505.71C1372.05 1507.83 1371.52 1509.95 1370.37 1512.05C1369.22 1514.16 1367.51 1516.08 1365.26 1517.83C1362.96 1519.6 1360.67 1520.76 1358.4 1521.29C1356.13 1521.81 1354 1521.73 1352 1521.03C1350.01 1520.35 1348.29 1519.08 1346.84 1517.23L1354.24 1511.5Z" fill="#5988FF"/>
<path d="M1294.05 1553.43C1294.76 1554.37 1295.63 1554.9 1296.64 1555.03C1297.65 1555.16 1298.81 1554.8 1300.15 1553.95C1300.99 1553.41 1301.62 1552.86 1302.03 1552.3C1302.44 1551.76 1302.66 1551.24 1302.69 1550.73C1302.73 1550.22 1302.61 1549.74 1302.33 1549.29C1302.12 1548.91 1301.84 1548.62 1301.51 1548.42C1301.17 1548.23 1300.75 1548.13 1300.26 1548.11C1299.78 1548.1 1299.22 1548.16 1298.58 1548.31C1297.93 1548.46 1297.21 1548.69 1296.39 1549.01L1293.56 1550.07C1291.66 1550.79 1289.92 1551.24 1288.36 1551.43C1286.79 1551.61 1285.37 1551.55 1284.11 1551.25C1282.85 1550.96 1281.73 1550.44 1280.74 1549.69C1279.75 1548.94 1278.88 1548 1278.13 1546.85C1276.86 1544.85 1276.28 1542.84 1276.38 1540.83C1276.48 1538.82 1277.22 1536.86 1278.59 1534.96C1279.95 1533.07 1281.92 1531.3 1284.48 1529.66C1287.11 1527.97 1289.66 1526.88 1292.13 1526.4C1294.58 1525.93 1296.87 1526.15 1298.99 1527.07C1301.11 1528.01 1302.99 1529.74 1304.62 1532.27L1296.81 1537.29C1296.17 1536.39 1295.43 1535.76 1294.62 1535.39C1293.8 1535.03 1292.91 1534.92 1291.95 1535.08C1290.98 1535.24 1289.97 1535.66 1288.93 1536.33C1288.05 1536.89 1287.38 1537.47 1286.93 1538.07C1286.48 1538.67 1286.22 1539.26 1286.16 1539.84C1286.11 1540.42 1286.23 1540.96 1286.54 1541.46C1286.84 1541.91 1287.26 1542.22 1287.77 1542.38C1288.29 1542.55 1288.96 1542.56 1289.8 1542.41C1290.65 1542.27 1291.71 1541.97 1292.99 1541.49L1296.43 1540.21C1299.48 1539.07 1302.22 1538.68 1304.65 1539.05C1307.06 1539.43 1309.03 1540.81 1310.54 1543.19C1311.78 1545.1 1312.35 1547.12 1312.24 1549.22C1312.12 1551.34 1311.4 1553.4 1310.07 1555.39C1308.74 1557.39 1306.87 1559.16 1304.48 1560.7C1302.03 1562.27 1299.65 1563.22 1297.34 1563.54C1295.03 1563.87 1292.91 1563.6 1290.99 1562.73C1289.06 1561.88 1287.46 1560.46 1286.18 1558.49L1294.05 1553.43Z" fill="#5988FF"/>
<path d="M1263.26 1584.97L1254.78 1589.84L1243.31 1569.82C1241.95 1567.44 1241.33 1565.05 1241.48 1562.66C1241.61 1560.28 1242.42 1558.04 1243.91 1555.94C1245.39 1553.84 1247.47 1552.03 1250.15 1550.49C1252.84 1548.95 1255.47 1548.06 1258.03 1547.84C1260.59 1547.63 1262.94 1548.06 1265.06 1549.14C1267.17 1550.24 1268.91 1551.98 1270.27 1554.36L1281.74 1574.37L1273.26 1579.24L1262.21 1559.95C1261.66 1558.99 1260.95 1558.24 1260.09 1557.73C1259.23 1557.22 1258.3 1556.97 1257.3 1556.97C1256.3 1556.98 1255.31 1557.26 1254.34 1557.82C1253.37 1558.38 1252.63 1559.09 1252.12 1559.94C1251.61 1560.8 1251.36 1561.73 1251.36 1562.73C1251.37 1563.74 1251.66 1564.72 1252.21 1565.69L1263.26 1584.97Z" fill="#5988FF"/>
<path d="M1227.48 1563.64L1243.8 1595.74L1229.95 1602.79C1227.57 1604 1225.24 1604.59 1222.98 1604.56C1220.71 1604.53 1218.65 1603.91 1216.79 1602.72C1214.94 1601.52 1213.43 1599.78 1212.27 1597.5C1211.1 1595.2 1210.6 1592.95 1210.77 1590.75C1210.93 1588.55 1211.69 1586.53 1213.07 1584.68C1214.43 1582.85 1216.34 1581.3 1218.78 1580.06L1227.06 1575.85L1230.5 1582.62L1223.98 1585.94C1222.96 1586.46 1222.18 1587.08 1221.64 1587.8C1221.09 1588.54 1220.79 1589.34 1220.75 1590.21C1220.69 1591.08 1220.89 1591.97 1221.36 1592.88C1221.82 1593.8 1222.42 1594.48 1223.15 1594.93C1223.87 1595.39 1224.68 1595.6 1225.59 1595.58C1226.49 1595.57 1227.45 1595.3 1228.48 1594.78L1231.55 1593.22L1218.76 1568.07L1227.48 1563.64Z" fill="#5988FF"/>
<path d="M1192.35 1581.23L1207.1 1614.08L1192.92 1620.45C1190.48 1621.55 1188.14 1622.02 1185.88 1621.88C1183.62 1621.74 1181.59 1621.03 1179.79 1619.74C1177.99 1618.45 1176.57 1616.64 1175.52 1614.31C1174.46 1611.96 1174.07 1609.69 1174.35 1607.5C1174.61 1605.31 1175.48 1603.33 1176.94 1601.55C1178.39 1599.78 1180.37 1598.33 1182.87 1597.21L1191.34 1593.4L1194.45 1600.33L1187.78 1603.33C1186.73 1603.8 1185.92 1604.38 1185.35 1605.08C1184.77 1605.79 1184.43 1606.58 1184.34 1607.44C1184.24 1608.31 1184.4 1609.2 1184.82 1610.13C1185.24 1611.08 1185.81 1611.79 1186.51 1612.27C1187.21 1612.76 1188.01 1613.02 1188.92 1613.04C1189.82 1613.07 1190.79 1612.85 1191.84 1612.38L1194.98 1610.97L1183.43 1585.24L1192.35 1581.23Z" fill="#5988FF"/>
<path d="M1156.38 1597.07L1169.62 1630.56L1160.53 1634.15L1150.19 1607.99L1136.65 1613.34L1133.75 1606.02L1156.38 1597.07Z" fill="#5988FF"/>
<path d="M1124.35 1609.52L1136.11 1643.56L1111.59 1652.04L1109.02 1644.59L1124.3 1639.31L1122.28 1633.46L1108.26 1638.3L1105.69 1630.86L1119.71 1626.01L1117.69 1620.16L1102.47 1625.42L1099.89 1617.98L1124.35 1609.52Z" fill="#5988FF"/>
<path d="M1083.48 1660.92L1071.72 1664.02L1058.43 1646.43L1058.02 1646.54L1055.13 1668.4L1043.36 1671.5L1034.18 1636.68L1043.43 1634.24L1048.74 1654.37L1049.01 1654.3L1051.53 1632.39L1057.1 1630.92L1070.12 1648.88L1070.4 1648.8L1065.05 1628.54L1074.3 1626.1L1083.48 1660.92Z" fill="#5988FF"/>
<path d="M1013.95 1640.99L1024.29 1638.92L1019.7 1676.57L1006.6 1679.19L987.887 1646.2L998.23 1644.13L1011.07 1668.18L1011.34 1668.12L1013.95 1640.99ZM1018.67 1654.53L999.222 1658.42L997.788 1651.25L1017.23 1647.36L1018.67 1654.53Z" fill="#5988FF"/>
<path d="M978.493 1647.72L983.697 1683.35L968.32 1685.6C965.676 1685.99 963.287 1685.8 961.151 1685.05C959.016 1684.29 957.259 1683.05 955.881 1681.32C954.503 1679.59 953.63 1677.46 953.26 1674.93C952.888 1672.38 953.133 1670.09 953.997 1668.06C954.849 1666.02 956.222 1664.35 958.115 1663.05C959.997 1661.74 962.295 1660.89 965.009 1660.49L974.193 1659.15L975.291 1666.67L968.055 1667.73C966.918 1667.89 965.979 1668.23 965.236 1668.74C964.484 1669.27 963.947 1669.93 963.627 1670.74C963.294 1671.54 963.202 1672.45 963.349 1673.46C963.498 1674.48 963.846 1675.32 964.392 1675.97C964.927 1676.64 965.629 1677.11 966.497 1677.37C967.354 1677.65 968.352 1677.71 969.488 1677.54L972.897 1677.04L968.821 1649.13L978.493 1647.72Z" fill="#5988FF"/>
<path d="M922.659 1679.66C922.865 1680.82 923.391 1681.69 924.236 1682.27C925.069 1682.84 926.273 1683.06 927.848 1682.91C928.851 1682.81 929.662 1682.61 930.279 1682.3C930.887 1682 931.322 1681.64 931.586 1681.2C931.85 1680.76 931.962 1680.28 931.923 1679.75C931.904 1679.32 931.79 1678.94 931.582 1678.6C931.362 1678.28 931.04 1678 930.617 1677.76C930.194 1677.53 929.663 1677.33 929.023 1677.17C928.383 1677.01 927.629 1676.88 926.761 1676.79L923.76 1676.45C921.736 1676.22 919.986 1675.83 918.507 1675.28C917.029 1674.73 915.796 1674.03 914.807 1673.18C913.82 1672.35 913.06 1671.37 912.528 1670.26C911.984 1669.14 911.641 1667.9 911.497 1666.54C911.28 1664.18 911.676 1662.13 912.684 1660.38C913.692 1658.64 915.24 1657.23 917.327 1656.17C919.402 1655.11 921.956 1654.43 924.989 1654.14C928.104 1653.83 930.867 1654.03 933.277 1654.73C935.676 1655.43 937.61 1656.67 939.079 1658.46C940.537 1660.26 941.417 1662.66 941.719 1665.66L932.48 1666.56C932.316 1665.46 931.952 1664.57 931.39 1663.87C930.828 1663.17 930.085 1662.67 929.161 1662.37C928.225 1662.07 927.139 1661.98 925.903 1662.1C924.865 1662.21 924.008 1662.42 923.333 1662.74C922.658 1663.07 922.162 1663.47 921.844 1663.96C921.527 1664.45 921.39 1664.99 921.435 1665.58C921.5 1666.12 921.727 1666.58 922.117 1666.96C922.496 1667.35 923.092 1667.67 923.905 1667.92C924.719 1668.18 925.806 1668.39 927.164 1668.55L930.808 1668.98C934.047 1669.36 936.661 1670.27 938.648 1671.7C940.625 1673.14 941.744 1675.27 942.003 1678.07C942.236 1680.34 941.822 1682.39 940.762 1684.21C939.692 1686.05 938.112 1687.55 936.024 1688.72C933.923 1689.89 931.456 1690.61 928.621 1690.89C925.728 1691.17 923.179 1690.93 920.974 1690.16C918.769 1689.4 917.009 1688.19 915.695 1686.54C914.371 1684.9 913.589 1682.91 913.35 1680.57L922.659 1679.66Z" fill="#5988FF"/>
</svg>
