<svg width="1858" height="1858" viewBox="0 0 1858 1858" fill="none" xmlns="http://www.w3.org/2000/svg">
<path d="M1711.13 449.051C1712.08 448.352 1712.62 447.496 1712.77 446.482C1712.91 445.479 1712.57 444.305 1711.74 442.961C1711.2 442.105 1710.66 441.469 1710.11 441.051C1709.58 440.638 1709.06 440.41 1708.55 440.368C1708.04 440.326 1707.56 440.439 1707.1 440.708C1706.72 440.917 1706.43 441.189 1706.22 441.524C1706.03 441.863 1705.93 442.276 1705.9 442.763C1705.88 443.243 1705.94 443.806 1706.08 444.451C1706.22 445.097 1706.44 445.829 1706.74 446.648L1707.76 449.491C1708.46 451.406 1708.89 453.148 1709.05 454.718C1709.21 456.287 1709.13 457.703 1708.81 458.964C1708.5 460.22 1707.97 461.333 1707.2 462.304C1706.45 463.286 1705.49 464.143 1704.33 464.878C1702.32 466.118 1700.3 466.675 1698.29 466.546C1696.28 466.417 1694.33 465.654 1692.45 464.254C1690.58 462.865 1688.84 460.876 1687.23 458.289C1685.58 455.631 1684.53 453.068 1684.08 450.598C1683.64 448.138 1683.9 445.853 1684.85 443.743C1685.82 441.637 1687.58 439.783 1690.13 438.182L1695.03 446.064C1694.13 446.696 1693.49 447.419 1693.11 448.233C1692.73 449.048 1692.62 449.935 1692.76 450.896C1692.91 451.867 1693.31 452.879 1693.96 453.934C1694.51 454.82 1695.09 455.494 1695.68 455.955C1696.27 456.416 1696.85 456.68 1697.43 456.747C1698.01 456.814 1698.55 456.697 1699.06 456.398C1699.52 456.097 1699.83 455.689 1699.99 455.174C1700.17 454.662 1700.19 453.986 1700.06 453.146C1699.93 452.3 1699.64 451.232 1699.18 449.942L1697.95 446.488C1696.85 443.416 1696.5 440.671 1696.9 438.254C1697.32 435.841 1698.73 433.896 1701.12 432.42C1703.06 431.203 1705.07 430.665 1707.18 430.806C1709.3 430.951 1711.34 431.7 1713.32 433.054C1715.3 434.417 1717.04 436.308 1718.54 438.727C1720.08 441.195 1720.99 443.587 1721.29 445.902C1721.58 448.217 1721.28 450.33 1720.38 452.24C1719.5 454.154 1718.07 455.739 1716.07 456.993L1711.13 449.051Z" fill="#5988FF"/>
<path d="M1741.52 478.813L1746.32 487.332L1726.22 498.648C1723.83 499.993 1721.44 500.585 1719.05 500.425C1716.67 500.268 1714.44 499.441 1712.35 497.943C1710.26 496.44 1708.46 494.345 1706.95 491.659C1705.43 488.952 1704.56 486.318 1704.36 483.756C1704.17 481.189 1704.62 478.849 1705.72 476.738C1706.83 474.631 1708.58 472.905 1710.97 471.56L1731.07 460.244L1735.87 468.762L1716.5 479.664C1715.53 480.21 1714.78 480.914 1714.26 481.774C1713.75 482.628 1713.49 483.554 1713.48 484.552C1713.49 485.559 1713.76 486.548 1714.31 487.519C1714.86 488.499 1715.56 489.247 1716.42 489.761C1717.27 490.275 1718.2 490.534 1719.19 490.538C1720.2 490.535 1721.19 490.261 1722.16 489.715L1741.52 478.813Z" fill="#5988FF"/>
<path d="M1719.23 513.113L1751.34 496.839L1758.37 510.703C1759.57 513.087 1760.16 515.411 1760.13 517.676C1760.09 519.941 1759.47 522.002 1758.27 523.858C1757.07 525.715 1755.33 527.221 1753.05 528.376C1750.75 529.542 1748.5 530.039 1746.3 529.867C1744.1 529.706 1742.08 528.935 1740.24 527.556C1738.4 526.187 1736.87 524.279 1735.63 521.833L1731.43 513.552L1738.21 510.119L1741.51 516.643C1742.03 517.668 1742.65 518.451 1743.37 518.992C1744.11 519.539 1744.91 519.836 1745.77 519.883C1746.64 519.942 1747.53 519.74 1748.44 519.28C1749.36 518.813 1750.05 518.217 1750.49 517.492C1750.96 516.771 1751.17 515.957 1751.15 515.051C1751.14 514.149 1750.87 513.186 1750.36 512.161L1748.8 509.087L1723.64 521.834L1719.23 513.113Z" fill="#5988FF"/>
<path d="M1736.15 547.004L1768.93 532.106L1775.36 546.256C1776.46 548.689 1776.95 551.036 1776.82 553.297C1776.69 555.559 1775.99 557.591 1774.71 559.396C1773.43 561.2 1771.63 562.631 1769.3 563.688C1766.95 564.755 1764.68 565.156 1762.49 564.891C1760.3 564.636 1758.32 563.781 1756.53 562.325C1754.76 560.879 1753.3 558.908 1752.17 556.411L1748.33 547.959L1755.24 544.817L1758.27 551.476C1758.74 552.521 1759.33 553.33 1760.03 553.902C1760.74 554.479 1761.53 554.81 1762.39 554.894C1763.25 554.989 1764.15 554.826 1765.08 554.404C1766.02 553.977 1766.73 553.411 1767.21 552.705C1767.7 552.004 1767.95 551.2 1767.96 550.293C1767.99 549.392 1767.77 548.419 1767.29 547.373L1765.87 544.236L1740.2 555.904L1736.15 547.004Z" fill="#5988FF"/>
<path d="M1751.6 581.615L1784.95 568.032L1788.63 577.086L1762.58 587.697L1768.07 601.18L1760.78 604.151L1751.6 581.615Z" fill="#5988FF"/>
<path d="M1763.94 612.369L1797.78 600.079L1806.64 624.471L1799.23 627.16L1793.71 611.956L1787.9 614.068L1792.96 628.016L1785.56 630.705L1780.49 616.757L1774.68 618.869L1780.17 634.007L1772.77 636.696L1763.94 612.369Z" fill="#5988FF"/>
<path d="M1815.31 650.306L1818.71 661.989L1801.46 675.716L1801.57 676.121L1823.49 678.468L1826.89 690.152L1792.31 700.197L1789.64 691.012L1809.63 685.205L1809.55 684.935L1787.6 682.964L1785.99 677.426L1803.61 663.959L1803.53 663.689L1783.4 669.535L1780.74 660.35L1815.31 650.306Z" fill="#5988FF"/>
<path d="M1796.72 718.475L1794.32 708.203L1832.09 711.579L1835.13 724.59L1802.77 744.361L1800.37 734.089L1823.98 720.479L1823.92 720.205L1796.72 718.475ZM1810.11 713.323L1814.62 732.635L1807.5 734.301L1802.98 714.989L1810.11 713.323Z" fill="#5988FF"/>
<path d="M1804.28 752.112L1839.67 745.526L1842.51 760.807C1843 763.434 1842.91 765.83 1842.24 767.993C1841.57 770.157 1840.4 771.96 1838.72 773.405C1837.05 774.849 1834.96 775.805 1832.44 776.272C1829.91 776.744 1827.61 776.587 1825.54 775.803C1823.48 775.031 1821.76 773.723 1820.38 771.882C1819 770.052 1818.06 767.788 1817.56 765.092L1815.86 755.965L1823.33 754.576L1824.67 761.767C1824.88 762.896 1825.25 763.822 1825.79 764.544C1826.35 765.275 1827.03 765.786 1827.85 766.075C1828.67 766.376 1829.58 766.433 1830.58 766.246C1831.59 766.058 1832.42 765.678 1833.05 765.107C1833.7 764.546 1834.14 763.826 1834.37 762.949C1834.61 762.081 1834.63 761.082 1834.42 759.953L1833.79 756.565L1806.06 761.723L1804.28 752.112Z" fill="#5988FF"/>
<path d="M1838.23 805.12C1839.38 804.862 1840.22 804.297 1840.76 803.427C1841.3 802.569 1841.46 801.356 1841.24 799.79C1841.1 798.792 1840.86 797.991 1840.52 797.388C1840.2 796.794 1839.82 796.375 1839.37 796.132C1838.92 795.888 1838.43 795.797 1837.91 795.86C1837.48 795.898 1837.1 796.029 1836.77 796.252C1836.46 796.486 1836.2 796.82 1835.98 797.254C1835.77 797.687 1835.59 798.226 1835.46 798.873C1835.33 799.519 1835.23 800.278 1835.18 801.15L1834.97 804.164C1834.83 806.196 1834.52 807.963 1834.04 809.465C1833.55 810.966 1832.91 812.23 1832.11 813.256C1831.32 814.28 1830.38 815.083 1829.29 815.664C1828.21 816.257 1826.98 816.656 1825.63 816.861C1823.28 817.183 1821.22 816.88 1819.43 815.951C1817.64 815.022 1816.16 813.539 1815.01 811.501C1813.86 809.475 1813.07 806.953 1812.64 803.936C1812.19 800.838 1812.27 798.069 1812.85 795.629C1813.44 793.201 1814.6 791.213 1816.32 789.665C1818.05 788.128 1820.41 787.141 1823.39 786.704L1824.7 795.895C1823.62 796.108 1822.74 796.511 1822.07 797.105C1821.39 797.698 1820.93 798.463 1820.67 799.399C1820.42 800.347 1820.38 801.436 1820.55 802.666C1820.7 803.699 1820.95 804.545 1821.3 805.205C1821.66 805.865 1822.09 806.343 1822.59 806.638C1823.1 806.933 1823.64 807.045 1824.22 806.974C1824.76 806.885 1825.21 806.637 1825.57 806.231C1825.94 805.835 1826.23 805.225 1826.45 804.402C1826.67 803.576 1826.84 802.481 1826.94 801.117L1827.2 797.457C1827.43 794.203 1828.22 791.551 1829.56 789.501C1830.92 787.461 1832.99 786.249 1835.77 785.863C1838.03 785.529 1840.1 785.851 1841.97 786.828C1843.85 787.815 1845.42 789.326 1846.68 791.36C1847.94 793.406 1848.77 795.839 1849.17 798.659C1849.58 801.537 1849.46 804.095 1848.79 806.332C1848.13 808.57 1847 810.382 1845.41 811.769C1843.84 813.166 1841.88 814.036 1839.55 814.38L1838.23 805.12Z" fill="#5988FF"/>
<path d="M1845.06 875.336C1846.22 875.166 1847.11 874.669 1847.71 873.843C1848.32 873.028 1848.57 871.832 1848.47 870.252C1848.4 869.247 1848.23 868.43 1847.94 867.802C1847.66 867.186 1847.31 866.739 1846.88 866.461C1846.45 866.184 1845.98 866.056 1845.45 866.078C1845.01 866.083 1844.63 866.184 1844.29 866.383C1843.96 866.592 1843.67 866.904 1843.42 867.32C1843.17 867.735 1842.96 868.26 1842.78 868.894C1842.59 869.528 1842.44 870.278 1842.32 871.143L1841.88 874.132C1841.59 876.148 1841.14 877.886 1840.55 879.346C1839.95 880.806 1839.21 882.016 1838.33 882.977C1837.47 883.938 1836.47 884.666 1835.34 885.162C1834.21 885.67 1832.96 885.974 1831.59 886.074C1829.23 886.215 1827.19 885.754 1825.48 884.69C1823.76 883.627 1822.41 882.035 1821.42 879.914C1820.42 877.805 1819.83 875.231 1819.63 872.189C1819.43 869.066 1819.71 866.311 1820.49 863.923C1821.26 861.548 1822.57 859.654 1824.4 858.244C1826.25 856.844 1828.67 856.041 1831.68 855.834L1832.28 865.098C1831.18 865.228 1830.28 865.563 1829.56 866.102C1828.84 866.642 1828.32 867.369 1827.99 868.283C1827.66 869.209 1827.54 870.291 1827.62 871.531C1827.69 872.572 1827.87 873.435 1828.18 874.12C1828.48 874.806 1828.87 875.315 1829.35 875.648C1829.83 875.981 1830.36 876.134 1830.95 876.108C1831.5 876.061 1831.96 875.849 1832.35 875.471C1832.75 875.105 1833.09 874.519 1833.36 873.714C1833.65 872.909 1833.9 871.83 1834.11 870.477L1834.65 866.848C1835.13 863.622 1836.12 861.038 1837.62 859.097C1839.12 857.167 1841.28 856.117 1844.09 855.947C1846.37 855.788 1848.4 856.267 1850.19 857.385C1851.99 858.514 1853.44 860.14 1854.54 862.266C1855.64 864.403 1856.28 866.892 1856.47 869.735C1856.65 872.636 1856.33 875.176 1855.5 877.356C1854.66 879.536 1853.4 881.256 1851.71 882.517C1850.03 883.788 1848.02 884.506 1845.67 884.67L1845.06 875.336Z" fill="#5988FF"/>
<path d="M1857.8 915.924L1858 925.697L1834.94 926.179C1832.2 926.236 1829.81 925.629 1827.78 924.359C1825.76 923.099 1824.18 921.315 1823.04 919.006C1821.92 916.696 1821.32 914.001 1821.26 910.918C1821.19 907.813 1821.67 905.083 1822.7 902.728C1823.75 900.374 1825.25 898.525 1827.21 897.183C1829.19 895.852 1831.55 895.158 1834.29 895.1L1857.35 894.619L1857.56 904.392L1835.34 904.856C1834.23 904.88 1833.23 905.146 1832.37 905.657C1831.51 906.167 1830.84 906.861 1830.37 907.739C1829.9 908.628 1829.67 909.629 1829.69 910.742C1829.72 911.867 1829.98 912.858 1830.49 913.715C1831 914.572 1831.7 915.238 1832.58 915.712C1833.47 916.186 1834.47 916.411 1835.58 916.388L1857.8 915.924Z" fill="#5988FF"/>
<path d="M1821.94 935.627L1857.94 936.451L1857.58 951.99C1857.52 954.662 1856.94 956.987 1855.84 958.967C1854.74 960.947 1853.22 962.471 1851.29 963.541C1849.35 964.61 1847.11 965.116 1844.55 965.057C1841.98 964.998 1839.76 964.373 1837.9 963.182C1836.04 962.002 1834.62 960.369 1833.65 958.283C1832.67 956.209 1832.22 953.801 1832.28 951.059L1832.49 941.778L1840.09 941.952L1839.92 949.264C1839.89 950.412 1840.07 951.396 1840.45 952.213C1840.84 953.043 1841.41 953.683 1842.15 954.134C1842.89 954.596 1843.77 954.839 1844.79 954.863C1845.82 954.886 1846.7 954.684 1847.44 954.255C1848.19 953.838 1848.76 953.224 1849.17 952.413C1849.59 951.613 1849.81 950.639 1849.83 949.491L1849.91 946.046L1821.72 945.401L1821.94 935.627Z" fill="#5988FF"/>
<path d="M1820.86 973.495L1856.79 975.844L1855.77 991.354C1855.6 994.021 1854.92 996.32 1853.74 998.251C1852.55 1000.18 1850.97 1001.64 1848.99 1002.63C1847.01 1003.61 1844.75 1004.02 1842.2 1003.86C1839.63 1003.69 1837.44 1002.97 1835.63 1001.7C1833.82 1000.44 1832.47 998.752 1831.59 996.627C1830.71 994.513 1830.36 992.088 1830.53 989.351L1831.14 980.087L1838.72 980.583L1838.24 987.882C1838.17 989.028 1838.3 990.018 1838.65 990.851C1839 991.696 1839.54 992.36 1840.26 992.841C1840.98 993.335 1841.85 993.615 1842.87 993.681C1843.89 993.749 1844.79 993.584 1845.54 993.187C1846.31 992.802 1846.91 992.213 1847.35 991.42C1847.8 990.639 1848.06 989.675 1848.14 988.529L1848.36 985.09L1820.22 983.25L1820.86 973.495Z" fill="#5988FF"/>
<path d="M1818.14 1011.3L1853.94 1015.08L1852.92 1024.8L1824.94 1021.85L1823.42 1036.33L1815.58 1035.5L1818.14 1011.3Z" fill="#5988FF"/>
<path d="M1814.49 1044.23L1850.12 1049.39L1846.41 1075.07L1838.61 1073.94L1840.93 1057.93L1834.8 1057.05L1832.68 1071.74L1824.89 1070.61L1827.01 1055.92L1820.88 1055.04L1818.58 1070.98L1810.79 1069.85L1814.49 1044.23Z" fill="#5988FF"/>
<path d="M1841.86 1101.94L1839.33 1113.84L1817.64 1117.79L1817.56 1118.21L1835.77 1130.63L1833.24 1142.53L1798.02 1135.05L1800.01 1125.7L1820.37 1130.02L1820.43 1129.74L1802.01 1117.64L1803.2 1112L1825.09 1108.45L1825.15 1108.17L1804.65 1103.82L1806.64 1094.46L1841.86 1101.94Z" fill="#5988FF"/>
<path d="M1793.28 1153.25L1796.02 1143.06L1827.71 1163.87L1824.25 1176.78L1786.39 1178.92L1789.13 1168.74L1816.37 1167.89L1816.44 1167.62L1793.28 1153.25ZM1807.51 1155.03L1802.37 1174.18L1795.31 1172.29L1800.45 1153.13L1807.51 1155.03Z" fill="#5988FF"/>
<path d="M1784.05 1186.47L1818.37 1197.38L1813.66 1212.19C1812.85 1214.74 1811.63 1216.81 1810.02 1218.4C1808.41 1219.99 1806.52 1221.02 1804.37 1221.5C1802.21 1221.99 1799.91 1221.84 1797.48 1221.07C1795.02 1220.28 1793.07 1219.06 1791.62 1217.39C1790.16 1215.74 1789.26 1213.77 1788.92 1211.5C1788.57 1209.23 1788.81 1206.8 1789.64 1204.18L1792.45 1195.33L1799.69 1197.64L1797.47 1204.61C1797.12 1205.7 1797.02 1206.69 1797.15 1207.59C1797.29 1208.49 1797.66 1209.27 1798.24 1209.91C1798.82 1210.56 1799.6 1211.04 1800.57 1211.35C1801.55 1211.66 1802.46 1211.71 1803.28 1211.51C1804.12 1211.32 1804.84 1210.89 1805.46 1210.23C1806.09 1209.58 1806.57 1208.71 1806.92 1207.61L1807.96 1204.33L1781.09 1195.78L1784.05 1186.47Z" fill="#5988FF"/>
<path d="M1788.96 1249.23C1790.09 1249.54 1791.1 1249.44 1791.98 1248.93C1792.87 1248.43 1793.58 1247.44 1794.12 1245.95C1794.47 1245 1794.64 1244.18 1794.63 1243.49C1794.62 1242.82 1794.48 1242.27 1794.2 1241.84C1793.92 1241.41 1793.53 1241.1 1793.04 1240.91C1792.64 1240.74 1792.25 1240.68 1791.86 1240.72C1791.47 1240.78 1791.08 1240.95 1790.68 1241.23C1790.29 1241.51 1789.88 1241.9 1789.46 1242.41C1789.04 1242.92 1788.6 1243.54 1788.14 1244.29L1786.53 1246.84C1785.45 1248.57 1784.34 1249.98 1783.21 1251.08C1782.07 1252.17 1780.91 1252.98 1779.72 1253.51C1778.54 1254.04 1777.33 1254.3 1776.1 1254.3C1774.86 1254.31 1773.59 1254.08 1772.3 1253.62C1770.08 1252.8 1768.4 1251.56 1767.26 1249.89C1766.12 1248.23 1765.53 1246.23 1765.47 1243.88C1765.41 1241.55 1765.91 1238.96 1766.95 1236.09C1768.03 1233.15 1769.4 1230.75 1771.07 1228.88C1772.73 1227.01 1774.69 1225.81 1776.94 1225.26C1779.19 1224.72 1781.74 1224.96 1784.57 1225.99L1781.38 1234.7C1780.33 1234.38 1779.37 1234.32 1778.49 1234.53C1777.62 1234.73 1776.85 1235.19 1776.18 1235.89C1775.51 1236.61 1774.96 1237.55 1774.53 1238.71C1774.17 1239.69 1773.99 1240.56 1773.99 1241.31C1773.99 1242.06 1774.15 1242.68 1774.45 1243.18C1774.76 1243.68 1775.18 1244.03 1775.73 1244.24C1776.25 1244.42 1776.76 1244.42 1777.27 1244.23C1777.78 1244.05 1778.33 1243.65 1778.91 1243.03C1779.49 1242.41 1780.16 1241.52 1780.89 1240.36L1782.85 1237.26C1784.59 1234.5 1786.54 1232.54 1788.69 1231.36C1790.85 1230.21 1793.24 1230.12 1795.88 1231.09C1798.03 1231.87 1799.7 1233.12 1800.88 1234.87C1802.08 1236.63 1802.75 1238.7 1802.9 1241.09C1803.04 1243.49 1802.63 1246.03 1801.65 1248.7C1800.65 1251.43 1799.33 1253.63 1797.69 1255.28C1796.05 1256.94 1794.2 1258.01 1792.15 1258.48C1790.1 1258.97 1787.96 1258.81 1785.75 1258.01L1788.96 1249.23Z" fill="#5988FF"/>
<path d="M1761.82 1314.35C1762.92 1314.75 1763.94 1314.72 1764.86 1314.28C1765.78 1313.85 1766.57 1312.91 1767.22 1311.47C1767.64 1310.56 1767.87 1309.75 1767.91 1309.06C1767.96 1308.39 1767.86 1307.83 1767.61 1307.38C1767.37 1306.94 1767.01 1306.6 1766.53 1306.37C1766.15 1306.17 1765.76 1306.07 1765.36 1306.09C1764.98 1306.12 1764.57 1306.26 1764.15 1306.5C1763.74 1306.75 1763.31 1307.12 1762.85 1307.59C1762.39 1308.06 1761.9 1308.65 1761.38 1309.36L1759.58 1311.78C1758.38 1313.42 1757.16 1314.74 1755.95 1315.75C1754.73 1316.75 1753.51 1317.47 1752.28 1317.9C1751.06 1318.34 1749.84 1318.51 1748.61 1318.41C1747.37 1318.33 1746.13 1318.01 1744.87 1317.45C1742.73 1316.46 1741.15 1315.09 1740.14 1313.34C1739.13 1311.59 1738.69 1309.55 1738.81 1307.21C1738.93 1304.89 1739.62 1302.33 1740.89 1299.56C1742.18 1296.71 1743.74 1294.42 1745.55 1292.68C1747.35 1290.95 1749.39 1289.9 1751.68 1289.52C1753.97 1289.16 1756.48 1289.6 1759.23 1290.84L1755.38 1299.28C1754.36 1298.88 1753.4 1298.75 1752.51 1298.89C1751.63 1299.02 1750.82 1299.42 1750.1 1300.07C1749.38 1300.73 1748.76 1301.62 1748.24 1302.75C1747.81 1303.7 1747.57 1304.55 1747.51 1305.3C1747.45 1306.05 1747.56 1306.68 1747.82 1307.2C1748.09 1307.72 1748.48 1308.11 1749.01 1308.36C1749.52 1308.58 1750.03 1308.61 1750.55 1308.46C1751.08 1308.33 1751.65 1307.97 1752.27 1307.39C1752.91 1306.82 1753.64 1305.98 1754.46 1304.89L1756.65 1301.94C1758.6 1299.33 1760.69 1297.52 1762.92 1296.52C1765.16 1295.53 1767.56 1295.62 1770.12 1296.8C1772.2 1297.73 1773.77 1299.12 1774.81 1300.94C1775.87 1302.79 1776.38 1304.91 1776.34 1307.3C1776.31 1309.71 1775.7 1312.2 1774.52 1314.8C1773.31 1317.44 1771.83 1319.53 1770.06 1321.06C1768.3 1322.58 1766.37 1323.5 1764.29 1323.82C1762.21 1324.14 1760.09 1323.82 1757.94 1322.86L1761.82 1314.35Z" fill="#5988FF"/>
<path d="M1753.88 1356.14L1749.44 1364.85L1728.89 1354.38C1726.44 1353.14 1724.63 1351.47 1723.44 1349.4C1722.25 1347.33 1721.7 1345.01 1721.79 1342.44C1721.89 1339.87 1722.64 1337.21 1724.03 1334.47C1725.44 1331.7 1727.16 1329.52 1729.18 1327.93C1731.21 1326.35 1733.4 1325.43 1735.77 1325.17C1738.14 1324.93 1740.55 1325.44 1742.99 1326.68L1763.55 1337.15L1759.11 1345.86L1739.31 1335.77C1738.32 1335.27 1737.32 1335.04 1736.31 1335.08C1735.31 1335.12 1734.4 1335.42 1733.57 1335.97C1732.73 1336.53 1732.06 1337.3 1731.55 1338.3C1731.04 1339.3 1730.81 1340.3 1730.86 1341.3C1730.9 1342.29 1731.2 1343.21 1731.75 1344.04C1732.31 1344.88 1733.08 1345.55 1734.08 1346.05L1753.88 1356.14Z" fill="#5988FF"/>
<path d="M1712.97 1356.57L1744.31 1374.3L1736.66 1387.83C1735.34 1390.15 1733.73 1391.93 1731.83 1393.15C1729.93 1394.38 1727.87 1395.01 1725.66 1395.04C1723.45 1395.06 1721.23 1394.45 1719 1393.19C1716.76 1391.92 1715.1 1390.32 1714.02 1388.39C1712.94 1386.47 1712.46 1384.37 1712.59 1382.07C1712.71 1379.78 1713.45 1377.44 1714.8 1375.06L1719.37 1366.98L1725.98 1370.72L1722.38 1377.08C1721.81 1378.08 1721.5 1379.03 1721.45 1379.93C1721.41 1380.85 1721.6 1381.68 1722.04 1382.43C1722.48 1383.18 1723.14 1383.81 1724.02 1384.31C1724.92 1384.82 1725.8 1385.06 1726.65 1385.03C1727.5 1385.02 1728.3 1384.75 1729.04 1384.23C1729.79 1383.72 1730.44 1382.96 1731.01 1381.96L1732.7 1378.96L1708.16 1365.08L1712.97 1356.57Z" fill="#5988FF"/>
<path d="M1694.14 1389.44L1724.69 1408.48L1716.48 1421.67C1715.06 1423.94 1713.38 1425.64 1711.42 1426.79C1709.47 1427.93 1707.39 1428.47 1705.18 1428.41C1702.97 1428.34 1700.78 1427.63 1698.61 1426.28C1696.42 1424.92 1694.83 1423.25 1693.83 1421.28C1692.83 1419.31 1692.45 1417.19 1692.67 1414.9C1692.89 1412.62 1693.73 1410.31 1695.18 1407.98L1700.08 1400.1L1706.53 1404.12L1702.66 1410.33C1702.06 1411.3 1701.71 1412.24 1701.62 1413.14C1701.53 1414.05 1701.69 1414.89 1702.1 1415.65C1702.5 1416.43 1703.13 1417.09 1704 1417.63C1704.88 1418.17 1705.74 1418.45 1706.59 1418.45C1707.45 1418.48 1708.26 1418.24 1709.02 1417.75C1709.78 1417.27 1710.47 1416.55 1711.08 1415.57L1712.9 1412.65L1688.97 1397.74L1694.14 1389.44Z" fill="#5988FF"/>
<path d="M1673.88 1421.47L1703.66 1441.71L1698.17 1449.8L1674.9 1433.99L1666.72 1446.03L1660.2 1441.6L1673.88 1421.47Z" fill="#5988FF"/>
<path d="M1655.11 1448.78L1684.09 1470.15L1668.69 1491.04L1662.35 1486.36L1671.95 1473.35L1666.97 1469.67L1658.16 1481.62L1651.83 1476.94L1660.63 1465L1655.65 1461.32L1646.09 1474.29L1639.75 1469.61L1655.11 1448.78Z" fill="#5988FF"/>
<path d="M1651.99 1512.57L1644.14 1521.87L1623.16 1515.11L1622.89 1515.43L1633.08 1534.99L1625.23 1544.28L1597.72 1521.06L1603.88 1513.75L1619.79 1527.18L1619.97 1526.96L1609.45 1507.59L1613.17 1503.18L1634.14 1510.39L1634.32 1510.18L1618.31 1496.66L1624.48 1489.35L1651.99 1512.57Z" fill="#5988FF"/>
<path d="M1584.94 1534.86L1592.17 1527.17L1610.27 1560.48L1601.13 1570.22L1566.75 1554.24L1573.97 1546.55L1598.38 1558.67L1598.57 1558.46L1584.94 1534.86ZM1596.65 1543.15L1583.07 1557.6L1577.74 1552.6L1591.32 1538.14L1596.65 1543.15Z" fill="#5988FF"/>
<path d="M1561.13 1559.78L1586.22 1585.6L1575.07 1596.43C1573.15 1598.3 1571.11 1599.55 1568.94 1600.19C1566.77 1600.83 1564.61 1600.85 1562.48 1600.26C1560.35 1599.66 1558.4 1598.45 1556.62 1596.62C1554.82 1594.77 1553.68 1592.77 1553.19 1590.61C1552.69 1588.47 1552.82 1586.31 1553.59 1584.14C1554.35 1581.98 1555.71 1579.94 1557.68 1578.03L1564.34 1571.56L1569.63 1577.01L1564.39 1582.11C1563.56 1582.91 1563 1583.73 1562.7 1584.58C1562.4 1585.45 1562.35 1586.3 1562.56 1587.14C1562.76 1587.99 1563.22 1588.78 1563.93 1589.51C1564.65 1590.25 1565.42 1590.73 1566.25 1590.94C1567.07 1591.16 1567.92 1591.13 1568.77 1590.84C1569.63 1590.56 1570.47 1590.02 1571.3 1589.22L1573.77 1586.82L1554.12 1566.59L1561.13 1559.78Z" fill="#5988FF"/>
<path d="M1535.81 1617.42C1536.66 1618.23 1537.6 1618.62 1538.62 1618.58C1539.63 1618.56 1540.73 1618.02 1541.91 1616.97C1542.66 1616.3 1543.2 1615.65 1543.52 1615.04C1543.83 1614.44 1543.97 1613.89 1543.92 1613.38C1543.88 1612.87 1543.68 1612.42 1543.34 1612.02C1543.07 1611.68 1542.75 1611.44 1542.38 1611.29C1542.02 1611.16 1541.59 1611.12 1541.11 1611.18C1540.63 1611.24 1540.09 1611.4 1539.47 1611.65C1538.86 1611.9 1538.18 1612.24 1537.42 1612.68L1534.8 1614.17C1533.03 1615.18 1531.39 1615.9 1529.87 1616.33C1528.35 1616.76 1526.94 1616.92 1525.65 1616.83C1524.36 1616.74 1523.17 1616.4 1522.08 1615.81C1520.98 1615.24 1519.98 1614.44 1519.05 1613.43C1517.49 1611.65 1516.59 1609.76 1516.37 1607.76C1516.16 1605.75 1516.58 1603.7 1517.63 1601.61C1518.68 1599.53 1520.34 1597.48 1522.62 1595.45C1524.95 1593.36 1527.3 1591.89 1529.65 1591.03C1532 1590.17 1534.3 1590.03 1536.54 1590.61C1538.78 1591.2 1540.9 1592.62 1542.92 1594.86L1535.99 1601.04C1535.22 1600.26 1534.39 1599.75 1533.53 1599.52C1532.66 1599.29 1531.77 1599.32 1530.84 1599.63C1529.91 1599.94 1528.98 1600.51 1528.06 1601.34C1527.28 1602.03 1526.71 1602.71 1526.36 1603.37C1526.01 1604.03 1525.85 1604.65 1525.88 1605.23C1525.91 1605.82 1526.12 1606.33 1526.5 1606.78C1526.88 1607.18 1527.33 1607.42 1527.87 1607.49C1528.4 1607.58 1529.07 1607.48 1529.88 1607.2C1530.69 1606.94 1531.69 1606.46 1532.88 1605.79L1536.08 1603.98C1538.91 1602.38 1541.56 1601.56 1544.01 1601.54C1546.46 1601.54 1548.61 1602.6 1550.48 1604.7C1552.01 1606.4 1552.88 1608.3 1553.11 1610.39C1553.33 1612.51 1552.94 1614.65 1551.94 1616.83C1550.94 1619.01 1549.37 1621.05 1547.25 1622.95C1545.08 1624.88 1542.88 1626.19 1540.65 1626.88C1538.42 1627.57 1536.29 1627.63 1534.25 1627.08C1532.22 1626.54 1530.41 1625.39 1528.83 1623.64L1535.81 1617.42Z" fill="#5988FF"/>
<path d="M1481.14 1662C1481.93 1662.87 1482.83 1663.33 1483.85 1663.38C1484.87 1663.43 1486 1662.98 1487.26 1662.02C1488.06 1661.41 1488.64 1660.81 1489.01 1660.22C1489.37 1659.65 1489.54 1659.11 1489.54 1658.6C1489.53 1658.09 1489.37 1657.62 1489.06 1657.19C1488.82 1656.83 1488.52 1656.57 1488.17 1656.39C1487.81 1656.24 1487.39 1656.17 1486.9 1656.19C1486.42 1656.21 1485.87 1656.33 1485.24 1656.53C1484.61 1656.73 1483.9 1657.02 1483.11 1657.4L1480.38 1658.68C1478.54 1659.56 1476.85 1660.15 1475.3 1660.46C1473.75 1660.77 1472.34 1660.83 1471.05 1660.63C1469.77 1660.44 1468.61 1660.01 1467.57 1659.35C1466.53 1658.69 1465.58 1657.81 1464.74 1656.73C1463.31 1654.84 1462.57 1652.89 1462.5 1650.87C1462.44 1648.86 1463.02 1646.85 1464.23 1644.85C1465.44 1642.85 1467.25 1640.93 1469.67 1639.08C1472.16 1637.18 1474.61 1635.89 1477.03 1635.21C1479.43 1634.54 1481.73 1634.58 1483.92 1635.33C1486.11 1636.09 1488.13 1637.66 1489.96 1640.05L1482.58 1645.68C1481.87 1644.84 1481.09 1644.27 1480.24 1643.98C1479.39 1643.68 1478.5 1643.65 1477.56 1643.88C1476.6 1644.12 1475.63 1644.62 1474.65 1645.37C1473.82 1646 1473.2 1646.63 1472.8 1647.27C1472.4 1647.9 1472.19 1648.5 1472.18 1649.09C1472.17 1649.67 1472.33 1650.2 1472.68 1650.67C1473.02 1651.11 1473.46 1651.38 1473.99 1651.49C1474.51 1651.62 1475.19 1651.58 1476.01 1651.36C1476.84 1651.15 1477.88 1650.76 1479.12 1650.19L1482.44 1648.62C1485.39 1647.24 1488.09 1646.63 1490.53 1646.8C1492.98 1646.99 1495.04 1648.2 1496.74 1650.45C1498.14 1652.26 1498.86 1654.22 1498.92 1656.32C1498.98 1658.45 1498.43 1660.56 1497.27 1662.65C1496.1 1664.75 1494.39 1666.66 1492.12 1668.39C1489.81 1670.16 1487.52 1671.29 1485.24 1671.81C1482.96 1672.32 1480.83 1672.22 1478.85 1671.51C1476.86 1670.82 1475.14 1669.54 1473.7 1667.67L1481.14 1662Z" fill="#5988FF"/>
<path d="M1454.41 1695.08L1446.38 1700.67L1433.21 1681.73C1431.64 1679.48 1430.83 1677.16 1430.76 1674.76C1430.69 1672.39 1431.3 1670.08 1432.59 1667.86C1433.89 1665.64 1435.8 1663.65 1438.33 1661.89C1440.88 1660.11 1443.42 1659 1445.95 1658.56C1448.49 1658.12 1450.86 1658.35 1453.07 1659.24C1455.27 1660.15 1457.15 1661.73 1458.72 1663.98L1471.9 1682.91L1463.87 1688.5L1451.18 1670.25C1450.54 1669.34 1449.77 1668.66 1448.87 1668.22C1447.97 1667.79 1447.02 1667.62 1446.03 1667.71C1445.03 1667.81 1444.07 1668.18 1443.15 1668.82C1442.23 1669.46 1441.55 1670.23 1441.12 1671.13C1440.69 1672.03 1440.52 1672.97 1440.61 1673.97C1440.71 1674.97 1441.08 1675.93 1441.71 1676.84L1454.41 1695.08Z" fill="#5988FF"/>
<path d="M1418.15 1676.15L1437.4 1706.57L1424.27 1714.89C1422.01 1716.31 1419.75 1717.12 1417.49 1717.3C1415.24 1717.48 1413.13 1717.06 1411.16 1716.04C1409.2 1715.02 1407.54 1713.43 1406.17 1711.27C1404.79 1709.1 1404.08 1706.9 1404.04 1704.69C1404 1702.49 1404.57 1700.41 1405.77 1698.44C1406.96 1696.48 1408.71 1694.77 1411.03 1693.3L1418.87 1688.34L1422.93 1694.76L1416.75 1698.67C1415.78 1699.28 1415.06 1699.97 1414.59 1700.74C1414.12 1701.53 1413.9 1702.36 1413.93 1703.22C1413.96 1704.09 1414.24 1704.96 1414.79 1705.82C1415.34 1706.69 1416 1707.32 1416.76 1707.69C1417.52 1708.09 1418.35 1708.23 1419.25 1708.11C1420.15 1708.02 1421.08 1707.66 1422.05 1707.05L1424.96 1705.21L1409.89 1681.37L1418.15 1676.15Z" fill="#5988FF"/>
<path d="M1386.02 1696.22L1403.97 1727.44L1390.49 1735.18C1388.18 1736.52 1385.89 1737.22 1383.62 1737.31C1381.36 1737.39 1379.27 1736.88 1377.35 1735.78C1375.44 1734.68 1373.84 1733.02 1372.57 1730.81C1371.28 1728.57 1370.67 1726.35 1370.72 1724.14C1370.77 1721.94 1371.43 1719.88 1372.71 1717.97C1373.98 1716.06 1375.8 1714.43 1378.18 1713.06L1386.23 1708.43L1390.01 1715.02L1383.67 1718.66C1382.68 1719.24 1381.93 1719.9 1381.43 1720.64C1380.92 1721.41 1380.66 1722.22 1380.66 1723.09C1380.65 1723.96 1380.9 1724.84 1381.41 1725.73C1381.92 1726.62 1382.55 1727.27 1383.3 1727.68C1384.04 1728.1 1384.87 1728.28 1385.77 1728.2C1386.67 1728.15 1387.62 1727.83 1388.61 1727.26L1391.6 1725.54L1377.55 1701.09L1386.02 1696.22Z" fill="#5988FF"/>
<path d="M1353.04 1714.89L1369.73 1746.8L1361.07 1751.33L1348.03 1726.4L1335.13 1733.15L1331.48 1726.17L1353.04 1714.89Z" fill="#5988FF"/>
<path d="M1323.6 1730.1L1339.05 1762.62L1315.62 1773.76L1312.24 1766.65L1326.84 1759.7L1324.19 1754.11L1310.79 1760.48L1307.41 1753.37L1320.81 1747L1318.15 1741.41L1303.61 1748.32L1300.23 1741.21L1323.6 1730.1Z" fill="#5988FF"/>
<path d="M1290.73 1784.85L1279.42 1789.34L1264.12 1773.48L1263.72 1773.63L1263.47 1795.68L1252.17 1800.17L1238.88 1766.7L1247.77 1763.17L1255.45 1782.52L1255.71 1782.41L1255.58 1760.37L1260.94 1758.24L1276.02 1774.5L1276.28 1774.4L1268.55 1754.92L1277.44 1751.39L1290.73 1784.85Z" fill="#5988FF"/>
<path d="M1221.11 1772.83L1231.1 1769.46L1231.33 1807.38L1218.67 1811.65L1195.92 1781.32L1205.91 1777.95L1221.7 1800.16L1221.97 1800.07L1221.11 1772.83ZM1227.51 1785.66L1208.71 1792L1206.38 1785.06L1225.17 1778.73L1227.51 1785.66Z" fill="#5988FF"/>
<path d="M1188.34 1783.55L1198.26 1818.16L1183.33 1822.45C1180.76 1823.18 1178.36 1823.32 1176.15 1822.86C1173.93 1822.4 1172.02 1821.4 1170.43 1819.87C1168.83 1818.34 1167.68 1816.35 1166.97 1813.89C1166.26 1811.41 1166.2 1809.11 1166.78 1806.98C1167.36 1804.85 1168.5 1803.01 1170.2 1801.46C1171.89 1799.92 1174.05 1798.77 1176.69 1798.01L1185.61 1795.45L1187.7 1802.75L1180.67 1804.77C1179.57 1805.09 1178.68 1805.55 1178.02 1806.15C1177.34 1806.77 1176.9 1807.5 1176.69 1808.34C1176.47 1809.19 1176.5 1810.1 1176.78 1811.08C1177.06 1812.07 1177.52 1812.86 1178.15 1813.43C1178.77 1814.02 1179.52 1814.39 1180.42 1814.54C1181.31 1814.7 1182.3 1814.62 1183.41 1814.3L1186.72 1813.35L1178.95 1786.24L1188.34 1783.55Z" fill="#5988FF"/>
<path d="M1138.81 1822.4C1139.18 1823.51 1139.82 1824.3 1140.74 1824.75C1141.64 1825.21 1142.86 1825.25 1144.4 1824.88C1145.38 1824.64 1146.16 1824.33 1146.72 1823.94C1147.28 1823.56 1147.67 1823.14 1147.87 1822.67C1148.07 1822.2 1148.11 1821.71 1148 1821.19C1147.92 1820.76 1147.75 1820.4 1147.5 1820.1C1147.24 1819.81 1146.88 1819.58 1146.43 1819.4C1145.97 1819.23 1145.42 1819.11 1144.77 1819.04C1144.11 1818.97 1143.34 1818.95 1142.47 1818.98L1139.45 1819.06C1137.42 1819.11 1135.63 1818.97 1134.09 1818.63C1132.55 1818.29 1131.23 1817.77 1130.13 1817.07C1129.04 1816.39 1128.15 1815.53 1127.47 1814.5C1126.77 1813.47 1126.26 1812.29 1125.93 1810.96C1125.38 1808.66 1125.49 1806.57 1126.24 1804.7C1127 1802.83 1128.33 1801.22 1130.25 1799.88C1132.16 1798.54 1134.59 1797.51 1137.55 1796.8C1140.6 1796.06 1143.36 1795.87 1145.84 1796.23C1148.32 1796.58 1150.41 1797.54 1152.11 1799.11C1153.81 1800.69 1155.01 1802.94 1155.73 1805.87L1146.71 1808.05C1146.39 1806.99 1145.91 1806.15 1145.25 1805.54C1144.6 1804.93 1143.79 1804.54 1142.83 1804.37C1141.87 1804.2 1140.78 1804.27 1139.57 1804.56C1138.56 1804.8 1137.74 1805.13 1137.12 1805.55C1136.49 1805.97 1136.06 1806.44 1135.81 1806.97C1135.57 1807.5 1135.51 1808.05 1135.63 1808.62C1135.77 1809.15 1136.06 1809.58 1136.5 1809.89C1136.93 1810.23 1137.56 1810.46 1138.4 1810.59C1139.25 1810.74 1140.35 1810.8 1141.72 1810.77L1145.39 1810.68C1148.65 1810.6 1151.36 1811.14 1153.53 1812.28C1155.69 1813.43 1157.1 1815.38 1157.74 1818.12C1158.29 1820.34 1158.17 1822.42 1157.37 1824.37C1156.57 1826.34 1155.21 1828.05 1153.31 1829.5C1151.39 1830.95 1149.05 1832.01 1146.28 1832.67C1143.46 1833.36 1140.9 1833.47 1138.61 1833.03C1136.32 1832.58 1134.41 1831.63 1132.88 1830.18C1131.33 1828.74 1130.28 1826.88 1129.72 1824.59L1138.81 1822.4Z" fill="#5988FF"/>
<path d="M1069.57 1835.87C1069.85 1837.01 1070.43 1837.85 1071.31 1838.37C1072.18 1838.89 1073.39 1839.03 1074.95 1838.78C1075.95 1838.62 1076.74 1838.37 1077.34 1838.02C1077.93 1837.69 1078.34 1837.29 1078.58 1836.84C1078.81 1836.39 1078.89 1835.9 1078.82 1835.38C1078.78 1834.95 1078.64 1834.57 1078.41 1834.25C1078.17 1833.94 1077.83 1833.68 1077.39 1833.47C1076.96 1833.27 1076.41 1833.11 1075.76 1832.99C1075.12 1832.86 1074.36 1832.78 1073.48 1832.75L1070.47 1832.59C1068.43 1832.49 1066.66 1832.22 1065.15 1831.76C1063.64 1831.3 1062.36 1830.68 1061.32 1829.9C1060.29 1829.13 1059.47 1828.2 1058.86 1827.13C1058.25 1826.05 1057.83 1824.84 1057.6 1823.48C1057.24 1821.14 1057.5 1819.07 1058.4 1817.26C1059.29 1815.46 1060.75 1813.96 1062.76 1812.77C1064.77 1811.58 1067.28 1810.74 1070.28 1810.25C1073.37 1809.76 1076.14 1809.78 1078.59 1810.32C1081.03 1810.87 1083.04 1811.98 1084.62 1813.68C1086.19 1815.38 1087.22 1817.72 1087.71 1820.69L1078.54 1822.17C1078.31 1821.09 1077.89 1820.22 1077.29 1819.56C1076.68 1818.9 1075.91 1818.45 1074.97 1818.21C1074.01 1817.97 1072.92 1817.95 1071.7 1818.15C1070.67 1818.31 1069.83 1818.58 1069.17 1818.95C1068.52 1819.31 1068.05 1819.75 1067.77 1820.26C1067.48 1820.77 1067.38 1821.31 1067.46 1821.89C1067.56 1822.44 1067.81 1822.88 1068.23 1823.23C1068.63 1823.59 1069.24 1823.87 1070.07 1824.07C1070.9 1824.28 1072 1824.43 1073.36 1824.5L1077.03 1824.7C1080.29 1824.87 1082.95 1825.61 1085.03 1826.91C1087.09 1828.23 1088.34 1830.28 1088.78 1833.06C1089.15 1835.31 1088.87 1837.38 1087.93 1839.27C1086.97 1841.17 1085.49 1842.77 1083.48 1844.06C1081.46 1845.36 1079.04 1846.24 1076.23 1846.69C1073.36 1847.16 1070.8 1847.08 1068.55 1846.45C1066.3 1845.83 1064.47 1844.74 1063.05 1843.17C1061.63 1841.62 1060.72 1839.68 1060.34 1837.36L1069.57 1835.87Z" fill="#5988FF"/>
<path d="M1030.38 1852.41L1020.67 1853.54L1018 1830.63C1017.68 1827.9 1018.06 1825.47 1019.13 1823.33C1020.19 1821.2 1021.82 1819.46 1024.01 1818.1C1026.2 1816.76 1028.83 1815.91 1031.89 1815.56C1034.97 1815.2 1037.74 1815.42 1040.18 1816.22C1042.62 1817.03 1044.6 1818.35 1046.13 1820.18C1047.64 1822.02 1048.55 1824.3 1048.87 1827.03L1051.54 1849.94L1041.84 1851.07L1039.26 1829C1039.13 1827.89 1038.77 1826.93 1038.18 1826.11C1037.59 1825.31 1036.84 1824.71 1035.92 1824.33C1034.99 1823.94 1033.97 1823.81 1032.87 1823.94C1031.75 1824.07 1030.79 1824.43 1029.98 1825.02C1029.18 1825.61 1028.58 1826.36 1028.19 1827.28C1027.81 1828.21 1027.68 1829.23 1027.81 1830.33L1030.38 1852.41Z" fill="#5988FF"/>
<path d="M1007.36 1818.59L1009.96 1854.5L994.463 1855.63C991.797 1855.82 989.427 1855.46 987.352 1854.56C985.277 1853.65 983.615 1852.28 982.366 1850.46C981.118 1848.63 980.401 1846.45 980.216 1843.9C980.03 1841.33 980.441 1839.06 981.451 1837.09C982.448 1835.13 983.939 1833.56 985.922 1832.4C987.894 1831.23 990.248 1830.55 992.983 1830.35L1002.24 1829.68L1002.79 1837.25L995.496 1837.78C994.35 1837.87 993.389 1838.14 992.611 1838.59C991.822 1839.06 991.239 1839.68 990.861 1840.46C990.471 1841.24 990.313 1842.14 990.386 1843.16C990.461 1844.19 990.747 1845.05 991.243 1845.74C991.729 1846.45 992.395 1846.96 993.241 1847.29C994.077 1847.63 995.067 1847.76 996.213 1847.67L999.65 1847.42L997.611 1819.3L1007.36 1818.59Z" fill="#5988FF"/>
<path d="M969.566 1821.11L970.644 1857.1L955.11 1857.57C952.439 1857.65 950.086 1857.19 948.051 1856.2C946.016 1855.2 944.414 1853.77 943.244 1851.89C942.074 1850.01 941.45 1847.8 941.374 1845.24C941.297 1842.67 941.804 1840.42 942.895 1838.5C943.975 1836.58 945.531 1835.08 947.562 1834C949.582 1832.91 951.962 1832.33 954.703 1832.25L963.982 1831.97L964.209 1839.57L956.899 1839.78C955.751 1839.82 954.778 1840.05 953.982 1840.47C953.174 1840.9 952.565 1841.5 952.154 1842.27C951.731 1843.03 951.535 1843.92 951.566 1844.94C951.597 1845.97 951.845 1846.84 952.312 1847.56C952.768 1848.28 953.412 1848.82 954.243 1849.19C955.063 1849.56 956.047 1849.73 957.196 1849.7L960.64 1849.59L959.796 1821.4L969.566 1821.11Z" fill="#5988FF"/>
<path d="M931.677 1821.99L931.323 1858L921.549 1857.9L921.826 1829.77L907.27 1829.63L907.347 1821.75L931.677 1821.99Z" fill="#5988FF"/>
<path d="M898.547 1821.49L896.81 1857.46L870.892 1856.21L871.272 1848.34L887.427 1849.12L887.725 1842.94L872.905 1842.22L873.285 1834.35L888.105 1835.07L888.404 1828.89L872.319 1828.11L872.699 1820.24L898.547 1821.49Z" fill="#5988FF"/>
<path d="M843.714 1854.23L831.627 1852.85L825.631 1831.63L825.212 1831.58L814.58 1850.9L802.493 1849.51L806.586 1813.74L816.087 1814.82L813.721 1835.51L814.001 1835.54L824.299 1816.05L830.028 1816.7L835.643 1838.16L835.923 1838.19L838.304 1817.37L847.806 1818.45L843.714 1854.23Z" fill="#5988FF"/>
<path d="M788.025 1810.75L798.426 1812.5L780.725 1846.03L767.549 1843.81L761.813 1806.33L772.214 1808.08L775.646 1835.12L775.923 1835.17L788.025 1810.75ZM787.606 1825.08L768.051 1821.79L769.266 1814.58L788.821 1817.87L787.606 1825.08Z" fill="#5988FF"/>
<path d="M754.084 1804.72L746.485 1839.92L731.294 1836.64C728.682 1836.07 726.508 1835.06 724.771 1833.61C723.035 1832.16 721.824 1830.38 721.139 1828.28C720.454 1826.17 720.381 1823.87 720.921 1821.37C721.465 1818.85 722.497 1816.79 724.018 1815.19C725.528 1813.59 727.398 1812.5 729.63 1811.94C731.85 1811.38 734.3 1811.39 736.981 1811.96L746.054 1813.92L744.451 1821.35L737.303 1819.8C736.18 1819.56 735.181 1819.55 734.307 1819.77C733.418 1820 732.683 1820.43 732.101 1821.07C731.507 1821.71 731.103 1822.53 730.887 1823.53C730.67 1824.54 730.702 1825.44 730.984 1826.25C731.252 1827.06 731.746 1827.74 732.466 1828.29C733.173 1828.85 734.087 1829.25 735.21 1829.5L738.578 1830.22L744.53 1802.66L754.084 1804.72Z" fill="#5988FF"/>
<path d="M692.078 1815.57C691.873 1816.73 692.068 1817.72 692.662 1818.56C693.245 1819.39 694.302 1820 695.833 1820.4C696.808 1820.65 697.639 1820.74 698.325 1820.67C698.996 1820.6 699.531 1820.41 699.93 1820.09C700.328 1819.77 700.6 1819.35 700.744 1818.85C700.876 1818.43 700.901 1818.03 700.82 1817.65C700.724 1817.27 700.519 1816.9 700.205 1816.52C699.887 1816.16 699.456 1815.8 698.911 1815.42C698.366 1815.05 697.702 1814.67 696.918 1814.29L694.22 1812.93C692.399 1812.02 690.889 1811.05 689.691 1810.02C688.494 1808.99 687.576 1807.91 686.94 1806.78C686.3 1805.65 685.923 1804.48 685.807 1803.25C685.68 1802.02 685.784 1800.74 686.119 1799.41C686.728 1797.12 687.806 1795.33 689.354 1794.03C690.902 1792.74 692.839 1791.96 695.164 1791.68C697.478 1791.4 700.11 1791.64 703.058 1792.41C706.086 1793.2 708.612 1794.34 710.635 1795.82C712.647 1797.31 714.034 1799.14 714.797 1801.32C715.545 1803.52 715.544 1806.07 714.796 1808.99L705.814 1806.65C706.035 1805.57 706.002 1804.6 705.715 1803.75C705.428 1802.9 704.902 1802.18 704.138 1801.58C703.362 1800.98 702.374 1800.52 701.171 1800.21C700.162 1799.94 699.285 1799.85 698.539 1799.92C697.794 1799.99 697.187 1800.2 696.72 1800.55C696.254 1800.9 695.941 1801.36 695.781 1801.93C695.654 1802.46 695.708 1802.97 695.945 1803.46C696.167 1803.95 696.617 1804.46 697.294 1804.97C697.968 1805.5 698.915 1806.07 700.134 1806.69L703.409 1808.35C706.319 1809.82 708.46 1811.57 709.833 1813.6C711.191 1815.64 711.509 1818.02 710.788 1820.74C710.223 1822.95 709.129 1824.73 707.506 1826.08C705.869 1827.43 703.869 1828.3 701.506 1828.67C699.131 1829.05 696.566 1828.88 693.81 1828.16C690.998 1827.42 688.688 1826.32 686.881 1824.84C685.073 1823.37 683.837 1821.63 683.173 1819.62C682.493 1817.63 682.445 1815.49 683.029 1813.21L692.078 1815.57Z" fill="#5988FF"/>
<path d="M624.683 1794.74C624.389 1795.88 624.507 1796.89 625.035 1797.77C625.553 1798.64 626.559 1799.33 628.055 1799.85C629.008 1800.18 629.829 1800.33 630.519 1800.31C631.194 1800.29 631.742 1800.14 632.164 1799.85C632.586 1799.56 632.888 1799.17 633.071 1798.68C633.234 1798.28 633.29 1797.88 633.239 1797.49C633.172 1797.11 632.996 1796.72 632.711 1796.32C632.423 1795.94 632.021 1795.54 631.506 1795.13C630.991 1794.71 630.358 1794.28 629.607 1793.84L627.021 1792.28C625.275 1791.23 623.844 1790.15 622.729 1789.03C621.613 1787.91 620.782 1786.77 620.234 1785.59C619.683 1784.42 619.397 1783.21 619.376 1781.98C619.344 1780.74 619.546 1779.47 619.982 1778.17C620.765 1775.94 621.978 1774.23 623.62 1773.06C625.263 1771.9 627.255 1771.26 629.594 1771.16C631.923 1771.06 634.528 1771.51 637.409 1772.5C640.367 1773.52 642.798 1774.85 644.701 1776.48C646.593 1778.12 647.835 1780.05 648.428 1782.29C649.005 1784.53 648.809 1787.08 647.838 1789.93L639.062 1786.91C639.366 1785.85 639.407 1784.88 639.187 1784.01C638.966 1783.14 638.497 1782.38 637.781 1781.72C637.054 1781.06 636.103 1780.53 634.929 1780.13C633.943 1779.79 633.075 1779.62 632.326 1779.64C631.577 1779.65 630.957 1779.82 630.464 1780.13C629.972 1780.44 629.625 1780.88 629.423 1781.43C629.254 1781.95 629.269 1782.46 629.468 1782.97C629.652 1783.48 630.061 1784.01 630.697 1784.58C631.328 1785.16 632.228 1785.8 633.396 1786.51L636.534 1788.42C639.322 1790.11 641.323 1792.02 642.535 1794.15C643.733 1796.28 643.868 1798.68 642.94 1801.34C642.206 1803.5 640.979 1805.19 639.257 1806.41C637.521 1807.63 635.461 1808.34 633.076 1808.54C630.679 1808.73 628.135 1808.36 625.442 1807.43C622.695 1806.48 620.476 1805.2 618.788 1803.59C617.099 1801.98 616.001 1800.15 615.492 1798.1C614.968 1796.06 615.084 1793.93 615.841 1791.7L624.683 1794.74Z" fill="#5988FF"/>
<path d="M582.331 1790.81L573.238 1787.22L581.702 1765.77C582.708 1763.21 584.19 1761.25 586.146 1759.86C588.088 1758.49 590.343 1757.72 592.913 1757.56C595.478 1757.42 598.194 1757.91 601.062 1759.04C603.951 1760.18 606.282 1761.68 608.056 1763.54C609.826 1765.41 610.95 1767.51 611.429 1769.84C611.893 1772.18 611.622 1774.62 610.615 1777.17L602.151 1798.63L593.059 1795.04L601.213 1774.37C601.622 1773.33 601.758 1772.32 601.623 1771.32C601.483 1770.33 601.1 1769.45 600.474 1768.67C599.837 1767.89 599.001 1767.3 597.965 1766.89C596.918 1766.48 595.901 1766.34 594.914 1766.48C593.926 1766.62 593.045 1767 592.268 1767.63C591.488 1768.27 590.894 1769.1 590.485 1770.14L582.331 1790.81Z" fill="#5988FF"/>
<path d="M578.008 1750.13L563.344 1783.01L549.15 1776.68C546.71 1775.6 544.789 1774.16 543.389 1772.38C541.988 1770.6 541.168 1768.61 540.929 1766.41C540.69 1764.22 541.091 1761.95 542.132 1759.62C543.182 1757.26 544.616 1755.46 546.434 1754.2C548.24 1752.94 550.293 1752.26 552.593 1752.17C554.881 1752.08 557.278 1752.59 559.782 1753.7L568.26 1757.49L565.167 1764.42L558.487 1761.44C557.438 1760.98 556.463 1760.76 555.563 1760.79C554.646 1760.83 553.837 1761.11 553.136 1761.62C552.423 1762.12 551.86 1762.84 551.444 1763.77C551.024 1764.71 550.87 1765.6 550.98 1766.45C551.076 1767.3 551.419 1768.07 552.011 1768.76C552.587 1769.45 553.4 1770.03 554.449 1770.5L557.596 1771.9L569.081 1746.15L578.008 1750.13Z" fill="#5988FF"/>
<path d="M543.503 1734.5L527.457 1766.73L513.545 1759.81C511.153 1758.62 509.295 1757.1 507.971 1755.26C506.647 1753.43 505.912 1751.4 505.767 1749.2C505.622 1746.99 506.118 1744.74 507.257 1742.46C508.406 1740.15 509.915 1738.41 511.784 1737.23C513.643 1736.05 515.723 1735.46 518.024 1735.46C520.314 1735.46 522.687 1736.08 525.142 1737.3L533.452 1741.44L530.067 1748.24L523.52 1744.98C522.492 1744.46 521.527 1744.21 520.626 1744.2C519.708 1744.2 518.888 1744.44 518.166 1744.92C517.433 1745.4 516.839 1746.09 516.385 1747C515.925 1747.92 515.733 1748.81 515.808 1749.66C515.867 1750.51 516.177 1751.3 516.74 1752.01C517.286 1752.73 518.073 1753.34 519.101 1753.85L522.186 1755.39L534.753 1730.14L543.503 1734.5Z" fill="#5988FF"/>
<path d="M509.689 1717.38L492.374 1748.95L483.804 1744.25L497.331 1719.59L484.568 1712.59L488.356 1705.68L509.689 1717.38Z" fill="#5988FF"/>
<path d="M480.724 1701.29L462.209 1732.18L439.954 1718.83L444.005 1712.07L457.876 1720.39L461.058 1715.09L448.333 1707.45L452.383 1700.7L465.108 1708.33L468.291 1703.02L454.48 1694.74L458.53 1687.98L480.724 1701.29Z" fill="#5988FF"/>
<path d="M416.932 1704.25L406.931 1697.32L411.664 1675.79L411.317 1675.55L392.826 1687.55L382.825 1680.62L403.325 1651.02L411.187 1656.47L399.336 1673.58L399.567 1673.74L417.849 1661.43L422.589 1664.71L417.407 1686.27L417.639 1686.43L429.571 1669.2L437.432 1674.65L416.932 1704.25Z" fill="#5988FF"/>
<path d="M388.375 1639.62L396.716 1646.08L365.278 1667.27L354.713 1659.1L367.357 1623.35L375.697 1629.8L365.954 1655.26L366.177 1655.43L388.375 1639.62ZM381.237 1652.06L365.556 1639.92L370.033 1634.13L385.714 1646.28L381.237 1652.06Z" fill="#5988FF"/>
<path d="M361.304 1618.28L337.985 1645.71L326.144 1635.65C324.108 1633.92 322.669 1632 321.825 1629.9C320.981 1627.8 320.753 1625.66 321.142 1623.48C321.531 1621.3 322.553 1619.24 324.208 1617.29C325.878 1615.33 327.762 1614 329.859 1613.31C331.947 1612.6 334.107 1612.53 336.339 1613.09C338.563 1613.64 340.719 1614.81 342.808 1616.58L349.881 1622.6L344.962 1628.38L339.39 1623.65C338.515 1622.9 337.64 1622.42 336.766 1622.2C335.875 1621.98 335.022 1622.02 334.205 1622.31C333.38 1622.59 332.637 1623.12 331.977 1623.9C331.309 1624.68 330.909 1625.5 330.778 1626.34C330.63 1627.18 330.744 1628.02 331.118 1628.84C331.476 1629.67 332.093 1630.46 332.968 1631.2L335.593 1633.43L353.857 1611.95L361.304 1618.28Z" fill="#5988FF"/>
<path d="M301.527 1598.55C300.8 1599.48 300.501 1600.45 300.631 1601.46C300.753 1602.47 301.394 1603.51 302.555 1604.59C303.295 1605.27 303.985 1605.74 304.625 1606C305.249 1606.26 305.812 1606.34 306.314 1606.24C306.816 1606.15 307.251 1605.91 307.618 1605.54C307.93 1605.23 308.14 1604.89 308.25 1604.52C308.344 1604.14 308.34 1603.71 308.238 1603.23C308.129 1602.77 307.922 1602.24 307.618 1601.65C307.313 1601.07 306.907 1600.42 306.398 1599.71L304.661 1597.24C303.486 1595.58 302.613 1594.01 302.042 1592.54C301.471 1591.07 301.173 1589.68 301.148 1588.38C301.115 1587.09 301.338 1585.87 301.817 1584.73C302.287 1583.59 302.983 1582.51 303.906 1581.49C305.523 1579.76 307.319 1578.69 309.294 1578.29C311.269 1577.88 313.347 1578.1 315.528 1578.95C317.7 1579.8 319.904 1581.26 322.14 1583.33C324.436 1585.45 326.125 1587.65 327.207 1589.91C328.281 1592.17 328.638 1594.44 328.278 1596.73C327.902 1599.02 326.695 1601.27 324.657 1603.49L317.846 1597.18C318.551 1596.33 318.978 1595.46 319.127 1594.58C319.275 1593.69 319.154 1592.81 318.763 1591.92C318.364 1591.02 317.708 1590.15 316.796 1589.31C316.031 1588.6 315.303 1588.1 314.612 1587.81C313.92 1587.52 313.286 1587.42 312.709 1587.51C312.132 1587.6 311.64 1587.85 311.233 1588.28C310.868 1588.69 310.675 1589.16 310.654 1589.7C310.617 1590.25 310.775 1590.9 311.128 1591.68C311.473 1592.46 312.036 1593.41 312.818 1594.54L314.924 1597.54C316.793 1600.21 317.853 1602.77 318.105 1605.21C318.339 1607.64 317.497 1609.89 315.577 1611.95C314.033 1613.63 312.228 1614.69 310.163 1615.1C308.081 1615.52 305.909 1615.34 303.648 1614.56C301.378 1613.77 299.199 1612.4 297.109 1610.47C294.976 1608.49 293.462 1606.43 292.566 1604.27C291.671 1602.12 291.403 1600 291.762 1597.92C292.105 1595.84 293.073 1593.94 294.665 1592.2L301.527 1598.55Z" fill="#5988FF"/>
<path d="M251.953 1548.36C251.157 1549.23 250.785 1550.17 250.837 1551.2C250.881 1552.21 251.44 1553.3 252.515 1554.46C253.2 1555.2 253.852 1555.72 254.47 1556.03C255.072 1556.33 255.627 1556.46 256.135 1556.4C256.643 1556.35 257.095 1556.14 257.49 1555.79C257.824 1555.52 258.06 1555.19 258.199 1554.83C258.321 1554.46 258.35 1554.03 258.285 1553.55C258.212 1553.07 258.046 1552.53 257.788 1551.92C257.529 1551.32 257.174 1550.64 256.721 1549.89L255.179 1547.29C254.135 1545.55 253.385 1543.92 252.929 1542.41C252.473 1540.89 252.282 1539.49 252.357 1538.19C252.423 1536.9 252.739 1535.7 253.304 1534.61C253.86 1533.5 254.638 1532.48 255.636 1531.54C257.381 1529.94 259.254 1529.01 261.254 1528.75C263.254 1528.5 265.309 1528.88 267.418 1529.9C269.519 1530.91 271.604 1532.53 273.675 1534.77C275.801 1537.06 277.316 1539.38 278.221 1541.72C279.119 1544.06 279.3 1546.35 278.766 1548.6C278.215 1550.85 276.838 1553 274.636 1555.06L268.329 1548.25C269.098 1547.46 269.59 1546.63 269.806 1545.75C270.022 1544.88 269.969 1543.99 269.648 1543.07C269.319 1542.15 268.732 1541.23 267.888 1540.32C267.179 1539.55 266.491 1539 265.824 1538.66C265.157 1538.32 264.533 1538.17 263.951 1538.21C263.368 1538.26 262.858 1538.47 262.42 1538.86C262.024 1539.25 261.795 1539.71 261.733 1540.24C261.654 1540.78 261.761 1541.45 262.054 1542.25C262.338 1543.05 262.826 1544.05 263.519 1545.23L265.388 1548.38C267.047 1551.19 267.908 1553.82 267.971 1556.27C268.018 1558.72 267.005 1560.9 264.933 1562.8C263.264 1564.36 261.384 1565.27 259.292 1565.53C257.184 1565.79 255.033 1565.44 252.839 1564.49C250.636 1563.52 248.568 1562 246.633 1559.91C244.658 1557.77 243.307 1555.6 242.58 1553.38C241.852 1551.16 241.748 1549.03 242.266 1546.98C242.767 1544.94 243.879 1543.11 245.599 1541.5L251.953 1548.36Z" fill="#5988FF"/>
<path d="M216.479 1524.9L210.158 1517.44L227.751 1502.52C229.843 1500.75 232.078 1499.71 234.456 1499.42C236.817 1499.12 239.167 1499.51 241.507 1500.59C243.837 1501.67 245.999 1503.38 247.992 1505.74C250.001 1508.11 251.348 1510.53 252.034 1513.01C252.711 1515.49 252.71 1517.87 252.031 1520.15C251.336 1522.43 249.943 1524.46 247.851 1526.23L230.257 1541.15L223.936 1533.69L240.886 1519.32C241.736 1518.6 242.336 1517.77 242.688 1516.83C243.032 1515.89 243.111 1514.93 242.925 1513.95C242.732 1512.96 242.276 1512.04 241.556 1511.19C240.828 1510.34 239.996 1509.73 239.06 1509.39C238.124 1509.05 237.166 1508.97 236.186 1509.15C235.197 1509.35 234.278 1509.8 233.429 1510.52L216.479 1524.9Z" fill="#5988FF"/>
<path d="M231.88 1486.99L203.425 1509.06L193.903 1496.77C192.266 1494.66 191.25 1492.49 190.856 1490.26C190.462 1488.03 190.679 1485.89 191.506 1483.84C192.334 1481.79 193.757 1479.98 195.777 1478.41C197.814 1476.83 199.931 1475.92 202.126 1475.67C204.314 1475.41 206.442 1475.79 208.512 1476.79C210.575 1477.79 212.446 1479.37 214.126 1481.54L219.813 1488.87L213.811 1493.53L209.33 1487.75C208.627 1486.84 207.87 1486.19 207.059 1485.79C206.232 1485.4 205.39 1485.26 204.531 1485.37C203.665 1485.48 202.83 1485.85 202.024 1486.47C201.209 1487.1 200.65 1487.82 200.349 1488.62C200.031 1489.41 199.971 1490.25 200.168 1491.14C200.348 1492.02 200.79 1492.92 201.494 1493.82L203.605 1496.55L225.891 1479.27L231.88 1486.99Z" fill="#5988FF"/>
<path d="M208.845 1456.92L179.479 1477.75L170.487 1465.08C168.941 1462.9 168.018 1460.69 167.719 1458.44C167.42 1456.2 167.727 1454.07 168.641 1452.05C169.555 1450.04 171.054 1448.29 173.137 1446.81C175.24 1445.32 177.394 1444.5 179.597 1444.34C181.794 1444.18 183.905 1444.64 185.93 1445.74C187.949 1446.82 189.751 1448.48 191.338 1450.72L196.709 1458.29L190.515 1462.68L186.283 1456.72C185.619 1455.78 184.89 1455.1 184.097 1454.67C183.288 1454.24 182.452 1454.06 181.589 1454.14C180.72 1454.21 179.869 1454.54 179.037 1455.13C178.196 1455.73 177.608 1456.42 177.273 1457.2C176.922 1457.98 176.826 1458.82 176.985 1459.71C177.128 1460.6 177.532 1461.52 178.196 1462.45L180.19 1465.26L203.189 1448.95L208.845 1456.92Z" fill="#5988FF"/>
<path d="M187.122 1425.86L156.951 1445.51L151.617 1437.32L175.188 1421.97L167.244 1409.77L173.844 1405.47L187.122 1425.86Z" fill="#5988FF"/>
<path d="M169.187 1398L138.284 1416.47L124.969 1394.2L131.73 1390.16L140.029 1404.04L145.34 1400.87L137.727 1388.13L144.487 1384.09L152.1 1396.82L157.412 1393.65L149.149 1379.83L155.909 1375.78L169.187 1398Z" fill="#5988FF"/>
<path d="M111.561 1370.48L106.017 1359.65L120.356 1342.9L120.164 1342.53L98.1979 1344.37L92.6538 1333.54L124.702 1317.13L129.06 1325.65L110.532 1335.13L110.661 1335.38L132.591 1333.16L135.219 1338.29L120.47 1354.85L120.598 1355.1L139.251 1345.55L143.61 1354.07L111.561 1370.48Z" fill="#5988FF"/>
<path d="M116.909 1300.02L121.212 1309.65L83.4914 1313.49L78.0414 1301.29L106.067 1275.75L110.369 1285.38L89.7619 1303.21L89.8766 1303.47L116.909 1300.02ZM104.743 1307.61L96.6541 1289.5L103.331 1286.52L111.42 1304.63L104.743 1307.61Z" fill="#5988FF"/>
<path d="M103.125 1268.42L69.6148 1281.59L63.931 1267.12C62.9537 1264.64 62.5895 1262.27 62.8382 1260.02C63.087 1257.76 63.8968 1255.77 65.2676 1254.04C66.6384 1252.3 68.5128 1250.97 70.8908 1250.03C73.2906 1249.09 75.5787 1248.81 77.7549 1249.19C79.9269 1249.55 81.8646 1250.51 83.5681 1252.06C85.2672 1253.59 86.6183 1255.64 87.6213 1258.19L91.0161 1266.83L83.9476 1269.61L81.2729 1262.8C80.8528 1261.73 80.3095 1260.9 79.6428 1260.29C78.961 1259.67 78.1917 1259.3 77.335 1259.17C76.474 1259.03 75.569 1259.15 74.62 1259.52C73.6601 1259.9 72.9234 1260.43 72.41 1261.11C71.8813 1261.78 71.5871 1262.57 71.5272 1263.48C71.452 1264.38 71.6245 1265.36 72.0446 1266.43L73.3048 1269.64L99.5498 1259.32L103.125 1268.42Z" fill="#5988FF"/>
<path d="M59.7469 1222.8C58.6695 1223.27 57.9485 1223.98 57.5839 1224.94C57.2156 1225.89 57.2892 1227.11 57.8049 1228.6C58.1334 1229.56 58.5191 1230.3 58.9618 1230.83C59.3897 1231.35 59.8472 1231.69 60.3343 1231.84C60.8215 1232 61.3162 1231.99 61.8187 1231.83C62.2363 1231.71 62.5826 1231.51 62.8577 1231.23C63.1179 1230.94 63.3161 1230.57 63.4521 1230.1C63.5771 1229.63 63.6436 1229.07 63.6517 1228.41C63.6597 1227.75 63.6074 1226.99 63.4948 1226.12L63.1305 1223.12C62.88 1221.1 62.8505 1219.31 63.042 1217.74C63.2335 1216.17 63.6254 1214.81 64.2177 1213.65C64.7989 1212.5 65.5692 1211.53 66.5287 1210.75C67.4843 1209.97 68.6083 1209.34 69.9009 1208.89C72.1429 1208.12 74.2305 1208.03 76.1637 1208.6C78.0969 1209.18 79.8232 1210.36 81.3426 1212.14C82.8581 1213.91 84.1124 1216.23 85.1056 1219.12C86.1255 1222.07 86.5779 1224.81 86.4627 1227.31C86.3437 1229.81 85.5858 1231.98 84.1888 1233.83C82.777 1235.66 80.6491 1237.08 77.8054 1238.07L74.78 1229.3C75.8024 1228.88 76.588 1228.32 77.1367 1227.61C77.6854 1226.9 77.9974 1226.06 78.0727 1225.09C78.1442 1224.11 77.9775 1223.04 77.5726 1221.86C77.2327 1220.88 76.8262 1220.09 76.3532 1219.51C75.8803 1218.93 75.3685 1218.54 74.818 1218.35C74.2675 1218.15 73.7133 1218.15 73.1554 1218.33C72.6385 1218.52 72.2434 1218.85 71.9702 1219.31C71.6821 1219.77 71.5109 1220.42 71.4566 1221.27C71.3912 1222.13 71.4377 1223.23 71.5962 1224.59L72.0338 1228.24C72.4191 1231.47 72.1471 1234.23 71.2177 1236.49C70.2735 1238.75 68.4698 1240.34 65.8068 1241.24C63.65 1242 61.5622 1242.07 59.5434 1241.47C57.5097 1240.86 55.6814 1239.67 54.0585 1237.91C52.4318 1236.14 51.1543 1233.91 50.2261 1231.22C49.2787 1228.47 48.9192 1225.93 49.1474 1223.61C49.3757 1221.29 50.1392 1219.29 51.438 1217.63C52.7218 1215.96 54.4754 1214.74 56.6987 1213.96L59.7469 1222.8Z" fill="#5988FF"/>
<path d="M39.7494 1155.15C38.639 1155.53 37.8653 1156.19 37.4284 1157.12C36.9885 1158.03 36.9682 1159.25 37.3674 1160.78C37.6218 1161.76 37.9494 1162.53 38.3502 1163.09C38.7367 1163.64 39.1669 1164.02 39.6407 1164.21C40.1145 1164.4 40.6081 1164.43 41.1214 1164.31C41.5469 1164.22 41.9076 1164.05 42.2035 1163.79C42.485 1163.53 42.7116 1163.16 42.8832 1162.71C43.0435 1162.25 43.153 1161.7 43.2118 1161.04C43.2705 1160.38 43.277 1159.62 43.2312 1158.75L43.0983 1155.73C43.0038 1153.69 43.1122 1151.9 43.4234 1150.36C43.7347 1148.81 44.2301 1147.48 44.9096 1146.37C45.5779 1145.26 46.4201 1144.36 47.4364 1143.66C48.4497 1142.95 49.6183 1142.41 50.9422 1142.05C53.236 1141.47 55.3247 1141.53 57.2081 1142.25C59.0916 1142.97 60.7223 1144.28 62.1003 1146.18C63.4753 1148.06 64.5473 1150.47 65.3162 1153.42C66.1059 1156.45 66.347 1159.21 66.0396 1161.7C65.7292 1164.18 64.8068 1166.29 63.2722 1168.02C61.7233 1169.74 59.4931 1170.99 56.5814 1171.76L54.2391 1162.78C55.2904 1162.44 56.1168 1161.94 56.7184 1161.28C57.32 1160.61 57.6955 1159.8 57.845 1158.84C57.9915 1157.87 57.9081 1156.78 57.5946 1155.58C57.3313 1154.57 56.9863 1153.76 56.5593 1153.14C56.1324 1152.53 55.6519 1152.1 55.1179 1151.87C54.584 1151.63 54.032 1151.58 53.462 1151.72C52.9319 1151.87 52.5128 1152.16 52.2046 1152.61C51.8821 1153.04 51.6611 1153.68 51.5417 1154.53C51.411 1155.37 51.3724 1156.48 51.4261 1157.84L51.5826 1161.51C51.7179 1164.77 51.2352 1167.49 50.1345 1169.68C49.0195 1171.86 47.0996 1173.3 44.3748 1174C42.1663 1174.59 40.0789 1174.5 38.1126 1173.74C36.132 1172.98 34.4002 1171.65 32.9172 1169.78C31.4313 1167.89 30.329 1165.56 29.6103 1162.81C28.8768 1159.99 28.7131 1157.44 29.1191 1155.14C29.5251 1152.84 30.4394 1150.91 31.862 1149.36C33.2704 1147.79 35.1128 1146.7 37.3894 1146.1L39.7494 1155.15Z" fill="#5988FF"/>
<path d="M19.5628 1117.71L17.5123 1108.15L40.0643 1103.31C42.7458 1102.73 45.204 1102.88 47.4389 1103.74C49.6599 1104.59 51.5479 1106.05 53.1029 1108.1C54.6464 1110.15 55.7415 1112.69 56.3881 1115.7C57.0396 1118.74 57.0829 1121.51 56.5179 1124.02C55.9415 1126.53 54.8157 1128.63 53.1405 1130.32C51.4514 1132 49.2661 1133.13 46.5846 1133.7L24.0326 1138.54L21.9821 1128.98L43.709 1124.32C44.7977 1124.09 45.7201 1123.64 46.4763 1122.97C47.221 1122.31 47.743 1121.5 48.0424 1120.55C48.3393 1119.59 48.371 1118.56 48.1374 1117.47C47.9014 1116.37 47.4517 1115.45 46.7885 1114.7C46.1253 1113.96 45.318 1113.44 44.3668 1113.14C43.4041 1112.84 42.3784 1112.81 41.2897 1113.04L19.5628 1117.71Z" fill="#5988FF"/>
<path d="M51.0359 1091.57L15.5362 1097.58L12.9437 1082.25C12.498 1079.62 12.6279 1077.22 13.3336 1075.07C14.0394 1072.92 15.2411 1071.13 16.939 1069.72C18.6369 1068.3 20.7454 1067.38 23.2646 1066.95C25.8069 1066.52 28.1041 1066.72 30.1562 1067.53C32.2064 1068.34 33.9062 1069.68 35.2556 1071.54C36.6031 1073.39 37.5056 1075.67 37.9631 1078.38L39.5116 1087.53L32.0233 1088.8L30.8034 1081.58C30.6118 1080.45 30.2521 1079.52 29.7243 1078.79C29.1829 1078.05 28.5063 1077.53 27.6944 1077.22C26.8805 1076.91 25.9709 1076.84 24.9656 1077.01C23.9486 1077.18 23.1191 1077.55 22.4769 1078.11C21.8212 1078.66 21.3711 1079.37 21.1267 1080.24C20.8687 1081.11 20.8355 1082.11 21.0271 1083.24L21.6019 1086.64L49.4054 1081.93L51.0359 1091.57Z" fill="#5988FF"/>
<path d="M44.9317 1054.18L9.2092 1058.68L7.26895 1043.26C6.93533 1040.61 7.16669 1038.22 7.96304 1036.1C8.75938 1033.98 10.0358 1032.25 11.7922 1030.9C13.5486 1029.56 15.6943 1028.73 18.2293 1028.41C20.7876 1028.09 23.0745 1028.38 25.0901 1029.28C27.1042 1030.18 28.7458 1031.58 30.015 1033.5C31.2828 1035.41 32.0878 1037.72 32.4302 1040.44L33.5891 1049.66L26.0539 1050.6L25.1408 1043.35C24.9974 1042.21 24.6776 1041.26 24.1813 1040.51C23.6718 1039.75 23.0179 1039.2 22.2196 1038.86C21.4198 1038.51 20.514 1038.4 19.5023 1038.53C18.479 1038.66 17.6347 1038.99 16.9694 1039.52C16.2909 1040.04 15.811 1040.73 15.5297 1041.6C15.2353 1042.45 15.1598 1043.45 15.3032 1044.58L15.7334 1048L43.7114 1044.48L44.9317 1054.18Z" fill="#5988FF"/>
<path d="M40.4509 1016.55L4.57787 1019.62L3.74411 1009.88L31.7699 1007.48L30.5282 992.972L38.3755 992.3L40.4509 1016.55Z" fill="#5988FF"/>
<path d="M37.7989 983.514L1.83439 985.205L0.616413 959.282L8.48366 958.912L9.24283 975.07L15.4242 974.779L14.7278 959.957L22.595 959.587L23.2915 974.41L29.4729 974.119L28.717 958.032L36.5843 957.662L37.7989 983.514Z" fill="#5988FF"/>
<path d="M0 932.037L0.2271 919.872L20.7728 911.885L20.7807 911.463L0.547404 902.715L0.774504 890.55L36.7725 891.222L36.5939 900.785L15.7826 900.396L15.7774 900.678L36.1578 909.077L36.0501 914.843L15.2298 922.473L15.2245 922.754L36.1765 923.146L35.9979 932.709L0 932.037Z" fill="#5988FF"/>
<path d="M37.9838 872.458L37.2282 882.981L2.1678 868.546L3.12494 855.218L39.888 845.942L39.1324 856.465L12.5462 862.452L12.5261 862.733L37.9838 872.458ZM23.6745 873.405L25.0951 853.623L32.3896 854.147L30.969 873.929L23.6745 873.405Z" fill="#5988FF"/>
<path d="M40.7552 838.095L4.99896 833.876L6.81984 818.44C7.13294 815.786 7.93067 813.526 9.21303 811.659C10.4954 809.792 12.1504 808.417 14.1781 807.535C16.2058 806.653 18.4883 806.362 21.0257 806.661C23.5864 806.963 25.7364 807.795 27.4757 809.157C29.2165 810.508 30.4723 812.267 31.2433 814.435C32.0156 816.592 32.2411 819.032 31.9197 821.756L30.8322 830.975L23.2898 830.085L24.1467 822.822C24.2813 821.681 24.1981 820.685 23.8971 819.836C23.5858 818.973 23.0832 818.282 22.389 817.763C21.6963 817.233 20.8436 816.908 19.831 816.789C18.8067 816.668 17.9077 816.786 17.1339 817.143C16.3498 817.487 15.7176 818.044 15.2374 818.814C14.7469 819.57 14.4344 820.519 14.2998 821.66L13.8961 825.082L41.9005 828.386L40.7552 838.095Z" fill="#5988FF"/>
<path d="M24.0618 777.395C22.8898 777.301 21.9173 777.589 21.1443 778.26C20.3733 778.919 19.8618 780.03 19.6099 781.592C19.4495 782.588 19.4394 783.423 19.5798 784.099C19.7105 784.761 19.9541 785.275 20.3105 785.641C20.667 786.007 21.1046 786.238 21.6235 786.334C22.0478 786.426 22.4476 786.413 22.8227 786.296C23.1881 786.165 23.5413 785.925 23.8825 785.576C24.212 785.225 24.5362 784.761 24.8549 784.183C25.1736 783.606 25.4878 782.908 25.7976 782.091L26.8926 779.276C27.6263 777.376 28.4473 775.781 29.3557 774.491C30.2641 773.201 31.253 772.185 32.3223 771.443C33.38 770.699 34.5152 770.212 35.7279 769.98C36.9424 769.736 38.2275 769.718 39.5831 769.925C41.9186 770.313 43.8029 771.217 45.2363 772.635C46.6696 774.053 47.6351 775.907 48.1327 778.195C48.6323 780.472 48.6395 783.115 48.1544 786.124C47.6563 789.214 46.7646 791.836 45.4792 793.992C44.1958 796.136 42.5026 797.691 40.3998 798.658C38.2873 799.611 35.7433 799.854 32.7677 799.386L34.2453 790.221C35.3423 790.339 36.3002 790.214 37.1191 789.848C37.938 789.481 38.6092 788.889 39.1328 788.071C39.6583 787.241 40.0199 786.213 40.2177 784.987C40.3837 783.957 40.3954 783.074 40.2528 782.339C40.1102 781.603 39.8422 781.02 39.4488 780.588C39.0553 780.157 38.5703 779.889 37.9936 779.784C37.4479 779.708 36.9446 779.811 36.4837 780.093C36.013 780.361 35.5532 780.857 35.1042 781.58C34.6437 782.301 34.1625 783.298 33.6605 784.57L32.326 787.988C31.1358 791.026 29.596 793.324 27.7063 794.884C25.8069 796.429 23.4697 796.973 20.6946 796.513C18.4365 796.161 16.5607 795.241 15.0672 793.754C13.5641 792.253 12.5126 790.344 11.9126 788.027C11.3146 785.698 11.2422 783.128 11.6956 780.316C12.1582 777.446 13.0386 775.041 14.3366 773.102C15.6347 771.162 17.2487 769.766 19.1787 768.914C21.099 768.048 23.223 767.797 25.5505 768.16L24.0618 777.395Z" fill="#5988FF"/>
<path d="M38.3809 708.317C37.2196 708.133 36.2279 708.346 35.4057 708.956C34.5862 709.554 33.9909 710.622 33.6198 712.16C33.3834 713.14 33.3093 713.972 33.3973 714.657C33.4767 715.327 33.6801 715.858 34.0074 716.251C34.3347 716.643 34.7533 716.907 35.2632 717.042C35.6793 717.167 36.0788 717.185 36.4619 717.096C36.8362 716.994 37.2069 716.782 37.5738 716.46C37.9293 716.136 38.2881 715.698 38.6503 715.147C39.0125 714.595 39.3793 713.924 39.7509 713.133L41.0589 710.41C41.9363 708.572 42.8775 707.045 43.8823 705.828C44.8871 704.612 45.9511 703.675 47.0742 703.018C48.1859 702.357 49.3553 701.958 50.5821 701.82C51.8118 701.671 53.0945 701.751 54.4302 702.061C56.7289 702.628 58.5383 703.674 59.8585 705.198C61.1786 706.723 61.9989 708.645 62.3193 710.965C62.6424 713.273 62.4466 715.909 61.7319 718.872C60.998 721.914 59.9074 724.46 58.4603 726.51C57.016 728.549 55.2084 729.97 53.0375 730.773C50.858 731.561 48.3028 731.608 45.372 730.912L47.5492 721.888C48.6339 722.09 49.5986 722.039 50.4432 721.736C51.2878 721.434 52.0026 720.895 52.5875 720.119C53.1751 719.333 53.6146 718.336 53.906 717.128C54.1507 716.114 54.2301 715.235 54.1444 714.49C54.0587 713.746 53.8363 713.144 53.4772 712.684C53.1181 712.223 52.655 711.918 52.0881 711.77C51.5499 711.652 51.0402 711.716 50.5589 711.961C50.0691 712.193 49.5725 712.652 49.0693 713.338C48.5548 714.022 47.9984 714.979 47.4002 716.209L45.807 719.514C44.3871 722.451 42.6752 724.625 40.6714 726.034C38.6589 727.43 36.2869 727.792 33.5553 727.12C31.3308 726.596 29.5312 725.535 28.1565 723.937C26.7731 722.325 25.8713 720.341 25.4511 717.984C25.0336 715.617 25.1589 713.049 25.8269 710.28C26.5086 707.454 27.5711 705.124 29.0143 703.29C30.4575 701.456 32.174 700.188 34.1637 699.486C36.1449 698.771 38.2818 698.683 40.5746 699.224L38.3809 708.317Z" fill="#5988FF"/>
<path d="M38.2674 665.778L40.9734 656.384L63.1371 662.77C65.7724 663.529 67.8713 664.817 69.4337 666.634C70.9881 668.435 71.9661 670.608 72.3678 673.151C72.7583 675.691 72.5268 678.442 71.6735 681.404C70.8137 684.389 69.5429 686.853 67.8611 688.796C66.168 690.735 64.1842 692.055 61.9095 692.753C59.6268 693.437 57.1677 693.4 54.5324 692.64L32.3687 686.254L35.0747 676.861L56.4275 683.013C57.4974 683.321 58.5228 683.361 59.5038 683.131C60.4734 682.898 61.3148 682.433 62.0279 681.736C62.7443 681.027 63.2566 680.138 63.5648 679.068C63.8763 677.987 63.9156 676.961 63.6827 675.991C63.4498 675.022 62.9848 674.18 62.2876 673.467C61.5793 672.751 60.6901 672.238 59.6202 671.93L38.2674 665.778Z" fill="#5988FF"/>
<path d="M78.3506 657.605L44.2226 646.133L49.1739 631.4C50.0253 628.867 51.2701 626.818 52.9085 625.254C54.5469 623.691 56.4488 622.685 58.6144 622.239C60.78 621.792 63.0737 621.975 65.4955 622.79C67.9396 623.611 69.8729 624.867 71.2956 626.557C72.722 628.236 73.5899 630.216 73.8992 632.496C74.2123 634.765 73.9319 637.2 73.0581 639.8L70.1008 648.599L62.9019 646.179L65.2319 639.246C65.5979 638.158 65.7208 637.166 65.6007 636.273C65.4733 635.364 65.1232 634.585 64.5503 633.935C63.9812 633.274 63.2134 632.781 62.2469 632.456C61.2693 632.127 60.3651 632.058 59.5344 632.249C58.6964 632.425 57.9634 632.84 57.3354 633.494C56.7 634.134 56.1993 634.998 55.8334 636.087L54.7356 639.354L81.4647 648.339L78.3506 657.605Z" fill="#5988FF"/>
<path d="M90.625 621.767L57.0142 608.857L62.5858 594.348C63.5439 591.853 64.8745 589.859 66.5777 588.366C68.2809 586.873 70.2238 585.95 72.4063 585.595C74.5889 585.241 76.8727 585.521 79.2579 586.438C81.6649 587.362 83.5433 588.699 84.893 590.448C86.2469 592.186 87.0301 594.2 87.2424 596.492C87.459 598.772 87.0756 601.193 86.0924 603.753L82.7645 612.42L75.6747 609.696L78.2967 602.868C78.7085 601.796 78.8733 600.811 78.7913 599.913C78.7025 599 78.3857 598.207 77.8409 597.533C77.3004 596.848 76.5541 596.323 75.6023 595.957C74.6395 595.587 73.7391 595.48 72.901 595.635C72.0563 595.776 71.3063 596.159 70.6511 596.787C69.9892 597.399 69.4524 598.241 69.0406 599.313L67.8052 602.53L94.1293 612.641L90.625 621.767Z" fill="#5988FF"/>
<path d="M104.448 586.475L71.3774 572.239L75.2418 563.26L101.079 574.382L106.833 561.01L114.068 564.124L104.448 586.475Z" fill="#5988FF"/>
<path d="M117.708 556.108L85.2089 540.611L96.3762 517.186L103.485 520.576L96.5248 535.177L102.111 537.841L108.496 524.446L115.605 527.836L109.22 541.23L114.806 543.894L121.736 529.356L128.845 532.746L117.708 556.108Z" fill="#5988FF"/>
<path d="M108.698 492.879L114.643 482.264L136.524 484.928L136.731 484.56L123.027 467.292L128.971 456.676L160.385 474.271L155.712 482.616L137.551 472.444L137.413 472.69L151.412 489.719L148.594 494.751L126.639 491.643L126.501 491.888L144.785 502.129L140.112 510.474L108.698 492.879Z" fill="#5988FF"/>
<path d="M170.313 458.303L164.678 467.221L140.59 437.938L147.727 426.642L184.513 435.83L178.878 444.748L152.616 437.468L152.466 437.706L170.313 458.303ZM157.253 452.379L167.846 435.613L174.029 439.52L163.435 456.286L157.253 452.379Z" fill="#5988FF"/>
<path d="M188.982 429.322L159.456 408.715L168.35 395.969C169.879 393.778 171.65 392.162 173.662 391.122C175.674 390.082 177.782 389.652 179.986 389.832C182.189 390.013 184.339 390.834 186.434 392.296C188.549 393.772 190.051 395.521 190.941 397.543C191.838 399.555 192.114 401.699 191.77 403.974C191.432 406.24 190.479 408.498 188.909 410.747L183.597 418.36L177.369 414.013L181.554 408.015C182.212 407.073 182.608 406.156 182.744 405.265C182.877 404.357 182.76 403.511 182.394 402.726C182.033 401.931 181.435 401.242 180.599 400.659C179.753 400.068 178.905 399.748 178.054 399.697C177.2 399.63 176.38 399.823 175.594 400.274C174.804 400.709 174.081 401.398 173.423 402.34L171.451 405.166L194.576 421.305L188.982 429.322Z" fill="#5988FF"/>
<path d="M202.931 367.934C201.942 367.297 200.949 367.092 199.95 367.318C198.959 367.535 197.984 368.273 197.024 369.531C196.413 370.332 196.01 371.064 195.814 371.726C195.617 372.371 195.589 372.939 195.73 373.431C195.871 373.922 196.148 374.332 196.56 374.661C196.891 374.943 197.249 375.12 197.635 375.194C198.019 375.251 198.444 375.206 198.909 375.06C199.365 374.907 199.87 374.651 200.424 374.292C200.978 373.933 201.584 373.467 202.243 372.893L204.538 370.929C206.082 369.6 207.558 368.582 208.968 367.874C210.378 367.166 211.73 366.738 213.023 366.589C214.306 366.433 215.537 366.539 216.715 366.907C217.901 367.266 219.042 367.857 220.14 368.68C222.015 370.125 223.249 371.812 223.843 373.739C224.436 375.666 224.412 377.756 223.77 380.008C223.135 382.251 221.894 384.584 220.045 387.007C218.147 389.495 216.123 391.386 213.972 392.679C211.828 393.962 209.602 394.534 207.291 394.393C204.979 394.235 202.622 393.248 200.22 391.43L205.85 384.049C206.762 384.671 207.665 385.014 208.56 385.077C209.455 385.141 210.326 384.936 211.174 384.462C212.029 383.979 212.833 383.244 213.587 382.256C214.219 381.427 214.646 380.654 214.868 379.939C215.089 379.223 215.129 378.582 214.986 378.016C214.843 377.45 214.542 376.984 214.083 376.62C213.638 376.295 213.146 376.148 212.606 376.178C212.065 376.193 211.425 376.413 210.688 376.838C209.941 377.256 209.047 377.907 208.003 378.792L205.213 381.175C202.73 383.29 200.287 384.588 197.885 385.07C195.481 385.536 193.164 384.911 190.935 383.195C189.111 381.818 187.892 380.121 187.278 378.105C186.661 376.072 186.636 373.893 187.201 371.567C187.774 369.232 188.923 366.932 190.651 364.668C192.414 362.357 194.325 360.653 196.386 359.556C198.446 358.459 200.528 357.991 202.631 358.152C204.733 358.295 206.723 359.077 208.604 360.497L202.931 367.934Z" fill="#5988FF"/>
<path d="M248.171 313.807C247.234 313.096 246.26 312.816 245.247 312.964C244.242 313.105 243.213 313.765 242.16 314.946C241.489 315.698 241.03 316.396 240.785 317.041C240.538 317.669 240.467 318.234 240.57 318.734C240.673 319.235 240.917 319.665 241.303 320.025C241.611 320.331 241.955 320.536 242.334 320.639C242.713 320.725 243.139 320.714 243.614 320.604C244.081 320.486 244.604 320.269 245.184 319.954C245.764 319.639 246.404 319.22 247.105 318.699L249.543 316.917C251.185 315.711 252.736 314.809 254.196 314.211C255.656 313.614 257.036 313.29 258.337 313.241C259.628 313.185 260.847 313.385 261.994 313.843C263.148 314.292 264.241 314.969 265.272 315.873C267.031 317.458 268.132 319.234 268.576 321.202C269.02 323.169 268.835 325.251 268.022 327.447C267.216 329.635 265.799 331.865 263.77 334.139C261.687 336.474 259.523 338.203 257.279 339.327C255.043 340.442 252.779 340.841 250.487 340.523C248.193 340.188 245.919 339.023 243.664 337.026L249.844 330.099C250.705 330.789 251.58 331.2 252.467 331.332C253.354 331.465 254.239 331.327 255.121 330.92C256.01 330.504 256.868 329.833 257.696 328.906C258.39 328.127 258.875 327.39 259.151 326.694C259.427 325.997 259.515 325.361 259.416 324.786C259.317 324.21 259.053 323.723 258.623 323.324C258.205 322.966 257.725 322.782 257.185 322.771C256.644 322.743 255.989 322.913 255.222 323.281C254.445 323.64 253.503 324.221 252.395 325.023L249.43 327.184C246.791 329.102 244.256 330.209 241.824 330.505C239.391 330.785 237.129 329.984 235.039 328.102C233.326 326.589 232.24 324.803 231.783 322.746C231.325 320.671 231.467 318.497 232.209 316.221C232.959 313.937 234.282 311.732 236.179 309.607C238.114 307.438 240.151 305.886 242.289 304.951C244.427 304.016 246.539 303.709 248.624 304.031C250.708 304.336 252.633 305.268 254.399 306.828L248.171 313.807Z" fill="#5988FF"/>
<path d="M268.158 276.256L274.979 269.254L291.5 285.352C293.464 287.266 294.706 289.392 295.225 291.731C295.745 294.053 295.581 296.43 294.734 298.862C293.879 301.285 292.376 303.601 290.225 305.809C288.057 308.034 285.774 309.605 283.374 310.523C280.966 311.434 278.594 311.659 276.259 311.201C273.924 310.725 271.774 309.531 269.81 307.617L253.289 291.52L260.11 284.518L276.026 300.026C276.824 300.803 277.709 301.322 278.682 301.583C279.647 301.835 280.608 301.823 281.566 301.545C282.532 301.259 283.404 300.717 284.181 299.92C284.966 299.114 285.485 298.228 285.737 297.263C285.99 296.299 285.977 295.337 285.7 294.379C285.414 293.413 284.872 292.542 284.074 291.765L268.158 276.256Z" fill="#5988FF"/>
<path d="M307.349 287.985L282.684 261.753L294.005 251.106C295.952 249.275 298.016 248.057 300.199 247.453C302.382 246.848 304.533 246.86 306.653 247.489C308.773 248.118 310.708 249.363 312.458 251.225C314.224 253.103 315.336 255.124 315.791 257.285C316.256 259.439 316.086 261.594 315.282 263.75C314.486 265.898 313.09 267.912 311.092 269.791L304.33 276.15L299.127 270.617L304.455 265.606C305.291 264.819 305.868 264.004 306.184 263.159C306.501 262.299 306.56 261.446 306.362 260.603C306.172 259.751 305.728 258.954 305.03 258.211C304.323 257.459 303.559 256.972 302.737 256.747C301.915 256.506 301.073 256.526 300.21 256.807C299.348 257.07 298.499 257.596 297.662 258.383L295.152 260.743L314.47 281.288L307.349 287.985Z" fill="#5988FF"/>
<path d="M335.092 262.191L311.561 234.937L323.324 224.779C325.346 223.033 327.46 221.904 329.667 221.392C331.873 220.881 334.022 220.984 336.113 221.703C338.204 222.421 340.085 223.747 341.755 225.681C343.44 227.633 344.464 229.698 344.828 231.877C345.201 234.049 344.94 236.195 344.045 238.315C343.159 240.427 341.678 242.38 339.602 244.172L332.577 250.239L327.613 244.491L333.149 239.71C334.018 238.96 334.628 238.169 334.98 237.339C335.333 236.492 335.428 235.643 335.266 234.792C335.113 233.933 334.703 233.118 334.037 232.346C333.363 231.565 332.62 231.045 331.808 230.786C330.997 230.511 330.155 230.495 329.281 230.738C328.409 230.965 327.538 231.454 326.669 232.205L324.061 234.457L342.49 255.802L335.092 262.191Z" fill="#5988FF"/>
<path d="M363.941 237.611L341.513 209.443L349.159 203.353L366.681 225.36L378.068 216.291L382.975 222.453L363.941 237.611Z" fill="#5988FF"/>
<path d="M389.97 217.107L368.64 188.098L389.545 172.724L394.211 179.07L381.181 188.652L384.847 193.638L396.801 184.847L401.466 191.193L389.513 199.984L393.179 204.97L406.152 195.429L410.818 201.775L389.97 217.107Z" fill="#5988FF"/>
<path d="M411.885 157.118L422.137 150.568L440.167 163.252L440.523 163.024L436.597 141.331L446.85 134.782L466.231 165.128L458.171 170.276L446.966 152.733L446.729 152.884L451.027 174.507L446.167 177.611L428.282 164.501L428.045 164.653L439.326 182.315L431.266 187.464L411.885 157.118Z" fill="#5988FF"/>
<path d="M482.522 155.742L473.344 160.942L465.939 123.753L477.564 117.167L505.65 142.639L496.473 147.839L476.761 129.019L476.516 129.157L482.522 155.742ZM473.808 144.352L491.062 134.577L494.667 140.941L477.412 150.716L473.808 144.352Z" fill="#5988FF"/>
<path d="M512.664 139.015L496.369 106.905L510.227 99.8711C512.61 98.6616 514.934 98.0736 517.198 98.1072C519.463 98.1407 521.524 98.7574 523.381 99.9572C525.239 101.157 526.746 102.896 527.902 105.175C529.069 107.474 529.567 109.725 529.397 111.928C529.237 114.125 528.468 116.146 527.091 117.989C525.723 119.826 523.817 121.366 521.371 122.607L513.094 126.809L509.657 120.036L516.178 116.725C517.202 116.205 517.985 115.585 518.526 114.863C519.071 114.126 519.368 113.325 519.415 112.46C519.473 111.589 519.271 110.699 518.81 109.79C518.343 108.87 517.746 108.187 517.02 107.741C516.3 107.278 515.486 107.06 514.579 107.087C513.678 107.098 512.715 107.363 511.691 107.883L508.618 109.442L521.38 134.591L512.664 139.015Z" fill="#5988FF"/>
<path d="M553.946 91.4905C553.375 90.4626 552.596 89.8126 551.609 89.5406C550.634 89.2638 549.426 89.4532 547.986 90.1089C547.068 90.5265 546.367 90.981 545.882 91.4721C545.404 91.9477 545.11 92.4354 545.003 92.935C544.896 93.4347 544.946 93.9269 545.154 94.4119C545.312 94.8163 545.544 95.1421 545.85 95.3893C546.161 95.6209 546.557 95.7822 547.036 95.8731C547.51 95.9533 548.076 95.9661 548.734 95.9114C549.392 95.8567 550.146 95.732 550.998 95.5375L553.948 94.8897C555.936 94.4481 557.719 94.2481 559.296 94.2898C560.873 94.3316 562.267 94.5922 563.476 95.0716C564.681 95.5404 565.716 96.2155 566.581 97.0967C567.456 97.9732 568.184 99.033 568.762 100.276C569.733 102.436 570.025 104.506 569.638 106.485C569.251 108.464 568.243 110.295 566.613 111.977C564.994 113.654 562.798 115.124 560.025 116.387C557.177 117.683 554.5 118.394 551.994 118.517C549.498 118.636 547.265 118.088 545.295 116.873C543.331 115.642 541.72 113.658 540.461 110.921L548.909 107.075C549.419 108.053 550.054 108.782 550.812 109.261C551.571 109.74 552.436 109.97 553.407 109.953C554.389 109.931 555.445 109.663 556.575 109.148C557.525 108.716 558.266 108.237 558.799 107.711C559.332 107.185 559.669 106.638 559.811 106.072C559.952 105.505 559.907 104.953 559.674 104.414C559.436 103.918 559.071 103.556 558.581 103.328C558.097 103.085 557.43 102.977 556.579 103.003C555.723 103.019 554.627 103.171 553.29 103.458L549.705 104.24C546.517 104.931 543.751 104.922 541.406 104.213C539.067 103.488 537.32 101.842 536.165 99.2773C535.208 97.202 534.934 95.1305 535.345 93.0631C535.762 90.9801 536.769 89.0471 538.365 87.2641C539.972 85.4762 542.072 83.9922 544.664 82.812C547.309 81.6075 549.799 81.0085 552.132 81.0148C554.466 81.0212 556.522 81.5918 558.301 82.7267C560.085 83.846 561.471 85.4754 562.458 87.6148L553.946 91.4905Z" fill="#5988FF"/>
<path d="M619.383 65.1482C618.892 64.0794 618.166 63.3716 617.203 63.0246C616.251 62.6736 615.032 62.7696 613.546 63.3127C612.599 63.6587 611.866 64.0579 611.345 64.5103C610.831 64.9478 610.501 65.4115 610.355 65.9014C610.21 66.3913 610.222 66.886 610.392 67.3854C610.519 67.8008 610.725 68.1435 611.011 68.4134C611.304 68.6684 611.686 68.8595 612.157 68.987C612.623 69.1034 613.187 69.1596 613.847 69.1556C614.507 69.1515 615.268 69.0853 616.132 68.9567L619.124 68.5374C621.14 68.2499 622.933 68.1875 624.502 68.3503C626.071 68.5131 627.441 68.8799 628.61 69.4509C629.775 70.0109 630.755 70.7634 631.55 71.7086C632.355 72.6496 632.999 73.7622 633.481 75.0463C634.282 77.2742 634.414 79.36 633.877 81.3036C633.339 83.2472 632.193 84.995 630.439 86.547C628.696 88.0949 626.394 89.3919 623.532 90.4379C620.592 91.512 617.869 92.0145 615.36 91.9453C612.863 91.8721 610.679 91.154 608.808 89.7909C606.945 88.4129 605.49 86.3112 604.446 83.4857L613.164 80.2996C613.597 81.3143 614.174 82.0895 614.894 82.6252C615.613 83.1608 616.458 83.4574 617.427 83.515C618.408 83.5685 619.481 83.3821 620.648 82.9557C621.628 82.5976 622.404 82.1768 622.976 81.6932C623.548 81.2096 623.926 80.6908 624.11 80.1367C624.295 79.5827 624.292 79.0284 624.102 78.4739C623.902 77.9604 623.566 77.5714 623.095 77.3068C622.631 77.0271 621.974 76.8679 621.124 76.8292C620.27 76.7794 619.165 76.8463 617.809 77.0296L614.175 77.534C610.944 77.9787 608.186 77.7572 605.903 76.8695C603.626 75.9668 602.011 74.1923 601.057 71.546C600.261 69.4032 600.148 67.3169 600.716 65.2871C601.292 63.2423 602.444 61.3923 604.173 59.7372C605.912 58.0782 608.12 56.7598 610.795 55.7822C613.525 54.7845 616.053 54.3785 618.379 54.5641C620.706 54.7498 622.712 55.4767 624.398 56.7449C626.091 57.998 627.348 59.729 628.167 61.9379L619.383 65.1482Z" fill="#5988FF"/>
<path d="M654.733 41.4898L664.052 38.5395L671.013 60.5316C671.84 63.1465 671.931 65.6075 671.284 67.9146C670.645 70.207 669.379 72.2248 667.484 73.9681C665.586 75.7002 663.168 77.0314 660.229 77.9618C657.268 78.8992 654.513 79.2059 651.964 78.8818C649.411 78.5465 647.214 77.6254 645.373 76.1183C643.539 74.5965 642.208 72.5282 641.38 69.9133L634.419 47.9212L643.738 44.9708L650.444 66.1583C650.78 67.22 651.316 68.0955 652.05 68.7851C652.781 69.4634 653.635 69.9064 654.61 70.1139C655.597 70.318 656.621 70.2519 657.682 69.9159C658.755 69.5763 659.63 69.0409 660.309 68.3098C660.987 67.5786 661.43 66.7253 661.637 65.7498C661.841 64.7631 661.775 63.739 661.439 62.6773L654.733 41.4898Z" fill="#5988FF"/>
<path d="M683.739 70.3382L674.384 35.5666L689.391 31.5283C691.972 30.834 694.367 30.7357 696.576 31.2337C698.785 31.7316 700.676 32.7584 702.247 34.314C703.819 35.8697 704.937 37.8813 705.601 40.3488C706.27 42.839 706.296 45.1444 705.677 47.2652C705.07 49.383 703.902 51.2022 702.175 52.723C700.46 54.2407 698.278 55.3558 695.629 56.0685L686.666 58.4805L684.693 51.1459L691.755 49.2455C692.864 48.947 693.757 48.5003 694.435 47.9053C695.12 47.296 695.575 46.5728 695.799 45.7357C696.034 44.8955 696.019 43.9831 695.754 42.9984C695.486 42.0023 695.043 41.2112 694.424 40.6252C693.813 40.0248 693.062 39.6444 692.169 39.4841C691.284 39.3094 690.288 39.3712 689.179 39.6697L685.851 40.5651L693.178 67.7983L683.739 70.3382Z" fill="#5988FF"/>
<path d="M720.373 60.7058L712.501 25.5687L727.666 22.1706C730.273 21.5863 732.67 21.5898 734.857 22.1809C737.043 22.7721 738.888 23.8782 740.392 25.4991C741.896 27.12 742.928 29.1772 743.486 31.6707C744.05 34.187 743.978 36.4915 743.27 38.5841C742.573 40.6742 741.329 42.4423 739.539 43.8884C737.761 45.332 735.534 46.3536 732.857 46.9533L723.8 48.9829L722.139 41.5712L729.276 39.9721C730.396 39.7209 731.308 39.3125 732.01 38.7468C732.721 38.1671 733.206 37.4638 733.465 36.6369C733.736 35.8075 733.759 34.8953 733.536 33.9002C733.311 32.8937 732.901 32.0845 732.308 31.4727C731.723 30.847 730.989 30.4351 730.103 30.237C729.227 30.0249 728.229 30.0445 727.108 30.2956L723.746 31.0491L729.911 58.5686L720.373 60.7058Z" fill="#5988FF"/>
<path d="M757.409 52.6657L750.941 17.2433L760.556 15.487L765.61 43.1607L779.929 40.5452L781.344 48.2939L757.409 52.6657Z" fill="#5988FF"/>
<path d="M790.035 46.8844L784.932 11.2395L810.619 7.56184L811.735 15.3592L795.724 17.6515L796.601 23.7779L811.289 21.675L812.405 29.4723L797.718 31.5752L798.595 37.7017L814.535 35.4193L815.652 43.2166L790.035 46.8844Z" fill="#5988FF"/>
<path d="M837.679 4.35818L849.809 3.42749L859.712 23.1228L860.133 23.0906L866.917 2.11484L879.047 1.18415L881.801 37.0869L872.265 37.8185L870.673 17.0623L870.392 17.0838L863.97 38.1729L858.221 38.614L848.646 18.6112L848.366 18.6328L849.969 39.5293L840.433 40.2609L837.679 4.35818Z" fill="#5988FF"/>
<path d="M900.594 36.5081L890.048 36.7564L901.082 0.478338L914.439 0.163831L927.167 35.8824L916.622 36.1307L908.134 10.2314L907.853 10.238L900.594 36.5081ZM898.291 22.352L918.116 21.8852L918.288 29.1973L898.463 29.6641L898.291 22.352Z" fill="#5988FF"/>
<path d="M935.06 35.9994L935.859 0L951.396 0.34501C954.068 0.404333 956.394 0.983576 958.374 2.08274C960.354 3.1819 961.88 4.6989 962.95 6.63374C964.021 8.56858 964.528 10.8133 964.471 13.368C964.414 15.946 963.79 18.1657 962.6 20.0269C961.422 21.8883 959.79 23.3059 957.705 24.2796C955.632 25.2536 953.225 25.7102 950.483 25.6493L941.203 25.4432L941.371 17.8496L948.683 18.0119C949.831 18.0374 950.814 17.8599 951.631 17.4795C952.461 17.0875 953.1 16.5214 953.551 15.781C954.012 15.0409 954.255 14.1611 954.277 13.1416C954.3 12.1104 954.097 11.2265 953.668 10.4901C953.251 9.7422 952.637 9.16579 951.825 8.76087C951.025 8.34448 950.051 8.12354 948.903 8.09804L945.458 8.02155L944.832 36.2164L935.06 35.9994Z" fill="#5988FF"/>
<path d="M993.89 13.6077C993.872 12.4319 993.493 11.4912 992.752 10.7854C992.022 10.0804 990.868 9.67685 989.289 9.57466C988.283 9.50956 987.451 9.57901 986.792 9.78301C986.145 9.97608 985.656 10.2675 985.326 10.6572C984.995 11.0469 984.807 11.5046 984.761 12.0302C984.71 12.4614 984.76 12.8582 984.913 13.2205C985.078 13.5718 985.351 13.9007 985.73 14.2071C986.11 14.5019 986.603 14.7805 987.209 15.0428C987.814 15.3052 988.538 15.5517 989.381 15.7824L992.287 16.6048C994.248 17.1546 995.914 17.8204 997.284 18.6021C998.655 19.3838 999.76 20.2717 1000.6 21.2657C1001.44 22.248 1002.03 23.3318 1002.38 24.5171C1002.74 25.7031 1002.88 26.9808 1002.8 28.3501C1002.64 30.7121 1001.92 32.674 1000.64 34.2359C999.366 35.7978 997.613 36.9353 995.382 37.6484C993.164 38.3622 990.534 38.6207 987.493 38.4239C984.37 38.2218 981.675 37.5834 979.407 36.5087C977.151 35.4348 975.442 33.897 974.28 31.8955C973.13 29.883 972.646 27.3733 972.829 24.3664L982.092 24.9659C982.079 26.0692 982.294 27.011 982.737 27.7914C983.18 28.5718 983.833 29.1838 984.697 29.6273C985.573 30.0716 986.63 30.3339 987.87 30.4141C988.911 30.4815 989.791 30.4092 990.509 30.1973C991.227 29.9854 991.783 29.6631 992.175 29.2303C992.567 28.7976 992.788 28.2892 992.837 27.7051C992.861 27.1546 992.711 26.6633 992.386 26.2312C992.074 25.7882 991.537 25.3775 990.775 24.9993C990.013 24.6094 988.975 24.225 987.661 23.8463L984.132 22.8427C980.995 21.9467 978.561 20.6322 976.829 18.8991C975.11 17.1552 974.347 14.8799 974.54 12.0734C974.676 9.79176 975.414 7.83679 976.752 6.20852C978.103 4.5693 979.903 3.34089 982.152 2.52329C984.413 1.70644 986.965 1.38999 989.807 1.57393C992.707 1.76166 995.185 2.40945 997.239 3.5173C999.293 4.62516 1000.84 6.0993 1001.87 7.93972C1002.91 9.76921 1003.36 11.8599 1003.22 14.2117L993.89 13.6077Z" fill="#5988FF"/>
<path d="M1064.01 21.294C1064.08 20.1203 1063.78 19.1532 1063.09 18.3926C1062.42 17.6336 1061.3 17.1426 1059.73 16.9194C1058.73 16.7772 1057.9 16.7825 1057.22 16.9353C1056.57 17.0781 1056.06 17.331 1055.7 17.6942C1055.34 18.0574 1055.11 18.4992 1055.03 19.0198C1054.94 19.4458 1054.96 19.8453 1055.09 20.2182C1055.23 20.5812 1055.47 20.9301 1055.83 21.2648C1056.18 21.5879 1056.65 21.9035 1057.24 22.2116C1057.82 22.5197 1058.52 22.8211 1059.35 23.1159L1062.18 24.1591C1064.09 24.8579 1065.7 25.6497 1067.01 26.5344C1068.32 27.4191 1069.35 28.3892 1070.11 29.4449C1070.87 30.4889 1071.38 31.6151 1071.64 32.8234C1071.9 34.0334 1071.94 35.3181 1071.76 36.6774C1071.42 39.0199 1070.55 40.9207 1069.16 42.38C1067.76 43.8392 1065.93 44.8387 1063.65 45.3783C1061.38 45.9195 1058.74 45.9752 1055.72 45.5454C1052.63 45.104 1049.99 44.2604 1047.81 43.0147C1045.64 41.7706 1044.06 40.1061 1043.05 38.0211C1042.06 35.9262 1041.77 33.3868 1042.18 30.4028L1051.37 31.7122C1051.28 32.8113 1051.42 33.7669 1051.8 34.579C1052.18 35.3911 1052.78 36.0514 1053.61 36.56C1054.45 37.0703 1055.49 37.413 1056.72 37.5882C1057.75 37.7354 1058.63 37.7309 1059.36 37.5748C1060.1 37.4187 1060.67 37.14 1061.1 36.7387C1061.52 36.3374 1061.78 35.8474 1061.88 35.2689C1061.94 34.7218 1061.83 34.2204 1061.54 33.7647C1061.26 33.299 1060.76 32.8483 1060.03 32.4126C1059.3 31.9653 1058.29 31.5024 1057.01 31.0238L1053.57 29.752C1050.51 28.6177 1048.19 27.12 1046.59 25.2591C1045.01 23.3882 1044.43 21.0611 1044.83 18.2777C1045.14 16.0132 1046.03 14.1207 1047.49 12.6C1048.96 11.0694 1050.85 9.98296 1053.16 9.34056C1055.47 8.69983 1058.04 8.58033 1060.86 8.98207C1063.74 9.39207 1066.16 10.2283 1068.12 11.4907C1070.09 12.7531 1071.51 14.3414 1072.4 16.2556C1073.3 18.16 1073.59 20.2792 1073.27 22.6133L1064.01 21.294Z" fill="#5988FF"/>
<path d="M1106.34 17.1369L1115.95 18.9376L1111.7 41.6107C1111.19 44.3066 1110.11 46.5186 1108.45 48.2469C1106.81 49.9657 1104.74 51.146 1102.24 51.7878C1099.75 52.418 1096.99 52.4492 1093.96 51.8814C1090.91 51.3092 1088.34 50.2783 1086.24 48.7887C1084.15 47.2876 1082.65 45.4379 1081.74 43.2397C1080.84 41.0321 1080.64 38.5804 1081.15 35.8845L1085.4 13.2115L1095.01 15.0122L1090.91 36.8558C1090.71 37.9503 1090.76 38.9749 1091.09 39.9296C1091.41 40.8728 1091.95 41.6663 1092.72 42.3099C1093.49 42.9558 1094.42 43.3812 1095.52 43.5864C1096.62 43.7936 1097.65 43.7352 1098.59 43.4111C1099.53 43.087 1100.33 42.5441 1100.97 41.7822C1101.62 41.0088 1102.04 40.0749 1102.25 38.9804L1106.34 17.1369Z" fill="#5988FF"/>
<path d="M1118.29 56.265L1126.46 21.1969L1141.59 24.7254C1144.2 25.3321 1146.35 26.3767 1148.07 27.8591C1149.78 29.3415 1150.96 31.1395 1151.61 33.253C1152.26 35.3665 1152.3 37.6675 1151.72 40.1561C1151.13 42.6674 1150.07 44.7117 1148.52 46.2888C1146.98 47.8686 1145.1 48.9208 1142.86 49.4456C1140.63 49.9731 1138.18 49.9255 1135.51 49.3028L1126.47 47.1953L1128.19 39.7981L1135.31 41.4586C1136.43 41.7194 1137.43 41.7475 1138.31 41.543C1139.2 41.3297 1139.94 40.907 1140.53 40.2749C1141.14 39.6454 1141.56 38.8341 1141.79 37.841C1142.02 36.8364 1142 35.9297 1141.74 35.1209C1141.48 34.3032 1141 33.6129 1140.29 33.0499C1139.59 32.4782 1138.68 32.062 1137.56 31.8012L1134.21 31.0188L1127.81 58.4843L1118.29 56.265Z" fill="#5988FF"/>
<path d="M1155.13 65.0774L1164.78 30.3875L1179.75 34.5548C1182.33 35.2713 1184.44 36.4065 1186.08 37.9602C1187.73 39.5139 1188.84 41.3604 1189.4 43.4996C1189.96 45.6388 1189.9 47.9392 1189.21 50.4009C1188.52 52.8852 1187.37 54.8824 1185.75 56.3925C1184.15 57.9057 1182.22 58.8769 1179.96 59.3062C1177.71 59.7387 1175.27 59.5872 1172.63 58.8518L1163.68 56.3628L1165.72 49.0454L1172.76 51.0064C1173.87 51.3144 1174.87 51.3849 1175.75 51.2178C1176.65 51.0426 1177.41 50.6517 1178.03 50.0453C1178.66 49.442 1179.11 48.6492 1179.39 47.6667C1179.66 46.673 1179.68 45.7664 1179.45 44.9468C1179.23 44.1192 1178.78 43.409 1178.09 42.8163C1177.42 42.2156 1176.53 41.7612 1175.42 41.4532L1172.1 40.5292L1164.54 67.6984L1155.13 65.0774Z" fill="#5988FF"/>
<path d="M1191.57 75.4832L1202.59 41.2047L1211.9 44.1981L1203.29 70.9782L1217.14 75.4361L1214.73 82.9345L1191.57 75.4832Z" fill="#5988FF"/>
<path d="M1223.06 85.7963L1235.39 51.9669L1259.77 60.8573L1257.07 68.2575L1241.88 62.7161L1239.76 68.5305L1253.7 73.6141L1251 81.0143L1237.06 75.9306L1234.94 81.7451L1250.07 87.2624L1247.37 94.6626L1223.06 85.7963Z" fill="#5988FF"/>
<path d="M1285.13 70.8134L1296.27 75.7221L1295.69 97.7603L1296.08 97.9306L1311.97 82.6453L1323.1 87.5541L1308.57 120.502L1299.82 116.643L1308.22 97.595L1307.96 97.4815L1292.34 113.037L1287.07 110.711L1288.07 88.5568L1287.81 88.4433L1279.36 107.62L1270.61 103.761L1285.13 70.8134Z" fill="#5988FF"/>
<path d="M1325.41 128.869L1316 124.107L1342.85 97.3406L1354.77 103.372L1349.13 140.868L1339.72 136.107L1344.46 109.269L1344.21 109.142L1325.41 128.869ZM1330.06 115.303L1347.76 124.255L1344.46 130.782L1326.76 121.83L1330.06 115.303Z" fill="#5988FF"/>
<path d="M1356.03 144.699L1373.73 113.344L1387.27 120.987C1389.59 122.301 1391.37 123.91 1392.6 125.814C1393.82 127.718 1394.45 129.776 1394.48 131.987C1394.51 134.199 1393.9 136.417 1392.64 138.642C1391.37 140.887 1389.78 142.549 1387.85 143.627C1385.93 144.712 1383.82 145.191 1381.53 145.064C1379.24 144.943 1376.9 144.209 1374.51 142.86L1366.43 138.295L1370.16 131.682L1376.53 135.278C1377.53 135.843 1378.48 136.151 1379.38 136.201C1380.3 136.247 1381.13 136.051 1381.88 135.611C1382.63 135.176 1383.26 134.515 1383.76 133.627C1384.27 132.729 1384.51 131.854 1384.48 131.002C1384.46 130.146 1384.19 129.348 1383.67 128.608C1383.16 127.863 1382.41 127.208 1381.41 126.643L1378.41 124.949L1364.54 149.506L1356.03 144.699Z" fill="#5988FF"/>
<path d="M1418.46 152.748C1419 151.703 1419.11 150.695 1418.79 149.723C1418.48 148.757 1417.65 147.856 1416.31 147.02C1415.45 146.487 1414.69 146.155 1414.01 146.024C1413.35 145.889 1412.78 145.915 1412.3 146.102C1411.83 146.289 1411.45 146.604 1411.16 147.046C1410.91 147.402 1410.77 147.775 1410.73 148.167C1410.71 148.554 1410.8 148.973 1410.99 149.422C1411.18 149.862 1411.48 150.34 1411.89 150.857C1412.3 151.375 1412.83 151.934 1413.46 152.535L1415.63 154.633C1417.1 156.043 1418.26 157.417 1419.09 158.753C1419.93 160.09 1420.49 161.394 1420.76 162.667C1421.04 163.93 1421.05 165.166 1420.79 166.374C1420.55 167.589 1420.07 168.781 1419.35 169.952C1418.09 171.956 1416.53 173.346 1414.67 174.12C1412.81 174.894 1410.73 175.069 1408.42 174.644C1406.13 174.225 1403.69 173.211 1401.1 171.601C1398.45 169.948 1396.37 168.112 1394.88 166.094C1393.4 164.082 1392.62 161.919 1392.54 159.606C1392.48 157.289 1393.23 154.848 1394.82 152.284L1402.7 157.187C1402.17 158.154 1401.91 159.086 1401.93 159.983C1401.95 160.88 1402.24 161.728 1402.79 162.527C1403.35 163.332 1404.16 164.063 1405.22 164.719C1406.1 165.27 1406.91 165.622 1407.65 165.774C1408.38 165.927 1409.02 165.905 1409.57 165.709C1410.12 165.512 1410.56 165.168 1410.88 164.677C1411.16 164.203 1411.26 163.699 1411.17 163.165C1411.11 162.627 1410.83 162.011 1410.34 161.318C1409.85 160.614 1409.12 159.785 1408.14 158.831L1405.5 156.279C1403.16 154.008 1401.63 151.7 1400.92 149.354C1400.23 147.005 1400.63 144.639 1402.13 142.257C1403.33 140.309 1404.9 138.934 1406.85 138.131C1408.81 137.325 1410.98 137.092 1413.35 137.434C1415.73 137.781 1418.13 138.708 1420.54 140.212C1423.01 141.747 1424.89 143.489 1426.18 145.435C1427.46 147.382 1428.13 149.41 1428.17 151.52C1428.23 153.626 1427.64 155.682 1426.4 157.689L1418.46 152.748Z" fill="#5988FF"/>
</svg>
