<svg width="12" height="17" viewBox="0 0 12 17" fill="none" xmlns="http://www.w3.org/2000/svg">
<path d="M6 8.87988C6.79113 8.87988 7.56448 8.64529 8.22228 8.20576C8.88008 7.76624 9.39277 7.14152 9.69552 6.41062C9.89751 5.92296 10 5.40265 10 4.87988C10 4.61912 9.97451 4.35775 9.92314 4.09952C9.7688 3.3236 9.38784 2.61087 8.82843 2.05146C8.26902 1.49205 7.55628 1.11108 6.78036 0.956743C6.00444 0.802403 5.20017 0.881616 4.46927 1.18437C3.73836 1.48712 3.11365 1.99981 2.67412 2.6576C2.2346 3.3154 2 4.08876 2 4.87988C2.00106 5.94043 2.42283 6.95723 3.17274 7.70714C3.92266 8.45706 4.93946 8.87883 6 8.87988ZM6 2.21322C6.52742 2.21322 7.04299 2.36962 7.48152 2.66263C7.92005 2.95565 8.26184 3.37213 8.46368 3.8594C8.59834 4.1845 8.66667 4.53137 8.66667 4.87988C8.66667 5.05372 8.64967 5.22797 8.61543 5.40013C8.51253 5.91741 8.25856 6.39256 7.88562 6.7655C7.51268 7.13844 7.03752 7.39242 6.52024 7.49531C6.00296 7.59821 5.46678 7.5454 4.97951 7.34356C4.49224 7.14173 4.07577 6.79994 3.78275 6.36141C3.48973 5.92287 3.33333 5.4073 3.33333 4.87988C3.33333 4.17264 3.61428 3.49436 4.11438 2.99427C4.61448 2.49417 5.29276 2.21322 6 2.21322Z" fill="#9D9D9D"/>
<path d="M6 10.2132C4.40924 10.215 2.88414 10.8477 1.75931 11.9725C0.634472 13.0974 0.00176457 14.6225 0 16.2132C0 16.39 0.0702379 16.5596 0.195262 16.6846C0.320286 16.8096 0.489856 16.8799 0.666667 16.8799C0.843478 16.8799 1.01305 16.8096 1.13807 16.6846C1.2631 16.5596 1.33333 16.39 1.33333 16.2132C1.33333 14.9755 1.825 13.7886 2.70017 12.9134C3.57534 12.0382 4.76232 11.5466 6 11.5466C7.23768 11.5466 8.42466 12.0382 9.29983 12.9134C10.175 13.7886 10.6667 14.9755 10.6667 16.2132C10.6667 16.39 10.7369 16.5596 10.8619 16.6846C10.987 16.8096 11.1565 16.8799 11.3333 16.8799C11.5101 16.8799 11.6797 16.8096 11.8047 16.6846C11.9298 16.5596 12 16.39 12 16.2132C11.9982 14.6225 11.3655 13.0974 10.2407 11.9725C9.11586 10.8477 7.59076 10.215 6 10.2132Z" fill="#9D9D9D"/>
</svg>
