<svg width="16" height="17" viewBox="0 0 16 17" fill="none" xmlns="http://www.w3.org/2000/svg">
<path d="M7.32291 5.53609V8.59623L5.51659 10.4025C5.45286 10.4641 5.40203 10.5377 5.36706 10.6191C5.33208 10.7006 5.31368 10.7881 5.31291 10.8767C5.31214 10.9653 5.32902 11.0532 5.36257 11.1352C5.39612 11.2172 5.44567 11.2917 5.50832 11.3544C5.57098 11.417 5.64548 11.4666 5.72748 11.5001C5.80949 11.5337 5.89736 11.5505 5.98596 11.5498C6.07456 11.549 6.16212 11.5306 6.24353 11.4956C6.32494 11.4606 6.39857 11.4098 6.46012 11.3461L8.46196 9.34425C8.58711 9.21914 8.65743 9.04944 8.65747 8.87248V5.53609C8.65747 5.35912 8.58717 5.18939 8.46203 5.06426C8.33689 4.93912 8.16717 4.86881 7.99019 4.86881C7.81322 4.86881 7.6435 4.93912 7.51836 5.06426C7.39322 5.18939 7.32291 5.35912 7.32291 5.53609Z" fill="#9D9D9D"/>
<path d="M9.81053 15.2944C8.39153 15.6943 6.87996 15.6123 5.51256 15.0612C4.14516 14.5101 2.99914 13.5211 2.25401 12.249C1.50887 10.9768 1.2067 9.49352 1.39481 8.03129C1.58292 6.56907 2.25069 5.21052 3.29354 4.16843C4.33639 3.12634 5.69541 2.45955 7.15778 2.2725C8.62014 2.08545 10.1032 2.3887 11.3748 3.13476C12.6464 3.88082 13.6346 5.02754 14.1847 6.39535C14.7348 7.76315 14.8157 9.27478 14.4147 10.6935C14.3876 10.7788 14.3779 10.8687 14.3862 10.9578C14.3946 11.0469 14.4207 11.1334 14.4632 11.2122C14.5056 11.291 14.5635 11.3605 14.6333 11.4164C14.7032 11.4724 14.7835 11.5138 14.8697 11.538C14.9558 11.5623 15.046 11.569 15.1348 11.5577C15.2236 11.5464 15.3092 11.5174 15.3865 11.4723C15.4639 11.4273 15.5313 11.3671 15.585 11.2955C15.6386 11.2238 15.6772 11.1421 15.6986 11.0551C16.18 9.35144 16.0826 7.53617 15.4218 5.89372C14.7609 4.25127 13.5739 2.87442 12.0467 1.97888C10.5195 1.08333 8.73839 0.719677 6.98236 0.944883C5.22633 1.17009 3.59461 1.97143 2.34281 3.22338C1.09102 4.47533 0.289872 6.10715 0.0648776 7.8632C-0.160116 9.61926 0.203753 11.4003 1.09948 12.9274C1.99522 14.4545 3.3722 15.6414 5.01473 16.302C6.65726 16.9627 8.47254 17.0598 10.1762 16.5782C10.2624 16.5561 10.3432 16.5169 10.414 16.463C10.4849 16.4092 10.5442 16.3417 10.5885 16.2645C10.6329 16.1874 10.6614 16.1022 10.6723 16.0139C10.6832 15.9256 10.6764 15.836 10.6522 15.7504C10.6279 15.6648 10.5869 15.5849 10.5313 15.5154C10.4758 15.4459 10.4069 15.3882 10.3287 15.3457C10.2506 15.3032 10.1647 15.2768 10.0761 15.2679C9.98761 15.2591 9.89821 15.2681 9.8132 15.2944H9.81053Z" fill="#9D9D9D"/>
</svg>
