<svg width="16" height="17" viewBox="0 0 16 17" fill="none" xmlns="http://www.w3.org/2000/svg">
<path d="M2.66666 7.5482H2.66664C1.56118 7.54822 0.665 6.65206 0.665 5.54654V3.54654C0.665 2.44106 1.56118 1.54488 2.66666 1.54488H4.66666C5.77214 1.54488 6.66831 2.44106 6.66831 3.54654V5.54654C6.66831 6.65202 5.77214 7.5482 4.66666 7.5482H2.66666ZM11.3333 1.54488H13.3333C14.4388 1.54488 15.335 2.44106 15.335 3.54654V5.54654C15.335 6.65202 14.4388 7.5482 13.3333 7.5482H11.3333C10.2279 7.5482 9.33169 6.65202 9.33169 5.54654V3.54654C9.33166 2.44106 10.2278 1.54488 11.3333 1.54488ZM2.66666 10.2115H4.66666C5.77214 10.2115 6.66831 11.1077 6.66831 12.2132V14.2132C6.66831 15.3187 5.77214 16.2149 4.66666 16.2149H2.66666C1.56118 16.2149 0.665 15.3187 0.665 14.2132V12.2132C0.665 11.1077 1.56118 10.2115 2.66666 10.2115ZM11.3333 10.2115H13.3333C14.4388 10.2115 15.335 11.1077 15.335 12.2132V14.2132C15.335 15.3187 14.4388 16.2149 13.3333 16.2149H11.3333C10.2279 16.2149 9.33169 15.3187 9.33169 14.2132V12.2132C9.33166 11.1077 10.2278 10.2115 11.3333 10.2115Z" stroke="#9D9D9D" stroke-width="1.33"/>
</svg>
