<svg width="17" height="17" viewBox="0 0 17 17" fill="none" xmlns="http://www.w3.org/2000/svg">
<path d="M13.789 1.65505L13.775 1.65038L11.9647 1.05028C11.3394 0.84268 10.6667 0.824355 10.031 0.997603L6.31307 2.07712C5.85783 2.19776 5.37473 2.1553 4.94751 1.9571L4.61412 1.80241C4.10776 1.59182 3.55727 1.50939 3.01144 1.56244C2.46561 1.61548 1.94129 1.80235 1.48495 2.10649C1.02862 2.41062 0.654348 2.82264 0.395323 3.30601C0.136297 3.78939 0.000511611 4.32919 0 4.8776L0 12.929C0.0014013 13.65 0.235901 14.3512 0.668507 14.928C1.10111 15.5048 1.70863 15.9263 2.40041 16.1295L4.3134 16.7296C4.63613 16.8299 4.97227 16.8805 5.31024 16.8796C5.6115 16.8835 5.91167 16.8428 6.20105 16.759L10.0684 15.6921C10.4218 15.5963 10.7947 15.5992 11.1466 15.7008L12.7088 16.1515C13.101 16.2463 13.5097 16.2509 13.9039 16.165C14.2982 16.079 14.6678 15.9047 14.9849 15.6551C15.302 15.4056 15.5583 15.0874 15.7347 14.7244C15.911 14.3615 16.0026 13.9633 16.0027 13.5597V4.79491C16.0017 4.10736 15.7886 3.43686 15.3924 2.87492C14.9962 2.31298 14.4363 1.88698 13.789 1.65505ZM2.78447 14.852C2.36727 14.7313 2.0004 14.4787 1.73883 14.132C1.47725 13.7854 1.33506 13.3633 1.33356 12.929V4.8776C1.33032 4.54733 1.41021 4.22155 1.56588 3.93025C1.72155 3.63895 1.948 3.39149 2.22438 3.21065C2.55324 2.9925 2.93927 2.87651 3.3339 2.87726C3.58839 2.87733 3.84036 2.92763 4.07536 3.02528C4.07536 3.02528 4.57211 3.23798 4.66679 3.27199V15.4407L2.78447 14.852ZM6.00102 15.4307V3.46336C6.2275 3.45134 6.45221 3.41672 6.6718 3.36L10.0017 2.39251V14.3459L6.00102 15.4307ZM14.6692 13.5597C14.6693 13.7595 14.6246 13.9567 14.5383 14.1368C14.452 14.3169 14.3264 14.4754 14.1706 14.6004C14.0149 14.7255 13.8331 14.814 13.6386 14.8594C13.4441 14.9048 13.2419 14.9059 13.0469 14.8626L11.3353 14.3805V2.26048L13.3476 2.91326C13.7343 3.05339 14.0686 3.30912 14.305 3.64574C14.5415 3.98236 14.6686 4.38357 14.6692 4.79491V13.5597Z" fill="#9D9D9D"/>
</svg>
