<svg width="16" height="19" viewBox="0 0 16 19" fill="none" xmlns="http://www.w3.org/2000/svg">
<path d="M8 6.91603C7.4138 6.91603 6.84077 7.08986 6.35336 7.41554C5.86595 7.74121 5.48606 8.2041 5.26174 8.74568C5.03741 9.28726 4.97871 9.8832 5.09307 10.4581C5.20744 11.0331 5.48972 11.5612 5.90422 11.9757C6.31873 12.3902 6.84684 12.6725 7.42178 12.7868C7.99671 12.9012 8.59265 12.8425 9.13423 12.6182C9.6758 12.3938 10.1387 12.014 10.4644 11.5265C10.79 11.0391 10.9639 10.4661 10.9639 9.87991C10.9639 9.09384 10.6516 8.33997 10.0958 7.78413C9.53994 7.2283 8.78607 6.91603 8 6.91603ZM8 11.3618C7.7069 11.3618 7.42038 11.2749 7.17668 11.1121C6.93298 10.9493 6.74303 10.7178 6.63087 10.447C6.5187 10.1762 6.48936 9.87826 6.54654 9.5908C6.60372 9.30333 6.74486 9.03927 6.95211 8.83202C7.15936 8.62477 7.42342 8.48363 7.71089 8.42644C7.99836 8.36926 8.29632 8.39861 8.56711 8.51078C8.8379 8.62294 9.06935 8.81288 9.23219 9.05659C9.39502 9.30029 9.48194 9.58681 9.48194 9.87991C9.48194 10.2729 9.3258 10.6499 9.04789 10.9278C8.76997 11.2057 8.39303 11.3618 8 11.3618Z" fill="#9D9D9D"/>
<path d="M14.8866 11.2877L14.5576 11.0981C14.7057 10.2922 14.7057 9.46612 14.5576 8.66027L14.8866 8.47058C15.1396 8.32463 15.3613 8.13027 15.5392 7.8986C15.7171 7.66694 15.8476 7.40251 15.9233 7.1204C15.999 6.8383 16.0183 6.54406 15.9803 6.25446C15.9423 5.96487 15.8476 5.68561 15.7016 5.43261C15.5557 5.17962 15.3613 4.95785 15.1296 4.77997C14.898 4.60209 14.6336 4.47158 14.3515 4.3959C14.0693 4.32021 13.7751 4.30083 13.4855 4.33886C13.1959 4.37689 12.9167 4.47159 12.6637 4.61755L12.3339 4.80798C11.7112 4.2759 10.9955 3.86342 10.2229 3.5913V3.21119C10.2229 2.62164 9.98871 2.05623 9.57183 1.63936C9.15496 1.22248 8.58955 0.988281 8 0.988281C7.41045 0.988281 6.84504 1.22248 6.42817 1.63936C6.01129 2.05623 5.77709 2.62164 5.77709 3.21119V3.5913C5.00455 3.8644 4.28911 4.27789 3.66681 4.81094L3.3356 4.61903C2.82466 4.32425 2.21754 4.24452 1.64781 4.39738C1.07808 4.55023 0.592404 4.92315 0.297628 5.43409C0.00285207 5.94504 -0.0768785 6.55216 0.075976 7.12189C0.22883 7.69162 0.601749 8.17729 1.11269 8.47207L1.44168 8.66176C1.29357 9.4676 1.29357 10.2937 1.44168 11.0995L1.11269 11.2892C0.601749 11.584 0.22883 12.0697 0.075976 12.6394C-0.0768785 13.2091 0.00285207 13.8163 0.297628 14.3272C0.592404 14.8381 1.07808 15.2111 1.64781 15.3639C2.21754 15.5168 2.82466 15.437 3.3356 15.1423L3.66533 14.9518C4.28831 15.484 5.00425 15.8965 5.77709 16.1685V16.5486C5.77709 17.1382 6.01129 17.7036 6.42817 18.1205C6.84504 18.5373 7.41045 18.7715 8 18.7715C8.58955 18.7715 9.15496 18.5373 9.57183 18.1205C9.98871 17.7036 10.2229 17.1382 10.2229 16.5486V16.1685C10.9954 15.8954 11.7109 15.4819 12.3332 14.9489L12.6644 15.14C13.1753 15.4348 13.7825 15.5146 14.3522 15.3617C14.9219 15.2088 15.4076 14.8359 15.7024 14.325C15.9971 13.814 16.0769 13.2069 15.924 12.6372C15.7712 12.0675 15.3983 11.5818 14.8873 11.287L14.8866 11.2877ZM12.9986 8.48985C13.2495 9.39907 13.2495 10.3593 12.9986 11.2685C12.9548 11.4267 12.9648 11.5951 13.027 11.747C13.0892 11.899 13.2002 12.0259 13.3424 12.108L14.1456 12.5718C14.3159 12.6701 14.4402 12.832 14.4911 13.0219C14.542 13.2118 14.5154 13.4141 14.4172 13.5844C14.3189 13.7547 14.157 13.8789 13.9671 13.9299C13.7772 13.9808 13.5749 13.9542 13.4046 13.8559L12.5999 13.3906C12.4576 13.3082 12.2919 13.2754 12.1289 13.2976C11.9659 13.3197 11.8149 13.3955 11.6997 13.5129C11.0401 14.1862 10.2093 14.6666 9.29669 14.9022C9.13741 14.9431 8.99628 15.0359 8.89553 15.1659C8.79478 15.2959 8.74015 15.4557 8.74023 15.6202V16.5486C8.74023 16.7451 8.66216 16.9336 8.5232 17.0726C8.38424 17.2115 8.19578 17.2896 7.99926 17.2896C7.80274 17.2896 7.61427 17.2115 7.47531 17.0726C7.33636 16.9336 7.25829 16.7451 7.25829 16.5486V15.6209C7.25837 15.4565 7.20373 15.2967 7.10299 15.1667C7.00224 15.0367 6.86111 14.9439 6.70182 14.9029C5.78921 14.6663 4.95857 14.1849 4.2996 13.5107C4.1844 13.3932 4.0334 13.3175 3.8704 13.2954C3.7074 13.2732 3.54167 13.306 3.39932 13.3884L2.59611 13.853C2.51181 13.9024 2.41857 13.9347 2.32175 13.9479C2.22493 13.9611 2.12645 13.9551 2.03198 13.9301C1.93751 13.9051 1.84891 13.8617 1.77128 13.8024C1.69366 13.743 1.62854 13.6689 1.57968 13.5843C1.53082 13.4996 1.49918 13.4062 1.48658 13.3093C1.47399 13.2124 1.48069 13.1139 1.50629 13.0196C1.53189 12.9253 1.5759 12.837 1.63577 12.7598C1.69564 12.6825 1.7702 12.6179 1.85514 12.5696L2.65835 12.1058C2.80058 12.0237 2.91153 11.8967 2.97376 11.7448C3.03599 11.5928 3.04598 11.4245 3.00216 11.2663C2.75124 10.357 2.75124 9.39684 3.00216 8.48763C3.04519 8.32971 3.03472 8.162 2.97239 8.01066C2.91006 7.85932 2.79937 7.73288 2.65761 7.65107L1.8544 7.18723C1.68412 7.08897 1.55985 6.92709 1.50892 6.7372C1.45799 6.54732 1.48458 6.34497 1.58284 6.17469C1.6811 6.00441 1.84298 5.88014 2.03286 5.82921C2.22275 5.77828 2.42509 5.80487 2.59537 5.90313L3.40006 6.36846C3.54202 6.45108 3.7074 6.4842 3.87023 6.46261C4.03306 6.44102 4.18409 6.36593 4.2996 6.24916C4.95913 5.57587 5.79 5.09549 6.70256 4.85984C6.86234 4.81877 7.00384 4.72554 7.10464 4.59495C7.20544 4.46435 7.25977 4.30385 7.25903 4.13888V3.21119C7.25903 3.01467 7.3371 2.8262 7.47606 2.68724C7.61501 2.54829 7.80348 2.47022 8 2.47022C8.19652 2.47022 8.38498 2.54829 8.52394 2.68724C8.6629 2.8262 8.74097 3.01467 8.74097 3.21119V4.13888C8.74089 4.30334 8.79552 4.46316 8.89627 4.59315C8.99702 4.72315 9.13815 4.81593 9.29744 4.85688C10.2103 5.09336 11.0412 5.57479 11.7004 6.24916C11.8156 6.36658 11.9666 6.44233 12.1296 6.46446C12.2926 6.4866 12.4583 6.45386 12.6007 6.37142L13.4039 5.90683C13.4882 5.85741 13.5814 5.82515 13.6782 5.81192C13.7751 5.79868 13.8735 5.80472 13.968 5.8297C14.0625 5.85468 14.1511 5.89809 14.2287 5.95745C14.3063 6.01681 14.3715 6.09094 14.4203 6.17556C14.4692 6.26019 14.5008 6.35364 14.5134 6.45055C14.526 6.54745 14.5193 6.64589 14.4937 6.74019C14.4681 6.8345 14.4241 6.92281 14.3642 7.00004C14.3044 7.07727 14.2298 7.14189 14.1449 7.19019L13.3416 7.65404C13.2002 7.73607 13.0898 7.8626 13.0277 8.01392C12.9657 8.16524 12.9554 8.33284 12.9986 8.49059V8.48985Z" fill="#9D9D9D"/>
</svg>
