<svg width="16" height="17" viewBox="0 0 16 17" fill="none" xmlns="http://www.w3.org/2000/svg">
<path d="M3.33201 16.8792C2.96677 16.8792 2.60086 16.7472 2.31626 16.482L0.98993 15.2496C-0.327074 13.9333 -0.327074 11.8191 0.972601 10.5201C1.60244 9.89096 2.43957 9.54438 3.32934 9.54438C4.21912 9.54438 5.05625 9.89096 5.68542 10.5201C6.31527 11.1493 6.66185 11.9864 6.66185 12.8769C6.66185 13.7673 6.31527 14.6038 5.68542 15.233L4.35176 16.48C4.06649 16.7466 3.69992 16.8799 3.33334 16.8799L3.33201 16.8792ZM3.32868 10.8767C2.79481 10.8767 2.29227 11.0847 1.91437 11.4626C1.13523 12.2417 1.13523 13.5101 1.91437 14.2899L3.22337 15.5056C3.28469 15.5622 3.37933 15.5622 3.44065 15.5056L4.75832 14.2745C5.11956 13.9126 5.32751 13.4108 5.32751 12.8762C5.32751 12.3417 5.11956 11.8398 4.74166 11.4619C4.36442 11.0847 3.86254 10.8767 3.32868 10.8767ZM12.663 8.21472C12.2978 8.21472 11.9319 8.08208 11.6473 7.81748L10.3209 6.58512C9.00393 5.26879 9.00393 3.15465 10.3036 1.85564C10.9328 1.22646 11.7699 0.879883 12.6603 0.879883C13.5508 0.879883 14.3866 1.22646 15.0164 1.85564C16.3161 3.15531 16.3161 5.26945 15.0164 6.56846L13.6828 7.81548C13.3975 8.08208 13.0303 8.21538 12.6637 8.21538L12.663 8.21472ZM12.6597 2.21222C12.1251 2.21222 11.6233 2.42016 11.2454 2.7974C10.4662 3.57721 10.4662 4.84556 11.2454 5.62536L12.5537 6.84106C12.6157 6.89838 12.711 6.89704 12.7716 6.84106L14.0893 5.61003C14.8525 4.84622 14.8525 3.57787 14.0733 2.79807C13.6954 2.42016 13.1935 2.21222 12.6597 2.21222ZM15.9922 14.2092C15.9922 12.7389 14.7965 11.5432 13.3262 11.5432H9.99368C9.25853 11.5432 8.66068 10.9454 8.66068 10.2102C8.66068 9.64569 9.01792 9.14115 9.54912 8.9532C9.89637 8.83056 10.0783 8.44999 9.95569 8.10274C9.83305 7.7555 9.45315 7.57288 9.10523 7.69618C8.04217 8.07142 7.32768 9.0825 7.32768 10.2102C7.32768 11.6805 8.52338 12.8762 9.99368 12.8762H13.3262C14.0613 12.8762 14.6592 13.4741 14.6592 14.2092C14.6592 14.9444 14.0613 15.5422 13.3262 15.5422H7.32768C6.95977 15.5422 6.66118 15.8408 6.66118 16.2087C6.66118 16.5766 6.95977 16.8752 7.32768 16.8752H13.3262C14.7965 16.8752 15.9922 15.6795 15.9922 14.2092Z" fill="#9D9D9D"/>
</svg>
