<svg width="106" height="21" viewBox="0 0 106 21" fill="none" xmlns="http://www.w3.org/2000/svg">
<path d="M5.20526 20.88C3.6586 20.88 2.48893 20.445 1.69626 19.575C0.903597 18.6857 0.507263 17.4193 0.507263 15.776V14.616H3.52326V16.008C3.52326 17.3227 4.07426 17.98 5.17626 17.98C5.7176 17.98 6.1236 17.8253 6.39426 17.516C6.68426 17.1873 6.82926 16.6653 6.82926 15.95C6.82926 15.0993 6.63593 14.355 6.24926 13.717C5.8626 13.0597 5.14726 12.2767 4.10326 11.368C2.7886 10.208 1.87026 9.164 1.34826 8.236C0.826263 7.28867 0.565263 6.22533 0.565263 5.046C0.565263 3.44133 0.971263 2.204 1.78326 1.334C2.59526 0.444667 3.7746 0 5.32126 0C6.8486 0 7.99893 0.444667 8.77226 1.334C9.56493 2.204 9.96126 3.46067 9.96126 5.104V5.945H6.94526V4.901C6.94526 4.205 6.80993 3.70233 6.53926 3.393C6.2686 3.06433 5.87226 2.9 5.35026 2.9C4.28693 2.9 3.75526 3.54767 3.75526 4.843C3.75526 5.57767 3.9486 6.264 4.33526 6.902C4.74126 7.54 5.46626 8.31333 6.51026 9.222C7.84426 10.382 8.7626 11.4357 9.26526 12.383C9.76793 13.3303 10.0193 14.442 10.0193 15.718C10.0193 17.3807 9.6036 18.6567 8.77226 19.546C7.96026 20.4353 6.77126 20.88 5.20526 20.88Z" fill="#5988FF"/>
<path d="M15.1833 20.88C13.6366 20.88 12.4573 20.445 11.6453 19.575C10.8333 18.6857 10.4273 17.4193 10.4273 15.776V0.29H13.6173V16.008C13.6173 16.704 13.7526 17.2067 14.0233 17.516C14.3133 17.8253 14.7193 17.98 15.2413 17.98C15.7633 17.98 16.1596 17.8253 16.4303 17.516C16.7203 17.2067 16.8653 16.704 16.8653 16.008V0.29H19.9393V15.776C19.9393 17.4193 19.5333 18.6857 18.7213 19.575C17.9093 20.445 16.73 20.88 15.1833 20.88Z" fill="#5988FF"/>
<path d="M20.9063 0.29H25.6043C27.1896 0.29 28.3786 0.715333 29.1713 1.566C29.9639 2.41667 30.3603 3.66367 30.3603 5.307V7.308C30.3603 8.95133 29.9639 10.1983 29.1713 11.049C28.3786 11.8997 27.1896 12.325 25.6043 12.325H24.0963V20.59H20.9063V0.29ZM25.6043 9.425C26.1263 9.425 26.5129 9.28 26.7643 8.99C27.0349 8.7 27.1703 8.207 27.1703 7.511V5.104C27.1703 4.408 27.0349 3.915 26.7643 3.625C26.5129 3.335 26.1263 3.19 25.6043 3.19H24.0963V9.425H25.6043Z" fill="#5988FF"/>
<path d="M30.7878 0.29H35.4858C37.0711 0.29 38.2601 0.715333 39.0528 1.566C39.8455 2.41667 40.2418 3.66367 40.2418 5.307V7.308C40.2418 8.95133 39.8455 10.1983 39.0528 11.049C38.2601 11.8997 37.0711 12.325 35.4858 12.325H33.9778V20.59H30.7878V0.29ZM35.4858 9.425C36.0078 9.425 36.3945 9.28 36.6458 8.99C36.9165 8.7 37.0518 8.207 37.0518 7.511V5.104C37.0518 4.408 36.9165 3.915 36.6458 3.625C36.3945 3.335 36.0078 3.19 35.4858 3.19H33.9778V9.425H35.4858Z" fill="#5988FF"/>
<path d="M40.6693 0.29H43.8593V17.69H49.1083V20.59H40.6693V0.29Z" fill="#5988FF"/>
<path d="M49.3331 0.29H58.0331V3.19H52.5231V8.555H56.9021V11.455H52.5231V17.69H58.0331V20.59H49.3331V0.29Z" fill="#5988FF"/>
<path d="M61.9028 0.29H66.4558L68.4858 14.819H68.5438L70.5738 0.29H75.1268V20.59H72.1108V5.22H72.0528L69.7328 20.59H67.0648L64.7448 5.22H64.6868V20.59H61.9028V0.29Z" fill="#5988FF"/>
<path d="M78.6672 0.29H82.9882L86.2942 20.59H83.1042L82.5242 16.559V16.617H78.8992L78.3192 20.59H75.3612L78.6672 0.29ZM82.1472 13.862L80.7262 3.828H80.6682L79.2762 13.862H82.1472Z" fill="#5988FF"/>
<path d="M86.5369 0.29H91.2349C92.8202 0.29 94.0092 0.715333 94.8019 1.566C95.5946 2.41667 95.9909 3.66367 95.9909 5.307V7.308C95.9909 8.95133 95.5946 10.1983 94.8019 11.049C94.0092 11.8997 92.8202 12.325 91.2349 12.325H89.7269V20.59H86.5369V0.29ZM91.2349 9.425C91.7569 9.425 92.1436 9.28 92.3949 8.99C92.6656 8.7 92.8009 8.207 92.8009 7.511V5.104C92.8009 4.408 92.6656 3.915 92.3949 3.625C92.1436 3.335 91.7569 3.19 91.2349 3.19H89.7269V9.425H91.2349Z" fill="#5988FF"/>
<path d="M100.679 20.88C99.132 20.88 97.9624 20.445 97.1697 19.575C96.377 18.6857 95.9807 17.4193 95.9807 15.776V14.616H98.9967V16.008C98.9967 17.3227 99.5477 17.98 100.65 17.98C101.191 17.98 101.597 17.8253 101.868 17.516C102.158 17.1873 102.303 16.6653 102.303 15.95C102.303 15.0993 102.109 14.355 101.723 13.717C101.336 13.0597 100.621 12.2767 99.5767 11.368C98.262 10.208 97.3437 9.164 96.8217 8.236C96.2997 7.28867 96.0387 6.22533 96.0387 5.046C96.0387 3.44133 96.4447 2.204 97.2567 1.334C98.0687 0.444667 99.248 0 100.795 0C102.322 0 103.472 0.444667 104.246 1.334C105.038 2.204 105.435 3.46067 105.435 5.104V5.945H102.419V4.901C102.419 4.205 102.283 3.70233 102.013 3.393C101.742 3.06433 101.346 2.9 100.824 2.9C99.7604 2.9 99.2287 3.54767 99.2287 4.843C99.2287 5.57767 99.422 6.264 99.8087 6.902C100.215 7.54 100.94 8.31333 101.984 9.222C103.318 10.382 104.236 11.4357 104.739 12.383C105.241 13.3303 105.493 14.442 105.493 15.718C105.493 17.3807 105.077 18.6567 104.246 19.546C103.434 20.4353 102.245 20.88 100.679 20.88Z" fill="#5988FF"/>
</svg>
