<svg width="712" height="710" viewBox="0 0 712 710" fill="none" xmlns="http://www.w3.org/2000/svg">
<path d="M308.491 696.348C308.438 697.639 308.797 698.696 309.568 699.516C310.327 700.335 311.571 700.85 313.3 701.06C314.402 701.194 315.322 701.169 316.06 700.986C316.783 700.814 317.338 700.525 317.726 700.117C318.114 699.71 318.349 699.219 318.432 698.645C318.515 698.175 318.484 697.736 318.339 697.329C318.179 696.933 317.9 696.555 317.501 696.195C317.102 695.848 316.577 695.512 315.927 695.186C315.278 694.861 314.497 694.545 313.585 694.24L310.44 693.157C308.318 692.432 306.528 691.598 305.069 690.654C303.611 689.711 302.45 688.668 301.588 687.525C300.725 686.394 300.14 685.168 299.833 683.845C299.513 682.521 299.438 681.11 299.607 679.611C299.935 677.029 300.848 674.919 302.348 673.284C303.847 671.648 305.846 670.508 308.343 669.864C310.827 669.218 313.735 669.097 317.067 669.501C320.488 669.917 323.412 670.785 325.839 672.105C328.253 673.424 330.037 675.218 331.19 677.487C332.33 679.768 332.706 682.553 332.318 685.842L322.17 684.61C322.252 683.4 322.074 682.352 321.636 681.468C321.197 680.584 320.517 679.872 319.595 679.331C318.659 678.789 317.513 678.436 316.154 678.271C315.014 678.133 314.042 678.157 313.239 678.345C312.436 678.534 311.805 678.853 311.347 679.304C310.889 679.754 310.615 680.299 310.524 680.937C310.464 681.54 310.599 682.089 310.928 682.583C311.244 683.089 311.809 683.573 312.624 684.035C313.437 684.51 314.555 684.997 315.977 685.494L319.795 686.814C323.188 687.992 325.783 689.586 327.58 691.596C329.362 693.617 330.06 696.162 329.673 699.231C329.382 701.728 328.45 703.828 326.877 705.533C325.29 707.248 323.234 708.485 320.71 709.243C318.174 710 315.348 710.189 312.235 709.811C309.057 709.425 306.373 708.561 304.183 707.217C301.993 705.874 300.388 704.16 299.367 702.075C298.333 700.002 297.965 697.679 298.266 695.106L308.491 696.348Z" fill="#5988FF"/>
<path d="M257.912 698.36L247.507 695.601L254.027 671.087C254.802 668.173 256.171 665.835 258.135 664.076C260.083 662.325 262.453 661.2 265.243 660.7C268.031 660.212 271.065 660.403 274.346 661.273C277.652 662.15 280.394 663.49 282.572 665.295C284.747 667.111 286.245 669.262 287.066 671.747C287.872 674.241 287.887 676.945 287.112 679.86L280.592 704.374L270.188 701.615L276.469 677.998C276.784 676.814 276.803 675.686 276.528 674.613C276.249 673.552 275.718 672.638 274.933 671.87C274.137 671.099 273.146 670.556 271.961 670.242C270.763 669.924 269.633 669.905 268.571 670.183C267.509 670.462 266.593 670.992 265.824 671.775C265.051 672.57 264.508 673.56 264.193 674.743L257.912 698.36Z" fill="#5988FF"/>
<path d="M247.171 653.667L231.798 690.163L216.021 683.538C213.308 682.399 211.159 680.868 209.575 678.944C207.991 677.021 207.041 674.853 206.726 672.442C206.412 670.031 206.8 667.531 207.891 664.941C208.991 662.327 210.528 660.309 212.499 658.886C214.459 657.457 216.704 656.666 219.233 656.512C221.751 656.353 224.402 656.858 227.186 658.027L236.61 661.984L233.367 669.682L225.943 666.565C224.777 666.075 223.698 665.86 222.707 665.919C221.699 665.985 220.814 666.306 220.054 666.881C219.282 667.452 218.678 668.254 218.242 669.287C217.802 670.333 217.653 671.319 217.795 672.245C217.92 673.179 218.316 674.016 218.984 674.758C219.635 675.507 220.543 676.126 221.709 676.615L225.207 678.084L237.247 649.501L247.171 653.667Z" fill="#5988FF"/>
<path d="M208.146 636.483L188.017 670.594L173.27 661.919C170.734 660.427 168.811 658.622 167.499 656.504C166.187 654.386 165.536 652.111 165.548 649.68C165.56 647.248 166.28 644.822 167.708 642.402C169.15 639.959 170.943 638.164 173.088 637.018C175.221 635.865 177.552 635.381 180.079 635.566C182.596 635.745 185.155 636.6 187.757 638.131L196.565 643.312L192.319 650.508L185.38 646.425C184.29 645.784 183.25 645.427 182.26 645.353C181.252 645.283 180.332 645.483 179.502 645.952C178.66 646.414 177.954 647.128 177.384 648.094C176.807 649.071 176.527 650.028 176.543 650.965C176.542 651.907 176.822 652.79 177.384 653.614C177.929 654.443 178.746 655.178 179.836 655.819L183.106 657.743L198.871 631.027L208.146 636.483Z" fill="#5988FF"/>
<path d="M171.805 614.101L147.543 645.418L139.028 638.841L157.982 614.375L145.302 604.582L150.609 597.731L171.805 614.101Z" fill="#5988FF"/>
<path d="M142.677 590.86L114.786 619.003L94.4719 598.933L100.573 592.776L113.235 605.286L118.029 600.449L106.413 588.973L112.514 582.816L124.13 594.293L128.924 589.456L116.317 577L122.418 570.844L142.677 590.86Z" fill="#5988FF"/>
<path d="M70.3878 571.116L63.0131 559.947L76.692 539.921L76.4363 539.534L52.6117 544.194L45.237 533.025L78.3435 511.233L84.141 520.013L65.0013 532.612L65.1718 532.87L88.9125 527.802L92.408 533.096L78.2573 552.969L78.4278 553.227L97.6968 540.544L103.494 549.324L70.3878 571.116Z" fill="#5988FF"/>
<path d="M68.7903 491.381L73.4736 501.996L31.9084 505.997L25.9763 492.551L56.9886 464.631L61.6719 475.246L38.8735 494.737L38.9984 495.02L68.7903 491.381ZM55.3475 499.659L46.5431 479.703L53.9142 476.461L62.7187 496.418L55.3475 499.659Z" fill="#5988FF"/>
<path d="M53.9868 455.262L15.7709 465.826L11.2039 449.356C10.4187 446.524 10.2914 443.892 10.822 441.458C11.3527 439.025 12.4683 436.938 14.1688 435.197C15.8694 433.457 18.0756 432.212 20.7876 431.462C23.5244 430.706 26.063 430.659 28.4034 431.323C30.7403 431.974 32.753 433.243 34.4414 435.13C36.1265 437.004 37.3719 439.395 38.1779 442.301L40.9056 452.138L32.8445 454.367L30.6953 446.616C30.3578 445.399 29.8587 444.42 29.1981 443.68C28.5216 442.931 27.7216 442.437 26.798 442.197C25.8709 441.945 24.8663 441.969 23.784 442.268C22.6892 442.571 21.8217 443.065 21.1813 443.75C20.525 444.426 20.1121 445.256 19.9427 446.239C19.7574 447.213 19.8335 448.308 20.171 449.525L21.1836 453.177L51.1144 444.903L53.9868 455.262Z" fill="#5988FF"/>
<path d="M13.4136 396.569C12.1487 396.845 11.2166 397.46 10.6175 398.413C10.0166 399.354 9.83404 400.686 10.0699 402.41C10.2201 403.508 10.4776 404.39 10.8422 405.056C11.1923 405.71 11.6139 406.173 12.107 406.444C12.6 406.715 13.1352 406.818 13.7124 406.752C14.1891 406.713 14.6062 406.572 14.9637 406.328C15.3066 406.073 15.6019 405.707 15.8494 405.231C16.0842 404.757 16.2768 404.165 16.4272 403.455C16.5776 402.745 16.6849 401.911 16.7493 400.953L16.9997 397.641C17.1631 395.407 17.5164 393.466 18.0596 391.818C18.6028 390.17 19.3187 388.785 20.2073 387.662C21.0832 386.541 22.1227 385.664 23.326 385.032C24.5275 384.387 25.8755 383.956 27.3701 383.739C29.9553 383.399 32.2305 383.746 34.1957 384.779C36.1609 385.811 37.7728 387.452 39.0313 389.699C40.2881 391.934 41.1436 394.712 41.5978 398.032C42.0642 401.442 41.9661 404.486 41.3034 407.165C40.6389 409.831 39.354 412.009 37.4488 413.7C35.5289 415.38 32.9265 416.45 29.6414 416.911L28.2578 406.797C29.4513 406.57 30.4206 406.132 31.1657 405.484C31.9109 404.836 32.4281 403.998 32.7173 402.97C33.0049 401.929 33.0561 400.732 32.8709 399.378C32.7154 398.242 32.4446 397.31 32.0584 396.582C31.6722 395.854 31.2027 395.326 30.6497 394.999C30.0968 394.671 29.4997 394.544 28.8585 394.618C28.2592 394.713 27.7619 394.983 27.3667 395.427C26.9569 395.86 26.6315 396.529 26.3904 397.433C26.1366 398.339 25.9494 399.542 25.8288 401.041L25.5193 405.064C25.2399 408.64 24.3548 411.551 22.8642 413.796C21.359 416.031 19.0708 417.351 15.9996 417.757C13.5074 418.11 11.236 417.743 9.18537 416.657C7.12017 415.56 5.39987 413.889 4.02447 411.644C2.64732 409.386 1.7465 406.706 1.322 403.603C0.888758 400.436 1.0448 397.625 1.79012 395.169C2.53543 392.713 3.78809 390.727 5.54807 389.212C7.29352 387.687 9.4507 386.742 12.0196 386.379L13.4136 396.569Z" fill="#5988FF"/>
<path d="M13.5847 312.99C12.2903 312.954 11.2372 313.326 10.4256 314.107C9.61532 314.875 9.11649 316.124 8.92911 317.854C8.80974 318.956 8.84663 319.874 9.03979 320.608C9.2215 321.327 9.51889 321.878 9.93197 322.26C10.345 322.641 10.8396 322.87 11.4157 322.945C11.8878 323.022 12.3267 322.985 12.7325 322.834C13.1269 322.67 13.5017 322.386 13.8569 321.984C14.1992 321.58 14.5291 321.052 14.8465 320.399C15.1639 319.746 15.4695 318.962 15.7633 318.048L16.8061 314.894C17.5041 312.765 18.3156 310.967 19.2407 309.498C20.1658 308.029 21.1952 306.857 22.3287 305.982C23.4494 305.104 24.67 304.504 25.9904 304.18C27.3123 303.843 28.7246 303.749 30.2275 303.898C32.8184 304.191 34.9428 305.075 36.6007 306.551C38.2585 308.026 39.4268 310.006 40.1054 312.49C40.7854 314.962 40.945 317.863 40.5841 321.195C40.2135 324.616 39.3832 327.547 38.0932 329.987C36.8045 332.415 35.0315 334.22 32.7742 335.402C30.5054 336.57 27.7213 336.982 24.4218 336.639L25.5211 326.491C26.7343 326.557 27.7808 326.365 28.6604 325.916C29.54 325.466 30.2443 324.777 30.7733 323.849C31.3037 322.908 31.6424 321.759 31.7896 320.401C31.9131 319.26 31.8753 318.29 31.6763 317.491C31.4772 316.692 31.149 316.067 30.6915 315.615C30.2341 315.164 29.6852 314.897 29.0449 314.815C28.4404 314.763 27.8927 314.905 27.4019 315.241C26.8996 315.562 26.4223 316.133 25.97 316.953C25.5049 317.771 25.0327 318.893 24.5537 320.319L23.282 324.149C22.1472 327.552 20.5854 330.164 18.5965 331.984C16.5962 333.791 14.0567 334.521 10.9781 334.176C8.47428 333.918 6.3584 333.016 4.63049 331.468C2.89114 329.906 1.62508 327.87 0.83232 325.36C0.0409455 322.838 -0.186096 320.02 0.151194 316.906C0.495424 313.729 1.32573 311.038 2.64212 308.833C3.95851 306.629 5.65363 305.004 7.72747 303.958C9.78987 302.897 12.1115 302.499 14.6924 302.765L13.5847 312.99Z" fill="#5988FF"/>
<path d="M10.8976 262.521L13.5221 252.096L38.1587 258.28C41.088 259.015 43.4468 260.351 45.235 262.289C47.0139 264.21 48.1723 266.561 48.7103 269.34C49.2357 272.117 49.0847 275.148 48.257 278.436C47.4231 281.748 46.1171 284.503 44.3392 286.702C42.5487 288.897 40.4147 290.421 37.9373 291.274C35.4504 292.112 32.7423 292.163 29.813 291.428L5.17644 285.244L7.80099 274.82L31.5362 280.777C32.7255 281.076 33.8556 281.08 34.9267 280.791C35.9852 280.498 36.8938 279.956 37.6525 279.163C38.4143 278.357 38.9447 277.361 39.2436 276.173C39.5457 274.974 39.5503 273.845 39.2574 272.788C38.9645 271.731 38.421 270.824 37.6268 270.067C36.8201 269.306 35.8221 268.776 34.6328 268.478L10.8976 262.521Z" fill="#5988FF"/>
<path d="M55.5126 251.203L18.7591 236.341L25.1843 220.501C26.2891 217.778 27.7942 215.612 29.6995 214.005C31.6049 212.398 33.7628 211.421 36.1733 211.075C38.5837 210.729 41.093 211.083 43.7012 212.138C46.3333 213.202 48.375 214.709 49.8264 216.659C51.2826 218.596 52.1047 220.827 52.2927 223.35C52.4856 225.861 52.0152 228.515 50.8813 231.31L47.0436 240.771L39.2909 237.636L42.3145 230.182C42.7894 229.011 42.9906 227.931 42.9182 226.943C42.8386 225.937 42.5056 225.058 41.9192 224.307C41.3377 223.543 40.5264 222.951 39.4856 222.53C38.4327 222.104 37.4434 221.969 36.5175 222.123C35.5844 222.26 34.7509 222.667 34.0169 223.343C33.2758 224.003 32.6678 224.918 32.1929 226.089L30.7683 229.601L59.5538 241.241L55.5126 251.203Z" fill="#5988FF"/>
<path d="M72.2044 212.015L37.7757 192.372L46.2679 177.534C47.7281 174.983 49.5101 173.038 51.6139 171.7C53.7176 170.362 55.9871 169.683 58.4223 169.662C60.8575 169.641 63.2967 170.328 65.7399 171.722C68.2055 173.129 70.0267 174.895 71.2034 177.021C72.3865 179.136 72.9021 181.456 72.7499 183.982C72.6042 186.497 71.782 189.063 70.2834 191.682L65.2112 200.544L57.9489 196.4L61.9452 189.418C62.5728 188.321 62.917 187.278 62.9779 186.289C63.0339 185.282 62.8218 184.366 62.3415 183.543C61.8676 182.709 61.1432 182.013 60.1681 181.457C59.1819 180.894 58.2197 180.627 57.2814 180.656C56.3384 180.667 55.4578 180.959 54.6397 181.531C53.8168 182.086 53.0915 182.912 52.4639 184.008L50.581 187.298L77.5456 202.683L72.2044 212.015Z" fill="#5988FF"/>
<path d="M94.1367 175.436L62.4521 151.63L68.925 143.042L93.6787 161.64L103.318 148.85L110.249 154.058L94.1367 175.436Z" fill="#5988FF"/>
<path d="M117.025 146.047L88.4703 118.575L108.3 98.0276L114.546 104.037L102.186 116.844L107.094 121.566L118.433 109.817L124.679 115.826L113.34 127.575L118.248 132.297L130.555 119.546L136.801 125.555L117.025 146.047Z" fill="#5988FF"/>
<path d="M135.837 73.6148L146.925 66.1039L167.162 79.4944L167.546 79.2339L162.563 55.5104L173.65 47.9994L195.914 80.7622L187.197 86.6668L174.326 67.7258L174.07 67.8995L179.461 91.5339L174.206 95.094L154.115 81.2304L153.859 81.4041L166.817 100.473L158.101 106.378L135.837 73.6148Z" fill="#5988FF"/>
<path d="M215.668 70.9603L205.1 75.7768L200.541 34.333L213.927 28.2321L242.3 58.8227L231.732 63.6392L211.91 41.1371L211.628 41.2656L215.668 70.9603ZM207.199 57.6495L227.068 48.5944L230.412 55.9104L210.544 64.9655L207.199 57.6495Z" fill="#5988FF"/>
<path d="M251.644 55.7012L240.557 17.6882L256.99 12.91C259.816 12.0884 262.451 11.9264 264.895 12.4239C267.339 12.9213 269.444 14.0074 271.209 15.682C272.975 17.3566 274.251 19.5427 275.038 22.2403C275.832 24.9625 275.912 27.4964 275.279 29.8417C274.658 32.1835 273.413 34.2097 271.546 35.9205C269.691 37.6276 267.314 38.9028 264.414 39.746L254.599 42.5999L252.26 34.5816L259.993 32.333C261.208 31.9799 262.181 31.4686 262.914 30.7993C263.655 30.1139 264.139 29.3086 264.367 28.3834C264.607 27.4545 264.57 26.4518 264.256 25.3753C263.938 24.2864 263.432 23.4268 262.737 22.7965C262.051 22.1503 261.215 21.7491 260.229 21.593C259.251 21.4209 258.154 21.5115 256.94 21.8646L253.296 22.924L261.98 52.6959L251.644 55.7012Z" fill="#5988FF"/>
<path d="M309.884 14.416C309.591 13.1568 308.962 12.2344 308 11.6489C307.05 11.0615 305.713 10.897 303.99 11.1553C302.892 11.3199 302.013 11.5886 301.351 11.9615C300.7 12.3197 300.242 12.7468 299.977 13.2426C299.712 13.7385 299.617 14.2741 299.69 14.8495C299.736 15.3249 299.883 15.7395 300.132 16.0931C300.391 16.4321 300.761 16.722 301.241 16.9628C301.72 17.1909 302.315 17.3753 303.028 17.516C303.741 17.6568 304.578 17.7529 305.538 17.8044L308.859 18.0104C311.098 18.1439 313.046 18.4708 314.704 18.9912C316.361 19.5116 317.758 20.208 318.894 21.0802C320.029 21.9398 320.921 22.966 321.57 24.1588C322.232 25.3498 322.681 26.6899 322.918 28.1792C323.293 30.7556 322.976 33.0317 321.968 35.0074C320.96 36.9831 319.338 38.6141 317.104 39.9004C314.882 41.1848 312.112 42.0758 308.793 42.5734C305.385 43.0843 302.335 43.0268 299.643 42.4007C296.964 41.7727 294.766 40.5189 293.047 38.6392C291.34 36.7448 290.233 34.1609 289.728 30.8873L299.838 29.3717C300.082 30.5601 300.533 31.522 301.192 32.2574C301.851 32.9927 302.697 33.4979 303.73 33.7731C304.776 34.0463 305.976 34.0815 307.329 33.8786C308.465 33.7083 309.395 33.4256 310.119 33.0303C310.843 32.6351 311.365 32.1593 311.686 31.603C312.007 31.0466 312.126 30.4488 312.043 29.8096C311.94 29.2125 311.663 28.7196 311.213 28.3309C310.774 27.9276 310.1 27.6116 309.191 27.383C308.28 27.1416 307.073 26.9707 305.57 26.8702L301.538 26.6146C297.953 26.3831 295.026 25.5382 292.757 24.0798C290.499 22.6068 289.147 20.3399 288.7 17.2791C288.313 14.7957 288.65 12.5232 289.711 10.4615C290.782 8.38507 292.433 6.6454 294.662 5.24245C296.905 3.83758 299.577 2.90263 302.679 2.43761C305.845 1.96303 308.663 2.08147 311.132 2.79295C313.602 3.50442 315.607 4.72865 317.147 6.46563C318.698 8.18795 319.673 10.329 320.071 12.8889L309.884 14.416Z" fill="#5988FF"/>
<path d="M393.587 13.4764C393.606 12.1837 393.219 11.1373 392.426 10.3373C391.646 9.53859 390.389 9.05717 388.654 8.89307C387.549 8.78853 386.63 8.83755 385.898 9.04014C385.18 9.23111 384.632 9.53533 384.255 9.95279C383.879 10.3703 383.656 10.8671 383.589 11.4432C383.518 11.9155 383.561 12.3533 383.717 12.7564C383.887 13.1479 384.176 13.5183 384.584 13.8676C384.993 14.204 385.526 14.5264 386.184 14.8346C386.842 15.1428 387.631 15.4375 388.551 15.7187L391.723 16.7178C393.864 17.3864 395.676 18.1727 397.159 19.0768C398.642 19.9809 399.83 20.9929 400.722 22.113C401.615 23.2202 402.233 24.4308 402.575 25.7448C402.93 27.06 403.043 28.4688 402.913 29.9712C402.654 32.5617 401.797 34.6944 400.342 36.3691C398.886 38.0438 396.919 39.2364 394.44 39.947C391.974 40.6587 389.07 40.8566 385.729 40.5405C382.298 40.216 379.352 39.4259 376.891 38.1704C374.442 36.9161 372.611 35.17 371.397 32.9321C370.198 30.6826 369.748 27.9084 370.048 24.6098L380.225 25.5725C380.175 26.7847 380.381 27.8268 380.843 28.699C381.305 29.5713 382.004 30.2653 382.94 30.7811C383.89 31.2981 385.045 31.621 386.407 31.7498C387.551 31.858 388.522 31.8074 389.32 31.5981C390.117 31.3888 390.739 31.0527 391.185 30.59C391.631 30.1273 391.891 29.5758 391.965 28.9355C392.009 28.3313 391.86 27.7864 391.517 27.3008C391.188 26.8037 390.61 26.3347 389.783 25.894C388.957 25.4405 387.827 24.9841 386.393 24.5247L382.541 23.306C379.117 22.2183 376.481 20.6938 374.631 18.7323C372.796 16.7592 372.031 14.2336 372.336 11.1555C372.56 8.65234 373.436 6.52794 374.963 4.78231C376.504 3.02507 378.526 1.73405 381.029 0.909255C383.545 0.0856764 386.364 -0.178421 389.487 0.116963C392.674 0.418425 395.38 1.21163 397.604 2.49659C399.829 3.78155 401.48 5.45229 402.555 7.50884C403.645 9.55376 404.074 11.8663 403.842 14.4465L393.587 13.4764Z" fill="#5988FF"/>
<path d="M444.096 10.1233L454.57 12.6051L448.705 37.2833C448.007 40.2176 446.701 42.5903 444.784 44.4013C442.884 46.2028 440.545 47.3905 437.768 47.9645C434.995 48.526 431.957 48.4154 428.654 47.6328C425.325 46.8442 422.549 45.577 420.324 43.8312C418.102 42.0728 416.547 39.9626 415.659 37.5005C414.787 35.0288 414.7 32.3259 415.398 29.3916L421.263 4.71331L431.738 7.19511L426.087 30.9705C425.804 32.1618 425.814 33.2902 426.118 34.3556C426.425 35.4085 426.98 36.3084 427.785 37.0553C428.601 37.8052 429.606 38.3215 430.799 38.6042C432.005 38.8898 433.135 38.8794 434.19 38.573C435.244 38.2665 436.146 37.7118 436.894 36.9088C437.645 36.0933 438.162 35.0899 438.445 33.8987L444.096 10.1233Z" fill="#5988FF"/>
<path d="M456.022 54.5147L470.418 17.6241L486.366 23.8284C489.109 24.8952 491.297 26.369 492.932 28.2499C494.567 30.1308 495.574 32.2722 495.953 34.6741C496.331 37.076 496.01 39.5859 494.988 42.2038C493.957 44.8457 492.475 46.9041 490.542 48.379C488.621 49.8585 486.398 50.7089 483.874 50.9302C481.361 51.1561 478.698 50.7216 475.883 49.6268L466.358 45.921L469.394 38.1394L476.899 41.0591C478.078 41.5176 479.162 41.7042 480.151 41.6187C481.157 41.5259 482.033 41.1818 482.778 40.5864C483.535 39.9956 484.117 39.1779 484.525 38.1331C484.937 37.0764 485.06 36.0868 484.893 35.1645C484.744 34.2348 484.325 33.4081 483.638 32.6843C482.967 31.9531 482.043 31.3583 480.864 30.8997L477.328 29.5241L466.053 58.417L456.022 54.5147Z" fill="#5988FF"/>
<path d="M495.489 70.6582L514.704 36.0252L529.677 44.3063C532.251 45.7302 534.222 47.4835 535.59 49.566C536.958 51.6486 537.669 53.9053 537.722 56.3363C537.775 58.7672 537.12 61.2115 535.756 63.6692C534.38 66.1494 532.635 67.9911 530.522 69.1941C528.419 70.4034 526.102 70.9489 523.571 70.8305C521.051 70.7184 518.47 69.9317 515.827 68.4703L506.885 63.5241L510.938 56.2187L517.984 60.1157C519.09 60.7278 520.139 61.0576 521.131 61.1052C522.14 61.1478 523.054 60.9238 523.872 60.4334C524.702 59.9492 525.388 59.2167 525.933 58.2358C526.483 57.2438 526.738 56.2796 526.696 55.3433C526.673 54.4019 526.369 53.5267 525.785 52.7175C525.218 51.9033 524.382 51.1901 523.275 50.5781L519.956 48.742L504.906 75.8667L495.489 70.6582Z" fill="#5988FF"/>
<path d="M532.413 92.0687L555.833 60.1199L564.52 66.4682L546.223 91.4282L559.16 100.882L554.037 107.871L532.413 92.0687Z" fill="#5988FF"/>
<path d="M562.15 114.529L589.283 85.6569L610.123 105.181L604.188 111.497L591.198 99.3274L586.534 104.29L598.452 115.454L592.516 121.77L580.599 110.606L575.936 115.568L588.87 127.685L582.934 134.001L562.15 114.529Z" fill="#5988FF"/>
<path d="M634.938 132.35L642.607 143.319L629.465 163.701L629.731 164.081L653.423 158.791L661.093 169.76L628.578 192.422L622.549 183.799L641.346 170.697L641.169 170.444L617.572 176.14L613.936 170.94L627.554 150.699L627.376 150.445L608.451 163.635L602.422 155.012L634.938 132.35Z" fill="#5988FF"/>
<path d="M638.656 212.014L633.692 201.527L675.136 196.425L681.424 209.708L651.165 238.441L646.201 227.954L668.473 207.865L668.341 207.586L638.656 212.014ZM651.874 203.382L661.206 223.097L653.924 226.534L644.592 206.818L651.874 203.382Z" fill="#5988FF"/>
<path d="M654.416 247.727L692.338 236.153L697.341 252.496C698.201 255.307 698.399 257.935 697.933 260.382C697.467 262.828 696.407 264.944 694.754 266.729C693.1 268.514 690.928 269.817 688.237 270.639C685.521 271.467 682.985 271.581 680.627 270.98C678.274 270.391 676.228 269.176 674.49 267.334C672.756 265.505 671.447 263.149 670.564 260.264L667.576 250.503L675.575 248.062L677.929 255.753C678.299 256.96 678.824 257.925 679.504 258.648C680.2 259.379 681.013 259.852 681.943 260.067C682.876 260.294 683.88 260.243 684.954 259.916C686.04 259.584 686.894 259.067 687.516 258.366C688.154 257.672 688.545 256.832 688.688 255.845C688.848 254.866 688.742 253.773 688.373 252.565L687.263 248.942L657.563 258.006L654.416 247.727Z" fill="#5988FF"/>
<path d="M696.535 305.324C697.792 305.014 698.708 304.375 699.281 303.406C699.857 302.45 700.004 301.113 699.723 299.396C699.543 298.303 699.262 297.428 698.88 296.772C698.513 296.127 698.079 295.675 697.579 295.418C697.079 295.16 696.541 295.071 695.966 295.152C695.49 295.204 695.077 295.356 694.726 295.61C694.39 295.874 694.105 296.247 693.87 296.729C693.648 297.21 693.471 297.807 693.34 298.52C693.208 299.234 693.123 300.071 693.084 301.03L692.922 304.348C692.818 306.585 692.517 308.534 692.017 310.196C691.518 311.858 690.839 313.262 689.981 314.408C689.135 315.552 688.119 316.456 686.933 317.12C685.75 317.797 684.413 318.263 682.925 318.52C680.35 318.928 678.066 318.641 676.074 317.661C674.082 316.681 672.427 315.084 671.109 312.87C669.794 310.669 668.865 307.916 668.322 304.609C667.765 301.213 667.782 298.167 668.374 295.472C668.967 292.789 670.193 290.577 672.053 288.836C673.927 287.106 676.501 285.968 679.772 285.42L681.424 295.493C680.237 295.752 679.28 296.215 678.552 296.883C677.825 297.55 677.33 298.402 677.068 299.437C676.808 300.485 676.789 301.683 677.01 303.032C677.196 304.163 677.491 305.088 677.897 305.805C678.302 306.523 678.786 307.038 679.347 307.351C679.909 307.664 680.509 307.775 681.148 307.683C681.744 307.573 682.234 307.29 682.618 306.836C683.016 306.392 683.323 305.715 683.54 304.804C683.77 303.892 683.925 302.685 684.006 301.183L684.208 297.153C684.392 293.571 685.199 290.638 686.63 288.353C688.075 286.08 690.327 284.699 693.387 284.212C695.869 283.793 698.149 284.1 700.228 285.131C702.321 286.173 704.086 287.798 705.52 290.005C706.957 292.226 707.929 294.881 708.436 297.972C708.953 301.126 708.872 303.941 708.192 306.415C707.512 308.89 706.313 310.908 704.594 312.469C702.89 314.041 700.758 315.042 698.2 315.474L696.535 305.324Z" fill="#5988FF"/>
<path d="M698.588 388.878C699.883 388.879 700.926 388.479 701.717 387.677C702.506 386.888 702.972 385.626 703.113 383.892C703.203 382.787 703.141 381.871 702.929 381.142C702.728 380.428 702.416 379.885 701.993 379.514C701.57 379.144 701.07 378.929 700.492 378.869C700.018 378.804 699.58 378.853 699.178 379.014C698.788 379.189 698.421 379.483 698.077 379.895C697.745 380.307 697.43 380.844 697.13 381.505C696.83 382.166 696.545 382.958 696.276 383.88L695.317 387.06C694.676 389.206 693.913 391.026 693.027 392.518C692.141 394.011 691.144 395.21 690.034 396.116C688.937 397.022 687.733 397.655 686.421 398.014C685.109 398.386 683.699 398.517 682.193 398.408C679.595 398.184 677.448 397.356 675.752 395.925C674.055 394.494 672.835 392.546 672.09 390.081C671.345 387.628 671.108 384.732 671.38 381.392C671.66 377.962 672.412 375.01 673.636 372.537C674.86 370.076 676.584 368.225 678.809 366.983C681.046 365.755 683.818 365.269 687.126 365.525L686.297 375.699C685.082 375.665 684.041 375.884 683.174 376.357C682.307 376.829 681.621 377.536 681.117 378.478C680.612 379.433 680.304 380.591 680.193 381.953C680.099 383.096 680.163 384.064 680.383 384.858C680.604 385.652 680.948 386.268 681.418 386.707C681.887 387.146 682.443 387.398 683.085 387.463C683.691 387.499 684.234 387.343 684.716 386.994C685.21 386.659 685.671 386.076 686.102 385.245C686.545 384.415 686.987 383.28 687.428 381.842L688.598 377.98C689.641 374.548 691.133 371.895 693.073 370.023C695.024 368.164 697.544 367.367 700.63 367.63C703.14 367.821 705.279 368.668 707.048 370.169C708.828 371.684 710.148 373.686 711.007 376.174C711.865 378.674 712.167 381.485 711.913 384.607C711.653 387.792 710.895 390.504 709.637 392.743C708.38 394.981 706.729 396.651 704.684 397.752C702.65 398.867 700.34 399.326 697.753 399.128L698.588 388.878Z" fill="#5988FF"/>
<path d="M702.616 439.258L700.27 449.748L675.478 444.22C672.53 443.563 670.136 442.29 668.297 440.401C666.468 438.527 665.247 436.208 664.635 433.444C664.036 430.682 664.107 427.648 664.847 424.34C665.592 421.006 666.824 418.217 668.543 415.973C670.275 413.731 672.367 412.151 674.821 411.232C677.285 410.329 679.991 410.206 682.939 410.863L707.731 416.391L705.385 426.881L681.499 421.556C680.302 421.289 679.173 421.314 678.11 421.632C677.059 421.952 676.165 422.519 675.428 423.331C674.688 424.157 674.184 425.167 673.917 426.362C673.647 427.57 673.672 428.698 673.993 429.746C674.314 430.795 674.882 431.688 675.696 432.424C676.522 433.163 677.534 433.666 678.731 433.932L702.616 439.258Z" fill="#5988FF"/>
<path d="M658.319 451.754L695.454 465.637L689.453 481.641C688.421 484.393 686.974 486.598 685.112 488.255C683.25 489.912 681.119 490.946 678.719 491.356C676.318 491.766 673.8 491.478 671.165 490.493C668.506 489.499 666.424 488.047 664.922 486.136C663.415 484.238 662.533 482.03 662.278 479.513C662.019 477.007 662.418 474.342 663.477 471.518L667.062 461.959L674.895 464.887L672.071 472.419C671.628 473.602 671.455 474.686 671.554 475.673C671.66 476.676 672.016 477.545 672.623 478.281C673.224 479.029 674.051 479.599 675.103 479.993C676.166 480.39 677.159 480.5 678.081 480.321C679.01 480.16 679.832 479.731 680.548 479.035C681.271 478.356 681.854 477.425 682.298 476.242L683.629 472.693L654.544 461.821L658.319 451.754Z" fill="#5988FF"/>
<path d="M642.675 491.372L677.614 510.095L669.519 525.153C668.127 527.742 666.398 529.733 664.33 531.127C662.263 532.52 660.012 533.259 657.578 533.345C655.145 533.43 652.688 532.808 650.209 531.48C647.707 530.139 645.839 528.421 644.606 526.327C643.367 524.244 642.79 521.938 642.875 519.41C642.954 516.892 643.707 514.305 645.136 511.647L649.97 502.654L657.34 506.603L653.531 513.689C652.933 514.802 652.617 515.854 652.582 516.845C652.553 517.853 652.789 518.762 653.291 519.572C653.787 520.394 654.53 521.07 655.52 521.6C656.52 522.136 657.489 522.378 658.426 522.324C659.369 522.288 660.241 521.973 661.044 521.379C661.852 520.803 662.555 519.958 663.153 518.846L664.948 515.507L637.584 500.842L642.675 491.372Z" fill="#5988FF"/>
<path d="M621.723 528.519L654.03 551.477L647.788 560.234L622.548 542.298L613.252 555.34L606.185 550.318L621.723 528.519Z" fill="#5988FF"/>
<path d="M599.626 558.505L628.901 585.21L609.625 606.276L603.221 600.435L615.236 587.304L610.204 582.714L599.182 594.76L592.778 588.918L603.8 576.872L598.768 572.283L586.806 585.356L580.402 579.514L599.626 558.505Z" fill="#5988FF"/>
<path d="M582.746 631.411L571.862 639.213L551.276 626.364L550.899 626.635L556.511 650.218L545.628 658.02L522.5 625.859L531.056 619.726L544.427 638.319L544.679 638.138L538.661 614.655L543.82 610.957L564.272 624.283L564.523 624.102L551.062 605.384L559.618 599.25L582.746 631.411Z" fill="#5988FF"/>
<path d="M503.014 636.181L513.45 631.086L519.11 672.394L505.891 678.848L476.714 649.021L487.15 643.926L507.564 665.894L507.843 665.758L503.014 636.181ZM511.834 649.263L492.213 658.842L488.675 651.617L508.296 642.038L511.834 649.263Z" fill="#5988FF"/>
<path d="M467.457 652.389L479.552 690.095L463.251 695.307C460.448 696.203 457.819 696.435 455.362 696.003C452.906 695.57 450.773 694.54 448.963 692.913C447.154 691.286 445.82 689.134 444.962 686.459C444.096 683.758 443.948 681.228 444.519 678.866C445.077 676.509 446.267 674.45 448.088 672.691C449.897 670.935 452.24 669.597 455.116 668.677L464.852 665.564L467.403 673.518L459.733 675.971C458.528 676.356 457.568 676.893 456.854 677.581C456.131 678.286 455.668 679.104 455.466 680.035C455.25 680.97 455.314 681.971 455.657 683.039C456.003 684.119 456.532 684.965 457.243 685.576C457.946 686.204 458.793 686.583 459.783 686.713C460.765 686.859 461.859 686.739 463.063 686.354L466.677 685.199L457.205 655.667L467.457 652.389Z" fill="#5988FF"/>
<path d="M410.336 695.204C410.663 696.455 411.316 697.36 412.293 697.92C413.259 698.482 414.599 698.611 416.315 698.307C417.408 698.114 418.28 697.822 418.932 697.431C419.573 697.056 420.019 696.617 420.271 696.114C420.522 695.612 420.604 695.074 420.515 694.5C420.457 694.026 420.299 693.616 420.041 693.269C419.772 692.937 419.394 692.657 418.908 692.429C418.424 692.214 417.824 692.045 417.107 691.923C416.391 691.801 415.552 691.728 414.59 691.702L411.266 691.584C409.024 691.51 407.068 691.234 405.397 690.758C403.726 690.282 402.311 689.623 401.152 688.781C399.995 687.952 399.076 686.95 398.395 685.774C397.702 684.602 397.217 683.274 396.94 681.791C396.498 679.226 396.754 676.942 397.709 674.94C398.664 672.939 400.242 671.265 402.441 669.92C404.628 668.577 407.373 667.613 410.678 667.028C414.071 666.426 417.122 666.403 419.829 666.958C422.524 667.514 424.755 668.709 426.523 670.543C428.28 672.391 429.455 674.945 430.047 678.204L419.981 679.987C419.706 678.806 419.229 677.856 418.551 677.138C417.873 676.421 417.013 675.938 415.973 675.691C414.92 675.445 413.72 675.442 412.373 675.68C411.241 675.881 410.319 676.188 409.606 676.602C408.894 677.017 408.384 677.506 408.078 678.071C407.772 678.636 407.669 679.236 407.769 679.873C407.888 680.467 408.177 680.953 408.637 681.329C409.087 681.721 409.769 682.019 410.684 682.223C411.601 682.44 412.812 682.579 414.317 682.64L418.355 682.788C421.945 682.925 424.894 683.692 427.2 685.089C429.496 686.502 430.909 688.732 431.437 691.78C431.89 694.252 431.613 696.533 430.608 698.622C429.592 700.726 427.988 702.509 425.797 703.971C423.592 705.435 420.946 706.44 417.857 706.987C414.705 707.545 411.885 707.502 409.398 706.856C406.91 706.21 404.873 705.04 403.287 703.344C401.691 701.664 400.66 699.549 400.194 697.001L410.336 695.204Z" fill="#5988FF"/>
</svg>
