<svg width="2192" height="2189" viewBox="0 0 2192 2189" fill="none" xmlns="http://www.w3.org/2000/svg">
<path d="M991.182 2175.49C991.167 2176.79 991.556 2177.83 992.35 2178.63C993.131 2179.43 994.388 2179.91 996.122 2180.07C997.226 2180.17 998.143 2180.12 998.874 2179.91C999.591 2179.72 1000.14 2179.41 1000.51 2178.99C1000.89 2178.58 1001.11 2178.08 1001.17 2177.5C1001.24 2177.03 1001.2 2176.59 1001.04 2176.19C1000.87 2175.8 1000.58 2175.43 1000.17 2175.08C999.764 2174.74 999.231 2174.42 998.573 2174.11C997.915 2173.81 997.126 2173.51 996.206 2173.23L993.035 2172.24C990.895 2171.58 989.083 2170.8 987.599 2169.9C986.115 2169 984.926 2167.99 984.032 2166.87C983.137 2165.76 982.517 2164.55 982.172 2163.24C981.814 2161.92 981.697 2160.51 981.823 2159.01C982.074 2156.41 982.925 2154.28 984.374 2152.6C985.824 2150.92 987.785 2149.72 990.26 2149C992.721 2148.28 995.621 2148.07 998.959 2148.38C1002.39 2148.7 1005.33 2149.48 1007.79 2150.73C1010.24 2151.98 1012.08 2153.72 1013.29 2155.96C1014.5 2158.21 1014.96 2160.98 1014.66 2164.29L1004.5 2163.35C1004.54 2162.14 1004.33 2161.09 1003.87 2160.22C1003.41 2159.35 1002.71 2158.66 1001.77 2158.14C1000.82 2157.63 999.666 2157.31 998.305 2157.18C997.162 2157.08 996.193 2157.13 995.396 2157.34C994.6 2157.55 993.98 2157.89 993.536 2158.36C993.092 2158.82 992.834 2159.37 992.762 2160.01C992.719 2160.62 992.869 2161.16 993.213 2161.65C993.543 2162.15 994.121 2162.61 994.949 2163.05C995.775 2163.5 996.905 2163.96 998.339 2164.41L1002.19 2165.62C1005.61 2166.7 1008.25 2168.22 1010.1 2170.18C1011.94 2172.15 1012.71 2174.68 1012.42 2177.76C1012.2 2180.27 1011.33 2182.39 1009.81 2184.15C1008.27 2185.91 1006.26 2187.21 1003.76 2188.04C1001.25 2188.87 998.433 2189.14 995.313 2188.85C992.129 2188.56 989.424 2187.77 987.199 2186.49C984.973 2185.21 983.32 2183.55 982.24 2181.49C981.146 2179.45 980.712 2177.13 980.937 2174.55L991.182 2175.49Z" fill="#5988FF"/>
<path d="M943.358 2182.28L932.701 2180.84L936.092 2155.68C936.495 2152.69 937.56 2150.19 939.285 2148.2C940.997 2146.22 943.204 2144.81 945.907 2143.96C948.608 2143.13 951.639 2142.94 954.999 2143.39C958.385 2143.85 961.271 2144.83 963.655 2146.35C966.037 2147.89 967.791 2149.83 968.917 2152.2C970.028 2154.58 970.381 2157.26 969.978 2160.25L966.587 2185.41L955.931 2183.97L959.198 2159.73C959.361 2158.52 959.239 2157.4 958.832 2156.36C958.423 2155.35 957.782 2154.5 956.908 2153.84C956.023 2153.17 954.973 2152.76 953.759 2152.59C952.532 2152.43 951.41 2152.55 950.392 2152.96C949.374 2153.37 948.533 2154.01 947.869 2154.89C947.203 2155.77 946.788 2156.82 946.624 2158.04L943.358 2182.28Z" fill="#5988FF"/>
<path d="M926.348 2139.72L919.402 2178.73L902.57 2175.73C899.676 2175.22 897.246 2174.19 895.279 2172.66C893.311 2171.13 891.909 2169.23 891.072 2166.94C890.235 2164.66 890.062 2162.13 890.555 2159.36C891.053 2156.57 892.106 2154.26 893.713 2152.44C895.309 2150.61 897.322 2149.34 899.753 2148.64C902.171 2147.93 904.865 2147.84 907.835 2148.37L917.888 2150.16L916.423 2158.39L908.502 2156.98C907.258 2156.76 906.16 2156.78 905.207 2157.06C904.24 2157.34 903.449 2157.85 902.834 2158.58C902.207 2159.31 901.795 2160.22 901.599 2161.33C901.4 2162.45 901.471 2163.44 901.813 2164.32C902.141 2165.2 902.711 2165.93 903.525 2166.51C904.324 2167.1 905.346 2167.5 906.589 2167.72L910.321 2168.39L915.762 2137.83L926.348 2139.72Z" fill="#5988FF"/>
<path d="M883.792 2131.89L875.255 2170.59L858.56 2166.9C855.689 2166.27 853.303 2165.15 851.4 2163.54C849.497 2161.93 848.174 2159.96 847.431 2157.65C846.688 2155.33 846.619 2152.8 847.225 2150.05C847.837 2147.28 848.983 2145.02 850.664 2143.26C852.333 2141.5 854.396 2140.32 856.854 2139.71C859.299 2139.1 861.994 2139.12 864.94 2139.78L874.912 2141.98L873.111 2150.14L865.255 2148.4C864.021 2148.13 862.922 2148.11 861.959 2148.35C860.981 2148.6 860.169 2149.07 859.526 2149.78C858.869 2150.48 858.42 2151.37 858.179 2152.47C857.934 2153.58 857.965 2154.58 858.271 2155.46C858.562 2156.36 859.102 2157.11 859.892 2157.72C860.666 2158.34 861.67 2158.79 862.904 2159.06L866.605 2159.88L873.291 2129.57L883.792 2131.89Z" fill="#5988FF"/>
<path d="M841.582 2122.29L831.566 2160.63L821.163 2157.91L828.987 2127.95L813.494 2123.9L815.685 2115.51L841.582 2122.29Z" fill="#5988FF"/>
<path d="M805.01 2112.53L793.579 2150.47L766.248 2142.23L768.748 2133.93L785.784 2139.06L787.749 2132.54L772.12 2127.83L774.621 2119.53L790.249 2124.24L792.214 2117.72L775.252 2112.6L777.753 2104.3L805.01 2112.53Z" fill="#5988FF"/>
<path d="M735.775 2132.28L723.232 2127.61L722.426 2103.36L721.99 2103.2L705.541 2121.03L692.997 2116.36L706.807 2079.21L716.667 2082.88L708.684 2104.36L708.974 2104.47L725.115 2086.36L731.061 2088.57L731.396 2112.98L731.686 2113.08L739.724 2091.47L749.585 2095.14L735.775 2132.28Z" fill="#5988FF"/>
<path d="M685.757 2070.39L696.411 2074.99L668.716 2106.2L655.22 2100.37L658.907 2058.8L669.562 2063.4L666.147 2093.2L666.431 2093.32L685.757 2070.39ZM681.555 2085.61L661.524 2076.96L664.712 2069.57L684.742 2078.21L681.555 2085.61Z" fill="#5988FF"/>
<path d="M649.378 2054.33L632.096 2089.98L616.713 2082.52C614.068 2081.24 612.007 2079.59 610.529 2077.58C609.052 2075.58 608.22 2073.36 608.035 2070.93C607.85 2068.51 608.371 2066.03 609.597 2063.5C610.835 2060.94 612.475 2059.01 614.517 2057.69C616.548 2056.37 618.83 2055.7 621.361 2055.68C623.88 2055.65 626.498 2056.3 629.212 2057.62L638.401 2062.07L634.755 2069.6L627.516 2066.08C626.379 2065.53 625.315 2065.26 624.323 2065.27C623.314 2065.28 622.415 2065.55 621.626 2066.09C620.825 2066.62 620.18 2067.38 619.69 2068.39C619.195 2069.42 618.994 2070.39 619.086 2071.33C619.16 2072.27 619.511 2073.13 620.138 2073.9C620.747 2074.69 621.62 2075.35 622.757 2075.9L626.168 2077.56L639.703 2049.63L649.378 2054.33Z" fill="#5988FF"/>
<path d="M578.86 2049.13C578.342 2050.32 578.292 2051.43 578.712 2052.48C579.12 2053.51 580.092 2054.45 581.625 2055.27C582.602 2055.79 583.467 2056.1 584.22 2056.2C584.956 2056.3 585.578 2056.23 586.086 2056C586.595 2055.76 586.992 2055.38 587.278 2054.88C587.526 2054.47 587.657 2054.05 587.669 2053.62C587.664 2053.19 587.542 2052.74 587.302 2052.26C587.056 2051.79 586.689 2051.28 586.203 2050.74C585.717 2050.2 585.105 2049.63 584.367 2049.01L581.833 2046.86C580.121 2045.41 578.757 2043.99 577.742 2042.58C576.727 2041.17 576.026 2039.78 575.639 2038.4C575.246 2037.03 575.147 2035.67 575.341 2034.33C575.524 2032.98 575.967 2031.63 576.669 2030.3C577.911 2028.01 579.527 2026.37 581.517 2025.39C583.506 2024.41 585.78 2024.07 588.338 2024.37C590.885 2024.67 593.636 2025.62 596.59 2027.2C599.623 2028.83 602.029 2030.7 603.809 2032.81C605.577 2034.92 606.586 2037.24 606.836 2039.77C607.068 2042.31 606.407 2045.05 604.851 2047.97L595.853 2043.14C596.37 2042.04 596.584 2041 596.497 2040.02C596.41 2039.04 596.035 2038.13 595.373 2037.29C594.7 2036.44 593.761 2035.7 592.556 2035.05C591.545 2034.51 590.632 2034.18 589.816 2034.06C589 2033.95 588.297 2034.01 587.707 2034.27C587.117 2034.52 586.664 2034.93 586.348 2035.49C586.073 2036.03 585.999 2036.59 586.127 2037.18C586.237 2037.76 586.587 2038.42 587.178 2039.15C587.762 2039.88 588.626 2040.74 589.768 2041.72L592.842 2044.34C595.573 2046.67 597.41 2049.1 598.352 2051.62C599.277 2054.15 599.002 2056.78 597.528 2059.5C596.351 2061.73 594.721 2063.35 592.638 2064.37C590.537 2065.39 588.175 2065.8 585.55 2065.59C582.915 2065.38 580.216 2064.53 577.456 2063.04C574.638 2061.53 572.454 2059.75 570.904 2057.7C569.353 2055.66 568.482 2053.48 568.289 2051.16C568.078 2048.85 568.58 2046.55 569.794 2044.26L578.86 2049.13Z" fill="#5988FF"/>
<path d="M509.658 2008.12C509.053 2009.27 508.921 2010.38 509.262 2011.45C509.593 2012.52 510.492 2013.52 511.961 2014.45C512.896 2015.05 513.736 2015.42 514.479 2015.57C515.205 2015.73 515.831 2015.71 516.356 2015.51C516.881 2015.31 517.304 2014.97 517.627 2014.48C517.905 2014.09 518.066 2013.68 518.11 2013.25C518.137 2012.83 518.049 2012.37 517.845 2011.87C517.634 2011.38 517.306 2010.85 516.861 2010.28C516.416 2009.71 515.849 2009.08 515.158 2008.42L512.791 2006.08C511.191 2004.51 509.937 2002.99 509.029 2001.51C508.122 2000.03 507.526 1998.59 507.242 1997.18C506.951 1995.79 506.953 1994.43 507.246 1993.1C507.529 1991.77 508.07 1990.46 508.869 1989.18C510.278 1986.99 512.011 1985.48 514.068 1984.65C516.125 1983.82 518.417 1983.65 520.946 1984.14C523.463 1984.63 526.136 1985.77 528.965 1987.57C531.869 1989.42 534.13 1991.47 535.748 1993.7C537.355 1995.93 538.189 1998.32 538.25 2000.87C538.294 2003.42 537.432 2006.1 535.664 2008.9L527.048 2003.42C527.645 2002.36 527.936 2001.34 527.922 2000.35C527.908 1999.36 527.602 1998.43 527.004 1997.54C526.395 1996.65 525.514 1995.83 524.361 1995.1C523.392 1994.48 522.506 1994.09 521.701 1993.91C520.896 1993.74 520.19 1993.75 519.583 1993.96C518.976 1994.17 518.494 1994.55 518.137 1995.08C517.822 1995.6 517.707 1996.15 517.791 1996.74C517.857 1997.34 518.158 1998.02 518.693 1998.79C519.221 1999.56 520.019 2000.49 521.086 2001.55L523.957 2004.38C526.508 2006.91 528.159 2009.47 528.912 2012.06C529.646 2014.65 529.178 2017.25 527.506 2019.85C526.167 2021.98 524.421 2023.48 522.268 2024.34C520.098 2025.21 517.712 2025.44 515.11 2025.04C512.497 2024.63 509.869 2023.58 507.226 2021.9C504.528 2020.18 502.482 2018.24 501.088 2016.09C499.694 2013.93 498.986 2011.69 498.965 2009.37C498.927 2007.05 499.598 2004.79 500.978 2002.6L509.658 2008.12Z" fill="#5988FF"/>
<path d="M464.027 1992.28L455.207 1986.12L469.721 1965.3C471.446 1962.82 473.532 1961.09 475.978 1960.11C478.405 1959.13 481.014 1958.88 483.805 1959.37C486.588 1959.86 489.37 1961.08 492.152 1963.02C494.954 1964.98 497.068 1967.18 498.494 1969.62C499.913 1972.07 500.583 1974.61 500.503 1977.22C500.405 1979.84 499.493 1982.39 497.767 1984.87L483.253 2005.69L474.433 1999.54L488.416 1979.48C489.117 1978.47 489.522 1977.42 489.631 1976.31C489.732 1975.22 489.547 1974.18 489.074 1973.19C488.59 1972.19 487.846 1971.34 486.842 1970.64C485.826 1969.93 484.772 1969.53 483.68 1969.43C482.588 1969.32 481.547 1969.51 480.557 1969.98C479.559 1970.47 478.71 1971.21 478.01 1972.22L464.027 1992.28Z" fill="#5988FF"/>
<path d="M468.349 1946.65L444.341 1978.17L430.743 1967.8C428.405 1966.02 426.711 1963.99 425.661 1961.73C424.61 1959.47 424.235 1957.13 424.535 1954.72C424.834 1952.3 425.836 1949.98 427.54 1947.74C429.259 1945.48 431.25 1943.91 433.514 1943.03C435.766 1942.13 438.135 1941.93 440.62 1942.41C443.095 1942.89 445.532 1944.04 447.931 1945.87L456.053 1952.06L450.989 1958.71L444.59 1953.83C443.585 1953.07 442.596 1952.59 441.622 1952.4C440.631 1952.21 439.696 1952.3 438.816 1952.67C437.926 1953.03 437.141 1953.65 436.461 1954.54C435.774 1955.45 435.382 1956.37 435.288 1957.3C435.175 1958.23 435.348 1959.15 435.808 1960.03C436.25 1960.92 436.973 1961.75 437.978 1962.51L440.993 1964.81L459.796 1940.13L468.349 1946.65Z" fill="#5988FF"/>
<path d="M434.078 1920.22L408.801 1950.73L395.639 1939.81C393.375 1937.93 391.765 1935.84 390.809 1933.54C389.852 1931.24 389.573 1928.89 389.971 1926.49C390.369 1924.09 391.465 1921.8 393.259 1919.64C395.069 1917.45 397.123 1915.96 399.421 1915.17C401.708 1914.37 404.083 1914.26 406.546 1914.85C408.999 1915.43 411.387 1916.68 413.71 1918.6L421.571 1925.12L416.239 1931.56L410.045 1926.42C409.073 1925.62 408.104 1925.1 407.139 1924.87C406.156 1924.64 405.218 1924.69 404.324 1925.02C403.42 1925.34 402.61 1925.94 401.895 1926.8C401.17 1927.67 400.742 1928.58 400.609 1929.5C400.458 1930.43 400.594 1931.35 401.017 1932.26C401.422 1933.16 402.111 1934.02 403.084 1934.82L406.002 1937.25L425.8 1913.35L434.078 1920.22Z" fill="#5988FF"/>
<path d="M400.931 1892.36L374.501 1921.88L366.492 1914.7L387.14 1891.64L375.214 1880.95L380.995 1874.49L400.931 1892.36Z" fill="#5988FF"/>
<path d="M372.865 1866.95L345.359 1895.46L324.82 1875.63L330.837 1869.39L343.639 1881.76L348.367 1876.85L336.622 1865.51L342.639 1859.28L354.384 1870.62L359.111 1865.72L346.365 1853.41L352.382 1847.17L372.865 1866.95Z" fill="#5988FF"/>
<path d="M302.265 1852.84L293.244 1842.95L303.609 1821.02L303.296 1820.68L280.519 1829L271.498 1819.11L300.754 1792.4L307.846 1800.17L290.932 1815.62L291.141 1815.85L313.771 1807.13L318.047 1811.82L307.192 1833.67L307.401 1833.9L324.429 1818.35L331.521 1826.13L302.265 1852.84Z" fill="#5988FF"/>
<path d="M286.066 1774.92L293.439 1783.89L254.548 1798.97L245.209 1787.61L267.485 1752.33L274.859 1761.29L258.203 1786.23L258.399 1786.47L286.066 1774.92ZM275.376 1786.53L261.514 1769.68L267.727 1764.56L281.589 1781.41L275.376 1786.53Z" fill="#5988FF"/>
<path d="M261.056 1743.99L229.391 1767.8L219.121 1754.12C217.355 1751.77 216.273 1749.36 215.877 1746.9C215.48 1744.44 215.754 1742.09 216.698 1739.85C217.643 1737.6 219.238 1735.64 221.485 1733.95C223.753 1732.24 226.096 1731.27 228.515 1731.03C230.926 1730.79 233.261 1731.23 235.521 1732.38C237.773 1733.51 239.805 1735.28 241.618 1737.69L247.752 1745.86L241.072 1750.88L236.239 1744.45C235.48 1743.43 234.658 1742.71 233.774 1742.26C232.871 1741.81 231.946 1741.64 231 1741.75C230.046 1741.86 229.12 1742.25 228.224 1742.92C227.317 1743.6 226.691 1744.38 226.346 1745.25C225.983 1746.12 225.903 1747.05 226.105 1748.02C226.289 1749 226.76 1749.99 227.519 1751L229.796 1754.03L254.597 1735.39L261.056 1743.99Z" fill="#5988FF"/>
<path d="M200.716 1707.11C199.713 1707.92 199.16 1708.89 199.055 1710.01C198.944 1711.13 199.382 1712.4 200.369 1713.83C200.999 1714.75 201.626 1715.42 202.251 1715.85C202.859 1716.28 203.443 1716.5 204.005 1716.52C204.567 1716.54 205.09 1716.39 205.575 1716.07C205.983 1715.82 206.291 1715.51 206.5 1715.13C206.69 1714.75 206.789 1714.29 206.795 1713.75C206.79 1713.22 206.695 1712.6 206.509 1711.9C206.323 1711.2 206.042 1710.41 205.668 1709.52L204.397 1706.45C203.535 1704.38 202.975 1702.49 202.716 1700.77C202.457 1699.05 202.471 1697.49 202.757 1696.09C203.032 1694.69 203.564 1693.44 204.351 1692.33C205.131 1691.22 206.139 1690.22 207.374 1689.36C209.526 1687.89 211.71 1687.17 213.928 1687.21C216.146 1687.25 218.323 1687.99 220.459 1689.43C222.588 1690.86 224.603 1692.95 226.505 1695.72C228.459 1698.55 229.744 1701.32 230.361 1704.01C230.971 1706.69 230.808 1709.22 229.872 1711.58C228.918 1713.95 227.08 1716.08 224.359 1717.97L218.564 1709.56C219.526 1708.82 220.193 1707.99 220.565 1707.07C220.937 1706.16 221.02 1705.18 220.814 1704.13C220.601 1703.07 220.107 1701.98 219.332 1700.85C218.68 1699.91 218.019 1699.19 217.346 1698.72C216.673 1698.24 216.017 1697.98 215.376 1697.94C214.735 1697.89 214.146 1698.05 213.607 1698.41C213.116 1698.76 212.794 1699.23 212.642 1699.8C212.472 1700.37 212.483 1701.12 212.676 1702.03C212.859 1702.96 213.234 1704.12 213.803 1705.51L215.341 1709.24C216.705 1712.56 217.228 1715.56 216.912 1718.24C216.578 1720.92 215.133 1723.13 212.578 1724.87C210.515 1726.31 208.324 1727.01 206.006 1726.96C203.67 1726.91 201.382 1726.19 199.144 1724.81C196.898 1723.41 194.886 1721.42 193.108 1718.84C191.293 1716.21 190.165 1713.62 189.721 1711.09C189.278 1708.56 189.5 1706.22 190.386 1704.08C191.254 1701.93 192.751 1700.11 194.878 1698.63L200.716 1707.11Z" fill="#5988FF"/>
<path d="M157.913 1638.98C156.852 1639.72 156.228 1640.65 156.041 1641.76C155.848 1642.86 156.19 1644.16 157.069 1645.66C157.629 1646.62 158.204 1647.34 158.796 1647.81C159.37 1648.28 159.936 1648.55 160.495 1648.61C161.054 1648.67 161.587 1648.56 162.094 1648.28C162.519 1648.06 162.85 1647.77 163.086 1647.41C163.305 1647.04 163.437 1646.59 163.483 1646.06C163.517 1645.53 163.468 1644.91 163.334 1644.19C163.201 1643.48 162.98 1642.67 162.672 1641.76L161.633 1638.6C160.927 1636.47 160.508 1634.54 160.378 1632.81C160.247 1631.08 160.376 1629.52 160.765 1628.14C161.143 1626.77 161.766 1625.56 162.633 1624.52C163.494 1623.46 164.573 1622.55 165.868 1621.77C168.123 1620.47 170.355 1619.92 172.564 1620.12C174.773 1620.32 176.889 1621.22 178.912 1622.82C180.929 1624.4 182.783 1626.64 184.476 1629.54C186.213 1632.51 187.29 1635.36 187.706 1638.09C188.116 1640.81 187.766 1643.32 186.657 1645.61C185.53 1647.9 183.539 1649.88 180.686 1651.57L175.531 1642.75C176.544 1642.08 177.271 1641.31 177.709 1640.42C178.148 1639.54 178.304 1638.56 178.177 1637.5C178.043 1636.43 177.631 1635.3 176.941 1634.12C176.362 1633.13 175.754 1632.37 175.119 1631.85C174.484 1631.32 173.848 1631.02 173.212 1630.93C172.576 1630.83 171.977 1630.95 171.414 1631.26C170.897 1631.58 170.542 1632.02 170.348 1632.58C170.136 1633.14 170.092 1633.88 170.216 1634.81C170.33 1635.74 170.618 1636.93 171.082 1638.36L172.339 1642.2C173.453 1645.61 173.753 1648.64 173.239 1651.29C172.707 1653.93 171.103 1656.03 168.425 1657.58C166.261 1658.86 164.025 1659.39 161.717 1659.17C159.391 1658.95 157.163 1658.06 155.033 1656.51C152.897 1654.95 151.038 1652.82 149.456 1650.12C147.842 1647.35 146.908 1644.7 146.653 1642.14C146.399 1639.58 146.793 1637.27 147.836 1635.19C148.861 1633.11 150.489 1631.41 152.719 1630.09L157.913 1638.98Z" fill="#5988FF"/>
<path d="M124.573 1604.01L119.542 1594.5L141.967 1582.62C144.633 1581.21 147.278 1580.63 149.902 1580.87C152.509 1581.11 154.943 1582.08 157.203 1583.79C159.452 1585.51 161.37 1587.86 162.956 1590.86C164.555 1593.88 165.431 1596.8 165.583 1599.63C165.724 1602.46 165.16 1605.02 163.893 1607.31C162.608 1609.6 160.632 1611.45 157.966 1612.86L135.541 1624.74L130.51 1615.23L152.114 1603.78C153.197 1603.21 154.039 1602.46 154.64 1601.53C155.23 1600.6 155.541 1599.59 155.573 1598.49C155.599 1597.38 155.325 1596.29 154.752 1595.21C154.173 1594.11 153.421 1593.27 152.496 1592.68C151.571 1592.09 150.56 1591.78 149.463 1591.75C148.355 1591.72 147.26 1591.99 146.178 1592.57L124.573 1604.01Z" fill="#5988FF"/>
<path d="M149.271 1565.41L113.515 1582.45L106.16 1567.01C104.896 1564.36 104.313 1561.78 104.412 1559.29C104.511 1556.8 105.246 1554.55 106.616 1552.54C107.987 1550.53 109.94 1548.92 112.478 1547.71C115.038 1546.49 117.527 1546 119.945 1546.25C122.357 1546.49 124.557 1547.39 126.546 1548.95C128.529 1550.51 130.17 1552.65 131.468 1555.37L135.86 1564.6L128.318 1568.19L124.857 1560.93C124.314 1559.79 123.653 1558.91 122.874 1558.29C122.079 1557.67 121.206 1557.32 120.256 1557.25C119.3 1557.16 118.316 1557.36 117.303 1557.84C116.279 1558.33 115.511 1558.97 115 1559.75C114.472 1560.53 114.21 1561.42 114.215 1562.42C114.202 1563.41 114.467 1564.48 115.01 1565.62L116.641 1569.05L144.645 1555.69L149.271 1565.41Z" fill="#5988FF"/>
<path d="M130.873 1526.22L94.4492 1541.79L87.7329 1526.06C86.578 1523.36 86.1011 1520.76 86.302 1518.28C86.503 1515.79 87.3292 1513.57 88.7807 1511.62C90.2321 1509.67 92.2502 1508.14 94.835 1507.03C97.4434 1505.92 99.9503 1505.53 102.356 1505.88C104.756 1506.22 106.917 1507.21 108.84 1508.85C110.758 1510.49 112.31 1512.69 113.495 1515.47L117.507 1524.87L109.824 1528.15L106.663 1520.75C106.167 1519.58 105.542 1518.68 104.79 1518.03C104.02 1517.38 103.162 1517 102.216 1516.88C101.265 1516.76 100.273 1516.91 99.2416 1517.35C98.1982 1517.8 97.4052 1518.4 96.8626 1519.17C96.303 1519.93 96.0049 1520.81 95.9682 1521.8C95.9145 1522.79 96.1359 1523.87 96.6323 1525.03L98.1215 1528.52L126.649 1516.33L130.873 1526.22Z" fill="#5988FF"/>
<path d="M114.122 1486.29L77.1277 1500.44L73.2861 1490.4L102.188 1479.33L96.467 1464.37L104.559 1461.27L114.122 1486.29Z" fill="#5988FF"/>
<path d="M100.778 1450.85L63.2838 1463.62L54.0822 1436.58L62.284 1433.79L68.0194 1450.64L74.4636 1448.45L69.2021 1432.99L77.4039 1430.19L82.6654 1445.65L89.1097 1443.46L83.3993 1426.68L91.601 1423.88L100.778 1450.85Z" fill="#5988FF"/>
<path d="M44.4367 1406L40.9336 1393.08L60.1759 1378.31L60.0545 1377.86L35.9927 1374.85L32.4896 1361.93L70.7167 1351.55L73.4706 1361.71L51.3706 1367.71L51.4515 1368.01L75.5613 1370.61L77.2218 1376.73L57.5795 1391.21L57.6605 1391.51L79.9099 1385.47L82.6638 1395.63L44.4367 1406Z" fill="#5988FF"/>
<path d="M65.6425 1329.29L68.1028 1340.64L26.6233 1336.25L23.507 1321.88L59.4428 1300.7L61.903 1312.04L35.6921 1326.6L35.7577 1326.91L65.6425 1329.29ZM50.8304 1334.72L46.2052 1313.39L54.0677 1311.69L58.6929 1333.02L50.8304 1334.72Z" fill="#5988FF"/>
<path d="M57.5353 1290.34L18.4947 1297.02L15.6112 1280.16C15.1154 1277.26 15.2534 1274.63 16.0253 1272.26C16.7972 1269.89 18.1156 1267.92 19.9805 1266.36C21.8454 1264.8 24.1631 1263.78 26.9336 1263.3C29.7294 1262.83 32.257 1263.03 34.5161 1263.93C36.7732 1264.81 38.6459 1266.28 40.1342 1268.33C41.6204 1270.36 42.618 1272.87 43.1268 1275.84L44.8491 1285.92L36.614 1287.33L35.2571 1279.39C35.0439 1278.14 34.6463 1277.12 34.0642 1276.32C33.4671 1275.5 32.7217 1274.93 31.8279 1274.6C30.9319 1274.26 29.9311 1274.18 28.8255 1274.37C27.7071 1274.56 26.7953 1274.96 26.09 1275.58C25.3698 1276.19 24.8762 1276.97 24.609 1277.94C24.327 1278.89 24.2925 1279.99 24.5056 1281.23L25.145 1284.97L55.7217 1279.74L57.5353 1290.34Z" fill="#5988FF"/>
<path d="M20.7296 1229.93C19.4641 1230.2 18.5287 1230.81 17.9233 1231.76C17.3163 1232.7 17.1243 1234.03 17.3474 1235.75C17.4895 1236.86 17.7403 1237.74 18.0997 1238.41C18.4446 1239.07 18.8624 1239.53 19.3529 1239.81C19.8434 1240.08 20.3772 1240.19 20.9542 1240.13C21.4306 1240.09 21.8483 1239.95 22.2071 1239.71C22.5515 1239.46 22.849 1239.1 23.0997 1238.62C23.3376 1238.15 23.5343 1237.56 23.6897 1236.85C23.845 1236.14 23.9583 1235.3 24.0295 1234.34L24.3036 1231.03C24.483 1228.8 24.85 1226.86 25.4045 1225.21C25.9589 1223.57 26.6841 1222.18 27.5798 1221.07C28.4627 1219.95 29.5074 1219.08 30.7138 1218.46C31.9186 1217.82 33.2682 1217.4 34.7626 1217.19C37.3472 1216.87 39.6172 1217.23 41.5726 1218.28C43.528 1219.33 45.1261 1220.98 46.3669 1223.24C47.606 1225.49 48.4404 1228.27 48.87 1231.6C49.3112 1235.02 49.1911 1238.06 48.5098 1240.74C47.8268 1243.4 46.5277 1245.57 44.6124 1247.25C42.6826 1248.92 40.0755 1249.97 36.7909 1250.41L35.4822 1240.28C36.6759 1240.06 37.6472 1239.63 38.3962 1238.98C39.1452 1238.34 39.6678 1237.51 39.9642 1236.48C40.259 1235.44 40.3188 1234.24 40.1436 1232.89C39.9965 1231.75 39.7328 1230.81 39.3523 1230.08C38.9719 1229.35 38.5067 1228.82 37.9568 1228.49C37.4069 1228.15 36.8114 1228.02 36.1704 1228.09C35.5711 1228.18 35.0724 1228.45 34.6745 1228.89C34.262 1229.32 33.9322 1229.99 33.6849 1230.89C33.4247 1231.8 33.229 1233 33.0977 1234.5L32.7594 1238.52C32.4545 1242.1 31.5494 1245.01 30.0442 1247.24C28.5246 1249.47 26.2295 1250.77 23.159 1251.16C20.6672 1251.49 18.4011 1251.11 16.3607 1250.01C14.3059 1248.9 12.5997 1247.21 11.2422 1244.95C9.88303 1242.68 9.00268 1239.99 8.60115 1236.89C8.19136 1233.71 8.36758 1230.9 9.12981 1228.45C9.89204 1225.99 11.1576 1224.02 12.9265 1222.51C14.6809 1221 16.8424 1220.07 19.411 1219.72L20.7296 1229.93Z" fill="#5988FF"/>
<path d="M13.7979 1149.76C12.5161 1149.93 11.5381 1150.47 10.864 1151.37C10.1892 1152.26 9.89898 1153.58 9.99339 1155.32C10.0535 1156.43 10.238 1157.33 10.5468 1158.02C10.8421 1158.7 11.2241 1159.2 11.6929 1159.51C12.1617 1159.82 12.6861 1159.96 13.2661 1159.95C13.7439 1159.95 14.1706 1159.84 14.5464 1159.62C14.9085 1159.4 15.2322 1159.06 15.5174 1158.6C15.7897 1158.15 16.0297 1157.57 16.2372 1156.88C16.4448 1156.18 16.6196 1155.36 16.7616 1154.41L17.2806 1151.12C17.6252 1148.91 18.135 1147 18.8099 1145.4C19.4849 1143.8 20.3104 1142.48 21.2865 1141.43C22.2497 1140.38 23.356 1139.59 24.6054 1139.06C25.8541 1138.51 27.2312 1138.19 28.7368 1138.1C31.3381 1137.97 33.5749 1138.5 35.4472 1139.69C37.3196 1140.88 38.7907 1142.65 39.8606 1144.99C40.9298 1147.32 41.5553 1150.17 41.7371 1153.51C41.9239 1156.95 41.5783 1159.98 40.7004 1162.6C39.8218 1165.21 38.3653 1167.28 36.3308 1168.81C34.2828 1170.33 31.6048 1171.18 28.2968 1171.38L27.7429 1161.17C28.9496 1161.04 29.9502 1160.69 30.7448 1160.1C31.5394 1159.51 32.1225 1158.72 32.4942 1157.72C32.8652 1156.7 33.0137 1155.51 32.9395 1154.15C32.8773 1153 32.6836 1152.05 32.3584 1151.29C32.0332 1150.53 31.6087 1149.97 31.0849 1149.6C30.5611 1149.23 29.977 1149.05 29.3326 1149.07C28.7282 1149.12 28.2112 1149.35 27.7816 1149.76C27.3384 1150.16 26.96 1150.8 26.6464 1151.68C26.3199 1152.56 26.0356 1153.75 25.7935 1155.23L25.1578 1159.22C24.5884 1162.77 23.4703 1165.6 21.8034 1167.72C20.123 1169.82 17.7375 1170.95 14.647 1171.11C12.1372 1171.26 9.9058 1170.71 7.95273 1169.46C5.98608 1168.2 4.40952 1166.39 3.22306 1164.04C2.03589 1161.67 1.35734 1158.93 1.1874 1155.8C1.01396 1152.6 1.39823 1149.81 2.34022 1147.42C3.2822 1145.03 4.69093 1143.15 6.56641 1141.78C8.42831 1140.4 10.6528 1139.64 13.2398 1139.48L13.7979 1149.76Z" fill="#5988FF"/>
<path d="M0.129301 1103.41L0 1092.65L25.3721 1092.35C28.3889 1092.31 31.0082 1093 33.2302 1094.42C35.4391 1095.82 37.1585 1097.8 38.3883 1100.36C39.6052 1102.91 40.2341 1105.88 40.2749 1109.27C40.316 1112.69 39.7589 1115.69 38.6036 1118.27C37.4355 1120.85 35.7642 1122.87 33.5897 1124.33C31.4022 1125.78 28.8 1126.52 25.7832 1126.56L0.411159 1126.86L0.281858 1116.1L24.7257 1115.81C25.9504 1115.79 27.043 1115.51 28.0035 1114.96C28.951 1114.4 29.6897 1113.65 30.2197 1112.68C30.7496 1111.71 31.0071 1110.61 30.9924 1109.39C30.9775 1108.15 30.6936 1107.05 30.1407 1106.11C29.5877 1105.16 28.831 1104.42 27.8704 1103.89C26.897 1103.36 25.7979 1103.1 24.5731 1103.12L0.129301 1103.41Z" fill="#5988FF"/>
<path d="M39.7368 1080.38L0.146828 1079.18L0.663365 1062.08C0.752182 1059.14 1.40983 1056.59 2.6363 1054.42C3.86278 1052.25 5.54484 1050.58 7.68248 1049.42C9.82013 1048.26 12.2937 1047.72 15.1031 1047.81C17.9383 1047.89 20.3743 1048.6 22.411 1049.92C24.4481 1051.24 25.9929 1053.05 27.0456 1055.35C28.0986 1057.64 28.5795 1060.29 28.4884 1063.31L28.1799 1073.52L19.8288 1073.27L20.0719 1065.22C20.1101 1063.96 19.9235 1062.88 19.5122 1061.97C19.0885 1061.06 18.4714 1060.35 17.661 1059.85C16.851 1059.33 15.8854 1059.06 14.7642 1059.02C13.6301 1058.99 12.6562 1059.2 11.8424 1059.67C11.016 1060.12 10.3766 1060.79 9.92405 1061.68C9.459 1062.56 9.20739 1063.63 9.16921 1064.89L9.05469 1068.69L40.0617 1069.62L39.7368 1080.38Z" fill="#5988FF"/>
<path d="M41.2813 1037.11L1.77359 1034.29L2.98949 1017.23C3.19856 1014.3 3.96022 1011.77 5.27448 1009.65C6.58873 1007.54 8.33755 1005.94 10.5209 1004.87C12.7043 1003.79 15.1978 1003.36 18.0014 1003.56C20.8308 1003.76 23.2358 1004.57 25.2165 1005.97C27.1981 1007.37 28.6676 1009.24 29.6251 1011.58C30.5835 1013.92 30.9554 1016.59 30.7409 1019.6L30.0146 1029.79L21.681 1029.2L22.2531 1021.17C22.343 1019.9 22.2009 1018.82 21.827 1017.9C21.441 1016.96 20.8535 1016.23 20.0643 1015.69C19.2761 1015.15 18.3225 1014.83 17.2037 1014.75C16.0719 1014.67 15.09 1014.85 14.2578 1015.28C13.4136 1015.7 12.7473 1016.34 12.2587 1017.21C11.7581 1018.07 11.4629 1019.13 11.3731 1020.39L11.1035 1024.17L42.0461 1026.38L41.2813 1037.11Z" fill="#5988FF"/>
<path d="M44.636 993.931L5.2655 989.597L6.44148 978.903L37.1997 982.289L38.9509 966.363L47.5632 967.311L44.636 993.931Z" fill="#5988FF"/>
<path d="M48.9642 956.309L9.78161 950.516L13.9544 922.262L22.5256 923.529L19.9247 941.14L26.6592 942.135L29.0452 925.979L37.6164 927.246L35.2304 943.403L41.9649 944.398L44.5545 926.864L53.1257 928.131L48.9642 956.309Z" fill="#5988FF"/>
<path d="M19.3544 890.65L22.1451 877.554L46.0059 873.226L46.1026 872.772L26.0812 859.083L28.872 845.987L67.6093 854.251L65.4154 864.546L43.0204 859.769L42.9559 860.071L63.2093 873.414L61.8865 879.621L37.8038 883.506L37.7393 883.809L60.2856 888.618L58.0917 898.914L19.3544 890.65Z" fill="#5988FF"/>
<path d="M73.2706 832.13L70.2732 843.346L35.3864 820.472L39.1832 806.265L80.8241 803.865L77.8267 815.081L47.8623 816.038L47.7823 816.337L73.2706 832.13ZM57.6148 830.185L63.2499 809.098L71.0223 811.178L65.3872 832.264L57.6148 830.185Z" fill="#5988FF"/>
<path d="M83.8617 793.781L46.0868 781.864L51.2279 765.55C52.1119 762.745 53.4387 760.465 55.2084 758.71C56.978 756.956 59.0492 755.81 61.4218 755.274C63.7945 754.737 66.3211 754.892 69.0018 755.737C71.707 756.591 73.8595 757.933 75.4593 759.763C77.0629 761.581 78.0585 763.741 78.4459 766.244C78.8372 768.735 78.5792 771.419 77.672 774.298L74.6013 784.042L66.6332 781.529L69.0525 773.851C69.4325 772.646 69.5472 771.552 69.3966 770.572C69.2376 769.575 68.8364 768.724 68.1929 768.021C67.5532 767.305 66.6985 766.779 65.6287 766.441C64.5466 766.1 63.5507 766.042 62.641 766.269C61.7229 766.48 60.9252 766.952 60.248 767.686C59.5624 768.403 59.0296 769.364 58.6497 770.57L57.5098 774.187L87.0952 783.52L83.8617 793.781Z" fill="#5988FF"/>
<path d="M78.7363 723.22C77.4885 722.879 76.3784 722.992 75.406 723.56C74.4379 724.116 73.6584 725.212 73.0675 726.851C72.691 727.894 72.5098 728.796 72.5237 729.555C72.5298 730.298 72.6883 730.903 72.9989 731.372C73.3095 731.841 73.7355 732.18 74.2769 732.389C74.7169 732.576 75.1516 732.643 75.5811 732.593C76.0028 732.526 76.4336 732.338 76.8735 732.031C77.3013 731.719 77.7464 731.283 78.2088 730.723C78.6712 730.164 79.1532 729.474 79.6546 728.653L81.4126 725.832C82.5933 723.927 83.8063 722.37 85.0515 721.16C86.2967 719.95 87.5729 719.053 88.8801 718.469C90.1753 717.881 91.5019 717.585 92.8601 717.582C94.2227 717.567 95.6156 717.809 97.0389 718.309C99.4843 719.206 101.337 720.568 102.597 722.394C103.857 724.221 104.523 726.423 104.594 728.999C104.669 731.564 104.138 734.423 103 737.578C101.831 740.818 100.332 743.472 98.503 745.541C96.6782 747.597 94.5306 748.934 92.0602 749.55C89.5821 750.15 86.7824 749.894 83.6613 748.78L87.1282 739.17C88.2901 739.521 89.351 739.582 90.311 739.352C91.271 739.123 92.1175 738.62 92.8504 737.842C93.5876 737.052 94.1883 736.014 94.6523 734.728C95.0419 733.648 95.2346 732.696 95.2304 731.872C95.2263 731.047 95.0555 730.362 94.7183 729.815C94.381 729.268 93.9114 728.879 93.3094 728.647C92.735 728.454 92.1699 728.462 91.6142 728.673C91.0506 728.867 90.4524 729.31 89.8196 730C89.1746 730.686 88.451 731.666 87.6488 732.939L85.5089 736.363C83.6027 739.405 81.4692 741.577 79.1084 742.877C76.7398 744.161 74.1024 744.272 71.1962 743.209C68.827 742.367 66.9869 740.989 65.6759 739.075C64.3572 737.145 63.6099 734.866 63.434 732.238C63.2625 729.598 63.7086 726.803 64.7723 723.855C65.8579 720.846 67.3002 718.425 69.0991 716.592C70.898 714.759 72.9275 713.579 75.1877 713.051C77.4402 712.507 79.7874 712.669 82.2294 713.537L78.7363 723.22Z" fill="#5988FF"/>
<path d="M109.21 648.75C107.991 648.318 106.875 648.348 105.864 648.842C104.857 649.324 103.998 650.36 103.288 651.95C102.835 652.963 102.587 653.848 102.545 654.607C102.496 655.348 102.609 655.964 102.884 656.454C103.159 656.945 103.559 657.314 104.083 657.563C104.508 657.782 104.936 657.882 105.369 657.863C105.794 657.827 106.238 657.673 106.699 657.399C107.149 657.119 107.625 656.718 108.128 656.194C108.63 655.67 109.162 655.017 109.723 654.237L111.685 651.554C113.004 649.742 114.329 648.279 115.66 647.164C116.992 646.05 118.331 645.251 119.678 644.765C121.013 644.275 122.358 644.078 123.713 644.176C125.073 644.262 126.444 644.607 127.826 645.212C130.198 646.287 131.945 647.783 133.066 649.698C134.187 651.613 134.688 653.858 134.568 656.433C134.453 658.996 133.711 661.808 132.342 664.87C130.937 668.014 129.245 670.549 127.267 672.477C125.295 674.392 123.054 675.565 120.545 675.997C118.029 676.411 115.256 675.947 112.226 674.605L116.396 665.279C117.529 665.715 118.582 665.855 119.557 665.697C120.531 665.54 121.413 665.101 122.201 664.38C122.995 663.647 123.671 662.656 124.229 661.408C124.697 660.36 124.96 659.425 125.017 658.602C125.074 657.78 124.955 657.083 124.659 656.513C124.363 655.942 123.924 655.519 123.34 655.244C122.782 655.009 122.218 654.975 121.648 655.144C121.072 655.296 120.442 655.692 119.76 656.334C119.066 656.97 118.272 657.894 117.377 659.104L114.989 662.36C112.863 665.252 110.574 667.259 108.124 668.381C105.666 669.486 103.028 669.4 100.209 668.124C97.9085 667.109 96.1756 665.598 95.0101 663.593C93.8381 661.57 93.2618 659.242 93.2812 656.608C93.306 653.962 93.958 651.208 95.2374 648.347C96.5431 645.427 98.1608 643.119 100.091 641.425C102.02 639.731 104.132 638.705 106.425 638.346C108.712 637.97 111.04 638.306 113.411 639.353L109.21 648.75Z" fill="#5988FF"/>
<path d="M118.238 601.274L123.04 591.648L145.743 602.984C148.443 604.332 150.457 606.145 151.785 608.423C153.107 610.683 153.731 613.23 153.659 616.062C153.574 618.889 152.775 621.821 151.261 624.856C149.735 627.915 147.869 630.328 145.662 632.095C143.443 633.856 141.034 634.888 138.434 635.19C135.828 635.475 133.175 634.943 130.475 633.595L107.771 622.259L112.573 612.632L134.446 623.554C135.542 624.101 136.644 624.348 137.751 624.295C138.846 624.237 139.849 623.902 140.76 623.289C141.676 622.666 142.408 621.805 142.955 620.709C143.507 619.601 143.754 618.499 143.696 617.403C143.637 616.306 143.302 615.303 142.69 614.392C142.067 613.475 141.207 612.743 140.111 612.196L118.238 601.274Z" fill="#5988FF"/>
<path d="M163.989 598.912L129.328 579.734L137.601 564.765C139.024 562.191 140.776 560.22 142.858 558.851C144.941 557.483 147.198 556.771 149.63 556.716C152.062 556.661 154.507 557.314 156.967 558.675C159.449 560.048 161.293 561.791 162.498 563.902C163.71 566.002 164.257 568.317 164.141 570.847C164.03 573.366 163.245 575.946 161.785 578.588L156.844 587.529L149.532 583.483L153.426 576.439C154.037 575.333 154.366 574.284 154.413 573.293C154.455 572.284 154.23 571.371 153.739 570.554C153.254 569.725 152.521 569.039 151.539 568.496C150.546 567.947 149.581 567.693 148.645 567.735C147.703 567.76 146.828 568.064 146.018 568.648C145.204 569.215 144.492 570.051 143.88 571.158L142.046 574.477L169.193 589.497L163.989 598.912Z" fill="#5988FF"/>
<path d="M185.136 561.141L151.288 540.559L160.167 525.941C161.694 523.428 163.526 521.53 165.662 520.248C167.799 518.966 170.083 518.347 172.515 518.392C174.948 518.437 177.365 519.189 179.766 520.65C182.19 522.124 183.961 523.94 185.079 526.099C186.203 528.247 186.656 530.583 186.436 533.106C186.222 535.618 185.332 538.164 183.765 540.744L178.462 549.475L171.322 545.133L175.501 538.254C176.157 537.174 176.529 536.139 176.616 535.151C176.699 534.145 176.512 533.223 176.055 532.387C175.604 531.539 174.899 530.824 173.941 530.241C172.971 529.651 172.018 529.358 171.08 529.362C170.138 529.348 169.251 529.616 168.419 530.166C167.582 530.699 166.836 531.506 166.18 532.586L164.211 535.827L190.72 551.947L185.136 561.141Z" fill="#5988FF"/>
<path d="M207.852 524.273L174.819 502.407L180.752 493.434L206.559 510.517L215.395 497.155L222.621 501.938L207.852 524.273Z" fill="#5988FF"/>
<path d="M228.896 492.795L196.697 469.717L213.32 446.498L220.364 451.547L210.002 466.019L215.536 469.985L225.042 456.709L232.086 461.757L222.58 475.034L228.114 479L238.431 464.591L245.474 469.639L228.896 492.795Z" fill="#5988FF"/>
<path d="M232.57 420.856L241.037 410.486L264.235 417.553L264.528 417.194L252.978 395.86L261.445 385.49L292.119 410.562L285.463 418.714L267.73 404.219L267.534 404.459L279.448 425.591L275.435 430.506L252.242 422.943L252.046 423.183L269.899 437.775L263.243 445.927L232.57 420.856Z" fill="#5988FF"/>
<path d="M307.264 393.479L299.472 402.082L278.9 365.779L288.769 354.881L326.899 371.798L319.107 380.401L292.021 367.544L291.814 367.773L307.264 393.479ZM294.23 384.586L308.878 368.412L314.84 373.817L300.192 389.991L294.23 384.586Z" fill="#5988FF"/>
<path d="M334.209 364.219L306.06 336.339L318.088 324.183C320.156 322.092 322.378 320.672 324.754 319.921C327.13 319.17 329.495 319.099 331.85 319.707C334.206 320.316 336.382 321.609 338.38 323.587C340.395 325.584 341.696 327.762 342.283 330.122C342.878 332.472 342.776 334.849 341.977 337.252C341.187 339.646 339.73 341.916 337.608 344.061L330.424 351.322L324.486 345.441L330.146 339.72C331.035 338.822 331.637 337.902 331.951 336.961C332.265 336.001 332.297 335.062 332.046 334.142C331.805 333.212 331.285 332.353 330.488 331.563C329.682 330.765 328.822 330.258 327.909 330.044C326.996 329.811 326.071 329.866 325.134 330.208C324.197 330.532 323.283 331.144 322.394 332.042L319.728 334.737L341.774 356.573L334.209 364.219Z" fill="#5988FF"/>
<path d="M361.897 299.122C360.943 298.248 359.904 297.841 358.78 297.901C357.665 297.952 356.47 298.571 355.196 299.757C354.384 300.513 353.811 301.232 353.477 301.913C353.143 302.577 353.007 303.188 353.069 303.747C353.131 304.306 353.355 304.802 353.74 305.236C354.047 305.603 354.402 305.862 354.807 306.014C355.213 306.147 355.682 306.178 356.213 306.106C356.736 306.024 357.331 305.84 357.999 305.554C358.666 305.267 359.41 304.874 360.23 304.374L363.083 302.669C365.004 301.515 366.794 300.685 368.455 300.179C370.115 299.673 371.66 299.459 373.089 299.538C374.51 299.607 375.825 299.951 377.034 300.57C378.253 301.179 379.381 302.032 380.418 303.128C382.183 305.045 383.208 307.103 383.494 309.304C383.78 311.505 383.366 313.768 382.252 316.092C381.147 318.407 379.367 320.707 376.913 322.992C374.393 325.338 371.847 327.013 369.275 328.016C366.712 329.01 364.192 329.216 361.713 328.634C359.235 328.034 356.862 326.525 354.596 324.106L362.071 317.146C362.944 317.99 363.859 318.529 364.818 318.765C365.776 319 366.759 318.939 367.766 318.583C368.783 318.218 369.792 317.57 370.792 316.638C371.632 315.856 372.239 315.097 372.612 314.362C372.985 313.627 373.146 312.939 373.096 312.299C373.046 311.658 372.806 311.097 372.377 310.616C371.954 310.181 371.448 309.93 370.857 309.863C370.267 309.778 369.533 309.898 368.655 310.222C367.768 310.537 366.677 311.077 365.381 311.843L361.913 313.909C358.828 315.742 355.938 316.697 353.244 316.774C350.551 316.832 348.155 315.724 346.056 313.449C344.334 311.616 343.327 309.549 343.036 307.247C342.745 304.928 343.122 302.559 344.167 300.141C345.221 297.715 346.895 295.433 349.188 293.298C351.529 291.118 353.918 289.625 356.355 288.818C358.793 288.011 361.137 287.89 363.388 288.455C365.64 289.001 367.654 290.219 369.429 292.109L361.897 299.122Z" fill="#5988FF"/>
<path d="M423.033 246.836C422.146 245.893 421.14 245.41 420.015 245.387C418.899 245.355 417.662 245.883 416.304 246.972C415.438 247.666 414.813 248.34 414.429 248.995C414.047 249.632 413.866 250.231 413.886 250.793C413.907 251.355 414.093 251.867 414.446 252.328C414.724 252.717 415.059 253.002 415.452 253.183C415.847 253.346 416.312 253.411 416.847 253.378C417.375 253.336 417.982 253.197 418.669 252.96C419.355 252.724 420.126 252.388 420.982 251.95L423.953 250.462C425.954 249.453 427.801 248.758 429.494 248.377C431.188 247.995 432.744 247.897 434.164 248.081C435.575 248.256 436.861 248.696 438.021 249.403C439.192 250.101 440.253 251.036 441.206 252.206C442.824 254.248 443.694 256.377 443.816 258.593C443.938 260.809 443.357 263.034 442.074 265.269C440.8 267.496 438.855 269.658 436.238 271.755C433.551 273.908 430.888 275.389 428.249 276.198C425.619 276.999 423.09 277.017 420.662 276.253C418.235 275.471 415.981 273.789 413.899 271.21L421.87 264.823C422.678 265.729 423.551 266.335 424.49 266.641C425.428 266.947 426.413 266.96 427.444 266.679C428.484 266.39 429.538 265.819 430.605 264.964C431.501 264.246 432.162 263.535 432.588 262.829C433.015 262.124 433.227 261.45 433.225 260.807C433.222 260.165 433.025 259.588 432.632 259.076C432.243 258.611 431.757 258.323 431.173 258.212C430.591 258.084 429.85 258.149 428.95 258.407C428.042 258.655 426.913 259.113 425.564 259.781L421.953 261.584C418.74 263.183 415.788 263.921 413.095 263.797C410.405 263.655 408.098 262.372 406.174 259.948C404.592 257.992 403.741 255.856 403.621 253.539C403.503 251.204 404.055 248.87 405.276 246.536C406.507 244.195 408.345 242.044 410.791 240.085C413.287 238.085 415.78 236.773 418.27 236.149C420.761 235.525 423.108 235.579 425.311 236.309C427.516 237.021 429.434 238.385 431.064 240.401L423.033 246.836Z" fill="#5988FF"/>
<path d="M452.758 208.743L461.428 202.379L476.438 222.848C478.223 225.282 479.186 227.815 479.326 230.448C479.468 233.064 478.86 235.614 477.501 238.1C476.134 240.576 474.083 242.817 471.349 244.824C468.595 246.846 465.832 248.138 463.062 248.7C460.284 249.251 457.669 249.066 455.219 248.145C452.771 247.206 450.655 245.52 448.87 243.086L433.86 222.617L442.53 216.253L456.991 235.973C457.715 236.961 458.582 237.685 459.591 238.144C460.592 238.593 461.637 238.754 462.727 238.626C463.826 238.491 464.87 238.06 465.858 237.335C466.856 236.603 467.579 235.736 468.028 234.734C468.477 233.733 468.638 232.687 468.51 231.596C468.374 230.496 467.944 229.452 467.22 228.463L452.758 208.743Z" fill="#5988FF"/>
<path d="M494.526 227.573L472.465 194.66L486.664 185.133C489.105 183.495 491.565 182.543 494.042 182.279C496.52 182.014 498.852 182.414 501.04 183.478C503.228 184.541 505.105 186.241 506.67 188.577C508.25 190.934 509.093 193.327 509.2 195.756C509.318 198.178 508.747 200.487 507.487 202.684C506.238 204.873 504.36 206.809 501.854 208.49L493.374 214.181L488.72 207.238L495.402 202.755C496.451 202.051 497.223 201.269 497.718 200.408C498.216 199.531 498.434 198.616 498.37 197.664C498.318 196.705 497.979 195.76 497.354 194.828C496.722 193.885 495.98 193.218 495.128 192.827C494.279 192.418 493.362 192.288 492.375 192.437C491.392 192.569 490.376 192.987 489.327 193.691L486.178 195.803L503.457 221.581L494.526 227.573Z" fill="#5988FF"/>
<path d="M530.594 203.658L509.898 169.868L524.475 160.931C526.982 159.394 529.478 158.544 531.964 158.381C534.45 158.219 536.765 158.713 538.907 159.866C541.05 161.018 542.855 162.794 544.324 165.191C545.806 167.611 546.551 170.037 546.558 172.468C546.576 174.893 545.911 177.177 544.562 179.32C543.225 181.457 541.27 183.314 538.697 184.891L529.991 190.229L525.625 183.102L532.485 178.896C533.562 178.235 534.366 177.485 534.895 176.646C535.429 175.79 535.684 174.885 535.659 173.931C535.646 172.971 535.346 172.013 534.76 171.056C534.167 170.088 533.453 169.391 532.617 168.965C531.786 168.522 530.875 168.354 529.883 168.463C528.895 168.554 527.863 168.93 526.786 169.591L523.554 171.572L539.762 198.036L530.594 203.658Z" fill="#5988FF"/>
<path d="M567.646 181.263L548.262 146.704L557.639 141.439L572.783 168.438L586.748 160.597L590.988 168.157L567.646 181.263Z" fill="#5988FF"/>
<path d="M600.748 162.896L582.659 127.641L608.054 114.597L612.011 122.309L596.182 130.44L599.291 136.499L613.812 129.041L617.769 136.753L603.248 144.211L606.357 150.271L622.117 142.176L626.074 149.888L600.748 162.896Z" fill="#5988FF"/>
<path d="M636.89 100.598L649.16 95.2495L666.56 112.148L666.986 111.963L666.464 87.7058L678.733 82.3571L694.554 118.688L684.909 122.892L675.763 101.889L675.479 102.012L676.417 126.257L670.602 128.792L653.432 111.455L653.148 111.578L662.357 132.724L652.712 136.929L636.89 100.598Z" fill="#5988FF"/>
<path d="M715.831 110.424L704.97 114.511L703.265 72.8135L717.023 67.6369L743.202 100.126L732.34 104.212L714.128 80.3858L713.839 80.4948L715.831 110.424ZM708.303 96.5527L728.722 88.8696L731.554 96.4042L711.135 104.087L708.303 96.5527Z" fill="#5988FF"/>
<path d="M753.166 96.7304L740.874 59.0577L757.126 53.7493C759.921 52.8365 762.546 52.5897 765.002 53.0088C767.458 53.428 769.595 54.4468 771.411 56.0654C773.228 57.684 774.572 59.83 775.444 62.5034C776.325 65.2013 776.486 67.7336 775.929 70.1004C775.385 72.4631 774.208 74.5302 772.399 76.3016C770.602 78.0691 768.269 79.4213 765.401 80.358L755.694 83.5287L753.101 75.5821L760.749 73.084C761.951 72.6917 762.906 72.1489 763.616 71.4557C764.334 70.7463 764.791 69.9251 764.989 68.9921C765.198 68.0551 765.129 67.0532 764.781 65.9863C764.429 64.9071 763.896 64.0634 763.182 63.4552C762.477 62.8308 761.629 62.4563 760.639 62.3319C759.657 62.1911 758.566 62.3169 757.364 62.7093L753.761 63.8862L763.388 93.3917L753.166 96.7304Z" fill="#5988FF"/>
<path d="M807.54 51.5046C807.091 50.2909 806.353 49.4536 805.325 48.9926C804.311 48.5281 802.965 48.5319 801.29 49.0041C800.223 49.3049 799.385 49.6819 798.775 50.135C798.175 50.5723 797.775 51.0536 797.575 51.5792C797.374 52.1047 797.347 52.6486 797.492 53.2109C797.596 53.6773 797.794 54.0705 798.085 54.3905C798.385 54.6947 798.788 54.9363 799.294 55.1154C799.796 55.282 800.409 55.3906 801.133 55.4412C801.858 55.4917 802.699 55.4824 803.657 55.4134L806.973 55.2024C809.209 55.0548 811.181 55.1357 812.889 55.4451C814.596 55.7544 816.068 56.2712 817.303 56.9952C818.535 57.7068 819.547 58.6143 820.34 59.7176C821.146 60.8175 821.759 62.0921 822.18 63.5413C822.874 66.0531 822.845 68.353 822.094 70.4411C821.342 72.5293 819.94 74.3519 817.886 75.9089C815.846 77.4624 813.212 78.6939 809.985 79.6033C806.672 80.5372 803.642 80.8617 800.896 80.5768C798.163 80.2884 795.827 79.3184 793.889 77.6668C791.959 75.9993 790.539 73.5717 789.628 70.384L799.457 67.6138C799.848 68.7635 800.415 69.6622 801.16 70.31C801.905 70.9578 802.807 71.3537 803.866 71.4976C804.937 71.638 806.13 71.5228 807.445 71.1521C808.55 70.8408 809.436 70.4436 810.104 69.9606C810.771 69.4775 811.229 68.9397 811.478 68.347C811.726 67.7543 811.769 67.1458 811.607 66.5214C811.43 65.9413 811.094 65.4865 810.6 65.1568C810.114 64.8112 809.406 64.5818 808.477 64.4684C807.544 64.3427 806.327 64.324 804.824 64.4123L800.796 64.6631C797.214 64.8819 794.208 64.4091 791.777 63.2447C789.355 62.0644 787.731 59.9825 786.904 56.9989C786.21 54.5811 786.26 52.2821 787.052 50.102C787.854 47.906 789.272 45.9718 791.306 44.2995C793.352 42.6238 795.883 41.3609 798.899 40.5109C801.977 39.6435 804.784 39.4085 807.32 39.806C809.857 40.2036 811.997 41.1684 813.741 42.7006C815.494 44.2168 816.728 46.2211 817.443 48.7134L807.54 51.5046Z" fill="#5988FF"/>
<path d="M885.806 32.9748C885.449 31.7311 884.775 30.8413 883.785 30.3053C882.807 29.7668 881.465 29.6708 879.76 30.0174C878.673 30.2381 877.809 30.5518 877.168 30.9585C876.537 31.35 876.102 31.8003 875.863 32.3095C875.625 32.8188 875.557 33.3591 875.66 33.9306C875.729 34.4035 875.897 34.8103 876.164 35.1511C876.44 35.4766 876.824 35.7474 877.315 35.9636C877.804 36.1671 878.408 36.3209 879.126 36.425C879.844 36.5292 880.684 36.5824 881.645 36.5846L884.968 36.6204C887.208 36.6391 889.168 36.8661 890.849 37.3014C892.529 37.7366 893.958 38.3611 895.136 39.1748C896.312 39.9759 897.254 40.956 897.963 42.1152C898.684 43.2718 899.202 44.5883 899.514 46.0649C900.02 48.6212 899.821 50.9126 898.916 52.9393C898.012 54.9659 896.478 56.6794 894.316 58.0797C892.165 59.4775 889.448 60.5101 886.162 61.1775C882.789 61.863 879.743 61.9617 877.026 61.4738C874.322 60.9834 872.064 59.8427 870.253 58.0518C868.453 56.2456 867.217 53.7193 866.545 50.4728L876.552 48.4397C876.856 49.6152 877.356 50.5536 878.051 51.2549C878.746 51.9562 879.615 52.4179 880.66 52.64C881.718 52.8595 882.916 52.8332 884.256 52.5611C885.38 52.3326 886.293 52.0023 886.995 51.5702C887.697 51.138 888.193 50.6356 888.485 50.063C888.777 49.4904 888.865 48.8867 888.749 48.2521C888.616 47.6604 888.315 47.1819 887.846 46.8164C887.387 46.4358 886.699 46.1544 885.78 45.9725C884.859 45.7778 883.646 45.6688 882.142 45.6454L878.106 45.5965C874.518 45.5489 871.555 44.8543 869.217 43.5127C866.889 42.1559 865.424 39.9591 864.821 36.9225C864.308 34.4598 864.527 32.1708 865.479 30.0555C866.442 27.925 867.999 26.1014 870.151 24.5847C872.316 23.0654 874.934 21.9939 878.005 21.3701C881.138 20.7335 883.955 20.7075 886.455 21.2921C888.955 21.8768 891.018 22.9978 892.643 24.6552C894.279 26.2974 895.361 28.3878 895.889 30.9263L885.806 32.9748Z" fill="#5988FF"/>
<path d="M929.65 12.6978L940.269 11.004L944.263 36.0749C944.738 39.0559 944.436 41.7494 943.357 44.1553C942.289 46.5464 940.583 48.5364 938.238 50.1253C935.891 51.7015 933.043 52.7566 929.694 53.2907C926.32 53.8289 923.273 53.7141 920.552 52.9462C917.83 52.1656 915.589 50.8052 913.831 48.8649C912.083 46.9099 910.972 44.4419 910.497 41.4609L906.502 16.39L917.121 14.6962L920.97 38.8499C921.162 40.0601 921.602 41.1003 922.289 41.9705C922.974 42.8279 923.831 43.449 924.858 43.8337C925.898 44.2165 927.023 44.3114 928.233 44.1184C929.455 43.9235 930.495 43.4833 931.352 42.798C932.209 42.1126 932.829 41.256 933.214 40.228C933.596 39.1872 933.691 38.0617 933.498 36.8515L929.65 12.6978Z" fill="#5988FF"/>
<path d="M958.191 48.5527L953.613 9.18903L970.594 7.21182C973.514 6.87184 976.136 7.15098 978.46 8.04924C980.785 8.94749 982.676 10.3701 984.136 12.3171C985.595 14.2641 986.488 16.6342 986.813 19.4276C987.14 22.2467 986.797 24.7607 985.782 26.9699C984.779 29.1775 983.216 30.9699 981.092 32.3472C978.98 33.7229 976.426 34.5852 973.429 34.9342L963.286 36.1151L962.321 27.8118L970.312 26.8814C971.567 26.7353 972.611 26.3929 973.444 25.8544C974.288 25.3015 974.9 24.5874 975.278 23.7122C975.67 22.8355 975.8 21.8397 975.671 20.7249C975.54 19.5973 975.184 18.6646 974.605 17.9268C974.038 17.1747 973.281 16.6394 972.335 16.321C971.401 15.9882 970.306 15.8949 969.051 16.041L965.286 16.4794L968.872 47.3091L958.191 48.5527Z" fill="#5988FF"/>
<path d="M1001.2 43.7852L998.234 4.26696L1015.28 2.9872C1018.21 2.76715 1020.82 3.15349 1023.11 4.14622C1025.39 5.13894 1027.23 6.63788 1028.6 8.64303C1029.98 10.6482 1030.78 13.0529 1030.99 15.8573C1031.2 18.6874 1030.75 21.1853 1029.65 23.3509C1028.56 25.5157 1026.92 27.2425 1024.74 28.5316C1022.58 29.8196 1019.99 30.5766 1016.98 30.8024L1006.8 31.5668L1006.17 23.2309L1014.2 22.6287C1015.46 22.5341 1016.51 22.2348 1017.37 21.7309C1018.23 21.2131 1018.87 20.5247 1019.29 19.6657C1019.71 18.8057 1019.89 17.8161 1019.8 16.6969C1019.72 15.5649 1019.4 14.6184 1018.85 13.8576C1018.32 13.0828 1017.58 12.517 1016.65 12.16C1015.73 11.7892 1014.64 11.6511 1013.38 11.7457L1009.6 12.0295L1011.92 42.9803L1001.2 43.7852Z" fill="#5988FF"/>
<path d="M1044.38 40.8199L1042.94 1.21691L1053.68 0.824491L1054.81 31.7643L1070.82 31.1799L1071.13 39.8431L1044.38 40.8199Z" fill="#5988FF"/>
<path d="M1082.21 39.6293L1082.24 0L1110.79 0.0182802L1110.78 8.6872L1092.99 8.6758L1092.98 15.4871L1109.31 15.4975L1109.3 24.1665L1092.98 24.156L1092.97 30.9673L1110.69 30.9786L1110.68 39.6476L1082.21 39.6293Z" fill="#5988FF"/>
<path d="M1142.83 0.762014L1156.19 1.61847L1163.94 24.6079L1164.4 24.6376L1175.02 2.82641L1188.38 3.68287L1185.85 43.2311L1175.35 42.5578L1176.81 19.694L1176.5 19.6742L1166.26 41.6646L1159.93 41.2587L1152.58 17.985L1152.27 17.9652L1150.8 40.9835L1140.3 40.3102L1142.83 0.762014Z" fill="#5988FF"/>
<path d="M1208.54 45.6158L1197.02 44.2812L1214.56 6.41827L1229.16 8.10879L1237.59 48.9791L1226.06 47.6445L1220.76 18.1225L1220.45 18.0869L1208.54 45.6158ZM1208.19 29.8354L1229.86 32.3444L1228.93 40.3408L1207.26 37.8317L1208.19 29.8354Z" fill="#5988FF"/>
<path d="M1248 50.5183L1254.29 11.3911L1271.17 14.1057C1274.07 14.5725 1276.52 15.5541 1278.51 17.0504C1280.5 18.5468 1281.94 20.4303 1282.81 22.7009C1283.69 24.9714 1283.91 27.495 1283.46 30.2716C1283.01 33.0737 1282 35.3997 1280.42 37.2497C1278.85 39.1017 1276.86 40.4016 1274.44 41.1494C1272.04 41.8992 1269.35 42.0346 1266.37 41.5556L1256.29 39.9342L1257.61 31.6808L1265.56 32.9583C1266.8 33.1589 1267.9 33.1133 1268.85 32.8215C1269.81 32.519 1270.59 31.9981 1271.2 31.2587C1271.81 30.5213 1272.21 29.5986 1272.38 28.4905C1272.56 27.3697 1272.48 26.3756 1272.12 25.5081C1271.78 24.6299 1271.19 23.909 1270.37 23.3454C1269.56 22.7711 1268.53 22.3836 1267.29 22.183L1263.54 21.5811L1258.62 52.2256L1248 50.5183Z" fill="#5988FF"/>
<path d="M1317.03 35.1744C1317.19 33.8896 1316.91 32.8073 1316.21 31.9273C1315.52 31.0499 1314.32 30.4379 1312.62 30.0914C1311.53 29.8706 1310.61 29.8224 1309.86 29.9467C1309.13 30.0609 1308.55 30.3059 1308.13 30.6816C1307.72 31.0573 1307.44 31.5284 1307.32 32.0947C1307.19 32.5573 1307.19 32.9975 1307.3 33.4153C1307.43 33.823 1307.68 34.2222 1308.05 34.6129C1308.42 34.9909 1308.91 35.3681 1309.53 35.7443C1310.16 36.1206 1310.91 36.4972 1311.79 36.8743L1314.84 38.2039C1316.89 39.0954 1318.61 40.0694 1319.99 41.1259C1321.36 42.1824 1322.44 43.3152 1323.2 44.5242C1323.98 45.7206 1324.46 46.9908 1324.66 48.3348C1324.88 49.6813 1324.84 51.0955 1324.55 52.5772C1324.02 55.1283 1322.94 57.1605 1321.32 58.6737C1319.7 60.1869 1317.62 61.1662 1315.08 61.6116C1312.55 62.0596 1309.65 61.9498 1306.36 61.2824C1302.99 60.597 1300.15 59.4995 1297.84 57.9899C1295.54 56.4829 1293.9 54.5515 1292.93 52.1958C1291.98 49.8301 1291.83 47.0214 1292.47 43.7698L1302.48 45.8029C1302.3 47.0041 1302.4 48.0632 1302.76 48.9801C1303.13 49.897 1303.75 50.6616 1304.63 51.2739C1305.51 51.8887 1306.63 52.3322 1307.97 52.6043C1309.09 52.8328 1310.06 52.885 1310.88 52.7609C1311.69 52.6368 1312.34 52.368 1312.84 51.9545C1313.33 51.5411 1313.64 51.0196 1313.79 50.39C1313.89 49.7933 1313.8 49.2352 1313.51 48.7157C1313.24 48.1861 1312.71 47.6583 1311.94 47.1324C1311.17 46.5937 1310.09 46.0201 1308.72 45.4114L1305.02 43.7915C1301.73 42.3473 1299.28 40.5515 1297.65 38.4038C1296.03 36.2461 1295.54 33.6514 1296.17 30.6199C1296.66 28.1521 1297.75 26.1301 1299.45 24.5539C1301.17 22.9676 1303.31 21.8961 1305.89 21.3395C1308.47 20.7855 1311.3 20.8203 1314.37 21.4441C1317.5 22.0808 1320.11 23.1561 1322.18 24.67C1324.26 26.1839 1325.72 28.0212 1326.57 30.1817C1327.44 32.3322 1327.62 34.6793 1327.11 37.2229L1317.03 35.1744Z" fill="#5988FF"/>
<path d="M1395.1 54.5018C1395.35 53.2322 1395.16 52.1325 1394.52 51.2028C1393.9 50.2766 1392.75 49.5774 1391.08 49.1052C1390.01 48.8044 1389.1 48.6882 1388.34 48.7565C1387.6 48.816 1387.01 49.0176 1386.56 49.3612C1386.12 49.7049 1385.81 50.1543 1385.64 50.7096C1385.49 51.162 1385.45 51.6007 1385.53 52.0257C1385.63 52.4417 1385.85 52.8582 1386.19 53.2752C1386.53 53.6797 1386.99 54.0926 1387.58 54.5139C1388.18 54.9352 1388.9 55.3666 1389.75 55.8082L1392.69 57.3602C1394.67 58.4018 1396.31 59.5005 1397.61 60.6564C1398.9 61.8122 1399.89 63.0214 1400.57 64.2841C1401.25 65.5344 1401.64 66.8371 1401.74 68.1923C1401.85 69.551 1401.71 70.9585 1401.31 72.4148C1400.59 74.9195 1399.37 76.8662 1397.64 78.2547C1395.91 79.6433 1393.76 80.4656 1391.2 80.7214C1388.65 80.9808 1385.76 80.6557 1382.53 79.7463C1379.22 78.8124 1376.46 77.507 1374.27 75.83C1372.09 74.1565 1370.6 72.1092 1369.81 69.688C1369.03 67.258 1369.09 64.4456 1369.98 61.251L1379.8 64.0212C1379.54 65.2059 1379.55 66.269 1379.85 67.2106C1380.15 68.1522 1380.71 68.9608 1381.54 69.6364C1382.38 70.3155 1383.46 70.8404 1384.77 71.2112C1385.88 71.5225 1386.84 71.6465 1387.66 71.5832C1388.48 71.5198 1389.15 71.3003 1389.68 70.9244C1390.2 70.5486 1390.55 70.052 1390.74 69.4347C1390.89 68.8476 1390.84 68.2843 1390.59 67.7448C1390.36 67.1963 1389.87 66.6311 1389.14 66.049C1388.41 65.4546 1387.38 64.8028 1386.05 64.0936L1382.49 62.2038C1379.32 60.5198 1377 58.5465 1375.53 56.2838C1374.08 54.0122 1373.78 51.3881 1374.64 48.4115C1375.3 45.9867 1376.55 44.0515 1378.36 42.6059C1380.19 41.1514 1382.41 40.2421 1385.01 39.878C1387.63 39.5174 1390.45 39.762 1393.47 40.612C1396.55 41.4794 1399.06 42.745 1401.02 44.4087C1402.97 46.0724 1404.3 48.0131 1404.99 50.2309C1405.69 52.4397 1405.7 54.7937 1405.01 57.293L1395.1 54.5018Z" fill="#5988FF"/>
<path d="M1443.36 56.5277L1453.58 59.8795L1445.68 84.0036C1444.74 86.872 1443.24 89.1292 1441.18 90.7752C1439.13 92.413 1436.71 93.402 1433.9 93.7422C1431.09 94.0702 1428.07 93.7056 1424.85 92.6486C1421.6 91.5836 1418.95 90.0873 1416.88 88.1598C1414.81 86.22 1413.44 83.9851 1412.77 81.4551C1412.11 78.9169 1412.24 76.2136 1413.18 73.3452L1421.09 49.2211L1431.31 52.573L1423.69 75.8144C1423.31 76.979 1423.23 78.1053 1423.44 79.1935C1423.66 80.2694 1424.13 81.2134 1424.87 82.0257C1425.62 82.8419 1426.58 83.441 1427.74 83.8228C1428.92 84.2086 1430.05 84.2928 1431.12 84.0754C1432.2 83.8579 1433.14 83.3801 1433.95 82.6418C1434.77 81.8912 1435.37 80.9337 1435.75 79.7691L1443.36 56.5277Z" fill="#5988FF"/>
<path d="M1452.36 101.472L1466.28 64.3702L1482.28 70.381C1485.03 71.4146 1487.24 72.8624 1488.9 74.7245C1490.55 76.5867 1491.58 78.7174 1491.99 81.1166C1492.4 83.5159 1492.11 86.032 1491.12 88.6649C1490.13 91.3219 1488.67 93.4006 1486.76 94.9008C1484.86 96.4056 1482.65 97.2844 1480.13 97.5373C1477.62 97.7948 1474.96 97.3931 1472.13 96.3324L1462.57 92.7422L1465.51 84.916L1473.04 87.7446C1474.23 88.1889 1475.31 88.3621 1476.3 88.2642C1477.3 88.1588 1478.17 87.8035 1478.91 87.1983C1479.66 86.5976 1480.23 85.7719 1480.62 84.7211C1481.02 83.6583 1481.13 82.6664 1480.95 81.7453C1480.79 80.8167 1480.36 79.9944 1479.67 79.2786C1478.99 78.5552 1478.06 77.9713 1476.88 77.5271L1473.33 76.1944L1462.43 105.253L1452.36 101.472Z" fill="#5988FF"/>
<path d="M1492.78 116.907L1508.21 80.4067L1523.96 87.0684C1526.66 88.2138 1528.81 89.7507 1530.38 91.6792C1531.96 93.6076 1532.91 95.7788 1533.22 98.1928C1533.53 100.607 1533.13 103.109 1532.04 105.699C1530.94 108.313 1529.4 110.33 1527.42 111.751C1525.46 113.177 1523.22 113.964 1520.69 114.114C1518.18 114.268 1515.53 113.758 1512.75 112.582L1503.35 108.603L1506.6 100.904L1514.01 104.039C1515.18 104.531 1516.25 104.749 1517.24 104.691C1518.25 104.627 1519.13 104.308 1519.89 103.733C1520.67 103.164 1521.27 102.362 1521.71 101.328C1522.15 100.283 1522.3 99.2962 1522.16 98.3686C1522.04 97.4342 1521.64 96.5951 1520.98 95.8513C1520.33 95.1007 1519.42 94.4792 1518.26 93.9869L1514.77 92.5098L1502.69 121.097L1492.78 116.907Z" fill="#5988FF"/>
<path d="M1532.55 134.028L1549.36 98.147L1559.1 102.714L1545.96 130.746L1560.46 137.548L1556.78 145.397L1532.55 134.028Z" fill="#5988FF"/>
<path d="M1566.74 150.278L1584.87 115.046L1610.25 128.122L1606.28 135.829L1590.46 127.679L1587.35 133.734L1601.86 141.211L1597.89 148.918L1583.38 141.441L1580.26 147.497L1596.01 155.611L1592.05 163.319L1566.74 150.278Z" fill="#5988FF"/>
<path d="M1638.4 143.443L1649.89 150.315L1646.28 174.307L1646.68 174.545L1666.09 160.007L1677.58 166.879L1657.25 200.892L1648.22 195.49L1659.97 175.826L1659.71 175.667L1640.54 190.537L1635.1 187.279L1639.2 163.22L1638.94 163.062L1627.11 182.858L1618.08 177.456L1638.4 143.443Z" fill="#5988FF"/>
<path d="M1676.35 213.397L1666.71 206.937L1699.61 181.289L1711.82 189.472L1700.64 229.678L1691 223.217L1699.77 194.534L1699.52 194.362L1676.35 213.397ZM1683.24 199.201L1701.37 211.347L1696.89 218.035L1678.77 205.889L1683.24 199.201Z" fill="#5988FF"/>
<path d="M1709.2 235.811L1732.67 203.89L1746.44 214.027C1748.81 215.77 1750.54 217.762 1751.63 220.005C1752.72 222.247 1753.13 224.579 1752.87 226.999C1752.61 229.418 1751.65 231.761 1749.99 234.026C1748.3 236.312 1746.34 237.917 1744.09 238.841C1741.85 239.773 1739.49 240.018 1737 239.576C1734.51 239.142 1732.06 238.031 1729.63 236.242L1721.4 230.188L1726.35 223.454L1732.83 228.224C1733.85 228.974 1734.85 229.435 1735.83 229.609C1736.82 229.781 1737.75 229.676 1738.63 229.293C1739.51 228.919 1740.29 228.28 1740.95 227.376C1741.62 226.461 1742 225.537 1742.08 224.602C1742.17 223.664 1741.99 222.757 1741.51 221.879C1741.05 220.998 1740.32 220.183 1739.3 219.434L1736.25 217.186L1717.86 242.187L1709.2 235.811Z" fill="#5988FF"/>
<path d="M1777.6 253.745C1778.33 252.674 1778.58 251.586 1778.35 250.482C1778.14 249.386 1777.35 248.293 1776 247.205C1775.13 246.511 1774.34 246.049 1773.61 245.817C1772.91 245.582 1772.28 245.537 1771.74 245.68C1771.2 245.822 1770.74 246.116 1770.37 246.561C1770.05 246.918 1769.84 247.307 1769.75 247.731C1769.68 248.152 1769.72 248.62 1769.87 249.136C1770.02 249.642 1770.29 250.204 1770.67 250.822C1771.05 251.441 1771.55 252.12 1772.16 252.86L1774.26 255.436C1775.69 257.169 1776.77 258.821 1777.51 260.391C1778.25 261.96 1778.69 263.458 1778.82 264.885C1778.96 266.301 1778.81 267.653 1778.37 268.94C1777.95 270.235 1777.27 271.476 1776.33 272.662C1774.7 274.688 1772.81 276.003 1770.67 276.606C1768.54 277.21 1766.24 277.129 1763.78 276.364C1761.33 275.607 1758.8 274.181 1756.18 272.084C1753.49 269.931 1751.47 267.654 1750.1 265.254C1748.75 262.862 1748.18 260.397 1748.39 257.859C1748.62 255.318 1749.77 252.75 1751.83 250.154L1759.8 256.541C1759.09 257.528 1758.69 258.513 1758.6 259.496C1758.51 260.479 1758.71 261.443 1759.21 262.388C1759.72 263.341 1760.51 264.245 1761.57 265.1C1762.47 265.818 1763.31 266.308 1764.09 266.57C1764.87 266.832 1765.57 266.892 1766.2 266.749C1766.83 266.606 1767.35 266.287 1767.76 265.792C1768.13 265.311 1768.3 264.773 1768.28 264.179C1768.28 263.582 1768.06 262.873 1767.61 262.051C1767.17 261.218 1766.47 260.217 1765.53 259.046L1762.98 255.914C1760.72 253.126 1759.35 250.405 1758.89 247.749C1758.44 245.092 1759.18 242.559 1761.13 240.15C1762.69 238.178 1764.59 236.881 1766.82 236.258C1769.07 235.632 1771.47 235.66 1774.01 236.343C1776.56 237.033 1779.06 238.358 1781.51 240.317C1784 242.317 1785.83 244.465 1786.98 246.76C1788.13 249.055 1788.6 251.358 1788.36 253.669C1788.15 255.978 1787.24 258.148 1785.63 260.18L1777.6 253.745Z" fill="#5988FF"/>
<path d="M1838.2 306.652C1839 305.637 1839.33 304.571 1839.19 303.453C1839.06 302.344 1838.36 301.197 1837.09 300.01C1836.27 299.255 1835.52 298.734 1834.81 298.449C1834.13 298.163 1833.51 298.072 1832.95 298.174C1832.4 298.276 1831.92 298.535 1831.52 298.951C1831.17 299.283 1830.94 299.656 1830.82 300.071C1830.72 300.486 1830.72 300.956 1830.83 301.481C1830.95 301.997 1831.17 302.578 1831.51 303.223C1831.84 303.868 1832.29 304.582 1832.84 305.366L1834.75 308.09C1836.04 309.924 1836.99 311.652 1837.62 313.272C1838.24 314.893 1838.56 316.419 1838.59 317.851C1838.62 319.274 1838.37 320.611 1837.84 321.862C1837.32 323.122 1836.55 324.309 1835.53 325.423C1833.75 327.322 1831.77 328.493 1829.6 328.936C1827.42 329.379 1825.14 329.128 1822.74 328.183C1820.36 327.246 1817.94 325.636 1815.48 323.351C1812.96 321.004 1811.11 318.583 1809.92 316.088C1808.75 313.602 1808.36 311.101 1808.77 308.586C1809.19 306.07 1810.52 303.594 1812.77 301.158L1820.24 308.119C1819.47 309.05 1818.99 310.003 1818.83 310.976C1818.66 311.95 1818.79 312.926 1819.22 313.906C1819.66 314.894 1820.38 315.854 1821.38 316.786C1822.22 317.568 1823.02 318.119 1823.78 318.438C1824.53 318.758 1825.23 318.87 1825.87 318.774C1826.5 318.678 1827.04 318.398 1827.49 317.935C1827.9 317.482 1828.11 316.959 1828.13 316.365C1828.18 315.77 1828.01 315.046 1827.62 314.193C1827.24 313.33 1826.62 312.28 1825.77 311.042L1823.46 307.729C1821.41 304.782 1820.25 301.966 1819.98 299.283C1819.73 296.6 1820.66 294.129 1822.78 291.872C1824.48 290.021 1826.47 288.868 1828.75 288.412C1831.04 287.956 1833.43 288.162 1835.91 289.031C1838.41 289.909 1840.8 291.416 1843.09 293.551C1845.43 295.731 1847.09 298.008 1848.07 300.382C1849.05 302.757 1849.34 305.088 1848.94 307.375C1848.56 309.661 1847.49 311.758 1845.73 313.665L1838.2 306.652Z" fill="#5988FF"/>
<path d="M1880.19 330.533L1887.75 338.188L1869.69 356.026C1867.55 358.147 1865.18 359.468 1862.6 359.99C1860.03 360.512 1857.42 360.281 1854.77 359.297C1852.12 358.304 1849.6 356.601 1847.22 354.187C1844.82 351.754 1843.14 349.208 1842.18 346.547C1841.23 343.877 1841.04 341.263 1841.59 338.703C1842.16 336.143 1843.52 333.803 1845.67 331.682L1863.72 313.844L1871.28 321.5L1853.88 338.685C1853.01 339.546 1852.42 340.509 1852.12 341.575C1851.82 342.631 1851.81 343.689 1852.1 344.749C1852.39 345.818 1852.97 346.789 1853.83 347.661C1854.7 348.542 1855.66 349.132 1856.72 349.431C1857.77 349.729 1858.83 349.736 1859.89 349.451C1860.96 349.156 1861.93 348.579 1862.8 347.718L1880.19 330.533Z" fill="#5988FF"/>
<path d="M1867.65 374.619L1896.99 347.99L1908.47 360.659C1910.45 362.837 1911.75 365.133 1912.37 367.547C1912.99 369.961 1912.94 372.328 1912.2 374.648C1911.47 376.969 1910.06 379.074 1907.98 380.964C1905.88 382.871 1903.64 384.054 1901.25 384.513C1898.87 384.982 1896.5 384.753 1894.15 383.825C1891.8 382.907 1889.62 381.331 1887.59 379.095L1880.73 371.528L1886.91 365.911L1892.32 371.873C1893.17 372.809 1894.06 373.46 1894.98 373.824C1895.92 374.19 1896.85 374.272 1897.79 374.07C1898.73 373.879 1899.61 373.406 1900.44 372.652C1901.28 371.889 1901.83 371.057 1902.1 370.157C1902.38 369.257 1902.37 368.33 1902.08 367.375C1901.81 366.421 1901.25 365.476 1900.4 364.54L1897.85 361.731L1874.88 382.586L1867.65 374.619Z" fill="#5988FF"/>
<path d="M1896.55 406.841L1926.95 381.437L1937.91 394.565C1939.79 396.823 1941 399.17 1941.52 401.607C1942.04 404.045 1941.89 406.408 1941.06 408.696C1940.23 410.985 1938.74 413.03 1936.59 414.833C1934.41 416.653 1932.12 417.743 1929.71 418.104C1927.32 418.475 1924.96 418.149 1922.65 417.126C1920.34 416.113 1918.22 414.448 1916.29 412.131L1909.74 404.289L1916.15 398.93L1921.31 405.109C1922.12 406.079 1922.98 406.765 1923.89 407.167C1924.81 407.571 1925.74 407.691 1926.68 407.528C1927.63 407.375 1928.53 406.939 1929.39 406.219C1930.27 405.492 1930.85 404.683 1931.15 403.794C1931.47 402.907 1931.5 401.98 1931.25 401.014C1931.01 400.05 1930.49 399.083 1929.68 398.113L1927.25 395.202L1903.44 415.098L1896.55 406.841Z" fill="#5988FF"/>
<path d="M1924.09 440.258L1955.44 416.04L1962.01 424.557L1937.52 443.477L1947.3 456.159L1940.44 461.456L1924.09 440.258Z" fill="#5988FF"/>
<path d="M1947.07 470.352L1979.3 447.315L1995.89 470.554L1988.84 475.594L1978.5 461.108L1972.96 465.068L1982.45 478.356L1975.4 483.396L1965.91 470.107L1960.37 474.066L1970.67 488.489L1963.62 493.528L1947.07 470.352Z" fill="#5988FF"/>
<path d="M2013.93 497.062L2021 508.429L2006.83 528.113L2007.07 528.507L2030.98 524.46L2038.06 535.827L2004.43 556.776L1998.87 547.84L2018.31 535.729L2018.15 535.466L1994.31 539.923L1990.96 534.536L2005.6 515.017L2005.44 514.754L1985.87 526.947L1980.31 518.011L2013.93 497.062Z" fill="#5988FF"/>
<path d="M2015.7 576.633L2010.08 566.477L2051.06 558.72L2058.18 571.585L2029.87 602.228L2024.25 592.071L2045.16 570.576L2045.01 570.305L2015.7 576.633ZM2028.32 567.163L2038.89 586.257L2031.85 590.157L2021.28 571.063L2028.32 567.163Z" fill="#5988FF"/>
<path d="M2034.68 611.598L2070.14 593.948L2077.75 609.263C2079.06 611.897 2079.69 614.459 2079.63 616.952C2079.58 619.444 2078.88 621.707 2077.54 623.74C2076.21 625.774 2074.28 627.417 2071.76 628.67C2069.23 629.934 2066.74 630.462 2064.32 630.256C2061.91 630.06 2059.69 629.196 2057.68 627.663C2055.67 626.142 2053.99 624.03 2052.65 621.327L2048.1 612.179L2055.58 608.456L2059.16 615.664C2059.73 616.795 2060.4 617.662 2061.19 618.264C2062 618.871 2062.88 619.205 2063.83 619.264C2064.78 619.336 2065.76 619.121 2066.77 618.621C2067.78 618.116 2068.54 617.465 2069.04 616.67C2069.55 615.881 2069.8 614.987 2069.78 613.989C2069.78 612.997 2069.49 611.935 2068.93 610.803L2067.24 607.407L2039.47 621.231L2034.68 611.598Z" fill="#5988FF"/>
<path d="M2087.31 658.84C2088.44 658.219 2089.17 657.366 2089.47 656.283C2089.78 655.21 2089.58 653.879 2088.87 652.29C2088.42 651.277 2087.93 650.502 2087.39 649.965C2086.87 649.435 2086.33 649.108 2085.79 648.987C2085.24 648.865 2084.7 648.917 2084.16 649.142C2083.71 649.313 2083.35 649.566 2083.08 649.901C2082.82 650.242 2082.64 650.676 2082.54 651.203C2082.45 651.724 2082.43 652.347 2082.49 653.071C2082.54 653.796 2082.67 654.627 2082.88 655.566L2083.57 658.818C2084.04 661.009 2084.25 662.973 2084.19 664.708C2084.13 666.444 2083.84 667.976 2083.3 669.304C2082.78 670.627 2082.03 671.761 2081.05 672.706C2080.08 673.664 2078.91 674.456 2077.54 675.084C2075.16 676.137 2072.88 676.443 2070.7 676.003C2068.53 675.563 2066.52 674.44 2064.68 672.634C2062.85 670.84 2061.25 668.412 2059.88 665.351C2058.48 662.206 2057.71 659.255 2057.6 656.495C2057.48 653.747 2058.1 651.294 2059.45 649.135C2060.82 646.982 2063.02 645.223 2066.03 643.857L2070.2 653.184C2069.12 653.738 2068.32 654.431 2067.79 655.262C2067.25 656.094 2066.99 657.044 2067.01 658.113C2067.02 659.194 2067.31 660.358 2067.87 661.606C2068.34 662.654 2068.86 663.474 2069.43 664.064C2070.01 664.655 2070.61 665.03 2071.23 665.19C2071.85 665.349 2072.46 665.303 2073.05 665.052C2073.6 664.792 2074 664.394 2074.26 663.856C2074.53 663.325 2074.65 662.591 2074.63 661.655C2074.62 660.713 2074.46 659.505 2074.15 658.031L2073.32 654.08C2072.58 650.566 2072.61 647.521 2073.41 644.946C2074.22 642.376 2076.04 640.466 2078.87 639.213C2081.16 638.174 2083.44 637.888 2085.71 638.356C2088 638.829 2090.12 639.951 2092.07 641.722C2094.03 643.503 2095.64 645.825 2096.92 648.687C2098.23 651.607 2098.87 654.351 2098.85 656.92C2098.82 659.489 2098.18 661.748 2096.92 663.697C2095.67 665.653 2093.87 667.166 2091.51 668.237L2087.31 658.84Z" fill="#5988FF"/>
<path d="M2117.02 733.617C2118.2 733.082 2118.98 732.285 2119.37 731.227C2119.76 730.181 2119.66 728.838 2119.07 727.2C2118.69 726.157 2118.26 725.347 2117.76 724.772C2117.28 724.204 2116.77 723.839 2116.23 723.677C2115.7 723.515 2115.15 723.526 2114.6 723.711C2114.14 723.849 2113.77 724.075 2113.47 724.388C2113.19 724.709 2112.98 725.129 2112.83 725.646C2112.7 726.16 2112.64 726.78 2112.64 727.506C2112.64 728.232 2112.71 729.071 2112.85 730.022L2113.3 733.317C2113.6 735.537 2113.67 737.511 2113.48 739.237C2113.29 740.964 2112.88 742.47 2112.25 743.754C2111.63 745.035 2110.8 746.11 2109.76 746.98C2108.72 747.863 2107.49 748.567 2106.08 749.091C2103.62 749.964 2101.33 750.1 2099.19 749.5C2097.06 748.899 2095.14 747.631 2093.44 745.693C2091.74 743.768 2090.33 741.228 2089.19 738.074C2088.02 734.834 2087.48 731.834 2087.57 729.073C2087.66 726.325 2088.46 723.924 2089.96 721.871C2091.49 719.825 2093.81 718.234 2096.92 717.096L2100.39 726.706C2099.27 727.179 2098.41 727.81 2097.82 728.6C2097.23 729.39 2096.9 730.318 2096.83 731.385C2096.77 732.464 2096.97 733.646 2097.43 734.932C2097.82 736.012 2098.28 736.868 2098.81 737.5C2099.34 738.131 2099.91 738.55 2100.52 738.755C2101.13 738.961 2101.74 738.96 2102.35 738.753C2102.91 738.535 2103.34 738.167 2103.63 737.65C2103.94 737.14 2104.12 736.418 2104.17 735.482C2104.23 734.542 2104.16 733.326 2103.96 731.833L2103.42 727.831C2102.95 724.272 2103.2 721.238 2104.19 718.729C2105.19 716.227 2107.15 714.457 2110.07 713.418C2112.43 712.552 2114.72 712.436 2116.95 713.07C2119.2 713.713 2121.23 714.989 2123.04 716.899C2124.86 718.821 2126.3 721.256 2127.36 724.205C2128.45 727.214 2128.88 729.998 2128.67 732.558C2128.46 735.118 2127.65 737.323 2126.25 739.173C2124.86 741.032 2122.95 742.407 2120.52 743.299L2117.02 733.617Z" fill="#5988FF"/>
<path d="M2143.46 774.067L2146.68 784.332L2122.47 791.935C2119.59 792.839 2116.88 792.932 2114.35 792.214C2111.83 791.505 2109.61 790.105 2107.7 788.015C2105.8 785.921 2104.34 783.256 2103.32 780.019C2102.3 776.757 2101.97 773.724 2102.33 770.919C2102.71 768.111 2103.73 765.695 2105.39 763.672C2107.07 761.658 2109.35 760.198 2112.23 759.294L2136.44 751.691L2139.66 761.956L2116.33 769.281C2115.17 769.648 2114.2 770.235 2113.44 771.042C2112.69 771.844 2112.2 772.782 2111.97 773.855C2111.74 774.941 2111.81 776.068 2112.18 777.237C2112.55 778.419 2113.14 779.384 2113.94 780.133C2114.74 780.881 2115.68 781.371 2116.75 781.602C2117.84 781.829 2118.96 781.759 2120.13 781.392L2143.46 774.067Z" fill="#5988FF"/>
<path d="M2112.16 807.536L2150.41 797.275L2154.84 813.797C2155.6 816.638 2155.71 819.274 2155.16 821.706C2154.61 824.137 2153.48 826.217 2151.76 827.945C2150.05 829.673 2147.84 830.901 2145.12 831.629C2142.38 832.364 2139.85 832.39 2137.51 831.707C2135.19 831.036 2133.19 829.749 2131.51 827.847C2129.85 825.957 2128.62 823.554 2127.84 820.638L2125.2 810.77L2133.27 808.605L2135.35 816.38C2135.68 817.602 2136.17 818.585 2136.82 819.331C2137.49 820.087 2138.29 820.588 2139.21 820.835C2140.13 821.095 2141.13 821.079 2142.22 820.789C2143.31 820.495 2144.18 820.008 2144.83 819.327C2145.49 818.656 2145.91 817.829 2146.09 816.846C2146.28 815.873 2146.21 814.776 2145.89 813.555L2144.9 809.891L2114.94 817.928L2112.16 807.536Z" fill="#5988FF"/>
<path d="M2123.13 849.413L2161.78 840.728L2165.52 857.418C2166.17 860.288 2166.16 862.926 2165.52 865.333C2164.87 867.74 2163.65 869.771 2161.87 871.428C2160.09 873.084 2157.82 874.221 2155.08 874.837C2152.31 875.459 2149.78 875.381 2147.48 874.603C2145.18 873.837 2143.23 872.469 2141.64 870.5C2140.05 868.544 2138.93 866.093 2138.26 863.147L2136.03 853.179L2144.18 851.347L2145.94 859.201C2146.22 860.434 2146.67 861.437 2147.29 862.209C2147.93 862.992 2148.7 863.525 2149.61 863.81C2150.53 864.107 2151.53 864.133 2152.62 863.887C2153.73 863.638 2154.62 863.187 2155.29 862.533C2155.98 861.89 2156.43 861.08 2156.65 860.106C2156.88 859.141 2156.86 858.042 2156.58 856.809L2155.75 853.109L2125.49 859.911L2123.13 849.413Z" fill="#5988FF"/>
<path d="M2132.35 891.731L2171.3 884.537L2173.25 895.117L2142.82 900.737L2145.73 916.493L2137.21 918.067L2132.35 891.731Z" fill="#5988FF"/>
<path d="M2139.03 929.007L2178.22 923.264L2182.36 951.524L2173.78 952.78L2171.21 935.166L2164.47 936.153L2166.84 952.312L2158.26 953.568L2155.9 937.409L2149.16 938.396L2151.73 955.934L2143.16 957.19L2139.03 929.007Z" fill="#5988FF"/>
<path d="M2186.29 983.351L2187.38 996.697L2165.78 1007.72L2165.82 1008.18L2188.93 1015.52L2190.03 1028.86L2150.55 1032.11L2149.69 1021.62L2172.51 1019.74L2172.49 1019.44L2149.25 1012.49L2148.73 1006.17L2170.67 995.509L2170.65 995.2L2147.67 997.091L2146.81 986.6L2186.29 983.351Z" fill="#5988FF"/>
<path d="M2151.5 1054.93L2151.14 1043.32L2191.13 1055.18L2191.59 1069.87L2152.4 1084.17L2152.04 1072.57L2180.46 1063.02L2180.45 1062.71L2151.5 1054.93ZM2167.05 1052.28L2167.72 1074.1L2159.68 1074.34L2159.01 1052.53L2167.05 1052.28Z" fill="#5988FF"/>
<path d="M2152.4 1094.7L2192 1095.23L2191.77 1112.34C2191.73 1115.28 2191.12 1117.84 2189.93 1120.03C2188.74 1122.22 2187.09 1123.92 2184.97 1125.11C2182.85 1126.31 2180.39 1126.89 2177.58 1126.85C2174.74 1126.82 2172.29 1126.15 2170.23 1124.86C2168.17 1123.58 2166.6 1121.8 2165.51 1119.51C2164.42 1117.24 2163.89 1114.6 2163.93 1111.58L2164.07 1101.36L2172.42 1101.47L2172.31 1109.52C2172.3 1110.79 2172.5 1111.87 2172.93 1112.76C2173.37 1113.67 2174 1114.37 2174.82 1114.86C2175.63 1115.36 2176.6 1115.62 2177.73 1115.63C2178.86 1115.65 2179.83 1115.41 2180.64 1114.94C2181.45 1114.47 2182.08 1113.79 2182.52 1112.89C2182.97 1112.01 2183.2 1110.93 2183.22 1109.67L2183.27 1105.88L2152.25 1105.46L2152.4 1094.7Z" fill="#5988FF"/>
<path d="M2177.61 1160.8C2178.91 1160.77 2179.94 1160.34 2180.7 1159.51C2181.47 1158.7 2181.9 1157.43 2182 1155.69C2182.06 1154.58 2181.97 1153.66 2181.74 1152.94C2181.52 1152.23 2181.19 1151.7 2180.76 1151.34C2180.33 1150.98 2179.82 1150.78 2179.24 1150.73C2178.77 1150.68 2178.33 1150.74 2177.94 1150.91C2177.55 1151.1 2177.19 1151.4 2176.86 1151.82C2176.54 1152.25 2176.24 1152.79 2175.96 1153.46C2175.68 1154.13 2175.41 1154.93 2175.17 1155.86L2174.3 1159.07C2173.71 1161.23 2173 1163.07 2172.16 1164.59C2171.31 1166.11 2170.35 1167.33 2169.27 1168.27C2168.19 1169.21 2167.01 1169.87 2165.71 1170.27C2164.41 1170.67 2163.01 1170.84 2161.5 1170.77C2158.9 1170.62 2156.73 1169.85 2155 1168.46C2153.27 1167.08 2152 1165.16 2151.19 1162.71C2150.38 1160.28 2150.06 1157.39 2150.24 1154.04C2150.43 1150.6 2151.1 1147.63 2152.26 1145.12C2153.41 1142.62 2155.09 1140.72 2157.27 1139.42C2159.47 1138.13 2162.23 1137.57 2165.54 1137.74L2164.98 1147.94C2163.77 1147.94 2162.74 1148.19 2161.88 1148.68C2161.03 1149.18 2160.37 1149.91 2159.89 1150.86C2159.41 1151.83 2159.13 1153 2159.06 1154.36C2159 1155.51 2159.09 1156.48 2159.33 1157.27C2159.57 1158.05 2159.93 1158.66 2160.41 1159.09C2160.89 1159.51 2161.45 1159.75 2162.09 1159.8C2162.7 1159.82 2163.24 1159.65 2163.71 1159.29C2164.19 1158.94 2164.64 1158.34 2165.05 1157.5C2165.47 1156.66 2165.88 1155.51 2166.28 1154.06L2167.34 1150.16C2168.29 1146.7 2169.71 1144.01 2171.6 1142.08C2173.5 1140.17 2175.99 1139.3 2179.08 1139.48C2181.59 1139.61 2183.75 1140.4 2185.56 1141.85C2187.37 1143.32 2188.75 1145.29 2189.67 1147.75C2190.59 1150.23 2190.97 1153.04 2190.8 1156.17C2190.63 1159.36 2189.94 1162.1 2188.75 1164.37C2187.55 1166.64 2185.95 1168.36 2183.94 1169.51C2181.94 1170.68 2179.64 1171.21 2177.05 1171.08L2177.61 1160.8Z" fill="#5988FF"/>
<path d="M2169.86 1240.89C2171.16 1240.96 2172.22 1240.61 2173.04 1239.84C2173.87 1239.09 2174.39 1237.85 2174.61 1236.12C2174.76 1235.02 2174.74 1234.1 2174.56 1233.37C2174.39 1232.64 2174.11 1232.08 2173.7 1231.69C2173.3 1231.3 2172.81 1231.06 2172.24 1230.98C2171.77 1230.89 2171.33 1230.92 2170.92 1231.06C2170.52 1231.22 2170.14 1231.49 2169.78 1231.89C2169.43 1232.29 2169.09 1232.81 2168.76 1233.45C2168.43 1234.1 2168.11 1234.88 2167.79 1235.79L2166.69 1238.92C2165.95 1241.04 2165.1 1242.82 2164.14 1244.27C2163.19 1245.72 2162.14 1246.87 2160.99 1247.73C2159.85 1248.58 2158.62 1249.16 2157.29 1249.45C2155.97 1249.76 2154.55 1249.83 2153.06 1249.65C2150.47 1249.3 2148.37 1248.37 2146.75 1246.86C2145.12 1245.35 2144 1243.34 2143.37 1240.84C2142.74 1238.36 2142.64 1235.45 2143.07 1232.12C2143.51 1228.71 2144.4 1225.79 2145.74 1223.38C2147.08 1220.97 2148.89 1219.2 2151.17 1218.07C2153.46 1216.95 2156.25 1216.59 2159.53 1217L2158.22 1227.14C2157.01 1227.04 2155.97 1227.21 2155.08 1227.65C2154.19 1228.08 2153.47 1228.75 2152.92 1229.67C2152.38 1230.6 2152.01 1231.74 2151.84 1233.1C2151.69 1234.24 2151.71 1235.21 2151.89 1236.01C2152.07 1236.82 2152.39 1237.45 2152.84 1237.91C2153.28 1238.37 2153.83 1238.65 2154.46 1238.75C2155.07 1238.81 2155.62 1238.68 2156.11 1238.36C2156.62 1238.04 2157.11 1237.48 2157.58 1236.67C2158.06 1235.86 2158.55 1234.75 2159.06 1233.33L2160.41 1229.53C2161.62 1226.14 2163.23 1223.56 2165.25 1221.78C2167.29 1220.02 2169.84 1219.34 2172.91 1219.75C2175.4 1220.06 2177.5 1221 2179.19 1222.59C2180.89 1224.19 2182.12 1226.25 2182.86 1228.78C2183.59 1231.32 2183.76 1234.15 2183.36 1237.25C2182.95 1240.43 2182.07 1243.1 2180.71 1245.28C2179.35 1247.46 2177.62 1249.05 2175.53 1250.06C2173.44 1251.07 2171.12 1251.42 2168.55 1251.1L2169.86 1240.89Z" fill="#5988FF"/>
<path d="M2174.89 1288.96L2173.06 1299.56L2148.05 1295.25C2145.08 1294.74 2142.63 1293.58 2140.7 1291.78C2138.79 1290 2137.45 1287.74 2136.71 1285.01C2135.98 1282.27 2135.9 1279.24 2136.47 1275.89C2137.05 1272.52 2138.15 1269.68 2139.75 1267.35C2141.37 1265.02 2143.38 1263.34 2145.78 1262.3C2148.2 1261.28 2150.89 1261.02 2153.86 1261.54L2178.87 1265.85L2177.04 1276.45L2152.95 1272.3C2151.74 1272.09 2150.62 1272.17 2149.57 1272.54C2148.54 1272.91 2147.68 1273.52 2146.98 1274.37C2146.28 1275.23 2145.83 1276.26 2145.62 1277.47C2145.41 1278.69 2145.49 1279.82 2145.86 1280.85C2146.24 1281.88 2146.85 1282.75 2147.69 1283.44C2148.55 1284.14 2149.59 1284.6 2150.8 1284.8L2174.89 1288.96Z" fill="#5988FF"/>
<path d="M2131.75 1304.41L2170.47 1312.78L2166.85 1329.5C2166.23 1332.38 2165.12 1334.77 2163.52 1336.68C2161.92 1338.59 2159.96 1339.92 2157.65 1340.68C2155.34 1341.43 2152.81 1341.51 2150.06 1340.91C2147.29 1340.32 2145.02 1339.18 2143.26 1337.5C2141.49 1335.84 2140.3 1333.78 2139.69 1331.33C2139.07 1328.88 2139.08 1326.18 2139.71 1323.23L2141.87 1313.25L2150.04 1315.02L2148.34 1322.88C2148.07 1324.12 2148.06 1325.22 2148.3 1326.18C2148.55 1327.16 2149.03 1327.97 2149.73 1328.61C2150.43 1329.26 2151.33 1329.71 2152.43 1329.95C2153.54 1330.19 2154.54 1330.15 2155.42 1329.84C2156.32 1329.55 2157.07 1329 2157.67 1328.21C2158.29 1327.43 2158.73 1326.43 2159 1325.19L2159.8 1321.48L2129.48 1314.92L2131.75 1304.41Z" fill="#5988FF"/>
<path d="M2122.37 1346.67L2160.71 1356.63L2156.42 1373.18C2155.68 1376.03 2154.47 1378.37 2152.79 1380.22C2151.12 1382.06 2149.11 1383.31 2146.76 1383.97C2144.42 1384.63 2141.89 1384.6 2139.17 1383.9C2136.42 1383.18 2134.21 1381.96 2132.51 1380.21C2130.82 1378.48 2129.71 1376.37 2129.2 1373.89C2128.68 1371.42 2128.8 1368.73 2129.56 1365.81L2132.12 1355.92L2140.21 1358.02L2138.19 1365.81C2137.87 1367.03 2137.81 1368.13 2138.01 1369.1C2138.22 1370.09 2138.67 1370.92 2139.35 1371.59C2140.02 1372.27 2140.9 1372.75 2141.99 1373.03C2143.09 1373.32 2144.08 1373.33 2144.98 1373.05C2145.89 1372.79 2146.66 1372.28 2147.3 1371.51C2147.95 1370.76 2148.43 1369.78 2148.75 1368.55L2149.7 1364.88L2119.67 1357.08L2122.37 1346.67Z" fill="#5988FF"/>
<path d="M2111.23 1388.52L2149.16 1399.94L2146.06 1410.24L2116.43 1401.32L2111.81 1416.66L2103.52 1414.17L2111.23 1388.52Z" fill="#5988FF"/>
<path d="M2100.14 1424.73L2137.62 1437.55L2128.38 1464.58L2120.18 1461.77L2125.94 1444.93L2119.5 1442.72L2114.22 1458.18L2106.02 1455.37L2111.3 1439.92L2104.86 1437.71L2099.13 1454.49L2090.93 1451.68L2100.14 1424.73Z" fill="#5988FF"/>
<path d="M2117.33 1494.68L2112.21 1507.05L2087.96 1506.97L2087.78 1507.4L2104.98 1524.5L2099.86 1536.87L2063.27 1521.7L2067.29 1511.97L2088.45 1520.74L2088.57 1520.46L2071.07 1503.65L2073.5 1497.79L2097.89 1498.35L2098.01 1498.06L2076.71 1489.23L2080.74 1479.51L2117.33 1494.68Z" fill="#5988FF"/>
<path d="M2053.68 1542.42L2058.66 1531.94L2088.81 1560.77L2082.5 1574.05L2041.12 1568.84L2046.1 1558.36L2075.74 1562.86L2075.87 1562.58L2053.68 1542.42ZM2068.72 1547.18L2059.35 1566.89L2052.08 1563.43L2061.46 1543.72L2068.72 1547.18Z" fill="#5988FF"/>
<path d="M2036.3 1578.2L2071.28 1596.79L2063.26 1611.9C2061.88 1614.5 2060.16 1616.5 2058.1 1617.9C2056.04 1619.3 2053.8 1620.05 2051.37 1620.15C2048.94 1620.25 2046.48 1619.64 2044 1618.32C2041.49 1616.98 2039.62 1615.27 2038.38 1613.18C2037.13 1611.1 2036.55 1608.8 2036.62 1606.27C2036.69 1603.75 2037.43 1601.15 2038.84 1598.49L2043.63 1589.46L2051.01 1593.39L2047.24 1600.49C2046.65 1601.61 2046.34 1602.67 2046.31 1603.66C2046.28 1604.67 2046.52 1605.58 2047.03 1606.38C2047.52 1607.2 2048.27 1607.88 2049.26 1608.4C2050.26 1608.94 2051.23 1609.17 2052.17 1609.12C2053.11 1609.08 2053.98 1608.76 2054.78 1608.16C2055.58 1607.58 2056.28 1606.73 2056.87 1605.61L2058.65 1602.26L2031.25 1587.71L2036.3 1578.2Z" fill="#5988FF"/>
<path d="M2028.52 1648.52C2029.68 1649.08 2030.8 1649.17 2031.86 1648.79C2032.91 1648.42 2033.87 1647.49 2034.75 1645.98C2035.31 1645.02 2035.66 1644.17 2035.78 1643.42C2035.91 1642.69 2035.86 1642.07 2035.64 1641.55C2035.42 1641.03 2035.06 1640.62 2034.57 1640.32C2034.17 1640.05 2033.76 1639.91 2033.32 1639.88C2032.9 1639.87 2032.44 1639.97 2031.95 1640.2C2031.47 1640.42 2030.96 1640.77 2030.4 1641.24C2029.85 1641.71 2029.25 1642.3 2028.6 1643.01L2026.36 1645.47C2024.86 1647.12 2023.38 1648.44 2021.94 1649.4C2020.49 1650.36 2019.07 1651.01 2017.68 1651.35C2016.3 1651.69 2014.94 1651.74 2013.61 1651.5C2012.26 1651.26 2010.94 1650.77 2009.63 1650.02C2007.39 1648.69 2005.81 1647.02 2004.91 1644.99C2004 1642.97 2003.74 1640.68 2004.14 1638.14C2004.53 1635.6 2005.58 1632.88 2007.27 1629.99C2009.01 1627.02 2010.96 1624.68 2013.14 1622.98C2015.31 1621.29 2017.66 1620.36 2020.2 1620.21C2022.75 1620.07 2025.45 1620.83 2028.32 1622.49L2023.17 1631.31C2022.09 1630.75 2021.05 1630.5 2020.07 1630.55C2019.08 1630.6 2018.16 1630.94 2017.3 1631.58C2016.43 1632.22 2015.65 1633.13 2014.96 1634.31C2014.38 1635.3 2014.02 1636.2 2013.87 1637.01C2013.73 1637.83 2013.77 1638.53 2014 1639.13C2014.23 1639.73 2014.63 1640.2 2015.18 1640.53C2015.7 1640.83 2016.26 1640.92 2016.85 1640.82C2017.44 1640.73 2018.1 1640.4 2018.85 1639.84C2019.61 1639.28 2020.5 1638.45 2021.52 1637.34L2024.25 1634.36C2026.67 1631.72 2029.17 1629.97 2031.72 1629.12C2034.29 1628.29 2036.9 1628.66 2039.57 1630.24C2041.74 1631.5 2043.3 1633.18 2044.24 1635.3C2045.19 1637.44 2045.51 1639.82 2045.21 1642.44C2044.89 1645.06 2043.95 1647.73 2042.37 1650.44C2040.75 1653.2 2038.89 1655.32 2036.79 1656.79C2034.69 1658.27 2032.48 1659.06 2030.16 1659.17C2027.85 1659.29 2025.57 1658.71 2023.33 1657.41L2028.52 1648.52Z" fill="#5988FF"/>
<path d="M1985.02 1716.21C1986.14 1716.86 1987.25 1717.03 1988.33 1716.73C1989.41 1716.44 1990.44 1715.57 1991.43 1714.14C1992.06 1713.23 1992.46 1712.4 1992.64 1711.66C1992.83 1710.94 1992.83 1710.32 1992.64 1709.78C1992.46 1709.25 1992.14 1708.81 1991.67 1708.47C1991.29 1708.18 1990.89 1708.01 1990.46 1707.95C1990.03 1707.9 1989.57 1707.97 1989.06 1708.16C1988.57 1708.35 1988.03 1708.66 1987.44 1709.09C1986.85 1709.51 1986.21 1710.05 1985.52 1710.72L1983.1 1713C1981.47 1714.54 1979.91 1715.74 1978.39 1716.59C1976.88 1717.45 1975.42 1717.99 1974.01 1718.22C1972.61 1718.46 1971.25 1718.41 1969.93 1718.07C1968.61 1717.74 1967.33 1717.15 1966.08 1716.3C1963.94 1714.81 1962.49 1713.02 1961.74 1710.94C1960.98 1708.85 1960.9 1706.55 1961.48 1704.04C1962.06 1701.54 1963.3 1698.91 1965.21 1696.15C1967.16 1693.31 1969.28 1691.13 1971.58 1689.59C1973.87 1688.07 1976.28 1687.32 1978.83 1687.35C1981.38 1687.4 1984.02 1688.36 1986.76 1690.23L1980.96 1698.65C1979.93 1698.01 1978.92 1697.68 1977.93 1697.66C1976.94 1697.64 1976 1697.91 1975.09 1698.48C1974.18 1699.05 1973.33 1699.9 1972.56 1701.03C1971.9 1701.98 1971.48 1702.85 1971.27 1703.65C1971.07 1704.44 1971.06 1705.15 1971.24 1705.77C1971.43 1706.38 1971.79 1706.88 1972.31 1707.25C1972.82 1707.59 1973.36 1707.72 1973.96 1707.66C1974.55 1707.61 1975.24 1707.34 1976.03 1706.83C1976.83 1706.33 1977.77 1705.57 1978.87 1704.54L1981.81 1701.77C1984.43 1699.32 1987.05 1697.76 1989.66 1697.1C1992.28 1696.46 1994.86 1697.03 1997.4 1698.79C1999.47 1700.21 2000.9 1702.01 2001.68 1704.2C2002.47 1706.4 2002.61 1708.79 2002.12 1711.38C2001.61 1713.98 2000.47 1716.56 1998.69 1719.15C1996.88 1721.78 1994.87 1723.75 1992.66 1725.07C1990.46 1726.38 1988.19 1727.01 1985.87 1726.95C1983.56 1726.9 1981.33 1726.15 1979.19 1724.68L1985.02 1716.21Z" fill="#5988FF"/>
<path d="M1967.52 1761.25L1961.05 1769.84L1940.79 1754.57C1938.38 1752.75 1936.73 1750.6 1935.83 1748.12C1934.95 1745.66 1934.79 1743.04 1935.38 1740.27C1935.98 1737.5 1937.29 1734.77 1939.33 1732.06C1941.39 1729.33 1943.66 1727.29 1946.16 1725.96C1948.66 1724.63 1951.21 1724.05 1953.83 1724.23C1956.44 1724.42 1958.95 1725.43 1961.36 1727.24L1981.63 1742.52L1975.16 1751.11L1955.63 1736.4C1954.65 1735.66 1953.62 1735.21 1952.52 1735.07C1951.43 1734.92 1950.38 1735.07 1949.38 1735.51C1948.36 1735.95 1947.49 1736.67 1946.75 1737.65C1946 1738.64 1945.56 1739.67 1945.42 1740.76C1945.28 1741.85 1945.43 1742.9 1945.86 1743.91C1946.31 1744.92 1947.02 1745.8 1948 1746.53L1967.52 1761.25Z" fill="#5988FF"/>
<path d="M1922.11 1755.26L1952.71 1780.42L1941.85 1793.63C1939.98 1795.9 1937.9 1797.52 1935.61 1798.49C1933.31 1799.46 1930.96 1799.75 1928.56 1799.36C1926.16 1798.97 1923.87 1797.88 1921.7 1796.1C1919.51 1794.3 1918.01 1792.25 1917.21 1789.95C1916.4 1787.67 1916.28 1785.29 1916.86 1782.82C1917.42 1780.37 1918.66 1777.97 1920.58 1775.64L1927.06 1767.75L1933.52 1773.06L1928.41 1779.27C1927.61 1780.25 1927.09 1781.22 1926.87 1782.19C1926.64 1783.17 1926.7 1784.11 1927.03 1785C1927.36 1785.91 1927.96 1786.72 1928.82 1787.43C1929.7 1788.15 1930.6 1788.57 1931.53 1788.7C1932.46 1788.85 1933.38 1788.71 1934.28 1788.28C1935.18 1787.87 1936.03 1787.18 1936.84 1786.2L1939.24 1783.27L1915.28 1763.57L1922.11 1755.26Z" fill="#5988FF"/>
<path d="M1894.45 1788.55L1923.99 1814.94L1912.61 1827.7C1910.65 1829.9 1908.5 1831.43 1906.17 1832.3C1903.83 1833.18 1901.48 1833.37 1899.09 1832.88C1896.71 1832.4 1894.47 1831.22 1892.37 1829.34C1890.26 1827.45 1888.85 1825.34 1888.14 1823.02C1887.42 1820.7 1887.4 1818.32 1888.08 1815.88C1888.74 1813.45 1890.08 1811.11 1892.09 1808.86L1898.89 1801.24L1905.12 1806.8L1899.77 1812.81C1898.92 1813.75 1898.37 1814.7 1898.1 1815.66C1897.84 1816.63 1897.86 1817.57 1898.15 1818.48C1898.44 1819.39 1899.01 1820.22 1899.84 1820.97C1900.69 1821.73 1901.57 1822.19 1902.5 1822.36C1903.42 1822.54 1904.34 1822.44 1905.26 1822.05C1906.18 1821.68 1907.06 1821.02 1907.9 1820.08L1910.43 1817.25L1887.29 1796.58L1894.45 1788.55Z" fill="#5988FF"/>
<path d="M1865.41 1820.67L1893.92 1848.18L1886.46 1855.93L1864.18 1834.43L1853.07 1845.97L1846.83 1839.95L1865.41 1820.67Z" fill="#5988FF"/>
<path d="M1839 1847.8L1866.47 1876.35L1845.91 1896.16L1839.9 1889.91L1852.72 1877.57L1847.99 1872.66L1836.24 1883.99L1830.23 1877.74L1841.99 1866.41L1837.26 1861.51L1824.5 1873.8L1818.49 1867.55L1839 1847.8Z" fill="#5988FF"/>
<path d="M1822.32 1917.87L1812.11 1926.53L1790.58 1915.36L1790.23 1915.66L1797.71 1938.74L1787.5 1947.4L1761.89 1917.17L1769.92 1910.36L1784.72 1927.84L1784.96 1927.64L1777.08 1904.69L1781.92 1900.59L1803.35 1912.24L1803.59 1912.04L1788.69 1894.45L1796.71 1887.64L1822.32 1917.87Z" fill="#5988FF"/>
<path d="M1743.9 1931.21L1753.12 1924.17L1766.76 1963.61L1755.07 1972.53L1720.65 1948.96L1729.87 1941.92L1754.17 1959.48L1754.42 1959.3L1743.9 1931.21ZM1755.1 1942.32L1737.76 1955.57L1732.87 1949.17L1750.22 1935.92L1755.1 1942.32Z" fill="#5988FF"/>
<path d="M1712.09 1955.08L1734.7 1987.62L1720.66 1997.38C1718.25 1999.06 1715.81 2000.05 1713.33 2000.36C1710.86 2000.67 1708.52 2000.31 1706.32 1999.28C1704.11 1998.25 1702.21 1996.59 1700.6 1994.28C1698.98 1991.95 1698.1 1989.57 1697.95 1987.14C1697.79 1984.72 1698.32 1982.4 1699.55 1980.19C1700.76 1977.98 1702.6 1976.01 1705.08 1974.29L1713.46 1968.45L1718.23 1975.31L1711.63 1979.91C1710.59 1980.63 1709.83 1981.43 1709.35 1982.3C1708.87 1983.18 1708.67 1984.1 1708.75 1985.05C1708.82 1986.01 1709.17 1986.95 1709.81 1987.87C1710.46 1988.8 1711.21 1989.46 1712.07 1989.83C1712.93 1990.23 1713.85 1990.34 1714.83 1990.18C1715.81 1990.03 1716.82 1989.59 1717.86 1988.87L1720.97 1986.71L1703.26 1961.22L1712.09 1955.08Z" fill="#5988FF"/>
<path d="M1673.03 2014.06C1673.81 2015.09 1674.76 2015.68 1675.87 2015.83C1676.98 2015.98 1678.27 2015.59 1679.74 2014.65C1680.67 2014.06 1681.36 2013.45 1681.82 2012.84C1682.27 2012.25 1682.51 2011.68 1682.55 2011.12C1682.59 2010.55 1682.46 2010.03 1682.16 2009.53C1681.93 2009.11 1681.63 2008.79 1681.25 2008.57C1680.88 2008.37 1680.42 2008.25 1679.89 2008.22C1679.36 2008.21 1678.74 2008.28 1678.03 2008.44C1677.32 2008.6 1676.52 2008.85 1675.62 2009.2L1672.51 2010.35C1670.41 2011.14 1668.5 2011.63 1666.77 2011.83C1665.05 2012.02 1663.49 2011.95 1662.1 2011.61C1660.72 2011.29 1659.49 2010.71 1658.41 2009.88C1657.32 2009.06 1656.37 2008.02 1655.55 2006.75C1654.16 2004.55 1653.52 2002.33 1653.64 2000.12C1653.76 1997.9 1654.58 1995.75 1656.1 1993.67C1657.6 1991.59 1659.77 1989.66 1662.6 1987.86C1665.51 1986.01 1668.31 1984.82 1671.02 1984.3C1673.73 1983.79 1676.24 1984.05 1678.57 1985.07C1680.9 1986.11 1682.96 1988.03 1684.75 1990.82L1676.13 1996.3C1675.43 1995.31 1674.63 1994.62 1673.73 1994.21C1672.83 1993.81 1671.85 1993.69 1670.79 1993.85C1669.73 1994.03 1668.62 1994.48 1667.47 1995.22C1666.5 1995.83 1665.76 1996.47 1665.26 1997.12C1664.76 1997.78 1664.48 1998.43 1664.41 1999.06C1664.34 1999.7 1664.48 2000.3 1664.81 2000.85C1665.15 2001.35 1665.6 2001.69 1666.17 2001.87C1666.74 2002.06 1667.48 2002.07 1668.4 2001.91C1669.33 2001.77 1670.5 2001.43 1671.92 2000.92L1675.7 1999.51C1679.07 1998.27 1682.08 1997.86 1684.75 1998.27C1687.41 1998.71 1689.56 2000.23 1691.21 2002.85C1692.57 2004.97 1693.19 2007.18 1693.05 2009.5C1692.92 2011.83 1692.12 2014.09 1690.65 2016.28C1689.17 2018.48 1687.11 2020.41 1684.47 2022.1C1681.77 2023.81 1679.15 2024.85 1676.61 2025.2C1674.06 2025.55 1671.74 2025.24 1669.63 2024.28C1667.51 2023.33 1665.75 2021.77 1664.35 2019.59L1673.03 2014.06Z" fill="#5988FF"/>
<path d="M1603.41 2054.36C1604.12 2055.44 1605.02 2056.1 1606.12 2056.33C1607.21 2056.56 1608.52 2056.27 1610.06 2055.45C1611.03 2054.92 1611.77 2054.37 1612.27 2053.8C1612.76 2053.24 1613.05 2052.68 1613.13 2052.13C1613.21 2051.57 1613.12 2051.03 1612.86 2050.52C1612.65 2050.08 1612.38 2049.74 1612.02 2049.49C1611.66 2049.26 1611.22 2049.11 1610.69 2049.05C1610.16 2048.99 1609.54 2049.02 1608.82 2049.13C1608.1 2049.23 1607.28 2049.43 1606.36 2049.7L1603.17 2050.62C1601.02 2051.25 1599.08 2051.6 1597.34 2051.67C1595.61 2051.73 1594.06 2051.55 1592.7 2051.11C1591.34 2050.68 1590.16 2050.01 1589.14 2049.11C1588.12 2048.21 1587.24 2047.09 1586.52 2045.77C1585.3 2043.47 1584.83 2041.22 1585.11 2039.01C1585.4 2036.81 1586.37 2034.73 1588.04 2032.77C1589.7 2030.81 1592 2029.04 1594.96 2027.45C1597.99 2025.82 1600.88 2024.85 1603.62 2024.53C1606.35 2024.22 1608.84 2024.67 1611.09 2025.86C1613.34 2027.07 1615.25 2029.13 1616.82 2032.05L1607.83 2036.88C1607.2 2035.84 1606.45 2035.09 1605.58 2034.62C1604.71 2034.14 1603.75 2033.95 1602.68 2034.04C1601.61 2034.14 1600.47 2034.51 1599.26 2035.15C1598.25 2035.7 1597.47 2036.27 1596.92 2036.89C1596.38 2037.51 1596.05 2038.13 1595.93 2038.76C1595.82 2039.4 1595.91 2040 1596.2 2040.57C1596.5 2041.1 1596.92 2041.47 1597.48 2041.69C1598.03 2041.92 1598.77 2041.99 1599.7 2041.9C1600.64 2041.82 1601.83 2041.58 1603.28 2041.17L1607.16 2040.05C1610.61 2039.06 1613.64 2038.87 1616.27 2039.48C1618.89 2040.11 1620.92 2041.79 1622.38 2044.53C1623.58 2046.74 1624.02 2048.99 1623.72 2051.29C1623.41 2053.61 1622.45 2055.81 1620.82 2057.88C1619.19 2059.96 1616.99 2061.74 1614.23 2063.22C1611.41 2064.73 1608.72 2065.57 1606.16 2065.73C1603.59 2065.89 1601.3 2065.41 1599.26 2064.29C1597.22 2063.19 1595.59 2061.5 1594.35 2059.22L1603.41 2054.36Z" fill="#5988FF"/>
<path d="M1567.27 2086.41L1557.58 2091.09L1546.54 2068.23C1545.23 2065.51 1544.74 2062.85 1545.08 2060.23C1545.42 2057.63 1546.48 2055.24 1548.27 2053.04C1550.06 2050.85 1552.49 2049.02 1555.54 2047.55C1558.61 2046.06 1561.57 2045.29 1564.39 2045.24C1567.22 2045.21 1569.76 2045.86 1572 2047.21C1574.24 2048.58 1576.01 2050.63 1577.33 2053.34L1588.37 2076.2L1578.69 2080.88L1568.05 2058.86C1567.52 2057.76 1566.8 2056.89 1565.89 2056.25C1564.99 2055.63 1563.99 2055.28 1562.89 2055.21C1561.79 2055.14 1560.68 2055.38 1559.58 2055.91C1558.46 2056.45 1557.6 2057.17 1556.97 2058.07C1556.35 2058.98 1556 2059.98 1555.93 2061.07C1555.86 2062.18 1556.09 2063.28 1556.63 2064.39L1567.27 2086.41Z" fill="#5988FF"/>
<path d="M1529.61 2060.3L1545.33 2096.67L1529.64 2103.46C1526.94 2104.63 1524.35 2105.11 1521.86 2104.92C1519.38 2104.73 1517.16 2103.92 1515.2 2102.47C1513.24 2101.03 1511.7 2099.02 1510.59 2096.43C1509.46 2093.83 1509.07 2091.32 1509.4 2088.91C1509.73 2086.51 1510.71 2084.34 1512.35 2082.41C1513.97 2080.49 1516.17 2078.93 1518.94 2077.73L1528.31 2073.67L1531.63 2081.35L1524.24 2084.54C1523.08 2085.04 1522.18 2085.67 1521.54 2086.43C1520.89 2087.2 1520.51 2088.06 1520.4 2089.01C1520.28 2089.96 1520.44 2090.95 1520.88 2091.98C1521.33 2093.02 1521.94 2093.81 1522.71 2094.35C1523.47 2094.91 1524.35 2095.2 1525.35 2095.24C1526.34 2095.29 1527.41 2095.06 1528.57 2094.56L1532.05 2093.05L1519.74 2064.56L1529.61 2060.3Z" fill="#5988FF"/>
<path d="M1489.8 2077.25L1504.01 2114.24L1488.06 2120.38C1485.31 2121.44 1482.7 2121.82 1480.23 2121.53C1477.76 2121.23 1475.57 2120.33 1473.67 2118.8C1471.77 2117.28 1470.32 2115.21 1469.31 2112.58C1468.3 2109.93 1468 2107.41 1468.44 2105.02C1468.86 2102.63 1469.93 2100.51 1471.65 2098.64C1473.35 2096.79 1475.61 2095.32 1478.42 2094.23L1487.96 2090.57L1490.95 2098.37L1483.44 2101.26C1482.27 2101.71 1481.34 2102.3 1480.67 2103.03C1479.99 2103.78 1479.57 2104.62 1479.42 2105.56C1479.26 2106.51 1479.38 2107.51 1479.78 2108.55C1480.19 2109.61 1480.77 2110.43 1481.51 2111C1482.25 2111.59 1483.11 2111.92 1484.11 2111.99C1485.1 2112.08 1486.18 2111.9 1487.36 2111.45L1490.9 2110.08L1479.77 2081.11L1489.8 2077.25Z" fill="#5988FF"/>
<path d="M1449.3 2092.54L1462.08 2130.04L1451.91 2133.52L1441.92 2104.21L1426.76 2109.38L1423.97 2101.18L1449.3 2092.54Z" fill="#5988FF"/>
<path d="M1413.41 2104.58L1424.8 2142.54L1397.45 2150.74L1394.96 2142.44L1412.01 2137.32L1410.05 2130.8L1394.42 2135.49L1391.93 2127.19L1407.56 2122.5L1405.6 2115.97L1388.64 2121.07L1386.15 2112.76L1413.41 2104.58Z" fill="#5988FF"/>
<path d="M1366.55 2159.26L1353.52 2162.29L1339.48 2142.51L1339.02 2142.62L1335.13 2166.56L1322.09 2169.59L1313.14 2130.99L1323.39 2128.61L1328.56 2150.93L1328.87 2150.86L1332.35 2126.84L1338.53 2125.41L1352.26 2145.58L1352.56 2145.51L1347.35 2123.04L1357.6 2120.66L1366.55 2159.26Z" fill="#5988FF"/>
<path d="M1290.71 2135.25L1302.14 2133.2L1296.24 2174.52L1281.77 2177.1L1261.93 2140.4L1273.35 2138.35L1286.93 2165.09L1287.24 2165.04L1290.71 2135.25ZM1295.6 2150.26L1274.12 2154.1L1272.71 2146.17L1294.18 2142.33L1295.6 2150.26Z" fill="#5988FF"/>
<path d="M1251.51 2141.92L1256.76 2181.2L1239.81 2183.47C1236.9 2183.86 1234.27 2183.62 1231.93 2182.76C1229.59 2181.9 1227.68 2180.51 1226.18 2178.59C1224.69 2176.67 1223.76 2174.31 1223.39 2171.53C1223.01 2168.71 1223.31 2166.19 1224.29 2163.97C1225.25 2161.74 1226.79 2159.93 1228.89 2158.51C1230.98 2157.1 1233.52 2156.2 1236.51 2155.8L1246.63 2154.44L1247.73 2162.73L1239.76 2163.8C1238.51 2163.96 1237.47 2164.32 1236.64 2164.88C1235.81 2165.44 1235.21 2166.17 1234.85 2167.05C1234.47 2167.93 1234.36 2168.93 1234.51 2170.04C1234.66 2171.17 1235.03 2172.09 1235.62 2172.82C1236.2 2173.56 1236.96 2174.09 1237.91 2174.39C1238.85 2174.71 1239.95 2174.78 1241.2 2174.61L1244.96 2174.11L1240.85 2143.35L1251.51 2141.92Z" fill="#5988FF"/>
<path d="M1189.83 2176.51C1190.05 2177.78 1190.62 2178.74 1191.55 2179.38C1192.46 2180.02 1193.79 2180.26 1195.52 2180.1C1196.62 2180 1197.52 2179.78 1198.2 2179.45C1198.87 2179.13 1199.35 2178.72 1199.64 2178.24C1199.93 2177.76 1200.06 2177.23 1200.02 2176.66C1200 2176.18 1199.88 2175.75 1199.65 2175.39C1199.41 2175.03 1199.06 2174.72 1198.59 2174.45C1198.13 2174.2 1197.55 2173.98 1196.84 2173.8C1196.14 2173.62 1195.31 2173.47 1194.36 2173.37L1191.06 2172.97C1188.83 2172.71 1186.91 2172.27 1185.28 2171.66C1183.66 2171.04 1182.31 2170.27 1181.22 2169.33C1180.14 2168.41 1179.31 2167.33 1178.73 2166.1C1178.14 2164.87 1177.77 2163.51 1177.62 2162.01C1177.39 2159.41 1177.84 2157.15 1178.96 2155.24C1180.08 2153.32 1181.79 2151.78 1184.09 2150.63C1186.38 2149.47 1189.19 2148.74 1192.53 2148.43C1195.96 2148.11 1198.99 2148.35 1201.64 2149.13C1204.28 2149.91 1206.4 2151.29 1208 2153.26C1209.6 2155.25 1210.55 2157.9 1210.87 2161.2L1200.7 2162.13C1200.53 2160.93 1200.13 2159.95 1199.52 2159.17C1198.9 2158.4 1198.09 2157.85 1197.07 2157.51C1196.05 2157.18 1194.85 2157.08 1193.49 2157.2C1192.35 2157.31 1191.4 2157.54 1190.66 2157.89C1189.92 2158.24 1189.37 2158.69 1189.02 2159.23C1188.66 2159.77 1188.51 2160.36 1188.56 2161C1188.63 2161.6 1188.87 2162.11 1189.3 2162.52C1189.71 2162.95 1190.37 2163.31 1191.26 2163.59C1192.16 2163.88 1193.35 2164.12 1194.84 2164.31L1198.85 2164.79C1202.41 2165.23 1205.28 2166.24 1207.46 2167.83C1209.63 2169.43 1210.85 2171.77 1211.12 2174.86C1211.36 2177.36 1210.89 2179.61 1209.72 2181.61C1208.53 2183.62 1206.79 2185.27 1204.48 2186.54C1202.17 2187.82 1199.45 2188.6 1196.33 2188.89C1193.14 2189.18 1190.34 2188.9 1187.92 2188.05C1185.5 2187.2 1183.57 2185.86 1182.13 2184.04C1180.68 2182.23 1179.83 2180.03 1179.58 2177.45L1189.83 2176.51Z" fill="#5988FF"/>
</svg>
