<svg width="219" height="223" viewBox="0 0 219 223" fill="none" xmlns="http://www.w3.org/2000/svg">
<path d="M144.73 203.209C145.346 204.349 146.197 205.076 147.282 205.389C148.355 205.708 149.691 205.516 151.29 204.814C152.308 204.367 153.088 203.876 153.63 203.342C154.165 202.825 154.496 202.292 154.621 201.743C154.747 201.194 154.698 200.651 154.475 200.114C154.306 199.667 154.055 199.305 153.721 199.028C153.38 198.769 152.946 198.586 152.418 198.479C151.896 198.384 151.271 198.362 150.545 198.413C149.818 198.464 148.984 198.591 148.041 198.793L144.776 199.466C142.575 199.924 140.605 200.12 138.864 200.052C137.124 199.984 135.59 199.677 134.261 199.132C132.938 198.599 131.805 197.841 130.863 196.859C129.908 195.881 129.121 194.704 128.499 193.326C127.458 190.934 127.165 188.651 127.62 186.476C128.074 184.302 129.213 182.3 131.035 180.47C132.845 178.645 135.289 177.057 138.368 175.704C141.53 174.316 144.494 173.571 147.263 173.47C150.019 173.373 152.475 174.008 154.633 175.374C156.783 176.757 158.534 178.965 159.885 181.996L150.507 186.115C149.958 185.03 149.268 184.219 148.437 183.681C147.606 183.143 146.655 182.877 145.583 182.882C144.499 182.893 143.33 183.174 142.075 183.725C141.021 184.188 140.196 184.705 139.6 185.277C139.004 185.849 138.624 186.446 138.461 187.068C138.297 187.69 138.339 188.299 138.588 188.896C138.845 189.446 139.242 189.85 139.779 190.107C140.31 190.382 141.046 190.51 141.985 190.493C142.929 190.487 144.142 190.335 145.622 190.038L149.589 189.227C153.117 188.509 156.171 188.558 158.749 189.372C161.32 190.203 163.226 192.04 164.464 194.881C165.492 197.18 165.765 199.465 165.283 201.737C164.794 204.025 163.656 206.14 161.869 208.081C160.07 210.028 157.732 211.633 154.854 212.897C151.918 214.187 149.161 214.812 146.586 214.772C144.01 214.733 141.748 214.076 139.801 212.801C137.847 211.543 136.34 209.729 135.281 207.359L144.73 203.209Z" fill="#5988FF"/>
<path d="M86.2415 219.206L75.5938 217.466L79.709 192.392C80.1983 189.41 81.3367 186.947 83.1242 185.002C84.8968 183.068 87.1506 181.716 89.8857 180.946C92.6188 180.189 95.6641 180.085 99.0219 180.634C102.405 181.187 105.271 182.257 107.619 183.845C109.965 185.445 111.669 187.444 112.731 189.841C113.778 192.249 114.056 194.944 113.567 197.926L109.452 223L98.8043 221.26L102.769 197.103C102.968 195.892 102.877 194.765 102.498 193.722C102.116 192.692 101.497 191.832 100.64 191.142C99.7705 190.451 98.7292 190.006 97.5163 189.807C96.2907 189.607 95.1616 189.697 94.129 190.078C93.0964 190.459 92.2346 191.077 91.5437 191.932C90.8506 192.8 90.4048 193.839 90.2061 195.049L86.2415 219.206Z" fill="#5988FF"/>
<path d="M74.3493 174.249L47.5727 203.558L34.896 192.024C32.7163 190.041 31.2013 187.876 30.351 185.53C29.5007 183.184 29.3319 180.82 29.8444 178.438C30.357 176.057 31.5634 173.826 33.4635 171.746C35.3811 169.647 37.51 168.256 39.8502 167.573C42.1809 166.88 44.5667 166.885 47.0076 167.586C49.4389 168.278 51.7731 169.642 54.0101 171.677L61.5817 178.566L55.9335 184.749L49.968 179.321C49.0312 178.468 48.0847 177.904 47.1287 177.628C46.1544 177.353 45.2115 177.36 44.2999 177.649C43.3788 177.929 42.5391 178.484 41.7808 179.314C41.0137 180.154 40.5416 181.035 40.3645 181.957C40.1691 182.879 40.2622 183.803 40.6438 184.727C41.007 185.651 41.6571 186.54 42.594 187.392L45.4047 189.949L66.3762 166.995L74.3493 174.249Z" fill="#5988FF"/>
<path d="M46.3967 145.63L8.11586 156.288L3.50565 139.799C2.71294 136.963 2.58008 134.326 3.10706 131.887C3.63403 129.449 4.74796 127.356 6.44885 125.609C8.14973 123.862 10.3584 122.61 13.075 121.854C15.8164 121.09 18.3607 121.039 20.7076 121.699C23.0511 122.346 25.0709 123.614 26.7669 125.501C28.4595 127.375 29.7126 129.767 30.5261 132.677L33.2798 142.526L25.2049 144.775L23.0354 137.015C22.6947 135.796 22.1925 134.817 21.5289 134.076C20.8494 133.327 20.0466 132.834 19.1204 132.596C18.1908 132.345 17.1839 132.371 16.0998 132.673C15.0032 132.978 14.1347 133.475 13.4942 134.162C12.8378 134.841 12.4256 135.673 12.2578 136.658C12.074 137.634 12.1525 138.731 12.4932 139.95L13.5154 143.606L43.497 135.258L46.3967 145.63Z" fill="#5988FF"/>
<path d="M38.4838 106.455L0 96.5506L2.69432 86.1241L32.7598 93.8618L36.7722 78.3346L45.1905 80.5011L38.4838 106.455Z" fill="#5988FF"/>
<path d="M48.9739 73.2677L20.1498 45.9616L39.8696 25.2303L46.1749 31.2036L33.8834 44.1255L38.8376 48.8187L50.1136 36.9642L56.4189 42.9375L45.1428 54.7919L50.0969 59.4851L62.335 46.6194L68.6402 52.5926L48.9739 73.2677Z" fill="#5988FF"/>
<path d="M92.8914 0L106.301 0.72289L114.31 23.6522L114.775 23.6772L125.213 1.74246L138.622 2.46535L136.478 42.0695L125.937 41.5012L127.176 18.6051L126.866 18.5884L116.808 40.6987L110.452 40.3561L102.847 17.1383L102.537 17.1216L101.289 40.1724L90.7476 39.6042L92.8914 0Z" fill="#5988FF"/>
<path d="M152.154 53.7418L143.66 45.7936L180.415 25.8169L191.173 35.8846L173.557 73.7712L165.064 65.823L178.421 38.9242L178.194 38.7123L152.154 53.7418ZM161.294 40.8437L177.261 55.7863L171.739 61.663L155.772 46.7204L161.294 40.8437Z" fill="#5988FF"/>
<path d="M176.061 80.8722L214.894 72.4344L218.544 89.1622C219.171 92.0385 219.151 94.6788 218.484 97.0832C217.817 99.4876 216.584 101.513 214.785 103.159C212.986 104.805 210.709 105.928 207.953 106.526C205.172 107.131 202.629 107.036 200.324 106.242C198.022 105.46 196.079 104.079 194.495 102.098C192.913 100.129 191.801 97.6685 191.157 94.7166L188.977 84.7253L197.168 82.9455L198.886 90.8174C199.155 92.0537 199.6 93.0603 200.22 93.8374C200.855 94.6243 201.628 95.1633 202.539 95.4543C203.452 95.7579 204.459 95.7902 205.559 95.5512C206.671 95.3095 207.567 94.8638 208.246 94.2141C208.941 93.5743 209.4 92.7676 209.625 91.7939C209.865 90.83 209.85 89.73 209.58 88.4937L208.771 84.7848L178.357 91.3933L176.061 80.8722Z" fill="#5988FF"/>
<path d="M200.726 149.7C201.978 150.04 203.092 149.925 204.067 149.355C205.038 148.798 205.818 147.699 206.409 146.059C206.786 145.014 206.966 144.112 206.951 143.352C206.944 142.608 206.784 142.002 206.472 141.534C206.16 141.065 205.732 140.726 205.188 140.518C204.747 140.332 204.31 140.264 203.879 140.316C203.456 140.383 203.024 140.571 202.583 140.88C202.154 141.192 201.708 141.629 201.245 142.19C200.782 142.751 200.299 143.442 199.797 144.264L198.037 147.09C196.855 148.998 195.64 150.558 194.392 151.771C193.144 152.983 191.865 153.882 190.554 154.469C189.255 155.059 187.924 155.357 186.562 155.362C185.194 155.379 183.796 155.138 182.368 154.639C179.913 153.745 178.052 152.385 176.785 150.558C175.518 148.732 174.847 146.53 174.773 143.951C174.693 141.384 175.223 138.522 176.36 135.363C177.529 132.119 179.029 129.46 180.862 127.388C182.69 125.327 184.843 123.986 187.321 123.366C189.807 122.762 192.617 123.016 195.75 124.126L192.284 133.748C191.118 133.399 190.053 133.339 189.09 133.57C188.127 133.801 187.279 134.306 186.544 135.085C185.806 135.877 185.204 136.916 184.74 138.204C184.351 139.285 184.159 140.239 184.164 141.064C184.169 141.889 184.342 142.575 184.681 143.122C185.02 143.669 185.492 144.057 186.096 144.288C186.673 144.481 187.24 144.472 187.797 144.26C188.362 144.065 188.962 143.622 189.596 142.93C190.242 142.242 190.967 141.261 191.77 139.985L193.913 136.555C195.821 133.508 197.959 131.332 200.326 130.027C202.701 128.739 205.347 128.625 208.265 129.685C210.643 130.525 212.492 131.901 213.81 133.814C215.135 135.744 215.888 138.024 216.068 140.654C216.244 143.297 215.8 146.094 214.737 149.046C213.651 152.059 212.207 154.484 210.405 156.321C208.602 158.158 206.567 159.341 204.3 159.873C202.041 160.42 199.685 160.262 197.234 159.396L200.726 149.7Z" fill="#5988FF"/>
</svg>
