<svg width="385" height="384" viewBox="0 0 385 384" fill="none" xmlns="http://www.w3.org/2000/svg">
<path d="M353.729 271.757C354.944 272.198 356.058 272.175 357.072 271.689C358.081 271.214 358.946 270.185 359.667 268.602C360.126 267.593 360.38 266.71 360.428 265.953C360.482 265.212 360.373 264.596 360.102 264.104C359.831 263.612 359.434 263.239 358.912 262.987C358.489 262.766 358.062 262.663 357.631 262.678C357.205 262.711 356.761 262.862 356.299 263.133C355.847 263.409 355.369 263.807 354.863 264.327C354.357 264.847 353.822 265.495 353.256 266.271L351.277 268.938C349.947 270.739 348.614 272.192 347.276 273.296C345.938 274.4 344.595 275.189 343.246 275.664C341.91 276.145 340.565 276.332 339.213 276.225C337.855 276.129 336.488 275.775 335.112 275.161C332.751 274.069 331.017 272.562 329.911 270.64C328.805 268.719 328.321 266.472 328.459 263.9C328.592 261.339 329.353 258.534 330.742 255.485C332.168 252.353 333.875 249.831 335.864 247.919C337.847 246.02 340.094 244.863 342.603 244.45C345.118 244.054 347.884 244.537 350.901 245.9L346.67 255.189C345.542 254.745 344.491 254.598 343.517 254.749C342.542 254.899 341.659 255.332 340.866 256.047C340.068 256.773 339.386 257.758 338.82 259.002C338.345 260.046 338.075 260.978 338.013 261.8C337.95 262.621 338.064 263.318 338.356 263.89C338.647 264.462 339.083 264.888 339.663 265.167C340.219 265.407 340.783 265.444 341.353 265.279C341.93 265.132 342.561 264.74 343.247 264.104C343.945 263.473 344.744 262.556 345.646 261.352L348.054 258.116C350.198 255.241 352.498 253.252 354.954 252.149C357.416 251.062 360.05 251.166 362.857 252.462C365.147 253.493 366.867 255.014 368.016 257.027C369.172 259.056 369.731 261.387 369.693 264.019C369.65 266.662 368.979 269.409 367.681 272.26C366.356 275.169 364.724 277.463 362.785 279.142C360.845 280.821 358.729 281.832 356.437 282.174C354.15 282.533 351.827 282.181 349.467 281.117L353.729 271.757Z" fill="#5988FF"/>
<path d="M334.294 321.958L327.307 330.122L308.062 313.617C305.773 311.654 304.262 309.408 303.529 306.877C302.796 304.365 302.809 301.744 303.566 299.016C304.334 296.296 305.819 293.649 308.023 291.075C310.243 288.48 312.636 286.595 315.203 285.418C317.78 284.25 320.364 283.836 322.956 284.175C325.55 284.532 327.991 285.692 330.279 287.655L349.524 304.16L342.537 312.325L323.997 296.423C323.068 295.626 322.06 295.119 320.975 294.901C319.9 294.692 318.847 294.773 317.816 295.145C316.777 295.527 315.859 296.183 315.063 297.113C314.259 298.053 313.752 299.061 313.543 300.138C313.334 301.215 313.415 302.269 313.787 303.301C314.169 304.341 314.824 305.259 315.753 306.056L334.294 321.958Z" fill="#5988FF"/>
<path d="M289.5 310.987L311.238 344.073L296.972 353.467C294.519 355.082 292.055 356.01 289.578 356.252C287.102 356.494 284.776 356.074 282.6 354.992C280.425 353.909 278.566 352.194 277.023 349.846C275.466 347.477 274.646 345.078 274.561 342.65C274.465 340.228 275.056 337.926 276.334 335.742C277.601 333.565 279.493 331.648 282.01 329.991L290.531 324.38L295.116 331.359L288.403 335.78C287.349 336.474 286.571 337.248 286.069 338.103C285.564 338.976 285.338 339.888 285.393 340.84C285.437 341.798 285.767 342.746 286.383 343.683C287.006 344.631 287.741 345.304 288.588 345.702C289.432 346.119 290.347 346.257 291.334 346.116C292.317 345.994 293.335 345.585 294.39 344.891L297.553 342.808L280.527 316.895L289.5 310.987Z" fill="#5988FF"/>
<path d="M254.005 332.725L266.061 370.442L249.798 375.651C247.002 376.547 244.379 376.778 241.928 376.345C239.478 375.912 237.35 374.881 235.545 373.253C233.741 371.625 232.411 369.473 231.555 366.797C230.692 364.095 230.545 361.564 231.115 359.202C231.673 356.844 232.86 354.786 234.677 353.026C236.482 351.27 238.82 349.933 241.689 349.014L251.403 345.902L253.946 353.858L246.293 356.31C245.091 356.695 244.134 357.231 243.421 357.92C242.7 358.625 242.238 359.443 242.035 360.374C241.82 361.309 241.883 362.31 242.225 363.379C242.57 364.459 243.098 365.305 243.807 365.917C244.508 366.545 245.353 366.924 246.341 367.054C247.32 367.201 248.411 367.082 249.613 366.696L253.219 365.541L243.776 336.001L254.005 332.725Z" fill="#5988FF"/>
<path d="M213.845 343.871L216.003 383.413L205.28 384L203.594 353.108L187.625 353.981L187.152 345.331L213.845 343.871Z" fill="#5988FF"/>
<path d="M177.519 344.766L169.971 383.64L141.985 378.193L143.636 369.69L161.08 373.085L162.377 366.403L146.375 363.289L148.026 354.785L164.029 357.9L165.326 351.218L147.958 347.838L149.61 339.335L177.519 344.766Z" fill="#5988FF"/>
<path d="M100.976 362.813L90.0428 355.115L95.4115 331.473L95.0324 331.206L74.6228 344.259L63.6897 336.561L86.4457 304.169L95.0405 310.22L81.8847 328.947L82.1375 329.125L102.32 315.723L107.502 319.372L101.64 343.044L101.892 343.222L115.137 324.369L123.732 330.42L100.976 362.813Z" fill="#5988FF"/>
<path d="M73.2516 287.829L79.9639 297.287L40.1543 309.567L31.652 297.588L56.3366 263.995L63.0489 273.453L44.6942 297.135L44.8732 297.387L73.2516 287.829ZM61.7821 298.643L49.1629 280.863L55.7131 276.204L68.3322 293.984L61.7821 298.643Z" fill="#5988FF"/>
<path d="M52.8767 255.754L15.3819 268.375L9.94008 252.173C9.00438 249.387 8.73488 246.765 9.13158 244.306C9.52828 241.846 10.5264 239.702 12.126 237.871C13.7256 236.041 15.8558 234.678 18.5166 233.782C21.2017 232.878 23.7279 232.694 26.0952 233.23C28.4583 233.754 30.532 234.912 32.3161 236.705C34.0962 238.486 35.4664 240.806 36.4267 243.665L39.677 253.343L31.768 256.005L29.2071 248.38C28.8049 247.183 28.2548 246.233 27.5566 245.529C26.8421 244.818 26.0184 244.367 25.0854 244.178C24.1483 243.977 23.1489 244.055 22.087 244.412C21.0129 244.774 20.1755 245.314 19.5747 246.033C18.9576 246.744 18.5913 247.595 18.4758 248.586C18.344 249.569 18.4792 250.659 18.8814 251.856L20.088 255.449L49.454 245.564L52.8767 255.754Z" fill="#5988FF"/>
<path d="M12.644 195.961C11.3635 196.131 10.3857 196.666 9.71062 197.566C9.0349 198.454 8.74244 199.766 8.83324 201.504C8.89108 202.611 9.07353 203.512 9.38056 204.206C9.67407 204.888 10.0546 205.384 10.5222 205.695C10.9897 206.006 11.5132 206.153 12.0925 206.136C12.5697 206.136 12.9961 206.03 13.3718 205.817C13.7339 205.591 14.0579 205.252 14.3436 204.798C14.6165 204.345 14.8573 203.771 15.066 203.075C15.2746 202.38 15.4509 201.558 15.5947 200.608L16.1196 197.328C16.4682 195.115 16.9811 193.21 17.6584 191.612C18.3357 190.015 19.1629 188.694 20.1398 187.649C21.1039 186.604 22.2104 185.817 23.4592 185.287C24.7074 184.744 26.0834 184.426 27.5873 184.335C30.1855 184.212 32.4184 184.747 34.286 185.94C36.1535 187.133 37.6192 188.902 38.683 191.247C39.7462 193.58 40.3652 196.419 40.5401 199.767C40.7197 203.204 40.3685 206.23 39.4864 208.845C38.6037 211.447 37.1449 213.511 35.11 215.038C33.0615 216.552 30.3852 217.402 27.0811 217.588L26.5484 207.392C27.7538 207.265 28.7538 206.909 29.5486 206.325C30.3433 205.741 30.9273 204.949 31.3005 203.949C31.6731 202.935 31.8237 201.746 31.7524 200.382C31.6926 199.236 31.501 198.284 31.1778 197.527C30.8545 196.769 30.4317 196.204 29.9093 195.831C29.387 195.458 28.804 195.282 28.1603 195.303C27.5566 195.347 27.0398 195.575 26.6099 195.984C26.1665 196.382 25.7873 197.021 25.4723 197.903C25.1444 198.785 24.8581 199.968 24.6133 201.453L23.9704 205.436C23.3947 208.978 22.2723 211.805 20.6033 213.919C18.9208 216.021 16.5361 217.146 13.4492 217.295C10.9424 217.439 8.71489 216.885 6.76681 215.631C4.80521 214.366 3.23429 212.557 2.05405 210.205C0.873142 207.84 0.200966 205.093 0.0375207 201.965C-0.129287 198.772 0.260096 195.983 1.20567 193.597C2.15124 191.211 3.56195 189.336 5.43778 187.973C7.30007 186.598 9.52324 185.836 12.1073 185.688L12.644 195.961Z" fill="#5988FF"/>
<path d="M32.2354 110.275C31.027 109.818 29.9125 109.826 28.8922 110.299C27.8774 110.761 26.999 111.778 26.2571 113.352C25.7844 114.355 25.5193 115.234 25.4615 115.991C25.3977 116.731 25.4981 117.348 25.7628 117.844C26.0275 118.34 26.4191 118.717 26.9376 118.976C27.3575 119.203 27.7833 119.312 28.2151 119.302C28.6408 119.275 29.0868 119.129 29.5531 118.865C30.0078 118.595 30.4914 118.204 31.0039 117.69C31.5165 117.177 32.0607 116.536 32.6365 115.767L34.6503 113.127C36.0038 111.343 37.3565 109.908 38.7086 108.822C40.0606 107.736 41.414 106.964 42.7688 106.507C44.1119 106.044 45.4589 105.875 46.8096 106C48.1658 106.113 49.5279 106.486 50.8959 107.118C53.2427 108.241 54.9565 109.77 56.0373 111.706C57.118 113.642 57.5723 115.895 57.4002 118.465C57.2336 121.024 56.4359 123.818 55.007 126.849C53.5397 129.962 51.7992 132.461 49.7856 134.346C47.7775 136.22 45.5162 137.347 43.0019 137.727C40.4814 138.09 37.722 137.57 34.7237 136.168L39.0763 126.935C40.1984 127.394 41.2476 127.554 42.2237 127.417C43.1998 127.279 44.0888 126.858 44.8908 126.154C45.6982 125.438 46.3932 124.462 46.9758 123.226C47.4649 122.189 47.7462 121.26 47.8198 120.439C47.8933 119.619 47.7882 118.92 47.5044 118.344C47.2206 117.768 46.7903 117.337 46.2136 117.05C45.6607 116.803 45.0981 116.758 44.5257 116.916C43.9471 117.056 43.3106 117.439 42.6163 118.066C41.9104 118.688 41.0986 119.594 40.181 120.786L37.7307 123.99C35.5488 126.836 33.223 128.795 30.7531 129.866C28.2771 130.92 25.6444 130.781 22.8551 129.449C20.5788 128.388 18.8791 126.843 17.7559 124.816C16.6266 122.772 16.0984 120.434 16.1712 117.803C16.2494 115.16 16.9563 112.422 18.2918 109.589C19.6547 106.698 21.3168 104.425 23.2781 102.772C25.2393 101.119 27.3685 100.136 29.6655 99.8242C31.9563 99.4953 34.2748 99.878 36.621 100.972L32.2354 110.275Z" fill="#5988FF"/>
<path d="M52.3297 60.3355L59.4236 52.2637L78.4496 69.0216C80.7118 71.0141 82.1932 73.2804 82.8937 75.8205C83.5931 78.3424 83.546 80.9623 82.7524 83.6802C81.9492 86.3896 80.4291 89.017 78.192 91.5624C75.938 94.1271 73.52 95.9808 70.9379 97.1234C68.3461 98.2575 65.7564 98.6379 63.1688 98.2646C60.58 97.8731 58.1545 96.6811 55.8922 94.6886L36.8662 77.9307L43.96 69.859L62.29 86.0037C63.2084 86.8127 64.2088 87.3332 65.2911 87.5654C66.3637 87.789 67.4178 87.7215 68.4533 87.363C69.4973 86.9947 70.4233 86.3509 71.2313 85.4314C72.0479 84.5023 72.5678 83.5008 72.7912 82.427C73.0146 81.3532 72.9472 80.2979 72.5891 79.2613C72.2212 78.2162 71.5781 77.2892 70.6597 76.4802L52.3297 60.3355Z" fill="#5988FF"/>
<path d="M96.9762 71.8959L75.6752 38.5264L90.063 29.3218C92.5369 27.7392 95.0136 26.8431 97.4931 26.6338C99.9726 26.4244 102.293 26.8752 104.454 27.9864C106.615 29.0975 108.451 30.8371 109.963 33.2051C111.488 35.5948 112.277 38.0043 112.33 40.4334C112.394 42.8556 111.773 45.1501 110.467 47.3168C109.171 49.4766 107.254 51.3687 104.715 52.993L96.1211 58.4907L91.6279 51.4519L98.3986 47.1203C99.462 46.4401 100.25 45.6758 100.763 44.8275C101.28 43.9614 101.517 43.0523 101.475 42.1003C101.443 41.1413 101.126 40.1893 100.523 39.2443C99.9127 38.2884 99.1864 37.6056 98.3442 37.1959C97.5059 36.7684 96.5926 36.6184 95.6042 36.7458C94.6198 36.8555 93.5959 37.2504 92.5326 37.9307L89.3425 39.9715L106.026 66.1066L96.9762 71.8959Z" fill="#5988FF"/>
<path d="M132.754 50.6289L121.195 12.756L137.524 7.76131C140.332 6.90249 142.958 6.70581 145.403 7.17126C147.847 7.63671 149.961 8.69528 151.744 10.347C153.528 11.9987 154.829 14.1683 155.65 16.8559C156.477 19.5682 156.591 22.1013 155.99 24.4553C155.401 26.8056 154.186 28.8485 152.346 30.584C150.519 32.3157 148.164 33.6223 145.282 34.5037L135.529 37.487L133.091 29.4981L140.775 27.1477C141.982 26.7786 142.946 26.2545 143.668 25.5754C144.398 24.8802 144.871 24.0684 145.086 23.1401C145.313 22.2079 145.263 21.2055 144.936 20.133C144.604 19.0481 144.088 18.195 143.387 17.5738C142.694 16.9365 141.855 16.5462 140.869 16.403C139.891 16.2438 138.799 16.3487 137.592 16.7179L133.971 17.8253L143.024 47.4875L132.754 50.6289Z" fill="#5988FF"/>
<path d="M173.057 40.0125L171.419 0.445204L182.149 0L183.428 30.9119L199.408 30.2489L199.766 38.9043L173.057 40.0125Z" fill="#5988FF"/>
<path d="M209.391 39.5952L217.451 0.824578L245.362 6.63947L243.599 15.1205L226.202 11.4961L224.816 18.1598L240.777 21.4848L239.014 29.9659L223.053 26.6408L221.668 33.3045L238.99 36.9132L237.227 45.3943L209.391 39.5952Z" fill="#5988FF"/>
<path d="M286.165 22.56L296.996 30.401L291.317 53.9704L291.693 54.2423L312.272 41.46L323.103 49.301L299.923 81.3907L291.408 75.2267L304.809 56.6748L304.559 56.4935L284.202 69.6278L279.068 65.9113L285.242 42.3179L284.991 42.1366L271.5 60.8138L262.985 54.6498L286.165 22.56Z" fill="#5988FF"/>
<path d="M312.901 97.9026L306.313 88.3571L346.281 76.6021L354.625 88.6931L329.501 121.957L322.913 112.412L341.578 88.9738L341.402 88.7192L312.901 97.9026ZM324.511 87.24L336.896 105.186L330.285 109.758L317.901 91.8123L324.511 87.24Z" fill="#5988FF"/>
<path d="M332.851 130.243L370.509 118.117L375.737 134.389C376.636 137.187 376.871 139.813 376.442 142.267C376.013 144.721 374.987 146.852 373.363 148.661C371.74 150.471 369.592 151.805 366.919 152.666C364.223 153.534 361.694 153.685 359.334 153.118C356.978 152.563 354.92 151.377 353.16 149.561C351.403 147.757 350.064 145.419 349.141 142.547L346.018 132.828L353.961 130.27L356.422 137.928C356.808 139.13 357.346 140.088 358.035 140.801C358.74 141.521 359.557 141.983 360.488 142.184C361.422 142.398 362.423 142.333 363.489 141.989C364.568 141.642 365.412 141.113 366.023 140.402C366.649 139.699 367.026 138.853 367.155 137.864C367.3 136.883 367.179 135.791 366.792 134.588L365.633 130.981L336.14 140.478L332.851 130.243Z" fill="#5988FF"/>
<path d="M372.294 190.561C373.577 190.408 374.562 189.886 375.249 188.994C375.936 188.116 376.246 186.807 376.178 185.068C376.134 183.961 375.964 183.058 375.666 182.36C375.382 181.674 375.008 181.173 374.544 180.856C374.081 180.539 373.559 180.385 372.98 180.395C372.503 180.387 372.075 180.488 371.696 180.696C371.331 180.917 371.003 181.252 370.711 181.703C370.432 182.152 370.184 182.723 369.966 183.415C369.748 184.108 369.561 184.928 369.405 185.875L368.837 189.149C368.459 191.357 367.921 193.255 367.223 194.843C366.525 196.432 365.681 197.742 364.69 198.774C363.712 199.806 362.595 200.578 361.34 201.092C360.084 201.618 358.704 201.917 357.199 201.989C354.6 202.078 352.374 201.514 350.523 200.296C348.671 199.079 347.229 197.29 346.196 194.931C345.163 192.585 344.582 189.737 344.451 186.388C344.316 182.949 344.707 179.928 345.624 177.324C346.541 174.734 348.027 172.689 350.081 171.19C352.15 169.703 354.837 168.888 358.143 168.745L358.542 178.947C357.335 179.059 356.33 179.402 355.528 179.975C354.725 180.548 354.131 181.332 353.745 182.328C353.359 183.337 353.192 184.524 353.246 185.889C353.291 187.035 353.47 187.989 353.783 188.751C354.096 189.513 354.511 190.084 355.029 190.463C355.546 190.843 356.127 191.027 356.771 191.014C357.375 190.978 357.895 190.758 358.33 190.354C358.779 189.962 359.166 189.327 359.493 188.45C359.832 187.573 360.134 186.393 360.398 184.912L361.094 180.937C361.716 177.404 362.875 174.591 364.572 172.499C366.282 170.42 368.681 169.326 371.77 169.218C374.278 169.107 376.498 169.691 378.43 170.97C380.375 172.261 381.922 174.091 383.071 176.458C384.221 178.839 384.857 181.594 384.979 184.724C385.104 187.918 384.678 190.702 383.701 193.076C382.724 195.449 381.289 197.305 379.395 198.643C377.515 199.994 375.282 200.727 372.696 200.841L372.294 190.561Z" fill="#5988FF"/>
</svg>
