<svg width="549" height="547" viewBox="0 0 549 547" fill="none" xmlns="http://www.w3.org/2000/svg">
<path d="M26.5492 356.648C25.3728 357.186 24.593 357.985 24.2098 359.046C23.8221 360.094 23.9257 361.437 24.5206 363.075C24.8996 364.119 25.3374 364.928 25.8342 365.503C26.3145 366.07 26.824 366.434 27.3626 366.595C27.9012 366.756 28.4453 366.743 28.9949 366.557C29.452 366.418 29.8293 366.191 30.1267 365.877C30.4075 365.554 30.6184 365.134 30.7594 364.616C30.8882 364.101 30.951 363.481 30.9476 362.754C30.9443 362.027 30.8727 361.187 30.7327 360.235L30.2765 356.939C29.9636 354.717 29.898 352.741 30.0796 351.013C30.2613 349.284 30.6671 347.776 31.2971 346.488C31.9149 345.205 32.7443 344.126 33.7851 343.253C34.8215 342.367 36.0463 341.659 37.4595 341.131C39.9113 340.251 42.2056 340.11 44.3425 340.705C46.4794 341.301 48.3998 342.566 50.1039 344.501C51.8036 346.424 53.2262 348.963 54.3719 352.118C55.5484 355.359 56.0966 358.36 56.0163 361.124C55.9316 363.876 55.1382 366.281 53.6359 368.34C52.1171 370.391 49.803 371.989 46.6936 373.136L43.2037 363.524C44.3205 363.049 45.1741 362.415 45.7645 361.623C46.3548 360.831 46.6825 359.901 46.7474 358.833C46.8079 357.753 46.6046 356.569 46.1375 355.283C45.7454 354.203 45.2838 353.347 44.7529 352.716C44.2219 352.085 43.6519 351.668 43.0428 351.464C42.4337 351.26 41.824 351.262 41.2138 351.47C40.6488 351.69 40.2203 352.059 39.9284 352.578C39.6201 353.088 39.4439 353.812 39.3999 354.749C39.3437 355.69 39.4154 356.907 39.6148 358.401L40.1636 362.406C40.6473 365.967 40.3991 369.005 39.4189 371.519C38.4222 374.026 36.4677 375.803 33.5555 376.85C31.1973 377.723 28.9025 377.844 26.6709 377.214C24.4227 376.577 22.3899 375.304 20.5724 373.397C18.7505 371.477 17.3041 369.043 16.2334 366.094C15.1406 363.085 14.6982 360.298 14.9062 357.735C15.1143 355.173 15.9171 352.963 17.3148 351.107C18.6959 349.244 20.6019 347.863 23.0328 346.963L26.5492 356.648Z" fill="#5988FF"/>
<path d="M2.91589 310.644L1.16869 300.018L26.2035 295.888C29.1802 295.397 31.8735 295.686 34.2834 296.754C36.6786 297.812 38.6761 299.511 40.276 301.851C41.8632 304.194 42.9323 307.04 43.4833 310.391C44.0385 313.768 43.9394 316.821 43.1859 319.549C42.4198 322.28 41.0717 324.531 39.1417 326.302C37.1968 328.062 34.7361 329.188 31.7594 329.679L6.72453 333.809L4.97733 323.182L29.0963 319.204C30.3047 319.004 31.342 318.558 32.2081 317.866C33.0615 317.175 33.6778 316.315 34.057 315.284C34.4342 314.24 34.5233 313.113 34.3242 311.902C34.1231 310.679 33.6779 309.64 32.9886 308.785C32.2993 307.931 31.44 307.313 30.4106 306.933C29.3686 306.556 28.2433 306.466 27.0348 306.666L2.91589 310.644Z" fill="#5988FF"/>
<path d="M39.5952 282.76L0 281.872L0.382573 264.754C0.448355 261.81 1.08592 259.248 2.29528 257.066C3.50463 254.884 5.17347 253.204 7.3018 252.025C9.43012 250.845 11.8992 250.287 14.709 250.35C17.5446 250.414 19.9858 251.101 22.0327 252.413C24.0799 253.712 25.6387 255.51 26.7093 257.807C27.7802 260.092 28.2818 262.744 28.2143 265.765L27.9858 275.99L19.6337 275.803L19.8137 267.747C19.842 266.482 19.647 265.399 19.2287 264.498C18.7977 263.584 18.1752 262.879 17.3609 262.383C16.547 261.874 15.5794 261.607 14.458 261.582C13.3238 261.556 12.3516 261.78 11.5415 262.253C10.7188 262.712 10.0847 263.389 9.63918 264.283C9.18105 265.164 8.93784 266.237 8.90957 267.502L8.82474 271.298L39.8359 271.993L39.5952 282.76Z" fill="#5988FF"/>
<path d="M41.4988 240.453L2.70177 232.48L6.13757 215.707C6.72834 212.823 7.81357 210.416 9.39328 208.486C10.973 206.557 12.9152 205.203 15.2199 204.424C17.5246 203.645 20.0536 203.539 22.8068 204.105C25.5852 204.676 27.8641 205.79 29.6435 207.447C31.4255 209.092 32.6378 211.141 33.2805 213.593C33.9258 216.032 33.9453 218.732 33.339 221.692L31.2868 231.711L23.1031 230.029L24.7199 222.136C24.9739 220.896 24.9755 219.796 24.7249 218.835C24.4643 217.858 23.9777 217.053 23.2653 216.419C22.5555 215.772 21.6513 215.336 20.5525 215.11C19.4411 214.882 18.4447 214.927 17.5632 215.247C16.6717 215.552 15.9269 216.104 15.3288 216.904C14.7206 217.688 14.2895 218.7 14.0356 219.94L13.2738 223.659L43.6598 229.903L41.4988 240.453Z" fill="#5988FF"/>
<path d="M51.1145 199.154L14.2051 184.769L18.1041 174.733L46.9396 185.971L52.7461 171.024L60.82 174.171L51.1145 199.154Z" fill="#5988FF"/>
<path d="M65.2252 164.947L31.1378 144.75L45.6707 120.143L53.1273 124.561L44.0689 139.899L49.9276 143.37L58.2377 129.299L65.6943 133.718L57.3843 147.788L63.243 151.26L72.262 135.989L79.7186 140.407L65.2252 164.947Z" fill="#5988FF"/>
<path d="M69.0486 88.7345L78.7651 79.5178L100.874 89.4921L101.211 89.1724L92.4692 66.5184L102.186 57.3016L129.419 86.1046L121.78 93.3501L106.036 76.6984L105.812 76.9115L114.94 99.4117L110.335 103.78L88.2943 93.3146L88.0696 93.5277L103.92 110.292L96.2818 117.537L69.0486 88.7345Z" fill="#5988FF"/>
<path d="M147.593 74.2725L137.6 80.1801L128.726 39.3621L141.383 31.8792L172.773 59.3854L162.781 65.293L140.732 44.9498L140.466 45.1073L147.593 74.2725ZM137.785 61.8973L156.57 50.791L160.659 57.7301L141.874 68.8365L137.785 61.8973Z" fill="#5988FF"/>
<path d="M181.582 55.7514L168.405 18.3422L184.526 12.6449C187.298 11.6653 189.916 11.3562 192.381 11.7174C194.846 12.0787 197.006 13.0477 198.86 14.6245C200.714 16.2012 202.109 18.3169 203.044 20.9716C203.988 23.6507 204.209 26.181 203.708 28.5626C203.22 30.94 202.092 33.0365 200.325 34.8521C198.571 36.6634 196.271 38.0718 193.427 39.0772L183.798 42.4801L181.018 34.5891L188.604 31.908C189.796 31.4869 190.738 30.9212 191.431 30.2107C192.132 29.4837 192.57 28.651 192.745 27.7127C192.933 26.7701 192.84 25.7691 192.467 24.7096C192.089 23.638 191.537 22.8063 190.809 22.2146C190.089 21.6064 189.232 21.2517 188.24 21.1506C187.255 21.0331 186.167 21.1848 184.975 21.6059L181.401 22.869L191.722 52.1681L181.582 55.7514Z" fill="#5988FF"/>
<path d="M238.525 12.2513C238.219 10.9927 237.582 10.075 236.615 9.49813C235.66 8.91926 234.324 8.76802 232.605 9.0444C231.511 9.22047 230.635 9.49867 229.977 9.87902C229.331 10.2446 228.878 10.6771 228.619 11.1766C228.359 11.676 228.269 12.2137 228.348 12.7895C228.398 13.2653 228.55 13.6791 228.802 14.0309C229.065 14.3679 229.437 14.6546 229.919 14.891C230.399 15.1146 230.996 15.2933 231.709 15.4271C232.423 15.5608 233.259 15.6486 234.219 15.6904L237.537 15.8629C239.775 15.9739 241.724 16.2816 243.385 16.7862C245.046 17.2907 246.448 17.9741 247.592 18.8365C248.733 19.6861 249.634 20.7051 250.295 21.8937C250.968 23.0802 251.431 24.4182 251.683 25.9079C252.083 28.4855 251.79 30.7691 250.803 32.7588C249.816 34.7485 248.214 36.3991 245.995 37.7107C243.789 39.0202 241.032 39.9411 237.722 40.4734C234.323 41.02 231.277 40.9934 228.582 40.3936C225.9 39.7917 223.692 38.5578 221.956 36.6921C220.231 34.8115 219.1 32.2339 218.562 28.9592L228.644 27.3377C228.899 28.526 229.36 29.4851 230.025 30.2151C230.691 30.9451 231.541 31.4427 232.576 31.7079C233.624 31.971 234.822 31.994 236.171 31.777C237.304 31.5948 238.23 31.302 238.949 30.8987C239.668 30.4953 240.184 30.0133 240.499 29.4526C240.814 28.8919 240.927 28.2918 240.837 27.6522C240.729 27.055 240.448 26.564 239.994 26.1792C239.551 25.7796 238.875 25.4698 237.965 25.25C237.053 25.0174 235.846 24.8585 234.343 24.7731L230.313 24.5581C226.73 24.3627 223.799 23.546 221.518 22.1079C219.248 20.6551 217.874 18.3976 217.397 15.3356C216.985 12.8514 217.299 10.5711 218.337 8.49466C219.386 6.40341 221.016 4.64362 223.229 3.21528C225.455 1.7849 228.114 0.820964 231.207 0.323472C234.364 -0.184256 237.179 -0.0942793 239.653 0.593402C242.127 1.28108 244.141 2.48723 245.698 4.21183C247.264 5.92163 248.26 8.05687 248.683 10.6176L238.525 12.2513Z" fill="#5988FF"/>
<path d="M323.586 14.3795C323.699 13.089 323.389 12.0153 322.658 11.1584C321.938 10.3036 320.721 9.73137 319.005 9.4416C317.911 9.25701 316.992 9.23939 316.248 9.38874C315.519 9.5275 314.951 9.79182 314.546 10.1817C314.14 10.5716 313.883 11.0519 313.774 11.6228C313.669 12.0896 313.68 12.5302 313.806 12.9444C313.948 13.348 314.209 13.7391 314.59 14.1177C314.973 14.4835 315.481 14.8443 316.114 15.2C316.747 15.5557 317.511 15.9074 318.407 16.2551L321.495 17.4836C323.579 18.3069 325.327 19.2241 326.739 20.2351C328.151 21.2461 329.26 22.3435 330.068 23.5275C330.877 24.6987 331.405 25.9533 331.65 27.2912C331.909 28.6312 331.919 30.0472 331.681 31.5392C331.235 34.1092 330.227 36.1783 328.655 37.7463C327.084 39.3144 325.038 40.3636 322.517 40.8939C320.009 41.4264 317.102 41.4136 313.796 40.8555C310.402 40.2824 307.525 39.2793 305.164 37.8462C302.816 36.4153 301.119 34.5376 300.072 32.2132C299.04 29.8782 298.792 27.0733 299.33 23.7986L309.399 25.4986C309.261 26.7063 309.391 27.7627 309.788 28.6678C310.184 29.5729 310.83 30.3171 311.726 30.9005C312.634 31.4859 313.762 31.8924 315.11 32.12C316.241 32.311 317.212 32.3308 318.022 32.1795C318.832 32.0281 319.475 31.7374 319.953 31.3073C320.431 30.8773 320.729 30.345 320.849 29.7104C320.937 29.1098 320.828 28.5545 320.522 28.0444C320.23 27.5237 319.689 27.0132 318.897 26.5129C318.107 25.9998 317.015 25.4618 315.619 24.8987L311.87 23.4015C308.539 22.0664 306.023 20.3517 304.323 18.2575C302.637 16.1527 302.058 13.5733 302.585 10.5194C302.99 8.03421 304.017 5.97475 305.664 4.34102C307.327 2.69671 309.435 1.55316 311.988 0.910394C314.554 0.26977 317.381 0.210251 320.47 0.731834C323.623 1.26415 326.261 2.253 328.384 3.6984C330.508 5.14379 332.03 6.93305 332.953 9.06617C333.89 11.1887 334.149 13.5308 333.731 16.0924L323.586 14.3795Z" fill="#5988FF"/>
<path d="M375.197 16.4782L385.288 20.1974L376.526 44.0472C375.484 46.8829 373.905 49.0873 371.789 50.6601C369.689 52.2253 367.228 53.1277 364.406 53.3674C361.589 53.5949 358.589 53.1222 355.407 51.9494C352.201 50.7677 349.599 49.1756 347.601 47.1733C345.607 45.1588 344.317 42.874 343.731 40.3188C343.161 37.7559 343.397 35.0566 344.439 32.2208L353.201 8.37105L363.292 12.0902L354.85 35.0674C354.427 36.2187 354.303 37.3424 354.477 38.4386C354.656 39.5227 355.1 40.4843 355.808 41.3232C356.528 42.1667 357.463 42.8002 358.613 43.2239C359.774 43.652 360.896 43.7765 361.979 43.5975C363.061 43.4185 364.021 42.9743 364.858 42.2648C365.701 41.5432 366.333 40.6067 366.756 39.4555L375.197 16.4782Z" fill="#5988FF"/>
<path d="M381.321 62.1904L401.623 28.1289L416.301 36.906C418.825 38.4151 420.736 40.2346 422.034 42.3644C423.332 44.4942 423.969 46.7771 423.943 49.2132C423.918 51.6494 423.184 54.076 421.744 56.4931C420.29 58.9324 418.489 60.7203 416.34 61.8567C414.202 62.9998 411.872 63.4711 409.348 63.2708C406.836 63.0771 404.285 62.2057 401.695 60.6569L392.927 55.4145L397.21 48.2296L404.117 52.36C405.202 53.0087 406.239 53.3729 407.227 53.4526C408.234 53.5279 409.153 53.3332 409.985 52.8685C410.829 52.4104 411.538 51.699 412.113 50.7344C412.695 49.7587 412.98 48.8013 412.969 47.8624C412.976 46.9189 412.701 46.0326 412.144 45.2034C411.605 44.3697 410.793 43.6285 409.708 42.9798L406.454 41.0337L390.554 67.7108L381.321 62.1904Z" fill="#5988FF"/>
<path d="M417.125 84.7169L443.186 54.8455L456.058 66.1126C458.272 68.05 459.827 70.1827 460.723 72.5108C461.62 74.839 461.838 77.1991 461.378 79.5913C460.917 81.9835 459.762 84.2395 457.913 86.3593C456.046 88.4985 453.955 89.9345 451.637 90.6673C449.33 91.4086 446.953 91.4545 444.506 90.805C442.069 90.164 439.715 88.8493 437.443 86.861L429.755 80.1313L435.252 73.8304L441.31 79.1325C442.261 79.9652 443.216 80.5094 444.174 80.7651C445.151 81.0196 446.09 80.9929 446.992 80.6849C447.904 80.3855 448.729 79.8128 449.467 78.9668C450.213 78.1111 450.665 77.2204 450.822 76.2947C450.997 75.3677 450.885 74.4463 450.486 73.5307C450.104 72.6137 449.438 71.7389 448.486 70.9062L445.632 68.4081L425.221 91.8034L417.125 84.7169Z" fill="#5988FF"/>
<path d="M448.25 113.466L478.948 88.4021L485.742 96.7498L461.758 116.331L471.875 128.762L465.16 134.245L448.25 113.466Z" fill="#5988FF"/>
<path d="M470.998 142.633L505.352 122.895L519.555 147.695L512.039 152.012L503.187 136.555L497.282 139.947L505.403 154.128L497.888 158.446L489.767 144.265L483.863 147.657L492.676 163.048L485.161 167.365L470.998 142.633Z" fill="#5988FF"/>
<path d="M535.302 183.557L538.514 196.569L518.946 210.912L519.058 211.363L543.044 214.921L546.256 227.933L507.808 237.454L505.283 227.225L527.511 221.721L527.436 221.42L503.393 218.276L501.87 212.108L521.831 198.066L521.757 197.765L499.379 203.307L496.854 193.078L535.302 183.557Z" fill="#5988FF"/>
<path d="M509.119 259.125L508.917 247.505L548.744 259.906L549 274.625L509.628 288.408L509.426 276.787L537.97 267.611L537.964 267.301L509.119 259.125ZM524.705 256.683L525.085 278.529L517.041 278.669L516.661 256.824L524.705 256.683Z" fill="#5988FF"/>
<path d="M508.44 297.875L547.429 304.845L544.425 321.702C543.909 324.6 542.886 327.034 541.356 329.004C539.826 330.973 537.92 332.377 535.636 333.215C533.352 334.053 530.826 334.224 528.059 333.73C525.267 333.23 522.961 332.175 521.139 330.564C519.316 328.966 518.051 326.949 517.345 324.514C516.638 322.092 516.549 319.394 517.079 316.419L518.873 306.351L527.097 307.821L525.684 315.754C525.462 317 525.488 318.1 525.764 319.054C526.049 320.023 526.556 320.816 527.285 321.431C528.011 322.06 528.926 322.472 530.03 322.67C531.147 322.87 532.142 322.798 533.015 322.456C533.898 322.128 534.629 321.557 535.206 320.742C535.794 319.942 536.199 318.919 536.421 317.673L537.087 313.936L506.551 308.477L508.44 297.875Z" fill="#5988FF"/>
<path d="M518.131 368.946C519.375 369.3 520.487 369.198 521.465 368.639C522.438 368.093 523.229 367.003 523.836 365.37C524.223 364.329 524.414 363.429 524.408 362.668C524.409 361.925 524.257 361.317 523.951 360.844C523.645 360.372 523.223 360.028 522.684 359.813C522.246 359.622 521.812 359.55 521.382 359.596C520.959 359.659 520.527 359.842 520.084 360.145C519.653 360.453 519.203 360.885 518.735 361.441C518.267 361.996 517.778 362.682 517.268 363.498L515.482 366.304C514.282 368.199 513.053 369.745 511.796 370.943C510.538 372.141 509.253 373.026 507.94 373.597C506.639 374.173 505.31 374.455 503.952 374.445C502.589 374.446 501.199 374.189 499.781 373.674C497.345 372.751 495.506 371.369 494.265 369.528C493.024 367.687 492.381 365.476 492.336 362.897C492.287 360.329 492.847 357.472 494.017 354.326C495.219 351.095 496.745 348.453 498.595 346.401C500.44 344.362 502.601 343.046 505.078 342.454C507.562 341.879 510.358 342.164 513.468 343.311L509.903 352.895C508.745 352.531 507.685 352.46 506.723 352.679C505.76 352.899 504.909 353.394 504.168 354.165C503.423 354.948 502.812 355.981 502.335 357.264C501.934 358.341 501.732 359.292 501.727 360.117C501.723 360.942 501.887 361.63 502.219 362.181C502.55 362.732 503.016 363.127 503.615 363.364C504.188 363.564 504.753 363.561 505.311 363.356C505.876 363.167 506.479 362.731 507.119 362.046C507.77 361.366 508.504 360.393 509.319 359.126L511.494 355.721C513.431 352.695 515.586 350.543 517.96 349.266C520.341 348.005 522.979 347.921 525.874 349.015C528.235 349.882 530.06 351.28 531.352 353.209C532.651 355.154 533.375 357.443 533.524 360.075C533.668 362.72 533.194 365.513 532.1 368.453C530.984 371.454 529.517 373.863 527.7 375.679C525.882 377.495 523.841 378.655 521.576 379.161C519.318 379.682 516.973 379.496 514.54 378.602L518.131 368.946Z" fill="#5988FF"/>
<path d="M474.328 442.01C475.393 442.745 476.478 443.005 477.583 442.79C478.68 442.585 479.778 441.806 480.876 440.454C481.576 439.592 482.044 438.801 482.281 438.078C482.521 437.375 482.571 436.75 482.432 436.204C482.294 435.658 482.004 435.197 481.562 434.821C481.208 434.499 480.82 434.291 480.398 434.197C479.978 434.121 479.509 434.156 478.993 434.301C478.486 434.454 477.922 434.719 477.301 435.095C476.68 435.471 475.997 435.963 475.253 436.573L472.663 438.657C470.92 440.067 469.262 441.137 467.687 441.869C466.113 442.6 464.612 443.026 463.186 443.145C461.769 443.273 460.42 443.114 459.137 442.668C457.845 442.232 456.611 441.542 455.432 440.599C453.42 438.943 452.12 437.044 451.534 434.901C450.947 432.759 451.045 430.459 451.828 428C452.603 425.552 454.048 423.026 456.163 420.421C458.335 417.746 460.625 415.734 463.034 414.384C465.435 413.044 467.903 412.491 470.438 412.726C472.975 412.978 475.533 414.146 478.111 416.23L471.669 424.165C470.688 423.449 469.707 423.041 468.725 422.94C467.743 422.839 466.778 423.035 465.83 423.528C464.873 424.03 463.964 424.812 463.102 425.874C462.378 426.766 461.882 427.602 461.613 428.382C461.345 429.162 461.28 429.867 461.418 430.495C461.556 431.123 461.871 431.646 462.363 432.064C462.841 432.437 463.377 432.615 463.972 432.6C464.568 432.603 465.278 432.383 466.103 431.94C466.938 431.505 467.944 430.818 469.122 429.88L472.271 427.352C475.074 425.108 477.804 423.761 480.461 423.313C483.121 422.883 485.647 423.65 488.039 425.616C489.997 427.195 491.28 429.105 491.886 431.346C492.494 433.606 492.447 436.007 491.746 438.548C491.037 441.1 489.694 443.593 487.717 446.027C485.7 448.512 483.54 450.322 481.237 451.459C478.935 452.596 476.63 453.041 474.322 452.792C472.017 452.562 469.855 451.633 467.836 450.005L474.328 442.01Z" fill="#5988FF"/>
<path d="M447.047 485.943L438.84 492.901L422.448 473.502C420.499 471.196 419.364 468.733 419.042 466.113C418.718 463.511 419.148 460.922 420.332 458.345C421.524 455.778 423.414 453.398 426.002 451.204C428.61 448.993 431.276 447.511 434.001 446.758C436.734 446.014 439.354 446.017 441.862 446.767C444.369 447.535 446.597 449.072 448.546 451.378L464.937 470.776L456.73 477.734L440.938 459.046C440.147 458.109 439.233 457.447 438.195 457.058C437.165 456.679 436.111 456.591 435.033 456.794C433.945 457.006 432.934 457.508 431.999 458.301C431.054 459.101 430.393 460.018 430.014 461.049C429.636 462.08 429.548 463.136 429.751 464.216C429.963 465.305 430.464 466.318 431.255 467.255L447.047 485.943Z" fill="#5988FF"/>
<path d="M404.327 468.732L423.895 503.222L409.032 511.682C406.476 513.136 403.954 513.904 401.464 513.985C398.974 514.065 396.677 513.494 394.574 512.27C392.471 511.046 390.725 509.21 389.336 506.763C387.935 504.293 387.271 501.842 387.344 499.409C387.405 496.982 388.146 494.719 389.564 492.62C390.971 490.526 392.987 488.733 395.609 487.24L404.487 482.187L408.614 489.462L401.62 493.443C400.522 494.069 399.694 494.792 399.137 495.614C398.576 496.454 398.291 497.351 398.284 498.305C398.266 499.266 398.534 500.235 399.088 501.212C399.649 502.2 400.339 502.921 401.16 503.374C401.976 503.846 402.882 504.043 403.876 503.967C404.866 503.909 405.911 503.567 407.009 502.941L410.304 501.066L394.979 474.054L404.327 468.732Z" fill="#5988FF"/>
<path d="M367.103 488.817L380.191 526.257L364.056 531.916C361.282 532.889 358.663 533.192 356.199 532.825C353.735 532.457 351.577 531.483 349.727 529.902C347.876 528.321 346.487 526.202 345.558 523.545C344.621 520.864 344.405 518.333 344.912 515.952C345.406 513.576 346.539 511.482 348.31 509.671C350.068 507.864 352.372 506.461 355.219 505.462L364.856 502.083L367.617 509.98L360.024 512.643C358.831 513.061 357.888 513.625 357.193 514.334C356.49 515.059 356.05 515.891 355.873 516.829C355.683 517.771 355.774 518.772 356.144 519.832C356.519 520.905 357.07 521.738 357.796 522.331C358.515 522.941 359.371 523.298 360.363 523.401C361.347 523.521 362.436 523.372 363.628 522.954L367.206 521.699L356.955 492.376L367.103 488.817Z" fill="#5988FF"/>
<path d="M326.783 501.755L333.408 540.866L322.807 542.667L317.631 512.112L301.845 514.795L300.395 506.24L326.783 501.755Z" fill="#5988FF"/>
<path d="M290.232 507.189L290.429 546.858L261.886 547L261.842 538.322L279.634 538.234L279.6 531.416L263.278 531.497L263.235 522.819L279.557 522.738L279.523 515.92L261.809 516.008L261.766 507.331L290.232 507.189Z" fill="#5988FF"/>
<path d="M222.973 543.033L210.088 539.413L207.283 515.289L206.836 515.164L191.915 534.308L179.03 530.688L189.725 492.493L199.854 495.338L193.671 517.42L193.969 517.504L208.559 498.105L214.667 499.821L217.016 524.139L217.314 524.223L223.539 501.992L233.668 504.837L222.973 543.033Z" fill="#5988FF"/>
<path d="M170.257 482.946L180.449 488.501L150.034 517.086L137.125 510.048L144.574 468.946L154.766 474.501L148.657 503.897L148.929 504.046L170.257 482.946ZM164.69 497.73L145.53 487.285L149.376 480.208L168.536 490.652L164.69 497.73Z" fill="#5988FF"/>
<path d="M136.939 463.241L111.654 493.774L98.4961 482.842C96.2336 480.963 94.6243 478.871 93.6683 476.567C92.7122 474.262 92.4336 471.909 92.8325 469.505C93.2314 467.102 94.328 464.817 96.1223 462.65C97.9331 460.464 99.9873 458.974 102.285 458.182C104.573 457.381 106.948 457.274 109.41 457.861C111.863 458.439 114.25 459.692 116.572 461.621L124.431 468.151L119.098 474.591L112.906 469.447C111.933 468.639 110.965 468.119 110 467.889C109.017 467.659 108.079 467.71 107.185 468.041C106.281 468.364 105.471 468.958 104.755 469.823C104.031 470.697 103.602 471.599 103.469 472.529C103.318 473.46 103.454 474.378 103.877 475.283C104.281 476.19 104.97 477.047 105.942 477.855L108.86 480.279L128.663 456.366L136.939 463.241Z" fill="#5988FF"/>
<path d="M70.434 436.63C69.5129 437.539 69.0536 438.558 69.056 439.685C69.0502 440.803 69.6068 442.029 70.7259 443.365C71.4387 444.215 72.1268 444.825 72.7901 445.195C73.4352 445.563 74.0383 445.73 74.5994 445.697C75.1606 445.663 75.6674 445.465 76.12 445.101C76.502 444.813 76.7789 444.471 76.9507 444.074C77.1045 443.675 77.1589 443.207 77.114 442.672C77.0593 442.144 76.9061 441.54 76.6543 440.858C76.4026 440.176 76.0482 439.412 75.5912 438.565L74.0355 435.625C72.9817 433.644 72.2447 431.811 71.8242 430.124C71.4038 428.438 71.2694 426.882 71.421 425.456C71.5628 424.039 71.9732 422.741 72.6523 421.563C73.3231 420.375 74.232 419.29 75.379 418.309C77.3819 416.642 79.4889 415.721 81.7002 415.548C83.9116 415.374 86.1485 415.905 88.4112 417.138C90.6655 418.362 92.8703 420.259 95.0256 422.83C97.2388 425.471 98.7802 428.103 99.6498 430.727C100.511 433.342 100.588 435.874 99.8804 438.323C99.1547 440.771 97.5272 443.067 94.9979 445.211L88.4326 437.378C89.3194 436.548 89.9046 435.659 90.1884 434.713C90.4722 433.766 90.462 432.78 90.1579 431.754C89.8454 430.719 89.2498 429.677 88.3712 428.628C87.6334 427.748 86.9072 427.103 86.1926 426.692C85.478 426.281 84.7997 426.084 84.1577 426.102C83.5156 426.119 82.9436 426.33 82.4416 426.735C81.9858 427.135 81.7094 427.629 81.6125 428.216C81.4975 428.802 81.5794 429.543 81.8583 430.438C82.1273 431.341 82.6109 432.46 83.3091 433.795L85.1939 437.37C86.8661 440.55 87.6716 443.489 87.6104 446.187C87.5311 448.884 86.3023 451.224 83.9243 453.207C82.0071 454.836 79.8926 455.737 77.5806 455.911C75.2504 456.083 72.9054 455.585 70.5456 454.416C68.1775 453.238 65.9863 451.447 63.972 449.044C61.9162 446.591 60.5479 444.125 59.8671 441.646C59.1862 439.167 59.1851 436.815 59.8638 434.592C60.5242 432.368 61.8426 430.416 63.819 428.738L70.434 436.63Z" fill="#5988FF"/>
</svg>
