<svg width="878" height="877" viewBox="0 0 878 877" fill="none" xmlns="http://www.w3.org/2000/svg">
<path d="M15.4635 488.125C14.1982 488.393 13.2633 489.002 12.6586 489.952C12.0523 490.889 11.8613 492.22 12.0857 493.945C12.2286 495.045 12.48 495.928 12.8399 496.596C13.1853 497.253 13.6034 497.719 14.0941 497.993C14.5848 498.267 15.1187 498.373 15.6957 498.311C16.1721 498.276 16.5896 498.137 16.9482 497.895C17.2924 497.643 17.5897 497.279 17.84 496.805C18.0776 496.332 18.2738 495.741 18.4287 495.032C18.5835 494.323 18.6962 493.489 18.7667 492.531L19.0383 489.22C19.2161 486.988 19.5816 485.049 20.1349 483.404C20.6882 481.759 21.4122 480.379 22.3071 479.261C23.1892 478.146 24.2332 477.276 25.4392 476.651C26.6435 476.014 27.9928 475.592 29.487 475.384C32.0713 475.062 34.3416 475.423 36.2978 476.469C38.2539 477.514 39.8532 479.165 41.0957 481.421C42.3364 483.665 43.1729 486.448 43.6049 489.772C44.0486 493.185 43.9308 496.228 43.2514 498.903C42.5704 501.565 41.2729 503.736 39.3588 505.414C37.4303 507.082 34.824 508.135 31.5397 508.575L30.2236 498.451C31.4171 498.231 32.3882 497.8 33.1366 497.157C33.8851 496.513 34.4072 495.679 34.7028 494.652C34.9968 493.613 35.0557 492.416 34.8795 491.061C34.7316 489.924 34.4672 488.99 34.0862 488.259C33.7052 487.529 33.2396 486.998 32.6895 486.667C32.1393 486.335 31.5438 486.205 30.9028 486.275C30.3036 486.366 29.8051 486.632 29.4075 487.074C28.9954 487.504 28.666 488.171 28.4194 489.074C28.1599 489.978 27.9651 491.18 27.8349 492.679L27.4996 496.7C27.1972 500.275 26.2943 503.18 24.7908 505.416C23.2728 507.641 20.9788 508.946 17.9086 509.332C15.417 509.669 13.1507 509.288 11.1095 508.188C9.05387 507.077 7.34647 505.395 5.9873 503.141C4.62646 500.874 3.74414 498.188 3.34033 495.082C2.9282 491.912 3.10235 489.101 3.86277 486.649C4.62319 484.198 5.88728 482.22 7.65505 480.717C9.40837 479.202 11.5691 478.272 14.1374 477.925L15.4635 488.125Z" fill="#5988FF"/>
<path d="M0.201424 440.624L0 429.876L25.3692 429.401C28.3857 429.344 31.0096 430.017 33.241 431.419C35.4592 432.809 37.1918 434.775 38.4387 437.317C39.6727 439.859 40.3215 442.825 40.385 446.215C40.449 449.63 39.9121 452.631 38.7742 455.218C37.6234 457.805 35.9657 459.834 33.8011 461.305C31.6233 462.764 29.0262 463.522 26.0097 463.579L0.640499 464.054L0.439075 453.306L24.8801 452.848C26.1048 452.825 27.1954 452.534 28.1521 451.974C29.0959 451.415 29.8295 450.654 30.3531 449.69C30.8764 448.713 31.1266 447.613 31.1036 446.388C31.0804 445.151 30.7892 444.061 30.2299 443.117C29.6706 442.174 28.9089 441.44 27.9449 440.917C26.9679 440.394 25.8671 440.144 24.6425 440.166L0.201424 440.624Z" fill="#5988FF"/>
<path d="M40.0785 417.832L0.637584 414.203L2.20452 397.183C2.47395 394.257 3.28745 391.749 4.64502 389.661C6.00258 387.572 7.78386 386.014 9.98886 384.988C12.1939 383.961 14.6958 383.576 17.4947 383.834C20.3192 384.094 22.7071 384.948 24.6583 386.396C26.6108 387.831 28.0415 389.73 28.9505 392.091C29.8607 394.44 30.1775 397.117 29.901 400.12L28.9651 410.286L20.6455 409.52L21.3829 401.511C21.4987 400.253 21.3791 399.161 21.0241 398.235C20.6575 397.296 20.0852 396.55 19.3072 396C18.5304 395.437 17.5836 395.103 16.4666 395.001C15.3368 394.897 14.3514 395.052 13.5105 395.466C12.6579 395.867 11.9784 396.497 11.472 397.356C10.954 398.202 10.637 399.254 10.5212 400.511L10.1738 404.285L41.0641 407.128L40.0785 417.832Z" fill="#5988FF"/>
<path d="M44.5952 375.289L5.7688 367.463L9.1477 350.709C9.72868 347.828 10.8058 345.421 12.379 343.49C13.9523 341.559 15.89 340.2 18.1922 339.415C20.4944 338.63 23.0231 338.515 25.7784 339.071C28.5589 339.631 30.8417 340.736 32.6269 342.384C34.4145 344.02 35.6339 346.06 36.285 348.506C36.9387 350.939 36.9673 353.634 36.3711 356.59L34.3529 366.598L26.1629 364.947L27.753 357.062C28.0027 355.824 28.0007 354.726 27.7468 353.767C27.4828 352.793 26.9935 351.991 26.2789 351.361C25.5668 350.718 24.661 350.285 23.5614 350.064C22.4492 349.839 21.4529 349.888 20.5725 350.211C19.6819 350.518 18.9389 351.071 18.3435 351.872C17.7379 352.657 17.3103 353.669 17.0606 354.907L16.3114 358.622L46.7204 364.751L44.5952 375.289Z" fill="#5988FF"/>
<path d="M53.7453 333.455L15.8998 321.775L19.0715 311.503L48.6383 320.628L53.3616 305.331L61.6403 307.886L53.7453 333.455Z" fill="#5988FF"/>
<path d="M65.2379 297.854L28.7036 282.56L39.7286 256.237L47.7205 259.582L40.8485 275.99L47.1279 278.619L53.4321 263.566L61.424 266.912L55.1197 281.964L61.399 284.593L68.2411 268.256L76.233 271.602L65.2379 297.854Z" fill="#5988FF"/>
<path d="M55.3761 224.491L62.5112 213.172L86.3988 217.343L86.6463 216.95L72.5745 197.207L79.7096 185.887L113.219 206.998L107.61 215.897L88.2372 203.692L88.0722 203.954L102.481 223.453L99.0991 228.818L75.1559 224.155L74.9909 224.416L94.4942 236.704L88.8851 245.602L55.3761 224.491Z" fill="#5988FF"/>
<path d="M127.031 189.552L119.588 198.453L97.5848 163.029L107.012 151.755L145.785 167.123L138.343 176.023L110.766 164.267L110.568 164.504L127.031 189.552ZM113.652 181.194L127.644 164.461L133.816 169.62L119.825 186.353L113.652 181.194Z" fill="#5988FF"/>
<path d="M152.84 159.989L125.583 131.26L137.987 119.498C140.12 117.475 142.385 116.126 144.783 115.451C147.181 114.776 149.548 114.779 151.883 115.461C154.218 116.143 156.352 117.503 158.287 119.541C160.239 121.599 161.471 123.815 161.982 126.19C162.504 128.556 162.327 130.927 161.453 133.301C160.587 135.667 159.06 137.888 156.872 139.964L149.463 146.989L143.713 140.929L149.55 135.394C150.467 134.525 151.097 133.625 151.441 132.695C151.785 131.747 151.847 130.809 151.625 129.883C151.413 128.947 150.92 128.072 150.148 127.259C149.368 126.436 148.524 125.903 147.619 125.66C146.714 125.399 145.787 125.425 144.84 125.737C143.893 126.031 142.961 126.613 142.044 127.482L139.294 130.09L160.642 152.591L152.84 159.989Z" fill="#5988FF"/>
<path d="M184.752 96.3927C183.887 95.4306 182.893 94.9245 181.768 94.8746C180.654 94.8168 179.405 95.3158 178.021 96.3714C177.139 97.0438 176.499 97.7027 176.099 98.3479C175.702 98.9751 175.507 99.5697 175.515 100.132C175.522 100.694 175.697 101.209 176.038 101.678C176.307 102.073 176.636 102.365 177.024 102.555C177.415 102.727 177.878 102.803 178.415 102.784C178.943 102.753 179.553 102.628 180.245 102.409C180.937 102.189 181.716 101.871 182.581 101.453L185.586 100.036C187.61 99.0759 189.473 98.4249 191.175 98.0833C192.877 97.7418 194.435 97.6798 195.85 97.8975C197.257 98.1049 198.532 98.5751 199.676 99.3081C200.829 100.033 201.869 100.991 202.794 102.182C204.364 104.26 205.184 106.407 205.254 108.624C205.324 110.84 204.691 113.05 203.355 115.252C202.03 117.447 200.035 119.561 197.37 121.594C194.633 123.682 191.936 125.099 189.279 125.845C186.631 126.584 184.102 126.543 181.692 125.723C179.285 124.884 177.07 123.152 175.05 120.527L183.168 114.334C183.954 115.258 184.813 115.883 185.744 116.211C186.675 116.538 187.659 116.574 188.696 116.318C189.744 116.054 190.811 115.507 191.897 114.679C192.809 113.983 193.487 113.287 193.93 112.593C194.373 111.898 194.601 111.23 194.613 110.588C194.626 109.946 194.442 109.365 194.061 108.845C193.683 108.371 193.204 108.072 192.623 107.948C192.044 107.806 191.301 107.853 190.396 108.09C189.482 108.317 188.343 108.748 186.979 109.383L183.327 111.099C180.077 112.622 177.108 113.29 174.42 113.103C171.734 112.899 169.457 111.563 167.59 109.096C166.055 107.105 165.254 104.952 165.189 102.634C165.125 100.299 165.731 97.9804 167.007 95.678C168.292 93.3677 170.18 91.2625 172.671 89.3623C175.213 87.4231 177.736 86.1711 180.241 85.6063C182.745 85.0416 185.09 85.1497 187.275 85.9307C189.463 86.6936 191.349 88.101 192.931 90.1529L184.752 96.3927Z" fill="#5988FF"/>
<path d="M255.614 53.7576C254.952 52.6468 254.074 51.9583 252.98 51.6923C251.898 51.4205 250.576 51.6691 249.014 52.4378C248.02 52.9275 247.264 53.4504 246.748 54.0064C246.237 54.5452 245.931 55.091 245.829 55.6438C245.728 56.1965 245.8 56.736 246.044 57.262C246.232 57.7013 246.498 58.0517 246.842 58.3131C247.193 58.5574 247.633 58.7215 248.163 58.8054C248.687 58.8777 249.31 58.8729 250.031 58.7908C250.752 58.7087 251.578 58.5465 252.508 58.3043L255.73 57.4937C257.901 56.942 259.855 56.6627 261.591 56.6559C263.326 56.6492 264.867 56.8891 266.214 57.3757C267.554 57.8508 268.715 58.5582 269.695 59.498C270.687 60.4321 271.522 61.5728 272.2 62.9201C273.339 65.2617 273.729 67.5266 273.369 69.715C273.01 71.9033 271.963 73.9492 270.227 75.8525C268.503 77.7501 266.137 79.4392 263.13 80.9197C260.042 82.4401 257.122 83.3102 254.37 83.5298C251.63 83.7438 249.156 83.2157 246.95 81.9457C244.749 80.6584 242.911 78.5316 241.436 75.5654L250.597 71.0555C251.19 72.114 251.912 72.8937 252.762 73.3946C253.612 73.8955 254.571 74.1204 255.638 74.0692C256.717 74.0123 257.869 73.6821 259.095 73.0785C260.125 72.5717 260.924 72.0203 261.492 71.4242C262.061 70.8281 262.414 70.2163 262.55 69.5888C262.686 68.9613 262.618 68.3556 262.345 67.7717C262.066 67.2339 261.653 66.8481 261.106 66.6142C260.566 66.363 259.828 66.2663 258.894 66.3241C257.954 66.3702 256.753 66.5734 255.292 66.9334L251.377 67.9127C247.895 68.7794 244.853 68.8618 242.251 68.16C239.654 67.441 237.679 65.691 236.323 62.91C235.201 60.6608 234.831 58.3931 235.214 56.1068C235.603 53.8034 236.645 51.6451 238.341 49.632C240.049 47.6132 242.308 45.912 245.118 44.5282C247.987 43.116 250.704 42.3745 253.271 42.3036C255.837 42.2326 258.117 42.7912 260.111 43.9793C262.11 45.1501 263.688 46.8948 264.845 49.2134L255.614 53.7576Z" fill="#5988FF"/>
<path d="M295.669 23.9974L305.78 20.3409L314.411 44.1954C315.437 47.0318 315.646 49.7319 315.038 52.2956C314.438 54.8429 313.135 57.1164 311.131 59.1162C309.121 61.1038 306.522 62.6741 303.334 63.8272C300.121 64.9891 297.106 65.4486 294.29 65.206C291.469 64.9512 289.013 64.0368 286.922 62.4629C284.838 60.8724 283.283 58.659 282.257 55.8226L273.627 31.9681L283.738 28.3116L292.053 51.2934C292.47 52.4449 293.097 53.3831 293.935 54.1081C294.769 54.8209 295.727 55.2697 296.808 55.4543C297.902 55.6346 299.024 55.5165 300.176 55.1C301.34 54.6791 302.278 54.0518 302.991 53.2183C303.704 52.3848 304.153 51.4275 304.338 50.3464C304.518 49.2531 304.4 48.1308 303.984 46.9792L295.669 23.9974Z" fill="#5988FF"/>
<path d="M330.107 54.384L320.825 15.8893L337.445 11.8839C340.303 11.1951 342.939 11.1564 345.354 11.7676C347.77 12.3789 349.819 13.5623 351.502 15.3178C353.185 17.0734 354.356 19.317 355.015 22.0487C355.68 24.8055 355.641 27.3406 354.899 29.6541C354.17 31.9646 352.834 33.9307 350.891 35.5526C348.96 37.1714 346.528 38.3342 343.595 39.041L333.668 41.4334L331.71 33.3135L339.532 31.4285C340.76 31.1325 341.755 30.6673 342.517 30.0328C343.289 29.3828 343.81 28.6009 344.08 27.6871C344.363 26.7704 344.373 25.7669 344.11 24.6767C343.845 23.574 343.38 22.6916 342.716 22.0295C342.062 21.3518 341.246 20.9119 340.269 20.7099C339.302 20.4922 338.204 20.5315 336.975 20.8275L333.29 21.7156L340.56 51.8647L330.107 54.384Z" fill="#5988FF"/>
<path d="M371.845 44.9402L366.734 5.6738L383.688 3.46859C386.603 3.08941 389.228 3.33283 391.564 4.19883C393.9 5.06482 395.811 6.46056 397.297 8.38604C398.783 10.3115 399.707 12.6675 400.07 15.454C400.436 18.266 400.126 20.7825 399.141 23.0034C398.168 25.2226 396.629 27.0346 394.524 28.4393C392.431 29.8424 389.889 30.7385 386.897 31.1276L376.771 32.4448L375.693 24.162L383.671 23.1243C384.924 22.9613 385.964 22.6051 386.789 22.0558C387.626 21.492 388.228 20.7703 388.594 19.8908C388.974 19.0095 389.091 18.0129 388.946 16.9008C388.8 15.776 388.432 14.849 387.843 14.1197C387.265 13.3759 386.502 12.8514 385.552 12.546C384.613 12.2261 383.517 12.1477 382.264 12.3107L378.505 12.7996L382.508 43.5532L371.845 44.9402Z" fill="#5988FF"/>
<path d="M414.405 40.1089L413.26 0.528163L424.009 0.217386L424.903 31.1399L440.91 30.677L441.16 39.3353L414.405 40.1089Z" fill="#5988FF"/>
<path d="M451.819 39.5052L454.518 0L482.997 1.94496L482.407 10.5867L464.656 9.37443L464.192 16.1644L480.476 17.2766L479.886 25.9183L463.601 24.8062L463.137 31.5961L480.811 32.8032L480.221 41.4449L451.819 39.5052Z" fill="#5988FF"/>
<path d="M518.102 6.51459L531.12 9.61665L534.874 33.5675L535.325 33.6751L549.481 13.9918L562.5 17.0939L553.317 55.6122L543.083 53.1736L548.392 30.9052L548.091 30.8335L534.275 50.7568L528.104 49.2865L524.799 25.1244L524.498 25.0527L519.153 47.4715L508.919 45.0329L518.102 6.51459Z" fill="#5988FF"/>
<path d="M574.289 63.0586L563.462 58.8858L589.907 26.64L603.622 31.9254L601.574 73.5738L590.746 69.4011L592.985 39.5132L592.697 39.402L574.289 63.0586ZM577.889 47.7029L598.244 55.5476L595.35 63.0524L574.995 55.2077L577.889 47.7029Z" fill="#5988FF"/>
<path d="M610.602 77.9497L629.014 42.8909L644.151 50.8362C646.753 52.2023 648.761 53.9113 650.174 55.963C651.586 58.0148 652.346 60.2554 652.454 62.6848C652.561 65.1143 651.962 67.5729 650.655 70.0608C649.337 72.5716 647.636 74.452 645.552 75.7022C643.48 76.9584 641.178 77.5556 638.648 77.4939C636.129 77.4382 633.534 76.7093 630.862 75.3071L621.821 70.5615L625.705 63.1663L632.828 66.9053C633.947 67.4925 635.002 67.7988 635.994 67.8242C637.002 67.8442 637.91 67.5999 638.716 67.0912C639.533 66.5885 640.203 65.8407 640.724 64.8478C641.251 63.8436 641.484 62.8738 641.422 61.9385C641.377 60.9978 641.054 60.1295 640.453 59.3334C639.869 58.532 639.018 57.8376 637.899 57.2504L634.543 55.4888L620.122 82.947L610.602 77.9497Z" fill="#5988FF"/>
<path d="M681.108 87.6402C681.74 86.5122 681.899 85.408 681.583 84.3275C681.279 83.2542 680.403 82.233 678.958 81.2639C678.037 80.6466 677.206 80.2529 676.467 80.083C675.745 79.9095 675.119 79.9167 674.589 80.1048C674.06 80.2929 673.628 80.6242 673.294 81.0988C673.007 81.4806 672.836 81.8859 672.781 82.3147C672.744 82.7401 672.822 83.2032 673.013 83.7042C673.212 84.1945 673.527 84.7316 673.959 85.3155C674.39 85.8993 674.942 86.5336 675.616 87.2182L677.927 89.6052C679.489 91.2109 680.706 92.7639 681.579 94.2641C682.451 95.7644 683.012 97.2191 683.262 98.6283C683.519 100.027 683.485 101.385 683.16 102.703C682.845 104.029 682.273 105.322 681.444 106.581C679.983 108.737 678.214 110.205 676.138 110.986C674.062 111.767 671.766 111.881 669.25 111.327C666.745 110.781 664.1 109.574 661.316 107.708C658.457 105.791 656.245 103.696 654.681 101.422C653.128 99.1546 652.351 96.7484 652.351 94.203C652.368 91.6541 653.294 89.0003 655.129 86.2417L663.61 91.9269C662.989 92.9692 662.673 93.9836 662.664 94.9703C662.654 95.957 662.937 96.8997 663.514 97.7986C664.102 98.7046 664.963 99.538 666.098 100.299C667.052 100.938 667.928 101.355 668.729 101.55C669.529 101.745 670.236 101.745 670.848 101.55C671.46 101.355 671.95 100.994 672.32 100.466C672.647 99.9552 672.775 99.4049 672.705 98.8149C672.653 98.2213 672.369 97.5342 671.853 96.7535C671.343 95.962 670.568 95.0233 669.527 93.9374L666.724 91.0342C664.235 88.4501 662.645 85.8558 661.954 83.2514C661.282 80.6435 661.813 78.0584 663.546 75.4961C664.936 73.4012 666.717 71.9491 668.89 71.1398C671.08 70.3269 673.471 70.1527 676.063 70.6171C678.665 71.0887 681.267 72.1967 683.869 73.941C686.525 75.7212 688.524 77.7053 689.866 79.8931C691.208 82.081 691.862 84.335 691.828 86.655C691.811 88.9716 691.086 91.2094 689.654 93.3685L681.108 87.6402Z" fill="#5988FF"/>
<path d="M744.327 140.952C745.165 139.967 745.534 138.914 745.433 137.793C745.341 136.682 744.68 135.511 743.448 134.281C742.664 133.497 741.925 132.951 741.232 132.641C740.557 132.332 739.942 132.218 739.386 132.301C738.83 132.383 738.342 132.625 737.923 133.026C737.567 133.345 737.321 133.71 737.185 134.12C737.066 134.53 737.053 135 737.144 135.528C737.245 136.048 737.45 136.635 737.761 137.292C738.071 137.948 738.491 138.677 739.02 139.478L740.827 142.266C742.049 144.143 742.944 145.902 743.51 147.542C744.076 149.183 744.345 150.718 744.319 152.149C744.301 153.571 744.006 154.897 743.432 156.128C742.867 157.368 742.057 158.526 741 159.602C739.15 161.435 737.131 162.534 734.943 162.9C732.755 163.266 730.481 162.934 728.119 161.905C725.766 160.886 723.404 159.192 721.032 156.823C718.597 154.391 716.832 151.908 715.736 149.375C714.65 146.851 714.352 144.34 714.843 141.842C715.353 139.345 716.774 136.919 719.106 134.567L726.331 141.782C725.52 142.684 725.014 143.619 724.814 144.585C724.614 145.551 724.71 146.531 725.103 147.524C725.504 148.527 726.189 149.511 727.156 150.476C727.967 151.287 728.747 151.866 729.495 152.212C730.243 152.558 730.936 152.694 731.574 152.621C732.212 152.547 732.763 152.287 733.228 151.84C733.647 151.403 733.879 150.888 733.925 150.295C733.988 149.703 733.842 148.974 733.486 148.108C733.139 147.233 732.56 146.163 731.748 144.896L729.558 141.507C727.614 138.491 726.555 135.638 726.381 132.95C726.224 130.261 727.244 127.827 729.44 125.648C731.208 123.86 733.236 122.779 735.524 122.404C737.83 122.029 740.21 122.32 742.663 123.276C745.125 124.24 747.464 125.83 749.681 128.043C751.943 130.303 753.521 132.635 754.416 135.041C755.311 137.447 755.517 139.784 755.035 142.054C754.571 144.324 753.428 146.38 751.606 148.222L744.327 140.952Z" fill="#5988FF"/>
<path d="M785.421 169.261L792.144 177.651L772.341 193.51C769.986 195.396 767.497 196.465 764.874 196.716C762.268 196.969 759.696 196.47 757.156 195.217C754.626 193.957 752.301 192.003 750.181 189.358C748.045 186.692 746.638 183.987 745.959 181.244C745.291 178.493 745.365 175.874 746.181 173.387C747.015 170.902 748.609 168.717 750.964 166.831L770.767 150.972L777.49 159.362L758.411 174.641C757.455 175.407 756.769 176.303 756.353 177.33C755.947 178.349 755.831 179.4 756.004 180.482C756.186 181.575 756.66 182.6 757.426 183.555C758.2 184.521 759.096 185.207 760.116 185.613C761.135 186.019 762.186 186.135 763.269 185.961C764.362 185.779 765.387 185.306 766.343 184.54L785.421 169.261Z" fill="#5988FF"/>
<path d="M767.753 211.649L801.208 190.452L810.36 204.889C811.934 207.371 812.821 209.853 813.021 212.336C813.221 214.819 812.761 217.14 811.642 219.299C810.522 221.458 808.775 223.289 806.401 224.794C804.006 226.312 801.593 227.093 799.163 227.137C796.74 227.191 794.448 226.561 792.286 225.245C790.13 223.94 788.245 222.014 786.63 219.466L781.164 210.843L788.221 206.372L792.528 213.166C793.204 214.233 793.965 215.025 794.812 215.541C795.676 216.062 796.584 216.303 797.537 216.264C798.496 216.236 799.449 215.922 800.397 215.322C801.355 214.714 802.041 213.99 802.454 213.149C802.884 212.311 803.038 211.397 802.914 210.408C802.808 209.422 802.417 208.395 801.741 207.328L799.711 204.127L773.51 220.729L767.753 211.649Z" fill="#5988FF"/>
<path d="M790.155 248.102L825.686 230.604L833.24 245.936C834.539 248.572 835.156 251.136 835.089 253.625C835.022 256.115 834.317 258.374 832.973 260.401C831.629 262.428 829.696 264.062 827.175 265.304C824.63 266.557 822.148 267.075 819.727 266.859C817.313 266.655 815.101 265.782 813.092 264.243C811.088 262.715 809.42 260.598 808.087 257.892L803.575 248.735L811.069 245.044L814.625 252.259C815.183 253.392 815.855 254.261 816.642 254.865C817.445 255.475 818.323 255.812 819.274 255.875C820.23 255.95 821.212 255.739 822.218 255.244C823.236 254.743 823.995 254.096 824.496 253.303C825.013 252.516 825.264 251.624 825.247 250.627C825.247 249.636 824.968 248.573 824.409 247.44L822.734 244.041L794.907 257.745L790.155 248.102Z" fill="#5988FF"/>
<path d="M808.454 286.82L845.561 272.973L849.321 283.045L820.332 293.863L825.931 308.861L817.814 311.89L808.454 286.82Z" fill="#5988FF"/>
<path d="M821.091 322.032L859.366 311.848L866.708 339.425L858.335 341.653L853.759 324.464L847.18 326.214L851.378 341.984L843.006 344.212L838.807 328.442L832.229 330.193L836.785 347.307L828.413 349.535L821.091 322.032Z" fill="#5988FF"/>
<path d="M873.7 374.119L874.961 387.439L853.494 398.715L853.538 399.177L876.739 406.226L878 419.546L838.569 423.276L837.577 412.805L860.374 410.649L860.345 410.341L837.025 403.691L836.428 397.377L858.239 386.458L858.21 386.15L835.26 388.321L834.269 377.85L873.7 374.119Z" fill="#5988FF"/>
<path d="M838.282 445.524L838.741 433.933L877.8 448.561L877.218 463.243L837.124 474.735L837.583 463.144L866.604 455.625L866.616 455.316L838.282 445.524ZM853.982 443.979L853.118 465.772L845.079 465.453L845.943 443.661L853.982 443.979Z" fill="#5988FF"/>
<path d="M835.892 484.69L875.024 490.809L872.382 507.696C871.928 510.599 870.957 513.05 869.47 515.049C867.983 517.047 866.106 518.489 863.841 519.374C861.575 520.259 859.054 520.485 856.277 520.05C853.474 519.612 851.145 518.609 849.29 517.04C847.432 515.484 846.125 513.499 845.367 511.084C844.607 508.682 844.461 505.991 844.927 503.011L846.505 492.925L854.759 494.216L853.516 502.163C853.321 503.411 853.371 504.508 853.667 505.454C853.973 506.415 854.497 507.195 855.238 507.794C855.978 508.405 856.902 508.798 858.01 508.971C859.131 509.146 860.124 509.054 860.99 508.693C861.866 508.348 862.584 507.762 863.144 506.936C863.714 506.125 864.097 505.096 864.293 503.848L864.878 500.104L834.23 495.311L835.892 484.69Z" fill="#5988FF"/>
<path d="M849.452 554.538C850.724 554.773 851.821 554.567 852.742 553.92C853.66 553.285 854.345 552.128 854.796 550.447C855.083 549.377 855.188 548.464 855.111 547.709C855.042 546.97 854.834 546.38 854.485 545.939C854.136 545.499 853.683 545.197 853.126 545.034C852.672 544.885 852.233 544.854 851.809 544.941C851.395 545.043 850.981 545.266 850.569 545.609C850.169 545.955 849.762 546.427 849.348 547.023C848.934 547.619 848.512 548.347 848.081 549.205L846.566 552.162C845.549 554.158 844.471 555.81 843.332 557.119C842.193 558.429 840.996 559.429 839.743 560.12C838.502 560.814 837.204 561.22 835.851 561.337C834.495 561.467 833.087 561.343 831.626 560.964C829.114 560.276 827.154 559.076 825.745 557.363C824.336 555.65 823.488 553.514 823.201 550.955C822.91 548.408 823.2 545.516 824.069 542.279C824.962 538.955 826.233 536.187 827.882 533.974C829.527 531.773 831.555 530.262 833.965 529.441C836.384 528.635 839.195 528.656 842.399 529.502L839.751 539.362C838.564 539.11 837.501 539.138 836.564 539.447C835.627 539.756 834.826 540.329 834.161 541.164C833.492 542.013 832.981 543.097 832.626 544.416C832.329 545.524 832.217 546.488 832.29 547.309C832.363 548.129 832.591 548.798 832.973 549.314C833.355 549.83 833.856 550.178 834.475 550.358C835.063 550.502 835.626 550.446 836.162 550.19C836.707 549.949 837.266 549.459 837.839 548.718C838.424 547.981 839.063 546.945 839.755 545.609L841.6 542.02C843.244 538.831 845.188 536.49 847.431 534.997C849.684 533.52 852.302 533.188 855.288 534.003C857.719 534.642 859.668 535.86 861.135 537.655C862.611 539.466 863.547 541.672 863.943 544.274C864.336 546.889 864.126 549.708 863.313 552.733C862.484 555.821 861.25 558.352 859.611 560.328C857.973 562.304 856.049 563.65 853.841 564.365C851.643 565.096 849.29 565.132 846.784 564.472L849.452 554.538Z" fill="#5988FF"/>
<path d="M819.36 631.554C820.563 632.03 821.678 632.039 822.707 631.582C823.731 631.137 824.626 630.133 825.393 628.572C825.882 627.577 826.161 626.701 826.231 625.946C826.306 625.207 826.215 624.588 825.958 624.088C825.701 623.589 825.315 623.205 824.8 622.938C824.383 622.705 823.958 622.589 823.526 622.593C823.099 622.613 822.65 622.751 822.179 623.008C821.72 623.271 821.23 623.655 820.709 624.16C820.187 624.666 819.633 625.298 819.044 626.057L816.987 628.666C815.604 630.428 814.227 631.841 812.857 632.906C811.486 633.971 810.119 634.721 808.756 635.158C807.404 635.599 806.053 635.747 804.702 635.601C803.346 635.467 801.988 635.073 800.629 634.42C798.297 633.26 796.605 631.704 795.553 629.752C794.501 627.799 794.082 625.54 794.294 622.973C794.501 620.418 795.343 617.636 796.821 614.628C798.339 611.539 800.12 609.068 802.166 607.214C804.205 605.372 806.487 604.281 809.01 603.94C811.539 603.617 814.293 604.18 817.273 605.628L812.771 614.791C811.655 614.315 810.607 614.138 809.628 614.26C808.649 614.383 807.752 614.79 806.938 615.481C806.119 616.185 805.407 617.15 804.805 618.376C804.299 619.406 804.003 620.33 803.916 621.149C803.83 621.968 803.924 622.668 804.2 623.248C804.475 623.829 804.899 624.267 805.472 624.562C806.021 624.818 806.584 624.872 807.159 624.723C807.741 624.592 808.384 624.219 809.089 623.603C809.805 622.992 810.632 622.099 811.569 620.922L814.072 617.757C816.301 614.945 818.66 613.023 821.15 611.991C823.645 610.976 826.279 611.156 829.05 612.532C831.313 613.628 832.99 615.199 834.083 617.243C835.182 619.305 835.674 621.65 835.56 624.28C835.44 626.921 834.69 629.647 833.309 632.458C831.899 635.328 830.2 637.574 828.21 639.196C826.221 640.818 824.074 641.768 821.77 642.043C819.471 642.336 817.156 641.917 814.824 640.787L819.36 631.554Z" fill="#5988FF"/>
<path d="M805.809 679.572L800.033 688.639L778.631 675.013C776.086 673.393 774.272 671.382 773.188 668.98C772.108 666.596 771.751 664.001 772.118 661.193C772.496 658.392 773.595 655.563 775.417 652.703C777.252 649.822 779.359 647.618 781.738 646.092C784.127 644.572 786.631 643.797 789.248 643.767C791.87 643.755 794.453 644.56 796.998 646.18L818.4 659.806L812.624 668.873L792.005 655.746C790.972 655.088 789.902 654.728 788.795 654.665C787.7 654.609 786.667 654.838 785.698 655.352C784.722 655.877 783.905 656.655 783.247 657.688C782.582 658.732 782.222 659.802 782.166 660.897C782.11 661.992 782.339 663.024 782.853 663.993C783.378 664.969 784.157 665.786 785.19 666.444L805.809 679.572Z" fill="#5988FF"/>
<path d="M759.977 676.522L790.835 701.347L780.117 714.663C778.274 716.952 776.21 718.592 773.924 719.582C771.637 720.572 769.292 720.885 766.886 720.522C764.481 720.159 762.184 719.097 759.994 717.335C757.784 715.557 756.267 713.526 755.441 711.241C754.608 708.966 754.466 706.593 755.015 704.122C755.555 701.662 756.771 699.257 758.663 696.907L765.064 688.953L771.573 694.19L766.53 700.456C765.738 701.44 765.233 702.416 765.017 703.384C764.803 704.37 764.868 705.307 765.212 706.196C765.547 707.094 766.152 707.895 767.026 708.598C767.91 709.309 768.817 709.725 769.747 709.844C770.679 709.982 771.593 709.832 772.491 709.396C773.39 708.978 774.236 708.277 775.028 707.292L777.404 704.34L753.236 684.898L759.977 676.522Z" fill="#5988FF"/>
<path d="M732.686 709.475L760.711 737.457L748.63 749.55C746.553 751.63 744.325 753.039 741.946 753.779C739.567 754.519 737.201 754.58 734.848 753.961C732.496 753.343 730.325 752.041 728.336 750.056C726.329 748.052 725.038 745.87 724.462 743.509C723.877 741.158 723.989 738.784 724.799 736.386C725.6 733.998 727.066 731.736 729.198 729.602L736.414 722.379L742.326 728.281L736.64 733.972C735.748 734.866 735.142 735.782 734.823 736.721C734.505 737.679 734.469 738.617 734.716 739.538C734.953 740.467 735.469 741.328 736.263 742.121C737.066 742.922 737.923 743.432 738.835 743.65C739.746 743.887 740.672 743.836 741.611 743.498C742.549 743.179 743.465 742.572 744.358 741.678L747.037 738.997L725.088 717.082L732.686 709.475Z" fill="#5988FF"/>
<path d="M701.927 739.279L727.004 769.929L718.68 776.735L699.089 752.79L686.694 762.925L681.209 756.22L701.927 739.279Z" fill="#5988FF"/>
<path d="M672.662 762.591L694.648 795.528L670.904 811.369L666.094 804.164L680.894 794.29L677.115 788.629L663.538 797.687L658.729 790.482L672.306 781.424L668.527 775.763L653.792 785.594L648.983 778.389L672.662 762.591Z" fill="#5988FF"/>
<path d="M640.31 829.173L628.104 834.661L610.506 817.982L610.083 818.172L610.89 842.402L598.685 847.89L582.437 811.778L592.032 807.463L601.425 828.341L601.708 828.214L600.484 804.002L606.269 801.4L623.642 818.52L623.924 818.393L614.467 797.375L624.062 793.06L640.31 829.173Z" fill="#5988FF"/>
<path d="M561.28 818.68L572.404 815.377L571.149 857.057L557.059 861.241L533.249 827.004L544.372 823.701L560.85 848.74L561.146 848.652L561.28 818.68ZM567.806 833.04L546.894 839.249L544.603 831.539L565.515 825.329L567.806 833.04Z" fill="#5988FF"/>
<path d="M523.426 829.05L530.251 868.055L513.41 871C510.515 871.506 507.881 871.378 505.509 870.615C503.138 869.852 501.167 868.542 499.599 866.683C498.03 864.824 497.004 862.511 496.519 859.743C496.03 856.95 496.23 854.422 497.116 852.16C497.991 849.901 499.449 848.023 501.491 846.528C503.52 845.034 506.02 844.028 508.992 843.508L519.051 841.749L520.491 849.976L512.566 851.362C511.321 851.58 510.298 851.981 509.498 852.566C508.686 853.166 508.117 853.914 507.789 854.808C507.449 855.705 507.375 856.706 507.568 857.811C507.764 858.928 508.172 859.838 508.792 860.541C509.402 861.259 510.188 861.749 511.151 862.013C512.102 862.291 513.201 862.322 514.445 862.104L518.179 861.451L512.834 830.902L523.426 829.05Z" fill="#5988FF"/>
<path d="M461.665 864.405C461.853 865.685 462.402 866.656 463.311 867.319C464.208 867.983 465.525 868.258 467.262 868.143C468.368 868.07 469.266 867.875 469.956 867.558C470.634 867.255 471.125 866.867 471.429 866.395C471.734 865.923 471.874 865.397 471.848 864.817C471.843 864.34 471.731 863.914 471.512 863.541C471.282 863.182 470.937 862.862 470.48 862.583C470.023 862.316 469.445 862.083 468.747 861.883C468.049 861.684 467.224 861.519 466.272 861.388L462.984 860.908C460.767 860.589 458.854 860.102 457.248 859.446C455.641 858.79 454.308 857.981 453.249 857.017C452.191 856.067 451.389 854.97 450.842 853.727C450.281 852.485 449.945 851.112 449.833 849.608C449.674 847.01 450.178 844.767 451.345 842.882C452.513 840.996 454.262 839.505 456.593 838.407C458.911 837.311 461.742 836.653 465.087 836.432C468.522 836.204 471.553 836.514 474.18 837.361C476.795 838.209 478.879 839.641 480.434 841.657C481.977 843.686 482.864 846.353 483.095 849.658L472.906 850.331C472.762 849.126 472.392 848.13 471.798 847.343C471.203 846.555 470.403 845.982 469.397 845.622C468.378 845.263 467.187 845.129 465.823 845.219C464.678 845.294 463.729 845.499 462.976 845.833C462.223 846.167 461.663 846.598 461.298 847.126C460.932 847.654 460.764 848.24 460.794 848.884C460.847 849.488 461.081 850.002 461.497 850.426C461.9 850.865 462.545 851.236 463.431 851.539C464.317 851.855 465.505 852.125 466.993 852.35L470.985 852.938C474.535 853.466 477.378 854.55 479.515 856.192C481.641 857.847 482.799 860.218 482.99 863.306C483.169 865.813 482.645 868.05 481.418 870.017C480.179 871.998 478.392 873.595 476.056 874.809C473.707 876.023 470.97 876.734 467.844 876.941C464.653 877.152 461.858 876.8 459.459 875.887C457.06 874.973 455.166 873.587 453.776 871.728C452.375 869.883 451.583 867.668 451.399 865.084L461.665 864.405Z" fill="#5988FF"/>
<path d="M379.04 860.763C378.977 862.054 379.328 863.113 380.092 863.94C380.844 864.764 382.083 865.288 383.809 865.511C384.909 865.652 385.828 865.634 386.566 865.456C387.289 865.29 387.846 865.004 388.236 864.6C388.626 864.195 388.865 863.706 388.952 863.132C389.038 862.663 389.011 862.224 388.868 861.815C388.711 861.418 388.435 861.038 388.04 860.675C387.643 860.325 387.122 859.985 386.475 859.655C385.829 859.325 385.051 859.003 384.143 858.691L381.009 857.586C378.895 856.845 377.113 855.998 375.663 855.045C374.213 854.091 373.061 853.039 372.208 851.89C371.354 850.753 370.778 849.522 370.481 848.197C370.171 846.87 370.106 845.458 370.287 843.961C370.632 841.38 371.56 839.277 373.07 837.653C374.579 836.028 376.583 834.902 379.082 834.275C381.568 833.647 384.473 833.547 387.798 833.975C391.212 834.416 394.127 835.305 396.541 836.642C398.943 837.979 400.712 839.786 401.848 842.064C402.97 844.353 403.325 847.141 402.914 850.428L392.787 849.123C392.878 847.913 392.707 846.864 392.276 845.977C391.844 845.089 391.17 844.372 390.252 843.825C389.322 843.276 388.179 842.914 386.824 842.739C385.686 842.593 384.715 842.611 383.911 842.793C383.108 842.975 382.476 843.29 382.015 843.738C381.554 844.185 381.277 844.728 381.181 845.365C381.117 845.968 381.247 846.517 381.573 847.014C381.885 847.522 382.446 848.011 383.256 848.479C384.065 848.96 385.178 849.454 386.594 849.962L390.399 851.31C393.779 852.513 396.36 854.125 398.14 856.148C399.906 858.182 400.584 860.733 400.176 863.799C399.867 866.294 398.921 868.388 397.338 870.081C395.74 871.786 393.678 873.008 391.151 873.748C388.612 874.486 385.789 874.655 382.682 874.255C379.51 873.846 376.836 872.962 374.658 871.603C372.481 870.243 370.89 868.518 369.885 866.426C368.867 864.345 368.517 862.019 368.835 859.448L379.04 860.763Z" fill="#5988FF"/>
<path d="M329.206 863.423L318.758 860.881L324.758 836.234C325.471 833.303 326.79 830.938 328.715 829.137C330.624 827.347 332.966 826.172 335.743 825.614C338.516 825.068 341.55 825.196 344.845 825.998C348.165 826.806 350.931 828.089 353.143 829.848C355.353 831.619 356.894 833.738 357.766 836.206C358.623 838.683 358.694 841.387 357.981 844.317L351.981 868.965L341.533 866.423L347.313 842.677C347.603 841.487 347.599 840.359 347.302 839.291C347.001 838.236 346.451 837.333 345.652 836.582C344.841 835.827 343.84 835.305 342.65 835.015C341.447 834.723 340.318 834.727 339.263 835.027C338.208 835.328 337.305 835.877 336.553 836.676C335.798 837.487 335.276 838.488 334.986 839.677L329.206 863.423Z" fill="#5988FF"/>
<path d="M317.314 819.067L303.76 856.274L287.696 850.425C284.934 849.419 282.715 847.994 281.041 846.15C279.366 844.306 278.313 842.187 277.881 839.794C277.45 837.401 277.715 834.884 278.676 832.243C279.647 829.579 281.081 827.488 282.979 825.97C284.864 824.448 287.065 823.548 289.581 823.271C292.085 822.989 294.754 823.364 297.589 824.396L307.184 827.89L304.325 835.738L296.765 832.986C295.578 832.553 294.492 832.391 293.506 832.498C292.503 832.613 291.637 832.977 290.906 833.589C290.163 834.196 289.6 835.027 289.216 836.081C288.828 837.147 288.727 838.139 288.914 839.057C289.084 839.984 289.521 840.801 290.223 841.509C290.909 842.225 291.846 842.8 293.033 843.232L296.595 844.529L307.21 815.388L317.314 819.067Z" fill="#5988FF"/>
<path d="M277.312 803.868L259.855 839.412L244.509 831.879C241.87 830.583 239.817 828.929 238.349 826.917C236.882 824.904 236.061 822.685 235.888 820.259C235.715 817.833 236.248 815.359 237.487 812.837C238.737 810.292 240.386 808.366 242.435 807.06C244.473 805.748 246.757 805.089 249.289 805.082C251.808 805.069 254.422 805.728 257.13 807.057L266.296 811.557L262.614 819.054L255.392 815.509C254.258 814.952 253.195 814.675 252.203 814.676C251.194 814.683 250.294 814.952 249.502 815.483C248.699 816.007 248.05 816.773 247.555 817.779C247.055 818.798 246.849 819.773 246.936 820.707C247.007 821.646 247.353 822.505 247.976 823.284C248.581 824.07 249.451 824.741 250.585 825.298L253.988 826.968L267.66 799.13L277.312 803.868Z" fill="#5988FF"/>
<path d="M239.176 784.368L218.241 817.983L209.113 812.301L225.468 786.039L211.874 777.578L216.454 770.225L239.176 784.368Z" fill="#5988FF"/>
<path d="M207.667 764.193L183.57 795.619L160.915 778.258L166.186 771.383L180.307 782.205L184.449 776.804L171.494 766.876L176.765 760.001L189.72 769.929L193.862 764.528L179.802 753.753L185.073 746.878L207.667 764.193Z" fill="#5988FF"/>
<path d="M134.191 755.046L125.059 745.266L135.177 723.233L134.86 722.894L112.179 731.471L103.047 721.691L132 694.67L139.179 702.359L122.44 717.98L122.651 718.206L145.182 709.241L149.51 713.877L138.903 735.837L139.114 736.064L155.965 720.337L163.145 728.026L134.191 755.046Z" fill="#5988FF"/>
<path d="M118.642 676.875L125.356 686.337L85.4877 698.589L76.9828 686.605L101.721 653.033L108.436 662.494L90.0418 686.161L90.2208 686.413L118.642 676.875ZM107.15 687.681L94.5272 669.894L101.089 665.24L113.712 683.027L107.15 687.681Z" fill="#5988FF"/>
<path d="M96.6175 644.394L61.8873 663.431L53.6682 648.444C52.2549 645.867 51.5271 643.333 51.4846 640.843C51.4422 638.353 52.0479 636.065 53.3018 633.982C54.5558 631.898 56.415 630.18 58.8796 628.83C61.3668 627.466 63.8242 626.84 66.2518 626.95C68.6732 627.048 70.9212 627.823 72.9957 629.273C75.0639 630.711 76.8233 632.753 78.2738 635.398L83.1829 644.35L75.857 648.365L71.9892 641.312C71.3818 640.205 70.672 639.366 69.8599 638.797C69.0303 638.223 68.1391 637.925 67.1862 637.903C66.2271 637.87 65.2558 638.124 64.2722 638.663C63.2774 639.208 62.5472 639.888 62.0818 640.701C61.5989 641.51 61.3879 642.412 61.4487 643.408C61.492 644.398 61.8174 645.447 62.4248 646.555L64.2472 649.878L91.4479 634.968L96.6175 644.394Z" fill="#5988FF"/>
<path d="M43.2263 597.35C42.0756 597.94 41.3329 598.773 40.9982 599.848C40.6585 600.91 40.8231 602.245 41.4918 603.852C41.9178 604.875 42.392 605.662 42.9144 606.212C43.42 606.756 43.9455 607.096 44.4909 607.232C45.0363 607.368 45.5794 607.331 46.12 607.12C46.5703 606.96 46.9369 606.717 47.2197 606.39C47.4856 606.056 47.6772 605.627 47.7945 605.104C47.8998 604.585 47.9343 603.963 47.898 603.239C47.8616 602.514 47.7519 601.68 47.5688 600.737L46.9633 597.471C46.5497 595.269 46.3943 593.302 46.4973 591.57C46.6002 589.838 46.9371 588.316 47.5079 587.003C48.0669 585.696 48.8464 584.583 49.8465 583.664C50.8417 582.733 52.0331 581.972 53.4209 581.381C55.8304 580.393 58.116 580.147 60.2779 580.643C62.4397 581.14 64.4158 582.314 66.2062 584.166C67.9916 586.006 69.5282 588.474 70.8162 591.568C72.1388 594.745 72.8228 597.713 72.8682 600.473C72.9086 603.22 72.2252 605.655 70.8179 607.776C69.3938 609.89 67.1546 611.59 64.1004 612.874L60.1771 603.449C61.2712 602.924 62.0952 602.253 62.649 601.437C63.2028 600.62 63.4878 599.677 63.5042 598.61C63.5155 597.53 63.2587 596.359 62.7336 595.098C62.2927 594.039 61.7927 593.207 61.2336 592.601C60.6746 591.996 60.0861 591.606 59.4683 591.43C58.8505 591.254 58.2415 591.284 57.6414 591.52C57.0869 591.765 56.6756 592.152 56.4076 592.683C56.1227 593.206 55.9796 593.936 55.9782 594.872C55.9649 595.813 56.0918 597.023 56.3589 598.504L57.0891 602.472C57.7342 606.001 57.6243 609.042 56.7593 611.594C55.8775 614.138 54.0057 615.999 51.1439 617.176C48.8276 618.153 46.5405 618.379 44.2824 617.852C42.0075 617.319 39.9189 616.143 38.0164 614.323C36.1091 612.492 34.5535 610.131 33.3498 607.239C32.1213 604.288 31.5527 601.529 31.6441 598.964C31.7355 596.399 32.4372 594.16 33.7491 592.246C35.0443 590.325 36.8856 588.861 39.2733 587.853L43.2263 597.35Z" fill="#5988FF"/>
</svg>
