<svg width="1207" height="1205" viewBox="0 0 1207 1205" fill="none" xmlns="http://www.w3.org/2000/svg">
<path d="M531.284 1191.33C531.24 1192.62 531.608 1193.68 532.385 1194.49C533.15 1195.31 534.397 1195.81 536.128 1196.01C537.231 1196.14 538.15 1196.1 538.886 1195.92C539.607 1195.74 540.16 1195.44 540.545 1195.03C540.929 1194.62 541.16 1194.13 541.239 1193.55C541.318 1193.08 541.284 1192.64 541.135 1192.23C540.972 1191.84 540.69 1191.46 540.29 1191.1C539.887 1190.76 539.36 1190.43 538.708 1190.1C538.056 1189.78 537.273 1189.47 536.359 1189.17L533.207 1188.11C531.08 1187.4 529.284 1186.58 527.818 1185.65C526.353 1184.71 525.185 1183.68 524.314 1182.54C523.442 1181.41 522.847 1180.19 522.53 1178.86C522.2 1177.54 522.114 1176.13 522.272 1174.62C522.579 1172.03 523.476 1169.91 524.962 1168.26C526.448 1166.61 528.437 1165.45 530.928 1164.79C533.406 1164.12 536.312 1163.98 539.646 1164.36C543.069 1164.75 545.999 1165.59 548.435 1166.9C550.859 1168.2 552.656 1169.98 553.827 1172.25C554.984 1174.52 555.382 1177.31 555.02 1180.61L544.866 1179.46C544.939 1178.24 544.752 1177.2 544.307 1176.31C543.862 1175.43 543.176 1174.72 542.25 1174.19C541.311 1173.65 540.162 1173.31 538.803 1173.15C537.662 1173.02 536.69 1173.05 535.889 1173.25C535.088 1173.44 534.46 1173.77 534.005 1174.22C533.551 1174.68 533.281 1175.23 533.195 1175.87C533.14 1176.47 533.279 1177.02 533.612 1177.51C533.932 1178.02 534.5 1178.5 535.319 1178.96C536.135 1179.43 537.256 1179.9 538.682 1180.39L542.509 1181.68C545.91 1182.84 548.517 1184.42 550.329 1186.42C552.126 1188.43 552.843 1190.97 552.481 1194.05C552.209 1196.55 551.294 1198.67 549.735 1200.39C548.162 1202.12 546.117 1203.37 543.599 1204.15C541.069 1204.93 538.247 1205.14 535.131 1204.79C531.951 1204.43 529.262 1203.58 527.062 1202.25C524.862 1200.92 523.244 1199.22 522.208 1197.14C521.157 1195.07 520.772 1192.74 521.052 1190.16L531.284 1191.33Z" fill="#5988FF"/>
<path d="M482.29 1195.85L471.726 1193.8L476.57 1168.85C477.146 1165.88 478.354 1163.45 480.193 1161.56C482.018 1159.68 484.305 1158.39 487.055 1157.7C489.802 1157.02 492.841 1157.01 496.172 1157.66C499.529 1158.31 502.355 1159.47 504.649 1161.12C506.941 1162.79 508.581 1164.84 509.568 1167.27C510.541 1169.71 510.739 1172.41 510.163 1175.38L505.319 1200.33L494.754 1198.28L499.421 1174.24C499.655 1173.03 499.598 1171.9 499.251 1170.85C498.901 1169.81 498.309 1168.93 497.475 1168.21C496.629 1167.5 495.604 1167.02 494.4 1166.79C493.184 1166.55 492.056 1166.61 491.015 1166.96C489.974 1167.31 489.097 1167.9 488.383 1168.74C487.666 1169.58 487.191 1170.61 486.957 1171.81L482.29 1195.85Z" fill="#5988FF"/>
<path d="M468.062 1152.15L457.463 1190.39L440.976 1185.81C438.141 1185.02 435.815 1183.77 433.999 1182.06C432.184 1180.35 430.966 1178.32 430.348 1175.96C429.729 1173.6 429.795 1171.07 430.547 1168.36C431.306 1165.62 432.573 1163.42 434.347 1161.75C436.108 1160.08 438.233 1159.01 440.722 1158.54C443.198 1158.06 445.891 1158.22 448.801 1159.03L458.648 1161.76L456.413 1169.83L448.654 1167.67C447.435 1167.34 446.338 1167.26 445.363 1167.44C444.372 1167.64 443.536 1168.07 442.855 1168.74C442.162 1169.4 441.665 1170.28 441.365 1171.36C441.061 1172.46 441.039 1173.45 441.298 1174.36C441.54 1175.27 442.04 1176.05 442.796 1176.7C443.537 1177.37 444.517 1177.87 445.735 1178.2L449.391 1179.22L457.691 1149.27L468.062 1152.15Z" fill="#5988FF"/>
<path d="M426.698 1140.22L413.217 1177.53L397.126 1171.7C394.36 1170.7 392.136 1169.28 390.456 1167.44C388.776 1165.59 387.717 1163.47 387.28 1161.07C386.842 1158.68 387.102 1156.16 388.058 1153.51C389.024 1150.84 390.454 1148.74 392.35 1147.21C394.233 1145.68 396.434 1144.78 398.952 1144.49C401.457 1144.2 404.129 1144.57 406.969 1145.6L416.58 1149.08L413.736 1156.95L406.164 1154.21C404.975 1153.78 403.887 1153.62 402.901 1153.73C401.897 1153.85 401.031 1154.21 400.301 1154.83C399.559 1155.44 398.997 1156.27 398.616 1157.33C398.229 1158.4 398.131 1159.39 398.32 1160.31C398.493 1161.24 398.931 1162.06 399.636 1162.77C400.324 1163.48 401.262 1164.05 402.452 1164.49L406.019 1165.78L416.577 1136.55L426.698 1140.22Z" fill="#5988FF"/>
<path d="M386.36 1125.08L370.248 1161.33L360.415 1156.95L373.002 1128.63L358.359 1122.11L361.883 1114.18L386.36 1125.08Z" fill="#5988FF"/>
<path d="M352.102 1109.44L333.526 1144.49L308.288 1131.09L312.351 1123.43L328.082 1131.78L331.275 1125.76L316.844 1118.09L320.907 1110.43L335.339 1118.09L338.532 1112.06L322.869 1103.75L326.933 1096.08L352.102 1109.44Z" fill="#5988FF"/>
<path d="M279.079 1113.94L268.068 1106.3L273.28 1082.58L272.898 1082.31L252.539 1095.54L241.528 1087.9L264.101 1055.29L272.757 1061.29L259.707 1080.15L259.961 1080.32L280.091 1066.75L285.309 1070.37L279.603 1094.13L279.858 1094.31L292.996 1075.32L301.652 1081.32L279.079 1113.94Z" fill="#5988FF"/>
<path d="M246.607 1041.07L255.48 1048.57L219.908 1070.44L208.669 1060.94L224.246 1022.17L233.12 1029.67L221.213 1057.24L221.45 1057.44L246.607 1041.07ZM238.173 1054.43L221.492 1040.33L226.686 1034.18L243.368 1048.28L238.173 1054.43Z" fill="#5988FF"/>
<path d="M216.805 1015.09L188.827 1043.2L176.705 1031.11C174.621 1029.03 173.207 1026.8 172.463 1024.42C171.72 1022.04 171.656 1019.67 172.272 1017.31C172.888 1014.95 174.189 1012.78 176.174 1010.78C178.178 1008.77 180.361 1007.47 182.723 1006.89C185.076 1006.31 187.453 1006.42 189.855 1007.22C192.247 1008.02 194.512 1009.49 196.651 1011.62L203.891 1018.84L197.99 1024.77L192.286 1019.08C191.39 1018.19 190.472 1017.58 189.531 1017.27C188.572 1016.95 187.633 1016.91 186.711 1017.16C185.781 1017.4 184.92 1017.92 184.128 1018.71C183.326 1019.52 182.817 1020.38 182.599 1021.29C182.364 1022.21 182.416 1023.13 182.755 1024.07C183.076 1025.01 183.685 1025.93 184.581 1026.82L187.268 1029.5L209.181 1007.49L216.805 1015.09Z" fill="#5988FF"/>
<path d="M152.02 985.966C151.11 986.887 150.663 987.912 150.68 989.039C150.688 990.157 151.26 991.377 152.397 992.698C153.121 993.54 153.818 994.141 154.486 994.502C155.136 994.862 155.742 995.022 156.303 994.982C156.864 994.941 157.369 994.736 157.817 994.367C158.196 994.074 158.469 993.728 158.636 993.329C158.785 992.928 158.833 992.46 158.782 991.925C158.72 991.398 158.559 990.795 158.299 990.117C158.038 989.438 157.674 988.678 157.206 987.837L155.612 984.915C154.533 982.948 153.772 981.124 153.33 979.442C152.888 977.761 152.734 976.206 152.868 974.779C152.992 973.359 153.387 972.056 154.052 970.869C154.708 969.673 155.604 968.577 156.74 967.581C158.723 965.888 160.821 964.941 163.031 964.74C165.242 964.539 167.488 965.041 169.768 966.246C172.039 967.441 174.27 969.311 176.459 971.856C178.707 974.469 180.283 977.082 181.186 979.696C182.081 982.299 182.19 984.83 181.512 987.289C180.817 989.747 179.217 992.063 176.712 994.239L170.043 986.488C170.92 985.646 171.495 984.751 171.767 983.8C172.039 982.85 172.017 981.864 171.699 980.842C171.374 979.81 170.765 978.775 169.872 977.738C169.123 976.867 168.388 976.23 167.667 975.829C166.947 975.427 166.266 975.239 165.623 975.264C164.981 975.289 164.411 975.508 163.914 975.919C163.463 976.325 163.192 976.822 163.103 977.411C162.995 977.998 163.086 978.738 163.376 979.629C163.657 980.53 164.155 981.643 164.871 982.969L166.802 986.52C168.515 989.68 169.358 992.609 169.331 995.309C169.285 998.007 168.085 1000.36 165.73 1002.38C163.832 1004.03 161.727 1004.96 159.415 1005.16C157.085 1005.36 154.732 1004.89 152.355 1003.75C149.971 1002.6 147.755 1000.84 145.709 998.463C143.621 996.036 142.22 993.587 141.508 991.116C140.795 988.645 140.765 986.293 141.416 984.061C142.049 981.828 143.344 979.86 145.301 978.156L152.02 985.966Z" fill="#5988FF"/>
<path d="M103.714 919.986C102.685 920.772 102.102 921.725 101.963 922.844C101.817 923.953 102.216 925.24 103.16 926.705C103.761 927.639 104.368 928.331 104.98 928.781C105.574 929.227 106.152 929.469 106.714 929.506C107.275 929.544 107.803 929.41 108.298 929.106C108.714 928.869 109.031 928.564 109.252 928.191C109.455 927.815 109.567 927.358 109.59 926.821C109.602 926.291 109.525 925.671 109.361 924.963C109.196 924.255 108.94 923.452 108.593 922.555L107.416 919.441C106.618 917.344 106.116 915.432 105.91 913.705C105.704 911.979 105.766 910.418 106.095 909.022C106.414 907.633 106.984 906.397 107.806 905.314C108.621 904.219 109.66 903.257 110.922 902.428C113.119 901.025 115.327 900.377 117.545 900.482C119.762 900.588 121.917 901.395 124.009 902.904C126.094 904.401 128.046 906.561 129.864 909.384C131.73 912.282 132.931 915.088 133.465 917.801C133.993 920.504 133.752 923.026 132.742 925.367C131.714 927.705 129.81 929.779 127.03 931.588L121.493 922.99C122.477 922.278 123.17 921.47 123.57 920.566C123.971 919.663 124.085 918.683 123.911 917.627C123.731 916.56 123.27 915.451 122.529 914.301C121.907 913.334 121.266 912.603 120.608 912.105C119.95 911.608 119.301 911.327 118.662 911.264C118.022 911.2 117.427 911.338 116.878 911.677C116.375 912.017 116.039 912.472 115.869 913.042C115.682 913.609 115.67 914.354 115.835 915.277C115.989 916.208 116.329 917.379 116.854 918.791L118.278 922.575C119.54 925.941 119.971 928.959 119.572 931.629C119.155 934.295 117.641 936.462 115.031 938.131C112.923 939.506 110.711 940.135 108.393 940.017C106.058 939.895 103.792 939.106 101.595 937.649C99.3911 936.182 97.4398 934.13 95.7409 931.492C94.0071 928.799 92.9576 926.18 92.5924 923.635C92.2271 921.089 92.5208 918.756 93.4734 916.635C94.4082 914.511 95.9621 912.74 98.1351 911.323L103.714 919.986Z" fill="#5988FF"/>
<path d="M69.1891 884.9L64.0878 875.416L86.4484 863.367C89.1071 861.934 91.7505 861.331 94.3785 861.558C96.989 861.78 99.4312 862.737 101.705 864.431C103.968 866.131 105.903 868.477 107.512 871.468C109.133 874.481 110.029 877.401 110.201 880.228C110.362 883.06 109.816 885.628 108.563 887.931C107.293 890.229 105.329 892.094 102.67 893.527L80.3093 905.576L75.208 896.091L96.7505 884.483C97.8299 883.901 98.6673 883.142 99.2625 882.205C99.8464 881.275 100.151 880.26 100.175 879.161C100.194 878.051 99.9123 876.956 99.3313 875.876C98.744 874.784 97.9855 873.946 97.0557 873.361C96.1258 872.777 95.1121 872.472 94.0144 872.448C92.9053 872.429 91.8111 872.711 90.7317 873.292L69.1891 884.9Z" fill="#5988FF"/>
<path d="M93.9655 846.206L57.6916 862.208L50.7907 846.536C49.6041 843.842 49.0973 841.249 49.27 838.76C49.4428 836.27 50.2444 834.039 51.6746 832.067C53.1049 830.095 55.1071 828.542 57.6813 827.406C60.279 826.26 62.7834 825.847 65.1945 826.166C67.6004 826.474 69.775 827.441 71.7182 829.068C73.6563 830.683 75.2342 832.874 76.452 835.639L80.5738 845L72.9222 848.375L69.6748 841C69.1647 839.842 68.5294 838.944 67.7689 838.305C66.9913 837.66 66.1284 837.286 65.1801 837.182C64.2267 837.066 63.2363 837.235 62.209 837.688C61.1699 838.147 60.3832 838.762 59.8488 839.534C59.2975 840.299 59.0091 841.182 58.9838 842.181C58.9414 843.174 59.1752 844.249 59.6852 845.407L61.2153 848.882L89.6252 836.349L93.9655 846.206Z" fill="#5988FF"/>
<path d="M77.0017 806.603L39.6141 819.79L33.9274 803.637C32.9496 800.86 32.6417 798.236 33.0037 795.767C33.3657 793.298 34.3349 791.134 35.9112 789.277C37.4876 787.421 39.6024 786.024 42.2555 785.088C44.933 784.144 47.4616 783.923 49.8413 784.426C52.2168 784.916 54.3113 786.047 56.1249 787.817C57.9343 789.576 59.3407 791.88 60.3442 794.731L63.7408 804.378L55.8544 807.16L53.1783 799.559C52.758 798.365 52.193 797.421 51.4833 796.726C50.7571 796.024 49.9252 795.585 48.9877 795.409C48.0458 795.22 47.0454 795.313 45.9866 795.686C44.9156 796.064 44.0843 796.618 43.4927 797.347C42.8847 798.068 42.5299 798.925 42.4285 799.92C42.3106 800.906 42.4618 801.996 42.8821 803.19L44.1429 806.772L73.425 796.444L77.0017 806.603Z" fill="#5988FF"/>
<path d="M63.1619 765.769L24.928 776.246L22.0862 765.857L51.9565 757.671L47.7245 742.199L56.0881 739.908L63.1619 765.769Z" fill="#5988FF"/>
<path d="M53.5555 729.331L14.6895 737.138L9.06828 709.102L17.5702 707.394L21.074 724.869L27.7541 723.527L24.5398 707.496L33.0417 705.788L36.256 721.82L42.9361 720.478L39.4476 703.079L47.9495 701.371L53.5555 729.331Z" fill="#5988FF"/>
<path d="M3.83658 675.613L2.76662 662.249L24.4117 651.261L24.3746 650.798L1.25754 643.401L0.187585 630.037L39.7018 626.868L40.5429 637.373L17.6988 639.206L17.7235 639.515L40.964 646.513L41.4712 652.847L19.4864 663.473L19.5112 663.782L42.5097 661.938L43.3508 672.443L3.83658 675.613Z" fill="#5988FF"/>
<path d="M39.6134 604.313L39.434 615.936L0 602.228L0.227309 587.506L40.0657 575.024L39.8862 586.647L11.0315 594.881L11.0267 595.191L39.6134 604.313ZM23.9422 606.241L24.2796 584.39L32.3307 584.515L31.9933 606.366L23.9422 606.241Z" fill="#5988FF"/>
<path d="M40.8301 564.775L1.3784 560.902L3.04835 543.858C3.33549 540.927 4.16464 538.419 5.5358 536.335C6.90697 534.25 8.69902 532.7 10.912 531.684C13.1249 530.669 15.6312 530.298 18.4308 530.573C21.2561 530.85 23.6409 531.72 25.5851 533.183C27.5305 534.633 28.9511 536.544 29.8467 538.916C30.7436 541.275 31.0447 543.958 30.75 546.966L29.7526 557.147L21.4307 556.33L22.2166 548.309C22.34 547.049 22.2269 545.954 21.8771 545.024C21.5158 544.081 20.9475 543.331 20.1722 542.774C19.3981 542.205 18.4524 541.866 17.3352 541.756C16.205 541.645 15.2179 541.795 14.3738 542.205C13.5182 542.601 12.8344 543.228 12.3224 544.087C11.7989 544.931 11.4754 545.983 11.352 547.242L10.9817 551.021L41.8804 554.054L40.8301 564.775Z" fill="#5988FF"/>
<path d="M22.324 496.146C21.0352 496.024 19.9601 496.326 19.0987 497.053C18.2395 497.767 17.659 498.983 17.3573 500.7C17.165 501.794 17.1409 502.715 17.2849 503.461C17.4183 504.193 17.6784 504.763 18.0651 505.172C18.4518 505.581 18.93 505.843 19.4997 505.956C19.9654 506.064 20.4057 506.056 20.8205 505.933C21.2248 505.794 21.6175 505.535 21.9985 505.157C22.3668 504.776 22.7309 504.269 23.0908 503.637C23.4508 503.006 23.8076 502.242 24.1614 501.347L25.4109 498.263C26.2484 496.181 27.1773 494.436 28.1976 493.029C29.2179 491.622 30.3224 490.518 31.5112 489.717C32.6873 488.915 33.9447 488.395 35.2833 488.159C36.6242 487.909 38.0392 487.909 39.5284 488.158C42.0934 488.623 44.1537 489.648 45.7095 491.233C47.2652 492.818 48.2991 494.876 48.8111 497.405C49.3253 499.922 49.2919 502.834 48.7108 506.141C48.114 509.537 47.0912 512.413 45.6425 514.767C44.1959 517.109 42.3076 518.797 39.9775 519.829C37.6369 520.846 34.8324 521.074 31.5639 520.512L33.3341 510.437C34.5399 510.584 35.5965 510.462 36.5037 510.07C37.411 509.679 38.1592 509.037 38.7485 508.144C39.34 507.239 39.7542 506.112 39.9911 504.763C40.19 503.631 40.2167 502.659 40.0712 501.846C39.9258 501.034 39.6398 500.387 39.2135 499.905C38.7871 499.424 38.2573 499.121 37.6241 498.996C37.0246 498.904 36.4689 499.009 35.957 499.313C35.4346 499.601 34.9207 500.14 34.4151 500.93C33.8968 501.717 33.3514 502.808 32.7788 504.202L31.2561 507.947C29.8983 511.275 28.1671 513.783 26.0623 515.471C23.9471 517.145 21.3656 517.707 18.3177 517.157C15.8372 516.734 13.7866 515.691 12.1658 514.028C10.5345 512.351 9.40674 510.231 8.78257 507.669C8.16064 505.094 8.12124 502.261 8.66437 499.17C9.21867 496.016 10.2255 493.38 11.6849 491.263C13.1443 489.146 14.943 487.634 17.0811 486.725C19.2087 485.801 21.5509 485.558 24.1076 485.995L22.324 496.146Z" fill="#5988FF"/>
<path d="M42.7497 416.942C41.4901 416.644 40.3835 416.795 39.4301 417.396C38.4807 417.985 37.7383 419.109 37.2028 420.768C36.8617 421.825 36.711 422.733 36.7507 423.492C36.7821 424.236 36.9611 424.836 37.2877 425.295C37.6144 425.753 38.052 426.078 38.6006 426.269C39.047 426.441 39.4841 426.494 39.912 426.428C40.3315 426.347 40.7561 426.145 41.1857 425.822C41.6029 425.496 42.0334 425.044 42.4769 424.468C42.9204 423.892 43.3791 423.186 43.8528 422.348L45.5154 419.465C46.6318 417.519 47.7922 415.919 48.9966 414.666C50.201 413.413 51.4471 412.472 52.7349 411.844C54.0103 411.211 55.3273 410.87 56.6857 410.821C58.0481 410.759 59.4496 410.954 60.8903 411.406C63.3667 412.221 65.2661 413.52 66.5886 415.305C67.911 417.09 68.6515 419.27 68.8101 421.846C68.9727 424.41 68.5383 427.289 67.5071 430.485C66.448 433.766 65.0388 436.473 63.2794 438.605C61.524 440.725 59.4212 442.135 56.9711 442.836C54.5127 443.521 51.7036 443.359 48.5439 442.351L51.6854 432.617C52.8594 432.929 53.9227 432.954 54.8752 432.691C55.8276 432.429 56.6572 431.897 57.3639 431.094C58.0745 430.278 58.64 429.219 59.0605 427.917C59.4135 426.823 59.5739 425.863 59.5418 425.039C59.5096 424.214 59.3156 423.534 58.9597 422.998C58.6038 422.462 58.1208 422.089 57.5108 421.878C56.9297 421.703 56.3648 421.731 55.816 421.961C55.2589 422.174 54.6756 422.637 54.066 423.35C53.4442 424.058 52.7537 425.063 51.9945 426.365L49.9703 429.864C48.167 432.972 46.1067 435.218 43.7894 436.599C41.4638 437.965 38.8295 438.165 35.8865 437.2C33.4881 436.438 31.6007 435.122 30.2244 433.252C28.8398 431.366 28.015 429.11 27.7498 426.487C27.4886 423.85 27.84 421.039 28.8038 418.052C29.7875 415.004 31.1479 412.533 32.885 410.638C34.6222 408.743 36.6121 407.493 38.855 406.888C41.0896 406.267 43.4429 406.349 45.915 407.135L42.7497 416.942Z" fill="#5988FF"/>
<path d="M48.0148 367.979L52.118 358.021L75.5947 367.712C78.3862 368.864 80.5263 370.53 82.0152 372.71C83.4971 374.872 84.3032 377.37 84.4335 380.204C84.552 383.033 83.9642 386.018 82.6703 389.158C81.3665 392.323 79.6764 394.866 77.5999 396.789C75.5114 398.707 73.1801 399.91 70.606 400.399C68.0249 400.87 65.3387 400.53 62.5472 399.377L39.0705 389.686L43.1737 379.728L65.7915 389.065C66.9248 389.532 68.0421 389.7 69.1434 389.568C70.2328 389.431 71.2101 389.024 72.0752 388.347C72.9452 387.659 73.6139 386.747 74.0813 385.613C74.5536 384.467 74.7213 383.348 74.5843 382.258C74.4473 381.167 74.0408 380.189 73.3647 379.323C72.6766 378.453 71.7659 377.783 70.6327 377.316L48.0148 367.979Z" fill="#5988FF"/>
<path d="M93.624 362.668L58.2795 344.703L66.027 329.433C67.3591 326.807 69.0425 324.773 71.0771 323.33C73.1117 321.887 75.3442 321.095 77.7746 320.955C80.2051 320.814 82.6744 321.381 85.1826 322.656C87.7137 323.942 89.6192 325.621 90.899 327.691C92.1846 329.749 92.8138 332.046 92.7864 334.582C92.7649 337.106 92.0705 339.715 90.7033 342.41L86.0759 351.531L78.6204 347.741L82.2663 340.555C82.8388 339.427 83.1311 338.366 83.1431 337.372C83.1494 336.362 82.8925 335.456 82.3723 334.656C81.858 333.844 81.1003 333.183 80.0994 332.675C79.0869 332.16 78.113 331.94 77.1776 332.015C76.2366 332.073 75.3717 332.408 74.5831 333.021C73.7887 333.617 73.1053 334.479 72.5327 335.608L70.8149 338.994L98.4969 353.064L93.624 362.668Z" fill="#5988FF"/>
<path d="M113.503 324.447L79.6299 303.836L88.5183 289.202C90.0466 286.686 91.8801 284.786 94.0187 283.502C96.1573 282.219 98.4437 281.6 100.878 281.645C103.312 281.69 105.731 282.444 108.134 283.907C110.56 285.383 112.332 287.202 113.451 289.364C114.576 291.514 115.028 293.853 114.807 296.379C114.594 298.894 113.703 301.443 112.134 304.025L106.825 312.766L99.6801 308.418L103.863 301.532C104.52 300.45 104.892 299.415 104.98 298.425C105.063 297.418 104.876 296.495 104.418 295.657C103.967 294.808 103.262 294.092 102.303 293.508C101.332 292.918 100.378 292.625 99.4397 292.628C98.4971 292.614 97.6092 292.882 96.7761 293.433C95.9387 293.967 95.1915 294.774 94.5346 295.856L92.5639 299.1L119.093 315.243L113.503 324.447Z" fill="#5988FF"/>
<path d="M136.313 287.868L103.999 264.885L110.233 256.104L135.478 274.059L144.761 260.983L151.83 266.011L136.313 287.868Z" fill="#5988FF"/>
<path d="M158.403 257.351L127.754 232.188L145.873 210.079L152.577 215.583L141.284 229.364L146.552 233.689L156.912 221.046L163.617 226.551L153.256 239.193L158.524 243.518L169.768 229.797L176.473 235.302L158.403 257.351Z" fill="#5988FF"/>
<path d="M168.454 184.818L178.109 175.526L200.312 185.335L200.647 185.013L191.727 162.421L201.383 153.129L228.857 181.731L221.267 189.036L205.383 172.5L205.16 172.715L214.466 195.15L209.889 199.554L187.751 189.253L187.528 189.468L203.518 206.115L195.928 213.42L168.454 184.818Z" fill="#5988FF"/>
<path d="M246.24 167.38L237.14 174.602L222.767 135.374L234.294 126.227L269.174 149.182L260.073 156.404L235.434 139.266L235.191 139.459L246.24 167.38ZM234.826 156.462L251.935 142.885L256.937 149.201L239.828 162.777L234.826 156.462Z" fill="#5988FF"/>
<path d="M277.584 143.284L255.594 110.272L269.831 100.771C272.279 99.1377 274.743 98.192 277.223 97.934C279.703 97.676 282.037 98.0825 284.223 99.1536C286.41 100.225 288.284 101.931 289.844 104.274C291.419 106.638 292.256 109.037 292.357 111.469C292.468 113.894 291.89 116.205 290.623 118.401C289.367 120.589 287.482 122.522 284.97 124.198L276.467 129.873L271.828 122.909L278.528 118.438C279.58 117.736 280.355 116.955 280.852 116.096C281.353 115.218 281.573 114.303 281.513 113.35C281.462 112.39 281.126 111.442 280.503 110.507C279.873 109.562 279.132 108.892 278.281 108.498C277.432 108.086 276.514 107.953 275.527 108.1C274.542 108.229 273.524 108.645 272.472 109.347L269.316 111.453L286.538 137.309L277.584 143.284Z" fill="#5988FF"/>
<path d="M318.93 85.4875C318.208 84.4119 317.293 83.7707 316.185 83.5638C315.089 83.3505 313.781 83.6708 312.262 84.5245C311.295 85.0684 310.568 85.6325 310.082 86.2168C309.6 86.7836 309.324 87.3462 309.253 87.9048C309.181 88.4634 309.282 88.9992 309.555 89.5123C309.767 89.9416 310.051 90.2778 310.41 90.5208C310.773 90.7462 311.222 90.8865 311.756 90.9418C312.284 90.9858 312.906 90.9471 313.622 90.8259C314.339 90.7047 315.155 90.4977 316.071 90.205L319.247 89.2194C321.388 88.5497 323.325 88.1645 325.059 88.0637C326.793 87.9629 328.346 88.1194 329.718 88.5334C331.083 88.9361 332.281 89.581 333.312 90.4683C334.354 91.3491 335.25 92.4452 336 93.7565C337.266 96.0376 337.778 98.2827 337.537 100.492C337.297 102.701 336.361 104.804 334.729 106.803C333.109 108.795 330.836 110.613 327.911 112.257C324.907 113.946 322.036 114.975 319.298 115.344C316.571 115.706 314.07 115.312 311.797 114.161C309.528 112.992 307.576 110.963 305.941 108.075L314.851 103.067C315.502 104.094 316.265 104.835 317.142 105.29C318.019 105.745 318.989 105.918 320.053 105.809C321.128 105.694 322.262 105.301 323.454 104.63C324.456 104.068 325.224 103.473 325.76 102.845C326.296 102.218 326.616 101.587 326.718 100.952C326.82 100.316 326.719 99.7141 326.415 99.1447C326.106 98.6217 325.673 98.258 325.114 98.0536C324.56 97.8316 323.818 97.7748 322.887 97.8832C321.95 97.9803 320.762 98.2486 319.321 98.688L315.461 99.88C312.028 100.936 308.992 101.183 306.354 100.622C303.72 100.043 301.651 98.3992 300.146 95.6901C298.903 93.5004 298.41 91.2515 298.669 88.9433C298.933 86.6175 299.858 84.4015 301.444 82.2954C303.041 80.183 305.206 78.3585 307.94 76.8217C310.731 75.2533 313.406 74.3641 315.967 74.1541C318.528 73.9441 320.837 74.3795 322.894 75.4602C324.955 76.5233 326.627 78.1835 327.908 80.4408L318.93 85.4875Z" fill="#5988FF"/>
<path d="M393.106 51.1526C392.539 49.9877 391.721 49.2263 390.653 48.8684C389.596 48.5059 388.257 48.6426 386.635 49.2785C385.602 49.6836 384.804 50.142 384.242 50.6536C383.687 51.1485 383.336 51.6676 383.189 52.211C383.041 52.7544 383.067 53.299 383.267 53.8449C383.417 54.2993 383.653 54.6716 383.974 54.9617C384.303 55.2351 384.728 55.436 385.249 55.5645C385.766 55.6809 386.387 55.7286 387.114 55.7074C387.84 55.6862 388.677 55.5939 389.625 55.4304L392.907 54.8927C395.119 54.5249 397.09 54.4107 398.822 54.5503C400.553 54.6898 402.07 55.0593 403.372 55.6587C404.668 56.246 405.766 57.0502 406.665 58.0712C407.575 59.0875 408.312 60.2968 408.874 61.6991C409.813 64.1331 410.011 66.4275 409.468 68.5822C408.926 70.7369 407.709 72.6913 405.818 74.4454C403.938 76.1947 401.437 77.6818 398.313 78.9066C395.105 80.1643 392.119 80.7868 389.357 80.7742C386.606 80.7568 384.184 80.0211 382.09 78.567C380.004 77.0961 378.35 74.8177 377.129 71.7317L386.645 68.0009C387.147 69.1078 387.801 69.9472 388.607 70.519C389.413 71.0908 390.35 71.3962 391.418 71.435C392.499 71.4691 393.676 71.2366 394.95 70.7372C396.019 70.318 396.862 69.8348 397.48 69.2876C398.097 68.7403 398.5 68.1592 398.689 67.5442C398.878 66.9291 398.861 66.3186 398.638 65.7126C398.404 65.1521 398.025 64.732 397.5 64.4524C396.982 64.1561 396.255 63.9974 395.318 63.9762C394.376 63.9431 393.162 64.0447 391.675 64.281L387.687 64.9288C384.142 65.5005 381.101 65.3264 378.565 64.4063C376.036 63.4696 374.213 61.5557 373.096 58.6647C372.166 56.3244 371.989 54.029 372.563 51.7785C373.145 49.5114 374.366 47.4443 376.227 45.5773C378.1 43.7055 380.496 42.1973 383.416 41.0526C386.396 39.8844 389.168 39.3731 391.734 39.5186C394.299 39.6642 396.526 40.4141 398.414 41.7684C400.309 43.1059 401.736 44.981 402.694 47.3935L393.106 51.1526Z" fill="#5988FF"/>
<path d="M434.3 24.2242L444.598 21.0964L451.972 45.4195C452.849 48.3116 452.916 51.0243 452.174 53.5578C451.44 56.0752 450.019 58.2817 447.91 60.1774C445.798 62.0608 443.118 63.4956 439.87 64.482C436.598 65.4758 433.561 65.7773 430.759 65.3866C427.953 64.9835 425.547 63.9395 423.539 62.2547C421.54 60.5538 420.102 58.2573 419.225 55.3652L411.851 31.0422L422.15 27.9144L429.254 51.3476C429.61 52.5218 430.187 53.4936 430.987 54.263C431.783 55.0201 432.717 55.5194 433.788 55.761C434.871 55.9988 435.999 55.9395 437.172 55.5833C438.358 55.2232 439.329 54.6449 440.085 53.8483C440.841 53.0517 441.34 52.1173 441.582 51.0452C441.819 49.9608 441.76 48.8315 441.404 47.6574L434.3 24.2242Z" fill="#5988FF"/>
<path d="M467.29 56.1917L458.799 17.4356L475.512 13.7669C478.386 13.136 481.025 13.1518 483.429 13.8141C485.833 14.4764 487.859 15.7044 489.507 17.4979C491.155 19.2915 492.28 21.5634 492.883 24.3137C493.491 27.0892 493.4 29.6281 492.61 31.9304C491.832 34.2299 490.454 36.172 488.477 37.7565C486.511 39.3383 484.054 40.4529 481.104 41.1003L471.122 43.2915L469.331 35.1164L477.196 33.39C478.431 33.1188 479.436 32.6733 480.212 32.0535C480.998 31.4183 481.535 30.6457 481.825 29.736C482.127 28.8234 482.158 27.8183 481.917 26.7207C481.674 25.6105 481.227 24.7169 480.577 24.0399C479.936 23.3474 479.129 22.8899 478.156 22.6672C477.192 22.4292 476.092 22.4457 474.857 22.7169L471.152 23.5303L477.802 53.8842L467.29 56.1917Z" fill="#5988FF"/>
<path d="M509.431 47.3856L503.917 8.09418L520.862 5.71194C523.775 5.30232 526.405 5.51946 528.752 6.36337C531.099 7.20727 533.025 8.58628 534.532 10.5004C536.038 12.4145 536.987 14.7657 537.379 17.554C537.773 20.3678 537.489 22.8924 536.526 25.1277C535.575 27.3612 534.054 29.1924 531.961 30.6213C529.881 32.0485 527.346 32.9722 524.355 33.3926L514.235 34.8155L513.072 26.5275L521.046 25.4064C522.298 25.2304 523.334 24.8629 524.155 24.3041C524.987 23.7307 525.581 23.0014 525.939 22.1164C526.31 21.2295 526.417 20.2298 526.261 19.117C526.103 17.9915 525.726 17.0663 525.129 16.3416C524.543 15.6023 523.773 15.0845 522.82 14.7882C521.877 14.4773 520.779 14.4099 519.527 14.5859L515.77 15.1141L520.089 45.8873L509.431 47.3856Z" fill="#5988FF"/>
<path d="M552.16 41.8896L549.467 2.30404L560.204 1.57227L562.308 32.4985L578.297 31.4087L578.886 40.068L552.16 41.8896Z" fill="#5988FF"/>
<path d="M589.746 39.6772L589.793 0L618.362 0.0341072L618.352 8.71349L600.544 8.69223L600.536 15.5117L616.873 15.5312L616.862 24.2106L600.526 24.1911L600.518 31.0106L618.248 31.0318L618.238 39.7112L589.746 39.6772Z" fill="#5988FF"/>
<path d="M652.194 1.52918L665.493 3.12446L671.97 26.5355L672.431 26.5908L684.251 5.37444L697.55 6.96972L692.833 46.365L682.378 45.1109L685.105 22.3355L684.798 22.2986L673.344 43.715L667.04 42.9589L660.985 19.2862L660.678 19.2493L657.932 42.1786L647.477 40.9245L652.194 1.52918Z" fill="#5988FF"/>
<path d="M714.938 50.7429L703.591 48.2664L724.821 12.2904L739.193 15.4273L743.532 56.9838L732.185 54.5072L729.833 24.5677L729.53 24.5017L714.938 50.7429ZM716.152 34.9862L737.484 39.642L735.769 47.5164L714.436 42.8605L716.152 34.9862Z" fill="#5988FF"/>
<path d="M753.418 59.7624L765.019 21.8223L781.38 26.8342C784.193 27.696 786.485 29.0059 788.255 30.7637C790.025 32.5216 791.189 34.5866 791.745 36.9588C792.302 39.331 792.169 41.8632 791.346 44.5556C790.515 47.2727 789.191 49.4402 787.374 51.0582C785.569 52.6799 783.416 53.6954 780.916 54.1047C778.428 54.5177 775.741 54.282 772.853 53.3975L763.081 50.4039L765.528 42.4009L773.227 44.7595C774.437 45.1299 775.531 45.2356 776.511 45.0765C777.507 44.9088 778.354 44.4997 779.052 43.8491C779.763 43.2023 780.282 42.3417 780.611 41.2672C780.943 40.1804 780.992 39.1823 780.757 38.2729C780.538 37.355 780.06 36.56 779.32 35.8879C778.597 35.2071 777.631 34.6816 776.422 34.3112L772.794 33.1999L763.709 62.9147L753.418 59.7624Z" fill="#5988FF"/>
<path d="M824.291 55.1883C824.665 53.948 824.582 52.8333 824.04 51.8442C823.511 50.8599 822.435 50.0497 820.813 49.4138C819.78 49.0087 818.883 48.8029 818.124 48.7963C817.381 48.7825 816.771 48.9248 816.294 49.2232C815.816 49.5216 815.466 49.9391 815.242 50.4755C815.044 50.9111 814.965 51.3446 815.004 51.776C815.059 52.2002 815.235 52.6366 815.531 53.0854C815.831 53.5222 816.255 53.9796 816.802 54.4578C817.349 54.9359 818.026 55.4371 818.833 55.9614L821.606 57.7979C823.48 59.0316 825.004 60.2883 826.18 61.5678C827.357 62.8473 828.219 64.1495 828.768 65.4743C829.321 66.7871 829.581 68.1235 829.548 69.4837C829.526 70.8486 829.246 72.2369 828.708 73.6486C827.745 76.0732 826.333 77.8918 824.473 79.1044C822.613 80.317 820.393 80.9241 817.815 80.9259C815.249 80.9323 812.403 80.3231 809.279 79.0984C806.071 77.8406 803.458 76.268 801.439 74.3806C799.431 72.4978 798.153 70.3112 797.603 67.8208C797.07 65.323 797.402 62.5264 798.6 59.431L808.116 63.1618C807.733 64.3158 807.644 65.3766 807.847 66.3441C808.051 67.3116 808.531 68.1728 809.289 68.9277C810.059 69.6872 811.081 70.3167 812.354 70.816C813.424 71.2353 814.371 71.4539 815.195 71.472C816.02 71.49 816.71 71.3376 817.266 71.0146C817.822 70.6916 818.223 70.2318 818.471 69.6352C818.68 69.0653 818.687 68.4992 818.491 67.937C818.312 67.3674 817.886 66.7565 817.213 66.1041C816.544 65.4398 815.584 64.6887 814.332 63.8511L810.966 61.6159C807.975 59.6251 805.862 57.4301 804.625 55.0309C803.405 52.6244 803.365 49.9804 804.507 47.0989C805.412 44.7491 806.84 42.9436 808.788 41.6824C810.754 40.4139 813.053 39.727 815.686 39.6217C818.33 39.5212 821.113 40.0433 824.032 41.1879C827.012 42.3562 829.394 43.8657 831.178 45.7165C832.962 47.5673 834.088 49.6314 834.554 51.909C835.038 54.1793 834.813 56.5254 833.879 58.9473L824.291 55.1883Z" fill="#5988FF"/>
<path d="M897.814 90.9059C898.356 89.7291 898.427 88.6136 898.027 87.5592C897.638 86.5112 896.684 85.5603 895.166 84.7065C894.198 84.1626 893.338 83.835 892.587 83.7237C891.853 83.6074 891.229 83.6641 890.716 83.8938C890.202 84.1235 889.797 84.4886 889.502 84.9891C889.245 85.3931 889.107 85.8115 889.086 86.2442C889.083 86.6719 889.197 87.1285 889.428 87.6138C889.665 88.0878 890.022 88.5994 890.498 89.1486C890.974 89.6977 891.575 90.2876 892.302 90.9182L894.796 93.12C896.481 94.6005 897.818 96.0556 898.807 97.4853C899.795 98.9149 900.47 100.324 900.831 101.712C901.198 103.088 901.272 104.448 901.051 105.79C900.842 107.139 900.373 108.476 899.645 109.8C898.358 112.068 896.709 113.674 894.699 114.619C892.69 115.563 890.408 115.858 887.854 115.504C885.311 115.156 882.577 114.16 879.652 112.515C876.648 110.827 874.276 108.908 872.536 106.76C870.807 104.618 869.842 102.276 869.641 99.7336C869.457 97.1861 870.172 94.4621 871.784 91.5615L880.695 96.5703C880.157 97.6605 879.923 98.6988 879.991 99.6851C880.059 100.671 880.416 101.591 881.063 102.443C881.721 103.302 882.646 104.066 883.839 104.737C884.84 105.299 885.748 105.647 886.562 105.778C887.376 105.91 888.08 105.854 888.676 105.611C889.271 105.368 889.732 104.968 890.059 104.411C890.345 103.876 890.43 103.316 890.313 102.732C890.214 102.143 889.877 101.479 889.3 100.74C888.729 99.99 887.881 99.1136 886.757 98.1111L883.731 95.4326C881.043 93.048 879.252 90.5822 878.358 88.0352C877.481 85.4833 877.806 82.8591 879.334 80.1627C880.555 77.9604 882.217 76.3692 884.321 75.389C886.442 74.404 888.814 74.041 891.436 74.3002C894.07 74.5657 896.753 75.4668 899.487 77.0036C902.278 78.572 904.429 80.3959 905.941 82.4753C907.453 84.5547 908.283 86.7545 908.432 89.0748C908.598 91.3901 908.052 93.6827 906.793 95.9526L897.814 90.9059Z" fill="#5988FF"/>
<path d="M944.722 105.762L953.662 111.759L939.525 132.874C937.844 135.385 935.789 137.155 933.36 138.184C930.949 139.21 928.343 139.507 925.541 139.074C922.747 138.63 919.941 137.462 917.121 135.571C914.281 133.666 912.124 131.504 910.652 129.086C909.187 126.658 908.47 124.132 908.501 121.51C908.551 118.885 909.416 116.316 911.097 113.806L925.234 92.6906L934.174 98.6872L920.554 119.03C919.872 120.049 919.486 121.112 919.397 122.219C919.316 123.315 919.521 124.354 920.013 125.337C920.515 126.327 921.275 127.163 922.294 127.846C923.323 128.537 924.385 128.922 925.48 129.004C926.575 129.085 927.613 128.88 928.595 128.388C929.584 127.885 930.419 127.124 931.102 126.105L944.722 105.762Z" fill="#5988FF"/>
<path d="M940.896 151.562L965.485 120.441L978.906 131.064C981.214 132.891 982.873 134.945 983.883 137.227C984.893 139.508 985.227 141.856 984.884 144.268C984.541 146.68 983.497 148.991 981.752 151.199C979.991 153.428 977.97 154.965 975.689 155.811C973.419 156.665 971.045 156.828 968.567 156.299C966.099 155.778 963.681 154.581 961.313 152.706L953.297 146.361L958.484 139.796L964.799 144.795C965.791 145.58 966.773 146.077 967.743 146.286C968.732 146.492 969.669 146.419 970.556 146.067C971.453 145.723 972.25 145.11 972.946 144.229C973.65 143.338 974.059 142.426 974.17 141.493C974.3 140.558 974.143 139.643 973.698 138.748C973.272 137.851 972.563 137.01 971.571 136.225L968.595 133.869L949.337 158.244L940.896 151.562Z" fill="#5988FF"/>
<path d="M974.391 178.63L1001.28 149.476L1013.85 161.093C1016.01 163.091 1017.51 165.266 1018.35 167.618C1019.18 169.97 1019.33 172.336 1018.81 174.715C1018.28 177.094 1017.06 179.318 1015.16 181.387C1013.23 183.475 1011.1 184.854 1008.76 185.523C1006.43 186.201 1004.05 186.182 1001.62 185.466C999.2 184.758 996.881 183.379 994.662 181.329L987.153 174.391L992.825 168.241L998.741 173.708C999.67 174.566 1000.61 175.137 1001.56 175.418C1002.53 175.7 1003.47 175.698 1004.38 175.415C1005.3 175.141 1006.15 174.591 1006.91 173.765C1007.68 172.93 1008.15 172.052 1008.34 171.13C1008.54 170.208 1008.45 169.284 1008.07 168.358C1007.72 167.431 1007.08 166.538 1006.15 165.679L1003.36 163.103L982.299 185.937L974.391 178.63Z" fill="#5988FF"/>
<path d="M1005.7 208.248L1034.6 181.094L1041.97 188.947L1019.39 210.162L1030.36 221.858L1024.03 227.798L1005.7 208.248Z" fill="#5988FF"/>
<path d="M1031.21 235.962L1061.92 210.872L1079.99 233.025L1073.27 238.513L1062.01 224.705L1056.73 229.018L1067.06 241.685L1060.34 247.173L1050.01 234.506L1044.74 238.819L1055.95 252.566L1049.23 258.055L1031.21 235.962Z" fill="#5988FF"/>
<path d="M1100.26 260.179L1107.45 271.491L1093.45 291.334L1093.69 291.726L1117.58 287.446L1124.77 298.758L1091.32 320.053L1085.67 311.16L1105.01 298.849L1104.84 298.588L1081.03 303.278L1077.62 297.916L1092.09 278.234L1091.93 277.972L1072.46 290.366L1066.81 281.473L1100.26 260.179Z" fill="#5988FF"/>
<path d="M1101.94 339.948L1096.67 329.59L1137.93 323.253L1144.61 336.373L1115.22 366.05L1109.95 355.692L1131.61 334.91L1131.47 334.634L1101.94 339.948ZM1114.89 330.91L1124.8 350.383L1117.63 354.041L1107.72 334.568L1114.89 330.91Z" fill="#5988FF"/>
<path d="M1119.33 375.469L1156.02 360.429L1162.5 376.277C1163.62 379.002 1164.06 381.606 1163.82 384.091C1163.58 386.575 1162.72 388.784 1161.24 390.718C1159.76 392.651 1157.71 394.151 1155.11 395.219C1152.48 396.296 1149.97 396.643 1147.57 396.26C1145.17 395.889 1143.02 394.864 1141.12 393.187C1139.23 391.521 1137.71 389.29 1136.56 386.493L1132.69 377.027L1140.43 373.855L1143.48 381.313C1143.96 382.484 1144.57 383.399 1145.31 384.057C1146.07 384.722 1146.93 385.119 1147.87 385.248C1148.82 385.389 1149.82 385.247 1150.85 384.821C1151.9 384.39 1152.71 383.795 1153.26 383.038C1153.83 382.287 1154.14 381.413 1154.2 380.414C1154.26 379.423 1154.06 378.342 1153.58 377.171L1152.14 373.657L1123.41 385.437L1119.33 375.469Z" fill="#5988FF"/>
<path d="M1167.75 427.473C1168.95 426.977 1169.76 426.207 1170.18 425.161C1170.6 424.127 1170.55 422.781 1170.01 421.122C1169.67 420.065 1169.26 419.24 1168.79 418.647C1168.33 418.063 1167.83 417.681 1167.3 417.5C1166.77 417.32 1166.22 417.312 1165.66 417.479C1165.2 417.601 1164.82 417.814 1164.51 418.117C1164.22 418.429 1163.99 418.842 1163.83 419.355C1163.68 419.864 1163.6 420.482 1163.57 421.209C1163.55 421.936 1163.59 422.778 1163.7 423.734L1164.03 427.046C1164.27 429.278 1164.26 431.255 1164.01 432.976C1163.77 434.698 1163.31 436.19 1162.63 437.454C1161.97 438.714 1161.1 439.762 1160.03 440.598C1158.96 441.445 1157.71 442.108 1156.27 442.585C1153.79 443.374 1151.49 443.432 1149.37 442.759C1147.26 442.086 1145.38 440.751 1143.75 438.755C1142.12 436.771 1140.79 434.181 1139.76 430.986C1138.7 427.704 1138.26 424.684 1138.44 421.924C1138.62 419.177 1139.51 416.802 1141.08 414.799C1142.68 412.804 1145.05 411.291 1148.2 410.258L1151.34 419.992C1150.21 420.427 1149.33 421.029 1148.71 421.8C1148.09 422.57 1147.73 423.488 1147.63 424.553C1147.53 425.63 1147.69 426.82 1148.11 428.123C1148.46 429.217 1148.89 430.089 1149.4 430.739C1149.91 431.389 1150.46 431.827 1151.07 432.053C1151.67 432.279 1152.28 432.299 1152.89 432.113C1153.47 431.914 1153.91 431.561 1154.22 431.053C1154.55 430.554 1154.75 429.837 1154.83 428.902C1154.92 427.964 1154.89 426.744 1154.75 425.244L1154.34 421.221C1153.99 417.644 1154.35 414.616 1155.42 412.139C1156.51 409.67 1158.53 407.965 1161.48 407.024C1163.87 406.238 1166.17 406.2 1168.38 406.911C1170.6 407.63 1172.59 408.976 1174.34 410.949C1176.09 412.934 1177.45 415.42 1178.41 418.406C1179.4 421.454 1179.74 424.255 1179.44 426.809C1179.14 429.364 1178.25 431.543 1176.79 433.346C1175.34 435.159 1173.38 436.47 1170.92 437.28L1167.75 427.473Z" fill="#5988FF"/>
<path d="M1186.69 507.045C1187.95 506.719 1188.85 506.068 1189.42 505.09C1189.98 504.125 1190.11 502.784 1189.81 501.067C1189.62 499.973 1189.33 499.1 1188.94 498.447C1188.56 497.805 1188.12 497.358 1187.62 497.105C1187.12 496.853 1186.58 496.77 1186 496.858C1185.53 496.916 1185.12 497.073 1184.77 497.331C1184.44 497.6 1184.16 497.977 1183.93 498.463C1183.71 498.947 1183.54 499.547 1183.42 500.264C1183.3 500.981 1183.22 501.82 1183.19 502.782L1183.07 506.109C1182.99 508.352 1182.71 510.309 1182.23 511.98C1181.76 513.651 1181.09 515.066 1180.25 516.225C1179.42 517.381 1178.41 518.299 1177.23 518.978C1176.06 519.67 1174.73 520.153 1173.24 520.428C1170.67 520.867 1168.39 520.607 1166.39 519.648C1164.38 518.69 1162.71 517.109 1161.37 514.906C1160.03 512.716 1159.06 509.967 1158.48 506.66C1157.89 503.264 1157.87 500.211 1158.43 497.503C1158.99 494.808 1160.19 492.577 1162.03 490.811C1163.88 489.055 1166.44 487.884 1169.7 487.296L1171.47 497.371C1170.29 497.645 1169.34 498.12 1168.62 498.798C1167.9 499.475 1167.41 500.334 1167.16 501.375C1166.92 502.428 1166.91 503.629 1167.15 504.977C1167.35 506.109 1167.65 507.032 1168.07 507.746C1168.48 508.46 1168.97 508.971 1169.54 509.278C1170.1 509.585 1170.7 509.689 1171.34 509.59C1171.93 509.472 1172.42 509.183 1172.8 508.723C1173.19 508.274 1173.49 507.592 1173.7 506.677C1173.92 505.76 1174.06 504.548 1174.12 503.042L1174.27 499.002C1174.42 495.41 1175.19 492.461 1176.59 490.155C1178.01 487.86 1180.24 486.45 1183.3 485.926C1185.77 485.477 1188.06 485.757 1190.15 486.766C1192.25 487.785 1194.03 489.393 1195.49 491.588C1196.96 493.796 1197.96 496.446 1198.5 499.537C1199.06 502.691 1199.01 505.513 1198.36 508.001C1197.71 510.489 1196.53 512.525 1194.83 514.11C1193.15 515.705 1191.03 516.733 1188.48 517.196L1186.69 507.045Z" fill="#5988FF"/>
<path d="M1204.91 552.79L1205.94 563.513L1180.66 565.933C1177.65 566.221 1174.98 565.75 1172.65 564.52C1170.33 563.302 1168.45 561.471 1167.01 559.027C1165.58 556.582 1164.71 553.668 1164.38 550.287C1164.06 546.88 1164.36 543.84 1165.3 541.169C1166.25 538.496 1167.75 536.341 1169.8 534.705C1171.86 533.08 1174.39 532.124 1177.4 531.836L1202.68 529.416L1203.7 540.139L1179.35 542.471C1178.13 542.587 1177.06 542.962 1176.15 543.594C1175.25 544.225 1174.58 545.042 1174.13 546.045C1173.68 547.061 1173.52 548.18 1173.63 549.401C1173.75 550.636 1174.13 551.703 1174.76 552.602C1175.39 553.502 1176.2 554.177 1177.2 554.626C1178.22 555.073 1179.34 555.239 1180.56 555.122L1204.91 552.79Z" fill="#5988FF"/>
<path d="M1167.08 578.829L1206.71 578.169L1207 595.293C1207.05 598.237 1206.51 600.823 1205.38 603.051C1204.26 605.279 1202.66 607.023 1200.57 608.285C1198.49 609.547 1196.04 610.201 1193.23 610.248C1190.39 610.296 1187.92 609.704 1185.82 608.473C1183.73 607.255 1182.1 605.519 1180.94 603.265C1179.78 601.023 1179.17 598.392 1179.12 595.37L1178.95 585.142L1187.31 585.003L1187.45 593.061C1187.47 594.327 1187.7 595.401 1188.16 596.285C1188.62 597.181 1189.27 597.862 1190.11 598.326C1190.94 598.803 1191.92 599.032 1193.04 599.013C1194.18 598.994 1195.14 598.733 1195.93 598.229C1196.74 597.737 1197.35 597.036 1197.76 596.125C1198.18 595.227 1198.38 594.145 1198.36 592.879L1198.3 589.082L1167.26 589.6L1167.08 578.829Z" fill="#5988FF"/>
<path d="M1167.36 621.918L1206.93 624.285L1205.91 641.381C1205.73 644.32 1205 646.858 1203.71 648.993C1202.42 651.128 1200.69 652.745 1198.51 653.845C1196.34 654.944 1193.85 655.41 1191.04 655.242C1188.21 655.072 1185.79 654.294 1183.79 652.906C1181.79 651.531 1180.3 649.676 1179.32 647.34C1178.33 645.017 1177.93 642.346 1178.11 639.33L1178.72 629.119L1187.07 629.618L1186.58 637.663C1186.51 638.926 1186.66 640.016 1187.05 640.932C1187.45 641.861 1188.04 642.589 1188.84 643.116C1189.63 643.655 1190.59 643.958 1191.71 644.025C1192.85 644.093 1193.83 643.906 1194.65 643.463C1195.49 643.035 1196.15 642.382 1196.63 641.505C1197.12 640.642 1197.41 639.578 1197.48 638.315L1197.71 634.524L1166.72 632.67L1167.36 621.918Z" fill="#5988FF"/>
<path d="M1164.28 664.928L1203.58 670.121L1202.18 680.8L1171.47 676.743L1169.38 692.647L1160.78 691.511L1164.28 664.928Z" fill="#5988FF"/>
<path d="M1159.01 702.241L1197.86 710.141L1192.17 738.164L1183.67 736.436L1187.22 718.969L1180.54 717.611L1177.29 733.635L1168.79 731.907L1172.04 715.883L1165.37 714.526L1161.84 731.916L1153.34 730.188L1159.01 702.241Z" fill="#5988FF"/>
<path d="M1184.01 771.062L1179.82 783.794L1155.61 785.514L1155.46 785.956L1173.9 801.751L1169.71 814.484L1132.06 802.058L1135.36 792.049L1157.12 799.233L1157.22 798.938L1138.51 783.462L1140.5 777.427L1164.88 776.172L1164.98 775.877L1143.07 768.646L1146.36 758.636L1184.01 771.062Z" fill="#5988FF"/>
<path d="M1123.4 822.88L1128.07 812.237L1159.1 840.186L1153.18 853.667L1111.63 849.699L1116.3 839.056L1146.08 842.674L1146.21 842.39L1123.4 822.88ZM1138.59 827.189L1129.81 847.197L1122.43 843.955L1131.22 823.948L1138.59 827.189Z" fill="#5988FF"/>
<path d="M1106.95 858.847L1141.81 877.738L1133.66 892.799C1132.26 895.389 1130.52 897.378 1128.45 898.766C1126.38 900.155 1124.13 900.888 1121.69 900.965C1119.26 901.041 1116.81 900.409 1114.33 899.069C1111.84 897.716 1109.98 895.988 1108.75 893.885C1107.52 891.793 1106.95 889.48 1107.05 886.946C1107.13 884.423 1107.9 881.833 1109.33 879.175L1114.2 870.18L1121.55 874.165L1117.72 881.252C1117.12 882.365 1116.8 883.418 1116.76 884.411C1116.73 885.421 1116.96 886.333 1117.46 887.147C1117.95 887.972 1118.69 888.652 1119.68 889.187C1120.68 889.728 1121.64 889.974 1122.58 889.924C1123.52 889.891 1124.4 889.578 1125.2 888.986C1126.01 888.411 1126.72 887.568 1127.32 886.455L1129.13 883.115L1101.82 868.32L1106.95 858.847Z" fill="#5988FF"/>
<path d="M1097.4 929.287C1098.54 929.9 1099.65 930.039 1100.72 929.703C1101.79 929.378 1102.8 928.483 1103.74 927.018C1104.34 926.084 1104.72 925.245 1104.88 924.501C1105.04 923.775 1105.02 923.149 1104.82 922.621C1104.63 922.094 1104.29 921.668 1103.81 921.342C1103.42 921.061 1103.01 920.898 1102.58 920.85C1102.15 920.821 1101.69 920.907 1101.19 921.108C1100.71 921.316 1100.17 921.642 1099.6 922.084C1099.02 922.527 1098.4 923.091 1097.72 923.779L1095.37 926.137C1093.8 927.73 1092.26 928.978 1090.78 929.878C1089.29 930.779 1087.85 931.367 1086.44 931.643C1085.04 931.926 1083.68 931.917 1082.36 931.615C1081.03 931.324 1079.72 930.774 1078.45 929.967C1076.26 928.542 1074.76 926.797 1073.94 924.732C1073.12 922.667 1072.97 920.369 1073.48 917.839C1073.98 915.32 1075.14 912.649 1076.95 909.827C1078.82 906.928 1080.88 904.675 1083.13 903.068C1085.37 901.471 1087.76 900.649 1090.31 900.603C1092.86 900.574 1095.53 901.454 1098.33 903.241L1092.79 911.839C1091.74 911.236 1090.72 910.938 1089.73 910.946C1088.74 910.954 1087.8 911.255 1086.91 911.849C1086.02 912.454 1085.2 913.332 1084.46 914.483C1083.83 915.449 1083.43 916.335 1083.25 917.14C1083.07 917.945 1083.08 918.653 1083.29 919.262C1083.5 919.872 1083.87 920.357 1084.4 920.717C1084.92 921.035 1085.47 921.154 1086.06 921.073C1086.66 921.01 1087.34 920.713 1088.11 920.182C1088.89 919.657 1089.82 918.864 1090.89 917.801L1093.74 914.941C1096.28 912.401 1098.85 910.762 1101.45 910.023C1104.04 909.303 1106.64 909.787 1109.24 911.478C1111.36 912.831 1112.84 914.589 1113.69 916.75C1114.55 918.93 1114.76 921.321 1114.35 923.925C1113.92 926.54 1112.86 929.166 1111.16 931.804C1109.43 934.497 1107.48 936.535 1105.31 937.919C1103.15 939.303 1100.9 939.999 1098.58 940.006C1096.26 940.031 1094.01 939.345 1091.82 937.95L1097.4 929.287Z" fill="#5988FF"/>
<path d="M1047.87 994.352C1048.91 995.117 1049.99 995.407 1051.1 995.223C1052.21 995.049 1053.33 994.302 1054.46 992.98C1055.19 992.139 1055.68 991.36 1055.94 990.645C1056.2 989.948 1056.26 989.325 1056.14 988.775C1056.02 988.226 1055.74 987.757 1055.31 987.367C1054.96 987.036 1054.58 986.817 1054.16 986.711C1053.74 986.623 1053.27 986.645 1052.75 986.775C1052.24 986.914 1051.67 987.163 1051.04 987.521C1050.41 987.88 1049.71 988.353 1048.95 988.941L1046.3 990.953C1044.51 992.313 1042.82 993.337 1041.23 994.024C1039.63 994.711 1038.12 995.094 1036.69 995.173C1035.27 995.261 1033.92 995.064 1032.65 994.582C1031.37 994.11 1030.16 993.385 1029 992.409C1027.04 990.697 1025.79 988.761 1025.26 986.603C1024.74 984.444 1024.9 982.147 1025.75 979.711C1026.59 977.285 1028.11 974.8 1030.3 972.256C1032.55 969.642 1034.9 967.695 1037.35 966.413C1039.79 965.141 1042.27 964.658 1044.8 964.964C1047.33 965.287 1049.86 966.528 1052.38 968.684L1045.71 976.435C1044.75 975.692 1043.78 975.256 1042.8 975.128C1041.82 974.999 1040.85 975.168 1039.89 975.634C1038.91 976.109 1037.98 976.865 1037.09 977.903C1036.34 978.774 1035.82 979.596 1035.53 980.368C1035.24 981.141 1035.16 981.843 1035.28 982.476C1035.4 983.108 1035.7 983.639 1036.18 984.07C1036.65 984.457 1037.18 984.651 1037.77 984.652C1038.37 984.672 1039.08 984.471 1039.92 984.052C1040.77 983.64 1041.8 982.982 1043 982.077L1046.22 979.639C1049.09 977.474 1051.86 976.205 1054.53 975.831C1057.2 975.476 1059.71 976.315 1062.05 978.347C1063.96 979.981 1065.19 981.927 1065.74 984.185C1066.28 986.461 1066.17 988.86 1065.39 991.381C1064.61 993.912 1063.2 996.367 1061.15 998.745C1059.06 1001.17 1056.85 1002.92 1054.52 1003.99C1052.18 1005.07 1049.86 1005.44 1047.56 1005.13C1045.26 1004.84 1043.12 1003.85 1041.15 1002.16L1047.87 994.352Z" fill="#5988FF"/>
<path d="M1024.03 1037.43L1016.39 1045.02L998.512 1026.97C996.386 1024.82 995.059 1022.46 994.531 1019.87C994.004 1017.3 994.23 1014.68 995.208 1012.02C996.196 1009.37 997.894 1006.85 1000.3 1004.45C1002.73 1002.04 1005.28 1000.36 1007.94 999.391C1010.6 998.434 1013.22 998.231 1015.78 998.78C1018.34 999.348 1020.69 1000.71 1022.81 1002.85L1040.69 1020.9L1033.05 1028.49L1015.82 1011.1C1014.96 1010.22 1014 1009.64 1012.93 1009.33C1011.87 1009.03 1010.81 1009.03 1009.75 1009.32C1008.69 1009.61 1007.72 1010.19 1006.85 1011.06C1005.97 1011.93 1005.38 1012.9 1005.08 1013.95C1004.79 1015.01 1004.78 1016.07 1005.07 1017.13C1005.36 1018.2 1005.94 1019.17 1006.81 1020.04L1024.03 1037.43Z" fill="#5988FF"/>
<path d="M979.939 1024.61L1005.55 1054.9L992.489 1065.96C990.243 1067.87 987.903 1069.09 985.469 1069.63C983.034 1070.17 980.67 1070.03 978.375 1069.22C976.081 1068.4 974.025 1066.92 972.207 1064.77C970.373 1062.6 969.267 1060.32 968.89 1057.91C968.504 1055.51 968.814 1053.15 969.822 1050.83C970.821 1048.51 972.472 1046.37 974.777 1044.42L982.578 1037.81L987.98 1044.2L981.834 1049.41C980.869 1050.22 980.188 1051.09 979.792 1052C979.394 1052.93 979.28 1053.86 979.449 1054.8C979.608 1055.75 980.051 1056.65 980.776 1057.51C981.51 1058.38 982.322 1058.96 983.213 1059.25C984.103 1059.57 985.03 1059.59 985.995 1059.33C986.958 1059.09 987.922 1058.56 988.887 1057.75L991.783 1055.29L971.724 1031.57L979.939 1024.61Z" fill="#5988FF"/>
<path d="M946.802 1052.12L970.03 1084.27L956.165 1094.31C953.781 1096.03 951.355 1097.07 948.886 1097.42C946.418 1097.78 944.07 1097.46 941.844 1096.47C939.619 1095.49 937.681 1093.85 936.033 1091.57C934.37 1089.27 933.442 1086.9 933.249 1084.48C933.046 1082.06 933.535 1079.73 934.718 1077.48C935.89 1075.25 937.699 1073.25 940.146 1071.47L948.428 1065.48L953.327 1072.26L946.803 1076.99C945.778 1077.73 945.033 1078.54 944.569 1079.41C944.102 1080.31 943.916 1081.23 944.014 1082.18C944.1 1083.14 944.472 1084.08 945.13 1084.99C945.796 1085.91 946.561 1086.55 947.428 1086.91C948.291 1087.29 949.213 1087.39 950.195 1087.2C951.173 1087.03 952.175 1086.58 953.2 1085.84L956.274 1083.61L938.081 1058.43L946.802 1052.12Z" fill="#5988FF"/>
<path d="M911.599 1076.98L932.472 1110.71L923.322 1116.38L907.016 1090.03L893.391 1098.47L888.825 1091.09L911.599 1076.98Z" fill="#5988FF"/>
<path d="M879.408 1096.52L897.901 1131.62L872.631 1144.96L868.586 1137.28L884.337 1128.97L881.158 1122.93L866.708 1130.56L862.663 1122.88L877.113 1115.26L873.934 1109.22L858.252 1117.5L854.207 1109.83L879.408 1096.52Z" fill="#5988FF"/>
<path d="M842.026 1159.47L829.525 1164.28L812.864 1146.62L812.431 1146.79L811.894 1171.07L799.393 1175.89L785.159 1138.85L794.987 1135.07L803.215 1156.48L803.504 1156.37L803.624 1132.08L809.55 1129.79L825.961 1147.89L826.25 1147.78L817.965 1126.22L827.793 1122.44L842.026 1159.47Z" fill="#5988FF"/>
<path d="M763.575 1145.33L774.762 1142.21L772.802 1183.94L758.631 1187.9L735.383 1153.19L746.571 1150.07L762.636 1175.44L762.934 1175.35L763.575 1145.33ZM769.862 1159.83L748.831 1165.69L746.669 1157.93L767.7 1152.06L769.862 1159.83Z" fill="#5988FF"/>
<path d="M725.346 1155.37L732.814 1194.33L716.01 1197.56C713.121 1198.11 710.483 1198.03 708.097 1197.3C705.711 1196.58 703.718 1195.3 702.118 1193.46C700.518 1191.62 699.453 1189.32 698.923 1186.56C698.388 1183.77 698.546 1181.23 699.396 1178.95C700.234 1176.67 701.662 1174.77 703.681 1173.24C705.688 1171.71 708.173 1170.66 711.139 1170.09L721.176 1168.16L722.751 1176.38L714.843 1177.9C713.601 1178.14 712.584 1178.56 711.793 1179.15C710.991 1179.77 710.433 1180.53 710.12 1181.43C709.794 1182.33 709.737 1183.34 709.948 1184.44C710.162 1185.56 710.585 1186.46 711.217 1187.16C711.839 1187.86 712.634 1188.34 713.601 1188.59C714.559 1188.86 715.658 1188.87 716.9 1188.63L720.626 1187.91L714.776 1157.4L725.346 1155.37Z" fill="#5988FF"/>
<path d="M664.834 1192.58C665.082 1193.85 665.677 1194.79 666.617 1195.42C667.545 1196.04 668.874 1196.25 670.605 1196.05C671.708 1195.93 672.597 1195.69 673.271 1195.34C673.934 1195.01 674.407 1194.59 674.689 1194.11C674.972 1193.62 675.086 1193.09 675.034 1192.51C675.005 1192.03 674.873 1191.61 674.637 1191.25C674.39 1190.9 674.031 1190.59 673.56 1190.34C673.09 1190.09 672.502 1189.88 671.795 1189.72C671.087 1189.55 670.255 1189.42 669.297 1189.34L665.987 1189.01C663.755 1188.8 661.821 1188.4 660.183 1187.82C658.546 1187.24 657.175 1186.49 656.071 1185.58C654.969 1184.68 654.115 1183.62 653.509 1182.4C652.89 1181.18 652.489 1179.83 652.306 1178.33C652.024 1175.73 652.422 1173.46 653.5 1171.52C654.579 1169.58 656.257 1168 658.535 1166.79C660.801 1165.59 663.6 1164.8 666.934 1164.42C670.357 1164.03 673.402 1164.19 676.069 1164.92C678.722 1165.64 680.874 1166.98 682.523 1168.92C684.161 1170.88 685.174 1173.51 685.562 1176.8L675.407 1177.96C675.206 1176.76 674.79 1175.78 674.158 1175.02C673.526 1174.26 672.699 1173.72 671.676 1173.41C670.641 1173.1 669.444 1173.02 668.085 1173.18C666.944 1173.31 666.004 1173.56 665.267 1173.93C664.53 1174.3 663.991 1174.75 663.65 1175.3C663.31 1175.84 663.17 1176.44 663.23 1177.08C663.311 1177.68 663.569 1178.19 664.005 1178.59C664.429 1179.01 665.091 1179.35 665.991 1179.61C666.893 1179.89 668.092 1180.1 669.59 1180.26L673.61 1180.66C677.183 1181.02 680.077 1181.97 682.291 1183.51C684.494 1185.07 685.764 1187.39 686.101 1190.47C686.398 1192.97 685.98 1195.23 684.846 1197.26C683.702 1199.3 681.99 1200.98 679.712 1202.31C677.421 1203.64 674.718 1204.48 671.602 1204.83C668.423 1205.19 665.612 1204.97 663.17 1204.17C660.729 1203.37 658.77 1202.07 657.293 1200.28C655.805 1198.5 654.908 1196.32 654.602 1193.74L664.834 1192.58Z" fill="#5988FF"/>
</svg>
