<svg width="1378" height="1377" viewBox="0 0 1378 1377" fill="none" xmlns="http://www.w3.org/2000/svg">
<path d="M278.61 151.678C277.737 150.724 276.738 150.227 275.614 150.187C274.499 150.139 273.254 150.648 271.88 151.715C271.005 152.395 270.37 153.059 269.976 153.708C269.585 154.338 269.395 154.934 269.408 155.495C269.42 156.057 269.599 156.57 269.944 157.036C270.217 157.428 270.548 157.718 270.938 157.904C271.33 158.073 271.794 158.145 272.33 158.12C272.858 158.085 273.467 157.955 274.157 157.729C274.847 157.504 275.622 157.179 276.484 156.754L279.476 155.312C281.491 154.334 283.348 153.667 285.047 153.311C286.745 152.955 288.302 152.879 289.719 153.084C291.128 153.279 292.407 153.738 293.556 154.46C294.716 155.175 295.763 156.123 296.699 157.306C298.287 159.368 299.125 161.507 299.215 163.721C299.304 165.936 298.691 168.149 297.375 170.362C296.069 172.567 294.093 174.697 291.447 176.752C288.729 178.862 286.045 180.302 283.394 181.071C280.754 181.833 278.225 181.814 275.808 181.015C273.394 180.198 271.165 178.487 269.122 175.881L277.184 169.621C277.978 170.537 278.842 171.155 279.776 171.474C280.71 171.793 281.694 171.82 282.729 171.555C283.773 171.282 284.835 170.727 285.914 169.889C286.82 169.185 287.491 168.485 287.928 167.787C288.365 167.089 288.587 166.419 288.594 165.777C288.601 165.135 288.412 164.556 288.027 164.04C287.645 163.57 287.163 163.275 286.58 163.156C286 163.019 285.259 163.073 284.355 163.318C283.444 163.552 282.309 163.993 280.951 164.64L277.314 166.387C274.079 167.937 271.116 168.63 268.427 168.468C265.739 168.287 263.451 166.972 261.563 164.523C260.011 162.547 259.191 160.402 259.105 158.087C259.022 155.754 259.607 153.431 260.862 151.119C262.127 148.799 263.996 146.679 266.47 144.758C268.994 142.798 271.506 141.525 274.005 140.938C276.504 140.352 278.849 140.439 281.041 141.201C283.235 141.944 285.132 143.334 286.732 145.37L278.61 151.678Z" fill="#5988FF"/>
<path d="M310.016 114.211L318.936 108.214L333.096 129.249C334.78 131.75 335.638 134.317 335.671 136.95C335.706 139.565 334.995 142.085 333.535 144.51C332.069 146.924 329.929 149.077 327.116 150.968C324.282 152.873 321.469 154.05 318.679 154.497C315.881 154.934 313.277 154.643 310.867 153.624C308.46 152.587 306.414 150.818 304.731 148.317L290.57 127.283L299.491 121.286L313.133 141.551C313.817 142.567 314.653 143.324 315.642 143.824C316.623 144.313 317.661 144.516 318.755 144.432C319.859 144.342 320.919 143.955 321.935 143.272C322.962 142.582 323.72 141.746 324.21 140.765C324.699 139.784 324.902 138.747 324.819 137.655C324.728 136.551 324.341 135.491 323.658 134.476L310.016 114.211Z" fill="#5988FF"/>
<path d="M350.906 134.943L331.1 100.675L345.902 92.1324C348.447 90.6635 350.965 89.8802 353.454 89.7825C355.943 89.6847 358.243 90.239 360.354 91.4452C362.466 92.6514 364.224 94.4704 365.63 96.9021C367.048 99.3562 367.729 101.797 367.673 104.224C367.628 106.645 366.904 108.908 365.5 111.012C364.108 113.11 362.105 114.913 359.493 116.42L350.652 121.523L346.475 114.294L353.44 110.274C354.534 109.643 355.357 108.915 355.908 108.091C356.463 107.25 356.742 106.353 356.742 105.401C356.753 104.442 356.479 103.478 355.918 102.507C355.351 101.526 354.655 100.811 353.831 100.365C353.012 99.9001 352.105 99.7094 351.111 99.7923C350.122 99.8575 349.08 100.206 347.986 100.837L344.704 102.731L360.216 129.57L350.906 134.943Z" fill="#5988FF"/>
<path d="M388.398 113.742L370.909 78.2376L386.245 70.6943C388.882 69.3972 391.446 68.7824 393.936 68.8498C396.426 68.9172 398.684 69.6226 400.711 70.966C402.738 72.3095 404.372 74.2409 405.613 76.7605C406.865 79.3031 407.383 81.7836 407.166 84.2018C406.961 86.6144 406.088 88.824 404.548 90.8308C403.019 92.8318 400.901 94.4979 398.195 95.8291L389.035 100.335L385.346 92.8454L392.563 89.2956C393.696 88.7381 394.565 88.0666 395.17 87.2811C395.78 86.4784 396.117 85.6019 396.181 84.6518C396.256 83.6959 396.046 82.7152 395.551 81.7097C395.05 80.6927 394.403 79.9339 393.61 79.4336C392.824 78.9159 391.932 78.6655 390.934 78.6823C389.943 78.6819 388.88 78.9604 387.747 79.5179L384.346 81.1904L398.043 108.998L388.398 113.742Z" fill="#5988FF"/>
<path d="M427.264 95.1163L412.018 58.594L421.94 54.4579L433.851 82.9909L448.628 76.8314L451.963 84.8206L427.264 95.1163Z" fill="#5988FF"/>
<path d="M462.153 80.9021L449.131 43.5303L476.084 34.1519L478.933 42.327L462.133 48.1726L464.371 54.5959L479.783 49.2331L482.632 57.4082L467.219 62.771L469.458 69.1942L486.185 63.374L489.033 71.5491L462.153 80.9021Z" fill="#5988FF"/>
<path d="M507.942 24.3749L520.963 21.2949L535.087 40.9876L535.538 40.8807L539.328 16.9507L552.349 13.8706L561.471 52.379L551.235 54.8003L545.961 32.5377L545.66 32.6089L542.283 56.6003L536.111 58.0602L522.292 37.9777L521.991 38.0489L527.301 60.4619L517.065 62.8833L507.942 24.3749Z" fill="#5988FF"/>
<path d="M583.755 48.6391L572.283 50.3659L579.31 9.2892L593.842 7.1019L612.666 44.2875L601.193 46.0143L588.353 18.9489L588.047 18.9949L583.755 48.6391ZM579.287 33.5229L600.855 30.2765L602.053 38.225L580.485 41.4715L579.287 33.5229Z" fill="#5988FF"/>
<path d="M622.949 43.2739L619.864 3.82155L636.905 2.49107C639.836 2.26231 642.445 2.64005 644.733 3.6243C647.021 4.60855 648.857 6.09968 650.242 8.0977C651.626 10.0957 652.428 12.4946 652.647 15.2942C652.868 18.1196 652.429 20.6153 651.332 22.7813C650.247 24.9462 648.617 26.6757 646.442 27.9696C644.281 29.2625 641.696 30.0263 638.689 30.2611L628.51 31.0558L627.859 22.7338L635.879 22.1077C637.138 22.0094 638.194 21.7072 639.047 21.2014C639.912 20.6816 640.549 19.9923 640.961 19.1332C641.385 18.2732 641.553 17.2845 641.466 16.1672C641.377 15.037 641.058 14.0929 640.507 13.3348C639.969 12.5628 639.233 12.0001 638.3 11.6465C637.379 11.2791 636.289 11.1446 635.029 11.2429L631.251 11.5379L633.667 42.4371L622.949 43.2739Z" fill="#5988FF"/>
<path d="M686.954 12.8465C686.836 11.5596 686.341 10.5605 685.469 9.84925C684.609 9.1378 683.31 8.79219 681.57 8.8124C680.461 8.82527 679.554 8.97107 678.848 9.2498C678.155 9.51551 677.644 9.87572 677.314 10.3304C676.984 10.7852 676.816 11.3024 676.81 11.8822C676.789 12.3591 676.878 12.7896 677.076 13.1738C677.287 13.545 677.613 13.8826 678.055 14.1866C678.496 14.4778 679.06 14.7418 679.746 14.9786C680.432 15.2154 681.247 15.4249 682.19 15.6072L685.447 16.265C687.643 16.7033 689.526 17.2933 691.094 18.0352C692.663 18.777 693.949 19.6574 694.954 20.6764C695.958 21.6824 696.7 22.8204 697.179 24.0902C697.671 25.3598 697.932 26.7481 697.962 28.255C697.979 30.8571 697.354 33.0673 696.086 34.8856C694.818 36.7039 692.991 38.0971 690.604 39.0652C688.23 40.0332 685.368 40.5367 682.016 40.5756C678.575 40.6156 675.566 40.1417 672.989 39.1539C670.424 38.1659 668.421 36.624 666.979 34.528C665.549 32.419 664.808 29.7093 664.757 26.3991L674.966 26.2805C675.045 27.4906 675.359 28.5047 675.91 29.3227C676.461 30.1408 677.229 30.7567 678.214 31.1704C679.211 31.5839 680.393 31.7828 681.759 31.7669C682.907 31.7536 683.865 31.6008 684.635 31.3084C685.405 31.016 685.987 30.6164 686.381 30.1094C686.775 29.6024 686.974 29.0268 686.98 28.3826C686.96 27.7773 686.754 27.2515 686.362 26.8052C685.983 26.3458 685.359 25.9408 684.491 25.5902C683.623 25.2267 682.453 24.8925 680.98 24.5875L677.025 23.7832C673.51 23.0639 670.731 21.8273 668.686 20.0732C666.655 18.3062 665.627 15.8768 665.604 12.7853C665.562 10.2737 666.207 8.06972 667.538 6.1734C668.883 4.26405 670.754 2.76726 673.152 1.68304C675.563 0.59867 678.335 0.038295 681.467 0.00191604C684.664 -0.0352115 687.435 0.46723 689.781 1.50924C692.126 2.55125 693.942 4.03742 695.228 5.96776C696.526 7.88506 697.197 10.1382 697.24 12.7271L686.954 12.8465Z" fill="#5988FF"/>
<path d="M768.122 17.4481C768.159 16.1564 767.787 15.1051 767.007 14.2944C766.24 13.4851 764.991 12.9862 763.261 12.7977C762.159 12.6775 761.241 12.7135 760.506 12.9056C759.787 13.0863 759.235 13.3826 758.853 13.7945C758.471 14.2064 758.242 14.6998 758.167 15.2747C758.089 15.7457 758.126 16.1837 758.276 16.5889C758.441 16.9826 758.724 17.3568 759.126 17.7117C759.53 18.0537 760.058 18.3834 760.71 18.7007C761.363 19.018 762.147 19.3237 763.061 19.6178L766.215 20.6612C768.343 21.3597 770.141 22.1711 771.61 23.0957C773.078 24.0202 774.249 25.0485 775.124 26.1805C776.001 27.2997 776.6 28.5183 776.923 29.8364C777.259 31.1558 777.351 32.5654 777.201 34.065C776.906 36.6504 776.019 38.7696 774.542 40.4228C773.065 42.0759 771.084 43.24 768.598 43.9151C766.125 44.5915 763.223 44.7482 759.891 44.385C756.47 44.0121 753.539 43.1809 751.099 41.8913C748.672 40.6031 746.869 38.8321 745.688 36.5783C744.522 34.3132 744.112 31.5343 744.458 28.2418L754.608 29.348C754.54 30.5587 754.731 31.6032 755.18 32.4814C755.629 33.3596 756.317 34.0631 757.245 34.5919C758.185 35.122 759.335 35.4611 760.693 35.6091C761.834 35.7334 762.804 35.6966 763.604 35.4987C764.403 35.3008 765.029 34.9737 765.481 34.5176C765.933 34.0615 766.2 33.514 766.282 32.8751C766.335 32.2718 766.194 31.7251 765.858 31.235C765.537 30.7335 764.967 30.2567 764.147 29.8046C763.329 29.3396 762.207 28.8675 760.781 28.3881L756.952 27.1155C753.549 25.9801 750.938 24.4192 749.119 22.4327C747.314 20.4348 746.586 17.8999 746.934 14.8279C747.194 12.3294 748.098 10.2186 749.648 8.49565C751.212 6.76124 753.249 5.49959 755.76 4.7107C758.284 3.9232 761.103 3.69914 764.217 4.03852C767.395 4.38489 770.086 5.21591 772.289 6.53158C774.493 7.84725 776.117 9.54036 777.162 11.6109C778.221 13.67 778.616 15.9873 778.348 18.5626L768.122 17.4481Z" fill="#5988FF"/>
<path d="M816.764 12.3599L827.347 14.2521L822.879 39.207C822.347 42.1742 821.177 44.6149 819.367 46.5291C817.573 48.4329 815.308 49.7487 812.571 50.4764C809.837 51.1915 806.801 51.2507 803.464 50.654C800.101 50.0527 797.262 48.943 794.946 47.3249C792.632 45.6942 790.963 43.675 789.941 41.2675C788.933 38.8496 788.695 36.1571 789.226 33.1899L793.695 8.23504L804.278 10.1273L799.973 34.1691C799.757 35.3738 799.831 36.4992 800.193 37.5456C800.558 38.5792 801.162 39.4463 802.006 40.1467C802.862 40.8495 803.893 41.3086 805.099 41.5241C806.317 41.742 807.443 41.6685 808.478 41.3039C809.512 40.9392 810.38 40.3353 811.081 39.4923C811.784 38.6365 812.243 37.6064 812.459 36.4017L816.764 12.3599Z" fill="#5988FF"/>
<path d="M831.71 55.6767L841.334 17.2905L857.915 21.4416C860.766 22.1553 863.12 23.3422 864.976 25.0021C866.832 26.662 868.099 28.659 868.777 30.9932C869.454 33.3274 869.451 35.8565 868.768 38.5805C868.079 41.3295 866.869 43.5565 865.14 45.2615C863.422 46.9696 861.327 48.0917 858.854 48.6279C856.393 49.1671 853.699 49.0705 850.773 48.338L840.87 45.8586L842.9 37.7615L850.703 39.7149C851.928 40.0217 853.025 40.0707 853.995 39.8619C854.98 39.6437 855.804 39.1926 856.467 38.5087C857.143 37.828 857.617 36.944 857.889 35.8569C858.165 34.7573 858.162 33.7607 857.881 32.867C857.616 31.964 857.097 31.1967 856.325 30.5652C855.569 29.9244 854.578 29.4505 853.353 29.1437L849.677 28.2234L842.139 58.2876L831.71 55.6767Z" fill="#5988FF"/>
<path d="M873.403 66.5051L885.553 28.8409L901.822 34.0814C904.619 34.9825 906.889 36.3226 908.631 38.1019C910.373 39.8811 911.505 41.9577 912.025 44.3316C912.546 46.7055 912.376 49.2288 911.514 51.9016C910.643 54.5989 909.289 56.7409 907.45 58.3275C905.623 59.9181 903.458 60.8989 900.954 61.27C898.463 61.6451 895.782 61.3702 892.911 60.4454L883.194 57.3154L885.756 49.3706L893.413 51.8367C894.615 52.224 895.707 52.3456 896.688 52.2014C897.685 52.0489 898.537 51.6535 899.244 51.015C899.964 50.3805 900.495 49.53 900.839 48.4633C901.187 47.3844 901.251 46.3898 901.03 45.4794C900.825 44.5608 900.358 43.7609 899.63 43.0796C898.918 42.3901 897.961 41.8516 896.758 41.4643L893.151 40.3024L883.636 69.8011L873.403 66.5051Z" fill="#5988FF"/>
<path d="M914.293 80.1386L928.762 43.302L938.77 47.2273L927.466 76.0059L942.369 81.8514L939.204 89.9094L914.293 80.1386Z" fill="#5988FF"/>
<path d="M949.253 94.178L965.911 58.2768L991.803 70.2737L988.159 78.127L972.02 70.6493L969.157 76.8198L983.963 83.6798L980.319 91.5332L965.513 84.6732L962.65 90.8437L978.719 98.289L975.075 106.142L949.253 94.178Z" fill="#5988FF"/>
<path d="M1021.5 85.3931L1033 92.2308L1029.44 116.196L1029.83 116.433L1049.21 101.875L1060.71 108.713L1040.46 142.719L1031.42 137.344L1043.13 117.684L1042.86 117.526L1023.74 132.415L1018.29 129.173L1022.34 105.14L1022.07 104.982L1010.29 124.775L1001.25 119.4L1021.5 85.3931Z" fill="#5988FF"/>
<path d="M1059.08 155.522L1049.63 148.789L1083.27 124.162L1095.24 132.691L1082.88 172.491L1073.43 165.758L1083.05 137.387L1082.79 137.208L1059.08 155.522ZM1066.39 141.556L1084.14 154.215L1079.47 160.759L1061.72 148.1L1066.39 141.556Z" fill="#5988FF"/>
<path d="M1090.97 178.91L1116.21 148.422L1129.38 159.311C1131.65 161.184 1133.26 163.268 1134.22 165.566C1135.18 167.863 1135.46 170.211 1135.06 172.609C1134.67 175.007 1133.57 177.288 1131.78 179.451C1129.97 181.635 1127.92 183.123 1125.62 183.916C1123.34 184.717 1120.96 184.827 1118.5 184.245C1116.05 183.671 1113.66 182.424 1111.33 180.502L1103.47 173.998L1108.79 167.567L1114.99 172.691C1115.96 173.496 1116.93 174.013 1117.9 174.242C1118.88 174.47 1119.82 174.418 1120.71 174.086C1121.62 173.763 1122.43 173.17 1123.14 172.307C1123.86 171.433 1124.29 170.533 1124.42 169.605C1124.57 168.676 1124.44 167.761 1124.01 166.858C1123.61 165.954 1122.92 165.1 1121.94 164.295L1119.02 161.881L1099.25 185.759L1090.97 178.91Z" fill="#5988FF"/>
<path d="M1158.13 201.539C1158.94 200.532 1159.28 199.47 1159.15 198.353C1159.03 197.245 1158.34 196.093 1157.07 194.898C1156.27 194.137 1155.51 193.611 1154.81 193.321C1154.13 193.03 1153.51 192.933 1152.96 193.031C1152.4 193.128 1151.92 193.383 1151.51 193.795C1151.17 194.124 1150.93 194.495 1150.81 194.908C1150.7 195.321 1150.7 195.791 1150.81 196.316C1150.92 196.832 1151.14 197.414 1151.47 198.061C1151.8 198.708 1152.24 199.425 1152.79 200.211L1154.67 202.947C1155.94 204.789 1156.88 206.522 1157.49 208.145C1158.11 209.768 1158.42 211.295 1158.43 212.725C1158.45 214.146 1158.19 215.479 1157.65 216.724C1157.12 217.978 1156.34 219.157 1155.31 220.261C1153.52 222.142 1151.53 223.296 1149.35 223.721C1147.18 224.146 1144.89 223.876 1142.5 222.913C1140.12 221.959 1137.72 220.331 1135.28 218.029C1132.78 215.665 1130.95 213.233 1129.79 210.732C1128.63 208.24 1128.27 205.74 1128.69 203.232C1129.13 200.723 1130.48 198.261 1132.75 195.847L1140.17 202.858C1139.38 203.782 1138.9 204.729 1138.73 205.7C1138.55 206.671 1138.68 207.647 1139.1 208.629C1139.53 209.619 1140.24 210.583 1141.23 211.522C1142.06 212.31 1142.86 212.866 1143.61 213.191C1144.37 213.517 1145.07 213.634 1145.7 213.543C1146.34 213.453 1146.88 213.178 1147.34 212.719C1147.74 212.27 1147.96 211.749 1147.99 211.156C1148.04 210.563 1147.87 209.838 1147.49 208.983C1147.12 208.119 1146.51 207.065 1145.67 205.822L1143.39 202.495C1141.36 199.535 1140.22 196.715 1139.98 194.034C1139.75 191.352 1140.7 188.892 1142.84 186.655C1144.55 184.822 1146.55 183.686 1148.83 183.249C1151.12 182.812 1153.51 183.037 1155.99 183.925C1158.47 184.822 1160.85 186.346 1163.13 188.497C1165.45 190.692 1167.09 192.98 1168.05 195.359C1169.01 197.738 1169.28 200.067 1168.86 202.348C1168.46 204.628 1167.38 206.713 1165.6 208.603L1158.13 201.539Z" fill="#5988FF"/>
<path d="M1213.24 261.263C1214.17 260.36 1214.63 259.347 1214.64 258.222C1214.65 257.107 1214.1 255.881 1212.99 254.543C1212.28 253.69 1211.6 253.078 1210.93 252.706C1210.29 252.335 1209.69 252.165 1209.13 252.195C1208.57 252.226 1208.06 252.421 1207.6 252.781C1207.22 253.066 1206.94 253.406 1206.77 253.802C1206.61 254.199 1206.55 254.665 1206.6 255.199C1206.65 255.725 1206.8 256.329 1207.05 257.011C1207.29 257.693 1207.64 258.457 1208.1 259.304L1209.64 262.246C1210.68 264.227 1211.41 266.06 1211.82 267.744C1212.23 269.429 1212.35 270.982 1212.2 272.404C1212.05 273.817 1211.63 275.109 1210.94 276.281C1210.27 277.462 1209.35 278.539 1208.2 279.512C1206.19 281.164 1204.08 282.071 1201.86 282.231C1199.65 282.392 1197.42 281.852 1195.16 280.609C1192.91 279.376 1190.72 277.471 1188.58 274.894C1186.38 272.248 1184.85 269.614 1184 266.992C1183.15 264.379 1183.09 261.853 1183.81 259.413C1184.55 256.975 1186.19 254.694 1188.73 252.569L1195.25 260.419C1194.36 261.242 1193.77 262.125 1193.48 263.068C1193.19 264.01 1193.2 264.994 1193.5 266.019C1193.8 267.054 1194.39 268.096 1195.26 269.147C1196 270.029 1196.72 270.677 1197.43 271.09C1198.14 271.504 1198.82 271.704 1199.46 271.69C1200.11 271.677 1200.68 271.469 1201.18 271.068C1201.64 270.671 1201.92 270.18 1202.02 269.595C1202.14 269.011 1202.06 268.272 1201.79 267.377C1201.52 266.475 1201.05 265.356 1200.35 264.02L1198.49 260.444C1196.83 257.263 1196.04 254.327 1196.12 251.635C1196.21 248.945 1197.46 246.618 1199.84 244.653C1201.77 243.038 1203.89 242.151 1206.2 241.99C1208.53 241.831 1210.88 242.34 1213.23 243.519C1215.59 244.707 1217.77 246.506 1219.77 248.914C1221.81 251.372 1223.17 253.84 1223.84 256.316C1224.5 258.793 1224.49 261.139 1223.8 263.352C1223.13 265.568 1221.8 267.508 1219.81 269.171L1213.24 261.263Z" fill="#5988FF"/>
<path d="M1251.73 291.418L1258.02 300.134L1237.44 314.957C1234.99 316.719 1232.45 317.659 1229.82 317.777C1227.2 317.897 1224.66 317.268 1222.19 315.889C1219.73 314.502 1217.5 312.435 1215.52 309.686C1213.52 306.917 1212.26 304.146 1211.72 301.373C1211.19 298.593 1211.4 295.983 1212.34 293.543C1213.3 291.105 1215 289.005 1217.45 287.243L1238.03 272.42L1244.32 281.135L1224.49 295.416C1223.49 296.131 1222.76 296.991 1222.3 297.995C1221.84 298.991 1221.67 300.034 1221.79 301.124C1221.91 302.224 1222.34 303.27 1223.05 304.263C1223.78 305.266 1224.64 305.996 1225.63 306.453C1226.63 306.91 1227.67 307.08 1228.76 306.961C1229.86 306.835 1230.91 306.415 1231.91 305.699L1251.73 291.418Z" fill="#5988FF"/>
<path d="M1232.32 332.928L1265.95 312.039L1274.98 326.546C1276.53 329.041 1277.39 331.529 1277.57 334.012C1277.75 336.495 1277.27 338.81 1276.13 340.958C1274.99 343.106 1273.23 344.921 1270.84 346.403C1268.43 347.899 1266.02 348.658 1263.59 348.681C1261.16 348.715 1258.88 348.064 1256.73 346.73C1254.58 345.407 1252.72 343.466 1251.12 340.906L1245.73 332.24L1252.83 327.834L1257.07 334.661C1257.74 335.733 1258.5 336.531 1259.34 337.055C1260.2 337.583 1261.1 337.832 1262.06 337.801C1263.01 337.782 1263.97 337.476 1264.92 336.885C1265.89 336.286 1266.58 335.568 1267 334.731C1267.44 333.898 1267.6 332.986 1267.48 331.996C1267.39 331.01 1267 329.981 1266.34 328.909L1264.34 325.692L1237.99 342.052L1232.32 332.928Z" fill="#5988FF"/>
<path d="M1254.74 369.688L1289.68 351.073L1297.72 366.146C1299.1 368.738 1299.8 371.279 1299.82 373.768C1299.83 376.257 1299.2 378.536 1297.92 380.603C1296.64 382.671 1294.76 384.365 1292.28 385.686C1289.78 387.019 1287.31 387.616 1284.89 387.478C1282.47 387.351 1280.23 386.551 1278.17 385.077C1276.12 383.615 1274.39 381.554 1272.97 378.894L1268.17 369.891L1275.54 365.964L1279.32 373.058C1279.92 374.172 1280.62 375.018 1281.42 375.596C1282.24 376.18 1283.13 376.488 1284.08 376.521C1285.04 376.565 1286.02 376.323 1287.01 375.796C1288.01 375.263 1288.74 374.593 1289.22 373.785C1289.71 372.983 1289.93 372.084 1289.88 371.088C1289.85 370.097 1289.54 369.045 1288.95 367.931L1287.16 364.589L1259.79 379.168L1254.74 369.688Z" fill="#5988FF"/>
<path d="M1274.62 407.904L1310.66 391.496L1315.12 401.272L1286.96 414.091L1293.6 428.65L1285.72 432.239L1274.62 407.904Z" fill="#5988FF"/>
<path d="M1289.97 442.29L1326.92 428.076L1337.18 454.693L1329.09 457.802L1322.7 441.212L1316.35 443.655L1322.21 458.875L1314.13 461.984L1308.27 446.764L1301.91 449.207L1308.28 465.726L1300.19 468.835L1289.97 442.29Z" fill="#5988FF"/>
<path d="M1347.99 486.195L1351.49 499.1L1332.25 513.843L1332.37 514.291L1356.43 517.302L1359.93 530.207L1321.71 540.563L1318.95 530.418L1341.05 524.431L1340.97 524.132L1316.86 521.535L1315.2 515.418L1334.84 500.967L1334.76 500.669L1312.52 506.696L1309.76 496.551L1347.99 486.195Z" fill="#5988FF"/>
<path d="M1326.17 562.699L1324.07 551.296L1365.38 556.987L1368.04 571.43L1331.46 591.433L1329.36 580.03L1356.01 566.331L1355.96 566.027L1326.17 562.699ZM1341.14 557.747L1345.09 579.183L1337.18 580.637L1333.23 559.2L1341.14 557.747Z" fill="#5988FF"/>
<path d="M1332.8 601.67L1372.16 597.314L1374.04 614.291C1374.37 617.21 1374.07 619.828 1373.16 622.145C1372.25 624.462 1370.82 626.344 1368.87 627.792C1366.91 629.239 1364.54 630.118 1361.75 630.427C1358.93 630.739 1356.42 630.382 1354.22 629.355C1352.02 628.342 1350.23 626.77 1348.87 624.64C1347.51 622.522 1346.66 619.966 1346.33 616.97L1345.2 606.83L1353.5 605.911L1354.39 613.9C1354.53 615.155 1354.87 616.2 1355.4 617.035C1355.95 617.882 1356.66 618.496 1357.53 618.879C1358.4 619.275 1359.4 619.411 1360.51 619.288C1361.64 619.163 1362.57 618.813 1363.31 618.239C1364.07 617.676 1364.61 616.923 1364.93 615.98C1365.27 615.048 1365.37 613.955 1365.23 612.7L1364.81 608.936L1333.99 612.348L1332.8 601.67Z" fill="#5988FF"/>
<path d="M1365.3 664.612C1366.59 664.452 1367.57 663.925 1368.25 663.031C1368.94 662.15 1369.24 660.841 1369.16 659.104C1369.12 657.997 1368.94 657.096 1368.64 656.4C1368.35 655.716 1367.97 655.217 1367.51 654.902C1367.04 654.587 1366.52 654.436 1365.94 654.449C1365.46 654.444 1365.03 654.547 1364.66 654.757C1364.29 654.979 1363.97 655.316 1363.68 655.767C1363.4 656.217 1363.15 656.789 1362.94 657.482C1362.72 658.175 1362.54 658.995 1362.39 659.943L1361.84 663.217C1361.47 665.425 1360.94 667.324 1360.25 668.915C1359.56 670.505 1358.72 671.819 1357.73 672.855C1356.76 673.891 1355.64 674.668 1354.39 675.188C1353.13 675.72 1351.75 676.025 1350.25 676.105C1347.65 676.206 1345.42 675.653 1343.56 674.445C1341.7 673.238 1340.24 671.458 1339.2 669.105C1338.15 666.766 1337.56 663.923 1337.41 660.577C1337.26 657.141 1337.63 654.12 1338.54 651.514C1339.44 648.921 1340.92 646.871 1342.97 645.362C1345.04 643.866 1347.72 643.039 1351.03 642.881L1351.48 653.073C1350.27 653.191 1349.27 653.538 1348.47 654.114C1347.67 654.691 1347.08 655.478 1346.69 656.475C1346.31 657.484 1346.15 658.671 1346.21 660.035C1346.26 661.181 1346.45 662.133 1346.76 662.893C1347.08 663.653 1347.5 664.221 1348.02 664.598C1348.54 664.975 1349.12 665.155 1349.77 665.14C1350.37 665.1 1350.89 664.878 1351.32 664.472C1351.77 664.078 1352.16 663.442 1352.48 662.564C1352.81 661.686 1353.11 660.506 1353.37 659.024L1354.04 655.049C1354.65 651.515 1355.8 648.699 1357.48 646.601C1359.19 644.514 1361.58 643.41 1364.67 643.287C1367.19 643.163 1369.41 643.736 1371.35 645.005C1373.3 646.286 1374.86 648.106 1376.02 650.466C1377.19 652.839 1377.84 655.589 1377.97 658.717C1378.11 661.908 1377.7 664.692 1376.73 667.068C1375.77 669.445 1374.34 671.306 1372.45 672.653C1370.58 674.012 1368.34 674.755 1365.76 674.881L1365.3 664.612Z" fill="#5988FF"/>
<path d="M1363.33 745.827C1364.62 745.822 1365.66 745.417 1366.44 744.612C1367.23 743.819 1367.69 742.556 1367.82 740.822C1367.9 739.717 1367.84 738.801 1367.62 738.074C1367.42 737.361 1367.1 736.82 1366.68 736.452C1366.26 736.084 1365.76 735.871 1365.18 735.814C1364.7 735.752 1364.27 735.802 1363.87 735.966C1363.48 736.143 1363.11 736.438 1362.77 736.851C1362.44 737.265 1362.13 737.803 1361.83 738.465C1361.54 739.127 1361.26 739.92 1360.99 740.843L1360.05 744.026C1359.42 746.175 1358.67 747.997 1357.79 749.493C1356.91 750.989 1355.92 752.193 1354.82 753.103C1353.73 754.014 1352.53 754.653 1351.22 755.018C1349.91 755.396 1348.5 755.534 1347 755.432C1344.4 755.221 1342.26 754.404 1340.55 752.982C1338.85 751.56 1337.62 749.619 1336.87 747.158C1336.11 744.711 1335.86 741.817 1336.12 738.477C1336.38 735.048 1337.12 732.094 1338.33 729.616C1339.54 727.15 1341.25 725.291 1343.47 724.04C1345.69 722.802 1348.46 722.302 1351.76 722.542L1350.99 732.714C1349.77 732.686 1348.74 732.911 1347.87 733.387C1347.01 733.864 1346.33 734.574 1345.83 735.518C1345.33 736.474 1345.03 737.633 1344.92 738.995C1344.83 740.138 1344.9 741.106 1345.13 741.898C1345.35 742.69 1345.7 743.305 1346.17 743.741C1346.64 744.178 1347.19 744.427 1347.84 744.489C1348.44 744.522 1348.98 744.363 1349.46 744.012C1349.95 743.675 1350.41 743.09 1350.84 742.257C1351.28 741.425 1351.71 740.289 1352.15 738.849L1353.3 734.984C1354.32 731.548 1355.8 728.89 1357.73 727.009C1359.67 725.141 1362.18 724.332 1365.26 724.581C1367.77 724.759 1369.91 725.594 1371.68 727.086C1373.47 728.592 1374.8 730.586 1375.67 733.069C1376.54 735.564 1376.85 738.372 1376.61 741.493C1376.37 744.679 1375.62 747.393 1374.38 749.636C1373.13 751.88 1371.49 753.556 1369.46 754.667C1367.43 755.791 1365.13 756.261 1362.54 756.077L1363.33 745.827Z" fill="#5988FF"/>
<path d="M1369.99 794.246L1368.44 804.877L1343.33 801.221C1340.35 800.786 1337.87 799.696 1335.9 797.951C1333.93 796.22 1332.55 794 1331.73 791.291C1330.93 788.583 1330.77 785.553 1331.26 782.201C1331.75 778.823 1332.77 775.951 1334.31 773.585C1335.87 771.221 1337.83 769.49 1340.21 768.391C1342.59 767.306 1345.28 766.981 1348.26 767.416L1373.37 771.072L1371.82 781.703L1347.63 778.181C1346.42 778.004 1345.3 778.114 1344.26 778.51C1343.24 778.908 1342.39 779.539 1341.72 780.405C1341.04 781.283 1340.62 782.327 1340.44 783.538C1340.26 784.762 1340.37 785.884 1340.77 786.906C1341.17 787.927 1341.8 788.774 1342.67 789.447C1343.55 790.122 1344.59 790.547 1345.8 790.724L1369.99 794.246Z" fill="#5988FF"/>
<path d="M1327.15 810.574L1365.85 818.945L1362.24 835.639C1361.61 838.51 1360.5 840.899 1358.9 842.807C1357.3 844.714 1355.35 846.044 1353.03 846.796C1350.72 847.548 1348.19 847.627 1345.44 847.033C1342.67 846.433 1340.41 845.297 1338.64 843.625C1336.88 841.965 1335.69 839.908 1335.07 837.455C1334.46 835.015 1334.46 832.322 1335.1 829.376L1337.26 819.404L1345.43 821.17L1343.73 829.026C1343.46 830.26 1343.44 831.358 1343.68 832.319C1343.93 833.296 1344.41 834.104 1345.12 834.745C1345.82 835.397 1346.72 835.842 1347.82 836.079C1348.93 836.319 1349.92 836.284 1350.81 835.975C1351.7 835.681 1352.45 835.138 1353.06 834.346C1353.68 833.57 1354.12 832.565 1354.38 831.332L1355.19 827.63L1324.87 821.074L1327.15 810.574Z" fill="#5988FF"/>
<path d="M1317.66 852.566L1355.73 863.482L1351.01 879.901C1350.2 882.724 1348.93 885.034 1347.21 886.831C1345.49 888.629 1343.45 889.826 1341.09 890.423C1338.73 891.02 1336.2 890.931 1333.5 890.157C1330.78 889.375 1328.59 888.091 1326.94 886.306C1325.29 884.533 1324.24 882.402 1323.79 879.913C1323.33 877.437 1323.52 874.751 1324.35 871.853L1327.17 862.047L1335.2 864.35L1332.98 872.076C1332.63 873.289 1332.55 874.384 1332.72 875.359C1332.91 876.35 1333.33 877.188 1333.99 877.874C1334.65 878.572 1335.52 879.075 1336.6 879.385C1337.69 879.697 1338.68 879.728 1339.59 879.478C1340.5 879.244 1341.28 878.752 1341.94 878.003C1342.61 877.269 1343.12 876.296 1343.46 875.082L1344.51 871.442L1314.7 862.892L1317.66 852.566Z" fill="#5988FF"/>
<path d="M1305.35 893.845L1342.66 907.105L1339.06 917.227L1309.91 906.868L1304.54 921.942L1296.38 919.041L1305.35 893.845Z" fill="#5988FF"/>
<path d="M1292.44 929.216L1328.88 944.692L1317.72 970.941L1309.75 967.555L1316.71 951.194L1310.44 948.534L1304.06 963.544L1296.09 960.158L1302.47 945.149L1296.21 942.489L1289.28 958.779L1281.31 955.393L1292.44 929.216Z" fill="#5988FF"/>
<path d="M1303.56 1001.09L1297.09 1012.79L1273.01 1010.01L1272.78 1010.42L1287.97 1029.3L1281.5 1041.01L1246.84 1021.88L1251.92 1012.68L1271.96 1023.74L1272.11 1023.47L1256.6 1004.84L1259.67 999.295L1283.84 1002.56L1283.99 1002.29L1263.81 991.162L1268.89 981.959L1303.56 1001.09Z" fill="#5988FF"/>
<path d="M1234.63 1040.89L1241.06 1031.24L1266.78 1064.04L1258.64 1076.26L1218.43 1065.2L1224.86 1055.55L1253.55 1064.24L1253.72 1063.98L1234.63 1040.89ZM1248.84 1047.74L1236.75 1065.88L1230.05 1061.43L1242.14 1043.28L1248.84 1047.74Z" fill="#5988FF"/>
<path d="M1212.27 1073.49L1243.58 1097.72L1233.12 1111.23C1231.32 1113.55 1229.28 1115.23 1227.02 1116.26C1224.75 1117.29 1222.41 1117.65 1220 1117.33C1217.59 1117.01 1215.27 1115.99 1213.05 1114.27C1210.81 1112.54 1209.25 1110.54 1208.38 1108.27C1207.51 1106.01 1207.32 1103.64 1207.83 1101.17C1208.32 1098.7 1209.49 1096.27 1211.34 1093.89L1217.59 1085.82L1224.19 1090.93L1219.27 1097.29C1218.49 1098.29 1218.01 1099.27 1217.81 1100.24C1217.61 1101.23 1217.7 1102.17 1218.06 1103.05C1218.41 1103.94 1219.03 1104.73 1219.92 1105.41C1220.81 1106.11 1221.73 1106.51 1222.66 1106.61C1223.59 1106.73 1224.5 1106.56 1225.39 1106.11C1226.28 1105.67 1227.12 1104.96 1227.89 1103.96L1230.21 1100.97L1205.69 1081.99L1212.27 1073.49Z" fill="#5988FF"/>
<path d="M1191.81 1141.31C1192.84 1142.08 1193.92 1142.39 1195.03 1142.22C1196.13 1142.06 1197.26 1141.33 1198.42 1140.03C1199.15 1139.2 1199.65 1138.43 1199.92 1137.73C1200.19 1137.03 1200.27 1136.41 1200.15 1135.86C1200.04 1135.31 1199.77 1134.84 1199.34 1134.45C1199 1134.11 1198.62 1133.89 1198.21 1133.78C1197.79 1133.68 1197.32 1133.7 1196.8 1133.82C1196.28 1133.95 1195.71 1134.19 1195.07 1134.54C1194.44 1134.89 1193.73 1135.35 1192.97 1135.93L1190.29 1137.89C1188.49 1139.23 1186.79 1140.22 1185.18 1140.88C1183.58 1141.55 1182.06 1141.91 1180.63 1141.97C1179.21 1142.03 1177.87 1141.82 1176.61 1141.32C1175.33 1140.83 1174.13 1140.09 1172.99 1139.1C1171.05 1137.36 1169.84 1135.41 1169.34 1133.25C1168.84 1131.09 1169.04 1128.81 1169.93 1126.39C1170.8 1123.98 1172.35 1121.53 1174.58 1119.02C1176.86 1116.45 1179.23 1114.54 1181.7 1113.29C1184.15 1112.06 1186.64 1111.61 1189.17 1111.95C1191.69 1112.31 1194.19 1113.59 1196.68 1115.77L1189.91 1123.41C1188.96 1122.65 1188 1122.2 1187.02 1122.06C1186.04 1121.92 1185.07 1122.07 1184.1 1122.53C1183.13 1122.99 1182.19 1123.73 1181.28 1124.75C1180.52 1125.61 1179.99 1126.42 1179.69 1127.18C1179.39 1127.95 1179.29 1128.65 1179.4 1129.28C1179.51 1129.91 1179.81 1130.45 1180.28 1130.89C1180.74 1131.28 1181.27 1131.48 1181.86 1131.49C1182.46 1131.52 1183.18 1131.33 1184.02 1130.92C1184.87 1130.52 1185.91 1129.88 1187.12 1129L1190.38 1126.61C1193.27 1124.49 1196.06 1123.27 1198.73 1122.93C1201.4 1122.62 1203.9 1123.49 1206.2 1125.55C1208.09 1127.2 1209.29 1129.16 1209.8 1131.42C1210.31 1133.7 1210.17 1136.09 1209.36 1138.59C1208.54 1141.11 1207.09 1143.54 1205.02 1145.88C1202.9 1148.27 1200.66 1149.98 1198.31 1151.02C1195.96 1152.05 1193.64 1152.4 1191.35 1152.05C1189.05 1151.72 1186.93 1150.71 1184.99 1149L1191.81 1141.31Z" fill="#5988FF"/>
<path d="M1133.86 1198.28C1134.79 1199.18 1135.82 1199.61 1136.94 1199.58C1138.06 1199.55 1139.27 1198.96 1140.57 1197.81C1141.4 1197.07 1141.99 1196.37 1142.34 1195.7C1142.69 1195.04 1142.84 1194.44 1142.79 1193.88C1142.74 1193.32 1142.53 1192.82 1142.16 1192.38C1141.86 1192 1141.51 1191.73 1141.11 1191.57C1140.71 1191.43 1140.24 1191.39 1139.71 1191.45C1139.18 1191.52 1138.58 1191.69 1137.91 1191.96C1137.23 1192.22 1136.48 1192.6 1135.65 1193.08L1132.76 1194.71C1130.81 1195.82 1129 1196.6 1127.33 1197.07C1125.65 1197.53 1124.11 1197.71 1122.68 1197.6C1121.26 1197.49 1119.95 1197.12 1118.76 1196.47C1117.56 1195.83 1116.45 1194.95 1115.44 1193.83C1113.72 1191.88 1112.75 1189.8 1112.51 1187.59C1112.28 1185.39 1112.75 1183.14 1113.92 1180.85C1115.08 1178.56 1116.92 1176.31 1119.42 1174.09C1122 1171.81 1124.58 1170.2 1127.18 1169.26C1129.77 1168.33 1132.29 1168.18 1134.75 1168.82C1137.22 1169.48 1139.55 1171.05 1141.76 1173.52L1134.12 1180.28C1133.27 1179.42 1132.36 1178.86 1131.41 1178.6C1130.46 1178.34 1129.48 1178.38 1128.46 1178.71C1127.43 1179.05 1126.41 1179.67 1125.39 1180.58C1124.53 1181.34 1123.91 1182.08 1123.51 1182.81C1123.12 1183.53 1122.95 1184.22 1122.98 1184.86C1123.01 1185.5 1123.24 1186.06 1123.66 1186.55C1124.07 1187 1124.57 1187.26 1125.16 1187.34C1125.75 1187.44 1126.48 1187.34 1127.37 1187.04C1128.26 1186.74 1129.37 1186.23 1130.68 1185.5L1134.2 1183.52C1137.33 1181.76 1140.24 1180.88 1142.93 1180.87C1145.62 1180.88 1147.99 1182.04 1150.04 1184.36C1151.71 1186.23 1152.67 1188.32 1152.9 1190.63C1153.14 1192.95 1152.7 1195.3 1151.6 1197.69C1150.49 1200.09 1148.76 1202.33 1146.42 1204.4C1144.03 1206.52 1141.6 1207.95 1139.15 1208.7C1136.69 1209.45 1134.34 1209.51 1132.11 1208.89C1129.87 1208.29 1127.89 1207.03 1126.16 1205.1L1133.86 1198.28Z" fill="#5988FF"/>
<path d="M1104.94 1237.7L1096.43 1244.26L1080.93 1224.18C1079.09 1221.79 1078.07 1219.29 1077.87 1216.66C1077.66 1214.06 1078.21 1211.5 1079.51 1208.98C1080.82 1206.48 1082.81 1204.19 1085.5 1202.12C1088.2 1200.04 1090.93 1198.68 1093.69 1198.06C1096.45 1197.44 1099.07 1197.56 1101.54 1198.42C1104.01 1199.3 1106.17 1200.93 1108.01 1203.32L1123.5 1223.4L1114.99 1229.96L1100.06 1210.62C1099.31 1209.65 1098.43 1208.95 1097.41 1208.51C1096.4 1208.09 1095.35 1207.95 1094.26 1208.1C1093.17 1208.27 1092.14 1208.72 1091.17 1209.47C1090.19 1210.22 1089.48 1211.11 1089.06 1212.12C1088.63 1213.13 1088.5 1214.17 1088.65 1215.26C1088.81 1216.35 1089.27 1217.39 1090.02 1218.36L1104.94 1237.7Z" fill="#5988FF"/>
<path d="M1062.79 1219.65L1084.77 1252.57L1070.56 1262.05C1068.11 1263.68 1065.65 1264.62 1063.17 1264.88C1060.69 1265.14 1058.36 1264.73 1056.18 1263.67C1053.99 1262.6 1052.12 1260.9 1050.56 1258.56C1048.99 1256.21 1048.15 1253.81 1048.05 1251.39C1047.94 1248.97 1048.51 1246.66 1049.78 1244.47C1051.03 1242.29 1052.91 1240.36 1055.42 1238.69L1063.92 1233.03L1068.55 1239.97L1061.86 1244.43C1060.81 1245.13 1060.04 1245.91 1059.54 1246.77C1059.04 1247.64 1058.82 1248.56 1058.88 1249.51C1058.93 1250.47 1059.27 1251.41 1059.89 1252.34C1060.52 1253.29 1061.26 1253.95 1062.11 1254.35C1062.96 1254.76 1063.88 1254.89 1064.86 1254.74C1065.85 1254.61 1066.86 1254.2 1067.91 1253.5L1071.07 1251.39L1053.85 1225.61L1062.79 1219.65Z" fill="#5988FF"/>
<path d="M1026.75 1243.23L1046.5 1277.53L1031.68 1286.05C1029.14 1287.51 1026.62 1288.29 1024.13 1288.38C1021.64 1288.48 1019.34 1287.92 1017.23 1286.71C1015.12 1285.5 1013.37 1283.68 1011.96 1281.24C1010.55 1278.79 1009.87 1276.34 1009.93 1273.92C1009.98 1271.5 1010.71 1269.24 1012.12 1267.13C1013.51 1265.04 1015.52 1263.24 1018.13 1261.74L1026.98 1256.65L1031.15 1263.88L1024.18 1267.89C1023.08 1268.52 1022.26 1269.25 1021.71 1270.07C1021.15 1270.91 1020.87 1271.81 1020.87 1272.76C1020.85 1273.72 1021.13 1274.68 1021.69 1275.65C1022.25 1276.64 1022.95 1277.35 1023.77 1277.8C1024.59 1278.27 1025.49 1278.46 1026.49 1278.38C1027.48 1278.31 1028.52 1277.97 1029.61 1277.34L1032.9 1275.45L1017.43 1248.58L1026.75 1243.23Z" fill="#5988FF"/>
<path d="M989.17 1264.33L1006.75 1299.79L997.112 1304.55L983.381 1276.85L969.034 1283.95L965.189 1276.19L989.17 1264.33Z" fill="#5988FF"/>
<path d="M955.274 1280.76L970.686 1317.22L944.396 1328.31L941.024 1320.34L957.411 1313.42L954.762 1307.16L939.729 1313.5L936.357 1305.53L951.391 1299.18L948.742 1292.92L932.426 1299.81L929.055 1291.83L955.274 1280.76Z" fill="#5988FF"/>
<path d="M913.237 1340.13L900.442 1344.04L885.075 1325.3L884.631 1325.44L882.397 1349.56L869.602 1353.48L858.009 1315.64L868.067 1312.56L874.769 1334.44L875.065 1334.35L876.884 1310.19L882.949 1308.33L898.037 1327.48L898.333 1327.39L891.585 1305.37L901.643 1302.29L913.237 1340.13Z" fill="#5988FF"/>
<path d="M836.012 1320.81L847.349 1318.35L842.993 1359.79L828.633 1362.91L807.443 1327.02L818.78 1324.56L833.344 1350.74L833.646 1350.67L836.012 1320.81ZM841.449 1335.61L820.136 1340.24L818.426 1332.39L839.739 1327.75L841.449 1335.61Z" fill="#5988FF"/>
<path d="M797.248 1328.7L802.878 1367.87L785.958 1370.3C783.049 1370.71 780.421 1370.51 778.074 1369.67C775.727 1368.84 773.798 1367.47 772.287 1365.56C770.776 1363.66 769.821 1361.32 769.421 1358.54C769.018 1355.73 769.294 1353.21 770.25 1350.98C771.192 1348.75 772.707 1346.92 774.793 1345.49C776.867 1344.06 779.396 1343.13 782.382 1342.7L792.488 1341.25L793.676 1349.51L785.713 1350.65C784.463 1350.83 783.429 1351.2 782.611 1351.76C781.781 1352.34 781.19 1353.07 780.835 1353.95C780.467 1354.84 780.363 1355.83 780.522 1356.94C780.684 1358.07 781.064 1358.99 781.662 1359.71C782.25 1360.44 783.02 1360.96 783.974 1361.25C784.917 1361.56 786.013 1361.62 787.264 1361.44L791.015 1360.9L786.606 1330.22L797.248 1328.7Z" fill="#5988FF"/>
<path d="M735.345 1363.19C735.546 1364.47 736.105 1365.44 737.021 1366.09C737.925 1366.74 739.244 1367 740.979 1366.87C742.084 1366.79 742.98 1366.58 743.667 1366.26C744.341 1365.95 744.828 1365.56 745.128 1365.08C745.428 1364.61 745.562 1364.08 745.531 1363.5C745.52 1363.02 745.404 1362.6 745.181 1362.23C744.947 1361.87 744.6 1361.56 744.139 1361.28C743.679 1361.02 743.1 1360.79 742.4 1360.6C741.7 1360.41 740.873 1360.25 739.92 1360.13L736.628 1359.69C734.408 1359.39 732.491 1358.92 730.878 1358.28C729.264 1357.64 727.924 1356.85 726.855 1355.9C725.788 1354.96 724.974 1353.87 724.414 1352.63C723.842 1351.4 723.491 1350.03 723.363 1348.53C723.178 1345.93 723.659 1343.69 724.807 1341.79C725.954 1339.89 727.688 1338.39 730.007 1337.27C732.313 1336.15 735.137 1335.46 738.479 1335.2C741.911 1334.94 744.944 1335.22 747.58 1336.04C750.202 1336.86 752.301 1338.27 753.876 1340.27C755.439 1342.28 756.354 1344.94 756.619 1348.24L746.439 1349.01C746.283 1347.81 745.903 1346.82 745.3 1346.04C744.697 1345.26 743.891 1344.69 742.882 1344.34C741.86 1344 740.668 1343.87 739.305 1343.98C738.161 1344.06 737.214 1344.28 736.465 1344.62C735.715 1344.96 735.16 1345.4 734.8 1345.93C734.44 1346.46 734.278 1347.05 734.315 1347.69C734.374 1348.29 734.613 1348.81 735.033 1349.23C735.441 1349.66 736.09 1350.02 736.978 1350.32C737.868 1350.62 739.058 1350.88 740.548 1351.09L744.546 1351.64C748.1 1352.13 750.953 1353.18 753.107 1354.8C755.249 1356.43 756.431 1358.79 756.654 1361.88C756.859 1364.38 756.358 1366.62 755.152 1368.6C753.934 1370.59 752.163 1372.21 749.84 1373.44C747.504 1374.68 744.775 1375.42 741.651 1375.66C738.464 1375.9 735.666 1375.58 733.258 1374.69C730.85 1373.8 728.942 1372.44 727.534 1370.59C726.114 1368.76 725.299 1366.56 725.088 1363.98L735.345 1363.19Z" fill="#5988FF"/>
<path d="M654.05 1363.84C654.096 1365.14 654.535 1366.16 655.366 1366.92C656.184 1367.68 657.463 1368.09 659.201 1368.17C660.309 1368.22 661.223 1368.12 661.943 1367.89C662.65 1367.66 663.18 1367.33 663.535 1366.89C663.89 1366.46 664.086 1365.95 664.125 1365.37C664.171 1364.9 664.107 1364.46 663.931 1364.07C663.741 1363.68 663.434 1363.33 663.01 1363C662.585 1362.69 662.037 1362.39 661.365 1362.12C660.693 1361.84 659.891 1361.59 658.96 1361.35L655.745 1360.52C653.576 1359.96 651.729 1359.26 650.204 1358.43C648.679 1357.61 647.444 1356.66 646.497 1355.58C645.55 1354.52 644.873 1353.35 644.466 1352.05C644.045 1350.76 643.862 1349.36 643.915 1347.85C644.042 1345.25 644.79 1343.08 646.157 1341.33C647.524 1339.59 649.426 1338.3 651.863 1337.46C654.287 1336.63 657.173 1336.29 660.521 1336.43C663.96 1336.58 666.938 1337.22 669.456 1338.35C671.961 1339.48 673.876 1341.13 675.199 1343.31C676.51 1345.49 677.098 1348.24 676.966 1351.55L666.766 1351.1C666.755 1349.88 666.497 1348.85 665.992 1348.01C665.488 1347.16 664.755 1346.5 663.795 1346.03C662.822 1345.57 661.653 1345.3 660.288 1345.24C659.142 1345.19 658.176 1345.29 657.391 1345.54C656.606 1345.79 656.003 1346.16 655.581 1346.64C655.16 1347.12 654.929 1347.69 654.888 1348.33C654.874 1348.94 655.05 1349.47 655.417 1349.94C655.77 1350.42 656.37 1350.86 657.217 1351.26C658.063 1351.67 659.213 1352.07 660.667 1352.45L664.571 1353.48C668.04 1354.39 670.747 1355.78 672.691 1357.64C674.621 1359.52 675.512 1362 675.363 1365.09C675.265 1367.6 674.499 1369.77 673.064 1371.59C671.616 1373.42 669.664 1374.81 667.21 1375.76C664.742 1376.71 661.943 1377.11 658.814 1376.97C655.62 1376.83 652.881 1376.18 650.597 1375.01C648.313 1373.84 646.583 1372.25 645.406 1370.25C644.216 1368.27 643.672 1365.98 643.773 1363.39L654.05 1363.84Z" fill="#5988FF"/>
<path d="M605.837 1372.06L595.154 1370.86L597.999 1345.67C598.338 1342.67 599.348 1340.16 601.03 1338.13C602.697 1336.12 604.873 1334.66 607.556 1333.76C610.238 1332.87 613.264 1332.61 616.633 1332.99C620.027 1333.37 622.933 1334.3 625.349 1335.76C627.764 1337.24 629.559 1339.15 630.735 1341.48C631.897 1343.83 632.309 1346.5 631.97 1349.5L629.125 1374.69L618.442 1373.49L621.183 1349.22C621.32 1348 621.174 1346.88 620.745 1345.86C620.314 1344.85 619.655 1344.03 618.767 1343.38C617.867 1342.74 616.809 1342.34 615.592 1342.21C614.362 1342.07 613.243 1342.21 612.234 1342.65C611.226 1343.08 610.399 1343.73 609.754 1344.62C609.108 1345.52 608.716 1346.58 608.578 1347.79L605.837 1372.06Z" fill="#5988FF"/>
<path d="M588.12 1329.8L580.999 1368.73L564.184 1365.66C561.293 1365.13 558.867 1364.1 556.908 1362.56C554.948 1361.03 553.554 1359.11 552.728 1356.83C551.901 1354.54 551.74 1352.02 552.245 1349.26C552.755 1346.47 553.818 1344.17 555.434 1342.36C557.037 1340.54 559.056 1339.29 561.489 1338.59C563.91 1337.89 566.604 1337.82 569.572 1338.36L579.615 1340.19L578.113 1348.4L570.2 1346.96C568.957 1346.73 567.859 1346.75 566.905 1347.02C565.936 1347.31 565.143 1347.81 564.526 1348.53C563.895 1349.26 563.479 1350.17 563.278 1351.27C563.074 1352.39 563.141 1353.38 563.479 1354.26C563.802 1355.14 564.369 1355.87 565.18 1356.45C565.977 1357.04 566.996 1357.45 568.239 1357.68L571.967 1358.36L577.544 1327.87L588.12 1329.8Z" fill="#5988FF"/>
<path d="M545.814 1321.69L536.126 1360.06L519.552 1355.88C516.702 1355.16 514.35 1353.97 512.497 1352.31C510.643 1350.65 509.38 1348.65 508.707 1346.31C508.033 1343.98 508.04 1341.45 508.728 1338.72C509.422 1335.98 510.635 1333.75 512.368 1332.05C514.088 1330.34 516.185 1329.23 518.659 1328.69C521.121 1328.16 523.814 1328.26 526.739 1329L536.638 1331.49L534.595 1339.59L526.795 1337.62C525.57 1337.31 524.473 1337.26 523.503 1337.47C522.518 1337.68 521.693 1338.13 521.029 1338.82C520.352 1339.5 519.876 1340.38 519.602 1341.47C519.325 1342.57 519.326 1343.56 519.605 1344.46C519.869 1345.36 520.386 1346.13 521.157 1346.76C521.912 1347.4 522.902 1347.88 524.127 1348.19L527.802 1349.11L535.39 1319.06L545.814 1321.69Z" fill="#5988FF"/>
<path d="M504.13 1310.72L492.074 1348.42L481.833 1345.15L491.252 1315.7L476.001 1310.83L478.639 1302.58L504.13 1310.72Z" fill="#5988FF"/>
<path d="M468.334 1298.97L454.033 1335.88L427.418 1325.58L430.547 1317.5L447.136 1323.92L449.594 1317.58L434.375 1311.69L437.503 1303.62L452.722 1309.51L455.18 1303.17L438.663 1296.77L441.792 1288.7L468.334 1298.97Z" fill="#5988FF"/>
<path d="M396.809 1312.41L384.892 1306.33L386.895 1282.18L386.482 1281.97L368.084 1297.75L356.167 1291.67L374.176 1256.42L383.544 1261.21L373.133 1281.58L373.408 1281.72L391.532 1265.63L397.181 1268.51L394.692 1292.75L394.968 1292.9L405.45 1272.38L414.818 1277.16L396.809 1312.41Z" fill="#5988FF"/>
<path d="M354.773 1244.85L364.634 1250.96L332.655 1277.71L320.166 1269.97L329.926 1229.45L339.786 1235.56L332.026 1264.5L332.289 1264.66L354.773 1244.85ZM348.38 1259.26L329.843 1247.77L334.083 1240.94L352.62 1252.43L348.38 1259.26Z" fill="#5988FF"/>
<path d="M321.435 1223.57L298.214 1255.63L284.368 1245.61C281.987 1243.89 280.244 1241.91 279.139 1239.68C278.033 1237.45 277.601 1235.13 277.841 1232.71C278.081 1230.29 279.025 1227.94 280.673 1225.67C282.336 1223.37 284.287 1221.75 286.528 1220.81C288.758 1219.87 291.12 1219.6 293.616 1220.03C296.101 1220.44 298.565 1221.53 301.008 1223.3L309.279 1229.28L304.38 1236.04L297.864 1231.33C296.841 1230.59 295.841 1230.14 294.863 1229.97C293.868 1229.81 292.935 1229.92 292.065 1230.31C291.184 1230.69 290.415 1231.33 289.757 1232.24C289.092 1233.16 288.724 1234.08 288.652 1235.02C288.562 1235.95 288.758 1236.86 289.239 1237.73C289.703 1238.61 290.446 1239.42 291.47 1240.16L294.539 1242.38L312.726 1217.27L321.435 1223.57Z" fill="#5988FF"/>
<path d="M252.947 1205.33C252.203 1206.39 251.933 1207.47 252.136 1208.57C252.33 1209.67 253.096 1210.78 254.435 1211.89C255.288 1212.59 256.073 1213.07 256.792 1213.31C257.492 1213.56 258.115 1213.62 258.661 1213.48C259.207 1213.35 259.671 1213.07 260.051 1212.63C260.376 1212.28 260.587 1211.89 260.685 1211.47C260.765 1211.05 260.736 1210.58 260.596 1210.07C260.448 1209.56 260.19 1208.99 259.821 1208.37C259.451 1207.74 258.966 1207.06 258.366 1206.31L256.311 1203.7C254.922 1201.94 253.87 1200.28 253.156 1198.7C252.441 1197.11 252.032 1195.61 251.927 1194.18C251.814 1192.77 251.986 1191.42 252.444 1190.14C252.893 1188.86 253.594 1187.63 254.547 1186.46C256.22 1184.47 258.129 1183.19 260.274 1182.63C262.419 1182.06 264.714 1182.18 267.16 1182.99C269.596 1183.79 272.103 1185.26 274.682 1187.4C277.33 1189.59 279.316 1191.9 280.639 1194.32C281.952 1196.74 282.479 1199.21 282.219 1201.74C281.942 1204.27 280.75 1206.81 278.643 1209.37L270.788 1202.85C271.513 1201.88 271.93 1200.9 272.041 1199.92C272.151 1198.94 271.965 1197.98 271.483 1197.02C270.991 1196.06 270.22 1195.15 269.168 1194.28C268.286 1193.54 267.456 1193.04 266.68 1192.76C265.904 1192.49 265.201 1192.42 264.573 1192.55C263.944 1192.68 263.419 1192.99 262.997 1193.47C262.62 1193.95 262.436 1194.48 262.446 1195.08C262.437 1195.67 262.649 1196.38 263.083 1197.21C263.509 1198.05 264.184 1199.06 265.109 1200.25L267.6 1203.42C269.812 1206.24 271.129 1208.99 271.549 1211.65C271.952 1214.31 271.16 1216.82 269.174 1219.19C267.578 1221.13 265.658 1222.4 263.415 1222.98C261.153 1223.56 258.757 1223.49 256.227 1222.77C253.687 1222.03 251.212 1220.67 248.802 1218.67C246.342 1216.63 244.557 1214.45 243.445 1212.14C242.333 1209.82 241.913 1207.52 242.185 1205.21C242.438 1202.91 243.387 1200.76 245.033 1198.76L252.947 1205.33Z" fill="#5988FF"/>
<path d="M194.089 1149.29C193.224 1150.25 192.825 1151.29 192.894 1152.41C192.955 1153.52 193.583 1154.71 194.779 1155.98C195.54 1156.78 196.263 1157.35 196.947 1157.68C197.613 1158.01 198.225 1158.14 198.783 1158.07C199.341 1158 199.835 1157.78 200.265 1157.39C200.63 1157.08 200.886 1156.72 201.034 1156.31C201.164 1155.91 201.19 1155.44 201.114 1154.91C201.028 1154.39 200.839 1153.79 200.548 1153.13C200.256 1152.47 199.857 1151.73 199.351 1150.91L197.625 1148.07C196.456 1146.16 195.612 1144.38 195.092 1142.73C194.573 1141.07 194.347 1139.53 194.414 1138.1C194.472 1136.68 194.805 1135.37 195.413 1134.15C196.012 1132.93 196.856 1131.8 197.942 1130.75C199.843 1128.97 201.892 1127.93 204.089 1127.63C206.286 1127.32 208.55 1127.72 210.881 1128.81C213.204 1129.9 215.516 1131.66 217.82 1134.09C220.185 1136.59 221.879 1139.12 222.902 1141.68C223.916 1144.23 224.142 1146.75 223.581 1149.23C223.001 1151.71 221.512 1154.09 219.115 1156.38L212.099 1148.97C212.935 1148.09 213.466 1147.17 213.694 1146.21C213.921 1145.25 213.852 1144.27 213.488 1143.27C213.115 1142.25 212.459 1141.25 211.52 1140.26C210.732 1139.43 209.969 1138.83 209.231 1138.46C208.494 1138.09 207.805 1137.94 207.165 1137.99C206.525 1138.05 205.967 1138.29 205.49 1138.72C205.058 1139.15 204.812 1139.66 204.75 1140.25C204.67 1140.84 204.795 1141.57 205.126 1142.45C205.448 1143.33 205.997 1144.41 206.773 1145.7L208.865 1149.15C210.722 1152.22 211.7 1155.1 211.799 1157.79C211.879 1160.48 210.791 1162.88 208.534 1165C206.717 1166.73 204.659 1167.76 202.362 1168.06C200.046 1168.37 197.676 1168.02 195.252 1166.99C192.818 1165.96 190.526 1164.31 188.373 1162.03C186.176 1159.71 184.665 1157.34 183.838 1154.91C183.012 1152.48 182.872 1150.14 183.418 1147.88C183.946 1145.63 185.147 1143.61 187.02 1141.82L194.089 1149.29Z" fill="#5988FF"/>
<path d="M153.729 1121.68L146.892 1113.39L166.471 1097.27C168.799 1095.35 171.273 1094.25 173.892 1093.96C176.493 1093.67 179.072 1094.14 181.629 1095.35C184.175 1096.58 186.527 1098.5 188.682 1101.11C190.855 1103.75 192.299 1106.43 193.015 1109.16C193.721 1111.9 193.683 1114.52 192.902 1117.02C192.102 1119.51 190.539 1121.72 188.211 1123.63L168.632 1139.76L161.795 1131.46L180.658 1115.93C181.603 1115.15 182.276 1114.25 182.678 1113.22C183.07 1112.19 183.172 1111.14 182.983 1110.06C182.786 1108.97 182.298 1107.96 181.519 1107.01C180.732 1106.06 179.827 1105.38 178.802 1104.99C177.778 1104.6 176.725 1104.5 175.645 1104.69C174.554 1104.88 173.537 1105.37 172.591 1106.15L153.729 1121.68Z" fill="#5988FF"/>
<path d="M170.418 1079.01L138.205 1102.02L128.263 1088.13C126.553 1085.74 125.529 1083.31 125.191 1080.85C124.853 1078.38 125.182 1076.04 126.179 1073.82C127.176 1071.6 128.817 1069.68 131.103 1068.05C133.41 1066.4 135.775 1065.48 138.198 1065.3C140.613 1065.11 142.937 1065.62 145.169 1066.81C147.394 1067.99 149.383 1069.81 151.138 1072.26L157.076 1080.56L150.281 1085.41L145.602 1078.87C144.868 1077.85 144.063 1077.1 143.189 1076.63C142.297 1076.16 141.377 1075.97 140.429 1076.06C139.473 1076.14 138.539 1076.51 137.626 1077.16C136.703 1077.82 136.06 1078.58 135.694 1079.45C135.311 1080.3 135.209 1081.23 135.388 1082.21C135.549 1083.18 135.996 1084.19 136.731 1085.21L138.936 1088.29L164.165 1070.27L170.418 1079.01Z" fill="#5988FF"/>
<path d="M145.671 1043.77L112.002 1064.6L103.003 1050.08C101.456 1047.58 100.595 1045.09 100.421 1042.61C100.247 1040.13 100.731 1037.81 101.873 1035.67C103.014 1033.52 104.78 1031.71 107.169 1030.23C109.58 1028.74 112.001 1027.98 114.43 1027.96C116.853 1027.93 119.139 1028.59 121.287 1029.93C123.428 1031.25 125.292 1033.2 126.88 1035.76L132.255 1044.43L125.153 1048.83L120.918 1041.99C120.253 1040.92 119.5 1040.12 118.659 1039.6C117.801 1039.07 116.895 1038.82 115.943 1038.85C114.983 1038.86 114.027 1039.17 113.073 1039.76C112.109 1040.35 111.416 1041.07 110.994 1041.91C110.555 1042.74 110.392 1043.65 110.505 1044.64C110.601 1045.63 110.981 1046.66 111.646 1047.73L113.641 1050.95L140.011 1034.64L145.671 1043.77Z" fill="#5988FF"/>
<path d="M123.354 1006.92L88.4543 1025.62L83.3736 1016.15L110.639 1001.54L103.073 987.44L110.707 983.349L123.354 1006.92Z" fill="#5988FF"/>
<path d="M105.817 973.593L69.856 990.165L57.9042 964.266L65.7708 960.641L73.2204 976.784L79.4013 973.936L72.5671 959.126L80.4336 955.501L87.2678 970.311L93.4487 967.462L86.0315 951.39L93.898 947.765L105.817 973.593Z" fill="#5988FF"/>
<path d="M45.0808 933.528L40.7518 920.876L58.9979 904.921L58.8478 904.482L34.6461 903.031L30.3171 890.379L67.7883 877.576L71.1915 887.522L49.5284 894.924L49.6285 895.217L73.8514 896.252L75.9033 902.249L57.2393 917.938L57.3394 918.23L79.1488 910.779L82.552 920.725L45.0808 933.528Z" fill="#5988FF"/>
<path d="M61.9035 855.775L64.7347 867.018L23.1412 864.008L19.5551 849.767L54.769 827.443L57.6002 838.686L31.8864 854.078L31.9619 854.378L61.9035 855.775ZM47.2805 861.684L41.958 840.547L49.7587 838.585L55.0813 859.722L47.2805 861.684Z" fill="#5988FF"/>
<path d="M52.7646 817.313L13.7684 824.203L10.7926 807.382C10.2809 804.49 10.4044 801.859 11.1631 799.488C11.9218 797.117 13.2291 795.146 15.0851 793.575C16.941 792.005 19.2526 790.975 22.0199 790.486C24.8126 789.993 27.3408 790.187 29.6045 791.069C31.8659 791.938 33.7463 793.392 35.2457 795.429C36.7428 797.454 37.754 799.951 38.2791 802.919L40.0565 812.965L31.8308 814.419L30.4304 806.503C30.2104 805.26 29.8072 804.239 29.2208 803.44C28.6194 802.631 27.871 802.063 26.9755 801.737C26.0778 801.399 25.0768 801.327 23.9724 801.522C22.8553 801.719 21.9459 802.128 21.2442 802.75C20.5275 803.36 20.0382 804.147 19.7764 805.109C19.4997 806.06 19.4712 807.157 19.6912 808.4L20.351 812.13L50.8929 806.734L52.7646 817.313Z" fill="#5988FF"/>
<path d="M16.2595 756.602C14.9892 756.844 14.042 757.433 13.418 758.369C12.7926 759.293 12.5743 760.619 12.763 762.348C12.8832 763.449 13.1163 764.337 13.4622 765.012C13.794 765.676 14.2023 766.15 14.6872 766.434C15.1721 766.718 15.7035 766.835 16.2816 766.785C16.7585 766.759 17.1788 766.629 17.5422 766.395C17.8915 766.149 18.1962 765.792 18.4562 765.323C18.7034 764.856 18.9117 764.269 19.0811 763.564C19.2506 762.859 19.3804 762.028 19.4706 761.072L19.8104 757.77C20.0341 755.543 20.4394 753.613 21.0264 751.981C21.6134 750.349 22.3656 748.984 23.2832 747.887C24.188 746.79 25.2495 745.943 26.4679 745.343C27.6849 744.731 29.0423 744.337 30.5403 744.161C33.1303 743.892 35.3922 744.299 37.3261 745.384C39.2599 746.469 40.8246 748.152 42.02 750.432C43.2141 752.699 43.9928 755.497 44.3562 758.827C44.7294 762.246 44.5488 765.285 43.8146 767.943C43.079 770.589 41.7372 772.731 39.7893 774.369C37.8272 775.995 35.2001 776.994 31.908 777.366L30.8011 767.224C31.9987 767.028 32.9782 766.617 33.7397 765.99C34.5012 765.363 35.0402 764.539 35.3569 763.52C35.6722 762.488 35.7557 761.293 35.6076 759.936C35.4832 758.796 35.2381 757.857 34.8723 757.12C34.5065 756.382 34.0521 755.842 33.509 755.5C32.9658 755.157 32.3732 755.014 31.7311 755.071C31.1302 755.15 30.6264 755.406 30.2198 755.839C29.799 756.26 29.456 756.92 29.1909 757.817C28.9129 758.715 28.6933 759.912 28.5323 761.407L28.1142 765.417C27.7383 768.983 26.7758 771.867 25.2268 774.071C23.6635 776.262 21.3434 777.519 18.2664 777.842C15.7689 778.127 13.5113 777.699 11.4936 776.559C9.46162 775.406 7.78955 773.69 6.47737 771.41C5.16379 769.117 4.33718 766.415 3.99755 763.303C3.65093 760.127 3.88296 757.322 4.69362 754.889C5.50429 752.455 6.80866 750.505 8.60675 749.039C10.3906 747.562 12.5698 746.677 15.1442 746.383L16.2595 756.602Z" fill="#5988FF"/>
<path d="M12.9797 675.429C11.6895 675.518 10.6785 675.989 9.9466 676.844C9.21487 677.685 8.83889 678.976 8.81866 680.714C8.80578 681.822 8.93056 682.732 9.19302 683.443C9.44273 684.142 9.79121 684.661 10.2385 685.002C10.6857 685.342 11.1993 685.522 11.7792 685.541C12.2558 685.572 12.6886 685.494 13.0776 685.305C13.4538 685.103 13.7991 684.785 14.1136 684.351C14.4151 683.916 14.6923 683.359 14.9452 682.679C15.1981 682 15.4266 681.191 15.6309 680.253L16.3647 677.015C16.8542 674.83 17.4883 672.963 18.267 671.413C19.0456 669.864 19.9563 668.599 20.999 667.619C22.0289 666.639 23.1846 665.925 24.4661 665.476C25.7477 665.014 27.1427 664.785 28.651 664.79C31.2546 664.833 33.4513 665.509 35.2409 666.818C37.0305 668.127 38.3819 669.985 39.295 672.392C40.2082 674.786 40.6454 677.657 40.6064 681.006C40.5664 684.446 40.0224 687.441 38.9743 689.992C37.9263 692.531 36.3371 694.496 34.2066 695.889C32.0634 697.268 29.3354 697.945 26.0225 697.919L26.1411 687.718C27.3536 687.667 28.3754 687.376 29.2066 686.845C30.0379 686.314 30.6719 685.561 31.1087 684.587C31.5456 683.6 31.772 682.424 31.7878 681.059C31.8012 679.912 31.6706 678.951 31.396 678.175C31.1214 677.399 30.735 676.808 30.237 676.403C29.7389 675.998 29.1677 675.785 28.5233 675.765C27.9174 675.77 27.3865 675.964 26.9309 676.345C26.4625 676.713 26.0428 677.327 25.6719 678.186C25.288 679.044 24.9264 680.206 24.5871 681.671L23.6905 685.602C22.8893 689.097 21.5875 691.845 19.7851 693.847C17.97 695.835 15.5157 696.805 12.4223 696.757C9.90856 696.74 7.7186 696.045 5.85238 694.671C3.97342 693.283 2.51946 691.379 1.49049 688.958C0.461668 686.524 -0.0345388 683.742 0.00186626 680.612C0.0390204 677.418 0.606093 674.661 1.70308 672.342C2.80008 670.023 4.32911 668.244 6.29019 667.004C8.23853 665.751 10.5082 665.133 13.0993 665.151L12.9797 675.429Z" fill="#5988FF"/>
<path d="M3.20029 627.541L4.05993 616.832L29.348 618.859C32.3549 619.1 34.8992 620.028 36.981 621.642C39.0511 623.243 40.581 625.368 41.5709 628.02C42.548 630.67 42.901 633.683 42.6299 637.06C42.3567 640.463 41.5265 643.394 40.1392 645.855C38.7391 648.314 36.8896 650.169 34.5908 651.419C32.2801 652.656 29.6213 653.153 26.6145 652.912L1.3264 650.885L2.18604 640.176L26.549 642.129C27.7697 642.227 28.8836 642.045 29.8906 641.583C30.8847 641.12 31.6898 640.435 32.3058 639.528C32.9228 638.608 33.2802 637.538 33.3781 636.319C33.4771 635.086 33.2949 633.973 32.8315 632.979C32.368 631.986 31.6825 631.181 30.775 630.566C29.8545 629.949 28.784 629.592 27.5632 629.494L3.20029 627.541Z" fill="#5988FF"/>
<path d="M44.8967 608.481L5.73141 602.628L8.25989 585.734C8.69465 582.83 9.64877 580.374 11.1223 578.367C12.5958 576.36 14.4621 574.906 16.7214 574.007C18.9806 573.107 21.4999 572.865 24.2792 573.28C27.084 573.699 29.4193 574.687 31.285 576.242C33.1527 577.785 34.4733 579.76 35.2469 582.168C36.0223 584.563 36.187 587.251 35.7408 590.232L34.2306 600.323L25.9691 599.088L27.159 591.138C27.3459 589.89 27.2884 588.793 26.9865 587.85C26.6737 586.891 26.1447 586.115 25.3993 585.522C24.6558 584.916 23.7294 584.53 22.6203 584.364C21.4984 584.196 20.5059 584.295 19.643 584.661C18.7693 585.013 18.0553 585.603 17.5011 586.432C16.9361 587.246 16.5601 588.277 16.3732 589.526L15.8126 593.272L46.487 597.856L44.8967 608.481Z" fill="#5988FF"/>
<path d="M51.6435 565.965L12.9528 557.53L16.5965 540.841C17.223 537.972 18.338 535.585 19.9414 533.68C21.5448 531.775 23.5035 530.448 25.8175 529.7C28.1315 528.952 30.6613 528.877 33.4069 529.476C36.1777 530.08 38.4424 531.22 40.2008 532.895C41.962 534.558 43.1486 536.617 43.7607 539.071C44.3756 541.512 44.3615 544.205 43.7185 547.15L41.5421 557.118L33.3808 555.339L35.0955 547.485C35.3648 546.252 35.3802 545.154 35.1415 544.192C34.8931 543.215 34.4167 542.406 33.7123 541.765C33.0106 541.111 32.112 540.664 31.0162 540.425C29.9079 540.184 28.9111 540.217 28.0258 540.525C27.1307 540.818 26.3791 541.359 25.7711 542.149C25.1533 542.925 24.7097 543.929 24.4404 545.162L23.6326 548.862L53.9353 555.469L51.6435 565.965Z" fill="#5988FF"/>
<path d="M61.2628 523.977L23.1717 513.155L26.1119 502.821L55.8707 511.276L60.2493 495.887L68.5818 498.255L61.2628 523.977Z" fill="#5988FF"/>
<path d="M71.8589 487.846L34.4874 474.755L43.9284 447.841L52.1034 450.704L46.2188 467.48L52.642 469.73L58.0405 454.34L66.2155 457.204L60.817 472.594L67.2402 474.844L73.0993 458.141L81.2743 461.004L71.8589 487.846Z" fill="#5988FF"/>
<path d="M56.1121 416.844L61.8088 404.745L86.0232 405.965L86.2208 405.545L69.8434 387.681L75.5402 375.582L111.373 392.429L106.895 401.94L86.1788 392.2L86.047 392.48L102.729 410.061L100.029 415.796L75.6991 414.094L75.5674 414.374L96.4231 424.18L91.9448 433.691L56.1121 416.844Z" fill="#5988FF"/>
<path d="M122.321 372.676L116.529 382.721L88.7419 351.648L96.0784 338.924L136.917 347.362L131.125 357.407L101.937 350.592L101.782 350.86L122.321 372.676ZM107.702 366.757L118.591 347.871L125.561 351.884L114.672 370.77L107.702 366.757Z" fill="#5988FF"/>
<path d="M142.527 338.691L109.715 316.535L119.285 302.382C120.93 299.949 122.851 298.144 125.046 296.968C127.242 295.792 129.553 295.285 131.98 295.446C134.406 295.608 136.784 296.475 139.112 298.047C141.462 299.634 143.143 301.531 144.156 303.738C145.175 305.934 145.514 308.286 145.173 310.792C144.84 313.287 143.828 315.783 142.139 318.281L136.423 326.734L129.502 322.061L134.006 315.401C134.713 314.355 135.134 313.341 135.269 312.359C135.4 311.359 135.258 310.431 134.841 309.575C134.432 308.708 133.762 307.96 132.833 307.333C131.893 306.698 130.955 306.36 130.019 306.319C129.079 306.259 128.18 306.484 127.322 306.993C126.461 307.484 125.677 308.253 124.969 309.299L122.847 312.437L148.546 329.79L142.527 338.691Z" fill="#5988FF"/>
<path d="M158.559 269.699C157.478 268.99 156.387 268.755 155.287 268.994C154.195 269.222 153.115 270.023 152.048 271.397C151.367 272.271 150.917 273.071 150.695 273.797C150.472 274.504 150.435 275.128 150.586 275.67C150.737 276.211 151.037 276.664 151.487 277.03C151.848 277.343 152.24 277.541 152.664 277.626C153.086 277.692 153.554 277.648 154.067 277.491C154.57 277.327 155.128 277.051 155.74 276.662C156.353 276.273 157.024 275.767 157.754 275.143L160.297 273.006C162.008 271.562 163.643 270.457 165.2 269.693C166.758 268.928 168.249 268.47 169.672 268.32C171.085 268.161 172.438 268.29 173.73 268.706C175.031 269.112 176.28 269.772 177.479 270.687C179.528 272.294 180.869 274.159 181.503 276.283C182.137 278.406 182.09 280.703 181.362 283.172C180.642 285.631 179.253 288.182 177.197 290.827C175.085 293.543 172.84 295.601 170.462 297C168.091 298.39 165.636 298.996 163.097 298.819C160.555 298.623 157.972 297.515 155.349 295.494L161.613 287.438C162.609 288.13 163.599 288.515 164.583 288.594C165.567 288.672 166.527 288.456 167.464 287.943C168.409 287.421 169.301 286.621 170.139 285.543C170.843 284.637 171.321 283.793 171.571 283.008C171.822 282.224 171.871 281.52 171.719 280.897C171.568 280.273 171.241 279.759 170.74 279.353C170.254 278.992 169.714 278.826 169.12 278.854C168.525 278.864 167.819 279.1 167.004 279.56C166.179 280.012 165.188 280.719 164.032 281.681L160.94 284.272C158.188 286.573 155.489 287.976 152.842 288.482C150.193 288.97 147.652 288.261 145.216 286.354C143.224 284.823 141.899 282.946 141.244 280.724C140.586 278.484 140.579 276.089 141.224 273.538C141.876 270.978 143.163 268.462 145.085 265.99C147.047 263.468 149.166 261.614 151.442 260.429C153.719 259.244 156.013 258.75 158.325 258.946C160.635 259.125 162.817 260.003 164.871 261.582L158.559 269.699Z" fill="#5988FF"/>
</svg>
