<svg width="1038" height="1038" viewBox="0 0 1038 1038" fill="none" xmlns="http://www.w3.org/2000/svg">
<path d="M825.395 922.441C826.267 923.397 827.267 923.895 828.392 923.935C829.508 923.983 830.753 923.473 832.129 922.405C833.005 921.724 833.64 921.059 834.034 920.41C834.426 919.779 834.616 919.182 834.604 918.62C834.592 918.058 834.413 917.543 834.067 917.077C833.795 916.684 833.464 916.394 833.073 916.207C832.681 916.038 832.217 915.966 831.68 915.99C831.152 916.025 830.542 916.155 829.852 916.381C829.162 916.607 828.385 916.932 827.523 917.357L824.528 918.801C822.512 919.78 820.653 920.447 818.954 920.803C817.254 921.16 815.695 921.235 814.278 921.029C812.868 920.833 811.589 920.374 810.438 919.65C809.278 918.934 808.23 917.984 807.294 916.799C805.706 914.733 804.867 912.591 804.779 910.373C804.69 908.155 805.304 905.938 806.621 903.722C807.929 901.514 809.907 899.382 812.555 897.324C815.276 895.211 817.962 893.77 820.615 893C823.257 892.238 825.787 892.257 828.206 893.058C830.622 893.877 832.852 895.591 834.895 898.202L826.826 904.47C826.032 903.552 825.167 902.933 824.233 902.613C823.298 902.293 822.314 902.266 821.278 902.531C820.233 902.804 819.17 903.36 818.09 904.199C817.183 904.903 816.511 905.605 816.074 906.304C815.637 907.003 815.414 907.674 815.407 908.317C815.4 908.959 815.589 909.539 815.974 910.057C816.357 910.528 816.839 910.823 817.421 910.942C818.002 911.079 818.744 911.026 819.648 910.781C820.56 910.546 821.696 910.105 823.055 909.458L826.695 907.709C829.933 906.157 832.898 905.463 835.589 905.627C838.278 905.809 840.567 907.127 842.456 909.58C844.009 911.559 844.829 913.708 844.914 916.027C844.997 918.364 844.411 920.69 843.154 923.005C841.888 925.329 840.016 927.452 837.541 929.375C835.014 931.337 832.5 932.612 830 933.199C827.499 933.785 825.152 933.697 822.959 932.934C820.763 932.189 818.865 930.796 817.264 928.756L825.395 922.441Z" fill="#5988FF"/>
<path d="M792.922 959.814L783.852 965.602L770.197 944.197C768.573 941.652 767.777 939.061 767.808 936.424C767.836 933.805 768.609 931.299 770.128 928.906C771.653 926.524 773.846 924.421 776.706 922.596C779.588 920.757 782.43 919.647 785.233 919.266C788.042 918.897 790.64 919.251 793.027 920.33C795.41 921.427 797.413 923.247 799.037 925.793L812.692 947.198L803.622 952.986L790.467 932.364C789.807 931.33 788.989 930.552 788.012 930.027C787.042 929.514 786.009 929.286 784.913 929.342C783.806 929.406 782.735 929.768 781.702 930.427C780.658 931.093 779.88 931.911 779.366 932.882C778.853 933.852 778.625 934.885 778.682 935.982C778.745 937.089 779.107 938.159 779.766 939.193L792.922 959.814Z" fill="#5988FF"/>
<path d="M752.586 937.848L770.729 973.085L755.522 980.918C752.907 982.265 750.353 982.927 747.861 982.905C745.368 982.883 743.095 982.217 741.043 980.909C738.991 979.6 737.321 977.696 736.034 975.195C734.734 972.672 734.171 970.197 734.344 967.771C734.506 965.352 735.339 963.123 736.844 961.086C738.337 959.054 740.425 957.347 743.109 955.965L752.192 951.286L756.019 958.719L748.863 962.405C747.739 962.984 746.882 963.672 746.291 964.47C745.695 965.285 745.374 966.169 745.327 967.121C745.27 968.08 745.498 969.058 746.011 970.056C746.531 971.065 747.192 971.813 747.994 972.3C748.79 972.804 749.687 973.039 750.685 973.004C751.677 972.986 752.735 972.688 753.859 972.109L757.231 970.372L743.021 942.775L752.586 937.848Z" fill="#5988FF"/>
<path d="M714.181 957.061L729.099 993.78L713.252 1000.22C710.527 1001.33 707.925 1001.76 705.444 1001.51C702.963 1001.27 700.76 1000.4 698.833 998.916C696.906 997.429 695.413 995.382 694.354 992.777C693.286 990.147 692.947 987.632 693.336 985.232C693.713 982.836 694.742 980.691 696.423 978.796C698.092 976.906 700.325 975.393 703.121 974.257L712.586 970.41L715.733 978.155L708.276 981.186C707.105 981.662 706.189 982.271 705.53 983.012C704.863 983.771 704.464 984.622 704.333 985.567C704.19 986.517 704.329 987.511 704.752 988.551C705.179 989.603 705.77 990.407 706.526 990.964C707.274 991.537 708.146 991.851 709.143 991.905C710.133 991.977 711.213 991.774 712.384 991.298L715.898 989.87L704.214 961.112L714.181 957.061Z" fill="#5988FF"/>
<path d="M674.148 972.695L685.934 1010.54L675.663 1013.74L666.455 984.173L651.158 988.939L648.58 980.661L674.148 972.695Z" fill="#5988FF"/>
<path d="M638.177 983.477L646.856 1022.15L618.989 1028.41L617.091 1019.95L634.46 1016.05L632.969 1009.4L617.034 1012.98L615.135 1004.52L631.07 1000.94L629.578 994.294L612.284 998.176L610.386 989.716L638.177 983.477Z" fill="#5988FF"/>
<path d="M584.961 1034.25L571.617 1035.35L560.594 1013.73L560.131 1013.77L552.795 1036.9L539.45 1038L536.196 998.499L546.686 997.634L548.568 1020.47L548.876 1020.45L555.814 997.193L562.139 996.671L572.802 1018.63L573.11 1018.6L571.216 995.613L581.707 994.748L584.961 1034.25Z" fill="#5988FF"/>
<path d="M513.782 998.337L525.387 998.683L511.133 1037.91L496.433 1037.47L484.538 997.466L496.143 997.812L503.953 1026.78L504.263 1026.79L513.782 998.337ZM515.483 1014.03L493.666 1013.38L493.906 1005.33L515.723 1005.98L515.483 1014.03Z" fill="#5988FF"/>
<path d="M474.42 996.459L469.426 1035.78L452.458 1033.62C449.54 1033.25 447.06 1032.35 445.018 1030.92C442.976 1029.49 441.48 1027.66 440.529 1025.41C439.578 1023.17 439.28 1020.66 439.634 1017.87C439.992 1015.05 440.929 1012.69 442.445 1010.79C443.948 1008.89 445.896 1007.52 448.29 1006.7C450.671 1005.87 453.358 1005.64 456.353 1006.02L466.488 1007.31L465.435 1015.61L457.449 1014.59C456.195 1014.43 455.099 1014.51 454.161 1014.84C453.208 1015.17 452.443 1015.72 451.865 1016.48C451.275 1017.23 450.909 1018.17 450.768 1019.28C450.625 1020.41 450.746 1021.4 451.131 1022.26C451.503 1023.12 452.109 1023.82 452.951 1024.36C453.779 1024.91 454.82 1025.26 456.074 1025.42L459.836 1025.9L463.748 995.103L474.42 996.459Z" fill="#5988FF"/>
<path d="M405.185 1012.58C405.009 1013.87 405.266 1014.95 405.955 1015.84C406.632 1016.73 407.821 1017.36 409.522 1017.74C410.606 1017.97 411.523 1018.04 412.274 1017.92C413.01 1017.82 413.59 1017.59 414.014 1017.22C414.439 1016.85 414.719 1016.38 414.856 1015.82C414.984 1015.35 414.994 1014.91 414.888 1014.5C414.767 1014.09 414.525 1013.68 414.163 1013.29C413.798 1012.9 413.308 1012.52 412.693 1012.13C412.077 1011.75 411.331 1011.36 410.452 1010.97L407.426 1009.59C405.384 1008.67 403.682 1007.66 402.32 1006.59C400.959 1005.51 399.903 1004.36 399.154 1003.14C398.402 1001.93 397.936 1000.65 397.756 999.304C397.564 997.955 397.623 996.541 397.934 995.064C398.505 992.521 399.614 990.505 401.261 989.018C402.908 987.53 405.004 986.583 407.549 986.177C410.082 985.768 412.986 985.924 416.262 986.642C419.627 987.38 422.453 988.522 424.743 990.068C427.019 991.611 428.624 993.568 429.556 995.939C430.474 998.319 430.584 1001.13 429.886 1004.37L419.906 1002.18C420.103 1000.98 420.025 999.924 419.673 999.001C419.321 998.078 418.711 997.304 417.845 996.678C416.966 996.049 415.859 995.589 414.523 995.295C413.402 995.049 412.433 994.982 411.616 995.094C410.799 995.205 410.141 995.463 409.643 995.869C409.145 996.275 408.82 996.792 408.669 997.419C408.552 998.014 408.634 998.574 408.915 999.098C409.181 999.631 409.697 1000.17 410.464 1000.71C411.228 1001.26 412.294 1001.85 413.661 1002.48L417.334 1004.15C420.599 1005.65 423.029 1007.48 424.626 1009.66C426.207 1011.84 426.66 1014.44 425.984 1017.46C425.458 1019.92 424.331 1021.93 422.605 1023.48C420.863 1025.04 418.701 1026.08 416.118 1026.59C413.522 1027.11 410.693 1027.03 407.632 1026.36C404.507 1025.67 401.919 1024.55 399.867 1023.01C397.816 1021.46 396.382 1019.6 395.564 1017.43C394.732 1015.26 394.587 1012.91 395.13 1010.38L405.185 1012.58Z" fill="#5988FF"/>
<path d="M326.899 987.672C326.518 988.909 326.596 990.023 327.133 991.014C327.657 992 328.728 992.815 330.347 993.458C331.378 993.868 332.273 994.078 333.032 994.088C333.775 994.106 334.385 993.966 334.864 993.671C335.342 993.375 335.695 992.96 335.921 992.425C336.121 991.991 336.203 991.558 336.166 991.127C336.112 990.703 335.939 990.266 335.646 989.816C335.348 989.379 334.926 988.92 334.382 988.439C333.837 987.959 333.163 987.455 332.359 986.927L329.595 985.079C327.729 983.837 326.211 982.574 325.042 981.29C323.872 980.006 323.017 978.701 322.475 977.375C321.928 976.061 321.675 974.725 321.715 973.366C321.743 972.003 322.03 970.617 322.575 969.21C323.55 966.793 324.97 964.983 326.836 963.781C328.701 962.579 330.923 961.983 333.501 961.995C336.066 962.001 338.907 962.624 342.024 963.863C345.225 965.135 347.83 966.719 349.839 968.614C351.836 970.505 353.103 972.696 353.641 975.186C354.161 977.684 353.815 980.476 352.603 983.562L343.108 979.788C343.496 978.637 343.591 977.578 343.392 976.61C343.194 975.643 342.718 974.78 341.964 974.022C341.198 973.26 340.18 972.626 338.909 972.121C337.842 971.697 336.897 971.474 336.073 971.451C335.248 971.429 334.558 971.578 334 971.898C333.443 972.218 333.039 972.675 332.789 973.27C332.577 973.838 332.567 974.404 332.76 974.966C332.936 975.536 333.359 976.148 334.029 976.803C334.694 977.47 335.65 978.225 336.898 979.068L340.252 981.318C343.231 983.321 345.333 985.525 346.558 987.927C347.766 990.337 347.792 992.979 346.636 995.851C345.719 998.194 344.283 999.991 342.329 1001.24C340.358 1002.5 338.056 1003.17 335.424 1003.26C332.779 1003.35 330.001 1002.82 327.088 1001.66C324.115 1000.48 321.741 998.957 319.967 997.1C318.192 995.242 317.078 993.174 316.622 990.897C316.15 988.627 316.387 986.284 317.333 983.869L326.899 987.672Z" fill="#5988FF"/>
<path d="M278.221 978.648L268.633 973.768L280.146 951.138C281.515 948.448 283.343 946.447 285.631 945.136C287.902 943.83 290.453 943.225 293.285 943.32C296.111 943.427 299.036 944.249 302.06 945.788C305.107 947.339 307.505 949.225 309.255 951.447C310.998 953.681 312.011 956.1 312.293 958.705C312.557 961.315 312.005 963.965 310.636 966.656L299.123 989.286L289.534 984.406L300.626 962.604C301.182 961.511 301.438 960.411 301.394 959.303C301.344 958.206 301.016 957.2 300.411 956.284C299.795 955.362 298.94 954.623 297.848 954.067C296.744 953.506 295.644 953.25 294.548 953.3C293.451 953.35 292.445 953.677 291.529 954.283C290.608 954.899 289.869 955.754 289.313 956.846L278.221 978.648Z" fill="#5988FF"/>
<path d="M276.682 932.739L255.528 966.255L241.064 957.122C238.577 955.552 236.71 953.687 235.465 951.528C234.219 949.368 233.639 947.072 233.726 944.639C233.812 942.207 234.605 939.801 236.106 937.423C237.621 935.023 239.468 933.282 241.645 932.2C243.812 931.112 246.155 930.699 248.674 930.962C251.182 931.218 253.712 932.152 256.265 933.763L264.904 939.218L260.442 946.288L253.635 941.99C252.566 941.315 251.538 940.926 250.551 940.821C249.547 940.721 248.622 940.893 247.778 941.336C246.923 941.773 246.196 942.465 245.597 943.415C244.991 944.375 244.681 945.324 244.669 946.262C244.639 947.204 244.892 948.096 245.428 948.938C245.947 949.785 246.741 950.545 247.81 951.22L251.017 953.245L267.584 926.995L276.682 932.739Z" fill="#5988FF"/>
<path d="M240.642 909.389L216.575 940.877L202.986 930.487C200.649 928.701 198.957 926.677 197.91 924.414C196.862 922.152 196.49 919.813 196.793 917.398C197.097 914.983 198.102 912.658 199.81 910.423C201.534 908.168 203.528 906.599 205.794 905.717C208.049 904.827 210.42 904.625 212.905 905.113C215.38 905.592 217.817 906.749 220.215 908.582L228.332 914.788L223.255 921.43L216.86 916.541C215.856 915.773 214.867 915.293 213.893 915.101C212.902 914.911 211.966 914.999 211.085 915.365C210.194 915.723 209.408 916.348 208.726 917.24C208.037 918.142 207.644 919.06 207.548 919.993C207.434 920.929 207.606 921.84 208.065 922.727C208.505 923.616 209.228 924.444 210.232 925.212L213.245 927.516L232.095 902.854L240.642 909.389Z" fill="#5988FF"/>
<path d="M206.86 882.818L180.237 912.177L172.268 904.948L193.067 882.012L181.199 871.246L187.023 864.824L206.86 882.818Z" fill="#5988FF"/>
<path d="M179.317 857.288L150.402 884.39L130.872 863.547L137.198 857.618L149.37 870.61L154.34 865.952L143.173 854.033L149.498 848.105L160.666 860.023L165.636 855.365L153.516 842.43L159.841 836.501L179.317 857.288Z" fill="#5988FF"/>
<path d="M108.572 837.184L100.854 826.241L113.885 805.772L113.618 805.393L89.9672 810.806L82.2485 799.863L114.63 777.015L120.698 785.618L101.977 798.827L102.156 799.08L125.71 793.261L129.368 798.448L115.861 818.779L116.039 819.032L134.886 805.734L140.954 814.336L108.572 837.184Z" fill="#5988FF"/>
<path d="M103.396 757.617L108.986 767.794L67.9563 775.413L60.875 762.522L89.308 731.971L94.8984 742.148L73.9058 763.576L74.0549 763.847L103.396 757.617ZM90.7368 767.046L80.2267 747.913L87.2816 744.037L97.7917 763.169L90.7368 767.046Z" fill="#5988FF"/>
<path d="M85.0437 722.74L48.6338 738.386L41.8812 722.668C40.7202 719.965 40.2376 717.371 40.4335 714.885C40.6294 712.4 41.4514 710.179 42.8995 708.223C44.3476 706.266 46.3636 704.733 48.9474 703.623C51.5548 702.502 54.0622 702.113 56.4695 702.454C58.8716 702.784 61.0364 703.771 62.9638 705.414C64.8861 707.045 66.4431 709.248 67.6347 712.022L71.6679 721.41L63.9877 724.711L60.81 717.314C60.311 716.152 59.6843 715.249 58.9299 714.604C58.1586 713.952 57.2995 713.57 56.3525 713.458C55.4005 713.333 54.4089 713.493 53.3778 713.936C52.3348 714.384 51.5426 714.991 51.0013 715.757C50.443 716.517 50.1466 717.396 50.1119 718.393C50.0603 719.384 50.284 720.461 50.7831 721.623L52.2803 725.108L80.7966 712.853L85.0437 722.74Z" fill="#5988FF"/>
<path d="M36.0198 671.251C34.8259 671.75 34.0201 672.523 33.6023 673.569C33.1804 674.603 33.2403 675.948 33.7819 677.603C34.1269 678.658 34.5384 679.48 35.0166 680.07C35.4784 680.652 35.976 681.032 36.5094 681.211C37.0428 681.389 37.5874 681.394 38.1431 681.226C38.6048 681.102 38.9894 680.888 39.297 680.584C39.5884 680.271 39.813 679.858 39.9709 679.345C40.1165 678.836 40.1994 678.218 40.2197 677.492C40.2401 676.766 40.1958 675.925 40.0868 674.97L39.7379 671.663C39.4973 669.434 39.496 667.459 39.734 665.739C39.9719 664.018 40.4268 662.525 41.0988 661.26C41.7584 659.999 42.6229 658.949 43.6923 658.111C44.7576 657.26 46.0055 656.593 47.4359 656.112C49.9165 655.313 52.2156 655.247 54.3332 655.911C56.4508 656.576 58.3302 657.902 59.9713 659.89C61.6085 661.865 62.9486 664.447 63.9916 667.635C65.0627 670.909 65.5131 673.925 65.3429 676.682C65.1686 679.427 64.2968 681.803 62.7274 683.81C61.1417 685.808 58.7754 687.329 55.6286 688.373L52.4514 678.661C53.5838 678.223 54.4581 677.618 55.0742 676.846C55.6904 676.074 56.0483 675.156 56.148 674.092C56.2437 673.015 56.0789 671.827 55.6537 670.527C55.2967 669.436 54.863 668.566 54.3525 667.919C53.8421 667.271 53.2856 666.836 52.6831 666.612C52.0806 666.388 51.4709 666.371 50.8538 666.559C50.2816 666.76 49.8411 667.114 49.5324 667.623C49.2073 668.123 49.0076 668.84 48.9331 669.774C48.8463 670.712 48.8783 671.93 49.0291 673.428L49.4475 677.445C49.8153 681.017 49.4682 684.043 48.4061 686.521C47.3277 688.992 45.3153 690.703 42.3688 691.653C39.9821 692.448 37.6831 692.494 35.4719 691.793C33.2444 691.083 31.2529 689.746 29.4974 687.782C27.7379 685.805 26.3707 683.327 25.3959 680.348C24.401 677.307 24.0493 674.51 24.3408 671.957C24.6323 669.405 25.5071 667.225 26.9653 665.417C28.4072 663.601 30.3583 662.284 32.8186 661.465L36.0198 671.251Z" fill="#5988FF"/>
<path d="M17.7613 591.138C16.5024 591.437 15.5822 592.07 15.0008 593.035C14.4174 593.987 14.2592 595.324 14.526 597.045C14.696 598.141 14.9693 599.019 15.3457 599.679C15.7074 600.328 16.137 600.784 16.6346 601.046C17.1321 601.308 17.6687 601.401 18.2443 601.325C18.7199 601.277 19.1341 601.128 19.4869 600.878C19.825 600.616 20.1133 600.245 20.3521 599.764C20.5781 599.285 20.7598 598.689 20.8972 597.976C21.0346 597.263 21.1268 596.426 21.1737 595.465L21.3639 592.146C21.4867 589.907 21.8046 587.958 22.3175 586.299C22.8304 584.639 23.5207 583.24 24.3882 582.1C25.2431 580.962 26.2659 580.066 27.4567 579.411C28.6456 578.743 29.9848 578.288 31.4743 578.044C34.0512 577.657 36.3309 577.963 38.3132 578.961C40.2955 579.959 41.9358 581.572 43.2341 583.799C44.5304 586.013 45.4355 588.778 45.9495 592.093C46.4773 595.497 46.4344 598.545 45.8207 601.239C45.2051 603.919 43.9607 606.123 42.0876 607.85C40.1997 609.566 37.6187 610.684 34.3446 611.205L32.7789 601.107C33.9673 600.858 34.9279 600.402 35.6607 599.74C36.3935 599.078 36.8952 598.23 37.1656 597.196C37.434 596.149 37.4635 594.949 37.2539 593.598C37.078 592.463 36.7905 591.535 36.3914 590.814C35.9924 590.092 35.5136 589.572 34.9552 589.254C34.3968 588.936 33.7979 588.82 33.1585 588.906C32.5614 589.012 32.0694 589.291 31.6825 589.742C31.2809 590.183 30.9679 590.858 30.7434 591.768C30.5062 592.68 30.3409 593.887 30.2476 595.39L30.0112 599.422C29.7968 603.006 28.9652 605.936 27.5164 608.21C26.0529 610.474 23.7904 611.837 20.729 612.299C18.2453 612.697 15.969 612.371 13.9003 611.321C11.8169 610.26 10.0677 608.619 8.65272 606.397C7.23577 604.162 6.28712 601.495 5.80674 598.397C5.31649 595.235 5.42148 592.418 6.12171 589.947C6.82194 587.475 8.03763 585.465 9.76877 583.917C11.4852 582.358 13.6235 581.374 16.1838 580.964L17.7613 591.138Z" fill="#5988FF"/>
<path d="M0.837242 544.607L0.176374 533.867L25.5154 532.308C28.5282 532.122 31.1799 532.683 33.4704 533.99C35.7472 535.284 37.5631 537.176 38.9182 539.665C40.2605 542.155 41.0358 545.093 41.2442 548.48C41.4542 551.893 41.0457 554.917 40.0189 557.552C38.9792 560.189 37.4088 562.289 35.308 563.853C33.1934 565.405 30.6297 566.274 27.6168 566.459L2.27784 568.019L1.61697 557.279L26.0289 555.776C27.2521 555.701 28.3299 555.363 29.2623 554.763C30.1818 554.163 30.8826 553.371 31.3647 552.384C31.8461 551.385 32.0491 550.274 31.9738 549.051C31.8977 547.814 31.56 546.736 30.9606 545.817C30.3612 544.897 29.5685 544.196 28.5824 543.714C27.5834 543.232 26.4724 543.029 25.2492 543.105L0.837242 544.607Z" fill="#5988FF"/>
<path d="M39.6095 519.985L0 518.76L0.52879 501.66C0.619713 498.72 1.27949 496.165 2.50811 493.996C3.73674 491.827 5.42083 490.162 7.56039 489.002C9.69995 487.842 12.1751 487.305 14.986 487.392C17.8226 487.48 20.2593 488.188 22.2961 489.516C24.3333 490.831 25.8777 492.641 26.9293 494.945C27.9812 497.236 28.4605 499.891 28.3672 502.909L28.0514 513.122L19.6963 512.864L19.9451 504.817C19.9842 503.553 19.7983 502.469 19.3874 501.566C18.9641 500.649 18.3472 499.94 17.5367 499.437C16.7267 498.921 15.7608 498.646 14.639 498.612C13.5044 498.576 12.5298 498.792 11.7152 499.257C10.8882 499.709 10.2479 500.38 9.79451 501.269C9.32861 502.145 9.07612 503.215 9.03704 504.479L8.91979 508.271L39.942 509.23L39.6095 519.985Z" fill="#5988FF"/>
<path d="M41.4418 477.076L2.10075 472.312L4.15703 455.328C4.51059 452.407 5.39625 449.922 6.81399 447.871C8.23174 445.82 10.058 444.313 12.2927 443.349C14.5275 442.385 17.0407 442.072 19.8325 442.41C22.6499 442.752 25.0135 443.675 26.9234 445.18C28.8348 446.672 30.2111 448.612 31.0523 451.002C31.8951 453.378 32.135 456.065 31.7722 459.062L30.544 469.206L22.2455 468.201L23.2131 460.209C23.3651 458.954 23.2769 457.858 22.9485 456.921C22.6088 455.97 22.0579 455.208 21.2956 454.635C20.535 454.049 19.5975 453.689 18.4834 453.554C17.3564 453.417 16.3665 453.544 15.5136 453.935C14.6494 454.311 13.9517 454.922 13.4206 455.767C12.8782 456.598 12.531 457.641 12.379 458.897L11.9231 462.662L42.7351 466.394L41.4418 477.076Z" fill="#5988FF"/>
<path d="M47.1923 434.48L8.38961 426.431L10.5743 415.895L40.8889 422.183L44.1424 406.492L52.6305 408.253L47.1923 434.48Z" fill="#5988FF"/>
<path d="M55.2148 397.787L17.1925 386.618L25.2411 359.21L33.5584 361.654L28.5417 378.737L35.0768 380.657L39.6791 364.985L47.9965 367.428L43.3942 383.1L49.9293 385.02L54.9242 368.011L63.2415 370.454L55.2148 397.787Z" fill="#5988FF"/>
<path d="M36.6379 326.616L42.1498 314.411L66.3971 315.256L66.5882 314.833L49.9238 297.197L55.4358 284.992L91.5509 301.307L87.2178 310.902L66.3388 301.469L66.2113 301.752L83.1761 319.099L80.5635 324.884L56.1934 323.558L56.0659 323.84L77.0861 333.336L72.753 342.931L36.6379 326.616Z" fill="#5988FF"/>
<path d="M102.566 281.782L96.6341 291.764L69.251 260.268L76.7643 247.624L117.513 256.627L111.582 266.609L82.4682 259.389L82.31 259.655L102.566 281.782ZM88.0183 275.656L99.1696 256.89L106.089 261.003L94.938 279.769L88.0183 275.656Z" fill="#5988FF"/>
<path d="M123.303 248.268L91.3479 224.827L101.464 211.031C103.204 208.659 105.194 206.927 107.435 205.835C109.676 204.743 112.006 204.324 114.426 204.58C116.847 204.835 119.191 205.794 121.458 207.458C123.747 209.137 125.354 211.1 126.281 213.348C127.216 215.586 127.465 217.952 127.027 220.447C126.597 222.932 125.489 225.391 123.704 227.825L117.661 236.065L110.921 231.121L115.682 224.629C116.429 223.609 116.889 222.611 117.062 221.633C117.232 220.638 117.125 219.704 116.742 218.83C116.366 217.947 115.726 217.173 114.821 216.509C113.905 215.838 112.98 215.463 112.045 215.385C111.108 215.29 110.2 215.48 109.323 215.956C108.443 216.415 107.629 217.154 106.881 218.173L104.638 221.232L129.666 239.591L123.303 248.268Z" fill="#5988FF"/>
<path d="M142.789 179.891C141.753 179.115 140.679 178.813 139.565 178.984C138.46 179.145 137.332 179.879 136.181 181.185C135.447 182.018 134.948 182.79 134.682 183.501C134.415 184.194 134.34 184.816 134.457 185.366C134.574 185.917 134.845 186.389 135.272 186.782C135.613 187.117 135.993 187.34 136.411 187.451C136.829 187.543 137.298 187.527 137.82 187.403C138.333 187.27 138.907 187.028 139.543 186.677C140.179 186.326 140.881 185.862 141.649 185.283L144.321 183.304C146.119 181.966 147.82 180.963 149.423 180.295C151.026 179.627 152.543 179.262 153.974 179.199C155.395 179.128 156.738 179.34 158.004 179.836C159.277 180.322 160.484 181.06 161.625 182.048C163.572 183.781 164.796 185.729 165.298 187.891C165.8 190.053 165.611 192.346 164.731 194.769C163.859 197.182 162.315 199.647 160.097 202.164C157.82 204.748 155.45 206.667 152.988 207.919C150.535 209.161 148.046 209.616 145.52 209.281C142.994 208.929 140.483 207.661 137.987 205.478L144.742 197.812C145.695 198.566 146.659 199.012 147.637 199.152C148.615 199.291 149.587 199.134 150.555 198.68C151.531 198.216 152.471 197.471 153.375 196.445C154.134 195.584 154.663 194.769 154.962 194C155.261 193.232 155.354 192.531 155.241 191.898C155.128 191.266 154.834 190.731 154.358 190.295C153.895 189.904 153.366 189.704 152.771 189.696C152.176 189.669 151.457 189.861 150.614 190.271C149.762 190.672 148.729 191.317 147.515 192.208L144.266 194.606C141.375 196.736 138.592 197.972 135.917 198.314C133.242 198.638 130.747 197.772 128.433 195.715C126.537 194.061 125.33 192.103 124.813 189.842C124.295 187.562 124.436 185.167 125.237 182.657C126.047 180.138 127.489 177.702 129.561 175.35C131.677 172.95 133.908 171.228 136.255 170.184C138.602 169.14 140.924 168.788 143.221 169.127C145.517 169.449 147.642 170.462 149.596 172.167L142.789 179.891Z" fill="#5988FF"/>
<path d="M202.546 123.506C201.649 122.573 200.638 122.101 199.511 122.09C198.395 122.07 197.163 122.612 195.815 123.715C194.957 124.418 194.339 125.099 193.962 125.758C193.586 126.399 193.412 127.001 193.438 127.563C193.465 128.124 193.657 128.634 194.014 129.092C194.297 129.477 194.635 129.759 195.03 129.936C195.427 130.094 195.893 130.154 196.429 130.116C196.956 130.068 197.562 129.922 198.246 129.679C198.93 129.435 199.698 129.09 200.549 128.643L203.506 127.123C205.497 126.093 207.337 125.378 209.027 124.978C210.717 124.578 212.273 124.463 213.696 124.632C215.11 124.791 216.401 125.218 217.569 125.912C218.748 126.598 219.82 127.521 220.786 128.681C222.426 130.706 223.32 132.826 223.466 135.041C223.611 137.255 223.054 139.487 221.794 141.736C220.544 143.977 218.621 146.16 216.026 148.285C213.361 150.467 210.713 151.977 208.081 152.815C205.459 153.644 202.929 153.69 200.491 152.952C198.054 152.195 195.781 150.538 193.671 147.981L201.577 141.508C202.395 142.405 203.275 143.002 204.217 143.298C205.159 143.593 206.144 143.595 207.173 143.304C208.211 143.004 209.259 142.421 210.317 141.554C211.206 140.827 211.859 140.108 212.278 139.398C212.698 138.688 212.902 138.012 212.893 137.369C212.884 136.727 212.68 136.152 212.281 135.644C211.887 135.183 211.398 134.901 210.812 134.796C210.229 134.674 209.488 134.747 208.59 135.015C207.685 135.273 206.561 135.743 205.218 136.425L201.625 138.267C198.428 139.901 195.482 140.671 192.787 140.576C190.094 140.464 187.772 139.205 185.821 136.801C184.217 134.862 183.343 132.735 183.198 130.42C183.055 128.086 183.582 125.745 184.778 123.398C185.985 121.043 187.801 118.873 190.226 116.887C192.702 114.86 195.182 113.521 197.667 112.87C200.152 112.22 202.5 112.247 204.712 112.954C206.926 113.642 208.859 114.986 210.512 116.984L202.546 123.506Z" fill="#5988FF"/>
<path d="M234.05 85.3102L242.968 79.2912L257.169 100.338C258.857 102.841 259.719 105.411 259.756 108.048C259.796 110.667 259.087 113.192 257.63 115.623C256.166 118.043 254.028 120.202 251.216 122.1C248.382 124.013 245.57 125.195 242.778 125.647C239.979 126.089 237.373 125.801 234.959 124.784C232.549 123.749 230.499 121.981 228.811 119.478L214.61 98.4308L223.528 92.4118L237.209 112.689C237.895 113.705 238.733 114.462 239.723 114.961C240.706 115.45 241.745 115.651 242.839 115.567C243.944 115.474 245.005 115.086 246.02 114.4C247.047 113.707 247.804 112.869 248.293 111.886C248.781 110.903 248.982 109.864 248.898 108.769C248.805 107.664 248.417 106.603 247.731 105.587L234.05 85.3102Z" fill="#5988FF"/>
<path d="M274.935 106.234L255.893 71.4743L270.894 63.2536C273.473 61.84 276.009 61.1124 278.502 61.0706C280.994 61.0288 283.283 61.6356 285.368 62.8909C287.453 64.1463 289.171 66.0073 290.523 68.4739C291.886 70.9632 292.513 73.4225 292.402 75.8518C292.303 78.2748 291.527 80.5241 290.075 82.5997C288.635 84.669 286.591 86.429 283.944 87.8797L274.984 92.7898L270.967 85.4578L278.026 81.5892C279.135 80.9816 279.974 80.2716 280.544 79.4591C281.119 78.6291 281.418 77.7374 281.439 76.7838C281.473 75.8241 281.22 74.852 280.68 73.8676C280.135 72.8719 279.455 72.1411 278.641 71.6752C277.832 71.1917 276.929 70.9803 275.932 71.0409C274.941 71.0839 273.891 71.4092 272.782 72.0168L269.456 73.8395L284.37 101.063L274.935 106.234Z" fill="#5988FF"/>
<path d="M312.835 86.0405L296.978 49.7166L312.654 42.8711C315.35 41.6941 317.941 41.1963 320.427 41.3776C322.913 41.559 325.138 42.3682 327.103 43.8051C329.067 45.242 330.612 47.2493 331.737 49.827C332.873 52.4283 333.277 54.9337 332.949 57.3434C332.633 59.7478 331.66 61.9187 330.028 63.856C328.408 65.7881 326.215 67.3582 323.449 68.5662L314.086 72.6549L310.741 64.9928L318.118 61.7715C319.276 61.2655 320.176 60.6335 320.816 59.8752C321.463 59.1 321.84 58.2385 321.947 57.2908C322.066 56.3378 321.901 55.347 321.452 54.3183C320.998 53.2778 320.386 52.4891 319.617 51.9521C318.854 51.3982 317.974 51.1069 316.976 51.078C315.985 51.0322 314.91 51.2623 313.751 51.7682L310.275 53.286L322.694 81.7349L312.835 86.0405Z" fill="#5988FF"/>
<path d="M352.453 69.3826L339.699 31.8564L349.885 28.3933L359.849 57.7107L375.018 52.5534L377.808 60.7623L352.453 69.3826Z" fill="#5988FF"/>
<path d="M388.135 57.6791L378.466 19.242L406.163 12.2722L408.278 20.6804L391.014 25.0247L392.676 31.631L408.514 27.6456L410.629 36.0537L394.791 40.0392L396.453 46.6455L413.642 42.3201L415.757 50.7283L388.135 57.6791Z" fill="#5988FF"/>
<path d="M440.03 5.5562L453.342 4.11388L464.916 25.4407L465.378 25.3907L472.117 2.07963L485.43 0.637319L489.697 40.0418L479.232 41.1757L476.765 18.3949L476.457 18.4283L470.119 41.8516L463.809 42.5352L452.586 20.8589L452.278 20.8922L454.763 43.8269L444.297 44.9607L440.03 5.5562Z" fill="#5988FF"/>
<path d="M512.107 39.6287L500.497 39.5814L513.739 0L528.445 0.059944L541.364 39.748L529.754 39.7007L521.202 10.9456L520.893 10.9444L512.107 39.6287ZM510.004 23.9828L531.83 24.0717L531.797 32.1225L509.971 32.0336L510.004 23.9828Z" fill="#5988FF"/>
<path d="M551.504 40.495L555.487 1.06059L572.505 2.77979C575.432 3.07539 577.934 3.9117 580.012 5.28872C582.09 6.66573 583.633 8.46201 584.641 10.6776C585.649 12.8931 586.012 15.4001 585.729 18.1985C585.444 21.0226 584.568 23.4045 583.101 25.3441C581.648 27.2851 579.735 28.6998 577.363 29.5884C575.005 30.4783 572.324 30.7716 569.32 30.4682L559.155 29.4414L559.995 21.1232L568.004 21.9322C569.262 22.0593 570.356 21.9493 571.285 21.6023C572.229 21.2438 572.98 20.6777 573.538 19.9041C574.108 19.1319 574.45 18.1873 574.563 17.0705C574.677 15.9409 574.53 14.9535 574.123 14.1084C573.73 13.2517 573.105 12.5662 572.25 12.0518C571.408 11.5259 570.359 11.1994 569.101 11.0723L565.327 10.6912L562.208 41.5763L551.504 40.495Z" fill="#5988FF"/>
<path d="M620.303 22.5958C620.446 21.3093 620.161 20.2296 619.449 19.3567C618.75 18.4862 617.545 17.8862 615.835 17.5569C614.745 17.3471 613.827 17.3081 613.079 17.4399C612.346 17.5616 611.772 17.8124 611.358 18.1924C610.943 18.5724 610.674 19.0462 610.552 19.6139C610.436 20.0778 610.437 20.518 610.554 20.9347C610.686 21.3412 610.938 21.7379 611.31 22.1249C611.684 22.4993 612.184 22.8714 612.809 23.2415C613.434 23.6115 614.191 23.9806 615.079 24.3487L618.139 25.6477C620.205 26.5185 621.932 27.4753 623.321 28.518C624.71 29.5607 625.794 30.6828 626.574 31.8842C627.357 33.0729 627.856 34.3383 628.07 35.6804C628.297 37.0249 628.275 38.4396 628.002 39.9243C627.496 42.481 626.44 44.5243 624.831 46.054C623.223 47.5837 621.152 48.5841 618.618 49.0552C616.096 49.5287 613.189 49.4482 609.895 48.8139C606.513 48.1625 603.658 47.0936 601.33 45.6072C599.015 44.1232 597.36 42.2082 596.367 39.8621C595.389 37.5057 595.207 34.6983 595.821 31.4399L605.853 33.3722C605.687 34.5753 605.792 35.6335 606.168 36.5468C606.544 37.4601 607.173 38.2185 608.055 38.822C608.95 39.4279 610.069 39.8602 611.412 40.1188C612.539 40.336 613.51 40.3784 614.323 40.246C615.137 40.1137 615.788 39.8383 616.276 39.4198C616.764 39.0014 617.075 38.4766 617.209 37.8456C617.311 37.2477 617.215 36.6905 616.92 36.1738C616.641 35.647 616.111 35.1245 615.331 34.6063C614.553 34.0754 613.472 33.5125 612.089 32.9177L608.374 31.3349C605.072 29.9238 602.595 28.1525 600.943 26.0211C599.306 23.8795 598.787 21.2896 599.385 18.2514C599.848 15.7785 600.923 13.7452 602.609 12.1517C604.31 10.5479 606.445 9.45475 609.014 8.87211C611.595 8.29191 614.425 8.29824 617.503 8.89111C620.645 9.49617 623.261 10.5453 625.351 12.0384C627.441 13.5316 628.923 15.3542 629.796 17.5064C630.684 19.6483 630.889 21.9937 630.412 24.5427L620.303 22.5958Z" fill="#5988FF"/>
<path d="M699.202 45.4891C699.551 44.2426 699.444 43.1311 698.883 42.1545C698.333 41.1823 697.241 40.3955 695.607 39.7939C694.566 39.4107 693.666 39.2237 692.906 39.2329C692.163 39.2345 691.557 39.3892 691.086 39.6972C690.615 40.0051 690.274 40.4293 690.061 40.9697C689.872 41.4088 689.801 41.8434 689.849 42.2735C689.914 42.6959 690.099 43.1282 690.403 43.5702C690.712 44.0002 691.145 44.4483 691.702 44.9145C692.259 45.3808 692.946 45.8673 693.763 46.3742L696.573 48.1509C698.471 49.3443 700.021 50.5678 701.223 51.8213C702.425 53.0748 703.314 54.3575 703.89 55.6692C704.47 56.9689 704.757 58.2983 704.752 59.6574C704.759 61.021 704.508 62.4133 703.999 63.8344C703.087 66.2758 701.713 68.1213 699.879 69.3709C698.045 70.6204 695.839 71.2728 693.262 71.3279C690.697 71.3874 687.841 70.838 684.694 69.6795C681.461 68.4898 678.816 66.9733 676.759 65.13C674.714 63.2912 673.391 61.1339 672.79 58.658C672.206 56.1745 672.48 53.3746 673.613 50.2583L683.201 53.7873C682.842 54.9478 682.775 56.009 682.998 56.9711C683.222 57.9332 683.72 58.7833 684.493 59.5215C685.278 60.2642 686.312 60.8717 687.595 61.344C688.673 61.7406 689.624 61.9393 690.448 61.9403C691.273 61.9413 691.959 61.7747 692.508 61.4406C693.057 61.1065 693.449 60.639 693.684 60.0381C693.882 59.4645 693.877 58.899 693.669 58.3416C693.479 57.7764 693.04 57.1751 692.354 56.5375C691.672 55.8879 690.696 55.1577 689.428 54.347L686.017 52.1844C682.987 50.258 680.829 48.1096 679.543 45.7391C678.274 43.361 678.18 40.7211 679.261 37.8196C680.118 35.4541 681.507 33.6213 683.429 32.3214C685.367 31.0138 687.651 30.2802 690.28 30.1206C692.921 29.9654 695.713 30.4292 698.654 31.5119C701.657 32.617 704.069 34.0753 705.89 35.8867C707.711 37.6982 708.879 39.7365 709.393 42.0015C709.923 44.2588 709.746 46.6066 708.863 49.0448L699.202 45.4891Z" fill="#5988FF"/>
<path d="M748.095 53.2593L757.806 57.8912L746.878 80.8095C745.579 83.5345 743.802 85.5817 741.549 86.9511C739.312 88.3143 736.777 88.9849 733.944 88.9627C731.116 88.9288 728.171 88.1816 725.108 86.7209C722.023 85.2492 719.577 83.425 717.771 81.2484C715.97 79.0602 714.896 76.6679 714.547 74.0717C714.216 71.4694 714.7 68.8057 715.999 66.0807L726.928 43.1624L736.638 47.7943L726.11 69.8741C725.582 70.9805 725.355 72.0869 725.427 73.1936C725.506 74.2886 725.859 75.2862 726.487 76.1863C727.127 77.092 728 77.8086 729.107 78.3362C730.224 78.8694 731.331 79.0969 732.425 79.0188C733.52 78.9406 734.518 78.5873 735.418 77.9588C736.323 77.3187 737.04 76.4454 737.567 75.3391L748.095 53.2593Z" fill="#5988FF"/>
<path d="M750.814 99.1127L771.1 65.0643L785.794 73.8218C788.321 75.3277 790.234 77.144 791.535 79.2709C792.836 81.3978 793.474 83.6782 793.45 86.1123C793.427 88.5463 792.695 90.9714 791.256 93.3876C789.803 95.826 788.002 97.6137 785.853 98.7509C783.715 99.8947 781.383 100.368 778.859 100.169C776.345 99.9779 773.791 99.1094 771.198 97.564L762.422 92.3332L766.701 85.1511L773.616 89.2723C774.702 89.9196 775.739 90.2826 776.728 90.3615C777.735 90.4359 778.655 90.2406 779.488 89.7756C780.331 89.3173 781.04 88.6059 781.615 87.6417C782.196 86.6663 782.481 85.7096 782.469 84.7714C782.475 83.8288 782.199 82.9435 781.641 82.1154C781.101 81.2829 780.288 80.543 779.202 79.8957L775.944 77.954L760.056 104.621L750.814 99.1127Z" fill="#5988FF"/>
<path d="M787.441 121.531L810.691 89.4339L824.543 99.4712C826.925 101.197 828.668 103.177 829.774 105.412C830.879 107.647 831.311 109.975 831.07 112.397C830.828 114.82 829.883 117.17 828.233 119.447C826.568 121.746 824.614 123.365 822.372 124.306C820.14 125.253 817.776 125.516 815.279 125.093C812.792 124.677 810.327 123.583 807.882 121.812L799.609 115.817L804.513 109.047L811.031 113.77C812.055 114.512 813.056 114.966 814.034 115.133C815.03 115.297 815.964 115.185 816.835 114.797C817.716 114.416 818.486 113.771 819.145 112.862C819.811 111.942 820.18 111.015 820.252 110.079C820.342 109.141 820.147 108.235 819.665 107.36C819.202 106.482 818.458 105.673 817.434 104.931L814.363 102.705L796.154 127.844L787.441 121.531Z" fill="#5988FF"/>
<path d="M821.896 147.223L847.756 117.191L855.908 124.212L835.705 147.676L847.845 158.132L842.188 164.702L821.896 147.223Z" fill="#5988FF"/>
<path d="M850.083 172.039L878.294 144.203L898.352 164.537L892.181 170.626L879.678 157.952L874.83 162.736L886.3 174.364L880.129 180.453L868.659 168.825L863.81 173.61L876.258 186.229L870.088 192.318L850.083 172.039Z" fill="#5988FF"/>
<path d="M921.322 190.317L929.319 201.059L916.817 221.855L917.095 222.228L940.598 216.208L948.596 226.95L916.811 250.622L910.525 242.178L928.9 228.492L928.715 228.244L905.318 234.666L901.528 229.575L914.509 208.904L914.324 208.656L895.824 222.433L889.538 213.989L921.322 190.317Z" fill="#5988FF"/>
<path d="M928.54 269.726L922.69 259.696L963.511 251.025L970.921 263.73L943.282 295.001L937.432 284.971L957.867 263.011L957.711 262.744L928.54 269.726ZM940.953 259.974L951.951 278.831L944.998 282.887L934 264.031L940.953 259.974Z" fill="#5988FF"/>
<path d="M947.782 304.12L983.778 287.543L990.932 303.083C992.162 305.755 992.711 308.336 992.579 310.825C992.447 313.315 991.683 315.556 990.285 317.549C988.888 319.542 986.912 321.127 984.358 322.303C981.78 323.49 979.283 323.944 976.868 323.664C974.458 323.396 972.269 322.466 970.3 320.872C968.336 319.291 966.723 317.129 965.461 314.387L961.188 305.105L968.781 301.608L972.147 308.921C972.676 310.07 973.326 310.957 974.096 311.582C974.884 312.213 975.753 312.573 976.702 312.661C977.657 312.761 978.644 312.577 979.664 312.107C980.695 311.632 981.471 311.005 981.993 310.225C982.531 309.452 982.805 308.566 982.814 307.567C982.84 306.575 982.589 305.505 982.06 304.356L980.474 300.911L952.282 313.894L947.782 304.12Z" fill="#5988FF"/>
<path d="M998.112 354.333C999.293 353.803 1000.08 353.01 1000.47 351.953C1000.86 350.909 1000.77 349.566 1000.19 347.925C999.814 346.88 999.382 346.068 998.889 345.491C998.412 344.921 997.905 344.553 997.367 344.389C996.829 344.224 996.285 344.233 995.733 344.416C995.275 344.551 994.896 344.775 994.596 345.087C994.313 345.407 994.099 345.826 993.955 346.343C993.822 346.856 993.755 347.475 993.753 348.202C993.752 348.928 993.818 349.768 993.951 350.72L994.385 354.016C994.683 356.239 994.735 358.213 994.541 359.939C994.347 361.665 993.931 363.169 993.292 364.451C992.665 365.728 991.827 366.8 990.78 367.666C989.737 368.544 988.506 369.242 987.089 369.76C984.629 370.622 982.333 370.748 980.199 370.138C978.065 369.528 976.152 368.251 974.46 366.306C972.773 364.373 971.367 361.826 970.243 358.666C969.088 355.42 968.56 352.417 968.659 349.657C968.763 346.908 969.574 344.511 971.091 342.464C972.625 340.426 974.951 338.844 978.07 337.72L981.496 347.347C980.375 347.815 979.517 348.442 978.92 349.229C978.324 350.017 977.99 350.944 977.918 352.01C977.85 353.089 978.045 354.273 978.503 355.561C978.888 356.643 979.344 357.501 979.871 358.135C980.398 358.769 980.965 359.19 981.574 359.398C982.182 359.606 982.792 359.608 983.404 359.404C983.971 359.189 984.402 358.823 984.697 358.307C985.009 357.799 985.191 357.077 985.241 356.141C985.304 355.201 985.241 353.985 985.051 352.491L984.53 348.486C984.07 344.924 984.34 341.891 985.338 339.386C986.352 336.888 988.32 335.126 991.241 334.1C993.607 333.244 995.904 333.139 998.132 333.784C1000.38 334.436 1002.4 335.722 1004.21 337.64C1006.02 339.57 1007.45 342.012 1008.5 344.966C1009.57 347.981 1010 350.767 1009.77 353.327C1009.54 355.886 1008.72 358.088 1007.31 359.932C1005.92 361.784 1004 363.151 1001.56 364.033L998.112 354.333Z" fill="#5988FF"/>
<path d="M1015 415.834C1016.24 415.457 1017.12 414.769 1017.64 413.77C1018.16 412.783 1018.23 411.439 1017.86 409.738C1017.62 408.654 1017.3 407.794 1016.88 407.159C1016.48 406.534 1016.02 406.106 1015.51 405.875C1015 405.644 1014.45 405.585 1013.88 405.696C1013.41 405.774 1013.01 405.948 1012.67 406.22C1012.35 406.502 1012.09 406.89 1011.88 407.385C1011.68 407.877 1011.54 408.483 1011.44 409.204C1011.35 409.924 1011.31 410.765 1011.32 411.727L1011.34 415.052C1011.36 417.294 1011.16 419.259 1010.75 420.947C1010.34 422.635 1009.74 424.074 1008.95 425.266C1008.16 426.455 1007.2 427.413 1006.05 428.14C1004.9 428.88 1003.6 429.418 1002.12 429.754C999.576 430.3 997.282 430.136 995.242 429.263C993.201 428.39 991.464 426.882 990.03 424.74C988.599 422.61 987.524 419.907 986.805 416.63C986.067 413.266 985.921 410.22 986.367 407.494C986.815 404.78 987.92 402.503 989.682 400.664C991.46 398.834 993.967 397.558 997.202 396.834L999.391 406.816C998.221 407.138 997.29 407.653 996.6 408.359C995.91 409.065 995.462 409.943 995.256 410.992C995.053 412.054 995.098 413.252 995.391 414.588C995.637 415.71 995.981 416.618 996.424 417.314C996.867 418.009 997.378 418.498 997.955 418.781C998.532 419.064 999.137 419.142 999.769 419.017C1000.36 418.874 1000.83 418.566 1001.19 418.091C1001.56 417.626 1001.83 416.932 1002 416.011C1002.18 415.086 1002.27 413.871 1002.27 412.365L1002.26 408.326C1002.25 404.735 1002.9 401.76 1004.2 399.4C1005.52 397.05 1007.7 395.549 1010.72 394.898C1013.18 394.347 1015.47 394.531 1017.6 395.45C1019.75 396.38 1021.59 397.909 1023.14 400.039C1024.7 402.182 1025.81 404.784 1026.48 407.847C1027.17 410.972 1027.24 413.79 1026.69 416.301C1026.14 418.811 1025.06 420.893 1023.42 422.545C1021.81 424.207 1019.73 425.323 1017.2 425.891L1015 415.834Z" fill="#5988FF"/>
<path d="M1034.78 461.226L1036.1 471.904L1010.91 475.033C1007.91 475.405 1005.23 475.01 1002.86 473.848C1000.51 472.697 998.582 470.922 997.075 468.522C995.581 466.12 994.625 463.236 994.207 459.868C993.786 456.475 994.006 453.432 994.867 450.737C995.741 448.042 997.178 445.848 999.178 444.156C1001.19 442.476 1003.7 441.45 1006.69 441.078L1031.89 437.949L1033.21 448.627L1008.94 451.642C1007.72 451.793 1006.67 452.197 1005.78 452.854C1004.9 453.509 1004.25 454.344 1003.83 455.358C1003.41 456.385 1003.27 457.507 1003.42 458.723C1003.58 459.952 1003.98 461.007 1004.64 461.888C1005.29 462.769 1006.13 463.419 1007.14 463.839C1008.17 464.258 1009.29 464.392 1010.5 464.24L1034.78 461.226Z" fill="#5988FF"/>
<path d="M997.607 488.205L1037.22 486.97L1037.75 504.07C1037.84 507.01 1037.34 509.601 1036.25 511.842C1035.16 514.083 1033.58 515.849 1031.52 517.14C1029.45 518.431 1027.02 519.12 1024.2 519.207C1021.37 519.296 1018.89 518.741 1016.78 517.541C1014.66 516.355 1013.01 514.645 1011.82 512.41C1010.62 510.188 1009.98 507.569 1009.89 504.551L1009.57 494.338L1017.92 494.077L1018.17 502.124C1018.21 503.388 1018.47 504.458 1018.93 505.334C1019.41 506.223 1020.07 506.893 1020.91 507.344C1021.75 507.808 1022.73 508.023 1023.86 507.988C1024.99 507.953 1025.95 507.678 1026.73 507.163C1027.53 506.66 1028.13 505.951 1028.53 505.035C1028.94 504.131 1029.12 503.048 1029.08 501.784L1028.96 497.993L997.942 498.96L997.607 488.205Z" fill="#5988FF"/>
<path d="M998.439 531.146L1038 533.46L1037 550.539C1036.83 553.476 1036.1 556.011 1034.81 558.146C1033.52 560.281 1031.8 561.899 1029.62 562.999C1027.45 564.1 1024.96 564.568 1022.16 564.404C1019.32 564.239 1016.91 563.464 1014.91 562.08C1012.91 560.71 1011.41 558.858 1010.43 556.526C1009.44 554.206 1009.03 551.54 1009.21 548.526L1009.8 538.325L1018.15 538.813L1017.68 546.85C1017.61 548.112 1017.76 549.2 1018.15 550.115C1018.55 551.043 1019.14 551.769 1019.94 552.294C1020.73 552.832 1021.69 553.133 1022.81 553.199C1023.95 553.265 1024.93 553.077 1025.75 552.634C1026.59 552.205 1027.25 551.552 1027.73 550.675C1028.22 549.812 1028.5 548.749 1028.57 547.487L1028.8 543.7L997.811 541.888L998.439 531.146Z" fill="#5988FF"/>
<path d="M995.342 574.017L1034.57 579.643L1033.04 590.294L1002.4 585.899L1000.12 601.761L991.541 600.531L995.342 574.017Z" fill="#5988FF"/>
<path d="M989.612 611.137L1028.25 619.925L1021.92 647.779L1013.47 645.857L1017.42 628.495L1010.77 626.984L1007.15 642.912L998.7 640.989L1002.32 625.062L995.68 623.551L991.75 640.838L983.297 638.915L989.612 611.137Z" fill="#5988FF"/>
<path d="M1012.57 681.019L1007.82 693.543L983.57 694.203L983.406 694.638L1001.13 711.206L996.388 723.73L959.33 709.687L963.06 699.841L984.484 707.96L984.594 707.671L966.585 691.409L968.834 685.473L993.24 685.284L993.349 684.995L971.78 676.821L975.51 666.976L1012.57 681.019Z" fill="#5988FF"/>
<path d="M949.549 729.856L954.85 719.525L984.134 749.262L977.42 762.347L936.191 755.89L941.492 745.559L970.997 750.958L971.138 750.683L949.549 729.856ZM964.448 735.068L954.483 754.489L947.321 750.814L957.287 731.392L964.448 735.068Z" fill="#5988FF"/>
<path d="M930.932 764.593L964.279 786.006L955.038 800.402C953.449 802.878 951.57 804.73 949.402 805.959C947.233 807.189 944.933 807.751 942.501 807.646C940.07 807.541 937.671 806.729 935.304 805.21C932.916 803.676 931.19 801.816 930.125 799.63C929.053 797.455 928.659 795.108 928.941 792.591C929.216 790.085 930.169 787.561 931.8 785.021L937.319 776.422L944.354 780.939L940.005 787.713C939.322 788.777 938.925 789.802 938.813 790.789C938.705 791.793 938.869 792.718 939.306 793.566C939.736 794.425 940.423 795.157 941.368 795.764C942.323 796.377 943.269 796.694 944.207 796.713C945.149 796.751 946.043 796.505 946.889 795.975C947.739 795.462 948.505 794.674 949.188 793.61L951.237 790.418L925.12 773.648L930.932 764.593Z" fill="#5988FF"/>
<path d="M915.723 834.048C916.805 834.758 917.897 834.993 918.997 834.753C920.09 834.524 921.17 833.721 922.239 832.346C922.919 831.469 923.37 830.668 923.591 829.941C923.815 829.233 923.851 828.607 923.7 828.065C923.549 827.524 923.249 827.069 922.798 826.703C922.437 826.39 922.044 826.191 921.62 826.106C921.198 826.04 920.73 826.085 920.216 826.242C919.713 826.406 919.155 826.683 918.542 827.073C917.929 827.463 917.257 827.97 916.527 828.595L913.983 830.736C912.271 832.183 910.636 833.29 909.077 834.056C907.519 834.822 906.027 835.281 904.603 835.432C903.189 835.592 901.835 835.463 900.542 835.046C899.24 834.64 897.989 833.979 896.79 833.063C894.739 831.455 893.397 829.587 892.762 827.46C892.127 825.333 892.173 823.033 892.901 820.56C893.621 818.097 895.01 815.541 897.067 812.891C899.18 810.171 901.426 808.109 903.805 806.706C906.177 805.314 908.633 804.706 911.174 804.883C913.718 805.078 916.303 806.188 918.929 808.211L912.662 816.282C911.665 815.589 910.674 815.203 909.69 815.125C908.705 815.046 907.744 815.264 906.807 815.777C905.861 816.3 904.969 817.102 904.131 818.182C903.426 819.089 902.949 819.935 902.698 820.721C902.448 821.506 902.399 822.211 902.551 822.836C902.703 823.46 903.029 823.976 903.531 824.381C904.018 824.743 904.558 824.91 905.152 824.881C905.748 824.87 906.454 824.635 907.269 824.173C908.095 823.72 909.086 823.012 910.243 822.048L913.337 819.452C916.09 817.147 918.791 815.741 921.439 815.233C924.089 814.744 926.633 815.454 929.07 817.363C931.065 818.896 932.391 820.775 933.047 823.001C933.706 825.244 933.714 827.643 933.07 830.197C932.418 832.762 931.13 835.282 929.207 837.759C927.245 840.286 925.125 842.143 922.847 843.331C920.57 844.518 918.274 845.014 915.96 844.817C913.648 844.639 911.465 843.76 909.409 842.179L915.723 834.048Z" fill="#5988FF"/>
</svg>
