<svg width="1532" height="1534" viewBox="0 0 1532 1534" fill="none" xmlns="http://www.w3.org/2000/svg">
<path d="M1518.42 849.67C1519.71 849.699 1520.76 849.321 1521.57 848.536C1522.37 847.764 1522.87 846.512 1523.04 844.782C1523.16 843.679 1523.12 842.761 1522.92 842.029C1522.73 841.31 1522.43 840.761 1522.02 840.381C1521.6 840.002 1521.11 839.776 1520.53 839.704C1520.06 839.629 1519.62 839.669 1519.22 839.821C1518.82 839.988 1518.45 840.274 1518.1 840.678C1517.76 841.084 1517.43 841.614 1517.12 842.268C1516.8 842.922 1516.5 843.708 1516.21 844.624L1515.19 847.783C1514.5 849.915 1513.7 851.718 1512.78 853.191C1511.87 854.665 1510.84 855.842 1509.71 856.724C1508.6 857.607 1507.38 858.214 1506.06 858.545C1504.75 858.889 1503.33 858.99 1501.83 858.848C1499.24 858.569 1497.11 857.696 1495.45 856.23C1493.78 854.763 1492.61 852.789 1491.91 850.308C1491.22 847.84 1491.05 844.94 1491.39 841.607C1491.74 838.184 1492.56 835.249 1493.83 832.802C1495.11 830.367 1496.87 828.553 1499.12 827.359C1501.38 826.179 1504.16 825.753 1507.46 826.079L1506.42 836.232C1505.2 836.172 1504.16 836.369 1503.28 836.824C1502.41 837.278 1501.71 837.97 1501.18 838.901C1500.66 839.844 1500.32 840.996 1500.18 842.355C1500.07 843.496 1500.11 844.465 1500.31 845.264C1500.52 846.062 1500.85 846.685 1501.31 847.134C1501.77 847.583 1502.32 847.847 1502.96 847.926C1503.56 847.975 1504.11 847.83 1504.6 847.492C1505.1 847.167 1505.57 846.594 1506.02 845.772C1506.48 844.951 1506.94 843.827 1507.42 842.398L1508.67 838.562C1509.78 835.153 1511.33 832.533 1513.31 830.702C1515.3 828.886 1517.83 828.142 1520.91 828.471C1523.42 828.716 1525.53 829.607 1527.27 831.146C1529.02 832.699 1530.29 834.728 1531.1 837.233C1531.9 839.752 1532.14 842.568 1531.82 845.684C1531.5 848.863 1530.68 851.558 1529.38 853.769C1528.07 855.98 1526.39 857.614 1524.32 858.672C1522.26 859.743 1519.94 860.153 1517.36 859.9L1518.42 849.67Z" fill="#5988FF"/>
<path d="M1524.06 898.068L1522.31 908.673L1497.26 904.541C1494.28 904.05 1491.82 902.913 1489.88 901.13C1487.95 899.361 1486.6 897.114 1485.83 894.389C1485.08 891.665 1484.98 888.631 1485.53 885.287C1486.09 881.917 1487.16 879.064 1488.75 876.727C1490.35 874.392 1492.35 872.697 1494.75 871.642C1497.16 870.602 1499.85 870.328 1502.83 870.82L1527.88 874.951L1526.13 885.556L1501.99 881.576C1500.78 881.376 1499.66 881.465 1498.62 881.841C1497.59 882.22 1496.72 882.836 1496.03 883.688C1495.34 884.554 1494.9 885.591 1494.7 886.799C1494.5 888.019 1494.58 889.144 1494.96 890.173C1495.34 891.203 1495.96 892.062 1496.81 892.751C1497.68 893.443 1498.72 893.888 1499.93 894.088L1524.06 898.068Z" fill="#5988FF"/>
<path d="M1480.92 913.65L1519.55 922.474L1515.74 939.133C1515.08 941.998 1513.94 944.375 1512.32 946.265C1510.7 948.155 1508.72 949.462 1506.4 950.188C1504.08 950.913 1501.55 950.962 1498.8 950.336C1496.04 949.704 1493.78 948.542 1492.04 946.848C1490.29 945.167 1489.13 943.096 1488.54 940.635C1487.95 938.186 1487.99 935.492 1488.66 932.552L1490.94 922.602L1499.09 924.463L1497.29 932.303C1497.01 933.534 1496.99 934.632 1497.21 935.596C1497.45 936.576 1497.92 937.391 1498.62 938.039C1499.32 938.7 1500.21 939.156 1501.3 939.406C1502.41 939.659 1503.41 939.636 1504.3 939.336C1505.2 939.052 1505.95 938.518 1506.57 937.733C1507.2 936.964 1507.65 935.964 1507.93 934.733L1508.78 931.039L1478.52 924.128L1480.92 913.65Z" fill="#5988FF"/>
<path d="M1470.97 955.607L1509.01 966.703L1504.21 983.107C1503.39 985.928 1502.11 988.233 1500.38 990.024C1498.65 991.814 1496.6 993.002 1494.24 993.589C1491.87 994.176 1489.34 994.075 1486.64 993.288C1483.92 992.493 1481.74 991.199 1480.1 989.405C1478.46 987.624 1477.41 985.487 1476.97 982.995C1476.53 980.516 1476.73 977.829 1477.57 974.934L1480.44 965.136L1488.46 967.477L1486.21 975.196C1485.85 976.409 1485.76 977.503 1485.93 978.48C1486.11 979.472 1486.53 980.313 1487.19 981.002C1487.85 981.703 1488.71 982.211 1489.79 982.525C1490.88 982.843 1491.88 982.878 1492.78 982.632C1493.7 982.402 1494.48 981.914 1495.15 981.167C1495.82 980.436 1496.33 979.464 1496.68 978.252L1497.75 974.615L1467.95 965.925L1470.97 955.607Z" fill="#5988FF"/>
<path d="M1458.48 996.909L1495.85 1010.1L1492.27 1020.23L1463.07 1009.93L1457.73 1025.02L1449.56 1022.14L1458.48 996.909Z" fill="#5988FF"/>
<path d="M1445.65 1032.38L1482.25 1047.55L1471.31 1073.91L1463.3 1070.59L1470.12 1054.16L1463.83 1051.55L1457.57 1066.62L1449.56 1063.3L1455.82 1048.23L1449.53 1045.62L1442.74 1061.98L1434.73 1058.66L1445.65 1032.38Z" fill="#5988FF"/>
<path d="M1457.66 1103.92L1451.42 1115.75L1427.26 1113.44L1427.05 1113.85L1442.61 1132.44L1436.37 1144.28L1401.31 1125.82L1406.22 1116.51L1426.48 1127.19L1426.63 1126.91L1410.75 1108.59L1413.71 1102.98L1437.95 1105.78L1438.1 1105.51L1417.69 1094.76L1422.6 1085.46L1457.66 1103.92Z" fill="#5988FF"/>
<path d="M1389.57 1145.2L1395.73 1135.37L1422.39 1167.45L1414.58 1179.9L1374.05 1169.98L1380.21 1160.15L1409.15 1168.02L1409.32 1167.76L1389.57 1145.2ZM1403.98 1151.65L1392.4 1170.14L1385.57 1165.87L1397.15 1147.39L1403.98 1151.65Z" fill="#5988FF"/>
<path d="M1368.14 1178.52L1400.32 1201.62L1390.34 1215.5C1388.63 1217.89 1386.65 1219.64 1384.42 1220.75C1382.19 1221.86 1379.87 1222.3 1377.44 1222.07C1375.02 1221.84 1372.67 1220.9 1370.38 1219.26C1368.08 1217.61 1366.45 1215.66 1365.5 1213.43C1364.55 1211.2 1364.27 1208.84 1364.69 1206.34C1365.09 1203.86 1366.18 1201.39 1367.94 1198.94L1373.9 1190.65L1380.69 1195.53L1375.99 1202.06C1375.25 1203.08 1374.8 1204.08 1374.64 1205.06C1374.48 1206.06 1374.6 1206.99 1374.99 1207.86C1375.37 1208.74 1376.02 1209.5 1376.93 1210.16C1377.85 1210.82 1378.78 1211.18 1379.72 1211.25C1380.66 1211.34 1381.56 1211.14 1382.44 1210.66C1383.31 1210.19 1384.12 1209.44 1384.86 1208.42L1387.07 1205.34L1361.86 1187.25L1368.14 1178.52Z" fill="#5988FF"/>
<path d="M1350.35 1247.06C1351.42 1247.8 1352.5 1248.06 1353.61 1247.84C1354.71 1247.64 1355.8 1246.86 1356.9 1245.51C1357.6 1244.65 1358.07 1243.86 1358.31 1243.14C1358.55 1242.43 1358.6 1241.81 1358.46 1241.27C1358.32 1240.72 1358.03 1240.26 1357.59 1239.89C1357.23 1239.56 1356.84 1239.36 1356.42 1239.26C1356 1239.19 1355.53 1239.22 1355.02 1239.37C1354.51 1239.52 1353.94 1239.79 1353.32 1240.16C1352.7 1240.54 1352.02 1241.03 1351.28 1241.64L1348.68 1243.72C1346.94 1245.13 1345.28 1246.2 1343.71 1246.93C1342.13 1247.66 1340.63 1248.08 1339.2 1248.2C1337.79 1248.33 1336.43 1248.17 1335.15 1247.73C1333.86 1247.29 1332.62 1246.61 1331.44 1245.66C1329.43 1244.01 1328.13 1242.12 1327.54 1239.98C1326.95 1237.84 1327.05 1235.55 1327.83 1233.09C1328.6 1230.65 1330.05 1228.13 1332.16 1225.53C1334.34 1222.86 1336.63 1220.85 1339.04 1219.5C1341.44 1218.16 1343.91 1217.61 1346.45 1217.84C1348.98 1218.09 1351.54 1219.25 1354.13 1221.33L1347.68 1229.26C1346.7 1228.54 1345.72 1228.13 1344.74 1228.03C1343.75 1227.93 1342.79 1228.13 1341.84 1228.62C1340.88 1229.12 1339.97 1229.91 1339.11 1230.97C1338.39 1231.86 1337.89 1232.69 1337.62 1233.47C1337.35 1234.25 1337.29 1234.95 1337.43 1235.58C1337.57 1236.2 1337.88 1236.73 1338.37 1237.14C1338.85 1237.51 1339.39 1237.69 1339.98 1237.68C1340.58 1237.68 1341.29 1237.46 1342.12 1237.02C1342.95 1236.58 1343.96 1235.9 1345.14 1234.96L1348.29 1232.44C1351.09 1230.19 1353.82 1228.85 1356.48 1228.4C1359.14 1227.97 1361.67 1228.74 1364.06 1230.7C1366.02 1232.27 1367.31 1234.18 1367.92 1236.41C1368.53 1238.67 1368.48 1241.06 1367.78 1243.6C1367.07 1246.15 1365.73 1248.64 1363.75 1251.07C1361.73 1253.55 1359.57 1255.36 1357.27 1256.49C1354.97 1257.63 1352.66 1258.07 1350.35 1257.82C1348.04 1257.6 1345.88 1256.67 1343.86 1255.05L1350.35 1247.06Z" fill="#5988FF"/>
<path d="M1295.45 1306.72C1296.44 1307.56 1297.49 1307.94 1298.61 1307.84C1299.72 1307.75 1300.9 1307.1 1302.13 1305.87C1302.92 1305.09 1303.47 1304.36 1303.79 1303.67C1304.1 1302.99 1304.22 1302.38 1304.14 1301.82C1304.06 1301.27 1303.82 1300.78 1303.42 1300.36C1303.1 1300 1302.74 1299.75 1302.33 1299.61C1301.92 1299.49 1301.45 1299.48 1300.92 1299.57C1300.4 1299.66 1299.81 1299.87 1299.15 1300.17C1298.49 1300.48 1297.76 1300.9 1296.95 1301.42L1294.16 1303.21C1292.27 1304.43 1290.51 1305.31 1288.86 1305.87C1287.22 1306.43 1285.68 1306.69 1284.25 1306.66C1282.82 1306.63 1281.5 1306.33 1280.27 1305.75C1279.03 1305.18 1277.88 1304.36 1276.8 1303.3C1274.98 1301.44 1273.89 1299.42 1273.53 1297.23C1273.18 1295.04 1273.52 1292.77 1274.56 1290.42C1275.59 1288.07 1277.3 1285.72 1279.68 1283.36C1282.13 1280.93 1284.62 1279.18 1287.16 1278.1C1289.7 1277.03 1292.21 1276.74 1294.71 1277.24C1297.2 1277.77 1299.63 1279.2 1301.97 1281.54L1294.71 1288.73C1293.81 1287.91 1292.88 1287.4 1291.91 1287.2C1290.95 1286.99 1289.97 1287.08 1288.97 1287.47C1287.97 1287.87 1286.98 1288.55 1286.01 1289.51C1285.19 1290.32 1284.61 1291.09 1284.26 1291.84C1283.91 1292.58 1283.77 1293.28 1283.84 1293.91C1283.91 1294.55 1284.17 1295.1 1284.61 1295.57C1285.05 1295.99 1285.56 1296.23 1286.15 1296.28C1286.75 1296.34 1287.48 1296.2 1288.34 1295.85C1289.22 1295.51 1290.3 1294.93 1291.57 1294.13L1294.97 1291.95C1298 1290.03 1300.86 1288.98 1303.55 1288.82C1306.24 1288.68 1308.67 1289.71 1310.84 1291.91C1312.62 1293.69 1313.7 1295.72 1314.06 1298.01C1314.42 1300.32 1314.12 1302.7 1313.15 1305.14C1312.18 1307.6 1310.57 1309.93 1308.35 1312.13C1306.07 1314.38 1303.73 1315.95 1301.32 1316.83C1298.91 1317.72 1296.57 1317.91 1294.3 1317.42C1292.03 1316.94 1289.98 1315.79 1288.14 1313.96L1295.45 1306.72Z" fill="#5988FF"/>
<path d="M1269.08 1347.7L1260.99 1354.79L1244.25 1335.72C1242.26 1333.45 1241.08 1331.02 1240.71 1328.41C1240.34 1325.82 1240.73 1323.22 1241.87 1320.63C1243.01 1318.05 1244.86 1315.64 1247.41 1313.41C1249.98 1311.16 1252.63 1309.63 1255.34 1308.83C1258.06 1308.04 1260.68 1308 1263.21 1308.7C1265.73 1309.43 1267.98 1310.92 1269.97 1313.19L1286.71 1332.26L1278.62 1339.34L1262.5 1320.97C1261.69 1320.05 1260.76 1319.41 1259.72 1319.04C1258.68 1318.68 1257.62 1318.61 1256.55 1318.83C1255.46 1319.06 1254.46 1319.58 1253.54 1320.38C1252.61 1321.2 1251.96 1322.13 1251.6 1323.16C1251.24 1324.2 1251.17 1325.25 1251.39 1326.33C1251.62 1327.41 1252.14 1328.41 1252.95 1329.33L1269.08 1347.7Z" fill="#5988FF"/>
<path d="M1225.83 1332.41L1250.09 1363.71L1236.56 1374.17C1234.24 1375.97 1231.85 1377.09 1229.39 1377.52C1226.94 1377.95 1224.58 1377.71 1222.33 1376.8C1220.07 1375.89 1218.08 1374.32 1216.36 1372.1C1214.62 1369.86 1213.62 1367.53 1213.35 1365.12C1213.06 1362.71 1213.48 1360.37 1214.59 1358.09C1215.68 1355.83 1217.43 1353.77 1219.81 1351.92L1227.89 1345.68L1233.01 1352.28L1226.64 1357.2C1225.64 1357.98 1224.93 1358.81 1224.49 1359.7C1224.05 1360.61 1223.9 1361.53 1224.03 1362.48C1224.14 1363.43 1224.55 1364.35 1225.23 1365.24C1225.93 1366.13 1226.72 1366.75 1227.59 1367.08C1228.47 1367.43 1229.39 1367.5 1230.37 1367.28C1231.34 1367.08 1232.33 1366.6 1233.33 1365.83L1236.32 1363.51L1217.32 1338.99L1225.83 1332.41Z" fill="#5988FF"/>
<path d="M1191.49 1358.53L1213.85 1391.22L1199.73 1400.86C1197.3 1402.52 1194.85 1403.49 1192.37 1403.78C1189.9 1404.06 1187.56 1403.68 1185.36 1402.64C1183.16 1401.59 1181.27 1399.91 1179.68 1397.59C1178.08 1395.25 1177.22 1392.87 1177.09 1390.44C1176.95 1388.03 1177.5 1385.71 1178.74 1383.51C1179.97 1381.31 1181.84 1379.36 1184.33 1377.66L1192.76 1371.9L1197.48 1378.79L1190.83 1383.33C1189.79 1384.04 1189.02 1384.83 1188.54 1385.7C1188.05 1386.58 1187.84 1387.49 1187.91 1388.44C1187.97 1389.4 1188.32 1390.34 1188.95 1391.27C1189.59 1392.2 1190.34 1392.86 1191.19 1393.25C1192.05 1393.65 1192.97 1393.77 1193.95 1393.61C1194.93 1393.47 1195.95 1393.05 1196.99 1392.33L1200.12 1390.2L1182.61 1364.59L1191.49 1358.53Z" fill="#5988FF"/>
<path d="M1155.62 1382.54L1176.12 1416.42L1166.92 1421.98L1150.9 1395.52L1137.18 1403.8L1132.7 1396.39L1155.62 1382.54Z" fill="#5988FF"/>
<path d="M1123.17 1401.83L1141.83 1436.75L1116.63 1450.19L1112.55 1442.55L1128.25 1434.17L1125.05 1428.17L1110.64 1435.85L1106.56 1428.21L1120.96 1420.53L1117.76 1414.53L1102.12 1422.86L1098.04 1415.22L1123.17 1401.83Z" fill="#5988FF"/>
<path d="M1087.02 1464.74L1074.68 1469.93L1057.48 1452.83L1057.05 1453.01L1057.27 1477.25L1044.93 1482.44L1029.55 1445.95L1039.25 1441.87L1048.14 1462.96L1048.43 1462.84L1047.79 1438.61L1053.64 1436.15L1070.61 1453.68L1070.89 1453.56L1061.94 1432.33L1071.64 1428.25L1087.02 1464.74Z" fill="#5988FF"/>
<path d="M1008.17 1453.49L1019.18 1449.79L1019.41 1491.49L1005.47 1496.17L980.438 1462.81L991.443 1459.11L1008.81 1483.54L1009.11 1483.44L1008.17 1453.49ZM1015.21 1467.61L994.519 1474.56L991.953 1466.93L1012.64 1459.98L1015.21 1467.61Z" fill="#5988FF"/>
<path d="M970.445 1465.66L980.651 1503.92L964.121 1508.32C961.279 1509.08 958.642 1509.18 956.212 1508.62C953.781 1508.07 951.703 1506.94 949.977 1505.22C948.251 1503.51 947.026 1501.29 946.302 1498.58C945.571 1495.84 945.549 1493.3 946.236 1490.97C946.911 1488.65 948.2 1486.65 950.105 1484.98C951.998 1483.32 954.402 1482.1 957.319 1481.32L967.192 1478.69L969.345 1486.76L961.566 1488.83C960.345 1489.16 959.36 1489.65 958.613 1490.3C957.857 1490.97 957.354 1491.76 957.106 1492.68C956.845 1493.6 956.858 1494.61 957.147 1495.69C957.44 1496.79 957.926 1497.66 958.605 1498.3C959.276 1498.97 960.102 1499.39 961.085 1499.56C962.058 1499.76 963.155 1499.69 964.377 1499.37L968.042 1498.39L960.049 1468.43L970.445 1465.66Z" fill="#5988FF"/>
<path d="M913.163 1507.37C913.522 1508.61 914.197 1509.5 915.188 1510.04C916.167 1510.57 917.509 1510.67 919.216 1510.32C920.303 1510.1 921.167 1509.78 921.808 1509.38C922.439 1508.99 922.874 1508.54 923.112 1508.03C923.351 1507.52 923.418 1506.98 923.315 1506.41C923.245 1505.94 923.076 1505.53 922.809 1505.19C922.532 1504.86 922.148 1504.59 921.656 1504.38C921.167 1504.18 920.563 1504.02 919.844 1503.92C919.126 1503.82 918.285 1503.76 917.324 1503.76L913.999 1503.73C911.758 1503.71 909.796 1503.49 908.114 1503.05C906.433 1502.62 905.002 1502 903.823 1501.18C902.646 1500.39 901.702 1499.41 900.992 1498.25C900.269 1497.09 899.75 1495.78 899.436 1494.3C898.928 1491.75 899.126 1489.46 900.029 1487.44C900.932 1485.41 902.465 1483.7 904.628 1482.3C906.779 1480.9 909.497 1479.87 912.784 1479.2C916.159 1478.51 919.206 1478.41 921.925 1478.89C924.631 1479.38 926.891 1480.52 928.704 1482.31C930.508 1484.11 931.747 1486.63 932.422 1489.87L922.41 1491.91C922.105 1490.74 921.604 1489.8 920.908 1489.1C920.212 1488.4 919.342 1487.94 918.296 1487.72C917.237 1487.5 916.038 1487.53 914.698 1487.8C913.573 1488.03 912.66 1488.36 911.958 1488.79C911.256 1489.23 910.76 1489.73 910.469 1490.3C910.177 1490.87 910.09 1491.48 910.206 1492.11C910.34 1492.7 910.641 1493.18 911.111 1493.54C911.57 1493.92 912.259 1494.2 913.179 1494.39C914.1 1494.58 915.314 1494.69 916.819 1494.71L920.857 1494.75C924.448 1494.8 927.413 1495.49 929.753 1496.83C932.084 1498.18 933.552 1500.38 934.158 1503.41C934.673 1505.87 934.455 1508.16 933.504 1510.27C932.543 1512.4 930.987 1514.22 928.834 1515.74C926.669 1517.26 924.051 1518.33 920.979 1518.96C917.844 1519.6 915.026 1519.62 912.524 1519.04C910.022 1518.46 907.957 1517.34 906.329 1515.69C904.691 1514.05 903.606 1511.96 903.076 1509.43L913.163 1507.37Z" fill="#5988FF"/>
<path d="M832.842 1518.69C833.066 1519.96 833.642 1520.92 834.57 1521.55C835.485 1522.19 836.81 1522.43 838.544 1522.27C839.648 1522.17 840.541 1521.95 841.222 1521.61C841.892 1521.29 842.372 1520.89 842.664 1520.41C842.956 1519.93 843.081 1519.4 843.039 1518.82C843.02 1518.34 842.896 1517.92 842.667 1517.55C842.427 1517.2 842.074 1516.89 841.608 1516.62C841.144 1516.37 840.56 1516.15 839.856 1515.97C839.152 1515.79 838.323 1515.65 837.367 1515.54L834.065 1515.16C831.838 1514.9 829.912 1514.46 828.286 1513.85C826.661 1513.24 825.306 1512.47 824.22 1511.54C823.136 1510.62 822.302 1509.54 821.721 1508.32C821.126 1507.09 820.751 1505.73 820.597 1504.23C820.366 1501.63 820.809 1499.38 821.924 1497.46C823.039 1495.54 824.748 1494.01 827.048 1492.84C829.336 1491.68 832.15 1490.95 835.49 1490.63C838.919 1490.31 841.96 1490.54 844.611 1491.31C847.249 1492.09 849.374 1493.46 850.985 1495.43C852.584 1497.42 853.545 1500.06 853.868 1503.36L843.696 1504.31C843.518 1503.11 843.121 1502.12 842.504 1501.35C841.887 1500.58 841.071 1500.03 840.055 1499.7C839.026 1499.37 837.831 1499.27 836.47 1499.4C835.327 1499.5 834.383 1499.73 833.639 1500.09C832.895 1500.44 832.347 1500.89 831.996 1501.43C831.645 1501.97 831.493 1502.56 831.541 1503.2C831.61 1503.8 831.859 1504.31 832.286 1504.72C832.702 1505.15 833.357 1505.5 834.252 1505.78C835.147 1506.07 836.342 1506.31 837.837 1506.49L841.847 1506.97C845.412 1507.4 848.286 1508.4 850.469 1509.98C852.64 1511.58 853.864 1513.92 854.141 1517C854.39 1519.5 853.928 1521.75 852.755 1523.75C851.571 1525.76 849.828 1527.41 847.525 1528.69C845.209 1529.97 842.491 1530.75 839.369 1531.05C836.184 1531.34 833.379 1531.07 830.954 1530.22C828.529 1529.38 826.596 1528.04 825.155 1526.23C823.702 1524.42 822.848 1522.23 822.593 1519.65L832.842 1518.69Z" fill="#5988FF"/>
<path d="M786.424 1533.65L775.67 1534L774.843 1508.65C774.745 1505.64 775.382 1503 776.754 1500.75C778.114 1498.52 780.057 1496.76 782.584 1495.48C785.111 1494.21 788.07 1493.52 791.462 1493.41C794.878 1493.3 797.889 1493.79 800.494 1494.89C803.099 1496.01 805.152 1497.64 806.655 1499.78C808.145 1501.94 808.94 1504.52 809.038 1507.54L809.865 1532.89L799.111 1533.24L798.315 1508.81C798.275 1507.59 797.968 1506.5 797.395 1505.56C796.823 1504.62 796.05 1503.9 795.078 1503.39C794.094 1502.88 792.989 1502.64 791.764 1502.68C790.526 1502.72 789.439 1503.03 788.503 1503.6C787.566 1504.17 786.843 1504.95 786.332 1505.92C785.822 1506.9 785.587 1508 785.627 1509.23L786.424 1533.65Z" fill="#5988FF"/>
<path d="M762.714 1494.42L761.583 1533.99L744.483 1533.51C741.543 1533.42 738.987 1532.77 736.815 1531.55C734.643 1530.32 732.974 1528.64 731.809 1526.51C730.644 1524.38 730.102 1521.9 730.182 1519.1C730.263 1516.26 730.965 1513.83 732.288 1511.79C733.599 1509.75 735.404 1508.2 737.706 1507.15C739.995 1506.09 742.648 1505.6 745.666 1505.69L755.879 1505.98L755.64 1514.33L747.593 1514.1C746.33 1514.06 745.247 1514.25 744.344 1514.66C743.429 1515.09 742.721 1515.71 742.22 1516.52C741.706 1517.33 741.433 1518.29 741.401 1519.42C741.369 1520.55 741.586 1521.52 742.054 1522.33C742.507 1523.16 743.18 1523.8 744.07 1524.25C744.947 1524.71 746.018 1524.96 747.282 1525L751.073 1525.11L751.959 1494.11L762.714 1494.42Z" fill="#5988FF"/>
<path d="M719.581 1492.85L716.104 1532.28L699.064 1530.79C696.134 1530.53 693.621 1529.72 691.525 1528.38C689.43 1527.03 687.863 1525.25 686.827 1523.05C685.791 1520.85 685.396 1518.35 685.643 1515.55C685.892 1512.73 686.737 1510.34 688.179 1508.38C689.607 1506.43 691.502 1504.99 693.862 1504.07C696.209 1503.15 698.887 1502.82 701.894 1503.09L712.072 1503.98L711.339 1512.3L703.32 1511.6C702.06 1511.49 700.968 1511.61 700.043 1511.97C699.103 1512.34 698.36 1512.91 697.812 1513.69C697.251 1514.47 696.922 1515.42 696.823 1516.54C696.723 1517.67 696.883 1518.65 697.301 1519.49C697.705 1520.34 698.338 1521.02 699.201 1521.52C700.049 1522.04 701.103 1522.35 702.362 1522.46L706.14 1522.79L708.863 1491.9L719.581 1492.85Z" fill="#5988FF"/>
<path d="M676.597 1488.67L670.933 1527.85L660.284 1526.32L664.709 1495.7L648.851 1493.42L650.09 1484.84L676.597 1488.67Z" fill="#5988FF"/>
<path d="M639.271 1483.01L631.509 1521.83L603.5 1516.24L605.198 1507.75L622.656 1511.23L623.99 1504.56L607.974 1501.37L609.672 1492.87L625.688 1496.07L627.022 1489.4L609.64 1485.93L611.338 1477.43L639.271 1483.01Z" fill="#5988FF"/>
<path d="M571.375 1508.72L558.539 1504.91L556.103 1480.8L555.658 1480.66L540.434 1499.54L527.598 1495.73L538.887 1457.78L548.978 1460.77L542.451 1482.71L542.748 1482.8L557.645 1463.67L563.729 1465.47L565.706 1489.78L566.003 1489.87L572.573 1467.78L582.664 1470.77L571.375 1508.72Z" fill="#5988FF"/>
<path d="M517.569 1450.06L528.423 1454.18L502.124 1486.55L488.375 1481.33L490.216 1439.68L501.07 1443.8L498.979 1473.69L499.269 1473.8L517.569 1450.06ZM514.044 1465.43L493.637 1457.69L496.495 1450.17L516.902 1457.91L514.044 1465.43Z" fill="#5988FF"/>
<path d="M480.678 1435.55L464.27 1471.59L448.698 1464.52C446.021 1463.3 443.918 1461.71 442.391 1459.74C440.864 1457.77 439.977 1455.58 439.732 1453.16C439.487 1450.74 439.947 1448.25 441.111 1445.7C442.286 1443.11 443.879 1441.14 445.89 1439.78C447.889 1438.4 450.154 1437.68 452.686 1437.6C455.206 1437.51 457.839 1438.09 460.587 1439.34L469.888 1443.56L466.427 1451.17L459.099 1447.84C457.948 1447.31 456.877 1447.07 455.885 1447.1C454.876 1447.14 453.984 1447.43 453.207 1447.98C452.419 1448.53 451.793 1449.32 451.328 1450.34C450.858 1451.37 450.681 1452.35 450.796 1453.28C450.894 1454.22 451.266 1455.07 451.911 1455.83C452.54 1456.59 453.43 1457.24 454.581 1457.76L458.033 1459.33L470.884 1431.1L480.678 1435.55Z" fill="#5988FF"/>
<path d="M409.912 1431.49C409.4 1432.68 409.358 1433.79 409.785 1434.83C410.2 1435.87 411.178 1436.79 412.717 1437.61C413.698 1438.12 414.566 1438.43 415.32 1438.52C416.056 1438.62 416.678 1438.54 417.186 1438.3C417.693 1438.06 418.088 1437.69 418.371 1437.18C418.617 1436.77 418.745 1436.35 418.754 1435.92C418.747 1435.49 418.621 1435.04 418.378 1434.56C418.129 1434.09 417.759 1433.59 417.269 1433.06C416.779 1432.52 416.163 1431.95 415.421 1431.34L412.872 1429.2C411.15 1427.77 409.777 1426.35 408.752 1424.95C407.728 1423.55 407.017 1422.16 406.621 1420.79C406.219 1419.42 406.111 1418.07 406.297 1416.72C406.472 1415.37 406.906 1414.03 407.6 1412.69C408.829 1410.39 410.436 1408.75 412.42 1407.76C414.404 1406.76 416.677 1406.41 419.239 1406.7C421.789 1406.98 424.547 1407.9 427.513 1409.47C430.558 1411.08 432.978 1412.93 434.771 1415.03C436.554 1417.12 437.578 1419.43 437.844 1421.96C438.093 1424.5 437.448 1427.24 435.911 1430.17L426.877 1425.4C427.386 1424.3 427.595 1423.26 427.501 1422.28C427.408 1421.29 427.027 1420.39 426.359 1419.55C425.68 1418.71 424.736 1417.97 423.527 1417.34C422.512 1416.8 421.596 1416.48 420.779 1416.37C419.962 1416.26 419.259 1416.33 418.67 1416.59C418.081 1416.84 417.631 1417.26 417.318 1417.82C417.046 1418.36 416.976 1418.92 417.107 1419.5C417.221 1420.09 417.575 1420.74 418.171 1421.46C418.76 1422.2 419.63 1423.05 420.779 1424.02L423.872 1426.61C426.619 1428.92 428.472 1431.34 429.431 1433.86C430.372 1436.38 430.114 1439 428.656 1441.73C427.492 1443.96 425.871 1445.59 423.794 1446.62C421.699 1447.66 419.337 1448.08 416.71 1447.89C414.072 1447.69 411.366 1446.86 408.595 1445.4C405.766 1443.91 403.569 1442.14 402.005 1440.11C400.441 1438.07 399.555 1435.9 399.347 1433.59C399.122 1431.28 399.61 1428.98 400.81 1426.68L409.912 1431.49Z" fill="#5988FF"/>
<path d="M340.64 1389.33C340.004 1390.45 339.842 1391.56 340.154 1392.64C340.456 1393.71 341.329 1394.74 342.773 1395.71C343.692 1396.33 344.522 1396.73 345.262 1396.9C345.983 1397.07 346.61 1397.07 347.14 1396.88C347.671 1396.7 348.104 1396.37 348.439 1395.89C348.728 1395.51 348.9 1395.11 348.956 1394.68C348.994 1394.25 348.918 1393.79 348.727 1393.29C348.53 1392.8 348.216 1392.26 347.786 1391.67C347.357 1391.09 346.806 1390.45 346.133 1389.77L343.828 1387.37C342.27 1385.76 341.057 1384.21 340.188 1382.7C339.32 1381.2 338.763 1379.75 338.517 1378.34C338.263 1376.94 338.301 1375.58 338.631 1374.26C338.949 1372.94 339.526 1371.65 340.359 1370.39C341.827 1368.24 343.601 1366.78 345.681 1366C347.761 1365.23 350.058 1365.12 352.574 1365.68C355.079 1366.23 357.722 1367.45 360.503 1369.32C363.358 1371.25 365.565 1373.35 367.123 1375.63C368.67 1377.9 369.44 1380.31 369.433 1382.85C369.408 1385.4 368.474 1388.05 366.63 1390.8L358.16 1385.09C358.785 1384.05 359.104 1383.04 359.117 1382.05C359.129 1381.07 358.848 1380.12 358.274 1379.22C357.688 1378.32 356.829 1377.48 355.695 1376.72C354.744 1376.07 353.867 1375.65 353.067 1375.46C352.267 1375.26 351.56 1375.26 350.947 1375.45C350.334 1375.64 349.842 1376 349.47 1376.53C349.142 1377.04 349.012 1377.59 349.08 1378.18C349.131 1378.77 349.413 1379.46 349.927 1380.24C350.435 1381.04 351.208 1381.98 352.246 1383.07L355.042 1385.98C357.526 1388.57 359.109 1391.17 359.792 1393.77C360.457 1396.38 359.918 1398.97 358.176 1401.52C356.78 1403.61 354.993 1405.06 352.817 1405.86C350.622 1406.67 348.23 1406.84 345.638 1406.36C343.036 1405.88 340.435 1404.77 337.837 1403.02C335.185 1401.23 333.19 1399.24 331.854 1397.05C330.517 1394.86 329.869 1392.6 329.911 1390.28C329.935 1387.97 330.666 1385.73 332.106 1383.58L340.64 1389.33Z" fill="#5988FF"/>
<path d="M295.257 1371.47L286.723 1364.93L302.183 1344.81C304.021 1342.42 306.185 1340.79 308.674 1339.92C311.146 1339.05 313.765 1338.92 316.532 1339.53C319.291 1340.16 322.016 1341.5 324.708 1343.56C327.42 1345.64 329.432 1347.93 330.746 1350.44C332.052 1352.95 332.605 1355.51 332.405 1358.12C332.188 1360.73 331.16 1363.23 329.321 1365.62L313.861 1385.74L305.327 1379.2L320.221 1359.81C320.968 1358.84 321.42 1357.81 321.58 1356.71C321.731 1355.63 321.593 1354.58 321.166 1353.57C320.729 1352.55 320.024 1351.67 319.052 1350.92C318.069 1350.17 317.034 1349.72 315.947 1349.57C314.86 1349.41 313.811 1349.55 312.8 1349.98C311.781 1350.42 310.898 1351.12 310.152 1352.09L295.257 1371.47Z" fill="#5988FF"/>
<path d="M301.847 1326.12L275.838 1355.99L262.931 1344.78C260.712 1342.85 259.151 1340.73 258.248 1338.4C257.345 1336.08 257.122 1333.73 257.577 1331.34C258.032 1328.95 259.183 1326.7 261.028 1324.58C262.891 1322.44 264.981 1321 267.298 1320.26C269.605 1319.52 271.984 1319.47 274.433 1320.11C276.873 1320.74 279.232 1322.05 281.51 1324.03L289.22 1330.73L283.733 1337.03L277.659 1331.75C276.705 1330.92 275.749 1330.38 274.789 1330.13C273.811 1329.88 272.872 1329.9 271.97 1330.21C271.058 1330.52 270.234 1331.09 269.497 1331.93C268.752 1332.79 268.302 1333.68 268.147 1334.6C267.974 1335.53 268.088 1336.45 268.49 1337.36C268.874 1338.28 269.543 1339.15 270.497 1339.98L273.359 1342.46L293.729 1319.07L301.847 1326.12Z" fill="#5988FF"/>
<path d="M269.504 1297.57L241.77 1325.85L229.55 1313.89C227.449 1311.83 226.017 1309.62 225.253 1307.25C224.49 1304.88 224.406 1302.52 225.003 1300.16C225.599 1297.8 226.881 1295.62 228.849 1293.61C230.835 1291.59 233.007 1290.27 235.363 1289.68C237.711 1289.07 240.088 1289.16 242.495 1289.94C244.894 1290.72 247.171 1292.17 249.327 1294.28L256.626 1301.42L250.776 1307.38L245.025 1301.76C244.122 1300.87 243.199 1300.28 242.256 1299.97C241.295 1299.66 240.355 1299.63 239.437 1299.89C238.509 1300.13 237.652 1300.66 236.866 1301.46C236.072 1302.27 235.57 1303.13 235.36 1304.04C235.133 1304.96 235.192 1305.88 235.539 1306.82C235.868 1307.75 236.484 1308.66 237.387 1309.55L240.097 1312.2L261.818 1290.05L269.504 1297.57Z" fill="#5988FF"/>
<path d="M238.933 1267.1L209.668 1293.79L202.413 1285.86L225.275 1265L214.47 1253.18L220.872 1247.34L238.933 1267.1Z" fill="#5988FF"/>
<path d="M213.676 1239.06L183.019 1264.15L164.918 1242.08L171.624 1236.59L182.906 1250.35L188.176 1246.04L177.825 1233.42L184.531 1227.93L194.882 1240.55L200.151 1236.24L188.918 1222.54L195.624 1217.05L213.676 1239.06Z" fill="#5988FF"/>
<path d="M144.862 1215.91L137.36 1204.83L150.794 1184.64L150.533 1184.26L126.779 1189.2L119.277 1178.12L152.105 1155.94L158.003 1164.65L139.024 1177.47L139.197 1177.73L162.863 1172.38L166.419 1177.63L152.512 1197.67L152.686 1197.93L171.793 1185.02L177.69 1193.73L144.862 1215.91Z" fill="#5988FF"/>
<path d="M140.53 1136.46L146.304 1146.52L105.416 1154.88L98.1016 1142.13L125.977 1111.1L131.752 1121.16L111.15 1142.95L111.304 1143.21L140.53 1136.46ZM128.043 1146.11L117.186 1127.19L124.17 1123.19L135.027 1142.11L128.043 1146.11Z" fill="#5988FF"/>
<path d="M121.225 1101.87L85.655 1119.32L78.1119 1103.99C76.8149 1101.35 76.2011 1098.79 76.2705 1096.3C76.3399 1093.81 77.048 1091.55 78.395 1089.52C79.7419 1087.5 81.6775 1085.87 84.2017 1084.63C86.7491 1083.38 89.2336 1082.86 91.6553 1083.08C94.0713 1083.29 96.2836 1084.16 98.2921 1085.7C100.295 1087.23 101.962 1089.35 103.293 1092.06L107.798 1101.22L100.295 1104.9L96.7456 1097.68C96.1882 1096.55 95.5163 1095.68 94.7301 1095.08C93.9267 1094.47 93.0492 1094.13 92.0976 1094.06C91.1404 1093.99 90.1581 1094.2 89.1508 1094.69C88.1318 1095.19 87.3715 1095.84 86.8697 1096.63C86.3507 1097.42 86.0993 1098.31 86.1154 1099.3C86.1142 1100.3 86.3924 1101.36 86.9498 1102.49L88.6223 1105.89L116.481 1092.22L121.225 1101.87Z" fill="#5988FF"/>
<path d="M69.1081 1053.87C67.9585 1054.47 67.2178 1055.3 66.8862 1056.38C66.5495 1057.44 66.7182 1058.77 67.3922 1060.38C67.8216 1061.4 68.2984 1062.19 68.8228 1062.73C69.3304 1063.28 69.8572 1063.61 70.4033 1063.75C70.9495 1063.88 71.4927 1063.84 72.033 1063.63C72.4831 1063.47 72.8492 1063.23 73.1312 1062.9C73.3963 1062.56 73.5867 1062.13 73.7024 1061.61C73.8063 1061.09 73.8389 1060.47 73.8003 1059.75C73.7617 1059.02 73.6494 1058.19 73.4634 1057.25L72.8477 1053.98C72.4272 1051.78 72.2658 1049.82 72.3635 1048.08C72.4613 1046.35 72.7938 1044.83 73.361 1043.51C73.9163 1042.21 74.693 1041.09 75.6909 1040.17C76.6838 1039.23 77.8737 1038.47 79.2605 1037.88C81.6684 1036.88 83.9547 1036.63 86.1193 1037.12C88.284 1037.61 90.2648 1038.78 92.0618 1040.62C93.8538 1042.46 95.3988 1044.92 96.6969 1048.01C98.0299 1051.18 98.7233 1054.15 98.777 1056.91C98.8258 1059.65 98.1493 1062.09 96.7476 1064.21C95.3291 1066.33 93.0937 1068.04 90.0415 1069.33L86.0874 1059.92C87.1806 1059.39 88.003 1058.72 88.5547 1057.9C89.1063 1057.08 89.3887 1056.14 89.4018 1055.07C89.4099 1053.99 89.1494 1052.82 88.6202 1051.56C88.1758 1050.5 87.673 1049.67 87.1118 1049.07C86.5505 1048.47 85.9606 1048.08 85.3419 1047.9C84.7232 1047.73 84.1139 1047.76 83.5142 1048C82.96 1048.25 82.5497 1048.63 82.2831 1049.17C81.9997 1049.69 81.8587 1050.42 81.8601 1051.36C81.8496 1052.3 81.9803 1053.51 82.252 1054.99L82.9946 1058.95C83.6508 1062.48 83.5499 1065.52 82.6922 1068.07C81.8175 1070.62 79.9502 1072.49 77.0903 1073.67C74.7756 1074.66 72.4878 1074.89 70.2268 1074.37C67.949 1073.84 65.8555 1072.67 63.9464 1070.86C62.0324 1069.03 60.4688 1066.68 59.2556 1063.79C58.0174 1060.84 57.4402 1058.09 57.5239 1055.52C57.6076 1052.96 58.3029 1050.72 59.6099 1048.8C60.9 1046.87 62.738 1045.4 65.1241 1044.39L69.1081 1053.87Z" fill="#5988FF"/>
<path d="M42.3383 977.38C41.1316 977.847 40.3056 978.597 39.8604 979.631C39.4115 980.653 39.436 981.997 39.9339 983.664C40.2511 984.726 40.6409 985.558 41.1034 986.16C41.5498 986.753 42.0373 987.146 42.5658 987.338C43.0944 987.53 43.6387 987.55 44.1987 987.396C44.6635 987.285 45.0537 987.081 45.3692 986.785C45.6687 986.481 45.9041 986.074 46.0754 985.566C46.2344 985.061 46.3335 984.447 46.373 983.722C46.4124 982.998 46.3902 982.157 46.3064 981.2L46.0446 977.889C45.8627 975.657 45.9133 973.685 46.1964 971.973C46.4795 970.262 46.9736 968.783 47.6786 967.537C48.3713 966.295 49.2631 965.27 50.3542 964.46C51.4417 963.639 52.7067 963.006 54.1495 962.563C56.6504 961.831 58.9506 961.824 61.0501 962.543C63.1497 963.263 64.9937 964.636 66.5821 966.664C68.1669 968.68 69.4387 971.294 70.3976 974.505C71.3823 977.802 71.7533 980.825 71.5106 983.574C71.2642 986.31 70.3301 988.66 68.7084 990.622C67.0706 992.576 64.6649 994.033 61.4915 994.992L58.5705 985.211C59.7141 984.803 60.6041 984.222 61.2404 983.467C61.8767 982.713 62.2587 981.805 62.3864 980.745C62.5103 979.673 62.3769 978.482 61.9859 977.173C61.6577 976.074 61.2469 975.194 60.7537 974.534C60.2604 973.874 59.7156 973.425 59.1191 973.186C58.5226 972.946 57.9135 972.913 57.2917 973.085C56.7143 973.27 56.2646 973.613 55.9426 974.112C55.6045 974.603 55.3859 975.314 55.2869 976.244C55.1755 977.178 55.1755 978.396 55.2868 979.896L55.5995 983.918C55.8732 987.494 55.4466 990.506 54.3196 992.954C53.1766 995.392 51.1197 997.048 48.1491 997.92C45.7421 998.65 43.4425 998.636 41.2503 997.878C39.0421 997.11 37.0863 995.723 35.3829 993.715C33.6759 991.696 32.3742 989.185 31.478 986.184C30.5634 983.122 30.2853 980.32 30.6439 977.778C31.0024 975.237 31.9343 973.083 33.4396 971.317C34.9289 969.542 36.9141 968.277 39.3953 967.525L42.3383 977.38Z" fill="#5988FF"/>
<path d="M18.5978 934.814L16.1576 924.346L40.8849 918.594C43.825 917.91 46.5332 918.021 49.0095 918.927C51.4702 919.823 53.576 921.384 55.3268 923.61C57.065 925.839 58.3188 928.604 59.0883 931.905C59.8637 935.232 59.9645 938.278 59.3908 941.045C58.8046 943.815 57.6058 946.144 55.7946 948.035C53.9679 949.915 51.5845 951.197 48.6443 951.881L23.9171 957.634L21.4769 947.165L45.2995 941.623C46.4931 941.346 47.4997 940.834 48.3192 940.087C49.1261 939.344 49.6851 938.446 49.9963 937.395C50.3046 936.331 50.3197 935.202 50.0418 934.01C49.7609 932.805 49.2483 931.799 48.5041 930.993C47.7599 930.187 46.8614 929.629 45.8088 929.318C44.7435 929.01 43.6141 928.995 42.4204 929.272L18.5978 934.814Z" fill="#5988FF"/>
<path d="M52.4949 903.935L13.4192 910.541L10.5646 893.692C10.0738 890.795 10.2167 888.163 10.9933 885.796C11.77 883.43 13.0928 881.468 14.9616 879.91C16.8305 878.352 19.1513 877.339 21.9243 876.87C24.7227 876.397 27.2513 876.61 29.5102 877.509C31.7669 878.395 33.6381 879.863 35.1236 881.913C36.607 883.949 37.6005 886.454 38.1043 889.428L39.8093 899.492L31.5667 900.885L30.2234 892.956C30.0124 891.711 29.6164 890.686 29.0354 889.883C28.4395 889.068 27.6947 888.495 26.801 888.163C25.9051 887.817 24.9038 887.738 23.7972 887.925C22.6779 888.115 21.7648 888.517 21.0579 889.133C20.3362 889.739 19.8408 890.522 19.5718 891.483C19.2878 892.433 19.2514 893.53 19.4623 894.775L20.0952 898.511L50.6994 893.337L52.4949 903.935Z" fill="#5988FF"/>
<path d="M45.6278 861.365L6.22897 865.647L4.3787 848.658C4.06056 845.737 4.35931 843.119 5.27497 840.802C6.19062 838.486 7.62742 836.606 9.58536 835.161C11.5433 833.717 13.9202 832.843 16.7161 832.539C19.5376 832.232 22.0492 832.594 24.2508 833.626C26.451 834.644 28.2318 836.22 29.5931 838.354C30.9531 840.474 31.7964 843.034 32.1229 846.032L33.228 856.179L24.9173 857.082L24.0466 849.088C23.9099 847.832 23.5753 846.786 23.043 845.949C22.4964 845.101 21.7869 844.485 20.9145 844.1C20.0407 843.702 19.0459 843.564 17.9301 843.685C16.8015 843.808 15.8661 844.156 15.1239 844.729C14.3676 845.291 13.8266 846.044 13.5011 846.986C13.1613 847.918 13.0598 849.011 13.1965 850.267L13.6068 854.034L44.4641 850.68L45.6278 861.365Z" fill="#5988FF"/>
<path d="M41.3506 818.435L1.77444 820.524L1.20664 809.791L32.1255 808.158L31.2799 792.174L39.9372 791.717L41.3506 818.435Z" fill="#5988FF"/>
<path d="M39.6314 780.759L0 780.722L0.0264553 752.188L8.69582 752.196L8.67933 769.982L15.491 769.988L15.5061 753.672L24.1755 753.68L24.1603 769.996L30.972 770.002L30.9884 752.294L39.6577 752.302L39.6314 780.759Z" fill="#5988FF"/>
<path d="M1.14589 719.246L2.38449 705.926L25.5877 698.837L25.6307 698.375L4.13142 687.139L5.37002 673.819L44.8315 677.481L43.8578 687.952L21.0441 685.835L21.0155 686.143L42.7047 697.009L42.1176 703.322L18.6419 709.997L18.6133 710.305L41.5811 712.436L40.6074 722.908L1.14589 719.246Z" fill="#5988FF"/>
<path d="M48.2547 655.088L46.3278 666.526L9.41698 647.069L11.8577 632.581L53.1105 626.264L51.1836 637.702L21.4258 641.482L21.3744 641.787L48.2547 655.088ZM32.476 654.631L36.0986 633.127L44.0371 634.462L40.4145 655.966L32.476 654.631Z" fill="#5988FF"/>
<path d="M55.3017 616.115L16.7197 607.064L20.6303 590.428C21.3027 587.567 22.4562 585.197 24.0909 583.316C25.7255 581.436 27.7065 580.14 30.0338 579.428C32.3611 578.717 34.8937 578.682 37.6316 579.324C40.3947 579.972 42.6427 581.148 44.3757 582.852C46.1117 584.544 47.2665 586.621 47.8401 589.086C48.4166 591.538 48.3598 594.232 47.6697 597.168L45.334 607.105L37.1956 605.195L39.0359 597.366C39.3249 596.137 39.3577 595.039 39.1341 594.073C38.901 593.092 38.4371 592.275 37.7424 591.622C37.0507 590.957 36.1585 590.496 35.0659 590.24C33.9607 589.98 32.9627 589.998 32.072 590.292C31.1716 590.57 30.411 591.1 29.7901 591.881C29.1596 592.647 28.6998 593.644 28.4108 594.874L27.5438 598.563L57.7612 605.651L55.3017 616.115Z" fill="#5988FF"/>
<path d="M45.4982 545.983C44.2324 545.714 43.1299 545.89 42.1905 546.511C41.2547 547.119 40.5379 548.257 40.0401 549.925C39.7229 550.987 39.5927 551.896 39.6495 552.653C39.6975 553.393 39.89 553.989 40.2268 554.439C40.5636 554.889 41.0083 555.203 41.5609 555.381C42.0109 555.542 42.4491 555.585 42.8753 555.51C43.2928 555.42 43.7126 555.209 44.1347 554.877C44.5444 554.542 44.9644 554.082 45.3948 553.497C45.8252 552.913 46.2677 552.198 46.7223 551.351L48.3193 548.438C49.3913 546.471 50.5151 544.849 51.6908 543.572C52.8664 542.295 54.0907 541.329 55.3637 540.673C56.6243 540.013 57.9329 539.643 59.2896 539.563C60.6499 539.471 62.0551 539.634 63.5052 540.053C65.9988 540.809 67.9265 542.063 69.2884 543.814C70.6504 545.565 71.4396 547.723 71.6561 550.289C71.8762 552.843 71.5068 555.725 70.548 558.936C69.5632 562.233 68.2156 564.965 66.5051 567.132C64.7982 569.286 62.7282 570.741 60.2951 571.495C57.8533 572.233 55.0419 572.135 51.8611 571.2L54.7821 561.419C55.9626 561.704 57.0259 561.705 57.972 561.422C58.9181 561.139 59.7352 560.589 60.4235 559.772C61.1154 558.942 61.6569 557.873 62.0478 556.564C62.376 555.465 62.5148 554.504 62.4641 553.682C62.4134 552.86 62.2042 552.186 61.8364 551.66C61.4686 551.133 60.9774 550.771 60.363 550.575C59.7783 550.414 59.2143 550.454 58.6709 550.696C58.1189 550.921 57.5463 551.396 56.9531 552.121C56.3475 552.841 55.6799 553.859 54.9504 555.175L53.0059 558.711C51.2734 561.853 49.2646 564.139 46.9796 565.57C44.6858 566.984 42.0573 567.243 39.094 566.346C36.6797 565.64 34.7637 564.37 33.346 562.535C31.9197 560.685 31.0445 558.453 30.7204 555.842C30.4 553.218 30.688 550.406 31.5842 547.405C32.4988 544.342 33.8029 541.846 35.4965 539.916C37.1902 537.987 39.1511 536.695 41.3792 536.041C43.5987 535.371 45.9527 535.4 48.4412 536.128L45.4982 545.983Z" fill="#5988FF"/>
<path d="M73.3858 469.891C72.1563 469.487 71.0413 469.544 70.0406 470.061C69.0449 470.566 68.2101 471.621 67.5361 473.225C67.1068 474.247 66.8797 475.137 66.8549 475.895C66.8232 476.637 66.9507 477.249 67.2372 477.733C67.5237 478.216 67.9322 478.576 68.4625 478.813C68.8926 479.021 69.3236 479.111 69.7553 479.082C70.1802 479.037 70.6202 478.872 71.0755 478.587C71.5188 478.298 71.9858 477.886 72.4764 477.351C72.9671 476.816 73.4838 476.152 74.0267 475.359L75.9272 472.634C77.2042 470.793 78.4956 469.301 79.8016 468.157C81.1075 467.014 82.4285 466.184 83.7646 465.668C85.0888 465.147 86.4296 464.919 87.787 464.985C89.1494 465.039 90.5289 465.352 91.9257 465.924C94.3236 466.943 96.1057 468.396 97.2718 470.283C98.4379 472.169 98.9909 474.4 98.9307 476.974C98.8754 479.537 98.1988 482.363 96.9007 485.453C95.5677 488.626 93.9346 491.197 92.0013 493.168C90.073 495.127 87.8588 496.351 85.3588 496.841C82.8518 497.313 80.0672 496.914 77.0051 495.644L80.9592 486.232C82.1023 486.642 83.1594 486.757 84.1304 486.577C85.1014 486.397 85.9729 485.938 86.7449 485.199C87.5219 484.449 88.175 483.444 88.7042 482.184C89.1485 481.126 89.3896 480.186 89.4275 479.363C89.4653 478.541 89.3297 477.848 89.0205 477.285C88.7113 476.722 88.2619 476.31 87.6721 476.049C87.108 475.826 86.5429 475.806 85.9768 475.988C85.4037 476.153 84.7834 476.564 84.1158 477.22C83.4364 477.872 82.6634 478.812 81.7968 480.043L79.484 483.35C77.4242 486.288 75.1816 488.346 72.7561 489.523C70.3238 490.684 67.6827 490.659 64.8327 489.451C62.5081 488.49 60.7395 487.022 59.5269 485.046C58.3075 483.053 57.6768 480.741 57.635 478.11C57.5981 475.466 58.1863 472.701 59.3995 469.813C60.6377 466.866 62.2022 464.524 64.0932 462.787C65.9842 461.05 68.0725 459.976 70.358 459.565C72.6366 459.136 74.9739 459.417 77.3699 460.408L73.3858 469.891Z" fill="#5988FF"/>
<path d="M82.068 421.943L86.8301 412.305L109.597 423.531C112.304 424.865 114.327 426.668 115.665 428.937C116.998 431.19 117.634 433.731 117.574 436.562C117.502 439.386 116.715 442.318 115.213 445.358C113.7 448.42 111.843 450.839 109.643 452.614C107.43 454.383 105.024 455.424 102.424 455.737C99.8175 456.033 97.1608 455.514 94.4538 454.179L71.6872 442.953L76.4494 433.315L98.383 444.13C99.482 444.672 100.585 444.914 101.693 444.856C102.789 444.793 103.791 444.454 104.699 443.838C105.613 443.211 106.342 442.348 106.884 441.251C107.432 440.141 107.675 439.039 107.611 437.944C107.548 436.849 107.208 435.848 106.592 434.941C105.964 434.028 105.101 433.3 104.002 432.758L82.068 421.943Z" fill="#5988FF"/>
<path d="M127.88 419.559L93.4801 399.899L101.975 385.066C103.435 382.515 105.217 380.572 107.32 379.235C109.424 377.898 111.692 377.219 114.126 377.2C116.56 377.18 118.997 377.868 121.438 379.263C123.902 380.671 125.721 382.438 126.896 384.565C128.078 386.68 128.592 389.001 128.439 391.527C128.292 394.041 127.469 396.607 125.97 399.225L120.896 408.084L113.64 403.937L117.637 396.957C118.265 395.861 118.61 394.818 118.671 393.828C118.728 392.821 118.516 391.906 118.036 391.083C117.563 390.248 116.839 389.552 115.865 388.996C114.88 388.432 113.918 388.165 112.981 388.193C112.038 388.204 111.158 388.495 110.34 389.067C109.517 389.621 108.792 390.447 108.164 391.543L106.281 394.832L133.223 410.229L127.88 419.559Z" fill="#5988FF"/>
<path d="M149.608 382.301L116.434 360.64L125.794 346.335C127.403 343.875 129.297 342.041 131.476 340.831C133.655 339.62 135.959 339.078 138.39 339.202C140.821 339.327 143.213 340.157 145.567 341.695C147.943 343.246 149.654 345.118 150.701 347.31C151.755 349.492 152.131 351.839 151.828 354.351C151.532 356.852 150.559 359.365 148.907 361.889L143.317 370.433L136.319 365.864L140.724 359.132C141.415 358.075 141.821 357.055 141.941 356.07C142.057 355.069 141.9 354.142 141.47 353.292C141.047 352.431 140.366 351.693 139.427 351.08C138.476 350.459 137.532 350.136 136.595 350.108C135.653 350.063 134.757 350.302 133.907 350.824C133.053 351.329 132.28 352.11 131.588 353.167L129.513 356.339L155.494 373.304L149.608 382.301Z" fill="#5988FF"/>
<path d="M173.566 346.406L141.648 322.937L148.026 314.281L172.962 332.616L182.46 319.724L189.442 324.858L173.566 346.406Z" fill="#5988FF"/>
<path d="M196.165 316.194L165.554 291.047L183.696 269.009L190.392 274.51L179.084 288.246L184.345 292.568L194.719 279.966L201.415 285.467L191.041 298.069L196.303 302.391L207.561 288.714L214.257 294.215L196.165 316.194Z" fill="#5988FF"/>
<path d="M205.483 244.255L214.9 234.744L237.337 243.971L237.663 243.641L228.181 221.329L237.598 211.818L265.775 239.66L258.372 247.137L242.083 231.041L241.865 231.261L251.729 253.406L247.266 257.915L224.881 248.195L224.663 248.415L241.063 264.619L233.66 272.096L205.483 244.255Z" fill="#5988FF"/>
<path d="M282.643 224.52L273.889 232.14L257.715 193.706L268.803 184.054L304.702 205.318L295.948 212.938L270.546 196.999L270.313 197.202L282.643 224.52ZM270.737 214.166L287.194 199.841L292.482 205.904L276.025 220.229L270.737 214.166Z" fill="#5988FF"/>
<path d="M312.841 198.863L288.767 167.414L302.355 157.033C304.692 155.248 307.089 154.146 309.547 153.729C312.004 153.312 314.359 153.565 316.61 154.49C318.86 155.415 320.84 156.994 322.549 159.225C324.273 161.478 325.263 163.811 325.521 166.227C325.789 168.635 325.361 170.973 324.24 173.241C323.128 175.502 321.373 177.548 318.975 179.38L310.859 185.581L305.781 178.947L312.176 174.062C313.18 173.294 313.902 172.467 314.343 171.578C314.786 170.672 314.946 169.746 314.824 168.802C314.712 167.849 314.315 166.927 313.633 166.037C312.943 165.136 312.161 164.517 311.286 164.179C310.413 163.824 309.488 163.752 308.512 163.962C307.539 164.154 306.55 164.633 305.546 165.401L302.533 167.702L321.388 192.333L312.841 198.863Z" fill="#5988FF"/>
<path d="M349.803 138.439C348.995 137.429 348.032 136.866 346.911 136.75C345.801 136.628 344.524 137.053 343.081 138.026C342.161 138.646 341.483 139.267 341.046 139.888C340.613 140.491 340.384 141.073 340.358 141.634C340.333 142.195 340.477 142.72 340.791 143.208C341.036 143.618 341.348 143.929 341.725 144.141C342.105 144.335 342.564 144.438 343.1 144.45C343.63 144.45 344.247 144.361 344.951 144.182C345.654 144.003 346.451 143.73 347.34 143.364L350.424 142.125C352.502 141.284 354.401 140.743 356.12 140.501C357.84 140.259 359.4 140.287 360.801 140.587C362.195 140.876 363.441 141.42 364.54 142.218C365.65 143.009 366.633 144.025 367.488 145.268C368.935 147.433 369.629 149.624 369.569 151.841C369.51 154.057 368.75 156.226 367.287 158.346C365.836 160.46 363.72 162.454 360.939 164.328C358.084 166.253 355.307 167.51 352.609 168.101C349.921 168.684 347.398 168.496 345.038 167.537C342.682 166.56 340.571 164.702 338.706 161.964L347.176 156.255C347.907 157.223 348.729 157.898 349.64 158.279C350.551 158.66 351.532 158.752 352.582 158.557C353.644 158.355 354.742 157.871 355.875 157.107C356.827 156.466 357.544 155.811 358.027 155.144C358.51 154.476 358.776 153.822 358.827 153.182C358.877 152.542 358.727 151.951 358.377 151.41C358.027 150.915 357.565 150.589 356.992 150.431C356.422 150.255 355.678 150.26 354.759 150.443C353.833 150.617 352.671 150.981 351.271 151.535L347.523 153.036C344.188 154.366 341.183 154.86 338.509 154.518C335.837 154.157 333.641 152.692 331.92 150.12C330.502 148.044 329.828 145.848 329.897 143.531C329.97 141.197 330.711 138.918 332.119 136.693C333.538 134.462 335.546 132.471 338.145 130.719C340.797 128.931 343.39 127.829 345.925 127.41C348.459 126.992 350.795 127.237 352.933 128.143C355.074 129.032 356.875 130.547 358.336 132.687L349.803 138.439Z" fill="#5988FF"/>
<path d="M419.685 97.2962C418.991 96.2049 418.093 95.5419 416.992 95.3073C415.901 95.0666 414.586 95.3527 413.046 96.1655C412.065 96.6834 411.325 97.2275 410.824 97.798C410.328 98.351 410.038 98.9052 409.952 99.4606C409.867 100.016 409.954 100.553 410.214 101.072C410.414 101.505 410.69 101.848 411.042 102.1C411.399 102.334 411.844 102.485 412.376 102.554C412.903 102.611 413.526 102.589 414.245 102.486C414.964 102.383 415.785 102.198 416.708 101.929L419.908 101.027C422.064 100.414 424.01 100.079 425.745 100.022C427.481 99.9661 429.029 100.162 430.39 100.61C431.744 101.046 432.925 101.72 433.932 102.632C434.951 103.537 435.819 104.653 436.536 105.98C437.742 108.288 438.196 110.541 437.9 112.738C437.603 114.935 436.614 117.01 434.932 118.962C433.262 120.907 430.944 122.663 427.978 124.229C424.933 125.836 422.037 126.789 419.291 127.087C416.557 127.379 414.068 126.922 411.825 125.716C409.587 124.492 407.688 122.419 406.127 119.496L415.161 114.728C415.785 115.769 416.529 116.527 417.394 117.004C418.258 117.48 419.224 117.677 420.289 117.596C421.367 117.508 422.51 117.145 423.719 116.507C424.734 115.971 425.517 115.397 426.069 114.785C426.621 114.173 426.956 113.552 427.075 112.921C427.193 112.29 427.107 111.686 426.817 111.11C426.523 110.581 426.099 110.207 425.546 109.989C424.998 109.753 424.258 109.678 423.325 109.762C422.386 109.835 421.191 110.072 419.74 110.474L415.851 111.564C412.393 112.53 409.353 112.699 406.73 112.072C404.113 111.427 402.087 109.735 400.652 106.994C399.465 104.778 399.031 102.522 399.348 100.226C399.671 97.9131 400.652 95.7263 402.291 93.6659C403.941 91.5996 406.152 89.8348 408.924 88.3716C411.752 86.8783 414.449 86.0596 417.014 85.9155C419.579 85.7714 421.875 86.2646 423.903 87.3951C425.936 88.5082 427.564 90.2069 428.787 92.4912L419.685 97.2962Z" fill="#5988FF"/>
<path d="M456.847 65.7385L466.649 61.3066L477.118 84.4134C478.362 87.1609 478.781 89.836 478.375 92.439C477.974 95.0248 476.852 97.3924 475.008 99.5418C473.158 101.68 470.688 103.447 467.597 104.845C464.482 106.253 461.511 106.946 458.683 106.923C455.849 106.888 453.328 106.168 451.119 104.762C448.917 103.339 447.193 101.253 445.948 98.5059L435.48 75.3991L445.282 70.9673L455.367 93.2287C455.873 94.3442 456.572 95.2306 457.464 95.888C458.351 96.5336 459.342 96.9064 460.435 97.0063C461.54 97.1009 462.65 96.8958 463.767 96.391C464.895 95.8808 465.783 95.1826 466.429 94.2962C467.075 93.4099 467.448 92.4207 467.548 91.3286C467.643 90.2249 467.438 89.1153 466.932 87.9998L456.847 65.7385Z" fill="#5988FF"/>
<path d="M493.773 92.9312L479.668 55.9321L495.655 49.8502C498.404 48.8045 501.015 48.4314 503.49 48.7311C505.965 49.0307 508.149 49.9442 510.043 51.4717C511.937 52.9991 513.384 55.0756 514.385 57.7012C515.395 60.3509 515.679 62.87 515.237 65.2586C514.806 67.6425 513.73 69.7621 512.008 71.6172C510.297 73.4676 508.032 74.9295 505.21 76.0028L495.662 79.6354L492.687 71.8309L500.21 68.9689C501.391 68.5194 502.32 67.9316 502.996 67.2057C503.679 66.4631 504.097 65.6215 504.249 64.681C504.413 63.7359 504.296 62.7394 503.896 61.6916C503.492 60.6317 502.919 59.8156 502.176 59.2431C501.441 58.6541 500.575 58.3213 499.58 58.245C498.592 58.1519 497.507 58.3302 496.326 58.7797L492.781 60.1281L503.828 89.1059L493.773 92.9312Z" fill="#5988FF"/>
<path d="M534.229 77.9023L522.344 40.1334L538.663 35.0084C541.469 34.1272 544.098 33.9094 546.551 34.355C549.004 34.8005 551.13 35.8418 552.93 37.4786C554.73 39.1154 556.051 41.274 556.895 43.9542C557.746 46.659 557.88 49.1905 557.297 51.5487C556.726 53.903 555.526 55.9551 553.696 57.705C551.879 59.451 549.53 60.7762 546.651 61.6806L536.903 64.7417L534.396 56.7748L542.076 54.363C543.282 53.9843 544.244 53.4525 544.962 52.7678C545.688 52.067 546.155 51.2516 546.362 50.3218C546.582 49.388 546.524 48.3864 546.188 47.3167C545.847 46.2348 545.323 45.3862 544.615 44.7708C543.916 44.1392 543.072 43.7559 542.083 43.6207C541.102 43.4694 540.009 43.5831 538.803 43.9619L535.185 45.0982L544.493 74.6789L534.229 77.9023Z" fill="#5988FF"/>
<path d="M575.545 65.3416L565.778 26.9715L576.206 24.3226L583.836 54.2992L599.365 50.3545L601.501 58.7479L575.545 65.3416Z" fill="#5988FF"/>
<path d="M612.201 56.3123L604.51 17.4737L632.53 11.9368L634.212 20.4328L616.747 23.8839L618.069 30.5593L634.091 27.3932L635.773 35.8892L619.751 39.0553L621.073 45.7307L638.462 42.2945L640.144 50.7905L612.201 56.3123Z" fill="#5988FF"/>
<path d="M665.091 6.61204L678.41 5.22879L689.893 26.5818L690.355 26.5338L697.195 3.27785L710.515 1.8946L714.613 41.2736L704.142 42.361L701.773 19.595L701.465 19.627L695.025 42.9968L688.712 43.6525L677.582 21.9518L677.274 21.9838L679.659 44.9036L669.189 45.991L665.091 6.61204Z" fill="#5988FF"/>
<path d="M737.266 40.2608L725.66 40.6028L737.568 0.643525L752.268 0.210396L766.512 39.3991L754.907 39.7411L745.394 11.3207L745.085 11.3298L737.266 40.2608ZM734.639 24.7115L756.457 24.0686L756.695 32.1071L734.876 32.75L734.639 24.7115Z" fill="#5988FF"/>
<path d="M776.904 39.5677L778.269 0L795.365 0.588226C798.305 0.689369 800.857 1.35748 803.022 2.59254C805.186 3.82761 806.845 5.51595 807.997 7.65755C809.15 9.79915 809.678 12.2739 809.581 15.0818C809.483 17.9154 808.767 20.3473 807.432 22.3775C806.11 24.4082 804.295 25.9448 801.987 26.9873C799.692 28.0302 797.036 28.4998 794.019 28.396L783.808 28.0446L784.095 19.6983L792.141 19.9751C793.404 20.0186 794.488 19.8367 795.393 19.4294C796.311 19.0096 797.023 18.3958 797.528 17.5879C798.047 16.7804 798.325 15.8164 798.364 14.6958C798.403 13.5624 798.191 12.5879 797.729 11.7725C797.28 10.9446 796.611 10.3027 795.723 9.84656C794.849 9.37803 793.78 9.12203 792.516 9.07855L788.726 8.94813L787.657 39.9377L776.904 39.5677Z" fill="#5988FF"/>
<path d="M843.847 16.29C843.865 14.9973 843.478 13.9512 842.685 13.1519C841.905 12.3537 840.648 11.8733 838.914 11.7105C837.809 11.6068 836.891 11.6565 836.159 11.8596C835.442 12.0511 834.895 12.3557 834.518 12.7735C834.142 13.1912 833.92 13.6882 833.853 14.2644C833.783 14.7367 833.826 15.1744 833.982 15.5774C834.153 15.9688 834.442 16.339 834.85 16.6879C835.259 17.0241 835.792 17.346 836.45 17.6537C837.108 17.9614 837.896 18.2555 838.816 18.536L841.987 19.5328C844.128 20.1997 845.939 20.9847 847.422 21.8876C848.905 22.7906 850.093 23.8017 850.985 24.9211C851.879 26.0276 852.497 27.2377 852.84 28.5514C853.196 29.8663 853.309 31.275 853.181 32.7775C852.924 35.3682 852.069 37.5014 850.616 39.1772C849.162 40.853 847.197 42.047 844.72 42.7594C842.255 43.473 839.354 43.673 836.014 43.3595C832.585 43.0375 829.64 42.2497 827.179 40.996C824.731 39.7436 822.9 37.9989 821.685 35.7619C820.484 33.5133 820.032 30.7396 820.33 27.4408L830.502 28.3959C830.453 29.608 830.66 30.65 831.122 31.5219C831.584 32.3937 832.283 33.0872 833.22 33.6023C834.169 34.1186 835.324 34.4406 836.686 34.5685C837.829 34.6758 838.799 34.6245 839.596 34.4146C840.393 34.2046 841.015 33.8681 841.46 33.4051C841.905 32.9421 842.164 32.3904 842.238 31.75C842.281 31.1457 842.132 30.601 841.789 30.1157C841.46 29.6188 840.882 29.1503 840.055 28.7103C839.23 28.2574 838.1 27.8018 836.666 27.3435L832.815 26.1276C829.393 25.0426 826.756 23.52 824.906 21.56C823.07 19.5883 822.304 17.0634 822.606 13.9851C822.829 11.4818 823.703 9.35676 825.228 7.61003C826.766 5.85167 828.786 4.55916 831.287 3.73251C833.801 2.90707 836.618 2.64087 839.74 2.93391C842.925 3.23298 845.63 4.02415 847.854 5.30741C850.079 6.59068 851.73 8.26016 852.806 10.3159C853.897 12.3599 854.327 14.6721 854.097 17.2524L843.847 16.29Z" fill="#5988FF"/>
<path d="M923.993 28.7803C924.15 27.4969 923.877 26.4154 923.174 25.5357C922.485 24.6586 921.286 24.0462 919.58 23.6986C918.493 23.4771 917.575 23.4282 916.825 23.5517C916.091 23.6653 915.515 23.9095 915.096 24.2845C914.677 24.6596 914.403 25.1299 914.274 25.6956C914.154 26.1577 914.15 26.5975 914.262 27.0149C914.389 27.4223 914.637 27.8213 915.005 28.212C915.375 28.59 915.871 28.9672 916.492 29.3436C917.113 29.72 917.866 30.0969 918.75 30.4743L921.796 31.8051C923.852 32.6974 925.569 33.6719 926.946 34.7285C928.324 35.7852 929.396 36.9177 930.163 38.1262C930.933 39.3221 931.418 40.5915 931.618 41.9343C931.83 43.2798 931.792 44.6925 931.503 46.1726C930.97 48.7208 929.891 50.7501 928.266 52.2606C926.641 53.771 924.559 54.7476 922.019 55.1905C919.492 55.6359 916.586 55.5239 913.299 54.8544C909.924 54.1669 907.081 53.0681 904.769 51.5581C902.47 50.0506 900.836 48.1198 899.868 45.7656C898.916 43.4013 898.764 40.5952 899.414 37.3472L909.426 39.3866C909.247 40.5865 909.34 41.6447 909.706 42.561C910.072 43.4773 910.693 44.2417 911.568 44.8541C912.457 45.4691 913.571 45.9131 914.911 46.186C916.036 46.4152 917.006 46.4682 917.821 46.3448C918.636 46.2215 919.29 45.9535 919.782 45.5409C920.275 45.1282 920.592 44.6075 920.733 43.9786C920.842 43.3826 920.751 42.8249 920.462 42.3057C920.189 41.7764 919.664 41.2487 918.89 40.7226C918.117 40.1839 917.043 39.6099 915.666 39.0006L911.968 37.3792C908.682 35.9338 906.225 34.1376 904.596 31.9907C902.982 29.8337 902.491 27.2411 903.122 24.213C903.612 21.748 904.709 19.7289 906.413 18.1556C908.131 16.5722 910.278 15.5036 912.854 14.9496C915.441 14.3982 918.271 14.4354 921.343 15.0611C924.478 15.6997 927.082 16.7761 929.156 18.2903C931.23 19.8045 932.692 21.6412 933.542 23.8003C934.406 25.9494 934.586 28.2944 934.081 30.8352L923.993 28.7803Z" fill="#5988FF"/>
<path d="M972.761 27.9391L983.153 30.726L976.57 55.2217C975.787 58.1343 974.412 60.4677 972.444 62.2218C970.492 63.9669 968.121 65.0857 965.331 65.5783C962.544 66.0584 959.512 65.859 956.235 64.9802C952.933 64.0946 950.196 62.7468 948.024 60.9367C945.856 59.1141 944.365 56.9593 943.55 54.4724C942.752 51.9764 942.744 49.2721 943.527 46.3595L950.11 21.8638L960.501 24.6508L954.159 48.2503C953.841 49.4328 953.818 50.5609 954.091 51.6348C954.367 52.6962 954.895 53.612 955.677 54.382C956.471 55.1554 957.459 55.7009 958.643 56.0183C959.839 56.3391 960.969 56.3618 962.031 56.0863C963.094 55.8108 964.01 55.2827 964.781 54.502C965.555 53.7088 966.101 52.721 966.419 51.5385L972.761 27.9391Z" fill="#5988FF"/>
<path d="M984.035 72.3623L996.63 34.8238L1012.85 40.255C1015.64 41.1889 1017.89 42.5559 1019.62 44.3561C1021.34 46.1562 1022.45 48.2468 1022.94 50.6277C1023.44 53.0086 1023.24 55.5309 1022.34 58.1948C1021.44 60.8831 1020.06 63.0102 1018.2 64.5762C1016.35 66.1462 1014.18 67.1024 1011.67 67.4446C1009.17 67.7909 1006.49 67.4848 1003.63 66.5264L993.939 63.2824L996.596 55.3642L1004.23 57.92C1005.43 58.3214 1006.52 58.4557 1007.5 58.3228C1008.5 58.1819 1009.36 57.7961 1010.07 57.1656C1010.8 56.5392 1011.34 55.6945 1011.7 54.6314C1012.06 53.556 1012.14 52.5617 1011.93 51.6485C1011.73 50.7271 1011.27 49.9214 1010.55 49.2315C1009.85 48.5334 1008.9 47.9837 1007.7 47.5823L1004.1 46.378L994.236 75.7783L984.035 72.3623Z" fill="#5988FF"/>
<path d="M1024.85 86.3869L1039.65 49.6598L1055.52 56.0414C1058.25 57.1387 1060.42 58.6368 1062.03 60.5358C1063.64 62.4347 1064.63 64.5872 1064.98 66.9931C1065.33 69.3991 1064.98 71.9052 1063.93 74.5115C1062.87 77.1417 1061.37 79.1834 1059.42 80.6365C1057.48 82.0945 1055.25 82.9201 1052.72 83.1132C1050.21 83.3111 1047.55 82.8469 1044.75 81.7208L1035.27 77.9091L1038.4 70.162L1045.86 73.1651C1047.04 73.6368 1048.12 73.8354 1049.11 73.761C1050.11 73.6794 1050.99 73.3451 1051.74 72.758C1052.51 72.1757 1053.1 71.3646 1053.52 70.3244C1053.94 69.2724 1054.08 68.2843 1053.92 67.3601C1053.78 66.4289 1053.37 65.5975 1052.69 64.8661C1052.03 64.1276 1051.11 63.5225 1049.94 63.0508L1046.42 61.6359L1034.83 90.4007L1024.85 86.3869Z" fill="#5988FF"/>
<path d="M1064.76 102.865L1081.58 67.0156L1091.32 71.577L1078.18 99.5842L1092.69 106.377L1089.01 114.219L1064.76 102.865Z" fill="#5988FF"/>
<path d="M1098.83 119.116L1117.55 84.2211L1142.73 97.7001L1138.63 105.333L1122.94 96.9319L1119.72 102.929L1134.12 110.637L1130.02 118.27L1115.63 110.563L1112.41 116.56L1128.03 124.925L1123.94 132.559L1098.83 119.116Z" fill="#5988FF"/>
<path d="M1171.28 114.221L1182.45 121.594L1177.77 145.377L1178.15 145.633L1198.21 131.992L1209.38 139.365L1187.54 172.401L1178.76 166.605L1191.39 147.506L1191.13 147.336L1171.31 161.318L1166.01 157.824L1171.19 133.996L1170.93 133.825L1158.22 153.053L1149.44 147.257L1171.28 114.221Z" fill="#5988FF"/>
<path d="M1205.7 185.977L1196.51 178.886L1231.09 155.546L1242.73 164.528L1228.85 203.848L1219.66 196.756L1230.36 168.76L1230.11 168.57L1205.7 185.977ZM1213.54 172.293L1230.81 185.625L1225.89 191.989L1208.62 178.657L1213.54 172.293Z" fill="#5988FF"/>
<path d="M1236.78 210.564L1262.96 180.844L1275.8 192.135C1278.01 194.076 1279.56 196.21 1280.45 198.537C1281.33 200.864 1281.54 203.22 1281.07 205.606C1280.61 207.992 1279.44 210.239 1277.58 212.348C1275.71 214.476 1273.61 215.902 1271.29 216.625C1268.98 217.357 1266.6 217.394 1264.15 216.737C1261.72 216.089 1259.37 214.769 1257.1 212.776L1249.43 206.033L1254.95 199.764L1261 205.077C1261.94 205.911 1262.9 206.458 1263.86 206.716C1264.83 206.974 1265.77 206.95 1266.68 206.646C1267.59 206.351 1268.42 205.782 1269.16 204.94C1269.91 204.089 1270.36 203.202 1270.52 202.278C1270.7 201.354 1270.59 200.434 1270.2 199.518C1269.82 198.602 1269.16 197.727 1268.21 196.892L1265.36 194.389L1244.85 217.666L1236.78 210.564Z" fill="#5988FF"/>
<path d="M1303.3 234.999C1304.14 234.011 1304.5 232.957 1304.4 231.837C1304.3 230.725 1303.64 229.557 1302.4 228.332C1301.61 227.552 1300.87 227.008 1300.17 226.702C1299.5 226.395 1298.88 226.284 1298.33 226.368C1297.77 226.452 1297.28 226.696 1296.86 227.099C1296.51 227.419 1296.27 227.785 1296.13 228.196C1296.01 228.606 1296 229.076 1296.1 229.604C1296.2 230.123 1296.41 230.71 1296.72 231.364C1297.03 232.019 1297.46 232.746 1297.99 233.546L1299.81 236.327C1301.04 238.199 1301.94 239.953 1302.51 241.591C1303.08 243.229 1303.36 244.763 1303.34 246.194C1303.33 247.616 1303.04 248.943 1302.47 250.176C1301.91 251.418 1301.1 252.579 1300.05 253.659C1298.2 255.499 1296.19 256.606 1294 256.98C1291.81 257.354 1289.53 257.031 1287.17 256.012C1284.81 255.002 1282.44 253.317 1280.06 250.958C1277.61 248.536 1275.83 246.06 1274.73 243.531C1273.63 241.012 1273.32 238.503 1273.81 236.003C1274.31 233.504 1275.72 231.074 1278.04 228.713L1285.3 235.898C1284.49 236.804 1283.99 237.74 1283.79 238.707C1283.6 239.674 1283.7 240.653 1284.09 241.645C1284.5 242.646 1285.19 243.627 1286.16 244.588C1286.97 245.396 1287.76 245.971 1288.51 246.314C1289.26 246.657 1289.95 246.791 1290.59 246.715C1291.23 246.639 1291.78 246.377 1292.24 245.929C1292.66 245.489 1292.89 244.974 1292.93 244.381C1292.99 243.788 1292.84 243.06 1292.48 242.196C1292.13 241.322 1291.55 240.254 1290.73 238.991L1288.53 235.611C1286.57 232.603 1285.5 229.755 1285.32 227.068C1285.15 224.38 1286.16 221.942 1288.35 219.755C1290.11 217.961 1292.14 216.872 1294.42 216.488C1296.73 216.105 1299.11 216.386 1301.57 217.332C1304.04 218.287 1306.38 219.867 1308.61 222.072C1310.88 224.322 1312.47 226.648 1313.38 229.049C1314.28 231.451 1314.5 233.788 1314.02 236.059C1313.57 238.33 1312.43 240.39 1310.62 242.239L1303.3 234.999Z" fill="#5988FF"/>
<path d="M1357.32 295.451C1358.26 294.558 1358.73 293.549 1358.75 292.424C1358.77 291.308 1358.24 290.075 1357.14 288.725C1356.44 287.865 1355.76 287.245 1355.1 286.866C1354.46 286.488 1353.86 286.312 1353.3 286.336C1352.74 286.36 1352.23 286.55 1351.77 286.906C1351.38 287.187 1351.1 287.524 1350.92 287.918C1350.76 288.314 1350.7 288.779 1350.74 289.314C1350.78 289.841 1350.93 290.447 1351.17 291.132C1351.41 291.816 1351.75 292.584 1352.19 293.436L1353.7 296.396C1354.73 298.389 1355.43 300.23 1355.83 301.92C1356.22 303.61 1356.33 305.165 1356.16 306.585C1355.99 307.997 1355.56 309.286 1354.86 310.45C1354.17 311.625 1353.24 312.693 1352.08 313.654C1350.05 315.285 1347.93 316.17 1345.71 316.308C1343.5 316.445 1341.27 315.881 1339.02 314.613C1336.79 313.356 1334.61 311.428 1332.5 308.827C1330.32 306.156 1328.82 303.505 1328 300.872C1327.18 298.25 1327.14 295.722 1327.89 293.289C1328.65 290.858 1330.32 288.593 1332.88 286.494L1339.33 294.416C1338.43 295.23 1337.83 296.107 1337.53 297.047C1337.23 297.987 1337.22 298.972 1337.51 300C1337.81 301.038 1338.38 302.088 1339.25 303.148C1339.97 304.038 1340.69 304.694 1341.4 305.115C1342.1 305.537 1342.78 305.744 1343.42 305.737C1344.07 305.73 1344.64 305.528 1345.15 305.132C1345.61 304.74 1345.9 304.252 1346 303.667C1346.13 303.085 1346.06 302.344 1345.79 301.447C1345.54 300.541 1345.07 299.416 1344.39 298.073L1342.57 294.476C1340.94 291.276 1340.19 288.33 1340.29 285.638C1340.41 282.948 1341.68 280.633 1344.09 278.692C1346.03 277.097 1348.16 276.232 1350.48 276.095C1352.81 275.961 1355.15 276.495 1357.5 277.699C1359.85 278.913 1362.01 280.736 1363.99 283.166C1366 285.647 1367.33 288.129 1367.97 290.614C1368.62 293.099 1368.58 295.446 1367.87 297.653C1367.17 299.862 1365.82 301.789 1363.81 303.432L1357.32 295.451Z" fill="#5988FF"/>
<path d="M1395.55 325.71L1401.81 334.45L1381.17 349.212C1378.71 350.967 1376.17 351.899 1373.53 352.008C1370.92 352.12 1368.37 351.482 1365.9 350.094C1363.44 348.699 1361.23 346.623 1359.25 343.867C1357.26 341.089 1356 338.313 1355.47 335.537C1354.96 332.754 1355.17 330.143 1356.12 327.705C1357.09 325.27 1358.8 323.174 1361.26 321.419L1381.9 306.657L1388.16 315.397L1368.27 329.619C1367.28 330.332 1366.54 331.189 1366.07 332.192C1365.61 333.187 1365.44 334.23 1365.55 335.321C1365.68 336.422 1366.09 337.47 1366.81 338.466C1367.53 339.472 1368.39 340.205 1369.38 340.666C1370.38 341.126 1371.42 341.299 1372.51 341.184C1373.62 341.062 1374.67 340.644 1375.66 339.932L1395.55 325.71Z" fill="#5988FF"/>
<path d="M1376.05 367.192L1409.63 346.159L1418.72 360.638C1420.28 363.127 1421.16 365.613 1421.34 368.097C1421.53 370.58 1421.06 372.898 1419.93 375.052C1418.8 377.205 1417.04 379.028 1414.66 380.52C1412.26 382.027 1409.84 382.796 1407.41 382.828C1404.98 382.871 1402.69 382.23 1400.53 380.904C1398.38 379.589 1396.51 377.654 1394.9 375.099L1389.48 366.451L1396.56 362.015L1400.83 368.828C1401.51 369.898 1402.26 370.693 1403.11 371.214C1403.97 371.738 1404.88 371.984 1405.83 371.949C1406.79 371.926 1407.75 371.617 1408.7 371.021C1409.66 370.419 1410.35 369.698 1410.77 368.858C1411.2 368.023 1411.36 367.11 1411.24 366.12C1411.14 365.134 1410.75 364.106 1410.08 363.036L1408.07 359.825L1381.77 376.299L1376.05 367.192Z" fill="#5988FF"/>
<path d="M1398.69 403.903L1433.46 384.894L1441.67 399.885C1443.08 402.462 1443.81 404.996 1443.85 407.486C1443.89 409.976 1443.28 412.263 1442.03 414.345C1440.77 416.428 1438.91 418.144 1436.44 419.493C1433.95 420.854 1431.49 421.479 1429.07 421.367C1426.64 421.267 1424.39 420.491 1422.32 419.039C1420.25 417.599 1418.49 415.557 1417.04 412.911L1412.14 403.958L1419.47 399.948L1423.33 407.002C1423.94 408.11 1424.65 408.949 1425.46 409.519C1426.29 410.094 1427.18 410.392 1428.14 410.414C1429.1 410.448 1430.07 410.196 1431.05 409.657C1432.05 409.113 1432.78 408.434 1433.25 407.621C1433.73 406.812 1433.94 405.911 1433.88 404.915C1433.84 403.925 1433.52 402.875 1432.91 401.767L1431.09 398.444L1403.86 413.332L1398.69 403.903Z" fill="#5988FF"/>
<path d="M1419.08 441.935L1454.85 424.885L1459.48 434.586L1431.54 447.906L1438.44 462.352L1430.61 466.082L1419.08 441.935Z" fill="#5988FF"/>
<path d="M1435.09 476.09L1471.73 460.983L1482.62 487.358L1474.61 490.662L1467.82 474.223L1461.52 476.819L1467.75 491.901L1459.74 495.205L1453.51 480.124L1447.21 482.721L1453.98 499.089L1445.96 502.393L1435.09 476.09Z" fill="#5988FF"/>
<path d="M1494.2 518.223L1498.16 531.004L1479.43 546.418L1479.57 546.861L1503.73 549.03L1507.69 561.811L1469.83 573.503L1466.72 563.456L1488.61 556.696L1488.51 556.401L1464.31 554.647L1462.44 548.589L1481.58 533.453L1481.48 533.158L1459.45 539.963L1456.34 529.916L1494.2 518.223Z" fill="#5988FF"/>
<path d="M1475.23 595.501L1472.64 584.197L1514.19 588.073L1517.48 602.393L1481.78 623.989L1479.18 612.685L1505.23 597.824L1505.16 597.522L1475.23 595.501ZM1489.99 589.896L1494.87 611.149L1487.03 612.948L1482.14 591.695L1489.99 589.896Z" fill="#5988FF"/>
<path d="M1483.64 634.205L1522.76 627.828L1525.51 644.694C1525.99 647.594 1525.83 650.225 1525.04 652.587C1524.25 654.949 1522.91 656.903 1521.03 658.45C1519.16 659.996 1516.83 660.996 1514.05 661.449C1511.25 661.905 1508.72 661.678 1506.47 660.765C1504.22 659.866 1502.36 658.387 1500.88 656.329C1499.41 654.284 1498.43 651.773 1497.95 648.796L1496.3 638.723L1504.55 637.377L1505.85 645.314C1506.05 646.561 1506.44 647.588 1507.02 648.395C1507.61 649.212 1508.35 649.79 1509.24 650.128C1510.14 650.478 1511.14 650.563 1512.25 650.383C1513.37 650.2 1514.28 649.803 1514.99 649.191C1515.72 648.589 1516.22 647.809 1516.49 646.85C1516.78 645.902 1516.82 644.805 1516.62 643.558L1516.01 639.819L1485.38 644.813L1483.64 634.205Z" fill="#5988FF"/>
<path d="M1519.55 695.26C1520.82 695.026 1521.77 694.442 1522.4 693.509C1523.03 692.589 1523.26 691.264 1523.08 689.533C1522.97 688.431 1522.74 687.541 1522.4 686.863C1522.07 686.198 1521.67 685.721 1521.18 685.434C1520.7 685.147 1520.17 685.026 1519.59 685.073C1519.11 685.096 1518.69 685.224 1518.32 685.455C1517.97 685.699 1517.67 686.054 1517.4 686.522C1517.15 686.988 1516.94 687.573 1516.77 688.278C1516.59 688.982 1516.46 689.812 1516.36 690.768L1516 694.07C1515.76 696.297 1515.35 698.225 1514.75 699.854C1514.15 701.483 1513.39 702.844 1512.47 703.936C1511.55 705.028 1510.49 705.869 1509.26 706.462C1508.04 707.066 1506.68 707.452 1505.18 707.62C1502.59 707.873 1500.33 707.451 1498.4 706.354C1496.47 705.256 1494.91 703.564 1493.73 701.275C1492.55 699 1491.79 696.196 1491.44 692.862C1491.09 689.439 1491.29 686.4 1492.04 683.745C1492.79 681.102 1494.15 678.968 1496.11 677.341C1498.08 675.726 1500.72 674.743 1504.02 674.391L1505.06 684.545C1503.86 684.733 1502.88 685.138 1502.11 685.761C1501.35 686.384 1500.8 687.204 1500.48 688.222C1500.16 689.253 1500.07 690.448 1500.21 691.806C1500.32 692.947 1500.56 693.888 1500.92 694.628C1501.29 695.368 1501.74 695.911 1502.28 696.257C1502.82 696.603 1503.41 696.75 1504.06 696.697C1504.66 696.622 1505.16 696.369 1505.57 695.938C1506 695.519 1506.34 694.862 1506.61 693.966C1506.9 693.069 1507.13 691.873 1507.3 690.378L1507.74 686.368C1508.14 682.803 1509.12 679.924 1510.68 677.729C1512.26 675.546 1514.59 674.302 1517.67 673.999C1520.17 673.729 1522.43 674.17 1524.44 675.324C1526.47 676.489 1528.13 678.216 1529.43 680.505C1530.73 682.807 1531.54 685.516 1531.86 688.631C1532.19 691.811 1531.94 694.615 1531.11 697.045C1530.29 699.475 1528.97 701.418 1527.16 702.873C1525.37 704.34 1523.18 705.213 1520.6 705.491L1519.55 695.26Z" fill="#5988FF"/>
</svg>
