<svg width="1700" height="1701" viewBox="0 0 1700 1701" fill="none" xmlns="http://www.w3.org/2000/svg">
<path d="M1342.99 173.117C1343.65 172.009 1343.85 170.909 1343.57 169.817C1343.3 168.733 1342.46 167.683 1341.04 166.666C1340.14 166.019 1339.32 165.598 1338.59 165.404C1337.87 165.207 1337.25 165.194 1336.71 165.365C1336.18 165.537 1335.73 165.854 1335.38 166.318C1335.09 166.691 1334.9 167.091 1334.83 167.519C1334.78 167.943 1334.84 168.409 1335.02 168.917C1335.2 169.414 1335.5 169.962 1335.91 170.56C1336.33 171.158 1336.86 171.811 1337.51 172.518L1339.74 174.982C1341.25 176.639 1342.42 178.233 1343.24 179.762C1344.07 181.292 1344.58 182.766 1344.79 184.184C1345 185.592 1344.92 186.951 1344.55 188.26C1344.2 189.576 1343.58 190.851 1342.71 192.086C1341.18 194.196 1339.37 195.608 1337.26 196.323C1335.16 197.037 1332.86 197.077 1330.37 196.442C1327.88 195.814 1325.27 194.521 1322.55 192.564C1319.75 190.553 1317.61 188.385 1316.12 186.058C1314.64 183.739 1313.94 181.306 1314.02 178.758C1314.12 176.208 1315.13 173.582 1317.06 170.88L1325.35 176.843C1324.7 177.866 1324.35 178.872 1324.31 179.859C1324.27 180.846 1324.52 181.799 1325.07 182.717C1325.63 183.643 1326.46 184.505 1327.57 185.303C1328.5 185.973 1329.37 186.419 1330.16 186.64C1330.95 186.861 1331.66 186.884 1332.28 186.708C1332.9 186.533 1333.4 186.187 1333.79 185.67C1334.13 185.17 1334.28 184.623 1334.22 184.031C1334.19 183.435 1333.93 182.738 1333.44 181.94C1332.95 181.131 1332.21 180.167 1331.2 179.046L1328.49 176.05C1326.09 173.384 1324.58 170.736 1323.98 168.107C1323.39 165.475 1324 162.905 1325.82 160.397C1327.28 158.345 1329.1 156.949 1331.3 156.209C1333.52 155.466 1335.91 155.369 1338.49 155.917C1341.08 156.473 1343.64 157.666 1346.19 159.496C1348.79 161.363 1350.72 163.413 1351.99 165.646C1353.26 167.879 1353.85 170.156 1353.74 172.477C1353.64 174.795 1352.85 177.012 1351.35 179.126L1342.99 173.117Z" fill="#5988FF"/>
<path d="M1387.77 192.058L1396.15 198.808L1380.23 218.594C1378.34 220.947 1376.14 222.53 1373.63 223.342C1371.14 224.153 1368.52 224.22 1365.77 223.545C1363.02 222.859 1360.33 221.451 1357.69 219.322C1355.03 217.177 1353.07 214.837 1351.81 212.301C1350.57 209.755 1350.07 207.179 1350.33 204.571C1350.61 201.961 1351.7 199.48 1353.59 197.128L1369.51 177.342L1377.88 184.093L1362.55 203.155C1361.78 204.11 1361.3 205.134 1361.12 206.228C1360.94 207.312 1361.06 208.365 1361.46 209.386C1361.87 210.416 1362.56 211.315 1363.51 212.084C1364.48 212.861 1365.5 213.338 1366.58 213.514C1367.67 213.691 1368.72 213.577 1369.74 213.173C1370.77 212.759 1371.67 212.075 1372.43 211.12L1387.77 192.058Z" fill="#5988FF"/>
<path d="M1380.19 237.313L1406.7 207.841L1419.41 219.29C1421.6 221.259 1423.12 223.413 1423.98 225.753C1424.85 228.093 1425.03 230.455 1424.54 232.839C1424.04 235.224 1422.85 237.461 1420.97 239.553C1419.07 241.663 1416.96 243.068 1414.63 243.766C1412.31 244.473 1409.93 244.484 1407.49 243.799C1405.07 243.123 1402.73 241.774 1400.49 239.754L1392.89 232.915L1398.49 226.698L1404.47 232.086C1405.41 232.933 1406.35 233.49 1407.31 233.76C1408.28 234.029 1409.22 234.016 1410.13 233.721C1411.05 233.435 1411.88 232.875 1412.63 232.04C1413.39 231.196 1413.85 230.313 1414.02 229.39C1414.21 228.466 1414.12 227.543 1413.73 226.622C1413.36 225.7 1412.71 224.816 1411.77 223.97L1408.95 221.431L1388.19 244.514L1380.19 237.313Z" fill="#5988FF"/>
<path d="M1412.09 266.458L1440.13 238.442L1452.22 250.553C1454.29 252.636 1455.7 254.868 1456.44 257.251C1457.17 259.634 1457.23 262.002 1456.61 264.356C1455.99 266.711 1454.68 268.882 1452.69 270.87C1450.68 272.876 1448.5 274.166 1446.14 274.739C1443.78 275.322 1441.41 275.206 1439.01 274.392C1436.62 273.587 1434.36 272.116 1432.23 269.978L1425.01 262.744L1430.92 256.835L1436.61 262.534C1437.5 263.429 1438.42 264.037 1439.36 264.357C1440.32 264.677 1441.26 264.714 1442.18 264.469C1443.11 264.232 1443.97 263.717 1444.76 262.924C1445.57 262.121 1446.08 261.264 1446.3 260.351C1446.54 259.438 1446.49 258.512 1446.15 257.572C1445.83 256.631 1445.23 255.714 1444.33 254.819L1441.65 252.133L1419.69 274.076L1412.09 266.458Z" fill="#5988FF"/>
<path d="M1442.38 297.315L1471.78 270.735L1478.99 278.724L1456.02 299.489L1466.76 311.385L1460.33 317.199L1442.38 297.315Z" fill="#5988FF"/>
<path d="M1467.52 325.538L1498.17 300.41L1516.27 322.516L1509.56 328.013L1498.28 314.234L1493.01 318.553L1503.36 331.194L1496.66 336.69L1486.31 324.05L1481.04 328.369L1492.27 342.088L1485.57 347.584L1467.52 325.538Z" fill="#5988FF"/>
<path d="M1536.23 348.422L1543.83 359.451L1530.58 379.79L1530.85 380.172L1554.55 375.005L1562.15 386.034L1529.54 408.549L1523.56 399.879L1542.42 386.863L1542.24 386.608L1518.63 392.181L1515.03 386.954L1528.75 366.758L1528.57 366.503L1509.59 379.608L1503.61 370.938L1536.23 348.422Z" fill="#5988FF"/>
<path d="M1541.43 427.924L1535.49 417.943L1576.22 408.896L1583.75 421.537L1556.4 453.074L1550.46 443.094L1570.69 420.938L1570.53 420.672L1541.43 427.924ZM1553.75 418.055L1564.92 436.818L1558.01 440.939L1546.84 422.177L1553.75 418.055Z" fill="#5988FF"/>
<path d="M1561.37 462.258L1596.52 443.957L1604.41 459.14C1605.77 461.75 1606.44 464.303 1606.43 466.797C1606.42 469.291 1605.76 471.568 1604.46 473.627C1603.16 475.685 1601.27 477.364 1598.77 478.663C1596.26 479.973 1593.78 480.547 1591.36 480.384C1588.94 480.233 1586.71 479.409 1584.67 477.912C1582.63 476.426 1580.91 474.344 1579.52 471.664L1574.8 462.596L1582.22 458.735L1585.93 465.88C1586.52 467.002 1587.21 467.857 1588.01 468.445C1588.83 469.038 1589.71 469.355 1590.66 469.398C1591.62 469.452 1592.6 469.219 1593.59 468.701C1594.6 468.177 1595.35 467.512 1595.83 466.708C1596.33 465.909 1596.56 465.011 1596.52 464.012C1596.5 463.02 1596.2 461.962 1595.61 460.84L1593.86 457.474L1566.33 471.807L1561.37 462.258Z" fill="#5988FF"/>
<path d="M1614.67 508.931C1615.8 508.303 1616.52 507.446 1616.82 506.36C1617.12 505.285 1616.91 503.955 1616.19 502.368C1615.74 501.358 1615.24 500.585 1614.7 500.051C1614.17 499.523 1613.64 499.2 1613.09 499.081C1612.54 498.963 1612 499.018 1611.46 499.246C1611.02 499.42 1610.66 499.675 1610.39 500.012C1610.13 500.355 1609.95 500.79 1609.85 501.318C1609.76 501.84 1609.75 502.463 1609.81 503.187C1609.87 503.912 1610 504.743 1610.22 505.681L1610.93 508.93C1611.41 511.12 1611.63 513.084 1611.58 514.821C1611.54 516.558 1611.25 518.092 1610.72 519.424C1610.2 520.751 1609.46 521.89 1608.49 522.841C1607.52 523.805 1606.36 524.605 1604.99 525.241C1602.61 526.308 1600.33 526.627 1598.16 526.199C1595.98 525.772 1593.96 524.66 1592.12 522.864C1590.27 521.08 1588.66 518.66 1587.27 515.604C1585.84 512.467 1585.06 509.518 1584.93 506.757C1584.8 504.009 1585.41 501.55 1586.75 499.382C1588.1 497.22 1590.29 495.448 1593.3 494.064L1597.52 503.371C1596.45 503.932 1595.65 504.629 1595.12 505.465C1594.59 506.3 1594.34 507.252 1594.35 508.322C1594.38 509.403 1594.67 510.566 1595.24 511.812C1595.71 512.857 1596.24 513.674 1596.82 514.262C1597.39 514.849 1598 515.221 1598.62 515.377C1599.24 515.534 1599.85 515.484 1600.44 515.229C1600.99 514.966 1601.39 514.565 1601.64 514.026C1601.91 513.493 1602.03 512.758 1602 511.821C1601.98 510.879 1601.82 509.671 1601.5 508.198L1600.64 504.25C1599.89 500.738 1599.9 497.692 1600.68 495.11C1601.48 492.535 1603.29 490.612 1606.12 489.343C1608.4 488.29 1610.68 487.991 1612.95 488.445C1615.25 488.906 1617.37 490.016 1619.33 491.776C1621.3 493.547 1622.93 495.861 1624.23 498.717C1625.55 501.631 1626.21 504.373 1626.2 506.943C1626.19 509.513 1625.56 511.777 1624.31 513.735C1623.08 515.699 1621.28 517.224 1618.93 518.309L1614.67 508.931Z" fill="#5988FF"/>
<path d="M1644.03 584.358C1645.22 583.842 1646.02 583.058 1646.42 582.006C1646.83 580.966 1646.75 579.621 1646.19 577.973C1645.83 576.923 1645.4 576.106 1644.92 575.522C1644.45 574.946 1643.95 574.572 1643.41 574.401C1642.87 574.23 1642.33 574.232 1641.78 574.408C1641.32 574.538 1640.93 574.758 1640.63 575.066C1640.34 575.383 1640.12 575.799 1639.97 576.315C1639.84 576.826 1639.76 577.445 1639.75 578.172C1639.74 578.898 1639.8 579.739 1639.92 580.693L1640.31 583.996C1640.58 586.222 1640.61 588.198 1640.4 589.922C1640.18 591.646 1639.75 593.146 1639.09 594.42C1638.45 595.691 1637.6 596.753 1636.54 597.606C1635.49 598.472 1634.25 599.156 1632.83 599.657C1630.36 600.489 1628.06 600.587 1625.93 599.951C1623.81 599.315 1621.91 598.014 1620.24 596.048C1618.58 594.094 1617.2 591.529 1616.12 588.354C1615 585.094 1614.51 582.083 1614.64 579.323C1614.78 576.575 1615.62 574.186 1617.16 572.157C1618.72 570.136 1621.07 568.583 1624.2 567.496L1627.51 577.168C1626.38 577.622 1625.51 578.239 1624.91 579.02C1624.3 579.8 1623.96 580.723 1623.87 581.789C1623.79 582.868 1623.97 584.054 1624.41 585.348C1624.79 586.435 1625.23 587.299 1625.75 587.94C1626.27 588.581 1626.83 589.009 1627.44 589.224C1628.04 589.44 1628.65 589.449 1629.27 589.252C1629.84 589.044 1630.27 588.683 1630.57 588.17C1630.89 587.666 1631.08 586.946 1631.14 586.011C1631.22 585.071 1631.17 583.853 1631 582.357L1630.53 578.344C1630.11 574.776 1630.42 571.744 1631.44 569.25C1632.49 566.764 1634.48 565.026 1637.41 564.035C1639.79 563.207 1642.08 563.13 1644.3 563.802C1646.54 564.482 1648.55 565.792 1650.33 567.733C1652.12 569.686 1653.52 572.146 1654.53 575.114C1655.57 578.142 1655.96 580.935 1655.7 583.492C1655.44 586.05 1654.6 588.242 1653.17 590.07C1651.75 591.906 1649.82 593.25 1647.37 594.103L1644.03 584.358Z" fill="#5988FF"/>
<path d="M1669.56 625.765L1672.48 636.126L1648.05 643.019C1645.15 643.839 1642.44 643.852 1639.92 643.06C1637.42 642.276 1635.25 640.811 1633.4 638.665C1631.56 636.515 1630.18 633.806 1629.26 630.539C1628.33 627.247 1628.09 624.204 1628.54 621.409C1629 618.611 1630.09 616.225 1631.81 614.251C1633.54 612.285 1635.87 610.893 1638.77 610.073L1663.2 603.18L1666.12 613.541L1642.58 620.182C1641.4 620.515 1640.42 621.073 1639.64 621.858C1638.87 622.639 1638.35 623.562 1638.09 624.629C1637.83 625.708 1637.87 626.837 1638.2 628.017C1638.53 629.21 1639.09 630.192 1639.87 630.964C1640.65 631.737 1641.58 632.254 1642.64 632.517C1643.72 632.776 1644.85 632.739 1646.03 632.406L1669.56 625.765Z" fill="#5988FF"/>
<path d="M1637.18 658.252L1675.85 649.605L1679.58 666.308C1680.22 669.18 1680.22 671.82 1679.56 674.228C1678.91 676.635 1677.69 678.666 1675.91 680.322C1674.12 681.977 1671.86 683.112 1669.12 683.725C1666.35 684.345 1663.81 684.264 1661.51 683.482C1659.21 682.714 1657.26 681.343 1655.67 679.371C1654.09 677.411 1652.96 674.958 1652.31 672.01L1650.08 662.034L1658.24 660.21L1659.99 668.07C1660.27 669.305 1660.72 670.308 1661.34 671.082C1661.97 671.865 1662.75 672.4 1663.66 672.686C1664.57 672.984 1665.57 673.011 1666.67 672.766C1667.78 672.519 1668.67 672.068 1669.34 671.415C1670.03 670.772 1670.48 669.963 1670.7 668.988C1670.94 668.023 1670.92 666.923 1670.64 665.689L1669.81 661.985L1639.53 668.757L1637.18 658.252Z" fill="#5988FF"/>
<path d="M1646.3 700.504L1685.38 693.932L1688.21 710.81C1688.7 713.712 1688.55 716.348 1687.77 718.717C1686.99 721.087 1685.67 723.05 1683.8 724.608C1681.93 726.166 1679.61 727.178 1676.83 727.645C1674.04 728.115 1671.51 727.899 1669.25 726.996C1667 726.106 1665.13 724.634 1663.64 722.579C1662.16 720.538 1661.17 718.028 1660.67 715.05L1658.98 704.968L1667.22 703.582L1668.55 711.525C1668.76 712.772 1669.16 713.799 1669.74 714.604C1670.33 715.42 1671.08 715.995 1671.97 716.329C1672.87 716.676 1673.87 716.757 1674.97 716.571C1676.09 716.382 1677.01 715.98 1677.71 715.364C1678.44 714.758 1678.93 713.974 1679.2 713.013C1679.49 712.062 1679.52 710.962 1679.32 709.715L1678.69 705.973L1648.08 711.12L1646.3 700.504Z" fill="#5988FF"/>
<path d="M1653.11 743.214L1692.47 738.604L1693.72 749.295L1662.97 752.897L1664.83 768.819L1656.23 769.828L1653.11 743.214Z" fill="#5988FF"/>
<path d="M1657.26 780.796L1696.79 778.093L1698.74 806.604L1690.09 807.195L1688.88 789.424L1682.08 789.889L1683.2 806.192L1674.55 806.783L1673.43 790.48L1666.64 790.945L1667.85 808.638L1659.2 809.229L1657.26 780.796Z" fill="#5988FF"/>
<path d="M1700 839.29L1699.81 852.686L1677.24 861.581L1677.23 862.046L1699.54 871.581L1699.35 884.977L1659.73 884.412L1659.88 873.881L1682.79 874.208L1682.79 873.898L1660.32 864.748L1660.41 858.398L1683.29 849.895L1683.29 849.585L1660.23 849.256L1660.38 838.725L1700 839.29Z" fill="#5988FF"/>
<path d="M1658.2 907.1L1659.14 895.521L1697.58 911.771L1696.39 926.437L1655.84 936.278L1656.78 924.699L1686.1 918.376L1686.12 918.067L1658.2 907.1ZM1673.96 906.203L1672.2 927.97L1664.18 927.32L1665.94 905.552L1673.96 906.203Z" fill="#5988FF"/>
<path d="M1654.57 946.644L1693.82 952.114L1691.46 969.065C1691.05 971.98 1690.12 974.45 1688.67 976.476C1687.21 978.502 1685.36 979.977 1683.11 980.901C1680.86 981.826 1678.34 982.094 1675.55 981.706C1672.74 981.314 1670.4 980.348 1668.52 978.809C1666.63 977.282 1665.29 975.316 1664.49 972.911C1663.69 970.519 1663.5 967.828 1663.92 964.836L1665.33 954.711L1673.6 955.865L1672.49 963.842C1672.32 965.095 1672.39 966.193 1672.7 967.135C1673.02 968.092 1673.56 968.865 1674.31 969.451C1675.06 970.051 1675.99 970.429 1677.1 970.583C1678.23 970.74 1679.22 970.631 1680.08 970.255C1680.95 969.895 1681.66 969.296 1682.2 968.46C1682.76 967.638 1683.13 966.601 1683.3 965.348L1683.82 961.59L1653.09 957.306L1654.57 946.644Z" fill="#5988FF"/>
<path d="M1670.98 1015.59C1672.27 1015.74 1673.35 1015.45 1674.22 1014.74C1675.09 1014.04 1675.69 1012.84 1676.02 1011.13C1676.24 1010.04 1676.28 1009.12 1676.14 1008.37C1676.02 1007.64 1675.77 1007.06 1675.4 1006.65C1675.02 1006.23 1674.54 1005.96 1673.98 1005.84C1673.51 1005.72 1673.07 1005.72 1672.65 1005.84C1672.25 1005.97 1671.85 1006.22 1671.46 1006.59C1671.09 1006.97 1670.72 1007.47 1670.35 1008.09C1669.97 1008.72 1669.6 1009.47 1669.24 1010.36L1667.93 1013.42C1667.06 1015.49 1666.1 1017.21 1665.06 1018.6C1664.01 1019.99 1662.89 1021.07 1661.69 1021.85C1660.5 1022.63 1659.23 1023.13 1657.89 1023.34C1656.54 1023.57 1655.13 1023.54 1653.65 1023.27C1651.09 1022.76 1649.05 1021.7 1647.52 1020.09C1646 1018.48 1645 1016.4 1644.53 1013.87C1644.06 1011.34 1644.15 1008.43 1644.79 1005.14C1645.44 1001.76 1646.51 998.901 1648 996.574C1649.49 994.259 1651.41 992.607 1653.75 991.616C1656.11 990.641 1658.92 990.463 1662.17 991.082L1660.23 1001.12C1659.03 1000.95 1657.97 1001.05 1657.05 1001.43C1656.14 1001.8 1655.38 1002.43 1654.78 1003.31C1654.17 1004.21 1653.74 1005.33 1653.48 1006.67C1653.26 1007.8 1653.21 1008.77 1653.34 1009.58C1653.48 1010.4 1653.75 1011.05 1654.17 1011.54C1654.58 1012.03 1655.11 1012.34 1655.74 1012.47C1656.34 1012.58 1656.89 1012.48 1657.41 1012.19C1657.94 1011.91 1658.46 1011.38 1658.98 1010.6C1659.51 1009.82 1660.08 1008.74 1660.67 1007.36L1662.26 1003.64C1663.68 1000.34 1665.45 997.865 1667.58 996.215C1669.73 994.581 1672.32 994.065 1675.35 994.667C1677.82 995.134 1679.86 996.213 1681.45 997.902C1683.05 999.607 1684.14 1001.74 1684.72 1004.32C1685.29 1006.9 1685.28 1009.73 1684.68 1012.81C1684.08 1015.95 1683.02 1018.57 1681.53 1020.66C1680.03 1022.75 1678.21 1024.23 1676.05 1025.1C1673.91 1025.98 1671.57 1026.18 1669.02 1025.7L1670.98 1015.59Z" fill="#5988FF"/>
<path d="M1651.23 1094.09C1652.5 1094.36 1653.6 1094.18 1654.54 1093.56C1655.47 1092.95 1656.19 1091.81 1656.68 1090.14C1657 1089.07 1657.13 1088.16 1657.07 1087.4C1657.02 1086.66 1656.83 1086.07 1656.49 1085.61C1656.15 1085.16 1655.71 1084.85 1655.16 1084.67C1654.71 1084.51 1654.27 1084.47 1653.84 1084.55C1653.42 1084.64 1653 1084.85 1652.58 1085.18C1652.17 1085.52 1651.75 1085.98 1651.33 1086.57C1650.9 1087.15 1650.45 1087.87 1650 1088.72L1648.41 1091.64C1647.34 1093.61 1646.22 1095.24 1645.05 1096.52C1643.87 1097.8 1642.65 1098.77 1641.38 1099.43C1640.12 1100.09 1638.81 1100.46 1637.46 1100.54C1636.1 1100.64 1634.69 1100.48 1633.24 1100.06C1630.75 1099.31 1628.82 1098.05 1627.45 1096.3C1626.09 1094.55 1625.3 1092.39 1625.08 1089.82C1624.85 1087.26 1625.22 1084.38 1626.17 1081.16C1627.15 1077.86 1628.49 1075.12 1630.2 1072.94C1631.9 1070.78 1633.97 1069.32 1636.4 1068.56C1638.84 1067.82 1641.65 1067.92 1644.83 1068.85L1641.93 1078.65C1640.75 1078.36 1639.68 1078.36 1638.74 1078.65C1637.79 1078.93 1636.98 1079.49 1636.29 1080.31C1635.6 1081.14 1635.06 1082.21 1634.67 1083.52C1634.34 1084.62 1634.21 1085.58 1634.26 1086.41C1634.31 1087.23 1634.52 1087.91 1634.89 1088.43C1635.26 1088.96 1635.75 1089.32 1636.37 1089.52C1636.95 1089.68 1637.51 1089.64 1638.06 1089.39C1638.61 1089.17 1639.18 1088.69 1639.77 1087.96C1640.38 1087.24 1641.04 1086.22 1641.77 1084.9L1643.71 1081.36C1645.43 1078.21 1647.44 1075.91 1649.72 1074.48C1652.01 1073.06 1654.64 1072.79 1657.6 1073.69C1660.02 1074.39 1661.94 1075.66 1663.36 1077.5C1664.79 1079.35 1665.66 1081.58 1665.99 1084.19C1666.32 1086.82 1666.03 1089.64 1665.14 1092.65C1664.23 1095.71 1662.93 1098.22 1661.24 1100.15C1659.55 1102.09 1657.59 1103.38 1655.37 1104.04C1653.15 1104.72 1650.8 1104.69 1648.31 1103.97L1651.23 1094.09Z" fill="#5988FF"/>
<path d="M1648.06 1142.64L1644.44 1152.78L1620.54 1144.23C1617.7 1143.21 1615.48 1141.65 1613.89 1139.55C1612.31 1137.46 1611.38 1135 1611.12 1132.18C1610.86 1129.36 1611.31 1126.36 1612.45 1123.16C1613.6 1119.94 1615.17 1117.32 1617.15 1115.3C1619.14 1113.29 1621.41 1111.97 1623.96 1111.36C1626.51 1110.77 1629.21 1110.98 1632.05 1112L1655.95 1120.55L1652.33 1130.68L1629.31 1122.45C1628.15 1122.03 1627.03 1121.92 1625.94 1122.1C1624.85 1122.29 1623.9 1122.75 1623.07 1123.46C1622.23 1124.19 1621.61 1125.13 1621.19 1126.29C1620.78 1127.45 1620.66 1128.58 1620.85 1129.66C1621.04 1130.74 1621.49 1131.7 1622.21 1132.53C1622.94 1133.37 1623.88 1133.99 1625.03 1134.41L1648.06 1142.64Z" fill="#5988FF"/>
<path d="M1602.86 1150.34L1639.38 1165.72L1632.75 1181.49C1631.61 1184.21 1630.07 1186.35 1628.15 1187.94C1626.22 1189.52 1624.05 1190.47 1621.64 1190.78C1619.23 1191.1 1616.72 1190.71 1614.13 1189.62C1611.52 1188.52 1609.5 1186.98 1608.07 1185.01C1606.65 1183.05 1605.85 1180.8 1605.7 1178.28C1605.54 1175.76 1606.05 1173.11 1607.22 1170.32L1611.18 1160.9L1618.88 1164.14L1615.76 1171.57C1615.27 1172.73 1615.06 1173.81 1615.11 1174.8C1615.18 1175.81 1615.5 1176.7 1616.08 1177.46C1616.65 1178.23 1617.45 1178.83 1618.48 1179.27C1619.53 1179.71 1620.52 1179.86 1621.44 1179.72C1622.38 1179.59 1623.22 1179.2 1623.96 1178.53C1624.71 1177.88 1625.33 1176.97 1625.82 1175.8L1627.29 1172.31L1598.69 1160.26L1602.86 1150.34Z" fill="#5988FF"/>
<path d="M1585.82 1190.06L1621.47 1207.37L1614.01 1222.77C1612.73 1225.41 1611.08 1227.48 1609.07 1228.96C1607.07 1230.43 1604.85 1231.27 1602.42 1231.45C1600 1231.64 1597.52 1231.12 1594.99 1229.89C1592.44 1228.65 1590.5 1227.01 1589.18 1224.96C1587.86 1222.93 1587.19 1220.64 1587.17 1218.11C1587.15 1215.59 1587.79 1212.97 1589.11 1210.25L1593.57 1201.05L1601.09 1204.7L1597.58 1211.95C1597.03 1213.09 1596.75 1214.15 1596.76 1215.15C1596.77 1216.16 1597.04 1217.06 1597.58 1217.85C1598.11 1218.65 1598.88 1219.29 1599.89 1219.78C1600.91 1220.28 1601.88 1220.48 1602.82 1220.39C1603.76 1220.31 1604.62 1219.96 1605.39 1219.34C1606.18 1218.73 1606.84 1217.85 1607.39 1216.71L1609.05 1213.3L1581.13 1199.75L1585.82 1190.06Z" fill="#5988FF"/>
<path d="M1566.64 1228.82L1601.38 1247.88L1596.21 1257.32L1569.07 1242.43L1561.37 1256.48L1553.77 1252.31L1566.64 1228.82Z" fill="#5988FF"/>
<path d="M1548.26 1261.85L1582.04 1282.58L1567.11 1306.94L1559.73 1302.41L1569.03 1287.22L1563.22 1283.66L1554.69 1297.59L1547.3 1293.06L1555.83 1279.13L1550.03 1275.56L1540.76 1290.68L1533.37 1286.15L1548.26 1261.85Z" fill="#5988FF"/>
<path d="M1549.22 1334.31L1541.3 1345.12L1517.76 1339.27L1517.48 1339.65L1530.14 1360.36L1522.23 1371.16L1490.27 1347.73L1496.49 1339.23L1514.97 1352.78L1515.15 1352.53L1502.14 1332.04L1505.89 1326.92L1529.45 1333.26L1529.64 1333.01L1511.04 1319.37L1517.26 1310.87L1549.22 1334.31Z" fill="#5988FF"/>
<path d="M1475.89 1365.33L1483.36 1356.44L1505.27 1391.97L1495.81 1403.24L1457.06 1387.74L1464.53 1378.85L1492.09 1390.7L1492.29 1390.46L1475.89 1365.33ZM1489.25 1373.74L1475.21 1390.46L1469.04 1385.27L1483.09 1368.56L1489.25 1373.74Z" fill="#5988FF"/>
<path d="M1450.03 1395.45L1478.84 1422.67L1467.1 1435.12C1465.08 1437.26 1462.9 1438.73 1460.54 1439.54C1458.18 1440.35 1455.81 1440.47 1453.44 1439.92C1451.07 1439.37 1448.87 1438.13 1446.82 1436.2C1444.76 1434.25 1443.41 1432.1 1442.76 1429.75C1442.11 1427.42 1442.16 1425.04 1442.9 1422.61C1443.63 1420.2 1445.04 1417.89 1447.11 1415.7L1454.12 1408.26L1460.2 1414.01L1454.67 1419.86C1453.8 1420.78 1453.22 1421.72 1452.93 1422.67C1452.64 1423.63 1452.63 1424.57 1452.9 1425.49C1453.17 1426.41 1453.71 1427.26 1454.52 1428.03C1455.35 1428.81 1456.22 1429.3 1457.14 1429.49C1458.06 1429.7 1458.98 1429.62 1459.91 1429.26C1460.84 1428.91 1461.74 1428.28 1462.61 1427.36L1465.21 1424.6L1442.64 1403.28L1450.03 1395.45Z" fill="#5988FF"/>
<path d="M1423.47 1461.16C1424.44 1462.02 1425.48 1462.42 1426.6 1462.34C1427.72 1462.28 1428.91 1461.65 1430.17 1460.45C1430.97 1459.68 1431.54 1458.96 1431.86 1458.27C1432.19 1457.6 1432.32 1456.99 1432.25 1456.43C1432.18 1455.87 1431.95 1455.38 1431.56 1454.95C1431.25 1454.58 1430.89 1454.33 1430.48 1454.18C1430.08 1454.05 1429.61 1454.03 1429.08 1454.11C1428.56 1454.19 1427.96 1454.38 1427.3 1454.68C1426.63 1454.97 1425.89 1455.38 1425.08 1455.88L1422.25 1457.62C1420.34 1458.8 1418.56 1459.65 1416.9 1460.18C1415.25 1460.7 1413.7 1460.93 1412.27 1460.87C1410.85 1460.82 1409.53 1460.49 1408.31 1459.88C1407.09 1459.29 1405.95 1458.45 1404.9 1457.36C1403.11 1455.47 1402.06 1453.42 1401.75 1451.22C1401.44 1449.02 1401.83 1446.75 1402.92 1444.41C1404 1442.09 1405.75 1439.76 1408.18 1437.45C1410.67 1435.07 1413.2 1433.37 1415.76 1432.34C1418.31 1431.31 1420.83 1431.08 1423.32 1431.63C1425.8 1432.2 1428.19 1433.68 1430.49 1436.08L1423.09 1443.13C1422.21 1442.29 1421.29 1441.76 1420.32 1441.54C1419.36 1441.32 1418.38 1441.39 1417.38 1441.76C1416.36 1442.13 1415.36 1442.79 1414.37 1443.74C1413.54 1444.53 1412.94 1445.29 1412.58 1446.03C1412.21 1446.77 1412.06 1447.46 1412.12 1448.1C1412.18 1448.74 1412.42 1449.3 1412.86 1449.78C1413.28 1450.21 1413.79 1450.46 1414.39 1450.52C1414.98 1450.59 1415.71 1450.47 1416.58 1450.13C1417.47 1449.81 1418.55 1449.25 1419.84 1448.47L1423.29 1446.36C1426.35 1444.49 1429.23 1443.51 1431.93 1443.4C1434.62 1443.31 1437.03 1444.39 1439.15 1446.64C1440.9 1448.46 1441.93 1450.51 1442.25 1452.81C1442.56 1455.13 1442.21 1457.5 1441.2 1459.94C1440.17 1462.38 1438.52 1464.68 1436.25 1466.84C1433.94 1469.05 1431.56 1470.57 1429.13 1471.4C1426.71 1472.24 1424.36 1472.39 1422.1 1471.85C1419.84 1471.33 1417.82 1470.13 1416.02 1468.26L1423.47 1461.16Z" fill="#5988FF"/>
<path d="M1361.92 1513.68C1362.8 1514.63 1363.8 1515.13 1364.92 1515.16C1366.04 1515.21 1367.28 1514.69 1368.65 1513.62C1369.53 1512.93 1370.16 1512.27 1370.55 1511.62C1370.94 1510.98 1371.13 1510.38 1371.11 1509.82C1371.1 1509.26 1370.92 1508.75 1370.57 1508.28C1370.3 1507.89 1369.96 1507.6 1369.57 1507.41C1369.18 1507.25 1368.72 1507.18 1368.18 1507.2C1367.65 1507.24 1367.04 1507.37 1366.35 1507.6C1365.66 1507.83 1364.89 1508.16 1364.03 1508.59L1361.04 1510.04C1359.03 1511.03 1357.17 1511.71 1355.47 1512.07C1353.78 1512.43 1352.22 1512.51 1350.8 1512.31C1349.39 1512.12 1348.11 1511.67 1346.96 1510.95C1345.79 1510.24 1344.74 1509.29 1343.8 1508.11C1342.21 1506.05 1341.36 1503.91 1341.26 1501.69C1341.16 1499.47 1341.77 1497.25 1343.08 1495.03C1344.37 1492.82 1346.34 1490.68 1348.98 1488.61C1351.7 1486.48 1354.38 1485.03 1357.02 1484.25C1359.66 1483.47 1362.19 1483.48 1364.61 1484.28C1367.03 1485.08 1369.27 1486.79 1371.32 1489.4L1363.28 1495.7C1362.48 1494.78 1361.62 1494.17 1360.68 1493.85C1359.74 1493.53 1358.76 1493.51 1357.73 1493.78C1356.68 1494.06 1355.62 1494.62 1354.54 1495.46C1353.64 1496.17 1352.97 1496.87 1352.54 1497.58C1352.1 1498.28 1351.88 1498.95 1351.88 1499.59C1351.87 1500.23 1352.07 1500.81 1352.45 1501.33C1352.84 1501.8 1353.32 1502.09 1353.9 1502.21C1354.48 1502.35 1355.23 1502.29 1356.13 1502.04C1357.04 1501.8 1358.17 1501.36 1359.53 1500.7L1363.16 1498.94C1366.39 1497.37 1369.36 1496.67 1372.05 1496.82C1374.74 1496.99 1377.03 1498.3 1378.93 1500.75C1380.49 1502.72 1381.32 1504.87 1381.41 1507.19C1381.5 1509.52 1380.93 1511.85 1379.68 1514.17C1378.42 1516.5 1376.56 1518.64 1374.09 1520.57C1371.58 1522.54 1369.07 1523.83 1366.57 1524.43C1364.07 1525.02 1361.72 1524.94 1359.53 1524.19C1357.33 1523.45 1355.43 1522.07 1353.82 1520.03L1361.92 1513.68Z" fill="#5988FF"/>
<path d="M1331.22 1551.41L1322.4 1557.57L1307.87 1536.74C1306.15 1534.26 1305.24 1531.71 1305.16 1529.07C1305.08 1526.45 1305.75 1523.91 1307.17 1521.46C1308.6 1519.02 1310.7 1516.82 1313.48 1514.88C1316.28 1512.92 1319.08 1511.69 1321.86 1511.2C1324.65 1510.71 1327.26 1510.96 1329.69 1511.94C1332.12 1512.94 1334.19 1514.67 1335.92 1517.15L1350.45 1537.98L1341.63 1544.14L1327.63 1524.07C1326.93 1523.07 1326.08 1522.32 1325.08 1521.84C1324.09 1521.37 1323.05 1521.18 1321.96 1521.28C1320.86 1521.39 1319.8 1521.8 1318.8 1522.5C1317.78 1523.21 1317.04 1524.06 1316.56 1525.05C1316.09 1526.04 1315.91 1527.08 1316.01 1528.18C1316.12 1529.28 1316.52 1530.34 1317.22 1531.34L1331.22 1551.41Z" fill="#5988FF"/>
<path d="M1289.93 1531.47L1310.78 1565.18L1296.24 1574.19C1293.74 1575.74 1291.25 1576.6 1288.76 1576.77C1286.28 1576.95 1283.96 1576.46 1281.81 1575.32C1279.66 1574.18 1277.85 1572.41 1276.37 1570.02C1274.87 1567.6 1274.12 1565.18 1274.1 1562.75C1274.07 1560.32 1274.72 1558.03 1276.06 1555.88C1277.39 1553.74 1279.34 1551.87 1281.91 1550.28L1290.59 1544.9L1294.99 1552.01L1288.15 1556.25C1287.07 1556.92 1286.27 1557.67 1285.75 1558.51C1285.22 1559.37 1284.97 1560.28 1284.99 1561.23C1285.01 1562.19 1285.32 1563.15 1285.91 1564.11C1286.51 1565.07 1287.22 1565.77 1288.06 1566.19C1288.89 1566.63 1289.81 1566.79 1290.8 1566.68C1291.79 1566.58 1292.82 1566.2 1293.89 1565.54L1297.12 1563.54L1280.78 1537.13L1289.93 1531.47Z" fill="#5988FF"/>
<path d="M1253.04 1553.96L1272.07 1588.74L1257.07 1596.96C1254.49 1598.37 1251.96 1599.1 1249.46 1599.14C1246.97 1599.18 1244.68 1598.58 1242.6 1597.32C1240.51 1596.06 1238.8 1594.2 1237.45 1591.73C1236.08 1589.24 1235.46 1586.78 1235.57 1584.35C1235.67 1581.93 1236.44 1579.68 1237.9 1577.6C1239.34 1575.53 1241.38 1573.77 1244.03 1572.32L1252.99 1567.41L1257 1574.75L1249.94 1578.61C1248.83 1579.22 1247.99 1579.93 1247.43 1580.75C1246.85 1581.58 1246.55 1582.47 1246.53 1583.42C1246.5 1584.38 1246.75 1585.35 1247.29 1586.34C1247.83 1587.34 1248.51 1588.07 1249.33 1588.53C1250.14 1589.02 1251.04 1589.23 1252.03 1589.17C1253.03 1589.12 1254.08 1588.8 1255.18 1588.19L1258.51 1586.37L1243.6 1559.13L1253.04 1553.96Z" fill="#5988FF"/>
<path d="M1214.96 1574.42L1232.24 1610.11L1222.55 1614.8L1209.06 1586.92L1194.64 1593.91L1190.86 1586.1L1214.96 1574.42Z" fill="#5988FF"/>
<path d="M1180.85 1590.68L1196.38 1627.16L1170.11 1638.36L1166.71 1630.38L1183.09 1623.4L1180.42 1617.13L1165.4 1623.54L1162 1615.56L1177.02 1609.15L1174.35 1602.88L1158.05 1609.83L1154.65 1601.85L1180.85 1590.68Z" fill="#5988FF"/>
<path d="M1139.67 1650.29L1126.97 1654.51L1111.16 1636.09L1110.72 1636.24L1109.04 1660.46L1096.34 1664.67L1083.86 1627.04L1093.85 1623.72L1101.06 1645.48L1101.36 1645.38L1102.62 1621.14L1108.64 1619.14L1124.18 1637.97L1124.47 1637.87L1117.21 1615.97L1127.2 1612.65L1139.67 1650.29Z" fill="#5988FF"/>
<path d="M1061.95 1633.04L1073.18 1630.13L1070.47 1671.8L1056.23 1675.49L1033.63 1640.39L1044.87 1637.48L1060.46 1663.11L1060.76 1663.03L1061.95 1633.04ZM1067.97 1647.64L1046.84 1653.12L1044.82 1645.33L1065.95 1639.85L1067.97 1647.64Z" fill="#5988FF"/>
<path d="M1023.43 1642.59L1031.15 1681.49L1014.38 1684.82C1011.49 1685.39 1008.86 1685.33 1006.47 1684.62C1004.08 1683.91 1002.08 1682.64 1000.47 1680.82C998.854 1678.99 997.774 1676.7 997.226 1673.94C996.673 1671.16 996.814 1668.62 997.649 1666.34C998.471 1664.05 999.886 1662.14 1001.89 1660.6C1003.89 1659.05 1006.37 1657.99 1009.33 1657.4L1019.35 1655.41L1020.98 1663.61L1013.08 1665.18C1011.84 1665.43 1010.83 1665.85 1010.04 1666.46C1009.24 1667.08 1008.69 1667.84 1008.38 1668.74C1008.06 1669.65 1008.01 1670.65 1008.23 1671.75C1008.45 1672.87 1008.88 1673.77 1009.52 1674.46C1010.14 1675.16 1010.94 1675.63 1011.91 1675.88C1012.87 1676.13 1013.97 1676.14 1015.21 1675.89L1018.93 1675.15L1012.88 1644.69L1023.43 1642.59Z" fill="#5988FF"/>
<path d="M963.74 1680.74C964.026 1682.01 964.648 1682.93 965.606 1683.53C966.552 1684.12 967.886 1684.29 969.61 1684.05C970.707 1683.89 971.588 1683.62 972.252 1683.25C972.904 1682.9 973.365 1682.47 973.632 1681.98C973.9 1681.49 973.999 1680.95 973.929 1680.37C973.887 1679.9 973.742 1679.48 973.496 1679.12C973.238 1678.78 972.87 1678.49 972.392 1678.25C971.916 1678.02 971.322 1677.83 970.61 1677.68C969.899 1677.54 969.063 1677.43 968.104 1677.38L964.788 1677.15C962.551 1677 960.606 1676.66 958.953 1676.13C957.3 1675.6 955.909 1674.89 954.779 1674.01C953.651 1673.15 952.766 1672.11 952.125 1670.91C951.47 1669.72 951.03 1668.37 950.802 1666.88C950.444 1664.3 950.775 1662.02 951.794 1660.05C952.814 1658.07 954.444 1656.45 956.684 1655.18C958.912 1653.9 961.686 1653.03 965.005 1652.55C968.414 1652.06 971.461 1652.14 974.146 1652.78C976.819 1653.43 979.008 1654.7 980.714 1656.59C982.408 1658.5 983.498 1661.09 983.983 1664.37L973.871 1665.83C973.635 1664.64 973.19 1663.67 972.536 1662.93C971.883 1662.19 971.04 1661.68 970.009 1661.4C968.966 1661.12 967.767 1661.07 966.414 1661.27C965.278 1661.43 964.347 1661.71 963.621 1662.1C962.896 1662.49 962.371 1662.96 962.047 1663.52C961.723 1664.08 961.6 1664.67 961.679 1665.31C961.778 1665.91 962.051 1666.41 962.499 1666.8C962.935 1667.21 963.606 1667.53 964.513 1667.76C965.422 1668.01 966.627 1668.19 968.128 1668.3L972.156 1668.58C975.737 1668.83 978.656 1669.7 980.914 1671.17C983.161 1672.66 984.498 1674.94 984.926 1678.01C985.297 1680.5 984.946 1682.77 983.873 1684.83C982.79 1686.9 981.13 1688.63 978.893 1690.03C976.644 1691.42 973.968 1692.34 970.866 1692.78C967.699 1693.24 964.885 1693.1 962.422 1692.38C959.958 1691.65 957.963 1690.41 956.434 1688.66C954.895 1686.93 953.934 1684.78 953.553 1682.21L963.74 1680.74Z" fill="#5988FF"/>
<path d="M883.163 1687.85C883.326 1689.14 883.855 1690.12 884.752 1690.8C885.635 1691.48 886.947 1691.79 888.686 1691.71C889.795 1691.65 890.697 1691.48 891.393 1691.17C892.076 1690.88 892.575 1690.5 892.89 1690.04C893.204 1689.57 893.354 1689.05 893.34 1688.47C893.344 1687.99 893.24 1687.56 893.029 1687.18C892.805 1686.82 892.467 1686.49 892.015 1686.2C891.563 1685.93 890.99 1685.68 890.296 1685.47C889.602 1685.25 888.78 1685.07 887.831 1684.92L884.552 1684.38C882.34 1684.01 880.437 1683.49 878.843 1682.8C877.249 1682.11 875.932 1681.27 874.892 1680.29C873.853 1679.32 873.072 1678.2 872.549 1676.95C872.013 1675.69 871.704 1674.31 871.622 1672.8C871.514 1670.2 872.063 1667.96 873.268 1666.1C874.473 1664.23 876.252 1662.77 878.605 1661.72C880.945 1660.67 883.79 1660.07 887.14 1659.91C890.58 1659.75 893.605 1660.12 896.216 1661.02C898.815 1661.92 900.871 1663.4 902.386 1665.45C903.889 1667.51 904.723 1670.2 904.889 1673.51L894.685 1673.98C894.564 1672.77 894.215 1671.77 893.635 1670.97C893.056 1670.17 892.267 1669.58 891.268 1669.2C890.256 1668.82 889.068 1668.66 887.702 1668.73C886.555 1668.78 885.602 1668.96 884.842 1669.28C884.082 1669.6 883.514 1670.02 883.138 1670.54C882.762 1671.07 882.582 1671.65 882.599 1672.29C882.64 1672.9 882.864 1673.42 883.271 1673.85C883.666 1674.3 884.304 1674.68 885.184 1675C886.064 1675.34 887.246 1675.63 888.73 1675.89L892.712 1676.56C896.252 1677.15 899.074 1678.3 901.179 1679.98C903.272 1681.68 904.383 1684.08 904.513 1687.17C904.642 1689.69 904.074 1691.92 902.808 1693.86C901.53 1695.82 899.711 1697.38 897.35 1698.55C894.977 1699.72 892.225 1700.38 889.094 1700.52C885.899 1700.67 883.11 1700.26 880.729 1699.3C878.347 1698.34 876.48 1696.92 875.128 1695.03C873.763 1693.15 873.014 1690.92 872.881 1688.33L883.163 1687.85Z" fill="#5988FF"/>
<path d="M836.295 1700.79L825.539 1700.7L825.762 1675.3C825.788 1672.28 826.533 1669.67 827.997 1667.48C829.448 1665.3 831.462 1663.62 834.039 1662.44C836.616 1661.27 839.6 1660.71 842.992 1660.74C846.41 1660.77 849.397 1661.39 851.954 1662.6C854.51 1663.82 856.494 1665.53 857.906 1667.74C859.306 1669.96 859.992 1672.58 859.966 1675.6L859.743 1701L848.986 1700.91L849.201 1676.43C849.212 1675.21 848.95 1674.11 848.417 1673.14C847.884 1672.18 847.142 1671.42 846.193 1670.87C845.23 1670.32 844.136 1670.04 842.911 1670.03C841.673 1670.02 840.574 1670.28 839.615 1670.81C838.656 1671.35 837.901 1672.09 837.351 1673.04C836.801 1674 836.521 1675.1 836.51 1676.32L836.295 1700.79Z" fill="#5988FF"/>
<path d="M814.189 1660.59L811.665 1700.16L794.597 1699.07C791.662 1698.89 789.131 1698.14 787.004 1696.84C784.877 1695.54 783.269 1693.8 782.18 1691.63C781.091 1689.45 780.637 1686.96 780.816 1684.15C780.996 1681.31 781.784 1678.9 783.177 1676.91C784.558 1674.91 786.417 1673.43 788.754 1672.45C791.078 1671.47 793.746 1671.08 796.758 1671.27L806.953 1671.93L806.42 1680.27L798.388 1679.76C797.127 1679.68 796.038 1679.83 795.122 1680.21C794.192 1680.6 793.463 1681.2 792.934 1681.99C792.392 1682.78 792.086 1683.74 792.014 1684.86C791.942 1686 792.125 1686.98 792.563 1687.81C792.987 1688.65 793.637 1689.31 794.511 1689.79C795.371 1690.29 796.432 1690.58 797.693 1690.66L801.477 1690.9L803.454 1659.91L814.189 1660.59Z" fill="#5988FF"/>
<path d="M771.102 1657.53L766.474 1696.91L749.489 1694.91C746.568 1694.57 744.08 1693.69 742.026 1692.28C739.971 1690.87 738.458 1689.05 737.486 1686.81C736.515 1684.58 736.193 1682.07 736.522 1679.27C736.853 1676.45 737.768 1674.08 739.266 1672.17C740.751 1670.25 742.686 1668.87 745.072 1668.02C747.445 1667.17 750.13 1666.92 753.127 1667.27L763.272 1668.46L762.296 1676.77L754.303 1675.83C753.048 1675.68 751.952 1675.77 751.017 1676.11C750.068 1676.45 749.308 1677 748.738 1677.77C748.154 1678.53 747.797 1679.47 747.666 1680.58C747.534 1681.71 747.664 1682.7 748.057 1683.55C748.436 1684.42 749.049 1685.11 749.896 1685.64C750.729 1686.18 751.773 1686.53 753.028 1686.67L756.794 1687.12L760.419 1656.27L771.102 1657.53Z" fill="#5988FF"/>
<path d="M728.223 1652.13L721.635 1691.23L711.027 1689.44L716.175 1658.89L700.378 1656.22L701.82 1647.67L728.223 1652.13Z" fill="#5988FF"/>
<path d="M691.007 1645.6L682.539 1684.33L654.643 1678.22L656.495 1669.75L673.883 1673.56L675.338 1666.9L659.387 1663.41L661.239 1654.93L677.191 1658.43L678.646 1651.77L661.334 1647.98L663.186 1639.51L691.007 1645.6Z" fill="#5988FF"/>
<path d="M622.932 1670.29L610.134 1666.36L607.916 1642.19L607.472 1642.05L592.082 1660.81L579.284 1656.88L590.911 1618.98L600.973 1622.07L594.25 1643.98L594.546 1644.07L609.611 1625.05L615.678 1626.91L617.435 1651.27L617.731 1651.36L624.498 1629.29L634.56 1632.39L622.932 1670.29Z" fill="#5988FF"/>
<path d="M569.573 1611.16L580.418 1615.3L554.075 1647.69L540.337 1642.44L542.242 1600.73L553.087 1604.87L550.951 1634.81L551.24 1634.92L569.573 1611.16ZM566.025 1626.55L545.635 1618.77L548.504 1611.24L568.894 1619.03L566.025 1626.55Z" fill="#5988FF"/>
<path d="M532.652 1596.61L516.425 1632.78L500.822 1625.77C498.14 1624.57 496.03 1622.98 494.493 1621.02C492.957 1619.05 492.06 1616.86 491.803 1614.44C491.546 1612.02 491.994 1609.52 493.145 1606.96C494.307 1604.37 495.89 1602.38 497.894 1601C499.886 1599.62 502.147 1598.88 504.677 1598.79C507.196 1598.69 509.832 1599.26 512.585 1600.5L521.905 1604.68L518.482 1612.31L511.139 1609.01C509.986 1608.5 508.914 1608.25 507.922 1608.29C506.914 1608.33 506.023 1608.63 505.249 1609.19C504.464 1609.74 503.842 1610.53 503.382 1611.56C502.917 1612.59 502.745 1613.58 502.864 1614.51C502.967 1615.44 503.343 1616.29 503.992 1617.05C504.624 1617.82 505.517 1618.46 506.67 1618.98L510.13 1620.53L522.839 1592.2L532.652 1596.61Z" fill="#5988FF"/>
<path d="M461.916 1593.08C461.417 1594.28 461.387 1595.39 461.825 1596.43C462.251 1597.46 463.239 1598.38 464.787 1599.18C465.773 1599.68 466.644 1599.98 467.398 1600.06C468.136 1600.15 468.757 1600.07 469.262 1599.83C469.766 1599.58 470.157 1599.2 470.434 1598.69C470.676 1598.28 470.799 1597.85 470.804 1597.42C470.791 1596.99 470.661 1596.54 470.413 1596.06C470.159 1595.6 469.784 1595.1 469.288 1594.57C468.792 1594.04 468.17 1593.47 467.421 1592.87L464.85 1590.76C463.113 1589.34 461.725 1587.94 460.685 1586.55C459.646 1585.16 458.921 1583.77 458.51 1582.4C458.093 1581.04 457.97 1579.68 458.142 1578.33C458.302 1576.98 458.721 1575.63 459.4 1574.28C460.604 1571.97 462.192 1570.3 464.165 1569.29C466.138 1568.27 468.407 1567.89 470.971 1568.15C473.523 1568.41 476.291 1569.3 479.272 1570.84C482.334 1572.42 484.773 1574.25 486.589 1576.33C488.394 1578.4 489.443 1580.71 489.736 1583.24C490.013 1585.78 489.398 1588.52 487.893 1591.48L478.81 1586.8C479.307 1585.69 479.504 1584.65 479.4 1583.67C479.296 1582.68 478.906 1581.78 478.229 1580.95C477.541 1580.12 476.589 1579.39 475.373 1578.76C474.352 1578.23 473.433 1577.92 472.615 1577.82C471.797 1577.72 471.095 1577.8 470.51 1578.06C469.924 1578.33 469.478 1578.74 469.171 1579.31C468.905 1579.86 468.841 1580.42 468.979 1581C469.099 1581.58 469.46 1582.23 470.063 1582.95C470.661 1583.68 471.539 1584.52 472.699 1585.48L475.819 1588.05C478.59 1590.33 480.469 1592.73 481.455 1595.24C482.423 1597.76 482.194 1600.39 480.766 1603.14C479.626 1605.38 478.024 1607.03 475.958 1608.09C473.875 1609.15 471.519 1609.6 468.89 1609.43C466.25 1609.26 463.537 1608.46 460.75 1607.03C457.906 1605.56 455.691 1603.82 454.105 1601.8C452.519 1599.78 451.61 1597.61 451.377 1595.3C451.127 1592.99 451.589 1590.68 452.764 1588.37L461.916 1593.08Z" fill="#5988FF"/>
<path d="M392.133 1552.15C391.521 1553.29 391.383 1554.4 391.719 1555.47C392.044 1556.54 392.939 1557.55 394.403 1558.49C395.335 1559.09 396.173 1559.47 396.916 1559.63C397.642 1559.79 398.267 1559.77 398.794 1559.57C399.32 1559.37 399.746 1559.03 400.071 1558.55C400.351 1558.16 400.514 1557.75 400.561 1557.32C400.59 1556.9 400.504 1556.43 400.302 1555.94C400.094 1555.45 399.769 1554.92 399.327 1554.34C398.885 1553.76 398.32 1553.14 397.633 1552.47L395.277 1550.12C393.685 1548.54 392.438 1547.01 391.538 1545.52C390.637 1544.04 390.049 1542.59 389.772 1541.19C389.489 1539.79 389.497 1538.43 389.798 1537.1C390.088 1535.77 390.636 1534.47 391.441 1533.19C392.862 1531 394.604 1529.5 396.666 1528.68C398.728 1527.86 401.022 1527.7 403.549 1528.21C406.065 1528.71 408.733 1529.87 411.553 1531.68C414.448 1533.55 416.7 1535.61 418.306 1537.85C419.902 1540.09 420.724 1542.49 420.772 1545.04C420.803 1547.59 419.926 1550.26 418.143 1553.06L409.553 1547.53C410.155 1546.47 410.452 1545.45 410.443 1544.46C410.434 1543.47 410.133 1542.54 409.539 1541.65C408.935 1540.75 408.057 1539.93 406.908 1539.19C405.943 1538.57 405.058 1538.17 404.253 1537.99C403.449 1537.81 402.743 1537.82 402.134 1538.03C401.526 1538.23 401.042 1538.61 400.682 1539.14C400.364 1539.66 400.246 1540.21 400.327 1540.8C400.391 1541.39 400.688 1542.08 401.219 1542.85C401.743 1543.63 402.536 1544.56 403.598 1545.62L406.456 1548.48C408.994 1551.02 410.633 1553.59 411.372 1556.18C412.094 1558.78 411.611 1561.38 409.925 1563.98C408.575 1566.1 406.82 1567.59 404.662 1568.44C402.487 1569.29 400.098 1569.51 397.498 1569.1C394.887 1568.67 392.263 1567.61 389.628 1565.91C386.938 1564.18 384.901 1562.23 383.518 1560.07C382.134 1557.9 381.438 1555.66 381.429 1553.33C381.403 1551.01 382.086 1548.76 383.478 1546.57L392.133 1552.15Z" fill="#5988FF"/>
<path d="M346.442 1535.51L337.73 1529.2L352.621 1508.63C354.392 1506.18 356.509 1504.49 358.972 1503.55C361.418 1502.61 364.032 1502.41 366.814 1502.95C369.589 1503.49 372.35 1504.76 375.097 1506.75C377.865 1508.76 379.941 1510.99 381.323 1513.46C382.698 1515.94 383.322 1518.49 383.195 1521.11C383.05 1523.73 382.093 1526.26 380.322 1528.71L365.432 1549.28L356.72 1542.96L371.066 1523.15C371.785 1522.15 372.209 1521.1 372.337 1520C372.459 1518.91 372.292 1517.87 371.836 1516.87C371.371 1515.86 370.642 1515 369.649 1514.28C368.647 1513.55 367.6 1513.13 366.509 1513C365.419 1512.88 364.374 1513.05 363.375 1513.51C362.369 1513.97 361.507 1514.7 360.788 1515.69L346.442 1535.51Z" fill="#5988FF"/>
<path d="M351.706 1489.93L326.734 1520.72L313.456 1509.93C311.173 1508.07 309.541 1506 308.56 1503.71C307.579 1501.41 307.276 1499.07 307.649 1496.66C308.023 1494.25 309.096 1491.96 310.868 1489.77C312.656 1487.57 314.696 1486.06 316.986 1485.24C319.266 1484.42 321.641 1484.28 324.11 1484.84C326.57 1485.4 328.972 1486.62 331.315 1488.53L339.246 1494.97L333.978 1501.46L327.73 1496.39C326.748 1495.59 325.774 1495.08 324.806 1494.86C323.821 1494.64 322.883 1494.7 321.992 1495.04C321.091 1495.38 320.287 1495.98 319.58 1496.85C318.865 1497.73 318.445 1498.64 318.322 1499.57C318.18 1500.5 318.326 1501.42 318.759 1502.32C319.173 1503.22 319.871 1504.07 320.852 1504.87L323.796 1507.26L343.355 1483.15L351.706 1489.93Z" fill="#5988FF"/>
<path d="M318.364 1462.45L291.788 1491.86L279.103 1480.38C276.922 1478.4 275.403 1476.25 274.545 1473.9C273.688 1471.56 273.51 1469.2 274.012 1466.82C274.513 1464.43 275.706 1462.2 277.592 1460.11C279.496 1458.01 281.612 1456.61 283.943 1455.91C286.263 1455.21 288.642 1455.21 291.078 1455.9C293.505 1456.58 295.838 1457.93 298.076 1459.96L305.653 1466.82L300.047 1473.02L294.078 1467.62C293.14 1466.77 292.194 1466.21 291.24 1465.94C290.268 1465.67 289.328 1465.68 288.42 1465.97C287.503 1466.25 286.668 1466.81 285.915 1467.64C285.154 1468.49 284.687 1469.37 284.514 1470.29C284.323 1471.22 284.419 1472.14 284.804 1473.06C285.17 1473.98 285.821 1474.87 286.759 1475.72L289.571 1478.26L310.386 1455.23L318.364 1462.45Z" fill="#5988FF"/>
<path d="M286.55 1433.18L258.539 1461.22L250.931 1453.61L272.814 1431.7L261.485 1420.37L267.612 1414.23L286.55 1433.18Z" fill="#5988FF"/>
<path d="M260.002 1406.27L230.67 1432.93L211.472 1411.77L217.888 1405.94L229.854 1419.13L234.896 1414.55L223.918 1402.45L230.335 1396.62L241.312 1408.72L246.354 1404.13L234.439 1391L240.856 1385.17L260.002 1406.27Z" fill="#5988FF"/>
<path d="M190.223 1386.92L182.069 1376.29L194.261 1355.3L193.978 1354.94L170.569 1361.3L162.416 1350.68L193.842 1326.53L200.252 1334.88L182.083 1348.84L182.272 1349.09L205.568 1342.32L209.433 1347.36L196.76 1368.23L196.948 1368.47L215.24 1354.42L221.649 1362.77L190.223 1386.92Z" fill="#5988FF"/>
<path d="M180.976 1307.79L187.417 1317.45L147.196 1328.56L139.038 1316.32L164.745 1283.43L171.186 1293.1L152.109 1316.25L152.281 1316.51L180.976 1307.79ZM169.173 1318.27L157.064 1300.1L163.76 1295.63L175.869 1313.8L169.173 1318.27Z" fill="#5988FF"/>
<path d="M159.316 1274.51L125.143 1294.58L116.487 1279.82C114.999 1277.28 114.197 1274.77 114.082 1272.28C113.967 1269.78 114.505 1267.48 115.699 1265.35C116.892 1263.23 118.701 1261.46 121.126 1260.03C123.573 1258.6 126.012 1257.9 128.442 1257.94C130.867 1257.97 133.137 1258.68 135.254 1260.07C137.364 1261.45 139.183 1263.44 140.71 1266.04L145.881 1274.86L138.673 1279.09L134.599 1272.15C133.959 1271.06 133.225 1270.24 132.396 1269.69C131.55 1269.14 130.65 1268.87 129.697 1268.87C128.737 1268.87 127.773 1269.15 126.805 1269.72C125.826 1270.29 125.116 1271 124.674 1271.82C124.215 1272.65 124.03 1273.56 124.12 1274.55C124.192 1275.54 124.548 1276.58 125.188 1277.67L127.107 1280.95L153.871 1265.23L159.316 1274.51Z" fill="#5988FF"/>
<path d="M103.71 1230.62C102.612 1231.3 101.94 1232.19 101.696 1233.29C101.445 1234.38 101.72 1235.7 102.52 1237.25C103.03 1238.23 103.568 1238.98 104.134 1239.49C104.683 1239.99 105.236 1240.28 105.791 1240.37C106.346 1240.46 106.884 1240.38 107.405 1240.13C107.841 1239.93 108.186 1239.66 108.441 1239.31C108.678 1238.95 108.834 1238.51 108.907 1237.97C108.969 1237.45 108.952 1236.82 108.856 1236.1C108.759 1235.38 108.581 1234.56 108.32 1233.64L107.445 1230.43C106.85 1228.26 106.532 1226.31 106.491 1224.58C106.45 1222.84 106.659 1221.29 107.119 1219.94C107.568 1218.58 108.253 1217.41 109.174 1216.41C110.089 1215.4 111.213 1214.54 112.548 1213.83C114.868 1212.65 117.126 1212.21 119.322 1212.53C121.519 1212.84 123.586 1213.85 125.525 1215.55C127.457 1217.24 129.194 1219.57 130.735 1222.56C132.317 1225.62 133.245 1228.52 133.52 1231.27C133.788 1234.01 133.309 1236.5 132.082 1238.73C130.838 1240.96 128.746 1242.84 125.808 1244.38L121.115 1235.3C122.162 1234.68 122.928 1233.94 123.412 1233.08C123.896 1232.22 124.102 1231.26 124.03 1230.19C123.952 1229.11 123.598 1227.96 122.97 1226.75C122.443 1225.73 121.875 1224.94 121.268 1224.38C120.66 1223.83 120.041 1223.48 119.41 1223.36C118.78 1223.24 118.175 1223.32 117.597 1223.6C117.064 1223.89 116.686 1224.31 116.463 1224.86C116.223 1225.41 116.14 1226.15 116.217 1227.08C116.282 1228.02 116.509 1229.22 116.898 1230.68L117.955 1234.58C118.891 1238.04 119.034 1241.09 118.383 1243.71C117.715 1246.32 116.004 1248.33 113.248 1249.74C111.02 1250.91 108.759 1251.33 106.464 1250.99C104.152 1250.64 101.972 1249.64 99.9245 1247.99C97.8711 1246.32 96.1243 1244.09 94.6843 1241.3C93.2146 1238.46 92.4189 1235.76 92.2971 1233.19C92.1753 1230.62 92.689 1228.33 93.838 1226.31C94.9697 1224.29 96.684 1222.67 98.9807 1221.47L103.71 1230.62Z" fill="#5988FF"/>
<path d="M70.5437 1156.79C69.3847 1157.36 68.6304 1158.18 68.281 1159.26C67.9268 1160.32 68.0732 1161.65 68.7203 1163.27C69.1325 1164.3 69.5961 1165.1 70.1112 1165.65C70.6095 1166.21 71.1306 1166.55 71.6743 1166.7C72.218 1166.84 72.7617 1166.81 73.3053 1166.61C73.7579 1166.45 74.1279 1166.21 74.4153 1165.89C74.6858 1165.56 74.8833 1165.13 75.0077 1164.61C75.1202 1164.09 75.1631 1163.47 75.1366 1162.74C75.1101 1162.02 75.0117 1161.18 74.8414 1160.24L74.2801 1156.96C73.8964 1154.75 73.7677 1152.78 73.8943 1151.04C74.0208 1149.31 74.3785 1147.79 74.9673 1146.48C75.5442 1145.18 76.3391 1144.08 77.352 1143.17C78.3601 1142.25 79.5623 1141.51 80.9585 1140.93C83.3821 1139.98 85.6717 1139.76 87.8274 1140.29C89.9831 1140.82 91.9438 1142.02 93.7094 1143.9C95.4703 1145.76 96.9738 1148.26 98.22 1151.37C99.4998 1154.57 100.144 1157.55 100.151 1160.32C100.155 1163.07 99.4378 1165.5 98.0013 1167.6C96.548 1169.7 94.285 1171.37 91.2125 1172.61L87.4163 1163.12C88.5179 1162.61 89.3512 1161.95 89.9163 1161.14C90.4813 1160.33 90.7793 1159.39 90.8102 1158.32C90.8362 1157.24 90.5952 1156.07 90.0872 1154.8C89.6606 1153.73 89.1718 1152.89 88.6207 1152.28C88.0697 1151.66 87.4864 1151.26 86.8708 1151.08C86.2553 1150.89 85.6457 1150.92 85.0422 1151.14C84.4842 1151.38 84.0676 1151.76 83.7923 1152.29C83.5002 1152.81 83.3471 1153.54 83.3329 1154.48C83.3068 1155.42 83.4173 1156.63 83.6644 1158.12L84.3408 1162.1C84.938 1165.64 84.7867 1168.69 83.8867 1171.23C82.97 1173.77 81.0724 1175.6 78.1938 1176.74C75.8636 1177.69 73.5727 1177.89 71.3212 1177.33C69.0529 1176.76 66.9797 1175.56 65.1015 1173.71C63.2185 1171.85 61.6946 1169.46 60.5299 1166.55C59.3412 1163.58 58.81 1160.81 58.9363 1158.24C59.0626 1155.68 59.795 1153.44 61.1334 1151.55C62.455 1149.64 64.3168 1148.2 66.7188 1147.22L70.5437 1156.79Z" fill="#5988FF"/>
<path d="M42.9405 1116.73L39.4979 1106.53L63.546 1098.4C66.4053 1097.44 69.111 1097.29 71.6628 1097.95C74.1983 1098.6 76.445 1099.96 78.4029 1102.01C80.3485 1104.06 81.8642 1106.69 82.9498 1109.91C84.0437 1113.15 84.4392 1116.18 84.1365 1118.99C83.8215 1121.81 82.8544 1124.25 81.2353 1126.31C79.5998 1128.36 77.3524 1129.87 74.493 1130.83L50.4449 1138.96L47.0023 1128.77L70.1706 1120.93C71.3314 1120.54 72.2834 1119.93 73.0265 1119.11C73.7574 1118.29 74.2267 1117.34 74.4345 1116.26C74.6381 1115.17 74.5439 1114.05 74.1517 1112.88C73.7554 1111.71 73.148 1110.76 72.3293 1110.03C71.5106 1109.3 70.5624 1108.83 69.4848 1108.62C68.395 1108.41 67.2696 1108.51 66.1088 1108.9L42.9405 1116.73Z" fill="#5988FF"/>
<path d="M73.6259 1082.64L35.4473 1093.24L30.8724 1076.75C30.0858 1073.92 29.9568 1071.28 30.4853 1068.84C31.0139 1066.4 32.1271 1064.31 33.8251 1062.57C35.5231 1060.83 37.7268 1059.58 40.4361 1058.82C43.1702 1058.06 45.7068 1058.02 48.0458 1058.68C50.3813 1059.33 52.3934 1060.6 54.0818 1062.49C55.7668 1064.36 57.013 1066.76 57.8203 1069.67L60.5528 1079.52L52.4995 1081.75L50.3466 1073.99C50.0085 1072.77 49.5091 1071.8 48.8485 1071.05C48.172 1070.3 47.3723 1069.81 46.4492 1069.57C45.5227 1069.32 44.5189 1069.34 43.4376 1069.64C42.344 1069.95 41.4774 1070.44 40.838 1071.13C40.1827 1071.81 39.7708 1072.64 39.6021 1073.62C39.4176 1074.6 39.4945 1075.7 39.8326 1076.91L40.8469 1080.57L70.7485 1072.26L73.6259 1082.64Z" fill="#5988FF"/>
<path d="M62.3687 1040.9L23.6795 1049.46L19.9894 1032.75C19.3549 1029.87 19.3664 1027.23 20.024 1024.83C20.6816 1022.42 21.9046 1020.39 23.6931 1018.74C25.4816 1017.09 27.7486 1015.96 30.4941 1015.36C33.2648 1014.74 35.8003 1014.83 38.1007 1015.62C40.3983 1016.39 42.3398 1017.77 43.9253 1019.74C45.508 1021.7 46.625 1024.16 47.2762 1027.11L49.4802 1037.09L41.3192 1038.9L39.5827 1031.03C39.31 1029.8 38.8635 1028.79 38.2433 1028.02C37.6077 1027.23 36.8354 1026.7 35.9264 1026.41C35.0146 1026.11 34.0109 1026.08 32.9152 1026.32C31.8069 1026.57 30.9152 1027.01 30.2402 1027.67C29.5497 1028.31 29.0941 1029.11 28.8733 1030.09C28.6371 1031.05 28.6553 1032.15 28.9281 1033.39L29.7462 1037.09L60.0477 1030.39L62.3687 1040.9Z" fill="#5988FF"/>
<path d="M53.3923 998.598L14.3243 1005.21L12.5311 994.594L43.0529 989.429L40.3824 973.623L48.9285 972.177L53.3923 998.598Z" fill="#5988FF"/>
<path d="M47.3365 961.275L7.99509 965.989L4.60001 937.615L13.206 936.584L15.3221 954.27L22.0839 953.459L20.1426 937.235L28.7485 936.203L30.6899 952.428L37.4517 951.618L35.3447 934.009L43.9506 932.978L47.3365 961.275Z" fill="#5988FF"/>
<path d="M1.67534 905.036L1.1841 891.647L23.2735 881.614L23.2565 881.149L0.491245 872.764L0 859.375L39.5958 857.92L39.982 868.445L17.0907 869.286L17.102 869.596L40.0077 877.589L40.2405 883.935L17.8276 893.593L17.839 893.903L40.8849 893.056L41.2711 903.581L1.67534 905.036Z" fill="#5988FF"/>
<path d="M39.9653 835.184L39.6178 846.795L0.404662 832.526L0.844874 817.818L40.8411 805.923L40.4936 817.534L11.5362 825.344L11.5269 825.654L39.9653 835.184ZM24.2752 836.883L24.9285 815.053L32.9732 815.294L32.3199 837.124L24.2752 836.883Z" fill="#5988FF"/>
<path d="M41.5812 795.505L2.11007 792.043L3.60335 774.993C3.86011 772.062 4.66297 769.547 6.01193 767.45C7.36088 765.353 9.13602 763.785 11.3373 762.747C13.5387 761.71 16.0398 761.313 18.8408 761.559C21.6675 761.807 24.06 762.652 26.0183 764.093C27.9777 765.522 29.4172 767.417 30.3369 769.778C31.2576 772.126 31.5862 774.805 31.3227 777.813L30.4308 787.997L22.1049 787.267L22.8076 779.243C22.9179 777.983 22.7935 776.89 22.4344 775.965C22.0635 775.025 21.4878 774.282 20.7071 773.734C19.9276 773.173 18.9789 772.844 17.8611 772.746C16.7304 772.646 15.7453 772.806 14.9059 773.225C14.0548 773.63 13.3778 774.264 12.875 775.126C12.3604 775.975 12.048 777.03 11.9376 778.29L11.6065 782.07L42.5204 784.782L41.5812 795.505Z" fill="#5988FF"/>
<path d="M21.6837 727.484C20.3922 727.405 19.3283 727.743 18.4919 728.498C17.6574 729.24 17.1179 730.474 16.8737 732.199C16.7181 733.298 16.7246 734.218 16.8933 734.959C17.051 735.685 17.3298 736.246 17.7298 736.642C18.1297 737.037 18.6161 737.282 19.1889 737.377C19.6578 737.469 20.0974 737.447 20.5076 737.309C20.9069 737.157 21.2906 736.886 21.6586 736.495C22.0138 736.102 22.3607 735.584 22.6992 734.941C23.0377 734.298 23.3688 733.524 23.6925 732.618L24.838 729.495C25.6053 727.388 26.4752 725.615 27.4475 724.175C28.4199 722.735 29.4866 721.596 30.6475 720.757C31.7957 719.916 33.0345 719.355 34.3639 719.074C35.6951 718.781 37.1087 718.733 38.6046 718.932C41.1824 719.311 43.2748 720.266 44.8817 721.797C46.4887 723.329 47.59 725.349 48.1857 727.858C48.7832 730.355 48.8468 733.264 48.3764 736.587C47.8933 739.999 46.9673 742.905 45.5984 745.306C44.2313 747.693 42.4011 749.441 40.1077 750.55C37.8034 751.644 35.0093 751.965 31.7255 751.512L33.1585 741.391C34.3679 741.497 35.4193 741.34 36.3126 740.919C37.2059 740.498 37.932 739.832 38.4909 738.92C39.0517 737.996 39.4279 736.857 39.6197 735.502C39.7807 734.365 39.7751 733.393 39.6027 732.586C39.4303 731.779 39.1231 731.143 38.6811 730.676C38.2392 730.209 37.6998 729.924 37.0631 729.821C36.4611 729.748 35.9095 729.872 35.4082 730.192C34.896 730.498 34.4005 731.053 33.9217 731.859C33.4302 732.662 32.9216 733.77 32.3961 735.182L30.9996 738.973C29.7541 742.342 28.1081 744.905 26.0617 746.662C24.0044 748.404 21.4442 749.051 18.3811 748.604C15.8891 748.263 13.8058 747.29 12.1313 745.684C10.4458 744.063 9.24865 741.983 8.53981 739.445C7.83278 736.894 7.69909 734.066 8.13874 730.96C8.58744 727.791 9.5055 725.125 10.8929 722.962C12.2803 720.799 14.0269 719.228 16.1325 718.249C18.2272 717.256 20.5589 716.934 23.1275 717.286L21.6837 727.484Z" fill="#5988FF"/>
<path d="M37.4101 648.08C36.1322 647.877 35.0406 648.111 34.1354 648.781C33.2332 649.439 32.5773 650.615 32.1679 652.309C31.907 653.388 31.8248 654.304 31.9213 655.058C32.0082 655.796 32.2317 656.381 32.5916 656.814C32.9515 657.246 33.412 657.537 33.9731 657.686C34.4309 657.823 34.8706 657.843 35.2921 657.746C35.7042 657.634 36.1123 657.4 36.5162 657.047C36.9077 656.69 37.3029 656.208 37.7018 655.601C38.1008 654.993 38.505 654.255 38.9144 653.384L40.3557 650.387C41.3226 648.363 42.3594 646.682 43.466 645.343C44.5726 644.004 45.7441 642.973 46.9806 642.25C48.2045 641.524 49.4916 641.085 50.8419 640.934C52.1952 640.77 53.6067 640.86 55.0765 641.202C57.6058 641.828 59.5963 642.981 61.0481 644.66C62.4999 646.34 63.4013 648.457 63.7523 651.012C64.1063 653.554 63.8891 656.456 63.1005 659.718C62.2907 663.068 61.0888 665.871 59.4949 668.128C57.904 670.372 55.9138 671.935 53.5242 672.817C51.1251 673.684 48.3132 673.734 45.0883 672.966L47.4904 663.03C48.684 663.253 49.7456 663.198 50.6753 662.865C51.605 662.532 52.392 661.939 53.0362 661.086C53.6834 660.22 54.1678 659.123 54.4893 657.793C54.7592 656.676 54.8473 655.708 54.7535 654.889C54.6596 654.069 54.4153 653.406 54.0204 652.898C53.6255 652.391 53.1162 652.055 52.4924 651.891C51.9002 651.761 51.3392 651.831 50.8094 652.101C50.2701 652.356 49.7234 652.861 49.1692 653.616C48.6024 654.369 47.9894 655.422 47.3303 656.777L45.5748 660.415C44.0102 663.648 42.1248 666.04 39.9186 667.591C37.7029 669.126 35.0923 669.523 32.0866 668.783C29.639 668.203 27.6593 667.033 26.1474 665.273C24.6261 663.497 23.635 661.311 23.1742 658.717C22.7164 656.109 22.8561 653.281 23.5931 650.233C24.3452 647.121 25.5161 644.556 27.1056 642.538C28.695 640.519 30.5849 639.124 32.7751 638.353C34.9558 637.566 37.3075 637.471 39.8304 638.069L37.4101 648.08Z" fill="#5988FF"/>
<path d="M38.1068 599.43L41.2071 589.122L65.5131 596.443C68.4032 597.313 70.696 598.759 72.3916 600.779C74.0786 602.783 75.1265 605.188 75.5354 607.994C75.9319 610.796 75.6414 613.822 74.6637 617.072C73.6786 620.348 72.2481 623.044 70.3721 625.161C68.4837 627.275 66.2834 628.702 63.7712 629.441C61.2503 630.165 58.5449 630.091 55.6548 629.221L31.3488 621.9L34.449 611.592L57.8658 618.645C59.0391 618.998 60.167 619.055 61.2494 618.815C62.3195 618.571 63.2514 618.07 64.0452 617.311C64.8428 616.541 65.4181 615.568 65.7713 614.394C66.1281 613.208 66.1847 612.079 65.9411 611.008C65.6974 609.937 65.1967 609.005 64.4389 608.21C63.6687 607.412 62.697 606.836 61.5236 606.483L38.1068 599.43Z" fill="#5988FF"/>
<path d="M82.8588 589.439L45.6025 575.942L51.4241 559.849C52.4252 557.082 53.8468 554.858 55.689 553.178C57.5313 551.499 59.6494 550.44 62.0433 550.003C64.4372 549.567 66.956 549.827 69.5999 550.785C72.268 551.751 74.3632 553.183 75.8855 555.08C77.4122 556.964 78.3167 559.166 78.5991 561.684C78.8859 564.19 78.5156 566.863 77.4883 569.703L74.0111 579.316L66.1523 576.468L68.8919 568.895C69.3222 567.706 69.4826 566.618 69.3732 565.631C69.2561 564.628 68.8906 563.761 68.2769 563.031C67.6676 562.288 66.8353 561.726 65.7802 561.344C64.713 560.957 63.72 560.858 62.8012 561.047C61.8748 561.219 61.0577 561.658 60.3502 562.362C59.6349 563.05 59.0621 563.989 58.6319 565.178L57.3411 568.746L86.5204 579.317L82.8588 589.439Z" fill="#5988FF"/>
<path d="M97.8515 548.9L61.3669 533.435L68.0373 517.675C69.1842 514.965 70.7223 512.821 72.6514 511.241C74.5804 509.662 76.7519 508.718 79.1656 508.41C81.5794 508.101 84.0808 508.495 86.6699 509.593C89.2827 510.7 91.2987 512.242 92.7178 514.217C94.142 516.18 94.928 518.427 95.0759 520.957C95.2289 523.475 94.7168 526.124 93.5396 528.905L89.5555 538.318L81.8595 535.056L84.9985 527.64C85.4915 526.475 85.7097 525.397 85.653 524.406C85.5894 523.398 85.2707 522.513 84.6967 521.751C84.1278 520.977 83.3267 520.371 82.2934 519.933C81.2483 519.49 80.262 519.338 79.3345 519.478C78.4001 519.6 77.5609 519.995 76.8169 520.66C76.066 521.309 75.444 522.216 74.951 523.381L73.4721 526.875L102.047 538.987L97.8515 548.9Z" fill="#5988FF"/>
<path d="M115.036 509.215L79.3686 491.946L84.0537 482.256L111.918 495.748L118.895 481.317L126.698 485.095L115.036 509.215Z" fill="#5988FF"/>
<path d="M131.714 475.288L96.9223 456.314L110.587 431.221L118.197 435.372L109.68 451.012L115.66 454.273L123.474 439.925L131.084 444.075L123.271 458.424L129.251 461.685L137.731 446.112L145.341 450.263L131.714 475.288Z" fill="#5988FF"/>
<path d="M127.068 402.974L134.421 391.778L158.234 396.411L158.489 396.023L144.792 375.986L152.145 364.79L185.256 386.567L179.476 395.369L160.333 382.779L160.163 383.038L174.202 402.836L170.717 408.143L146.858 403.016L146.688 403.274L165.96 415.949L160.18 424.751L127.068 402.974Z" fill="#5988FF"/>
<path d="M198.724 368.252L191.717 377.514L168.023 343.144L176.898 331.412L216.382 344.914L209.375 354.175L181.253 343.746L181.066 343.993L198.724 368.252ZM184.953 360.538L198.127 343.126L204.543 347.988L191.37 365.4L184.953 360.538Z" fill="#5988FF"/>
<path d="M223.018 336.853L192.855 311.141L203.946 298.112C205.852 295.872 207.963 294.288 210.277 293.361C212.591 292.434 214.945 292.186 217.34 292.617C219.735 293.048 222.003 294.175 224.143 296C226.303 297.841 227.764 299.917 228.525 302.228C229.295 304.528 229.37 306.908 228.753 309.365C228.143 311.813 226.86 314.186 224.903 316.485L218.279 324.267L211.916 318.844L217.135 312.712C217.955 311.75 218.486 310.787 218.73 309.824C218.971 308.844 218.933 307.904 218.614 307.004C218.303 306.095 217.721 305.277 216.867 304.548C216.003 303.812 215.107 303.371 214.181 303.225C213.253 303.062 212.334 303.186 211.425 303.597C210.514 303.991 209.648 304.669 208.829 305.632L206.37 308.52L229.993 328.658L223.018 336.853Z" fill="#5988FF"/>
<path d="M246.194 269.879C245.187 269.066 244.124 268.724 243.005 268.854C241.895 268.975 240.741 269.668 239.543 270.932C238.78 271.737 238.252 272.491 237.961 273.193C237.669 273.876 237.571 274.495 237.668 275.049C237.765 275.604 238.019 276.085 238.432 276.494C238.76 276.842 239.131 277.078 239.545 277.204C239.959 277.312 240.429 277.313 240.955 277.208C241.472 277.094 242.055 276.873 242.703 276.545C243.351 276.218 244.069 275.779 244.857 275.228L247.599 273.347C249.445 272.075 251.181 271.134 252.807 270.525C254.433 269.916 255.962 269.606 257.394 269.595C258.817 269.576 260.151 269.837 261.397 270.379C262.652 270.912 263.832 271.693 264.935 272.723C266.817 274.526 267.969 276.518 268.392 278.698C268.815 280.878 268.542 283.163 267.575 285.553C266.616 287.935 264.983 290.343 262.676 292.778C260.306 295.278 257.868 297.11 255.363 298.272C252.866 299.425 250.362 299.788 247.851 299.362C245.34 298.917 242.877 297.558 240.463 295.285L247.492 287.867C248.416 288.655 249.364 289.137 250.335 289.312C251.307 289.487 252.285 289.365 253.268 288.946C254.26 288.518 255.227 287.808 256.168 286.815C256.957 285.982 257.516 285.186 257.842 284.429C258.169 283.671 258.287 282.974 258.197 282.338C258.107 281.701 257.833 281.156 257.374 280.702C256.925 280.294 256.404 280.075 255.81 280.045C255.216 279.997 254.49 280.163 253.634 280.542C252.768 280.911 251.712 281.519 250.466 282.365L247.133 284.645C244.166 286.668 241.341 287.802 238.656 288.047C235.97 288.274 233.509 287.316 231.272 285.175C229.438 283.453 228.304 281.452 227.869 279.171C227.434 276.873 227.663 274.484 228.555 272.004C229.456 269.515 230.985 267.133 233.142 264.857C235.343 262.534 237.635 260.894 240.018 259.936C242.401 258.978 244.734 258.71 247.017 259.134C249.3 259.539 251.386 260.629 253.276 262.405L246.194 269.879Z" fill="#5988FF"/>
<path d="M304.991 214.287C304.067 213.38 303.042 212.938 301.916 212.959C300.8 212.972 299.584 213.55 298.27 214.693C297.432 215.421 296.835 216.12 296.477 216.79C296.12 217.442 295.963 218.049 296.006 218.61C296.049 219.171 296.256 219.675 296.627 220.122C296.921 220.5 297.267 220.771 297.667 220.936C298.068 221.084 298.536 221.13 299.07 221.076C299.595 221.012 300.197 220.849 300.873 220.585C301.55 220.322 302.307 219.954 303.145 219.482L306.055 217.875C308.015 216.787 309.834 216.018 311.511 215.569C313.188 215.119 314.74 214.958 316.166 215.086C317.584 215.204 318.887 215.593 320.075 216.253C321.273 216.904 322.372 217.796 323.371 218.927C325.07 220.904 326.025 222.998 326.235 225.208C326.446 227.419 325.955 229.667 324.761 231.953C323.577 234.23 321.72 236.47 319.188 238.671C316.588 240.931 313.986 242.518 311.38 243.433C308.784 244.339 306.256 244.459 303.798 243.792C301.341 243.107 299.021 241.517 296.837 239.021L304.548 232.317C305.392 233.19 306.289 233.761 307.24 234.029C308.19 234.297 309.175 234.271 310.194 233.949C311.223 233.618 312.253 233.005 313.285 232.107C314.152 231.354 314.784 230.616 315.182 229.894C315.58 229.172 315.765 228.489 315.737 227.847C315.709 227.204 315.489 226.635 315.075 226.14C314.668 225.69 314.17 225.422 313.582 225.335C312.995 225.23 312.257 225.324 311.368 225.618C310.47 225.903 309.361 226.406 308.039 227.127L304.502 229.075C301.354 230.802 298.433 231.658 295.737 231.643C293.042 231.609 290.684 230.419 288.664 228.072C287.005 226.18 286.069 224.079 285.856 221.767C285.645 219.437 286.102 217.082 287.23 214.7C288.366 212.309 290.118 210.085 292.484 208.028C294.899 205.929 297.338 204.518 299.803 203.794C302.267 203.071 304.615 203.03 306.846 203.672C309.079 204.295 311.051 205.582 312.761 207.532L304.991 214.287Z" fill="#5988FF"/>
<path d="M333.732 175.043L342.227 168.441L357.796 188.503C359.648 190.888 360.679 193.396 360.891 196.026C361.105 198.638 360.567 201.206 359.275 203.729C357.976 206.242 355.987 208.54 353.307 210.622C350.608 212.72 347.881 214.088 345.126 214.726C342.363 215.353 339.743 215.24 337.268 214.385C334.794 213.513 332.632 211.884 330.781 209.499L315.212 189.436L323.708 182.834L338.707 202.162C339.459 203.13 340.345 203.831 341.366 204.263C342.38 204.685 343.429 204.817 344.515 204.659C345.612 204.493 346.644 204.035 347.611 203.282C348.589 202.522 349.289 201.635 349.711 200.621C350.132 199.607 350.264 198.557 350.107 197.47C349.941 196.373 349.483 195.34 348.731 194.372L333.732 175.043Z" fill="#5988FF"/>
<path d="M375.989 192.855L353.442 160.249L367.506 150.51C369.924 148.836 372.37 147.848 374.845 147.547C377.319 147.247 379.658 147.613 381.862 148.645C384.066 149.677 385.968 151.35 387.568 153.664C389.182 155.999 390.061 158.381 390.203 160.81C390.356 163.231 389.818 165.55 388.59 167.766C387.372 169.974 385.523 171.938 383.041 173.657L374.641 179.474L369.885 172.596L376.503 168.013C377.543 167.293 378.303 166.499 378.786 165.632C379.271 164.746 379.475 163.828 379.398 162.877C379.331 161.918 378.979 160.977 378.34 160.054C377.694 159.12 376.942 158.463 376.084 158.085C375.229 157.688 374.31 157.571 373.325 157.735C372.344 157.881 371.333 158.314 370.294 159.033L367.176 161.193L384.834 186.73L375.989 192.855Z" fill="#5988FF"/>
<path d="M411.683 168.511L390.905 134.749L405.467 125.774C407.971 124.231 410.467 123.375 412.953 123.207C415.44 123.038 417.756 123.528 419.902 124.677C422.048 125.825 423.858 127.597 425.332 129.993C426.82 132.411 427.571 134.836 427.584 137.269C427.607 139.695 426.947 141.982 425.602 144.129C424.269 146.27 422.317 148.132 419.748 149.716L411.05 155.077L406.667 147.955L413.52 143.731C414.596 143.068 415.398 142.316 415.926 141.475C416.458 140.617 416.71 139.711 416.684 138.757C416.668 137.796 416.366 136.838 415.778 135.882C415.183 134.915 414.467 134.219 413.63 133.795C412.798 133.353 411.885 133.188 410.893 133.299C409.906 133.392 408.874 133.77 407.797 134.434L404.569 136.424L420.842 162.866L411.683 168.511Z" fill="#5988FF"/>
<path d="M448.668 146.135L429.601 111.376L439.031 106.196L453.926 133.352L467.969 125.637L472.14 133.241L448.668 146.135Z" fill="#5988FF"/>
<path d="M481.906 128.157L464.539 92.5169L490.206 79.9914L494.005 87.7875L478.007 95.5948L480.992 101.72L495.668 94.5581L499.467 102.354L484.791 109.517L487.776 115.642L503.704 107.869L507.503 115.665L481.906 128.157Z" fill="#5988FF"/>
<path d="M519.997 66.5308L532.473 61.6704L549.197 79.256L549.629 79.0875L550.07 54.8153L562.546 49.9549L576.92 86.9052L567.112 90.7261L558.802 69.3642L558.513 69.4766L558.49 93.7526L552.576 96.0564L536.101 78.0416L535.813 78.154L544.179 99.6602L534.371 103.481L519.997 66.5308Z" fill="#5988FF"/>
<path d="M598.5 79.7891L587.426 83.2731L588.02 41.5217L602.047 37.1087L626.406 71.0096L615.332 74.4935L598.453 49.6857L598.158 49.7786L598.5 79.7891ZM591.745 65.5159L612.564 58.9661L614.977 66.6495L594.159 73.1993L591.745 65.5159Z" fill="#5988FF"/>
<path d="M636.483 68.2887L626.791 29.8418L643.374 25.6553C646.225 24.9354 648.862 24.8687 651.285 25.4552C653.707 26.0417 655.77 27.2049 657.472 28.945C659.175 30.685 660.37 32.9192 661.057 35.6475C661.751 38.4009 661.74 40.9398 661.022 43.2641C660.317 45.5853 659.001 47.5682 657.074 49.2127C655.16 50.8541 652.74 52.0441 649.814 52.7829L639.909 55.2835L637.864 47.1736L645.668 45.2035C646.894 44.8941 647.884 44.4177 648.64 43.7743C649.405 43.1153 649.918 42.3268 650.179 41.409C650.452 40.4881 650.452 39.4832 650.177 38.3944C649.899 37.293 649.425 36.4144 648.754 35.7584C648.093 35.0868 647.272 34.6549 646.293 34.4629C645.323 34.2553 644.225 34.3061 642.999 34.6156L639.322 35.5438L646.913 65.6555L636.483 68.2887Z" fill="#5988FF"/>
<path d="M694.153 27.1462C693.803 25.8995 693.135 25.0048 692.148 24.4621C691.173 23.9169 689.832 23.812 688.123 24.1476C687.035 24.3614 686.168 24.6697 685.524 25.0724C684.891 25.4599 684.453 25.9076 684.211 26.4156C683.968 26.9235 683.897 27.4637 683.996 28.0361C684.063 28.5097 684.228 28.9179 684.492 29.2606C684.767 29.5881 685.149 29.8616 685.639 30.0811C686.127 30.2879 686.729 30.4457 687.447 30.5546C688.165 30.6635 689.005 30.7222 689.966 30.7307L693.29 30.7883C695.531 30.8216 697.49 31.0616 699.168 31.508C700.846 31.9545 702.272 32.5887 703.445 33.4106C704.616 34.2197 705.552 35.2065 706.254 36.371C706.968 37.5329 707.477 38.8536 707.78 40.333C708.269 42.8939 708.055 45.1853 707.137 47.2071C706.219 49.2289 704.673 50.9333 702.501 52.3202C700.341 53.7047 697.615 54.7201 694.325 55.3664C690.945 56.0301 687.898 56.109 685.183 55.6031C682.481 55.0947 680.23 53.9387 678.431 52.1349C676.641 50.316 675.421 47.7803 674.77 44.5277L684.794 42.5589C685.091 43.737 685.584 44.6792 686.275 45.3854C686.965 46.0916 687.833 46.5593 688.876 46.7883C689.933 47.0149 691.132 46.9964 692.474 46.7329C693.6 46.5116 694.516 46.1871 695.22 45.7593C695.925 45.3315 696.425 44.8321 696.721 44.2611C697.016 43.6901 697.108 43.0867 696.997 42.4509C696.867 41.8581 696.569 41.3773 696.102 41.0086C695.646 40.6247 694.959 40.3387 694.041 40.1507C693.121 39.9499 691.909 39.8329 690.404 39.7996L686.367 39.7244C682.778 39.6532 679.819 38.9389 677.489 37.5813C675.169 36.2085 673.717 34.001 673.134 30.9588C672.637 28.4914 672.871 26.2027 673.838 24.0925C674.814 21.9671 676.384 20.1527 678.547 18.6493C680.723 17.1433 683.348 16.0883 686.424 15.4843C689.563 14.8678 692.381 14.8602 694.878 15.4615C697.375 16.0628 699.431 17.1979 701.046 18.8669C702.672 20.5206 703.741 22.6192 704.253 25.1625L694.153 27.1462Z" fill="#5988FF"/>
<path d="M774.263 15.9402C774.035 14.6656 773.456 13.7105 772.526 13.075C771.608 12.4383 770.283 12.2044 768.55 12.3735C767.446 12.4812 766.554 12.7043 765.874 13.043C765.206 13.3675 764.727 13.7709 764.437 14.2531C764.147 14.7353 764.024 15.266 764.067 15.8454C764.088 16.3232 764.213 16.7454 764.444 17.112C764.685 17.4645 765.039 17.7737 765.506 18.0394C765.971 18.2923 766.556 18.5076 767.26 18.6853C767.964 18.863 768.794 19.0025 769.75 19.1038L773.052 19.482C775.28 19.7316 777.207 20.1596 778.834 20.766C780.461 21.3724 781.819 22.1413 782.908 23.0726C783.995 23.9911 784.832 25.0636 785.418 26.2904C786.016 27.5158 786.396 28.8795 786.555 30.3813C786.795 32.9775 786.36 35.2375 785.252 37.1612C784.143 39.0849 782.441 40.6322 780.145 41.8029C777.861 42.9723 775.05 43.7198 771.713 44.0454C768.285 44.3797 765.245 44.1641 762.591 43.3984C759.951 42.6314 757.822 41.2634 756.205 39.2943C754.599 37.3112 753.629 34.6694 753.294 31.3691L763.461 30.3774C763.643 31.5787 764.044 32.5641 764.663 33.3337C765.282 34.1033 766.1 34.6525 767.117 34.9812C768.147 35.3088 769.342 35.4062 770.703 35.2734C771.845 35.162 772.788 34.9274 773.531 34.5696C774.273 34.2119 774.819 33.7631 775.168 33.2232C775.518 32.6834 775.667 32.0917 775.618 31.4481C775.546 30.8456 775.296 30.3383 774.867 29.9262C774.449 29.5001 773.793 29.1491 772.898 28.8733C772.002 28.5846 770.806 28.3511 769.311 28.1727L765.301 27.708C761.735 27.2907 758.858 26.2939 756.67 24.7177C754.494 23.1273 753.262 20.79 752.974 17.7056C752.717 15.2018 753.172 12.9463 754.337 10.9393C755.514 8.91808 757.251 7.26371 759.549 5.97614C761.86 4.68731 764.575 3.89076 767.694 3.58647C770.878 3.27593 773.683 3.54046 776.111 4.38007C778.538 5.21968 780.475 6.54803 781.922 8.36514C783.381 10.1681 784.242 12.3601 784.507 14.941L774.263 15.9402Z" fill="#5988FF"/>
<path d="M820.411 0.625228L831.159 0.171244L832.229 25.5503C832.356 28.568 831.745 31.2099 830.395 33.4761C829.057 35.7288 827.131 37.509 824.617 38.8166C822.103 40.1113 819.151 40.8303 815.762 40.9735C812.347 41.1177 809.332 40.6508 806.718 39.5727C804.103 38.4817 802.034 36.8703 800.511 34.7384C799 32.5931 798.181 30.0116 798.054 26.994L796.984 1.61485L807.731 1.16086L808.762 25.6115C808.814 26.8366 809.131 27.9213 809.713 28.8656C810.294 29.7971 811.073 30.5134 812.05 31.0148C813.039 31.5156 814.146 31.7401 815.37 31.6884C816.607 31.6362 817.691 31.3191 818.622 30.7372C819.553 30.1553 820.268 29.3757 820.769 28.3986C821.27 27.4085 821.494 26.3009 821.443 25.0758L820.411 0.625228Z" fill="#5988FF"/>
<path d="M844.535 39.6482L845.042 0L862.143 0.218998C865.084 0.256654 867.649 0.870387 869.84 2.0602C872.03 3.25001 873.725 4.90462 874.923 7.02404C876.121 9.14346 876.703 11.61 876.667 14.4235C876.63 17.2629 875.967 19.7135 874.676 21.7752C873.399 23.8371 871.618 25.4149 869.334 26.5087C867.062 27.6027 864.418 28.1303 861.4 28.0917L851.186 27.9609L851.293 19.5976L859.34 19.7006C860.604 19.7168 861.684 19.5112 862.579 19.0838C863.488 18.6436 864.186 18.0136 864.674 17.1937C865.174 16.374 865.432 15.4027 865.446 14.2798C865.461 13.1441 865.228 12.173 864.748 11.3665C864.282 10.5473 863.599 9.91896 862.702 9.4815C861.818 9.03128 860.744 8.79809 859.48 8.7819L855.688 8.73334L855.291 39.7859L844.535 39.6482Z" fill="#5988FF"/>
<path d="M887.721 40.5083L890.339 0.94349L907.404 2.07418C910.338 2.26859 912.867 3.01827 914.992 4.32321C917.116 5.62814 918.719 7.37077 919.803 9.55108C920.887 11.7314 921.336 14.2254 921.15 17.033C920.963 19.8665 920.17 22.2782 918.771 24.2681C917.386 26.259 915.523 27.7396 913.184 28.71C910.858 29.6813 908.189 30.0671 905.177 29.8676L894.984 29.1923L895.537 20.8466L903.567 21.3787C904.829 21.4622 905.918 21.3145 906.835 20.9354C907.765 20.5443 908.496 19.9524 909.027 19.1597C909.57 18.3679 909.879 17.4117 909.953 16.2912C910.028 15.1578 909.848 14.1757 909.412 13.3448C908.989 12.5018 908.341 11.838 907.469 11.3533C906.61 10.8566 905.55 10.5664 904.288 10.4829L900.505 10.2322L898.454 41.2195L887.721 40.5083Z" fill="#5988FF"/>
<path d="M930.821 43.7218L935.41 4.33728L946.095 5.58421L942.509 36.3534L958.42 38.2103L957.416 46.8257L930.821 43.7218Z" fill="#5988FF"/>
<path d="M968.32 48.3464L974.806 9.22966L1002.98 13.9069L1001.56 22.4637L983.999 19.5483L982.884 26.2715L998.993 28.946L997.574 37.5028L981.466 34.8283L980.351 41.5515L997.834 44.4542L996.415 53.011L968.32 48.3464Z" fill="#5988FF"/>
<path d="M1035.05 20.2123L1048.03 23.4866L1051.48 47.5166L1051.93 47.6302L1066.34 28.1045L1079.32 31.3788L1069.64 69.8279L1059.43 67.254L1065.03 45.0255L1064.73 44.9498L1050.66 64.7203L1044.5 63.1684L1041.51 38.9325L1041.21 38.8568L1035.57 61.2355L1025.37 58.6615L1035.05 20.2123Z" fill="#5988FF"/>
<path d="M1091.35 76.5448L1080.31 72.962L1104.97 39.2801L1118.96 43.8183L1119.18 85.5734L1108.13 81.9906L1108.74 51.9843L1108.45 51.8888L1091.35 76.5448ZM1094.11 60.9949L1114.87 67.7305L1112.39 75.3921L1091.63 68.6565L1094.11 60.9949Z" fill="#5988FF"/>
<path d="M1128.96 89.1992L1143.33 52.2456L1159.27 58.4508C1162.01 59.5178 1164.19 60.9927 1165.83 62.8755C1167.46 64.7584 1168.47 66.9025 1168.85 69.3078C1169.23 71.7131 1168.91 74.2269 1167.89 76.8493C1166.86 79.4957 1165.38 81.558 1163.45 83.0361C1161.53 84.5188 1159.31 85.3717 1156.79 85.5946C1154.28 85.8222 1151.62 85.3885 1148.81 84.2934L1139.29 80.5872L1142.32 72.7923L1149.82 75.7124C1150.99 76.171 1152.08 76.3572 1153.07 76.2711C1154.07 76.1777 1154.95 75.8326 1155.69 75.2359C1156.45 74.6438 1157.03 73.8245 1157.43 72.778C1157.85 71.7194 1157.97 70.7283 1157.8 69.8047C1157.65 68.8737 1157.23 68.046 1156.54 67.3214C1155.87 66.5895 1154.95 65.9943 1153.77 65.5357L1150.24 64.1599L1138.99 93.1021L1128.96 89.1992Z" fill="#5988FF"/>
<path d="M1199.79 89.1148C1200.22 87.896 1200.2 86.7792 1199.71 85.7645C1199.23 84.755 1198.2 83.8916 1196.61 83.1742C1195.6 82.7172 1194.71 82.4661 1193.96 82.4208C1193.22 82.3691 1192.6 82.48 1192.11 82.7536C1191.62 83.0271 1191.24 83.4259 1190.99 83.9499C1190.77 84.3745 1190.67 84.8031 1190.69 85.2357C1190.72 85.6618 1190.88 86.1064 1191.15 86.5693C1191.43 87.0206 1191.83 87.4987 1192.35 88.0039C1192.87 88.509 1193.52 89.0438 1194.3 89.6081L1196.97 91.5824C1198.78 92.9093 1200.24 94.2412 1201.35 95.5782C1202.46 96.9152 1203.25 98.2588 1203.73 99.609C1204.22 100.947 1204.41 102.295 1204.31 103.65C1204.22 105.012 1203.87 106.383 1203.26 107.764C1202.17 110.135 1200.67 111.878 1198.75 112.994C1196.83 114.109 1194.59 114.602 1192.01 114.472C1189.45 114.348 1186.64 113.595 1183.59 112.213C1180.45 110.794 1177.92 109.091 1176 107.105C1174.09 105.123 1172.93 102.876 1172.5 100.362C1172.1 97.8419 1172.57 95.0677 1173.93 92.0393L1183.23 96.2481C1182.79 97.3803 1182.65 98.4345 1182.8 99.4105C1182.96 100.386 1183.39 101.27 1184.11 102.063C1184.84 102.86 1185.83 103.54 1187.08 104.103C1188.12 104.576 1189.06 104.843 1189.88 104.903C1190.7 104.963 1191.4 104.846 1191.97 104.552C1192.54 104.258 1192.96 103.82 1193.24 103.237C1193.48 102.679 1193.52 102.114 1193.35 101.543C1193.2 100.965 1192.8 100.334 1192.17 99.6485C1191.53 98.9513 1190.61 98.1528 1189.4 97.2529L1186.16 94.8505C1183.27 92.7111 1181.28 90.4126 1180.16 87.955C1179.07 85.491 1179.16 82.8502 1180.45 80.0324C1181.47 77.7334 1182.99 76.0042 1185 74.8448C1187.03 73.679 1189.36 73.1106 1191.99 73.1398C1194.63 73.1743 1197.39 73.8372 1200.24 75.1285C1203.16 76.4464 1205.46 78.0744 1207.14 80.0126C1208.83 81.9507 1209.85 84.0683 1210.2 86.3652C1210.57 88.6557 1210.22 90.9858 1209.17 93.3554L1199.79 89.1148Z" fill="#5988FF"/>
</svg>
