<svg width="1864" height="1861" viewBox="0 0 1864 1861" fill="none" xmlns="http://www.w3.org/2000/svg">
<path d="M837.821 1847.46C837.799 1848.75 838.184 1849.8 838.974 1850.6C839.751 1851.4 841.006 1851.89 842.739 1852.06C843.843 1852.16 844.761 1852.12 845.493 1851.91C846.211 1851.72 846.759 1851.42 847.136 1851C847.513 1850.59 847.736 1850.09 847.805 1849.51C847.877 1849.04 847.835 1848.6 847.68 1848.2C847.511 1847.81 847.223 1847.44 846.816 1847.08C846.409 1846.75 845.876 1846.42 845.22 1846.11C844.563 1845.8 843.776 1845.51 842.857 1845.22L839.69 1844.22C837.552 1843.54 835.744 1842.75 834.264 1841.84C832.785 1840.93 831.6 1839.92 830.712 1838.79C829.822 1837.68 829.207 1836.47 828.868 1835.16C828.516 1833.84 828.407 1832.43 828.54 1830.92C828.804 1828.33 829.665 1826.2 831.122 1824.52C832.58 1822.85 834.548 1821.66 837.027 1820.96C839.492 1820.25 842.393 1820.06 845.731 1820.38C849.158 1820.71 852.099 1821.51 854.555 1822.77C856.998 1824.03 858.824 1825.78 860.032 1828.03C861.226 1830.28 861.669 1833.06 861.362 1836.36L851.196 1835.38C851.249 1834.16 851.046 1833.12 850.586 1832.24C850.127 1831.37 849.43 1830.67 848.495 1830.16C847.548 1829.64 846.394 1829.31 845.034 1829.18C843.891 1829.07 842.921 1829.12 842.124 1829.32C841.326 1829.53 840.704 1829.87 840.258 1830.33C839.811 1830.79 839.551 1831.34 839.476 1831.98C839.43 1832.59 839.578 1833.13 839.919 1833.62C840.247 1834.12 840.823 1834.59 841.648 1835.03C842.472 1835.49 843.6 1835.95 845.032 1836.41L848.878 1837.64C852.296 1838.74 854.927 1840.27 856.77 1842.24C858.599 1844.22 859.358 1846.75 859.047 1849.83C858.817 1852.33 857.938 1854.46 856.408 1856.2C854.865 1857.96 852.842 1859.24 850.34 1860.06C847.824 1860.88 845.007 1861.14 841.888 1860.84C838.705 1860.53 836.003 1859.73 833.783 1858.44C831.563 1857.15 829.918 1855.47 828.848 1853.41C827.764 1851.36 827.341 1849.05 827.578 1846.46L837.821 1847.46Z" fill="#5988FF"/>
<path d="M789.739 1853.76L779.099 1852.18L782.806 1827.06C783.247 1824.08 784.343 1821.6 786.094 1819.63C787.83 1817.67 790.055 1816.28 792.769 1815.47C795.481 1814.67 798.515 1814.52 801.87 1815.01C805.251 1815.51 808.124 1816.54 810.489 1818.09C812.853 1819.65 814.582 1821.62 815.678 1824C816.76 1826.39 817.08 1829.08 816.639 1832.06L812.932 1857.18L802.292 1855.61L805.864 1831.41C806.043 1830.2 805.935 1829.07 805.54 1828.04C805.144 1827.01 804.513 1826.16 803.648 1825.49C802.77 1824.81 801.726 1824.38 800.514 1824.2C799.289 1824.02 798.165 1824.13 797.142 1824.53C796.119 1824.92 795.27 1825.55 794.594 1826.42C793.917 1827.3 793.489 1828.34 793.31 1829.56L789.739 1853.76Z" fill="#5988FF"/>
<path d="M773.323 1810.94L765.587 1849.81L748.816 1846.47C745.932 1845.9 743.523 1844.82 741.587 1843.25C739.65 1841.68 738.287 1839.75 737.496 1837.45C736.705 1835.14 736.584 1832.61 737.133 1829.86C737.687 1827.07 738.786 1824.79 740.431 1822.99C742.063 1821.2 744.102 1819.98 746.547 1819.32C748.98 1818.66 751.676 1818.62 754.635 1819.21L764.652 1821.21L763.02 1829.41L755.128 1827.84C753.889 1827.59 752.79 1827.59 751.831 1827.85C750.858 1828.12 750.057 1828.61 749.427 1829.33C748.786 1830.04 748.355 1830.95 748.136 1832.05C747.915 1833.16 747.966 1834.16 748.29 1835.04C748.6 1835.93 749.156 1836.67 749.958 1837.27C750.745 1837.87 751.758 1838.29 752.998 1838.54L756.716 1839.28L762.775 1808.84L773.323 1810.94Z" fill="#5988FF"/>
<path d="M730.987 1802.22L721.379 1840.67L704.79 1836.52C701.937 1835.81 699.582 1834.62 697.724 1832.96C695.866 1831.3 694.598 1829.3 693.919 1826.96C693.241 1824.62 693.242 1822.09 693.924 1819.36C694.612 1816.61 695.821 1814.38 697.551 1812.67C699.268 1810.96 701.363 1809.83 703.837 1809.29C706.299 1808.75 708.993 1808.85 711.921 1809.58L721.829 1812.06L719.803 1820.17L711.996 1818.22C710.77 1817.91 709.672 1817.86 708.702 1818.07C707.717 1818.29 706.893 1818.74 706.23 1819.43C705.554 1820.11 705.081 1820.99 704.808 1822.08C704.533 1823.18 704.536 1824.18 704.818 1825.08C705.084 1825.98 705.603 1826.75 706.375 1827.38C707.132 1828.02 708.124 1828.5 709.35 1828.8L713.028 1829.73L720.553 1799.61L730.987 1802.22Z" fill="#5988FF"/>
<path d="M689.113 1791.41L677.77 1829.39L667.465 1826.31L676.327 1796.64L660.981 1792.05L663.463 1783.74L689.113 1791.41Z" fill="#5988FF"/>
<path d="M652.953 1780.36L639.955 1817.81L612.984 1808.43L615.827 1800.24L632.638 1806.08L634.872 1799.65L619.45 1794.29L622.293 1786.1L637.716 1791.46L639.95 1785.02L623.212 1779.21L626.055 1771.02L652.953 1780.36Z" fill="#5988FF"/>
<path d="M582.64 1796.97L570.359 1791.64L570.841 1767.38L570.415 1767.19L553.039 1784.12L540.758 1778.79L556.522 1742.43L566.176 1746.62L557.063 1767.64L557.347 1767.77L574.429 1750.54L580.25 1753.06L579.291 1777.46L579.575 1777.58L588.749 1756.42L598.403 1760.6L582.64 1796.97Z" fill="#5988FF"/>
<path d="M536.099 1732.38L546.448 1737.63L516.855 1767.05L503.746 1760.39L510.02 1719.13L520.369 1724.39L515.101 1753.92L515.377 1754.06L536.099 1732.38ZM530.956 1747.3L511.5 1737.42L515.142 1730.24L534.598 1740.12L530.956 1747.3Z" fill="#5988FF"/>
<path d="M500.865 1714.04L481.112 1748.4L466.289 1739.87C463.741 1738.4 461.8 1736.62 460.467 1734.51C459.135 1732.4 458.461 1730.13 458.447 1727.7C458.433 1725.26 459.127 1722.83 460.529 1720.39C461.944 1717.93 463.717 1716.11 465.847 1714.94C467.967 1713.77 470.29 1713.26 472.817 1713.42C475.332 1713.57 477.898 1714.4 480.514 1715.9L489.367 1721L485.2 1728.25L478.225 1724.23C477.13 1723.6 476.087 1723.25 475.097 1723.19C474.089 1723.13 473.173 1723.34 472.348 1723.82C471.512 1724.29 470.814 1725.01 470.254 1725.99C469.689 1726.97 469.419 1727.93 469.445 1728.87C469.453 1729.81 469.743 1730.69 470.313 1731.51C470.866 1732.34 471.69 1733.06 472.785 1733.69L476.072 1735.59L491.542 1708.68L500.865 1714.04Z" fill="#5988FF"/>
<path d="M430.858 1703.63C430.249 1704.78 430.112 1705.88 430.45 1706.96C430.776 1708.03 431.672 1709.03 433.137 1709.97C434.071 1710.57 434.909 1710.95 435.652 1711.1C436.377 1711.26 437.003 1711.24 437.529 1711.04C438.055 1710.84 438.48 1710.5 438.804 1710.02C439.084 1709.63 439.246 1709.23 439.293 1708.8C439.321 1708.37 439.234 1707.91 439.032 1707.41C438.823 1706.92 438.497 1706.39 438.054 1705.82C437.611 1705.24 437.046 1704.62 436.358 1703.95L433.999 1701.6C432.405 1700.03 431.156 1698.5 430.254 1697.01C429.351 1695.53 428.761 1694.09 428.482 1692.68C428.196 1691.29 428.203 1689.93 428.502 1688.6C428.789 1687.27 429.335 1685.96 430.139 1684.69C431.557 1682.5 433.296 1680.99 435.356 1680.17C437.416 1679.35 439.71 1679.19 442.237 1679.69C444.754 1680.19 447.423 1681.34 450.245 1683.15C453.143 1685.01 455.397 1687.06 457.006 1689.31C458.605 1691.55 459.431 1693.94 459.483 1696.48C459.517 1699.04 458.644 1701.71 456.865 1704.51L448.269 1698.99C448.869 1697.93 449.165 1696.91 449.154 1695.93C449.144 1694.94 448.842 1694 448.246 1693.11C447.641 1692.22 446.762 1691.4 445.612 1690.66C444.646 1690.04 443.761 1689.64 442.956 1689.46C442.152 1689.28 441.445 1689.3 440.837 1689.51C440.229 1689.71 439.746 1690.09 439.387 1690.62C439.07 1691.14 438.953 1691.69 439.035 1692.28C439.099 1692.87 439.397 1693.56 439.929 1694.33C440.455 1695.11 441.249 1696.03 442.312 1697.1L445.174 1699.95C447.715 1702.48 449.357 1705.05 450.1 1707.64C450.826 1710.24 450.347 1712.83 448.665 1715.43C447.318 1717.56 445.566 1719.05 443.41 1719.9C441.236 1720.76 438.848 1720.98 436.247 1720.57C433.636 1720.15 431.011 1719.09 428.374 1717.4C425.682 1715.67 423.643 1713.73 422.256 1711.56C420.87 1709.4 420.17 1707.16 420.158 1704.84C420.128 1702.52 420.808 1700.26 422.197 1698.07L430.858 1703.63Z" fill="#5988FF"/>
<path d="M365.19 1656.69C364.483 1657.78 364.25 1658.87 364.492 1659.97C364.723 1661.06 365.528 1662.14 366.905 1663.21C367.782 1663.89 368.584 1664.34 369.311 1664.56C370.02 1664.78 370.645 1664.81 371.186 1664.66C371.727 1664.51 372.18 1664.21 372.546 1663.76C372.858 1663.39 373.056 1663 373.14 1662.58C373.205 1662.15 373.159 1661.69 373.002 1661.17C372.836 1660.67 372.558 1660.11 372.167 1659.5C371.777 1658.89 371.268 1658.22 370.642 1657.49L368.497 1654.95C367.047 1653.24 365.937 1651.61 365.168 1650.05C364.399 1648.49 363.937 1647 363.783 1645.58C363.621 1644.16 363.746 1642.81 364.16 1641.51C364.564 1640.21 365.222 1638.96 366.135 1637.76C367.738 1635.7 369.603 1634.36 371.727 1633.72C373.852 1633.08 376.151 1633.12 378.624 1633.84C381.087 1634.56 383.645 1635.94 386.297 1637.99C389.021 1640.1 391.086 1642.34 392.493 1644.72C393.89 1647.09 394.502 1649.54 394.331 1652.08C394.141 1654.63 393.038 1657.22 391.02 1659.85L382.941 1653.6C383.631 1652.6 384.015 1651.61 384.091 1650.62C384.168 1649.64 383.949 1648.68 383.434 1647.74C382.908 1646.79 382.105 1645.9 381.024 1645.07C380.116 1644.37 379.269 1643.89 378.483 1643.64C377.698 1643.39 376.993 1643.34 376.369 1643.5C375.745 1643.65 375.231 1643.98 374.826 1644.48C374.466 1644.97 374.3 1645.51 374.33 1646.1C374.342 1646.7 374.579 1647.4 375.042 1648.22C375.497 1649.04 376.207 1650.03 377.173 1651.19L379.774 1654.28C382.083 1657.03 383.494 1659.73 384.007 1662.37C384.502 1665.02 383.798 1667.57 381.894 1670.01C380.366 1672.01 378.491 1673.34 376.268 1674C374.027 1674.66 371.629 1674.68 369.074 1674.04C366.51 1673.39 363.988 1672.11 361.509 1670.19C358.979 1668.23 357.118 1666.12 355.926 1663.84C354.735 1661.56 354.235 1659.27 354.426 1656.95C354.599 1654.64 355.474 1652.46 357.049 1650.4L365.19 1656.69Z" fill="#5988FF"/>
<path d="M321.139 1636.41L312.97 1629.41L329.479 1610.12C331.441 1607.83 333.689 1606.31 336.22 1605.58C338.733 1604.84 341.355 1604.86 344.084 1605.61C346.805 1606.38 349.453 1607.87 352.029 1610.08C354.625 1612.3 356.511 1614.7 357.689 1617.27C358.858 1619.85 359.273 1622.44 358.934 1625.04C358.577 1627.64 357.417 1630.09 355.454 1632.38L338.946 1651.66L330.777 1644.66L346.682 1626.08C347.479 1625.15 347.986 1624.14 348.204 1623.06C348.413 1621.98 348.331 1620.92 347.959 1619.89C347.577 1618.85 346.92 1617.93 345.99 1617.13C345.049 1616.33 344.041 1615.82 342.963 1615.61C341.886 1615.4 340.832 1615.48 339.8 1615.86C338.759 1616.24 337.84 1616.9 337.044 1617.83L321.139 1636.41Z" fill="#5988FF"/>
<path d="M330.036 1591.42L302.797 1620.2L290.381 1608.44C288.246 1606.41 286.777 1604.22 285.974 1601.86C285.171 1599.5 285.047 1597.14 285.603 1594.77C286.158 1592.4 287.403 1590.19 289.336 1588.15C291.287 1586.09 293.434 1584.74 295.78 1584.1C298.116 1583.45 300.493 1583.5 302.913 1584.25C305.323 1584.98 307.623 1586.39 309.814 1588.47L317.23 1595.49L311.485 1601.56L305.642 1596.03C304.724 1595.16 303.791 1594.58 302.844 1594.28C301.878 1593.99 300.938 1593.98 300.024 1594.25C299.101 1594.51 298.254 1595.05 297.482 1595.87C296.702 1596.69 296.215 1597.56 296.021 1598.48C295.809 1599.4 295.884 1600.32 296.247 1601.25C296.592 1602.18 297.223 1603.08 298.14 1603.95L300.893 1606.56L322.227 1584.02L330.036 1591.42Z" fill="#5988FF"/>
<path d="M298.843 1561.48L270.243 1588.91L258.411 1576.56C256.376 1574.43 255.015 1572.17 254.327 1569.78C253.639 1567.38 253.63 1565.01 254.3 1562.67C254.97 1560.33 256.319 1558.19 258.349 1556.24C260.397 1554.28 262.608 1553.04 264.981 1552.51C267.346 1551.98 269.718 1552.14 272.099 1553C274.47 1553.86 276.7 1555.37 278.788 1557.55L285.855 1564.93L279.823 1570.72L274.254 1564.9C273.38 1563.99 272.476 1563.36 271.544 1563.03C270.594 1562.69 269.656 1562.63 268.73 1562.86C267.795 1563.07 266.922 1563.57 266.112 1564.35C265.293 1565.13 264.764 1565.98 264.526 1566.89C264.27 1567.79 264.3 1568.72 264.618 1569.67C264.917 1570.61 265.504 1571.54 266.378 1572.46L269.002 1575.19L291.401 1553.71L298.843 1561.48Z" fill="#5988FF"/>
<path d="M269.157 1530.02L239.342 1556.12L232.26 1548.02L255.553 1527.63L245.006 1515.57L251.528 1509.87L269.157 1530.02Z" fill="#5988FF"/>
<path d="M244.429 1501.41L213.497 1526.17L195.658 1503.87L202.424 1498.45L213.544 1512.35L218.86 1508.1L208.659 1495.34L215.425 1489.93L225.626 1502.68L230.942 1498.42L219.872 1484.58L226.638 1479.16L244.429 1501.41Z" fill="#5988FF"/>
<path d="M176.079 1478L168.521 1466.94L181.842 1446.66L181.58 1446.28L157.861 1451.35L150.304 1440.3L183.001 1417.92L188.942 1426.61L170.039 1439.55L170.214 1439.8L193.842 1434.32L197.424 1439.56L183.629 1459.7L183.804 1459.95L202.835 1446.93L208.776 1455.62L176.079 1478Z" fill="#5988FF"/>
<path d="M171.068 1398.53L177.029 1408.49L136.322 1417.63L128.771 1405L156.045 1373.42L162.007 1383.38L141.828 1405.58L141.987 1405.84L171.068 1398.53ZM158.77 1408.42L147.563 1389.69L154.467 1385.55L165.674 1404.29L158.77 1408.42Z" fill="#5988FF"/>
<path d="M151.005 1364.24L115.998 1382.79L107.993 1367.68C106.617 1365.08 105.925 1362.53 105.919 1360.04C105.912 1357.54 106.55 1355.26 107.834 1353.2C109.118 1351.13 111.002 1349.44 113.487 1348.12C115.994 1346.79 118.46 1346.2 120.886 1346.34C123.307 1346.48 125.544 1347.28 127.598 1348.76C129.646 1350.23 131.376 1352.3 132.789 1354.97L137.57 1364L130.186 1367.91L126.418 1360.8C125.827 1359.68 125.129 1358.83 124.325 1358.25C123.504 1357.67 122.617 1357.35 121.664 1357.32C120.705 1357.27 119.73 1357.51 118.739 1358.04C117.736 1358.57 116.996 1359.24 116.519 1360.05C116.024 1360.85 115.8 1361.75 115.847 1362.75C115.876 1363.74 116.186 1364.79 116.778 1365.91L118.553 1369.26L145.97 1354.73L151.005 1364.24Z" fill="#5988FF"/>
<path d="M97.2904 1318.13C96.1668 1318.77 95.4616 1319.63 95.1749 1320.72C94.8826 1321.8 95.1063 1323.13 95.8459 1324.71C96.317 1325.71 96.8258 1326.48 97.3722 1327C97.9015 1327.52 98.4417 1327.84 98.9927 1327.95C99.5438 1328.06 100.085 1328 100.616 1327.77C101.058 1327.59 101.414 1327.33 101.682 1326.99C101.933 1326.64 102.105 1326.21 102.199 1325.68C102.282 1325.15 102.288 1324.53 102.22 1323.81C102.151 1323.08 102.005 1322.26 101.78 1321.32L101.03 1318.08C100.519 1315.9 100.276 1313.94 100.302 1312.2C100.328 1310.47 100.597 1308.93 101.109 1307.59C101.61 1306.26 102.339 1305.11 103.298 1304.15C104.251 1303.17 105.408 1302.36 106.768 1301.71C109.132 1300.61 111.405 1300.26 113.587 1300.66C115.769 1301.06 117.796 1302.15 119.667 1303.92C121.533 1305.68 123.178 1308.08 124.602 1311.12C126.065 1314.24 126.88 1317.18 127.048 1319.93C127.21 1322.68 126.635 1325.14 125.323 1327.33C123.994 1329.5 121.832 1331.3 118.837 1332.72L114.499 1323.47C115.569 1322.9 116.362 1322.19 116.879 1321.35C117.396 1320.51 117.639 1319.55 117.608 1318.49C117.572 1317.41 117.263 1316.25 116.683 1315.01C116.195 1313.97 115.658 1313.16 115.073 1312.58C114.487 1312 113.882 1311.63 113.257 1311.49C112.632 1311.34 112.025 1311.39 111.435 1311.66C110.892 1311.93 110.498 1312.33 110.254 1312.87C109.993 1313.41 109.882 1314.15 109.922 1315.08C109.951 1316.02 110.131 1317.23 110.464 1318.7L111.37 1322.63C112.171 1326.13 112.196 1329.18 111.445 1331.77C110.677 1334.35 108.889 1336.3 106.082 1337.6C103.811 1338.68 101.536 1339.01 99.2559 1338.58C96.9591 1338.15 94.8198 1337.07 92.8381 1335.33C90.8509 1333.58 89.1918 1331.29 87.8606 1328.45C86.502 1325.56 85.8114 1322.82 85.7889 1320.26C85.7663 1317.69 86.368 1315.42 87.594 1313.44C88.8028 1311.47 90.5778 1309.92 92.9188 1308.81L97.2904 1318.13Z" fill="#5988FF"/>
<path d="M66.6944 1243.41C65.5189 1243.95 64.7406 1244.75 64.3595 1245.81C63.9739 1246.86 64.0804 1248.2 64.6789 1249.84C65.0602 1250.88 65.4999 1251.68 65.998 1252.26C66.4796 1252.82 66.99 1253.19 67.5291 1253.35C68.0682 1253.51 68.6124 1253.49 69.1618 1253.3C69.6187 1253.16 69.9956 1252.94 70.2924 1252.62C70.5726 1252.3 70.7827 1251.88 70.9226 1251.36C71.0504 1250.85 71.1119 1250.23 71.107 1249.5C71.1021 1248.77 71.0287 1247.94 70.8867 1246.98L70.4234 1243.69C70.1057 1241.47 70.0358 1239.5 70.2139 1237.77C70.3919 1236.04 70.7947 1234.54 71.4221 1233.25C72.0374 1231.96 72.8647 1230.89 73.9039 1230.01C74.9388 1229.12 76.1624 1228.41 77.5748 1227.88C80.0254 1227 82.3201 1226.85 84.4588 1227.44C86.5975 1228.03 88.5211 1229.29 90.2298 1231.22C91.9339 1233.14 93.3624 1235.67 94.515 1238.82C95.6987 1242.06 96.2534 1245.06 96.1789 1247.82C96.1001 1250.57 95.3115 1252.97 93.8131 1255.03C92.2982 1257.09 89.9869 1258.69 86.8791 1259.84L83.3679 1250.24C84.4841 1249.77 85.3366 1249.13 85.9254 1248.34C86.5142 1247.55 86.84 1246.62 86.9027 1245.55C86.9609 1244.47 86.7551 1243.29 86.2851 1242C85.8906 1240.93 85.4271 1240.07 84.8947 1239.44C84.3623 1238.81 83.7912 1238.4 83.1815 1238.19C82.5718 1237.99 81.9619 1238 81.352 1238.2C80.7873 1238.43 80.3595 1238.8 80.0687 1239.31C79.7613 1239.82 79.5866 1240.55 79.5445 1241.48C79.4904 1242.42 79.5646 1243.64 79.7673 1245.13L80.3246 1249.13C80.816 1252.69 80.5742 1255.73 79.5991 1258.24C78.6074 1260.75 76.6562 1262.53 73.7454 1263.58C71.3884 1264.46 69.0932 1264.58 66.8596 1263.96C64.6096 1263.33 62.5735 1262.06 60.7515 1260.16C58.925 1258.24 57.4731 1255.81 56.3958 1252.87C55.2963 1249.86 54.8479 1247.08 55.0506 1244.52C55.2533 1241.96 56.0517 1239.75 57.4458 1237.89C58.8234 1236.03 60.727 1234.64 63.1566 1233.74L66.6944 1243.41Z" fill="#5988FF"/>
<path d="M40.2093 1202.77L37.0209 1192.49L61.2589 1184.96C64.1408 1184.07 66.8489 1183.98 69.3831 1184.71C71.9012 1185.43 74.1134 1186.83 76.0196 1188.93C77.9135 1191.03 79.3631 1193.7 80.3686 1196.94C81.3818 1200.21 81.7022 1203.24 81.3299 1206.05C80.9453 1208.85 79.9183 1211.27 78.249 1213.28C76.5635 1215.29 74.2797 1216.75 71.3978 1217.64L47.1598 1225.17L43.9713 1214.89L67.3225 1207.64C68.4926 1207.28 69.4591 1206.69 70.2223 1205.89C70.9731 1205.09 71.4657 1204.15 71.7001 1203.08C71.9306 1201.99 71.8643 1200.87 71.5011 1199.7C71.134 1198.51 70.5504 1197.55 69.7503 1196.79C68.9501 1196.04 68.014 1195.55 66.942 1195.32C65.8578 1195.08 64.7306 1195.15 63.5606 1195.51L40.2093 1202.77Z" fill="#5988FF"/>
<path d="M71.6851 1169.43L33.311 1179.28L29.0633 1162.7C28.3329 1159.85 28.256 1157.22 28.8324 1154.79C29.4089 1152.37 30.563 1150.3 32.2949 1148.59C34.0267 1146.88 36.2542 1145.67 38.9773 1144.98C41.7255 1144.27 44.2621 1144.27 46.5872 1144.98C48.909 1145.68 50.8953 1146.99 52.5458 1148.91C54.1932 1150.82 55.3916 1153.23 56.1412 1156.16L58.6783 1166.05L50.5837 1168.13L48.5848 1160.33C48.2709 1159.11 47.7911 1158.12 47.1453 1157.37C46.4839 1156.6 45.6942 1156.09 44.7762 1155.84C43.855 1155.57 42.851 1155.57 41.7642 1155.85C40.665 1156.13 39.789 1156.61 39.1362 1157.28C38.4678 1157.95 38.0396 1158.77 37.8516 1159.75C37.6479 1160.72 37.703 1161.82 38.017 1163.04L38.9587 1166.72L69.0135 1159.01L71.6851 1169.43Z" fill="#5988FF"/>
<path d="M61.2198 1127.47L22.4141 1135.45L18.9735 1118.69C18.3819 1115.81 18.4327 1113.17 19.1258 1110.77C19.819 1108.38 21.0719 1106.37 22.8844 1104.75C24.6969 1103.12 26.9801 1102.03 29.7339 1101.46C32.5129 1100.89 35.0465 1101.01 37.3345 1101.84C39.62 1102.64 41.5405 1104.05 43.0962 1106.05C44.6493 1108.03 45.7294 1110.5 46.3366 1113.46L48.3916 1123.47L40.206 1125.15L38.5869 1117.27C38.3326 1116.03 37.9012 1115.02 37.2927 1114.23C36.6689 1113.44 35.9048 1112.89 35.0004 1112.59C34.0933 1112.27 33.0903 1112.23 31.9913 1112.46C30.8797 1112.69 29.9816 1113.12 29.297 1113.76C28.5972 1114.39 28.1297 1115.19 27.8944 1116.16C27.644 1117.12 27.6459 1118.22 27.9002 1119.46L28.663 1123.18L59.0558 1116.93L61.2198 1127.47Z" fill="#5988FF"/>
<path d="M52.8365 1085.03L13.709 1091.23L12.0255 1080.6L42.5939 1075.76L40.0868 1059.93L48.6459 1058.57L52.8365 1085.03Z" fill="#5988FF"/>
<path d="M47.1405 1047.63L7.77849 1052.11L4.55115 1023.73L13.1616 1022.75L15.1732 1040.44L21.9385 1039.67L20.0931 1023.44L28.7035 1022.46L30.549 1038.69L37.3143 1037.92L35.3114 1020.3L43.9219 1019.32L47.1405 1047.63Z" fill="#5988FF"/>
<path d="M1.75015 991.397L1.23697 978.015L23.3062 967.949L23.2884 967.485L0.513179 959.14L0 945.757L39.5868 944.238L39.9902 954.758L17.1041 955.637L17.116 955.946L40.0309 963.898L40.2742 970.241L17.8809 979.932L17.8928 980.242L40.9335 979.357L41.3369 989.878L1.75015 991.397Z" fill="#5988FF"/>
<path d="M39.8083 921.466L39.5506 933.075L0.234811 919.116L0.561211 904.411L40.4577 892.211L40.2 903.82L11.3086 911.851L11.3017 912.16L39.8083 921.466ZM24.1343 923.286L24.6188 901.461L32.6638 901.64L32.1793 923.465L24.1343 923.286Z" fill="#5988FF"/>
<path d="M41.0791 881.753L1.57294 878.806L2.84449 861.745C3.06313 858.811 3.83314 856.287 5.15453 854.174C6.47592 852.06 8.23026 850.47 10.4176 849.404C12.6048 848.338 15.1002 847.91 17.9037 848.119C20.733 848.33 23.1358 849.143 25.1123 850.558C27.0898 851.961 28.5535 853.836 29.5036 856.184C30.4546 858.519 30.8179 861.192 30.5935 864.203L29.834 874.393L21.5007 873.772L22.0991 865.743C22.1931 864.482 22.0545 863.391 21.6834 862.471C21.3005 861.537 20.7152 860.801 19.9276 860.263C19.141 859.713 18.1883 859.396 17.0695 859.313C15.9378 859.228 14.9551 859.401 14.1213 859.83C13.2756 860.246 12.607 860.888 12.1155 861.757C11.6121 862.612 11.3134 863.67 11.2194 864.931L10.9375 868.714L41.8789 871.022L41.0791 881.753Z" fill="#5988FF"/>
<path d="M20.1595 814.105C18.867 814.049 17.8095 814.406 16.9869 815.175C16.1658 815.932 15.6486 817.175 15.4353 818.903C15.2993 820.004 15.3223 820.924 15.5041 821.661C15.6748 822.384 15.9635 822.94 16.3703 823.328C16.7772 823.717 17.2678 823.953 17.8422 824.037C18.3125 824.121 18.7516 824.091 19.1592 823.946C19.5557 823.787 19.9344 823.509 20.2953 823.111C20.6434 822.712 20.9809 822.188 21.3078 821.54C21.6348 820.891 21.9519 820.111 22.2593 819.2L23.3487 816.059C24.0781 813.939 24.916 812.151 25.8624 810.695C26.8088 809.239 27.8547 808.081 29.0003 807.222C30.1331 806.361 31.3615 805.778 32.6854 805.473C34.011 805.156 35.4232 805.084 36.9223 805.256C39.506 805.588 41.6147 806.505 43.2485 808.007C44.8822 809.509 46.0193 811.508 46.6596 814.006C47.3015 816.49 47.417 819.397 47.006 822.726C46.584 826.145 45.7102 829.066 44.3846 831.489C43.0606 833.9 41.2621 835.679 38.9893 836.829C36.7053 837.964 33.9178 838.334 30.627 837.941L31.8788 827.799C33.0898 827.884 34.138 827.708 35.0235 827.271C35.909 826.834 36.623 826.156 37.1654 825.235C37.7095 824.301 38.0653 823.155 38.2328 821.798C38.3735 820.658 38.3505 819.687 38.1637 818.884C37.977 818.081 37.6585 817.45 37.2084 816.991C36.7582 816.533 36.214 816.257 35.5756 816.166C34.9725 816.104 34.4233 816.238 33.9279 816.567C33.4213 816.881 32.9359 817.445 32.4717 818.259C31.9946 819.071 31.506 820.187 31.0059 821.607L29.6775 825.421C28.4925 828.811 26.8928 831.402 24.8785 833.194C22.8529 834.972 20.3051 835.664 17.235 835.272C14.7377 834.976 12.6378 834.041 10.9351 832.466C9.22126 830.876 7.98737 828.819 7.23345 826.295C6.4811 823.758 6.29696 820.933 6.68103 817.822C7.073 814.646 7.94316 811.965 9.29152 809.779C10.6399 807.592 12.3578 805.991 14.4453 804.975C16.5215 803.944 18.8467 803.581 21.4208 803.886L20.1595 814.105Z" fill="#5988FF"/>
<path d="M34.035 734.561C32.7523 734.392 31.6676 734.655 30.7807 735.349C29.8965 736.031 29.2724 737.223 28.9083 738.926C28.6764 740.012 28.6187 740.929 28.7352 741.68C28.8418 742.415 29.0807 742.994 29.452 743.417C29.8233 743.839 30.2913 744.117 30.8561 744.251C31.3173 744.376 31.7572 744.385 32.176 744.276C32.5849 744.153 32.9865 743.909 33.3808 743.545C33.7626 743.178 34.1447 742.686 34.5272 742.068C34.9097 741.451 35.294 740.702 35.68 739.821L37.0406 736.787C37.953 734.74 38.9444 733.032 40.0147 731.664C41.085 730.297 42.2284 729.235 43.4449 728.48C44.6488 727.721 45.9236 727.249 47.2691 727.062C48.6173 726.862 50.0305 726.914 51.5087 727.217C54.0533 727.774 56.0736 728.873 57.5694 730.512C59.0652 732.152 60.0226 734.243 60.4416 736.787C60.8633 739.318 60.7236 742.224 60.0225 745.504C59.3024 748.873 58.176 751.706 56.6431 754.004C55.1129 756.289 53.1654 757.904 50.8006 758.849C48.4259 759.779 45.6168 759.904 42.3731 759.223L44.5089 749.231C45.7078 749.421 46.7674 749.338 47.6877 748.98C48.6081 748.623 49.3788 748.01 49.9999 747.14C50.6237 746.257 51.0785 745.147 51.3644 743.81C51.6044 742.687 51.6666 741.718 51.5509 740.901C51.4353 740.085 51.1734 739.428 50.7652 738.932C50.3569 738.436 49.8389 738.114 49.2111 737.966C48.6157 737.852 48.0568 737.937 47.5346 738.221C47.0024 738.49 46.4694 739.009 45.9356 739.779C45.3892 740.546 44.8047 741.615 44.182 742.986L42.5245 746.669C41.047 749.941 39.2264 752.382 37.0627 753.99C34.8892 755.584 32.2904 756.05 29.2666 755.39C26.8048 754.876 24.7949 753.76 23.2369 752.042C21.669 750.308 20.6201 748.15 20.0903 745.57C19.5632 742.976 19.6273 740.147 20.2826 737.081C20.9514 733.952 22.0532 731.358 23.588 729.298C25.1228 727.238 26.9744 725.794 29.1429 724.965C31.3015 724.12 33.6495 723.963 36.1869 724.493L34.035 734.561Z" fill="#5988FF"/>
<path d="M33.2508 686.05L36.0222 675.653L60.5441 682.196C63.4598 682.974 65.7969 684.345 67.5554 686.31C69.3048 688.259 70.4283 690.629 70.9258 693.419C71.4109 696.205 71.2164 699.238 70.3425 702.517C69.4619 705.82 68.1178 708.56 66.3101 710.735C64.49 712.906 62.3364 714.401 59.8493 715.22C57.3531 716.023 54.6471 716.035 51.7314 715.257L27.2095 708.714L29.981 698.317L53.6057 704.621C54.7894 704.937 55.9183 704.957 56.9924 704.683C58.054 704.406 58.9695 703.875 59.7387 703.092C60.5113 702.297 61.0554 701.307 61.3711 700.123C61.6901 698.926 61.7109 697.797 61.4334 696.735C61.156 695.672 60.6261 694.757 59.8436 693.987C59.0486 693.214 58.0593 692.67 56.8755 692.354L33.2508 686.05Z" fill="#5988FF"/>
<path d="M77.636 674.605L39.9155 662.492L45.1414 646.202C46.0399 643.402 47.3787 641.128 49.1578 639.382C50.9368 637.636 53.0142 636.501 55.3901 635.977C57.7659 635.453 60.2922 635.62 62.969 636.48C65.6703 637.347 67.8163 638.7 69.407 640.539C71.0016 642.366 71.9862 644.531 72.3609 647.037C72.7394 649.53 72.4676 652.213 71.5454 655.088L68.4241 664.818L60.4674 662.263L62.9266 654.597C63.3128 653.393 63.4332 652.3 63.2876 651.318C63.1338 650.32 62.7368 649.468 62.0968 648.761C61.4607 648.042 60.6085 647.511 59.5403 647.168C58.4597 646.821 57.4639 646.758 56.5529 646.981C55.6335 647.187 54.8333 647.655 54.1522 648.385C53.4628 649.098 52.925 650.057 52.5387 651.261L51.3801 654.873L80.9229 664.36L77.636 674.605Z" fill="#5988FF"/>
<path d="M91.112 633.516L54.022 619.589L60.0301 603.572C61.0632 600.818 62.5104 598.612 64.3719 596.954C66.2333 595.297 68.3632 594.263 70.7617 593.855C73.1601 593.446 75.6753 593.736 78.3074 594.724C80.9636 595.722 83.0416 597.177 84.5414 599.091C86.0457 600.992 86.9244 603.203 87.1773 605.724C87.4348 608.232 87.0334 610.899 85.9731 613.726L82.3846 623.293L74.5609 620.356L77.3882 612.818C77.8323 611.634 78.0054 610.548 77.9075 609.561C77.8021 608.557 77.4469 607.686 76.8418 606.949C76.2413 606.2 75.4158 605.628 74.3654 605.233C73.3029 604.835 72.3113 604.724 71.3906 604.902C70.4623 605.063 69.6404 605.492 68.9248 606.188C68.2016 606.867 67.618 607.799 67.174 608.983L65.8419 612.534L94.8909 623.441L91.112 633.516Z" fill="#5988FF"/>
<path d="M106.611 593.124L70.191 577.527L74.4231 567.635L102.876 579.819L109.179 565.088L117.145 568.499L106.611 593.124Z" fill="#5988FF"/>
<path d="M121.694 558.436L85.9933 541.255L98.3692 515.513L106.179 519.271L98.4648 535.316L104.601 538.269L111.678 523.549L119.487 527.307L112.41 542.027L118.546 544.98L126.227 529.005L134.036 532.763L121.694 558.436Z" fill="#5988FF"/>
<path d="M113.207 486.656L119.896 475.056L143.933 478.294L144.165 477.892L129.33 458.694L136.019 447.094L170.334 466.9L165.076 476.019L145.238 464.569L145.083 464.837L160.245 483.777L157.075 489.276L132.963 485.547L132.808 485.815L152.78 497.343L147.522 506.462L113.207 486.656Z" fill="#5988FF"/>
<path d="M182.643 447.744L176.246 457.433L150.399 424.669L158.503 412.397L198.765 423.329L192.367 433.017L163.639 424.421L163.468 424.679L182.643 447.744ZM168.408 440.933L180.435 422.718L187.149 427.156L175.122 445.371L168.408 440.933Z" fill="#5988FF"/>
<path d="M204.858 414.808L172.989 391.264L183.146 377.501C184.893 375.135 186.888 373.409 189.131 372.324C191.375 371.239 193.706 370.828 196.125 371.091C198.543 371.354 200.883 372.321 203.145 373.992C205.427 375.678 207.028 377.647 207.948 379.898C208.875 382.139 209.116 384.506 208.67 386.999C208.232 389.482 207.117 391.938 205.324 394.367L199.257 402.588L192.535 397.621L197.315 391.145C198.066 390.127 198.529 389.13 198.705 388.154C198.878 387.159 198.774 386.224 198.394 385.35C198.021 384.465 197.383 383.689 196.481 383.022C195.568 382.348 194.644 381.97 193.71 381.889C192.773 381.791 191.865 381.978 190.986 382.452C190.105 382.907 189.289 383.644 188.538 384.661L186.286 387.712L211.246 406.152L204.858 414.808Z" fill="#5988FF"/>
<path d="M223.16 346.404C222.096 345.669 221.011 345.407 219.905 345.62C218.807 345.823 217.708 346.599 216.607 347.949C215.906 348.808 215.436 349.599 215.197 350.32C214.957 351.023 214.906 351.647 215.043 352.192C215.181 352.738 215.471 353.199 215.912 353.576C216.265 353.898 216.653 354.106 217.075 354.201C217.495 354.278 217.964 354.244 218.481 354.1C218.988 353.948 219.552 353.684 220.174 353.309C220.796 352.934 221.48 352.443 222.225 351.836L224.819 349.758C226.565 348.352 228.226 347.285 229.802 346.557C231.378 345.829 232.88 345.406 234.307 345.289C235.724 345.164 237.074 345.325 238.356 345.773C239.647 346.21 240.881 346.902 242.058 347.846C244.068 349.504 245.365 351.404 245.948 353.545C246.532 355.687 246.43 357.985 245.642 360.44C244.863 362.885 243.414 365.407 241.294 368.006C239.117 370.674 236.822 372.681 234.411 374.026C232.007 375.361 229.537 375.909 227.002 375.671C224.465 375.414 221.908 374.243 219.332 372.156L225.79 364.239C226.77 364.956 227.751 365.366 228.733 365.468C229.714 365.57 230.68 365.376 231.63 364.886C232.587 364.385 233.498 363.605 234.362 362.546C235.088 361.656 235.585 360.821 235.855 360.042C236.124 359.263 236.191 358.559 236.054 357.931C235.917 357.303 235.603 356.78 235.111 356.363C234.633 355.989 234.097 355.81 233.503 355.824C232.907 355.82 232.196 356.039 231.37 356.48C230.534 356.913 229.526 357.598 228.347 358.533L225.193 361.054C222.385 363.291 219.652 364.632 216.993 365.076C214.333 365.501 211.807 364.73 209.418 362.762C207.461 361.181 206.182 359.271 205.579 357.03C204.975 354.771 205.025 352.373 205.731 349.835C206.445 347.286 207.792 344.798 209.773 342.369C211.795 339.89 213.959 338.084 216.264 336.952C218.569 335.82 220.876 335.38 223.183 335.632C225.489 335.866 227.65 336.798 229.667 338.428L223.16 346.404Z" fill="#5988FF"/>
<path d="M277.243 286.472C276.247 285.646 275.19 285.29 274.069 285.405C272.958 285.511 271.795 286.188 270.58 287.435C269.807 288.23 269.269 288.976 268.968 289.674C268.667 290.353 268.561 290.97 268.651 291.525C268.74 292.081 268.988 292.566 269.395 292.98C269.718 293.332 270.086 293.573 270.498 293.704C270.91 293.818 271.38 293.825 271.908 293.727C272.426 293.62 273.012 293.407 273.664 293.088C274.316 292.769 275.04 292.34 275.836 291.801L278.602 289.958C280.464 288.711 282.212 287.793 283.846 287.206C285.48 286.619 287.013 286.33 288.445 286.339C289.867 286.338 291.198 286.617 292.436 287.176C293.684 287.725 294.852 288.522 295.942 289.566C297.799 291.394 298.924 293.4 299.318 295.584C299.711 297.769 299.408 300.049 298.409 302.426C297.419 304.793 295.754 307.178 293.414 309.581C291.012 312.048 288.55 313.846 286.03 314.974C283.518 316.093 281.01 316.422 278.505 315.962C276 315.484 273.556 314.093 271.173 311.789L278.3 304.469C279.213 305.269 280.155 305.763 281.124 305.951C282.093 306.139 283.072 306.03 284.06 305.625C285.058 305.21 286.034 304.513 286.988 303.534C287.789 302.711 288.357 301.923 288.694 301.171C289.031 300.418 289.158 299.723 289.077 299.086C288.996 298.448 288.729 297.899 288.276 297.44C287.833 297.026 287.314 296.8 286.721 296.763C286.128 296.706 285.4 296.862 284.539 297.229C283.668 297.587 282.604 298.181 281.347 299.009L277.984 301.243C274.992 303.226 272.152 304.321 269.464 304.53C266.776 304.72 264.328 303.731 262.12 301.561C260.31 299.814 259.203 297.799 258.799 295.514C258.395 293.211 258.656 290.826 259.581 288.36C260.515 285.884 262.075 283.523 264.262 281.277C266.493 278.985 268.807 277.376 271.202 276.451C273.598 275.525 275.934 275.289 278.211 275.743C280.487 276.178 282.558 277.296 284.424 279.097L277.243 286.472Z" fill="#5988FF"/>
<path d="M302.402 244.995L310.282 237.671L327.555 256.275C329.609 258.487 330.857 260.893 331.299 263.493C331.743 266.075 331.432 268.679 330.368 271.305C329.296 273.922 327.517 276.386 325.032 278.695C322.528 281.022 319.932 282.624 317.245 283.502C314.548 284.37 311.93 284.488 309.389 283.856C306.849 283.206 304.552 281.774 302.498 279.562L285.225 260.959L293.105 253.635L309.746 271.558C310.58 272.456 311.524 273.075 312.579 273.416C313.626 273.746 314.683 273.785 315.75 273.532C316.828 273.271 317.815 272.723 318.713 271.889C319.62 271.046 320.238 270.101 320.569 269.054C320.9 268.007 320.939 266.95 320.686 265.881C320.424 264.804 319.877 263.816 319.043 262.918L302.402 244.995Z" fill="#5988FF"/>
<path d="M346.061 258.957L320.582 228.606L333.676 217.603C335.928 215.711 338.271 214.5 340.706 213.971C343.141 213.441 345.504 213.587 347.794 214.409C350.084 215.231 352.133 216.719 353.941 218.873C355.766 221.046 356.862 223.335 357.229 225.739C357.607 228.134 357.287 230.492 356.271 232.812C355.264 235.124 353.606 237.251 351.295 239.192L343.474 245.764L338.1 239.362L344.262 234.184C345.229 233.371 345.913 232.51 346.312 231.602C346.713 230.675 346.831 229.742 346.666 228.803C346.51 227.855 346.071 226.952 345.35 226.092C344.62 225.223 343.81 224.639 342.921 224.342C342.033 224.027 341.107 223.996 340.142 224.251C339.178 224.488 338.213 225.013 337.245 225.826L334.342 228.266L354.297 252.036L346.061 258.957Z" fill="#5988FF"/>
<path d="M379.339 231.359L355.359 199.81L368.97 189.454C371.311 187.673 373.71 186.577 376.167 186.166C378.625 185.755 380.978 186.015 383.226 186.947C385.473 187.879 387.448 189.465 389.149 191.703C390.867 193.963 391.851 196.302 392.102 198.721C392.363 201.132 391.93 203.471 390.802 205.739C389.685 208 387.925 210.043 385.523 211.871L377.394 218.056L372.335 211.402L378.74 206.528C379.746 205.763 380.471 204.936 380.914 204.048C381.359 203.142 381.522 202.216 381.402 201.269C381.292 200.315 380.898 199.392 380.219 198.498C379.532 197.594 378.752 196.972 377.878 196.633C377.006 196.274 376.082 196.199 375.106 196.407C374.132 196.597 373.143 197.074 372.137 197.84L369.119 200.136L387.9 224.845L379.339 231.359Z" fill="#5988FF"/>
<path d="M413.956 205.428L391.432 172.822L400.28 166.704L417.877 192.178L431.053 183.067L435.98 190.199L413.956 205.428Z" fill="#5988FF"/>
<path d="M445.188 184.106L424.116 150.542L448.293 135.348L452.903 142.69L437.833 152.161L441.455 157.93L455.28 149.241L459.889 156.583L446.064 165.272L449.686 171.04L464.69 161.611L469.3 168.953L445.188 184.106Z" fill="#5988FF"/>
<path d="M476.211 118.83L488.047 112.575L506.668 128.124L507.079 127.907L504.741 103.754L516.577 97.4989L535.079 132.547L525.774 137.463L515.078 117.202L514.804 117.346L517.556 141.456L511.946 144.42L493.522 128.417L493.249 128.562L504.017 148.96L494.712 153.877L476.211 118.83Z" fill="#5988FF"/>
<path d="M555.693 122.891L545.121 127.683L540.685 86.1806L554.076 80.111L582.335 110.816L571.763 115.608L552.023 93.0245L551.741 93.1523L555.693 122.891ZM547.27 109.542L567.145 100.533L570.466 107.867L550.591 116.875L547.27 109.542Z" fill="#5988FF"/>
<path d="M592.028 106.851L577.586 69.943L593.509 63.7063C596.247 62.6339 598.855 62.2362 601.331 62.5132C603.808 62.7902 605.999 63.6844 607.907 65.1959C609.814 66.7074 611.28 68.7728 612.304 71.3919C613.339 74.0351 613.646 76.5543 613.226 78.9495C612.818 81.3401 611.762 83.4719 610.057 85.3449C608.365 87.2133 606.114 88.6977 603.304 89.7984L593.793 93.5235L590.747 85.7382L598.24 82.8032C599.417 82.3423 600.339 81.7453 601.008 81.0123C601.684 80.2625 602.094 79.4162 602.237 78.4732C602.393 77.5256 602.266 76.5292 601.857 75.4839C601.443 74.4266 600.863 73.6149 600.115 73.0488C599.374 72.4659 598.506 72.1408 597.511 72.0736C596.522 71.9897 595.44 72.1782 594.263 72.6391L590.732 74.0219L602.043 102.928L592.028 106.851Z" fill="#5988FF"/>
<path d="M643.929 58.7053C643.419 57.5155 642.64 56.716 641.591 56.3071C640.554 55.894 639.21 55.9652 637.56 56.5209C636.509 56.8749 635.691 57.2935 635.105 57.7767C634.527 58.2435 634.152 58.7444 633.978 59.2794C633.804 59.8144 633.804 60.3591 633.976 60.9135C634.104 61.3742 634.322 61.7571 634.628 62.0622C634.943 62.3509 635.358 62.572 635.872 62.7256C636.382 62.8669 637 62.9446 637.726 62.9588C638.452 62.9729 639.292 62.9215 640.246 62.8044L643.548 62.4275C645.774 62.1679 647.748 62.1499 649.469 62.3733C651.191 62.5966 652.687 63.039 653.957 63.7003C655.223 64.3494 656.28 65.2051 657.127 66.2675C657.986 67.3257 658.663 68.5682 659.157 69.9947C659.975 72.4689 660.062 74.7678 659.415 76.8913C658.769 79.0148 657.46 80.9057 655.487 82.564C653.526 84.2181 650.957 85.5803 647.779 86.6505C644.516 87.7495 641.506 88.2256 638.748 88.0787C636.004 87.9277 633.621 87.0759 631.602 85.5233C629.591 83.9543 628.051 81.6006 626.981 78.4621L636.661 75.2021C637.109 76.3309 637.721 77.2002 638.498 77.8099C639.275 78.4196 640.195 78.7699 641.26 78.8605C642.337 78.9471 643.523 78.7723 644.818 78.3359C645.906 77.9696 646.771 77.5284 647.414 77.0125C648.057 76.4965 648.488 75.9362 648.706 75.3317C648.924 74.7272 648.937 74.1172 648.744 73.5017C648.538 72.9311 648.18 72.4936 647.669 72.1891C647.167 71.8682 646.448 71.6745 645.514 71.6079C644.576 71.5291 643.359 71.5714 641.863 71.735L637.851 72.1875C634.284 72.5856 631.257 72.2641 628.771 71.2229C626.292 70.1653 624.565 68.1671 623.59 65.2283C622.776 62.8479 622.71 60.549 623.393 58.3315C624.083 56.0977 625.403 54.0945 627.351 52.3221C629.311 50.5456 631.776 49.1572 634.746 48.157C637.777 47.1362 640.57 46.7607 643.123 47.0306C645.677 47.3005 647.863 48.157 649.682 49.6C651.509 51.0267 652.842 52.9669 653.682 55.4206L643.929 58.7053Z" fill="#5988FF"/>
<path d="M721.606 36.7952C721.203 35.5652 720.497 34.7005 719.488 34.2011C718.491 33.6986 717.146 33.6517 715.454 34.0605C714.376 34.3209 713.524 34.6661 712.898 35.096C712.282 35.5104 711.863 35.9764 711.643 36.4941C711.423 37.0118 711.375 37.5543 711.499 38.1218C711.586 38.5919 711.769 38.9923 712.048 39.3232C712.336 39.6384 712.729 39.8951 713.228 40.0931C713.724 40.2786 714.333 40.4103 715.055 40.4881C715.777 40.5659 716.618 40.5883 717.578 40.5554L720.901 40.4696C723.141 40.4063 725.109 40.5615 726.804 40.9351C728.499 41.3086 729.951 41.8805 731.158 42.6507C732.362 43.4083 733.34 44.3535 734.091 45.4861C734.854 46.6157 735.419 47.9127 735.786 49.377C736.385 51.9135 736.269 54.2111 735.44 56.2698C734.61 58.3284 733.14 60.0972 731.029 61.5759C728.931 63.0517 726.252 64.1832 722.993 64.9705C719.646 65.779 716.605 65.9892 713.872 65.601C711.151 65.2097 708.852 64.1522 706.977 62.4284C705.111 60.6891 703.783 58.2093 702.993 54.9891L712.921 52.5908C713.268 53.7546 713.802 54.6743 714.522 55.3498C715.242 56.0253 716.129 56.4549 717.181 56.6386C718.246 56.8194 719.443 56.7492 720.772 56.4282C721.888 56.1587 722.788 55.7952 723.474 55.3376C724.16 54.88 724.637 54.3597 724.908 53.7767C725.179 53.1937 725.245 52.5871 725.106 51.957C724.951 51.3705 724.633 50.9033 724.151 50.5551C723.678 50.1914 722.98 49.9355 722.055 49.7872C721.127 49.6263 719.911 49.5618 718.406 49.5934L714.371 49.6922C710.782 49.7759 707.795 49.1901 705.41 47.9347C703.033 46.6638 701.488 44.5218 700.775 41.5087C700.172 39.0661 700.308 36.7702 701.182 34.6212C702.066 32.4565 703.556 30.5769 705.652 28.9822C707.76 27.3845 710.338 26.2177 713.384 25.4819C716.493 24.7309 719.307 24.6019 721.827 25.0948C724.347 25.5877 726.45 26.6326 728.136 28.2297C729.831 29.8112 730.989 31.8609 731.609 34.3788L721.606 36.7952Z" fill="#5988FF"/>
<path d="M764.978 15.094L775.545 13.094L780.262 38.0432C780.823 41.0097 780.599 43.7111 779.59 46.1476C778.591 48.5689 776.942 50.6077 774.643 52.2639C772.342 53.9074 769.525 55.0445 766.193 55.6752C762.835 56.3107 759.785 56.2839 757.043 55.5948C754.299 54.893 752.019 53.5976 750.205 51.7087C748.402 49.8046 747.22 47.3693 746.659 44.4028L741.942 19.4537L752.509 17.4537L757.054 41.4901C757.281 42.6944 757.751 43.7216 758.463 44.5717C759.173 45.4091 760.047 46.0053 761.085 46.3603C762.136 46.7129 763.263 46.7753 764.467 46.5475C765.684 46.3173 766.71 45.8472 767.547 45.1373C768.384 44.4274 768.98 43.553 769.335 42.5142C769.687 41.4627 769.75 40.3347 769.522 39.1304L764.978 15.094Z" fill="#5988FF"/>
<path d="M794.499 50.1737L789.089 10.9095L806.028 8.573C808.941 8.17126 811.569 8.39489 813.912 9.2439C816.255 10.0929 818.177 11.4754 819.678 13.3914C821.178 15.3073 822.121 17.6585 822.504 20.4448C822.892 23.2567 822.601 25.7779 821.633 28.0084C820.677 30.2371 819.152 32.0625 817.057 33.4846C814.974 34.9049 812.439 35.8212 809.449 36.2335L799.331 37.6291L798.19 29.3468L806.162 28.2473C807.414 28.0746 808.451 27.7102 809.272 27.154C810.105 26.5833 810.701 25.8564 811.061 24.9732C811.434 24.0882 811.543 23.0897 811.39 21.9778C811.235 20.853 810.86 19.9279 810.266 19.2024C809.682 18.4624 808.914 17.9431 807.962 17.6447C807.02 17.3317 805.924 17.2616 804.672 17.4342L800.916 17.9523L805.153 48.7042L794.499 50.1737Z" fill="#5988FF"/>
<path d="M837.356 44.5456L833.853 5.06535L850.885 3.55228C853.814 3.29212 856.428 3.6428 858.727 4.60433C861.027 5.56585 862.879 7.03982 864.285 9.02624C865.692 11.0127 866.519 13.4067 866.768 16.2084C867.019 19.0357 866.606 21.5399 865.531 23.7208C864.469 25.9006 862.857 27.65 860.695 28.9689C858.547 30.2867 855.969 31.0791 852.964 31.3461L842.79 32.2498L842.051 23.922L850.067 23.2099C851.325 23.0981 852.379 22.7843 853.226 22.2687C854.085 21.739 854.716 21.0418 855.118 20.177C855.534 19.3112 855.691 18.3192 855.592 17.2011C855.492 16.0701 855.162 15.128 854.603 14.3745C854.056 13.6071 853.314 13.0512 852.378 12.707C851.453 12.3488 850.361 12.2256 849.102 12.3374L845.325 12.6729L848.069 43.594L837.356 44.5456Z" fill="#5988FF"/>
<path d="M880.458 41.0428L878.749 1.44404L889.494 0.979947L890.829 31.9165L906.831 31.2253L907.205 39.8875L880.458 41.0428Z" fill="#5988FF"/>
<path d="M918.241 39.6356L918.271 0L946.823 0.0216209L946.816 8.69191L929.02 8.67843L929.015 15.4908L945.341 15.5032L945.334 24.1735L929.008 24.1611L929.003 30.9735L946.722 30.9869L946.715 39.6572L918.241 39.6356Z" fill="#5988FF"/>
<path d="M979.245 0.915655L992.592 1.92835L1000.08 25.0105L1000.54 25.0456L1011.42 3.35666L1024.77 4.36935L1021.77 43.8915L1011.28 43.0954L1013.01 20.2466L1012.7 20.2232L1002.2 42.0959L995.87 41.6159L988.794 18.2542L988.486 18.2308L986.742 41.2339L976.249 40.4378L979.245 0.915655Z" fill="#5988FF"/>
<path d="M1044.36 46.7031L1032.86 45.126L1051.19 7.63455L1065.76 9.63224L1073.33 50.6775L1061.84 49.1003L1057.15 19.4686L1056.84 19.4265L1044.36 46.7031ZM1044.33 30.9161L1065.95 33.8811L1064.86 41.8575L1043.24 38.8925L1044.33 30.9161Z" fill="#5988FF"/>
<path d="M1083.65 52.4861L1091.07 13.5523L1107.87 16.7576C1110.76 17.3088 1113.17 18.3613 1115.12 19.9153C1117.07 21.4693 1118.45 23.394 1119.26 25.6895C1120.07 27.9849 1120.21 30.5141 1119.69 33.277C1119.15 36.0652 1118.07 38.3611 1116.44 40.1647C1114.82 41.9707 1112.8 43.2123 1110.36 43.8895C1107.93 44.5691 1105.23 44.6261 1102.27 44.0604L1092.24 42.146L1093.8 33.9334L1101.71 35.4417C1102.95 35.6786 1104.05 35.665 1105 35.4009C1105.97 35.1265 1106.77 34.6285 1107.4 33.9068C1108.03 33.1875 1108.45 32.2766 1108.66 31.174C1108.88 30.0587 1108.82 29.0622 1108.49 28.1846C1108.17 27.2967 1107.61 26.559 1106.8 25.9716C1106.01 25.3739 1104.99 24.9566 1103.75 24.7197L1100.03 24.0091L1094.21 54.5021L1083.65 52.4861Z" fill="#5988FF"/>
<path d="M1153.2 39.3895C1153.41 38.1111 1153.17 37.0193 1152.5 36.114C1151.84 35.2118 1150.67 34.5563 1148.98 34.1476C1147.9 33.8871 1146.98 33.8053 1146.23 33.9022C1145.49 33.9895 1144.91 34.2133 1144.48 34.5735C1144.04 34.9337 1143.75 35.3945 1143.61 35.9559C1143.47 36.4139 1143.45 36.8537 1143.55 37.2754C1143.66 37.6876 1143.89 38.0956 1144.25 38.4996C1144.6 38.891 1145.08 39.2861 1145.69 39.6849C1146.3 40.0837 1147.04 40.4877 1147.91 40.8968L1150.9 42.3372C1152.92 43.3035 1154.6 44.3398 1155.94 45.4462C1157.28 46.5525 1158.31 47.724 1159.03 48.9605C1159.76 50.1844 1160.2 51.4717 1160.35 52.8224C1160.51 54.1761 1160.43 55.5881 1160.08 57.0586C1159.46 59.589 1158.31 61.5807 1156.63 63.0338C1154.96 64.4868 1152.84 65.3895 1150.29 65.7418C1147.75 66.0972 1144.85 65.8812 1141.59 65.0939C1138.24 64.2854 1135.44 63.0845 1133.18 61.4911C1130.94 59.9007 1129.38 57.9105 1128.5 55.5206C1127.63 53.1211 1127.58 50.3082 1128.34 47.082L1138.27 49.4802C1138.05 50.6743 1138.11 51.7362 1138.44 52.6661C1138.77 53.596 1139.36 54.3829 1140.22 55.0269C1141.08 55.674 1142.18 56.158 1143.51 56.4789C1144.62 56.7484 1145.59 56.8361 1146.41 56.7419C1147.23 56.6476 1147.89 56.4029 1148.4 56.0076C1148.9 55.6123 1149.24 55.1027 1149.4 54.4786C1149.53 53.8861 1149.46 53.325 1149.19 52.7952C1148.94 52.2558 1148.43 51.7092 1147.68 51.1551C1146.93 50.5885 1145.87 49.9758 1144.52 49.3171L1140.88 47.5627C1137.65 45.9991 1135.26 44.1142 1133.71 41.908C1132.18 39.6923 1131.78 37.081 1132.52 34.074C1133.1 31.6253 1134.26 29.6443 1136.02 28.1312C1137.8 26.6085 1139.98 25.6161 1142.57 25.1539C1145.18 24.6948 1148 24.8331 1151.05 25.5689C1154.16 26.3199 1156.72 27.4899 1158.74 29.079C1160.75 30.668 1162.15 32.5579 1162.92 34.7484C1163.71 36.9295 1163.8 39.282 1163.21 41.8059L1153.2 39.3895Z" fill="#5988FF"/>
<path d="M1230.61 62.2321C1230.93 60.9764 1230.79 59.8682 1230.2 58.9077C1229.63 57.9512 1228.51 57.1952 1226.86 56.6395C1225.81 56.2855 1224.91 56.1237 1224.15 56.1541C1223.41 56.1764 1222.8 56.348 1222.34 56.669C1221.88 56.9899 1221.55 57.4235 1221.35 57.9696C1221.18 58.4138 1221.12 58.8502 1221.18 59.2788C1221.25 59.6993 1221.45 60.1262 1221.77 60.5597C1222.09 60.9808 1222.53 61.4167 1223.1 61.8672C1223.67 62.3177 1224.37 62.7849 1225.2 63.2688L1228.06 64.9664C1229.99 66.1063 1231.57 67.286 1232.81 68.5056C1234.05 69.7251 1234.97 70.9824 1235.58 72.2776C1236.2 73.5606 1236.52 74.8814 1236.55 76.2402C1236.6 77.603 1236.39 79.0019 1235.92 80.4367C1235.08 82.9026 1233.75 84.7857 1231.96 86.086C1230.16 87.3863 1227.97 88.1 1225.4 88.227C1222.84 88.3582 1219.97 87.8887 1216.79 86.8185C1213.53 85.7194 1210.84 84.2774 1208.73 82.4922C1206.64 80.7112 1205.26 78.5916 1204.59 76.1335C1203.93 73.6672 1204.13 70.8607 1205.18 67.7139L1214.85 70.974C1214.53 72.144 1214.49 73.2067 1214.74 74.1622C1214.99 75.1177 1215.51 75.9536 1216.31 76.6699C1217.11 77.3904 1218.16 77.9688 1219.46 78.4051C1220.55 78.7715 1221.5 78.9436 1222.32 78.9216C1223.15 78.8995 1223.83 78.7138 1224.37 78.3645C1224.91 78.0153 1225.29 77.537 1225.51 76.9297C1225.69 76.3509 1225.67 75.7857 1225.44 75.2342C1225.24 74.6747 1224.78 74.0858 1224.08 73.4676C1223.38 72.8372 1222.38 72.1346 1221.09 71.3596L1217.62 69.293C1214.54 67.452 1212.33 65.3646 1210.98 63.0309C1209.64 60.6891 1209.47 58.0528 1210.47 55.1222C1211.26 52.7337 1212.6 50.8628 1214.48 49.5097C1216.38 48.1485 1218.65 47.3514 1221.27 47.1185C1223.9 46.8896 1226.71 47.2753 1229.68 48.2755C1232.71 49.2963 1235.16 50.6867 1237.03 52.4467C1238.9 54.2066 1240.12 56.2115 1240.7 58.4613C1241.29 60.703 1241.18 63.0549 1240.37 65.5168L1230.61 62.2321Z" fill="#5988FF"/>
<path d="M1278.88 66.9732L1288.88 70.911L1279.6 94.5412C1278.49 97.3509 1276.86 99.5179 1274.71 101.042C1272.58 102.559 1270.1 103.407 1267.27 103.584C1264.45 103.749 1261.46 103.21 1258.3 101.969C1255.12 100.717 1252.56 99.0696 1250.6 97.0253C1248.65 94.969 1247.41 92.6582 1246.88 90.0929C1246.37 87.5203 1246.66 84.8291 1247.77 82.0194L1257.06 58.3892L1267.07 62.3271L1258.12 85.0927C1257.67 86.2334 1257.52 87.3532 1257.67 88.4521C1257.83 89.5389 1258.25 90.5092 1258.94 91.3629C1259.64 92.2213 1260.56 92.8748 1261.7 93.3233C1262.85 93.7766 1263.97 93.9258 1265.06 93.7709C1266.14 93.616 1267.11 93.1934 1267.97 92.5032C1268.83 91.801 1269.48 90.8795 1269.93 89.7388L1278.88 66.9732Z" fill="#5988FF"/>
<path d="M1285.19 112.394L1301.51 76.2785L1317.09 83.3266C1319.77 84.5385 1321.87 86.128 1323.41 88.095C1324.94 90.062 1325.83 92.2561 1326.08 94.6774C1326.33 97.0986 1325.87 99.5907 1324.72 102.154C1323.55 104.74 1321.96 106.719 1319.95 108.091C1317.96 109.468 1315.7 110.201 1313.16 110.288C1310.65 110.381 1308.01 109.805 1305.26 108.561L1295.96 104.351L1299.4 96.7332L1306.73 100.05C1307.88 100.571 1308.95 100.815 1309.95 100.782C1310.95 100.742 1311.85 100.445 1312.62 99.8892C1313.41 99.3387 1314.03 98.5521 1314.49 97.5293C1314.96 96.4947 1315.14 95.512 1315.02 94.5811C1314.92 93.6438 1314.55 92.7951 1313.9 92.0351C1313.27 91.2686 1312.38 90.6249 1311.23 90.104L1307.77 88.5413L1294.99 116.827L1285.19 112.394Z" fill="#5988FF"/>
<path d="M1324.46 130.465L1342.51 95.1822L1357.73 102.977C1360.35 104.317 1362.37 106.007 1363.81 108.046C1365.24 110.085 1366.02 112.319 1366.16 114.75C1366.29 117.18 1365.72 119.647 1364.44 122.151C1363.14 124.678 1361.46 126.578 1359.39 127.851C1357.33 129.13 1355.04 129.752 1352.5 129.716C1349.98 129.687 1347.38 128.984 1344.69 127.609L1335.6 122.953L1339.41 115.511L1346.57 119.179C1347.7 119.755 1348.76 120.05 1349.75 120.066C1350.76 120.075 1351.66 119.821 1352.46 119.303C1353.28 118.792 1353.94 118.036 1354.45 117.037C1354.97 116.026 1355.19 115.053 1355.12 114.118C1355.06 113.177 1354.73 112.311 1354.12 111.52C1353.53 110.724 1352.67 110.038 1351.54 109.462L1348.17 107.734L1334.03 135.368L1324.46 130.465Z" fill="#5988FF"/>
<path d="M1362.8 150.466L1382.44 116.04L1391.78 121.372L1376.44 148.268L1390.35 156.209L1386.06 163.74L1362.8 150.466Z" fill="#5988FF"/>
<path d="M1395.53 169.407L1416.66 135.876L1440.81 151.107L1436.19 158.442L1421.13 148.948L1417.5 154.711L1431.32 163.421L1426.7 170.756L1412.88 162.046L1409.25 167.81L1424.24 177.262L1419.62 184.597L1395.53 169.407Z" fill="#5988FF"/>
<path d="M1467.78 169.139L1478.53 177.108L1472.58 200.632L1472.96 200.909L1493.71 188.347L1504.47 196.316L1480.89 228.171L1472.44 221.907L1486.06 203.49L1485.82 203.306L1465.28 216.222L1460.18 212.445L1466.63 188.902L1466.38 188.718L1452.66 207.259L1444.2 200.994L1467.78 169.139Z" fill="#5988FF"/>
<path d="M1498.52 242.585L1489.62 235.124L1525.1 213.16L1536.36 222.612L1520.93 261.388L1512.03 253.927L1523.84 226.349L1523.6 226.15L1498.52 242.585ZM1506.9 229.21L1523.62 243.238L1518.45 249.407L1501.73 235.379L1506.9 229.21Z" fill="#5988FF"/>
<path d="M1528.69 268.415L1555.7 239.416L1568.21 251.079C1570.36 253.084 1571.85 255.263 1572.67 257.617C1573.49 259.971 1573.64 262.335 1573.1 264.709C1572.56 267.083 1571.34 269.299 1569.42 271.357C1567.49 273.434 1565.35 274.801 1563.01 275.459C1560.68 276.125 1558.3 276.095 1555.87 275.369C1553.46 274.651 1551.15 273.263 1548.94 271.205L1541.47 264.239L1547.16 258.122L1553.05 263.61C1553.98 264.472 1554.91 265.046 1555.86 265.332C1556.83 265.617 1557.77 265.62 1558.68 265.342C1559.6 265.072 1560.45 264.526 1561.21 263.705C1561.98 262.874 1562.46 261.999 1562.65 261.08C1562.86 260.16 1562.77 259.236 1562.4 258.309C1562.05 257.381 1561.41 256.486 1560.49 255.624L1557.71 253.038L1536.56 275.75L1528.69 268.415Z" fill="#5988FF"/>
<path d="M1594.54 294.39C1595.39 293.416 1595.77 292.367 1595.69 291.244C1595.61 290.13 1594.96 288.949 1593.75 287.701C1592.97 286.906 1592.24 286.349 1591.55 286.03C1590.88 285.711 1590.27 285.589 1589.71 285.664C1589.16 285.739 1588.66 285.974 1588.24 286.37C1587.88 286.684 1587.63 287.046 1587.49 287.455C1587.36 287.864 1587.34 288.333 1587.43 288.864C1587.52 289.385 1587.72 289.976 1588.02 290.637C1588.32 291.298 1588.73 292.033 1589.25 292.843L1591.02 295.658C1592.22 297.553 1593.09 299.326 1593.63 300.975C1594.17 302.625 1594.42 304.165 1594.38 305.597C1594.34 307.02 1594.03 308.343 1593.43 309.567C1592.85 310.801 1592.03 311.949 1590.95 313.011C1589.08 314.82 1587.05 315.893 1584.85 316.229C1582.66 316.565 1580.39 316.203 1578.04 315.141C1575.7 314.088 1573.36 312.36 1571.02 309.958C1568.62 307.49 1566.89 304.981 1565.83 302.43C1564.78 299.889 1564.51 297.372 1565.04 294.879C1565.58 292.386 1567.04 289.978 1569.4 287.655L1576.53 294.975C1575.7 295.868 1575.19 296.796 1574.97 297.76C1574.76 298.725 1574.84 299.707 1575.22 300.706C1575.61 301.715 1576.28 302.709 1577.23 303.689C1578.03 304.511 1578.81 305.101 1579.55 305.457C1580.29 305.814 1580.98 305.96 1581.62 305.895C1582.26 305.83 1582.82 305.578 1583.29 305.137C1583.71 304.704 1583.95 304.192 1584.01 303.6C1584.08 303.008 1583.94 302.276 1583.6 301.405C1583.26 300.524 1582.7 299.445 1581.9 298.166L1579.76 294.744C1577.86 291.699 1576.84 288.83 1576.7 286.136C1576.58 283.443 1577.63 281.021 1579.86 278.869C1581.65 277.105 1583.69 276.05 1585.99 275.706C1588.3 275.362 1590.67 275.686 1593.11 276.676C1595.56 277.675 1597.88 279.297 1600.07 281.543C1602.3 283.835 1603.85 286.191 1604.71 288.611C1605.57 291.032 1605.74 293.374 1605.23 295.639C1604.74 297.905 1603.56 299.947 1601.72 301.766L1594.54 294.39Z" fill="#5988FF"/>
<path d="M1647.9 354.969C1648.83 354.074 1649.3 353.062 1649.32 351.936C1649.34 350.819 1648.8 349.586 1647.7 348.237C1647 347.377 1646.32 346.758 1645.66 346.38C1645.02 346.003 1644.42 345.827 1643.86 345.853C1643.29 345.879 1642.78 346.07 1642.33 346.427C1641.94 346.709 1641.66 347.047 1641.48 347.442C1641.32 347.838 1641.26 348.305 1641.3 348.84C1641.35 349.368 1641.49 349.974 1641.73 350.659C1641.98 351.343 1642.32 352.112 1642.76 352.964L1644.28 355.923C1645.31 357.916 1646.02 359.758 1646.42 361.449C1646.81 363.14 1646.93 364.696 1646.75 366.119C1646.59 367.533 1646.16 368.824 1645.47 369.991C1644.78 371.169 1643.86 372.24 1642.7 373.204C1640.67 374.842 1638.55 375.732 1636.34 375.875C1634.12 376.017 1631.89 375.456 1629.65 374.193C1627.41 372.939 1625.23 371.013 1623.11 368.414C1620.93 365.745 1619.43 363.093 1618.59 360.46C1617.77 357.836 1617.73 355.306 1618.47 352.868C1619.23 350.433 1620.89 348.162 1623.45 346.055L1629.9 353.972C1629.01 354.789 1628.41 355.668 1628.11 356.61C1627.81 357.552 1627.81 358.537 1628.1 359.566C1628.4 360.605 1628.98 361.654 1629.84 362.714C1630.57 363.603 1631.29 364.258 1632 364.679C1632.71 365.099 1633.38 365.305 1634.02 365.297C1634.67 365.288 1635.24 365.085 1635.75 364.687C1636.21 364.294 1636.49 363.805 1636.6 363.219C1636.72 362.636 1636.65 361.895 1636.38 360.997C1636.13 360.09 1635.66 358.966 1634.98 357.622L1633.14 354.025C1631.52 350.825 1630.75 347.877 1630.85 345.182C1630.97 342.489 1632.23 340.168 1634.63 338.22C1636.57 336.619 1638.7 335.748 1641.02 335.607C1643.35 335.467 1645.69 335.998 1648.03 337.198C1650.38 338.408 1652.55 340.228 1654.53 342.657C1656.55 345.136 1657.89 347.619 1658.53 350.105C1659.18 352.591 1659.15 354.94 1658.44 357.152C1657.75 359.365 1656.4 361.296 1654.4 362.946L1647.9 354.969Z" fill="#5988FF"/>
<path d="M1686.22 384.696L1692.6 393.362L1672.16 408.414C1669.73 410.204 1667.2 411.171 1664.56 411.315C1661.95 411.462 1659.4 410.857 1656.91 409.5C1654.44 408.136 1652.19 406.088 1650.18 403.355C1648.16 400.601 1646.86 397.839 1646.29 395.068C1645.74 392.288 1645.92 389.672 1646.84 387.218C1647.77 384.768 1649.45 382.647 1651.88 380.858L1672.32 365.806L1678.7 374.472L1659.01 388.973C1658.02 389.699 1657.3 390.568 1656.84 391.578C1656.39 392.58 1656.23 393.627 1656.36 394.717C1656.5 395.817 1656.93 396.861 1657.66 397.848C1658.39 398.846 1659.26 399.568 1660.26 400.016C1661.26 400.464 1662.31 400.623 1663.4 400.493C1664.5 400.356 1665.54 399.924 1666.53 399.197L1686.22 384.696Z" fill="#5988FF"/>
<path d="M1667.39 426.505L1700.42 404.633L1709.86 418.9C1711.48 421.353 1712.42 423.82 1712.67 426.301C1712.92 428.782 1712.5 431.113 1711.43 433.296C1710.35 435.479 1708.64 437.346 1706.29 438.898C1703.93 440.465 1701.53 441.294 1699.1 441.386C1696.68 441.489 1694.38 440.903 1692.19 439.628C1690.01 438.365 1688.08 436.474 1686.42 433.956L1680.78 425.435L1687.75 420.821L1692.19 427.535C1692.89 428.589 1693.67 429.367 1694.52 429.867C1695.4 430.371 1696.31 430.594 1697.26 430.537C1698.22 430.49 1699.17 430.157 1700.1 429.538C1701.05 428.911 1701.72 428.173 1702.12 427.322C1702.53 426.476 1702.67 425.558 1702.52 424.57C1702.4 423.585 1701.99 422.566 1701.29 421.512L1699.2 418.348L1673.32 435.479L1667.39 426.505Z" fill="#5988FF"/>
<path d="M1691.01 462.723L1725.07 442.477L1733.8 457.185C1735.3 459.713 1736.12 462.223 1736.25 464.713C1736.37 467.203 1735.85 469.512 1734.67 471.64C1733.49 473.768 1731.69 475.55 1729.27 476.987C1726.83 478.437 1724.4 479.149 1721.97 479.123C1719.54 479.108 1717.27 478.411 1715.14 477.032C1713.03 475.665 1711.2 473.683 1709.66 471.088L1704.44 462.303L1711.62 458.032L1715.73 464.953C1716.38 466.04 1717.12 466.855 1717.95 467.396C1718.8 467.942 1719.7 468.209 1720.65 468.197C1721.61 468.197 1722.57 467.91 1723.54 467.337C1724.51 466.757 1725.22 466.052 1725.66 465.222C1726.11 464.396 1726.29 463.486 1726.2 462.492C1726.12 461.503 1725.76 460.465 1725.11 459.378L1723.18 456.117L1696.5 471.974L1691.01 462.723Z" fill="#5988FF"/>
<path d="M1712.82 500.084L1747.76 481.405L1752.83 490.896L1725.53 505.488L1733.08 519.622L1725.43 523.708L1712.82 500.084Z" fill="#5988FF"/>
<path d="M1730.44 533.554L1766.16 516.427L1778.5 542.188L1770.68 545.935L1762.99 529.877L1756.85 532.821L1763.91 547.552L1756.09 551.298L1749.04 536.568L1742.9 539.511L1750.55 555.498L1742.74 559.245L1730.44 533.554Z" fill="#5988FF"/>
<path d="M1791.73 571.819L1796.59 584.296L1779.03 601.036L1779.2 601.469L1803.45 601.893L1808.31 614.37L1771.41 628.773L1767.58 618.964L1788.92 610.638L1788.81 610.349L1764.55 610.341L1762.25 604.428L1780.24 587.935L1780.12 587.647L1758.64 596.03L1754.82 586.221L1791.73 571.819Z" fill="#5988FF"/>
<path d="M1778.65 650.363L1775.09 639.309L1816.81 639.621L1821.31 653.623L1787.61 678.218L1784.05 667.164L1808.73 650.113L1808.63 649.818L1778.65 650.363ZM1792.86 643.509L1799.55 664.29L1791.89 666.756L1785.2 645.975L1792.86 643.509Z" fill="#5988FF"/>
<path d="M1790.44 688.303L1828.74 678.148L1833.12 694.685C1833.87 697.529 1833.97 700.166 1833.41 702.596C1832.86 705.026 1831.72 707.103 1830 708.826C1828.28 710.55 1826.06 711.772 1823.35 712.493C1820.6 713.22 1818.07 713.239 1815.74 712.549C1813.41 711.871 1811.41 710.579 1809.75 708.671C1808.08 706.777 1806.87 704.37 1806.09 701.452L1803.48 691.574L1811.55 689.432L1813.62 697.214C1813.94 698.436 1814.43 699.422 1815.08 700.17C1815.75 700.927 1816.54 701.431 1817.46 701.68C1818.38 701.943 1819.39 701.93 1820.47 701.643C1821.57 701.352 1822.44 700.867 1823.09 700.188C1823.75 699.518 1824.17 698.692 1824.35 697.71C1824.55 696.737 1824.48 695.64 1824.16 694.418L1823.19 690.751L1793.2 698.705L1790.44 688.303Z" fill="#5988FF"/>
<path d="M1832.35 745.372C1833.59 745.001 1834.47 744.317 1834.99 743.321C1835.52 742.337 1835.6 740.993 1835.24 739.29C1835.01 738.205 1834.69 737.344 1834.27 736.707C1833.87 736.079 1833.42 735.649 1832.91 735.415C1832.4 735.182 1831.86 735.119 1831.29 735.228C1830.81 735.303 1830.41 735.475 1830.07 735.745C1829.75 736.025 1829.48 736.412 1829.27 736.906C1829.07 737.397 1828.93 738.002 1828.83 738.722C1828.73 739.442 1828.69 740.283 1828.7 741.245L1828.69 744.57C1828.7 746.812 1828.49 748.776 1828.07 750.462C1827.66 752.147 1827.05 753.584 1826.25 754.771C1825.46 755.956 1824.49 756.909 1823.34 757.63C1822.19 758.364 1820.88 758.895 1819.4 759.224C1816.85 759.756 1814.56 759.58 1812.53 758.696C1810.49 757.812 1808.76 756.295 1807.34 754.146C1805.92 752.008 1804.86 749.3 1804.16 746.019C1803.44 742.65 1803.31 739.604 1803.77 736.88C1804.23 734.169 1805.35 731.898 1807.12 730.068C1808.91 728.247 1811.42 726.984 1814.66 726.278L1816.79 736.271C1815.62 736.587 1814.69 737.097 1813.99 737.8C1813.3 738.502 1812.85 739.378 1812.64 740.425C1812.43 741.486 1812.47 742.685 1812.75 744.022C1812.99 745.145 1813.33 746.056 1813.77 746.753C1814.21 747.451 1814.72 747.943 1815.29 748.229C1815.87 748.514 1816.47 748.596 1817.11 748.474C1817.7 748.335 1818.17 748.028 1818.53 747.555C1818.91 747.092 1819.18 746.4 1819.35 745.48C1819.54 744.556 1819.64 743.341 1819.64 741.836L1819.65 737.797C1819.66 734.206 1820.32 731.234 1821.64 728.88C1822.97 726.537 1825.15 725.048 1828.18 724.413C1830.64 723.874 1832.93 724.07 1835.05 725.001C1837.19 725.942 1839.03 727.482 1840.57 729.62C1842.11 731.77 1843.21 734.379 1843.87 737.445C1844.53 740.574 1844.59 743.392 1844.03 745.9C1843.47 748.407 1842.37 750.483 1840.73 752.127C1839.11 753.781 1837.03 754.885 1834.5 755.44L1832.35 745.372Z" fill="#5988FF"/>
<path d="M1845.27 825.076C1846.53 824.815 1847.47 824.211 1848.08 823.265C1848.69 822.331 1848.89 821 1848.68 819.271C1848.55 818.17 1848.3 817.284 1847.94 816.613C1847.6 815.953 1847.19 815.484 1846.7 815.207C1846.21 814.929 1845.68 814.82 1845.1 814.878C1844.62 814.911 1844.2 815.047 1843.84 815.287C1843.5 815.537 1843.2 815.899 1842.94 816.373C1842.7 816.844 1842.5 817.435 1842.34 818.143C1842.18 818.852 1842.07 819.686 1841.99 820.644L1841.7 823.956C1841.5 826.19 1841.13 828.128 1840.56 829.771C1840 831.414 1839.27 832.791 1838.36 833.904C1837.47 835.015 1836.42 835.879 1835.21 836.497C1834.01 837.127 1832.65 837.541 1831.16 837.739C1828.57 838.045 1826.3 837.669 1824.35 836.61C1822.4 835.551 1820.81 833.888 1819.59 831.622C1818.36 829.368 1817.54 826.577 1817.13 823.248C1816.71 819.829 1816.84 816.783 1817.54 814.11C1818.24 811.449 1819.55 809.285 1821.48 807.618C1823.42 805.961 1826.03 804.923 1829.32 804.504L1830.57 814.645C1829.37 814.858 1828.4 815.284 1827.65 815.923C1826.89 816.562 1826.37 817.394 1826.06 818.419C1825.76 819.457 1825.7 820.655 1825.86 822.013C1826.01 823.152 1826.26 824.089 1826.64 824.822C1827.02 825.556 1827.48 826.09 1828.03 826.425C1828.58 826.761 1829.17 826.895 1829.81 826.829C1830.41 826.742 1830.91 826.479 1831.31 826.039C1831.73 825.611 1832.06 824.945 1832.31 824.043C1832.58 823.139 1832.78 821.938 1832.92 820.439L1833.28 816.416C1833.61 812.84 1834.53 809.937 1836.05 807.709C1837.58 805.491 1839.88 804.199 1842.96 803.833C1845.45 803.511 1847.71 803.908 1849.75 805.021C1851.8 806.146 1853.49 807.841 1854.84 810.106C1856.19 812.384 1857.05 815.078 1857.44 818.19C1857.83 821.365 1857.64 824.178 1856.86 826.627C1856.08 829.076 1854.81 831.047 1853.03 832.541C1851.26 834.046 1849.1 834.963 1846.53 835.294L1845.27 825.076Z" fill="#5988FF"/>
<path d="M1861.88 870.657L1862.66 881.389L1837.35 883.238C1834.34 883.458 1831.68 882.928 1829.38 881.648C1827.09 880.379 1825.25 878.508 1823.87 876.035C1822.5 873.561 1821.69 870.631 1821.44 867.247C1821.19 863.837 1821.57 860.809 1822.56 858.161C1823.57 855.513 1825.12 853.395 1827.2 851.807C1829.3 850.231 1831.85 849.333 1834.86 849.113L1860.17 847.263L1860.95 857.995L1836.57 859.777C1835.35 859.866 1834.27 860.216 1833.35 860.827C1832.44 861.437 1831.74 862.238 1831.27 863.23C1830.8 864.234 1830.61 865.348 1830.7 866.57C1830.79 867.806 1831.14 868.88 1831.75 869.792C1832.36 870.705 1833.16 871.397 1834.15 871.868C1835.16 872.338 1836.27 872.528 1837.49 872.439L1861.88 870.657Z" fill="#5988FF"/>
<path d="M1823.68 896.01L1863.29 895.1L1863.68 912.203C1863.75 915.144 1863.23 917.731 1862.12 919.963C1861.01 922.196 1859.42 923.949 1857.35 925.222C1855.27 926.496 1852.83 927.165 1850.02 927.23C1847.18 927.295 1844.71 926.719 1842.61 925.503C1840.5 924.299 1838.86 922.576 1837.69 920.331C1836.52 918.1 1835.9 915.475 1835.83 912.456L1835.59 902.241L1843.95 902.048L1844.13 910.097C1844.16 911.361 1844.4 912.433 1844.86 913.313C1845.33 914.206 1845.99 914.881 1846.82 915.34C1847.66 915.811 1848.64 916.034 1849.76 916.008C1850.9 915.982 1851.86 915.714 1852.65 915.206C1853.45 914.71 1854.05 914.006 1854.45 913.093C1854.87 912.193 1855.07 911.111 1855.04 909.847L1854.95 906.055L1823.93 906.767L1823.68 896.01Z" fill="#5988FF"/>
<path d="M1824.4 939.249L1864 940.259L1863.56 957.361C1863.49 960.302 1862.84 962.861 1861.63 965.037C1860.41 967.213 1858.74 968.886 1856.6 970.058C1854.47 971.23 1852 971.78 1849.19 971.708C1846.35 971.636 1843.91 970.941 1841.87 969.624C1839.83 968.32 1838.27 966.519 1837.21 964.22C1836.15 961.935 1835.65 959.283 1835.73 956.265L1835.99 946.049L1844.34 946.262L1844.14 954.311C1844.11 955.575 1844.3 956.657 1844.71 957.558C1845.14 958.473 1845.76 959.179 1846.57 959.677C1847.39 960.189 1848.35 960.458 1849.48 960.487C1850.61 960.516 1851.58 960.295 1852.39 959.826C1853.22 959.369 1853.86 958.695 1854.3 957.803C1854.76 956.924 1855.01 955.853 1855.04 954.589L1855.14 950.797L1824.12 950.006L1824.4 939.249Z" fill="#5988FF"/>
<path d="M1822.97 982.491L1862.49 985.299L1861.73 996.032L1830.85 993.839L1829.72 1009.82L1821.08 1009.21L1822.97 982.491Z" fill="#5988FF"/>
<path d="M1820.07 1020.21L1859.42 1024.75L1856.15 1053.13L1847.54 1052.13L1849.58 1034.44L1842.82 1033.66L1840.95 1049.89L1832.34 1048.9L1834.21 1032.67L1827.45 1031.89L1825.42 1049.5L1816.81 1048.51L1820.07 1020.21Z" fill="#5988FF"/>
<path d="M1851.58 1085.25L1849.05 1098.4L1825.28 1103.22L1825.19 1103.67L1845.49 1116.95L1842.97 1130.11L1804.06 1122.63L1806.05 1112.29L1828.54 1116.61L1828.6 1116.31L1808.07 1103.38L1809.27 1097.15L1833.27 1092.77L1833.33 1092.47L1810.69 1088.12L1812.67 1077.78L1851.58 1085.25Z" fill="#5988FF"/>
<path d="M1798.7 1144.76L1801.57 1133.51L1836.72 1156.01L1833.08 1170.26L1791.46 1173.11L1794.33 1161.86L1824.29 1160.58L1824.37 1160.28L1798.7 1144.76ZM1814.38 1146.54L1808.98 1167.69L1801.18 1165.69L1806.58 1144.54L1814.38 1146.54Z" fill="#5988FF"/>
<path d="M1788.49 1183.16L1826.3 1194.97L1821.21 1211.3C1820.33 1214.11 1819.01 1216.39 1817.25 1218.15C1815.48 1219.91 1813.42 1221.06 1811.04 1221.61C1808.67 1222.15 1806.14 1222 1803.46 1221.17C1800.75 1220.32 1798.6 1218.98 1796.99 1217.16C1795.38 1215.35 1794.38 1213.19 1793.98 1210.69C1793.59 1208.2 1793.84 1205.51 1794.73 1202.63L1797.78 1192.87L1805.75 1195.36L1803.36 1203.05C1802.98 1204.26 1802.87 1205.35 1803.02 1206.33C1803.18 1207.33 1803.59 1208.18 1804.23 1208.88C1804.88 1209.59 1805.73 1210.12 1806.8 1210.45C1807.89 1210.79 1808.88 1210.84 1809.79 1210.61C1810.71 1210.4 1811.51 1209.93 1812.18 1209.19C1812.87 1208.47 1813.4 1207.51 1813.77 1206.3L1814.9 1202.68L1785.28 1193.43L1788.49 1183.16Z" fill="#5988FF"/>
<path d="M1793.58 1253.79C1794.82 1254.14 1795.93 1254.03 1796.91 1253.46C1797.88 1252.91 1798.67 1251.82 1799.26 1250.18C1799.64 1249.14 1799.83 1248.24 1799.82 1247.48C1799.82 1246.74 1799.66 1246.13 1799.35 1245.66C1799.04 1245.19 1798.62 1244.85 1798.08 1244.64C1797.64 1244.45 1797.21 1244.38 1796.78 1244.43C1796.35 1244.5 1795.92 1244.68 1795.48 1244.99C1795.05 1245.3 1794.6 1245.73 1794.14 1246.29C1793.67 1246.85 1793.19 1247.53 1792.68 1248.35L1790.91 1251.17C1789.72 1253.07 1788.5 1254.62 1787.25 1255.82C1786 1257.03 1784.72 1257.92 1783.41 1258.5C1782.11 1259.08 1780.78 1259.37 1779.43 1259.36C1778.06 1259.37 1776.67 1259.12 1775.25 1258.62C1772.81 1257.71 1770.96 1256.34 1769.71 1254.51C1768.46 1252.67 1767.8 1250.47 1767.74 1247.89C1767.68 1245.33 1768.22 1242.47 1769.37 1239.32C1770.56 1236.08 1772.07 1233.44 1773.91 1231.38C1775.74 1229.33 1777.9 1228 1780.37 1227.4C1782.85 1226.81 1785.65 1227.08 1788.77 1228.2L1785.26 1237.8C1784.1 1237.44 1783.03 1237.38 1782.07 1237.6C1781.11 1237.83 1780.26 1238.33 1779.53 1239.1C1778.79 1239.89 1778.18 1240.92 1777.71 1242.21C1777.32 1243.29 1777.12 1244.24 1777.12 1245.06C1777.12 1245.89 1777.29 1246.57 1777.62 1247.12C1777.96 1247.67 1778.43 1248.06 1779.03 1248.3C1779.6 1248.49 1780.17 1248.49 1780.72 1248.28C1781.29 1248.09 1781.89 1247.65 1782.52 1246.96C1783.17 1246.28 1783.9 1245.3 1784.71 1244.03L1786.86 1240.61C1788.78 1237.58 1790.93 1235.42 1793.29 1234.13C1795.67 1232.85 1798.31 1232.76 1801.21 1233.83C1803.58 1234.69 1805.41 1236.07 1806.71 1237.99C1808.02 1239.93 1808.76 1242.21 1808.92 1244.84C1809.08 1247.48 1808.62 1250.27 1807.55 1253.22C1806.45 1256.22 1804.99 1258.64 1803.19 1260.46C1801.38 1262.29 1799.34 1263.46 1797.08 1263.98C1794.83 1264.51 1792.48 1264.34 1790.04 1263.46L1793.58 1253.79Z" fill="#5988FF"/>
<path d="M1762.09 1328.13C1763.3 1328.59 1764.41 1328.58 1765.43 1328.1C1766.45 1327.64 1767.33 1326.62 1768.07 1325.04C1768.54 1324.04 1768.8 1323.16 1768.86 1322.4C1768.92 1321.66 1768.82 1321.04 1768.55 1320.54C1768.29 1320.05 1767.89 1319.67 1767.37 1319.41C1766.95 1319.19 1766.53 1319.08 1766.09 1319.09C1765.67 1319.12 1765.22 1319.27 1764.75 1319.53C1764.3 1319.8 1763.82 1320.2 1763.3 1320.71C1762.79 1321.23 1762.25 1321.87 1761.67 1322.64L1759.66 1325.29C1758.31 1327.07 1756.96 1328.51 1755.61 1329.6C1754.26 1330.69 1752.9 1331.47 1751.55 1331.93C1750.2 1332.4 1748.85 1332.57 1747.5 1332.45C1746.14 1332.34 1744.78 1331.97 1743.41 1331.34C1741.05 1330.22 1739.33 1328.69 1738.25 1326.75C1737.16 1324.82 1736.7 1322.57 1736.87 1319.99C1737.03 1317.43 1737.82 1314.63 1739.24 1311.6C1740.71 1308.48 1742.44 1305.97 1744.46 1304.08C1746.46 1302.2 1748.73 1301.07 1751.24 1300.68C1753.77 1300.31 1756.53 1300.83 1759.54 1302.22L1755.2 1311.48C1754.07 1311.02 1753.02 1310.86 1752.05 1311C1751.07 1311.14 1750.18 1311.56 1749.38 1312.27C1748.57 1312.99 1747.88 1313.97 1747.3 1315.2C1746.81 1316.24 1746.53 1317.17 1746.46 1318C1746.38 1318.82 1746.49 1319.52 1746.78 1320.09C1747.06 1320.67 1747.49 1321.1 1748.07 1321.38C1748.63 1321.63 1749.19 1321.67 1749.76 1321.52C1750.34 1321.37 1750.98 1320.99 1751.67 1320.36C1752.38 1319.74 1753.19 1318.83 1754.11 1317.63L1756.55 1314.42C1758.73 1311.57 1761.06 1309.6 1763.53 1308.52C1766.01 1307.46 1768.64 1307.6 1771.44 1308.92C1773.72 1309.98 1775.43 1311.52 1776.56 1313.55C1777.69 1315.59 1778.22 1317.93 1778.16 1320.57C1778.09 1323.21 1777.38 1325.95 1776.05 1328.79C1774.69 1331.69 1773.03 1333.97 1771.07 1335.62C1769.11 1337.28 1766.98 1338.27 1764.68 1338.59C1762.39 1338.92 1760.07 1338.55 1757.71 1337.46L1762.09 1328.13Z" fill="#5988FF"/>
<path d="M1751.89 1375.57L1746.84 1385.07L1724.43 1373.15C1721.76 1371.73 1719.8 1369.87 1718.53 1367.55C1717.26 1365.26 1716.71 1362.7 1716.85 1359.87C1717.01 1357.04 1717.88 1354.13 1719.48 1351.14C1721.08 1348.12 1723.01 1345.75 1725.26 1344.04C1727.52 1342.34 1729.96 1341.37 1732.57 1341.14C1735.18 1340.92 1737.82 1341.52 1740.48 1342.94L1762.89 1354.86L1757.84 1364.36L1736.25 1352.87C1735.17 1352.3 1734.08 1352.02 1732.97 1352.05C1731.87 1352.08 1730.86 1352.39 1729.93 1352.97C1729 1353.57 1728.25 1354.41 1727.67 1355.5C1727.09 1356.59 1726.82 1357.69 1726.85 1358.78C1726.88 1359.88 1727.19 1360.89 1727.77 1361.82C1728.37 1362.75 1729.22 1363.51 1730.3 1364.08L1751.89 1375.57Z" fill="#5988FF"/>
<path d="M1706.06 1376.67L1740.07 1397.01L1731.3 1411.69C1729.79 1414.22 1727.97 1416.13 1725.85 1417.43C1723.72 1418.73 1721.44 1419.36 1719 1419.34C1716.57 1419.31 1714.15 1418.57 1711.74 1417.13C1709.3 1415.67 1707.52 1413.87 1706.38 1411.72C1705.24 1409.58 1704.77 1407.25 1704.97 1404.72C1705.17 1402.21 1706.04 1399.66 1707.59 1397.06L1712.83 1388.29L1720 1392.58L1715.87 1399.49C1715.22 1400.58 1714.86 1401.62 1714.78 1402.6C1714.7 1403.61 1714.9 1404.53 1715.36 1405.37C1715.82 1406.21 1716.53 1406.92 1717.49 1407.5C1718.47 1408.08 1719.42 1408.36 1720.36 1408.35C1721.3 1408.36 1722.19 1408.09 1723.01 1407.53C1723.85 1406.99 1724.59 1406.18 1725.24 1405.09L1727.18 1401.84L1700.55 1385.91L1706.06 1376.67Z" fill="#5988FF"/>
<path d="M1683.65 1413.65L1716.63 1435.61L1707.16 1449.85C1705.53 1452.3 1703.62 1454.12 1701.44 1455.32C1699.25 1456.51 1696.94 1457.03 1694.51 1456.89C1692.08 1456.75 1689.7 1455.89 1687.36 1454.34C1685 1452.76 1683.3 1450.88 1682.27 1448.67C1681.24 1446.48 1680.88 1444.13 1681.2 1441.61C1681.52 1439.11 1682.51 1436.61 1684.18 1434.09L1689.84 1425.58L1696.8 1430.22L1692.34 1436.92C1691.64 1437.97 1691.23 1438.99 1691.1 1439.97C1690.98 1440.98 1691.13 1441.9 1691.55 1442.76C1691.96 1443.63 1692.64 1444.37 1693.57 1444.99C1694.52 1445.62 1695.46 1445.95 1696.4 1445.99C1697.34 1446.04 1698.23 1445.81 1699.09 1445.29C1699.95 1444.79 1700.73 1444.02 1701.43 1442.97L1703.53 1439.81L1677.69 1422.61L1683.65 1413.65Z" fill="#5988FF"/>
<path d="M1659.43 1449.49L1691.38 1472.92L1685.02 1481.6L1660.06 1463.3L1650.59 1476.22L1643.6 1471.1L1659.43 1449.49Z" fill="#5988FF"/>
<path d="M1636.89 1479.87L1667.79 1504.68L1649.92 1526.96L1643.16 1521.53L1654.3 1507.64L1648.99 1503.38L1638.77 1516.12L1632.01 1510.69L1642.23 1497.95L1636.92 1493.69L1625.83 1507.51L1619.07 1502.09L1636.89 1479.87Z" fill="#5988FF"/>
<path d="M1628.94 1551.71L1619.8 1561.5L1597.12 1552.9L1596.8 1553.24L1606.91 1575.3L1597.78 1585.09L1568.83 1558.03L1576.01 1550.34L1592.75 1565.98L1592.96 1565.75L1582.47 1543.87L1586.8 1539.23L1609.44 1548.32L1609.66 1548.1L1592.81 1532.35L1599.99 1524.65L1628.94 1551.71Z" fill="#5988FF"/>
<path d="M1552.51 1573.91L1560.93 1565.92L1578.7 1603.68L1568.04 1613.8L1531.29 1594.04L1539.71 1586.05L1565.75 1600.93L1565.98 1600.71L1552.51 1573.91ZM1564.84 1583.76L1549 1598.78L1543.47 1592.94L1559.3 1577.92L1564.84 1583.76Z" fill="#5988FF"/>
<path d="M1523.43 1600.97L1549.15 1631.11L1536.14 1642.22C1533.91 1644.13 1531.58 1645.36 1529.14 1645.91C1526.71 1646.46 1524.35 1646.33 1522.05 1645.53C1519.76 1644.72 1517.7 1643.25 1515.87 1641.11C1514.03 1638.95 1512.91 1636.67 1512.53 1634.27C1512.13 1631.88 1512.43 1629.52 1513.43 1627.19C1514.42 1624.87 1516.06 1622.73 1518.35 1620.77L1526.12 1614.14L1531.55 1620.49L1525.43 1625.72C1524.46 1626.54 1523.79 1627.41 1523.4 1628.32C1523 1629.25 1522.89 1630.19 1523.07 1631.12C1523.23 1632.07 1523.67 1632.97 1524.4 1633.82C1525.14 1634.69 1525.95 1635.26 1526.85 1635.55C1527.74 1635.86 1528.66 1635.88 1529.63 1635.62C1530.59 1635.38 1531.55 1634.84 1532.51 1634.02L1535.39 1631.56L1515.25 1607.95L1523.43 1600.97Z" fill="#5988FF"/>
<path d="M1490.14 1663.46C1491.01 1664.41 1492.01 1664.91 1493.13 1664.96C1494.25 1665.01 1495.5 1664.5 1496.87 1663.44C1497.75 1662.76 1498.39 1662.09 1498.78 1661.44C1499.17 1660.81 1499.37 1660.22 1499.35 1659.65C1499.34 1659.09 1499.17 1658.58 1498.82 1658.11C1498.55 1657.72 1498.22 1657.43 1497.83 1657.24C1497.44 1657.07 1496.97 1657 1496.44 1657.02C1495.91 1657.05 1495.3 1657.18 1494.61 1657.41C1493.92 1657.63 1493.14 1657.95 1492.28 1658.38L1489.28 1659.82C1487.26 1660.79 1485.4 1661.45 1483.7 1661.81C1482 1662.16 1480.45 1662.23 1479.03 1662.02C1477.62 1661.82 1476.34 1661.36 1475.19 1660.63C1474.04 1659.92 1472.99 1658.96 1472.06 1657.78C1470.47 1655.71 1469.64 1653.56 1469.56 1651.35C1469.47 1649.13 1470.09 1646.91 1471.41 1644.7C1472.72 1642.49 1474.71 1640.37 1477.36 1638.31C1480.08 1636.21 1482.77 1634.77 1485.42 1634.01C1488.07 1633.25 1490.6 1633.27 1493.01 1634.08C1495.43 1634.9 1497.65 1636.62 1499.69 1639.24L1491.61 1645.49C1490.82 1644.57 1489.95 1643.95 1489.02 1643.63C1488.09 1643.3 1487.1 1643.28 1486.07 1643.54C1485.02 1643.81 1483.96 1644.36 1482.88 1645.2C1481.97 1645.9 1481.29 1646.6 1480.86 1647.3C1480.42 1648 1480.19 1648.67 1480.19 1649.31C1480.18 1649.95 1480.36 1650.53 1480.75 1651.05C1481.13 1651.52 1481.61 1651.82 1482.19 1651.94C1482.77 1652.08 1483.52 1652.03 1484.42 1651.78C1485.33 1651.55 1486.47 1651.11 1487.83 1650.47L1491.47 1648.73C1494.71 1647.18 1497.68 1646.49 1500.37 1646.66C1503.05 1646.85 1505.34 1648.17 1507.22 1650.63C1508.77 1652.61 1509.59 1654.76 1509.67 1657.08C1509.75 1659.42 1509.15 1661.75 1507.89 1664.06C1506.62 1666.38 1504.75 1668.5 1502.27 1670.42C1499.74 1672.37 1497.22 1673.64 1494.72 1674.22C1492.22 1674.81 1489.87 1674.71 1487.68 1673.94C1485.49 1673.2 1483.6 1671.8 1482 1669.76L1490.14 1663.46Z" fill="#5988FF"/>
<path d="M1423.91 1709.6C1424.7 1710.63 1425.65 1711.22 1426.76 1711.36C1427.87 1711.51 1429.16 1711.11 1430.62 1710.17C1431.55 1709.57 1432.25 1708.97 1432.7 1708.36C1433.14 1707.76 1433.39 1707.19 1433.43 1706.62C1433.46 1706.06 1433.33 1705.54 1433.03 1705.04C1432.79 1704.62 1432.49 1704.31 1432.12 1704.08C1431.74 1703.88 1431.29 1703.77 1430.75 1703.74C1430.22 1703.73 1429.6 1703.81 1428.9 1703.97C1428.19 1704.13 1427.39 1704.39 1426.49 1704.73L1423.38 1705.9C1421.28 1706.69 1419.37 1707.19 1417.65 1707.39C1415.92 1707.6 1414.36 1707.53 1412.97 1707.2C1411.59 1706.88 1410.35 1706.31 1409.27 1705.48C1408.18 1704.66 1407.22 1703.62 1406.4 1702.36C1405 1700.16 1404.36 1697.95 1404.47 1695.73C1404.58 1693.52 1405.39 1691.36 1406.9 1689.27C1408.4 1687.19 1410.56 1685.25 1413.38 1683.44C1416.28 1681.57 1419.09 1680.38 1421.8 1679.85C1424.49 1679.33 1427.01 1679.58 1429.35 1680.59C1431.68 1681.62 1433.75 1683.53 1435.55 1686.32L1426.95 1691.83C1426.24 1690.85 1425.44 1690.15 1424.54 1689.75C1423.63 1689.35 1422.66 1689.23 1421.6 1689.4C1420.54 1689.58 1419.43 1690.04 1418.28 1690.78C1417.31 1691.4 1416.58 1692.04 1416.08 1692.69C1415.58 1693.35 1415.3 1694 1415.24 1694.64C1415.17 1695.28 1415.31 1695.87 1415.65 1696.42C1415.98 1696.93 1416.44 1697.26 1417.01 1697.44C1417.57 1697.62 1418.32 1697.64 1419.24 1697.47C1420.17 1697.32 1421.34 1696.99 1422.75 1696.46L1426.53 1695.05C1429.89 1693.79 1432.91 1693.37 1435.57 1693.77C1438.23 1694.2 1440.39 1695.71 1442.05 1698.33C1443.42 1700.44 1444.05 1702.65 1443.92 1704.97C1443.8 1707.3 1443 1709.57 1441.55 1711.76C1440.08 1713.96 1438.02 1715.91 1435.38 1717.6C1432.69 1719.33 1430.08 1720.37 1427.53 1720.73C1424.99 1721.09 1422.66 1720.79 1420.55 1719.84C1418.43 1718.9 1416.66 1717.34 1415.25 1715.16L1423.91 1709.6Z" fill="#5988FF"/>
<path d="M1390.03 1744.31L1380.7 1749.67L1368.08 1727.64C1366.58 1725.02 1365.91 1722.39 1366.06 1719.76C1366.22 1717.14 1367.11 1714.68 1368.74 1712.36C1370.37 1710.05 1372.66 1708.06 1375.61 1706.37C1378.57 1704.67 1381.46 1703.69 1384.28 1703.45C1387.1 1703.21 1389.68 1703.69 1392.01 1704.88C1394.34 1706.09 1396.25 1708 1397.75 1710.62L1410.37 1732.65L1401.04 1738L1388.88 1716.78C1388.27 1715.71 1387.49 1714.9 1386.54 1714.33C1385.6 1713.77 1384.58 1713.49 1383.48 1713.5C1382.37 1713.51 1381.29 1713.82 1380.22 1714.43C1379.15 1715.04 1378.33 1715.82 1377.77 1716.77C1377.22 1717.71 1376.94 1718.74 1376.94 1719.83C1376.95 1720.94 1377.26 1722.03 1377.87 1723.09L1390.03 1744.31Z" fill="#5988FF"/>
<path d="M1350.66 1720.84L1368.62 1756.17L1353.38 1763.92C1350.76 1765.26 1348.2 1765.91 1345.71 1765.87C1343.22 1765.84 1340.95 1765.16 1338.9 1763.84C1336.86 1762.52 1335.2 1760.61 1333.92 1758.1C1332.64 1755.57 1332.09 1753.1 1332.27 1750.67C1332.45 1748.25 1333.29 1746.03 1334.8 1744C1336.31 1741.97 1338.4 1740.28 1341.09 1738.91L1350.2 1734.27L1353.99 1741.73L1346.81 1745.38C1345.69 1745.95 1344.83 1746.63 1344.23 1747.43C1343.63 1748.24 1343.31 1749.12 1343.26 1750.08C1343.19 1751.03 1343.42 1752.01 1343.92 1753.01C1344.44 1754.03 1345.1 1754.78 1345.9 1755.27C1346.69 1755.78 1347.58 1756.01 1348.58 1755.98C1349.57 1755.97 1350.63 1755.68 1351.76 1755.11L1355.14 1753.39L1341.07 1725.72L1350.66 1720.84Z" fill="#5988FF"/>
<path d="M1312.01 1740.19L1328.24 1776.35L1312.64 1783.36C1309.95 1784.57 1307.37 1785.09 1304.88 1784.93C1302.4 1784.78 1300.16 1783.99 1298.18 1782.58C1296.21 1781.16 1294.64 1779.17 1293.49 1776.6C1292.33 1774.01 1291.9 1771.51 1292.2 1769.1C1292.49 1766.69 1293.44 1764.51 1295.05 1762.56C1296.65 1760.61 1298.83 1759.02 1301.58 1757.78L1310.9 1753.59L1314.32 1761.22L1306.98 1764.52C1305.83 1765.04 1304.93 1765.68 1304.3 1766.44C1303.66 1767.22 1303.29 1768.09 1303.2 1769.04C1303.09 1769.99 1303.26 1770.98 1303.72 1772.01C1304.19 1773.04 1304.81 1773.82 1305.58 1774.35C1306.35 1774.9 1307.23 1775.18 1308.23 1775.2C1309.22 1775.23 1310.29 1774.99 1311.45 1774.47L1314.91 1772.92L1302.2 1744.6L1312.01 1740.19Z" fill="#5988FF"/>
<path d="M1272.43 1757.62L1287 1794.48L1277 1798.44L1265.61 1769.64L1250.72 1775.54L1247.53 1767.47L1272.43 1757.62Z" fill="#5988FF"/>
<path d="M1237.19 1771.33L1250.13 1808.79L1223.14 1818.12L1220.31 1809.93L1237.13 1804.11L1234.91 1797.67L1219.48 1803.01L1216.65 1794.81L1232.08 1789.48L1229.85 1783.04L1213.1 1788.83L1210.27 1780.63L1237.19 1771.33Z" fill="#5988FF"/>
<path d="M1192.21 1827.9L1179.27 1831.31L1164.64 1811.95L1164.2 1812.07L1161.01 1836.13L1148.07 1839.54L1137.97 1801.22L1148.14 1798.53L1153.98 1820.69L1154.28 1820.61L1157.05 1796.5L1163.19 1794.88L1177.52 1814.64L1177.82 1814.56L1171.94 1792.26L1182.11 1789.57L1192.21 1827.9Z" fill="#5988FF"/>
<path d="M1115.71 1805.96L1127.09 1803.68L1122.03 1845.11L1107.61 1848L1087.03 1811.7L1098.41 1809.42L1112.53 1835.88L1112.83 1835.82L1115.71 1805.96ZM1120.89 1820.87L1099.5 1825.15L1097.92 1817.25L1119.32 1812.97L1120.89 1820.87Z" fill="#5988FF"/>
<path d="M1076.69 1813.37L1082.42 1852.58L1065.5 1855.06C1062.59 1855.48 1059.96 1855.28 1057.61 1854.45C1055.26 1853.62 1053.32 1852.25 1051.81 1850.35C1050.29 1848.45 1049.33 1846.1 1048.92 1843.32C1048.51 1840.51 1048.78 1837.99 1049.73 1835.75C1050.67 1833.51 1052.18 1831.68 1054.27 1830.24C1056.34 1828.8 1058.87 1827.86 1061.85 1827.43L1071.96 1825.95L1073.17 1834.22L1065.2 1835.39C1063.95 1835.57 1062.92 1835.94 1062.1 1836.5C1061.27 1837.08 1060.68 1837.81 1060.33 1838.7C1059.96 1839.59 1059.86 1840.59 1060.03 1841.7C1060.19 1842.82 1060.57 1843.74 1061.17 1844.46C1061.76 1845.2 1062.53 1845.71 1063.49 1846C1064.43 1846.31 1065.53 1846.37 1066.78 1846.19L1070.53 1845.64L1066.05 1814.92L1076.69 1813.37Z" fill="#5988FF"/>
<path d="M1015.25 1848.52C1015.48 1849.8 1016.06 1850.75 1016.99 1851.39C1017.9 1852.03 1019.23 1852.26 1020.96 1852.09C1022.07 1851.98 1022.96 1851.76 1023.64 1851.42C1024.31 1851.1 1024.78 1850.7 1025.07 1850.22C1025.36 1849.73 1025.49 1849.2 1025.44 1848.62C1025.42 1848.15 1025.3 1847.72 1025.07 1847.36C1024.83 1847 1024.47 1846.7 1024.01 1846.43C1023.54 1846.18 1022.96 1845.96 1022.25 1845.78C1021.55 1845.6 1020.72 1845.47 1019.77 1845.36L1016.46 1844.98C1014.24 1844.73 1012.31 1844.3 1010.68 1843.7C1009.06 1843.09 1007.7 1842.32 1006.61 1841.39C1005.53 1840.47 1004.69 1839.4 1004.1 1838.17C1003.51 1836.95 1003.13 1835.58 1002.97 1834.08C1002.73 1831.49 1003.17 1829.23 1004.28 1827.3C1005.38 1825.38 1007.09 1823.84 1009.38 1822.67C1011.67 1821.5 1014.48 1820.75 1017.82 1820.43C1021.24 1820.1 1024.28 1820.32 1026.94 1821.08C1029.58 1821.85 1031.7 1823.22 1033.32 1825.19C1034.92 1827.17 1035.89 1829.81 1036.22 1833.11L1026.06 1834.1C1025.88 1832.9 1025.48 1831.91 1024.86 1831.14C1024.24 1830.37 1023.42 1829.82 1022.41 1829.49C1021.38 1829.17 1020.18 1829.07 1018.82 1829.2C1017.68 1829.31 1016.74 1829.54 1015.99 1829.9C1015.25 1830.26 1014.7 1830.71 1014.36 1831.25C1014.01 1831.79 1013.86 1832.38 1013.91 1833.02C1013.98 1833.62 1014.23 1834.13 1014.66 1834.54C1015.07 1834.97 1015.73 1835.32 1016.62 1835.6C1017.52 1835.89 1018.71 1836.12 1020.21 1836.3L1024.22 1836.76C1027.78 1837.18 1030.66 1838.18 1032.85 1839.76C1035.02 1841.35 1036.25 1843.69 1036.54 1846.77C1036.79 1849.27 1036.34 1851.53 1035.17 1853.53C1033.99 1855.55 1032.26 1857.21 1029.96 1858.49C1027.65 1859.78 1024.93 1860.57 1021.81 1860.88C1018.63 1861.18 1015.82 1860.92 1013.4 1860.08C1010.97 1859.24 1009.04 1857.91 1007.59 1856.09C1006.13 1854.29 1005.27 1852.1 1005.01 1849.52L1015.25 1848.52Z" fill="#5988FF"/>
</svg>
