<svg width="2044" height="2044" viewBox="0 0 2044 2044" fill="none" xmlns="http://www.w3.org/2000/svg">
<path d="M1882.43 494.004C1883.47 493.235 1884.07 492.294 1884.23 491.179C1884.39 490.074 1884.01 488.783 1883.09 487.305C1882.51 486.364 1881.91 485.663 1881.31 485.204C1880.72 484.749 1880.15 484.498 1879.59 484.452C1879.03 484.406 1878.5 484.53 1878 484.826C1877.58 485.056 1877.26 485.355 1877.03 485.724C1876.82 486.097 1876.7 486.551 1876.67 487.087C1876.65 487.615 1876.72 488.235 1876.87 488.944C1877.02 489.654 1877.27 490.46 1877.6 491.361L1878.72 494.488C1879.49 496.595 1879.96 498.512 1880.14 500.238C1880.31 501.965 1880.23 503.522 1879.88 504.91C1879.54 506.291 1878.95 507.516 1878.11 508.585C1877.28 509.664 1876.22 510.608 1874.95 511.416C1872.73 512.78 1870.51 513.392 1868.3 513.251C1866.09 513.109 1863.95 512.269 1861.88 510.73C1859.82 509.201 1857.91 507.014 1856.14 504.167C1854.32 501.243 1853.16 498.423 1852.67 495.706C1852.19 493 1852.47 490.486 1853.52 488.165C1854.58 485.848 1856.52 483.808 1859.32 482.047L1864.72 490.719C1863.72 491.414 1863.02 492.209 1862.6 493.105C1862.19 494.001 1862.06 494.977 1862.22 496.034C1862.38 497.102 1862.82 498.216 1863.54 499.377C1864.15 500.351 1864.78 501.092 1865.43 501.599C1866.08 502.106 1866.72 502.397 1867.36 502.471C1868 502.544 1868.59 502.416 1869.15 502.087C1869.65 501.756 1870 501.307 1870.18 500.74C1870.37 500.177 1870.4 499.434 1870.25 498.509C1870.11 497.578 1869.79 496.403 1869.28 494.985L1867.92 491.185C1866.72 487.805 1866.33 484.785 1866.78 482.126C1867.23 479.472 1868.78 477.332 1871.42 475.709C1873.54 474.369 1875.76 473.778 1878.08 473.933C1880.41 474.092 1882.66 474.916 1884.83 476.405C1887.01 477.905 1888.93 479.986 1890.58 482.646C1892.27 485.362 1893.28 487.993 1893.6 490.54C1893.92 493.087 1893.59 495.412 1892.61 497.513C1891.64 499.619 1890.06 501.362 1887.87 502.742L1882.43 494.004Z" fill="#5988FF"/>
<path d="M1915.86 526.746L1921.14 536.117L1899.03 548.566C1896.4 550.046 1893.77 550.698 1891.14 550.521C1888.53 550.349 1886.07 549.439 1883.77 547.791C1881.47 546.137 1879.5 543.833 1877.83 540.877C1876.16 537.9 1875.2 535.002 1874.98 532.184C1874.77 529.359 1875.26 526.786 1876.47 524.463C1877.7 522.145 1879.62 520.246 1882.25 518.766L1904.36 506.317L1909.64 515.689L1888.34 527.682C1887.27 528.283 1886.45 529.057 1885.87 530.003C1885.3 530.943 1885.02 531.962 1885.02 533.059C1885.02 534.167 1885.32 535.255 1885.92 536.323C1886.53 537.402 1887.3 538.224 1888.24 538.79C1889.18 539.356 1890.2 539.64 1891.3 539.644C1892.41 539.642 1893.49 539.34 1894.56 538.739L1915.86 526.746Z" fill="#5988FF"/>
<path d="M1891.33 564.48L1926.67 546.576L1934.39 561.828C1935.72 564.451 1936.37 567.008 1936.33 569.499C1936.29 571.991 1935.61 574.258 1934.29 576.301C1932.97 578.343 1931.05 580 1928.55 581.271C1926.02 582.553 1923.54 583.099 1921.12 582.911C1918.7 582.733 1916.48 581.886 1914.45 580.368C1912.43 578.862 1910.74 576.764 1909.38 574.072L1904.76 564.962L1912.21 561.185L1915.85 568.363C1916.42 569.49 1917.1 570.352 1917.9 570.947C1918.71 571.548 1919.59 571.875 1920.54 571.928C1921.5 571.992 1922.48 571.77 1923.48 571.263C1924.49 570.75 1925.24 570.095 1925.73 569.296C1926.24 568.504 1926.48 567.609 1926.45 566.611C1926.44 565.619 1926.15 564.56 1925.58 563.432L1923.87 560.051L1896.19 574.073L1891.33 564.48Z" fill="#5988FF"/>
<path d="M1909.95 601.763L1946.01 585.374L1953.09 600.94C1954.3 603.617 1954.84 606.199 1954.69 608.687C1954.55 611.174 1953.77 613.411 1952.37 615.395C1950.96 617.38 1948.98 618.954 1946.42 620.117C1943.84 621.291 1941.34 621.732 1938.93 621.441C1936.52 621.161 1934.34 620.22 1932.38 618.618C1930.42 617.028 1928.82 614.859 1927.57 612.112L1923.35 602.814L1930.95 599.357L1934.28 606.683C1934.8 607.833 1935.45 608.723 1936.22 609.351C1937 609.986 1937.87 610.35 1938.82 610.443C1939.77 610.548 1940.76 610.368 1941.78 609.904C1942.81 609.434 1943.59 608.811 1944.12 608.034C1944.66 607.264 1944.94 606.38 1944.95 605.382C1944.98 604.391 1944.74 603.32 1944.21 602.169L1942.64 598.718L1914.4 611.554L1909.95 601.763Z" fill="#5988FF"/>
<path d="M1926.95 639.839L1963.63 624.896L1967.69 634.856L1939.03 646.53L1945.07 661.362L1937.05 664.631L1926.95 639.839Z" fill="#5988FF"/>
<path d="M1940.52 673.672L1977.75 660.151L1987.49 686.986L1979.35 689.943L1973.28 673.217L1966.88 675.541L1972.45 690.886L1964.31 693.843L1958.73 678.499L1952.34 680.823L1958.38 697.476L1950.24 700.434L1940.52 673.672Z" fill="#5988FF"/>
<path d="M1997.04 715.406L2000.77 728.26L1981.8 743.36L1981.93 743.806L2006.04 746.388L2009.77 759.242L1971.73 770.292L1968.8 760.188L1990.79 753.799L1990.7 753.502L1966.55 751.334L1964.78 745.242L1984.16 730.426L1984.08 730.129L1961.94 736.561L1959 726.456L1997.04 715.406Z" fill="#5988FF"/>
<path d="M1976.59 790.4L1973.95 779.1L2015.49 782.813L2018.84 797.127L1983.25 818.878L1980.6 807.577L2006.58 792.604L2006.51 792.303L1976.59 790.4ZM1991.31 784.733L1996.28 805.978L1988.44 807.81L1983.48 786.564L1991.31 784.733Z" fill="#5988FF"/>
<path d="M1984.9 827.405L2023.84 820.159L2026.96 836.969C2027.5 839.86 2027.4 842.495 2026.66 844.875C2025.93 847.255 2024.64 849.239 2022.8 850.828C2020.95 852.417 2018.65 853.469 2015.89 853.983C2013.1 854.502 2010.57 854.33 2008.3 853.467C2006.03 852.617 2004.13 851.179 2002.61 849.153C2001.1 847.14 2000.07 844.65 1999.51 841.683L1997.65 831.643L2005.86 830.115L2007.33 838.025C2007.56 839.268 2007.97 840.286 2008.57 841.081C2009.18 841.885 2009.93 842.447 2010.83 842.765C2011.73 843.096 2012.73 843.159 2013.84 842.953C2014.95 842.746 2015.86 842.328 2016.55 841.7C2017.26 841.083 2017.75 840.291 2018 839.326C2018.27 838.371 2018.29 837.272 2018.06 836.03L2017.36 832.303L1986.86 837.977L1984.9 827.405Z" fill="#5988FF"/>
<path d="M2022.25 885.718C2023.52 885.434 2024.44 884.814 2025.04 883.857C2025.63 882.912 2025.81 881.578 2025.56 879.855C2025.4 878.757 2025.14 877.876 2024.77 877.212C2024.42 876.559 2024 876.099 2023.5 875.83C2023.01 875.562 2022.47 875.463 2021.9 875.532C2021.42 875.573 2021.01 875.717 2020.65 875.963C2020.31 876.22 2020.02 876.588 2019.77 877.065C2019.54 877.541 2019.35 878.135 2019.2 878.846C2019.06 879.557 2018.96 880.392 2018.9 881.351L2018.67 884.667C2018.52 886.902 2018.17 888.846 2017.64 890.498C2017.11 892.15 2016.4 893.54 2015.52 894.669C2014.65 895.795 2013.62 896.679 2012.42 897.318C2011.22 897.971 2009.88 898.41 2008.39 898.635C2005.81 898.99 2003.53 898.656 2001.56 897.634C1999.6 896.612 1997.98 894.98 1996.71 892.739C1995.44 890.51 1994.57 887.736 1994.09 884.417C1993.61 881.008 1993.69 877.962 1994.34 875.278C1994.98 872.606 1996.25 870.419 1998.15 868.717C2000.06 867.025 2002.65 865.939 2005.93 865.459L2007.37 875.57C2006.18 875.805 2005.21 876.248 2004.47 876.901C2003.73 877.553 2003.22 878.395 2002.94 879.425C2002.65 880.468 2002.61 881.666 2002.8 883.019C2002.96 884.156 2003.24 885.087 2003.63 885.812C2004.02 886.538 2004.49 887.064 2005.05 887.389C2005.6 887.713 2006.2 887.837 2006.84 887.759C2007.44 887.66 2007.93 887.388 2008.32 886.941C2008.73 886.506 2009.05 885.835 2009.29 884.928C2009.54 884.02 2009.72 882.816 2009.83 881.315L2010.11 877.289C2010.37 873.709 2011.24 870.792 2012.72 868.536C2014.21 866.292 2016.48 864.958 2019.55 864.534C2022.04 864.167 2024.31 864.521 2026.36 865.596C2028.43 866.681 2030.16 868.343 2031.55 870.581C2032.93 872.832 2033.85 875.509 2034.29 878.611C2034.74 881.777 2034.6 884.591 2033.87 887.052C2033.14 889.514 2031.9 891.507 2030.15 893.033C2028.42 894.57 2026.27 895.527 2023.71 895.906L2022.25 885.718Z" fill="#5988FF"/>
<path d="M2029.77 962.964C2031.05 962.777 2032.02 962.23 2032.68 961.321C2033.35 960.425 2033.63 959.109 2033.51 957.371C2033.44 956.265 2033.25 955.366 2032.93 954.676C2032.63 953.998 2032.24 953.506 2031.77 953.201C2031.3 952.895 2030.77 952.755 2030.19 952.779C2029.71 952.785 2029.29 952.896 2028.92 953.114C2028.56 953.344 2028.24 953.688 2027.96 954.145C2027.69 954.602 2027.45 955.179 2027.25 955.877C2027.05 956.575 2026.89 957.4 2026.75 958.352L2026.27 961.639C2025.95 963.857 2025.46 965.769 2024.8 967.375C2024.14 968.981 2023.33 970.313 2022.36 971.37C2021.41 972.427 2020.31 973.228 2019.07 973.774C2017.83 974.332 2016.45 974.667 2014.95 974.777C2012.35 974.932 2010.11 974.425 2008.22 973.255C2006.34 972.084 2004.85 970.333 2003.75 968C2002.66 965.681 2002.01 962.848 2001.79 959.502C2001.57 956.066 2001.88 953.035 2002.73 950.409C2003.58 947.795 2005.02 945.712 2007.04 944.16C2009.07 942.62 2011.74 941.737 2015.04 941.51L2015.7 951.701C2014.5 951.844 2013.5 952.212 2012.71 952.806C2011.92 953.4 2011.35 954.199 2010.99 955.205C2010.63 956.223 2010.49 957.414 2010.58 958.778C2010.65 959.923 2010.86 960.873 2011.19 961.627C2011.52 962.38 2011.95 962.94 2012.48 963.307C2013.01 963.673 2013.59 963.842 2014.24 963.813C2014.84 963.761 2015.36 963.528 2015.78 963.113C2016.22 962.71 2016.59 962.065 2016.9 961.18C2017.22 960.293 2017.49 959.106 2017.71 957.619L2018.31 953.626C2018.84 950.077 2019.93 947.235 2021.57 945.099C2023.23 942.976 2025.61 941.821 2028.7 941.634C2031.2 941.459 2033.44 941.986 2035.41 943.216C2037.39 944.457 2038.98 946.247 2040.19 948.585C2041.4 950.936 2042.11 953.675 2042.31 956.802C2042.52 959.993 2042.16 962.788 2041.25 965.186C2040.33 967.584 2038.94 969.477 2037.08 970.864C2035.23 972.262 2033.02 973.052 2030.43 973.232L2029.77 962.964Z" fill="#5988FF"/>
<path d="M2043.78 1007.61L2044 1018.37L2018.63 1018.9C2015.61 1018.96 2012.99 1018.29 2010.76 1016.89C2008.53 1015.51 2006.8 1013.55 2005.54 1011.01C2004.31 1008.46 2003.65 1005.5 2003.58 1002.11C2003.51 998.692 2004.04 995.689 2005.17 993.098C2006.32 990.508 2007.97 988.474 2010.13 986.997C2012.31 985.533 2014.9 984.77 2017.92 984.707L2043.29 984.177L2043.51 994.929L2019.07 995.439C2017.85 995.465 2016.76 995.758 2015.8 996.32C2014.86 996.882 2014.13 997.645 2013.6 998.61C2013.08 999.588 2012.83 1000.69 2012.86 1001.91C2012.89 1003.15 2013.18 1004.24 2013.74 1005.19C2014.3 1006.13 2015.07 1006.86 2016.03 1007.38C2017.01 1007.9 2018.11 1008.15 2019.34 1008.13L2043.78 1007.61Z" fill="#5988FF"/>
<path d="M2004.33 1029.29L2043.93 1030.2L2043.54 1047.29C2043.47 1050.23 2042.84 1052.79 2041.63 1054.97C2040.41 1057.14 2038.74 1058.82 2036.62 1060C2034.49 1061.18 2032.02 1061.73 2029.21 1061.67C2026.37 1061.6 2023.93 1060.91 2021.88 1059.6C2019.84 1058.31 2018.28 1056.51 2017.21 1054.21C2016.14 1051.93 2015.64 1049.28 2015.71 1046.27L2015.94 1036.06L2024.29 1036.25L2024.11 1044.29C2024.08 1045.56 2024.28 1046.64 2024.69 1047.54C2025.12 1048.45 2025.75 1049.15 2026.56 1049.65C2027.37 1050.16 2028.34 1050.43 2029.46 1050.45C2030.6 1050.48 2031.57 1050.25 2032.38 1049.78C2033.2 1049.32 2033.84 1048.65 2034.28 1047.76C2034.74 1046.88 2034.99 1045.81 2035.02 1044.54L2035.1 1040.75L2004.09 1040.04L2004.33 1029.29Z" fill="#5988FF"/>
<path d="M2003.14 1070.95L2042.67 1073.53L2041.55 1090.6C2041.36 1093.53 2040.61 1096.06 2039.31 1098.18C2038.01 1100.31 2036.27 1101.91 2034.09 1103C2031.91 1104.08 2029.42 1104.53 2026.62 1104.35C2023.79 1104.17 2021.38 1103.38 2019.39 1101.98C2017.4 1100.6 2015.92 1098.73 2014.95 1096.4C2013.98 1094.07 2013.59 1091.4 2013.78 1088.39L2014.45 1078.2L2022.79 1078.75L2022.26 1086.78C2022.18 1088.04 2022.33 1089.13 2022.71 1090.04C2023.1 1090.97 2023.69 1091.7 2024.48 1092.23C2025.28 1092.78 2026.23 1093.08 2027.35 1093.16C2028.48 1093.23 2029.46 1093.05 2030.29 1092.61C2031.14 1092.19 2031.8 1091.54 2032.28 1090.67C2032.78 1089.81 2033.07 1088.75 2033.15 1087.49L2033.4 1083.7L2002.44 1081.68L2003.14 1070.95Z" fill="#5988FF"/>
<path d="M2000.15 1112.54L2039.54 1116.69L2038.41 1127.39L2007.63 1124.14L2005.95 1140.07L1997.34 1139.16L2000.15 1112.54Z" fill="#5988FF"/>
<path d="M1996.13 1148.77L2035.33 1154.44L2031.25 1182.69L2022.67 1181.45L2025.22 1163.84L2018.48 1162.87L2016.15 1179.02L2007.57 1177.78L2009.91 1161.63L2003.17 1160.65L2000.63 1178.19L1992.06 1176.95L1996.13 1148.77Z" fill="#5988FF"/>
<path d="M2026.24 1212.25L2023.46 1225.34L1999.6 1229.69L1999.51 1230.15L2019.54 1243.81L2016.76 1256.9L1978.02 1248.68L1980.2 1238.39L2002.6 1243.14L2002.67 1242.84L1982.4 1229.52L1983.72 1223.31L2007.8 1219.41L2007.86 1219.11L1985.31 1214.32L1987.5 1204.03L2026.24 1212.25Z" fill="#5988FF"/>
<path d="M1972.8 1268.7L1975.81 1257.49L2010.68 1280.38L2006.87 1294.58L1965.22 1296.94L1968.23 1285.73L1998.2 1284.8L1998.28 1284.51L1972.8 1268.7ZM1988.46 1270.66L1982.8 1291.73L1975.03 1289.64L1980.69 1268.57L1988.46 1270.66Z" fill="#5988FF"/>
<path d="M1962.65 1305.24L2000.4 1317.25L1995.22 1333.54C1994.33 1336.34 1992.99 1338.62 1991.22 1340.37C1989.45 1342.12 1987.37 1343.26 1985 1343.79C1982.62 1344.32 1980.1 1344.16 1977.42 1343.3C1974.72 1342.44 1972.57 1341.1 1970.97 1339.26C1969.37 1337.44 1968.38 1335.28 1968 1332.78C1967.61 1330.29 1967.88 1327.6 1968.79 1324.73L1971.89 1315L1979.85 1317.53L1977.41 1325.2C1977.03 1326.4 1976.91 1327.49 1977.06 1328.48C1977.22 1329.47 1977.62 1330.32 1978.26 1331.03C1978.9 1331.74 1979.75 1332.27 1980.82 1332.61C1981.9 1332.96 1982.9 1333.02 1983.81 1332.79C1984.72 1332.58 1985.52 1332.11 1986.2 1331.38C1986.89 1330.67 1987.42 1329.71 1987.81 1328.5L1988.96 1324.89L1959.39 1315.49L1962.65 1305.24Z" fill="#5988FF"/>
<path d="M1968.04 1374.28C1969.29 1374.63 1970.4 1374.52 1971.38 1373.96C1972.35 1373.41 1973.13 1372.31 1973.73 1370.68C1974.11 1369.64 1974.29 1368.74 1974.28 1367.98C1974.28 1367.23 1974.12 1366.63 1973.81 1366.16C1973.5 1365.69 1973.08 1365.35 1972.54 1365.14C1972.1 1364.95 1971.67 1364.88 1971.24 1364.93C1970.81 1364.99 1970.38 1365.18 1969.94 1365.48C1969.51 1365.79 1969.07 1366.23 1968.6 1366.79C1968.14 1367.34 1967.65 1368.03 1967.15 1368.85L1965.38 1371.66C1964.19 1373.56 1962.97 1375.11 1961.72 1376.32C1960.47 1377.52 1959.19 1378.41 1957.88 1378.99C1956.58 1379.58 1955.26 1379.87 1953.9 1379.86C1952.54 1379.87 1951.14 1379.63 1949.72 1379.12C1947.28 1378.21 1945.43 1376.85 1944.18 1375.02C1942.93 1373.18 1942.27 1370.98 1942.21 1368.41C1942.14 1365.84 1942.69 1362.99 1943.84 1359.84C1945.02 1356.6 1946.53 1353.96 1948.37 1351.9C1950.2 1349.85 1952.35 1348.52 1954.82 1347.91C1957.3 1347.32 1960.1 1347.59 1963.22 1348.72L1959.72 1358.31C1958.55 1357.95 1957.49 1357.89 1956.53 1358.11C1955.57 1358.34 1954.72 1358.84 1953.99 1359.61C1953.25 1360.4 1952.64 1361.43 1952.17 1362.72C1951.78 1363.8 1951.58 1364.75 1951.58 1365.57C1951.58 1366.4 1951.75 1367.08 1952.09 1367.63C1952.42 1368.18 1952.89 1368.57 1953.49 1368.8C1954.07 1369 1954.63 1368.99 1955.19 1368.78C1955.75 1368.59 1956.35 1368.15 1956.99 1367.46C1957.64 1366.78 1958.36 1365.8 1959.17 1364.53L1961.32 1361.12C1963.24 1358.09 1965.38 1355.92 1967.75 1354.63C1970.12 1353.36 1972.76 1353.26 1975.66 1354.33C1978.03 1355.18 1979.86 1356.57 1981.17 1358.49C1982.48 1360.42 1983.22 1362.7 1983.38 1365.33C1983.54 1367.97 1983.09 1370.76 1982.01 1373.7C1980.91 1376.71 1979.46 1379.12 1977.66 1380.95C1975.85 1382.77 1973.82 1383.94 1971.55 1384.46C1969.3 1385 1966.95 1384.83 1964.51 1383.95L1968.04 1374.28Z" fill="#5988FF"/>
<path d="M1938.19 1445.92C1939.41 1446.36 1940.52 1446.34 1941.54 1445.85C1942.55 1445.38 1943.41 1444.35 1944.13 1442.76C1944.59 1441.75 1944.85 1440.87 1944.89 1440.11C1944.95 1439.37 1944.84 1438.75 1944.57 1438.26C1944.29 1437.77 1943.9 1437.4 1943.37 1437.15C1942.95 1436.92 1942.52 1436.82 1942.09 1436.84C1941.67 1436.87 1941.22 1437.02 1940.76 1437.29C1940.31 1437.57 1939.83 1437.97 1939.32 1438.49C1938.81 1439.01 1938.28 1439.66 1937.71 1440.43L1935.73 1443.1C1934.4 1444.91 1933.07 1446.36 1931.73 1447.46C1930.39 1448.57 1929.05 1449.36 1927.7 1449.84C1926.36 1450.32 1925.01 1450.5 1923.66 1450.4C1922.3 1450.3 1920.93 1449.95 1919.55 1449.34C1917.19 1448.24 1915.45 1446.74 1914.34 1444.82C1913.23 1442.9 1912.75 1440.65 1912.88 1438.08C1913.01 1435.51 1913.77 1432.71 1915.16 1429.66C1916.59 1426.52 1918.3 1424 1920.29 1422.09C1922.27 1420.18 1924.52 1419.03 1927.03 1418.61C1929.55 1418.21 1932.32 1418.7 1935.34 1420.06L1931.11 1429.35C1929.98 1428.91 1928.93 1428.76 1927.95 1428.91C1926.98 1429.06 1926.09 1429.5 1925.3 1430.21C1924.5 1430.94 1923.82 1431.93 1923.25 1433.17C1922.78 1434.21 1922.51 1435.15 1922.45 1435.97C1922.39 1436.79 1922.5 1437.49 1922.79 1438.06C1923.08 1438.63 1923.52 1439.06 1924.1 1439.34C1924.66 1439.58 1925.22 1439.61 1925.79 1439.45C1926.37 1439.3 1927 1438.91 1927.69 1438.27C1928.39 1437.64 1929.19 1436.72 1930.09 1435.52L1932.5 1432.28C1934.65 1429.4 1936.95 1427.41 1939.41 1426.31C1941.87 1425.22 1944.51 1425.32 1947.32 1426.62C1949.61 1427.65 1951.33 1429.17 1952.49 1431.18C1953.65 1433.21 1954.21 1435.54 1954.17 1438.17C1954.13 1440.82 1953.46 1443.56 1952.16 1446.42C1950.83 1449.33 1949.2 1451.62 1947.26 1453.3C1945.32 1454.98 1943.2 1456 1940.91 1456.34C1938.62 1456.7 1936.29 1456.35 1933.93 1455.29L1938.19 1445.92Z" fill="#5988FF"/>
<path d="M1929.45 1491.9L1924.57 1501.48L1901.96 1489.97C1899.27 1488.6 1897.28 1486.77 1895.97 1484.48C1894.66 1482.21 1894.06 1479.66 1894.15 1476.83C1894.26 1474 1895.08 1471.08 1896.62 1468.06C1898.17 1465.01 1900.06 1462.62 1902.28 1460.87C1904.51 1459.13 1906.93 1458.11 1909.53 1457.83C1912.14 1457.57 1914.79 1458.12 1917.48 1459.49L1940.09 1471.01L1935.21 1480.59L1913.43 1469.5C1912.34 1468.94 1911.24 1468.68 1910.13 1468.73C1909.03 1468.78 1908.03 1469.1 1907.11 1469.71C1906.19 1470.33 1905.45 1471.18 1904.9 1472.27C1904.33 1473.37 1904.08 1474.47 1904.13 1475.57C1904.18 1476.67 1904.5 1477.67 1905.11 1478.59C1905.72 1479.51 1906.58 1480.25 1907.67 1480.8L1929.45 1491.9Z" fill="#5988FF"/>
<path d="M1884.45 1492.37L1918.93 1511.88L1910.51 1526.76C1909.07 1529.32 1907.29 1531.27 1905.2 1532.62C1903.1 1533.97 1900.84 1534.66 1898.41 1534.69C1895.98 1534.72 1893.54 1534.04 1891.09 1532.66C1888.62 1531.26 1886.79 1529.5 1885.61 1527.38C1884.42 1525.27 1883.89 1522.95 1884.03 1520.42C1884.17 1517.91 1884.98 1515.34 1886.46 1512.71L1891.49 1503.82L1898.76 1507.93L1894.8 1514.94C1894.18 1516.04 1893.84 1517.08 1893.78 1518.07C1893.73 1519.08 1893.95 1520 1894.43 1520.82C1894.91 1521.65 1895.64 1522.34 1896.61 1522.9C1897.6 1523.45 1898.56 1523.72 1899.5 1523.68C1900.44 1523.67 1901.32 1523.37 1902.13 1522.8C1902.95 1522.24 1903.67 1521.41 1904.3 1520.31L1906.16 1517.01L1879.16 1501.74L1884.45 1492.37Z" fill="#5988FF"/>
<path d="M1863.73 1528.53L1897.35 1549.48L1888.31 1563.99C1886.75 1566.49 1884.9 1568.36 1882.75 1569.62C1880.6 1570.88 1878.31 1571.47 1875.88 1571.4C1873.45 1571.33 1871.04 1570.55 1868.65 1569.06C1866.24 1567.56 1864.49 1565.73 1863.4 1563.56C1862.3 1561.4 1861.87 1559.06 1862.12 1556.54C1862.36 1554.03 1863.28 1551.5 1864.88 1548.93L1870.28 1540.27L1877.37 1544.68L1873.11 1551.51C1872.44 1552.59 1872.06 1553.62 1871.96 1554.6C1871.87 1555.61 1872.05 1556.53 1872.49 1557.37C1872.94 1558.22 1873.63 1558.95 1874.58 1559.54C1875.55 1560.14 1876.5 1560.44 1877.43 1560.45C1878.38 1560.48 1879.27 1560.22 1880.1 1559.68C1880.95 1559.15 1881.7 1558.35 1882.37 1557.28L1884.38 1554.06L1858.05 1537.66L1863.73 1528.53Z" fill="#5988FF"/>
<path d="M1841.45 1563.77L1874.21 1586.04L1868.16 1594.94L1842.57 1577.54L1833.57 1590.79L1826.4 1585.91L1841.45 1563.77Z" fill="#5988FF"/>
<path d="M1820.8 1593.82L1852.68 1617.33L1835.74 1640.3L1828.77 1635.16L1839.33 1620.84L1833.85 1616.8L1824.16 1629.94L1817.19 1624.79L1826.87 1611.65L1821.39 1607.61L1810.88 1621.87L1803.91 1616.73L1820.8 1593.82Z" fill="#5988FF"/>
<path d="M1817.37 1663.99L1808.74 1674.22L1785.65 1666.79L1785.35 1667.14L1796.56 1688.65L1787.93 1698.88L1757.66 1673.33L1764.45 1665.29L1781.94 1680.06L1782.14 1679.82L1770.57 1658.51L1774.66 1653.66L1797.73 1661.59L1797.93 1661.36L1780.31 1646.49L1787.1 1638.44L1817.37 1663.99Z" fill="#5988FF"/>
<path d="M1743.61 1688.51L1751.55 1680.05L1771.48 1716.7L1761.41 1727.41L1723.59 1709.83L1731.54 1701.37L1758.39 1714.7L1758.6 1714.47L1743.61 1688.51ZM1756.48 1697.63L1741.55 1713.53L1735.68 1708.02L1750.62 1692.12L1756.48 1697.63Z" fill="#5988FF"/>
<path d="M1717.41 1715.92L1745.01 1744.33L1732.75 1756.25C1730.64 1758.3 1728.39 1759.68 1726 1760.38C1723.61 1761.08 1721.24 1761.11 1718.9 1760.46C1716.56 1759.8 1714.41 1758.47 1712.45 1756.45C1710.47 1754.42 1709.21 1752.21 1708.67 1749.84C1708.12 1747.48 1708.27 1745.11 1709.12 1742.72C1709.95 1740.35 1711.45 1738.11 1713.62 1736L1720.94 1728.89L1726.76 1734.88L1720.99 1740.49C1720.09 1741.37 1719.47 1742.28 1719.14 1743.21C1718.8 1744.16 1718.75 1745.1 1718.99 1746.03C1719.21 1746.96 1719.71 1747.83 1720.49 1748.63C1721.28 1749.45 1722.13 1749.97 1723.04 1750.2C1723.95 1750.45 1724.88 1750.41 1725.82 1750.09C1726.76 1749.79 1727.69 1749.19 1728.6 1748.31L1731.31 1745.67L1709.7 1723.42L1717.41 1715.92Z" fill="#5988FF"/>
<path d="M1689.56 1779.33C1690.49 1780.23 1691.52 1780.65 1692.65 1780.62C1693.76 1780.59 1694.97 1780 1696.27 1778.84C1697.1 1778.1 1697.68 1777.39 1698.03 1776.72C1698.38 1776.06 1698.53 1775.45 1698.48 1774.89C1698.43 1774.33 1698.22 1773.83 1697.84 1773.39C1697.54 1773.02 1697.19 1772.75 1696.79 1772.59C1696.39 1772.45 1695.92 1772.41 1695.38 1772.47C1694.86 1772.54 1694.26 1772.71 1693.59 1772.99C1692.91 1773.26 1692.16 1773.64 1691.33 1774.12L1688.44 1775.76C1686.5 1776.88 1684.69 1777.67 1683.02 1778.14C1681.35 1778.61 1679.8 1778.79 1678.37 1778.68C1676.96 1778.58 1675.65 1778.21 1674.45 1777.57C1673.25 1776.93 1672.14 1776.06 1671.12 1774.94C1669.4 1772.99 1668.42 1770.91 1668.18 1768.71C1667.94 1766.5 1668.4 1764.25 1669.56 1761.95C1670.71 1759.66 1672.54 1757.4 1675.04 1755.16C1677.61 1752.87 1680.19 1751.25 1682.78 1750.3C1685.37 1749.36 1687.89 1749.21 1690.36 1749.84C1692.82 1750.49 1695.16 1752.05 1697.38 1754.52L1689.76 1761.32C1688.9 1760.45 1688 1759.9 1687.05 1759.64C1686.09 1759.39 1685.11 1759.43 1684.09 1759.76C1683.07 1760.1 1682.05 1760.73 1681.03 1761.64C1680.17 1762.41 1679.55 1763.15 1679.16 1763.88C1678.77 1764.6 1678.6 1765.29 1678.63 1765.93C1678.67 1766.57 1678.9 1767.14 1679.32 1767.63C1679.73 1768.07 1680.23 1768.33 1680.82 1768.41C1681.41 1768.51 1682.15 1768.4 1683.03 1768.1C1683.92 1767.8 1685.03 1767.28 1686.34 1766.55L1689.85 1764.55C1692.97 1762.79 1695.88 1761.89 1698.58 1761.87C1701.27 1761.87 1703.64 1763.03 1705.69 1765.35C1707.38 1767.21 1708.34 1769.3 1708.58 1771.61C1708.83 1773.93 1708.4 1776.29 1707.3 1778.68C1706.2 1781.09 1704.48 1783.33 1702.14 1785.42C1699.76 1787.55 1697.34 1788.99 1694.88 1789.75C1692.43 1790.5 1690.08 1790.57 1687.84 1789.96C1685.6 1789.37 1683.61 1788.11 1681.88 1786.18L1689.56 1779.33Z" fill="#5988FF"/>
<path d="M1629.41 1828.38C1630.28 1829.34 1631.27 1829.85 1632.4 1829.9C1633.51 1829.95 1634.76 1829.45 1636.14 1828.4C1637.03 1827.73 1637.67 1827.07 1638.07 1826.42C1638.46 1825.79 1638.66 1825.2 1638.65 1824.64C1638.64 1824.08 1638.47 1823.56 1638.13 1823.09C1637.86 1822.7 1637.53 1822.4 1637.14 1822.21C1636.75 1822.04 1636.29 1821.96 1635.75 1821.98C1635.22 1822.01 1634.61 1822.14 1633.92 1822.36C1633.23 1822.58 1632.45 1822.9 1631.59 1823.31L1628.58 1824.73C1626.56 1825.69 1624.69 1826.34 1622.99 1826.68C1621.29 1827.03 1619.73 1827.09 1618.32 1826.87C1616.91 1826.66 1615.63 1826.19 1614.49 1825.46C1613.34 1824.73 1612.3 1823.77 1611.37 1822.58C1609.8 1820.5 1608.98 1818.36 1608.91 1816.14C1608.84 1813.92 1609.48 1811.71 1610.81 1809.51C1612.14 1807.31 1614.13 1805.2 1616.8 1803.16C1619.53 1801.08 1622.23 1799.66 1624.89 1798.91C1627.54 1798.17 1630.07 1798.21 1632.48 1799.04C1634.88 1799.87 1637.1 1801.61 1639.12 1804.23L1631 1810.43C1630.21 1809.5 1629.35 1808.88 1628.42 1808.55C1627.49 1808.22 1626.51 1808.19 1625.47 1808.44C1624.42 1808.71 1623.36 1809.25 1622.27 1810.08C1621.36 1810.78 1620.68 1811.47 1620.24 1812.17C1619.79 1812.86 1619.57 1813.53 1619.55 1814.18C1619.54 1814.82 1619.72 1815.4 1620.11 1815.92C1620.48 1816.39 1620.96 1816.69 1621.54 1816.82C1622.12 1816.96 1622.87 1816.91 1623.77 1816.67C1624.68 1816.45 1625.82 1816.02 1627.19 1815.38L1630.84 1813.66C1634.09 1812.14 1637.06 1811.47 1639.75 1811.66C1642.43 1811.87 1644.71 1813.2 1646.58 1815.67C1648.11 1817.66 1648.91 1819.82 1648.98 1822.13C1649.04 1824.47 1648.43 1826.79 1647.16 1829.09C1645.87 1831.4 1643.99 1833.51 1641.49 1835.41C1638.95 1837.35 1636.43 1838.6 1633.92 1839.17C1631.42 1839.73 1629.07 1839.62 1626.89 1838.84C1624.7 1838.08 1622.82 1836.67 1621.23 1834.62L1629.41 1828.38Z" fill="#5988FF"/>
<path d="M1600 1864.78L1591.18 1870.92L1576.68 1850.09C1574.96 1847.61 1574.06 1845.06 1573.99 1842.42C1573.91 1839.8 1574.58 1837.27 1576 1834.82C1577.43 1832.38 1579.54 1830.19 1582.32 1828.26C1585.13 1826.3 1587.92 1825.08 1590.7 1824.59C1593.49 1824.11 1596.1 1824.36 1598.53 1825.34C1600.95 1826.34 1603.03 1828.08 1604.75 1830.56L1619.24 1851.38L1610.42 1857.53L1596.45 1837.46C1595.75 1836.45 1594.91 1835.71 1593.91 1835.23C1592.92 1834.75 1591.88 1834.56 1590.79 1834.66C1589.68 1834.77 1588.63 1835.18 1587.62 1835.88C1586.61 1836.58 1585.86 1837.43 1585.39 1838.42C1584.92 1839.41 1584.73 1840.45 1584.83 1841.54C1584.94 1842.65 1585.34 1843.7 1586.04 1844.71L1600 1864.78Z" fill="#5988FF"/>
<path d="M1560.11 1843.94L1581.29 1877.42L1566.85 1886.56C1564.36 1888.13 1561.88 1889.02 1559.39 1889.22C1556.91 1889.41 1554.59 1888.95 1552.43 1887.83C1550.27 1886.71 1548.44 1884.96 1546.94 1882.59C1545.42 1880.19 1544.64 1877.78 1544.6 1875.35C1544.55 1872.92 1545.18 1870.63 1546.5 1868.47C1547.8 1866.31 1549.73 1864.43 1552.28 1862.82L1560.91 1857.36L1565.38 1864.42L1558.58 1868.72C1557.51 1869.39 1556.72 1870.16 1556.2 1871C1555.68 1871.87 1555.44 1872.77 1555.48 1873.73C1555.5 1874.69 1555.82 1875.64 1556.42 1876.59C1557.02 1877.55 1557.75 1878.23 1558.59 1878.65C1559.43 1879.08 1560.34 1879.23 1561.33 1879.11C1562.32 1879 1563.34 1878.61 1564.41 1877.94L1567.61 1875.91L1551.03 1849.69L1560.11 1843.94Z" fill="#5988FF"/>
<path d="M1524.77 1866.03L1544.51 1900.37L1529.69 1908.89C1527.14 1910.35 1524.63 1911.13 1522.14 1911.23C1519.65 1911.32 1517.35 1910.76 1515.24 1909.55C1513.13 1908.34 1511.37 1906.51 1509.97 1904.08C1508.56 1901.62 1507.88 1899.17 1507.94 1896.74C1507.99 1894.32 1508.72 1892.06 1510.13 1889.95C1511.53 1887.85 1513.53 1886.05 1516.15 1884.55L1525 1879.46L1529.16 1886.7L1522.19 1890.71C1521.09 1891.34 1520.27 1892.07 1519.72 1892.89C1519.16 1893.74 1518.88 1894.63 1518.88 1895.59C1518.86 1896.55 1519.14 1897.51 1519.7 1898.48C1520.26 1899.47 1520.96 1900.18 1521.78 1900.63C1522.6 1901.1 1523.5 1901.29 1524.5 1901.21C1525.49 1901.15 1526.53 1900.8 1527.63 1900.17L1530.91 1898.28L1515.45 1871.39L1524.77 1866.03Z" fill="#5988FF"/>
<path d="M1488.49 1886.57L1506.85 1921.67L1497.32 1926.65L1482.98 1899.23L1468.79 1906.66L1464.77 1898.98L1488.49 1886.57Z" fill="#5988FF"/>
<path d="M1456.1 1903.3L1473.1 1939.07L1447.32 1951.33L1443.6 1943.5L1459.67 1935.86L1456.75 1929.71L1442.01 1936.72L1438.29 1928.89L1453.03 1921.89L1450.11 1915.74L1434.11 1923.34L1430.39 1915.51L1456.1 1903.3Z" fill="#5988FF"/>
<path d="M1419.94 1963.53L1407.5 1968.47L1390.66 1951.01L1390.23 1951.19L1389.96 1975.44L1377.52 1980.38L1362.9 1943.56L1372.68 1939.68L1381.13 1960.96L1381.42 1960.85L1381.28 1936.59L1387.17 1934.25L1403.76 1952.14L1404.05 1952.03L1395.54 1930.6L1405.32 1926.71L1419.94 1963.53Z" fill="#5988FF"/>
<path d="M1343.35 1950.3L1354.34 1946.6L1354.6 1988.31L1340.67 1993.01L1315.64 1959.64L1326.63 1955.93L1344.01 1980.37L1344.3 1980.27L1343.35 1950.3ZM1350.39 1964.42L1329.71 1971.39L1327.15 1963.76L1347.82 1956.8L1350.39 1964.42Z" fill="#5988FF"/>
<path d="M1307.31 1962.09L1318.22 2000.17L1301.79 2004.89C1298.96 2005.7 1296.33 2005.85 1293.89 2005.34C1291.45 2004.83 1289.35 2003.74 1287.59 2002.05C1285.84 2000.37 1284.57 1998.18 1283.8 1995.48C1283.02 1992.75 1282.95 1990.21 1283.59 1987.87C1284.22 1985.53 1285.47 1983.51 1287.34 1981.8C1289.2 1980.1 1291.58 1978.84 1294.48 1978L1304.3 1975.19L1306.6 1983.22L1298.87 1985.44C1297.65 1985.79 1296.68 1986.3 1295.94 1986.96C1295.2 1987.65 1294.71 1988.45 1294.48 1989.37C1294.24 1990.3 1294.27 1991.31 1294.58 1992.38C1294.89 1993.47 1295.4 1994.34 1296.09 1994.97C1296.77 1995.62 1297.6 1996.02 1298.59 1996.18C1299.56 1996.36 1300.66 1996.28 1301.87 1995.93L1305.52 1994.88L1296.97 1965.06L1307.31 1962.09Z" fill="#5988FF"/>
<path d="M1252.81 2004.83C1253.22 2006.06 1253.92 2006.93 1254.93 2007.42C1255.93 2007.93 1257.27 2007.97 1258.97 2007.57C1260.04 2007.31 1260.89 2006.96 1261.52 2006.53C1262.14 2006.12 1262.56 2005.65 1262.78 2005.13C1263 2004.62 1263.04 2004.07 1262.92 2003.51C1262.83 2003.04 1262.65 2002.64 1262.37 2002.31C1262.08 2001.99 1261.69 2001.73 1261.19 2001.54C1260.7 2001.35 1260.09 2001.22 1259.36 2001.14C1258.64 2001.06 1257.8 2001.04 1256.84 2001.07L1253.52 2001.16C1251.28 2001.22 1249.31 2001.07 1247.62 2000.69C1245.92 2000.32 1244.47 1999.75 1243.27 1998.98C1242.06 1998.22 1241.08 1997.28 1240.33 1996.14C1239.57 1995.01 1239.01 1993.72 1238.64 1992.25C1238.04 1989.72 1238.16 1987.42 1238.99 1985.37C1239.82 1983.31 1241.29 1981.54 1243.4 1980.06C1245.5 1978.59 1248.17 1977.46 1251.43 1976.67C1254.78 1975.86 1257.82 1975.65 1260.55 1976.04C1263.27 1976.43 1265.57 1977.49 1267.44 1979.22C1269.31 1980.95 1270.64 1983.43 1271.43 1986.65L1261.5 1989.05C1261.15 1987.88 1260.62 1986.96 1259.9 1986.29C1259.18 1985.61 1258.29 1985.18 1257.24 1985C1256.18 1984.82 1254.98 1984.89 1253.65 1985.21C1252.54 1985.48 1251.64 1985.84 1250.95 1986.3C1250.26 1986.76 1249.79 1987.28 1249.52 1987.86C1249.24 1988.44 1249.18 1989.05 1249.32 1989.68C1249.47 1990.26 1249.79 1990.73 1250.27 1991.08C1250.74 1991.44 1251.44 1991.7 1252.37 1991.85C1253.3 1992.01 1254.51 1992.07 1256.02 1992.04L1260.05 1991.94C1263.64 1991.86 1266.62 1992.45 1269.01 1993.7C1271.39 1994.97 1272.93 1997.11 1273.64 2000.12C1274.25 2002.57 1274.11 2004.86 1273.23 2007.01C1272.35 2009.17 1270.86 2011.05 1268.76 2012.64C1266.66 2014.24 1264.08 2015.4 1261.03 2016.14C1257.93 2016.89 1255.11 2017.02 1252.59 2016.53C1250.07 2016.03 1247.97 2014.99 1246.28 2013.39C1244.59 2011.81 1243.43 2009.76 1242.81 2007.24L1252.81 2004.83Z" fill="#5988FF"/>
<path d="M1176.64 2019.66C1176.95 2020.91 1177.59 2021.83 1178.55 2022.4C1179.51 2022.98 1180.85 2023.13 1182.56 2022.86C1183.66 2022.68 1184.54 2022.4 1185.19 2022.02C1185.84 2021.65 1186.29 2021.22 1186.55 2020.72C1186.81 2020.22 1186.9 2019.69 1186.82 2019.11C1186.77 2018.64 1186.62 2018.22 1186.37 2017.87C1186.1 2017.54 1185.73 2017.25 1185.25 2017.01C1184.77 2016.79 1184.17 2016.61 1183.46 2016.48C1182.74 2016.35 1181.91 2016.26 1180.95 2016.22L1177.63 2016.05C1175.39 2015.94 1173.44 2015.63 1171.78 2015.13C1170.12 2014.63 1168.72 2013.95 1167.57 2013.09C1166.43 2012.24 1165.53 2011.22 1164.87 2010.04C1164.19 2008.85 1163.73 2007.52 1163.47 2006.03C1163.07 2003.45 1163.36 2001.17 1164.35 1999.19C1165.34 1997.2 1166.94 1995.55 1169.16 1994.24C1171.36 1992.93 1174.12 1992.01 1177.43 1991.47C1180.83 1990.93 1183.87 1990.95 1186.57 1991.55C1189.25 1992.15 1191.46 1993.38 1193.2 1995.24C1194.92 1997.12 1196.06 1999.69 1196.6 2002.96L1186.51 2004.59C1186.26 2003.4 1185.8 2002.44 1185.13 2001.71C1184.47 2000.98 1183.61 2000.49 1182.58 2000.22C1181.53 1999.96 1180.33 1999.94 1178.98 2000.16C1177.85 2000.34 1176.93 2000.63 1176.21 2001.04C1175.49 2001.44 1174.97 2001.92 1174.66 2002.48C1174.34 2003.04 1174.23 2003.64 1174.32 2004.28C1174.43 2004.88 1174.71 2005.37 1175.16 2005.75C1175.61 2006.15 1176.28 2006.46 1177.19 2006.68C1178.11 2006.91 1179.31 2007.07 1180.82 2007.15L1184.85 2007.36C1188.43 2007.55 1191.36 2008.37 1193.64 2009.8C1195.92 2011.25 1197.29 2013.51 1197.77 2016.56C1198.18 2019.04 1197.87 2021.32 1196.83 2023.39C1195.79 2025.48 1194.16 2027.24 1191.95 2028.67C1189.72 2030.1 1187.06 2031.06 1183.97 2031.56C1180.81 2032.07 1178 2031.98 1175.52 2031.3C1173.05 2030.61 1171.03 2029.41 1169.47 2027.69C1167.91 2025.98 1166.91 2023.85 1166.48 2021.29L1176.64 2019.66Z" fill="#5988FF"/>
<path d="M1133.53 2037.85L1122.85 2039.09L1119.91 2013.89C1119.56 2010.89 1119.97 2008.21 1121.15 2005.86C1122.32 2003.51 1124.11 2001.6 1126.52 2000.11C1128.93 1998.63 1131.82 1997.7 1135.19 1997.31C1138.58 1996.91 1141.62 1997.15 1144.31 1998.03C1147 1998.93 1149.18 2000.38 1150.85 2002.39C1152.52 2004.42 1153.52 2006.93 1153.87 2009.93L1156.81 2035.13L1146.13 2036.38L1143.3 2012.09C1143.16 2010.88 1142.76 2009.82 1142.11 2008.92C1141.46 2008.04 1140.63 2007.38 1139.62 2006.95C1138.6 2006.53 1137.48 2006.39 1136.26 2006.53C1135.03 2006.67 1133.98 2007.07 1133.09 2007.72C1132.21 2008.36 1131.55 2009.19 1131.12 2010.2C1130.7 2011.23 1130.56 2012.35 1130.7 2013.56L1133.53 2037.85Z" fill="#5988FF"/>
<path d="M1108.2 2000.64L1111.07 2040.15L1094.02 2041.39C1091.08 2041.6 1088.48 2041.21 1086.19 2040.21C1083.91 2039.21 1082.08 2037.71 1080.71 2035.7C1079.34 2033.69 1078.55 2031.29 1078.34 2028.49C1078.14 2025.66 1078.59 2023.16 1079.7 2021C1080.8 2018.84 1082.44 2017.12 1084.62 2015.83C1086.79 2014.55 1089.38 2013.8 1092.39 2013.58L1102.57 2012.84L1103.18 2021.18L1095.15 2021.76C1093.89 2021.85 1092.83 2022.15 1091.98 2022.65C1091.11 2023.16 1090.47 2023.85 1090.05 2024.71C1089.62 2025.57 1089.45 2026.56 1089.53 2027.67C1089.61 2028.81 1089.93 2029.75 1090.47 2030.51C1091.01 2031.29 1091.74 2031.86 1092.67 2032.22C1093.59 2032.59 1094.68 2032.73 1095.94 2032.64L1099.72 2032.37L1097.48 2001.42L1108.2 2000.64Z" fill="#5988FF"/>
<path d="M1066.63 2003.42L1067.81 2043.01L1050.72 2043.53C1047.79 2043.61 1045.2 2043.11 1042.96 2042.02C1040.72 2040.92 1038.96 2039.34 1037.67 2037.28C1036.38 2035.21 1035.7 2032.78 1035.61 2029.97C1035.53 2027.13 1036.09 2024.66 1037.29 2022.55C1038.47 2020.43 1040.19 2018.78 1042.42 2017.59C1044.64 2016.4 1047.26 2015.76 1050.28 2015.67L1060.48 2015.37L1060.73 2023.72L1052.69 2023.96C1051.43 2024 1050.36 2024.25 1049.48 2024.71C1048.59 2025.19 1047.92 2025.85 1047.47 2026.69C1047.01 2027.53 1046.79 2028.51 1046.82 2029.63C1046.86 2030.77 1047.13 2031.73 1047.65 2032.51C1048.15 2033.31 1048.86 2033.91 1049.77 2034.3C1050.67 2034.72 1051.76 2034.9 1053.02 2034.86L1056.81 2034.75L1055.88 2003.74L1066.63 2003.42Z" fill="#5988FF"/>
<path d="M1024.95 2004.39L1024.56 2044L1013.8 2043.89L1014.11 2012.95L998.094 2012.79L998.18 2004.13L1024.95 2004.39Z" fill="#5988FF"/>
<path d="M988.499 2003.84L986.587 2043.4L958.074 2042.03L958.493 2033.37L976.265 2034.23L976.593 2027.43L960.289 2026.64L960.707 2017.99L977.012 2018.77L977.34 2011.97L959.645 2011.12L960.063 2002.46L988.499 2003.84Z" fill="#5988FF"/>
<path d="M928.176 2039.85L914.879 2038.33L908.283 2014.99L907.822 2014.94L896.126 2036.18L882.829 2034.66L887.331 1995.31L897.784 1996.5L895.181 2019.26L895.489 2019.29L906.818 1997.85L913.121 1998.57L919.297 2022.17L919.605 2022.21L922.225 1999.3L932.678 2000.49L928.176 2039.85Z" fill="#5988FF"/>
<path d="M866.912 1992.02L878.355 1993.95L858.881 2030.84L844.387 2028.39L838.076 1987.16L849.519 1989.09L853.294 2018.83L853.599 2018.88L866.912 1992.02ZM866.451 2007.79L844.939 2004.16L846.276 1996.23L867.788 1999.85L866.451 2007.79Z" fill="#5988FF"/>
<path d="M829.574 1985.39L821.213 2024.11L804.502 2020.5C801.629 2019.88 799.237 2018.77 797.327 2017.17C795.416 2015.57 794.084 2013.61 793.331 2011.3C792.577 2008.99 792.497 2006.46 793.09 2003.71C793.689 2000.94 794.825 1998.67 796.498 1996.9C798.159 1995.14 800.217 1993.95 802.671 1993.33C805.114 1992.71 807.809 1992.72 810.759 1993.36L820.74 1995.51L818.976 2003.68L811.112 2001.98C809.877 2001.71 808.779 2001.7 807.816 2001.94C806.839 2002.19 806.03 2002.67 805.39 2003.38C804.736 2004.08 804.292 2004.98 804.055 2006.08C803.815 2007.19 803.851 2008.18 804.161 2009.07C804.456 2009.96 804.999 2010.71 805.792 2011.32C806.569 2011.94 807.575 2012.38 808.81 2012.64L812.515 2013.44L819.063 1983.12L829.574 1985.39Z" fill="#5988FF"/>
<path d="M761.361 1997.32C761.135 1998.59 761.349 1999.69 762.003 2000.61C762.644 2001.52 763.807 2002.2 765.491 2002.64C766.564 2002.92 767.478 2003.01 768.233 2002.93C768.971 2002.86 769.56 2002.64 769.998 2002.29C770.436 2001.94 770.735 2001.48 770.894 2000.93C771.039 2000.47 771.067 2000.03 770.978 1999.61C770.872 1999.19 770.647 1998.78 770.3 1998.37C769.951 1997.98 769.477 1997.57 768.877 1997.16C768.278 1996.75 767.547 1996.34 766.685 1995.91L763.717 1994.42C761.713 1993.41 760.052 1992.35 758.735 1991.22C757.417 1990.09 756.408 1988.9 755.708 1987.65C755.004 1986.41 754.589 1985.12 754.462 1983.77C754.322 1982.41 754.437 1981 754.805 1979.54C755.474 1977.02 756.661 1975.05 758.364 1973.63C760.067 1972.21 762.198 1971.35 764.756 1971.04C767.301 1970.73 770.196 1971 773.44 1971.85C776.771 1972.72 779.549 1973.97 781.775 1975.6C783.988 1977.23 785.514 1979.25 786.353 1981.65C787.176 1984.06 787.176 1986.88 786.352 1990.09L776.471 1987.51C776.715 1986.32 776.678 1985.26 776.363 1984.32C776.047 1983.39 775.469 1982.59 774.628 1981.93C773.774 1981.27 772.686 1980.76 771.364 1980.42C770.254 1980.13 769.288 1980.03 768.468 1980.1C767.648 1980.18 766.981 1980.42 766.468 1980.8C765.954 1981.19 765.61 1981.69 765.434 1982.31C765.294 1982.9 765.354 1983.46 765.614 1984C765.859 1984.54 766.354 1985.1 767.099 1985.66C767.84 1986.24 768.881 1986.88 770.222 1987.56L773.825 1989.38C777.027 1991 779.382 1992.93 780.892 1995.16C782.386 1997.4 782.737 2000.02 781.943 2003.01C781.321 2005.44 780.118 2007.4 778.333 2008.88C776.532 2010.37 774.332 2011.32 771.732 2011.74C769.12 2012.15 766.298 2011.96 763.266 2011.17C760.172 2010.36 757.631 2009.15 755.643 2007.52C753.654 2005.9 752.295 2003.98 751.563 2001.78C750.816 1999.59 750.763 1997.24 751.405 1994.72L761.361 1997.32Z" fill="#5988FF"/>
<path d="M687.218 1974.41C686.896 1975.66 687.025 1976.77 687.606 1977.74C688.175 1978.7 689.283 1979.46 690.928 1980.03C691.977 1980.39 692.88 1980.56 693.639 1980.53C694.381 1980.52 694.984 1980.35 695.448 1980.03C695.912 1979.71 696.245 1979.28 696.446 1978.74C696.626 1978.3 696.688 1977.86 696.631 1977.43C696.558 1977.01 696.364 1976.58 696.051 1976.15C695.733 1975.72 695.291 1975.29 694.725 1974.83C694.158 1974.38 693.462 1973.9 692.635 1973.41L689.79 1971.7C687.869 1970.54 686.296 1969.35 685.069 1968.13C683.842 1966.9 682.927 1965.63 682.325 1964.34C681.718 1963.05 681.403 1961.73 681.38 1960.37C681.345 1959.01 681.568 1957.61 682.047 1956.18C682.908 1953.72 684.242 1951.85 686.05 1950.56C687.857 1949.28 690.048 1948.58 692.622 1948.47C695.183 1948.36 698.049 1948.85 701.218 1949.94C704.473 1951.06 707.147 1952.52 709.24 1954.32C711.322 1956.12 712.689 1958.25 713.34 1960.71C713.975 1963.18 713.759 1965.98 712.691 1969.12L703.037 1965.79C703.371 1964.62 703.417 1963.56 703.174 1962.6C702.931 1961.65 702.416 1960.81 701.628 1960.09C700.828 1959.36 699.782 1958.77 698.49 1958.33C697.405 1957.96 696.451 1957.78 695.627 1957.79C694.803 1957.81 694.12 1957.99 693.579 1958.33C693.037 1958.68 692.655 1959.15 692.433 1959.76C692.247 1960.34 692.264 1960.9 692.482 1961.45C692.685 1962.02 693.135 1962.61 693.834 1963.23C694.529 1963.87 695.519 1964.57 696.803 1965.36L700.256 1967.45C703.323 1969.31 705.524 1971.41 706.858 1973.76C708.175 1976.11 708.324 1978.74 707.303 1981.66C706.496 1984.05 705.145 1985.91 703.252 1987.24C701.342 1988.59 699.075 1989.37 696.451 1989.58C693.815 1989.79 691.016 1989.39 688.054 1988.37C685.031 1987.32 682.591 1985.92 680.733 1984.14C678.876 1982.37 677.667 1980.36 677.107 1978.11C676.531 1975.86 676.659 1973.51 677.491 1971.06L687.218 1974.41Z" fill="#5988FF"/>
<path d="M640.626 1970.09L630.623 1966.14L639.935 1942.53C641.042 1939.73 642.672 1937.56 644.824 1936.04C646.96 1934.53 649.441 1933.68 652.268 1933.51C655.09 1933.35 658.078 1933.89 661.232 1935.13C664.411 1936.39 666.976 1938.04 668.927 1940.08C670.874 1942.14 672.111 1944.45 672.638 1947.01C673.148 1949.59 672.85 1952.27 671.743 1955.08L662.431 1978.69L652.428 1974.74L661.399 1952C661.849 1950.86 661.999 1949.74 661.85 1948.64C661.696 1947.56 661.275 1946.58 660.586 1945.73C659.885 1944.87 658.965 1944.22 657.826 1943.77C656.674 1943.31 655.556 1943.16 654.469 1943.32C653.383 1943.47 652.413 1943.89 651.559 1944.58C650.701 1945.28 650.046 1946.2 649.597 1947.34L640.626 1970.09Z" fill="#5988FF"/>
<path d="M635.871 1925.33L619.739 1961.51L604.125 1954.54C601.44 1953.35 599.327 1951.77 597.786 1949.81C596.245 1947.85 595.343 1945.66 595.08 1943.25C594.818 1940.83 595.259 1938.33 596.404 1935.77C597.559 1933.18 599.136 1931.19 601.136 1929.81C603.123 1928.42 605.382 1927.68 607.911 1927.58C610.429 1927.47 613.065 1928.03 615.821 1929.26L625.147 1933.42L621.744 1941.05L614.396 1937.78C613.242 1937.26 612.17 1937.02 611.179 1937.06C610.171 1937.11 609.281 1937.41 608.509 1937.97C607.725 1938.52 607.105 1939.31 606.648 1940.34C606.186 1941.37 606.016 1942.36 606.138 1943.29C606.243 1944.22 606.621 1945.07 607.272 1945.82C607.906 1946.59 608.8 1947.23 609.954 1947.74L613.416 1949.28L626.051 1920.95L635.871 1925.33Z" fill="#5988FF"/>
<path d="M597.912 1908.14L580.26 1943.6L564.955 1935.98C562.323 1934.67 560.279 1933 558.823 1930.98C557.366 1928.96 556.558 1926.73 556.398 1924.31C556.238 1921.88 556.785 1919.41 558.037 1916.89C559.301 1914.35 560.962 1912.43 563.018 1911.14C565.063 1909.84 567.351 1909.19 569.882 1909.2C572.402 1909.2 575.012 1909.87 577.713 1911.22L586.854 1915.77L583.131 1923.25L575.929 1919.66C574.797 1919.1 573.736 1918.81 572.744 1918.81C571.735 1918.81 570.833 1919.08 570.038 1919.6C569.232 1920.12 568.579 1920.89 568.079 1921.89C567.573 1922.91 567.362 1923.88 567.444 1924.81C567.509 1925.75 567.851 1926.62 568.469 1927.4C569.07 1928.19 569.936 1928.86 571.067 1929.43L574.461 1931.12L588.286 1903.34L597.912 1908.14Z" fill="#5988FF"/>
<path d="M560.712 1889.31L541.664 1924.04L532.236 1918.86L547.118 1891.73L533.077 1884.03L537.244 1876.43L560.712 1889.31Z" fill="#5988FF"/>
<path d="M528.848 1871.61L508.479 1905.58L483.997 1890.9L488.453 1883.47L503.713 1892.62L507.214 1886.78L493.214 1878.38L497.67 1870.95L511.669 1879.35L515.17 1873.51L499.977 1864.4L504.432 1856.96L528.848 1871.61Z" fill="#5988FF"/>
<path d="M458.67 1874.86L447.668 1867.24L452.874 1843.55L452.493 1843.29L432.151 1856.49L421.149 1848.87L443.701 1816.3L452.35 1822.29L439.312 1841.12L439.567 1841.3L459.678 1827.75L464.893 1831.36L459.193 1855.08L459.448 1855.26L472.574 1836.3L481.223 1842.29L458.67 1874.86Z" fill="#5988FF"/>
<path d="M427.255 1803.76L436.43 1810.86L401.846 1834.18L390.223 1825.18L404.132 1785.86L413.308 1792.96L402.589 1820.96L402.834 1821.15L427.255 1803.76ZM419.401 1817.44L402.151 1804.09L407.076 1797.72L424.326 1811.08L419.401 1817.44Z" fill="#5988FF"/>
<path d="M397.474 1780.28L371.82 1810.46L358.794 1799.39C356.554 1797.48 354.97 1795.37 354.042 1793.06C353.114 1790.75 352.863 1788.4 353.291 1786C353.719 1783.61 354.843 1781.34 356.664 1779.2C358.501 1777.03 360.573 1775.57 362.88 1774.81C365.178 1774.04 367.554 1773.96 370.01 1774.57C372.455 1775.18 374.827 1776.46 377.126 1778.42L384.907 1785.03L379.495 1791.4L373.365 1786.19C372.403 1785.37 371.44 1784.84 370.479 1784.59C369.499 1784.35 368.56 1784.39 367.662 1784.71C366.754 1785.02 365.937 1785.61 365.21 1786.46C364.476 1787.33 364.036 1788.22 363.892 1789.15C363.729 1790.08 363.854 1791 364.266 1791.9C364.66 1792.81 365.338 1793.68 366.301 1794.5L369.189 1796.95L389.281 1773.31L397.474 1780.28Z" fill="#5988FF"/>
<path d="M331.712 1758.58C330.912 1759.6 330.584 1760.66 330.727 1761.78C330.861 1762.89 331.566 1764.03 332.843 1765.22C333.657 1765.97 334.416 1766.49 335.12 1766.77C335.806 1767.06 336.426 1767.15 336.978 1767.04C337.531 1766.94 338.009 1766.68 338.413 1766.26C338.756 1765.93 338.988 1765.56 339.109 1765.14C339.211 1764.73 339.207 1764.26 339.095 1763.73C338.975 1763.22 338.748 1762.64 338.413 1761.99C338.078 1761.35 337.631 1760.63 337.071 1759.85L335.16 1757.13C333.867 1755.3 332.907 1753.58 332.279 1751.96C331.651 1750.34 331.323 1748.82 331.295 1747.39C331.259 1745.97 331.504 1744.63 332.031 1743.38C332.548 1742.12 333.314 1740.93 334.33 1739.81C336.109 1737.91 338.084 1736.73 340.257 1736.28C342.429 1735.84 344.715 1736.08 347.114 1737.02C349.504 1737.95 351.929 1739.55 354.388 1741.83C356.914 1744.17 358.773 1746.59 359.963 1749.08C361.145 1751.56 361.537 1754.06 361.141 1756.57C360.727 1759.09 359.399 1761.57 357.157 1764.01L349.664 1757.07C350.441 1756.14 350.91 1755.18 351.074 1754.21C351.237 1753.24 351.104 1752.26 350.674 1751.28C350.234 1750.29 349.513 1749.34 348.51 1748.41C347.668 1747.63 346.867 1747.08 346.107 1746.76C345.346 1746.45 344.649 1746.34 344.014 1746.43C343.379 1746.53 342.838 1746.81 342.39 1747.28C341.988 1747.73 341.775 1748.25 341.753 1748.85C341.712 1749.44 341.886 1750.16 342.274 1751.02C342.654 1751.88 343.274 1752.93 344.133 1754.16L346.45 1757.47C348.506 1760.41 349.673 1763.22 349.949 1765.9C350.208 1768.58 349.281 1771.05 347.169 1773.32C345.47 1775.17 343.485 1776.33 341.213 1776.79C338.922 1777.25 336.533 1777.05 334.046 1776.19C331.549 1775.32 329.151 1773.82 326.852 1771.69C324.505 1769.52 322.84 1767.24 321.854 1764.87C320.869 1762.5 320.574 1760.17 320.97 1757.89C321.347 1755.6 322.411 1753.5 324.163 1751.59L331.712 1758.58Z" fill="#5988FF"/>
<path d="M277.176 1703.37C276.3 1704.32 275.89 1705.36 275.948 1706.48C275.996 1707.6 276.611 1708.79 277.794 1710.07C278.547 1710.88 279.264 1711.46 279.945 1711.8C280.607 1712.13 281.217 1712.27 281.776 1712.21C282.335 1712.15 282.832 1711.93 283.266 1711.54C283.634 1711.24 283.894 1710.88 284.046 1710.48C284.181 1710.07 284.212 1709.6 284.142 1709.07C284.061 1708.55 283.879 1707.95 283.594 1707.28C283.31 1706.62 282.919 1705.87 282.421 1705.05L280.725 1702.19C279.576 1700.27 278.751 1698.47 278.249 1696.81C277.747 1695.15 277.538 1693.6 277.62 1692.18C277.693 1690.75 278.04 1689.44 278.661 1688.23C279.274 1687.01 280.129 1685.89 281.227 1684.85C283.147 1683.09 285.207 1682.07 287.408 1681.79C289.608 1681.51 291.868 1681.93 294.188 1683.05C296.5 1684.16 298.794 1685.95 301.071 1688.41C303.41 1690.94 305.078 1693.49 306.073 1696.06C307.061 1698.63 307.26 1701.15 306.672 1703.63C306.066 1706.1 304.552 1708.47 302.129 1710.73L295.191 1703.24C296.037 1702.37 296.578 1701.45 296.816 1700.5C297.053 1699.54 296.995 1698.56 296.642 1697.55C296.279 1696.53 295.634 1695.52 294.705 1694.52C293.926 1693.67 293.169 1693.07 292.435 1692.69C291.702 1692.32 291.015 1692.15 290.374 1692.2C289.734 1692.25 289.172 1692.49 288.691 1692.92C288.255 1693.34 288.003 1693.84 287.934 1694.43C287.848 1695.02 287.965 1695.76 288.287 1696.64C288.6 1697.53 289.137 1698.62 289.899 1699.92L291.956 1703.39C293.78 1706.48 294.727 1709.37 294.797 1712.07C294.848 1714.76 293.734 1717.15 291.455 1719.25C289.619 1720.96 287.55 1721.97 285.249 1722.25C282.93 1722.54 280.564 1722.15 278.15 1721.1C275.727 1720.04 273.451 1718.36 271.323 1716.06C269.15 1713.72 267.664 1711.32 266.864 1708.88C266.063 1706.44 265.948 1704.1 266.518 1701.85C267.07 1699.6 268.293 1697.59 270.185 1695.82L277.176 1703.37Z" fill="#5988FF"/>
<path d="M238.15 1677.55L231.196 1669.35L250.551 1652.94C252.852 1650.98 255.311 1649.85 257.926 1649.52C260.524 1649.2 263.109 1649.62 265.683 1650.81C268.247 1652 270.626 1653.89 272.818 1656.47C275.028 1659.08 276.51 1661.74 277.264 1664.47C278.009 1667.2 278.008 1669.82 277.261 1672.33C276.497 1674.84 274.964 1677.07 272.663 1679.02L253.308 1695.43L246.354 1687.23L265.001 1671.42C265.935 1670.63 266.596 1669.71 266.983 1668.67C267.361 1667.64 267.448 1666.59 267.244 1665.51C267.032 1664.42 266.529 1663.41 265.737 1662.48C264.937 1661.53 264.022 1660.87 262.992 1660.49C261.962 1660.12 260.908 1660.03 259.83 1660.23C258.742 1660.44 257.731 1660.95 256.797 1661.74L238.15 1677.55Z" fill="#5988FF"/>
<path d="M255.093 1635.85L223.789 1660.12L213.314 1646.61C211.513 1644.29 210.396 1641.9 209.962 1639.44C209.529 1636.99 209.767 1634.64 210.677 1632.38C211.588 1630.12 213.154 1628.13 215.375 1626.41C217.617 1624.67 219.945 1623.67 222.36 1623.4C224.767 1623.11 227.109 1623.52 229.386 1624.63C231.655 1625.73 233.713 1627.47 235.562 1629.85L241.818 1637.92L235.215 1643.04L230.286 1636.68C229.512 1635.68 228.679 1634.97 227.787 1634.53C226.878 1634.1 225.951 1633.94 225.006 1634.07C224.054 1634.19 223.134 1634.59 222.248 1635.28C221.351 1635.97 220.737 1636.76 220.405 1637.64C220.056 1638.51 219.989 1639.44 220.206 1640.41C220.405 1641.38 220.891 1642.37 221.665 1643.37L223.988 1646.36L248.505 1627.35L255.093 1635.85Z" fill="#5988FF"/>
<path d="M229.752 1602.77L197.447 1625.69L187.554 1611.74C185.853 1609.35 184.838 1606.91 184.509 1604.44C184.18 1601.97 184.518 1599.63 185.523 1597.41C186.529 1595.2 188.177 1593.28 190.47 1591.65C192.783 1590.01 195.152 1589.1 197.576 1588.93C199.993 1588.75 202.315 1589.26 204.543 1590.46C206.764 1591.66 208.747 1593.48 210.492 1595.94L216.401 1604.27L209.587 1609.11L204.932 1602.55C204.2 1601.51 203.399 1600.76 202.526 1600.29C201.636 1599.82 200.716 1599.62 199.767 1599.71C198.811 1599.79 197.875 1600.15 196.96 1600.8C196.035 1601.46 195.388 1602.22 195.02 1603.08C194.633 1603.94 194.527 1604.86 194.703 1605.84C194.86 1606.82 195.304 1607.83 196.035 1608.86L198.228 1611.95L223.53 1594L229.752 1602.77Z" fill="#5988FF"/>
<path d="M205.854 1568.6L172.663 1590.22L166.795 1581.21L192.725 1564.32L183.986 1550.9L191.247 1546.17L205.854 1568.6Z" fill="#5988FF"/>
<path d="M186.124 1537.95L152.127 1558.27L137.48 1533.77L144.917 1529.32L154.046 1544.6L159.89 1541.1L151.514 1527.09L158.951 1522.65L167.326 1536.66L173.17 1533.16L164.08 1517.96L171.516 1513.51L186.124 1537.95Z" fill="#5988FF"/>
<path d="M122.73 1507.67L116.63 1495.76L132.405 1477.34L132.193 1476.92L108.028 1478.95L101.929 1467.04L137.186 1448.99L141.98 1458.35L121.598 1468.79L121.739 1469.06L145.865 1466.62L148.756 1472.27L132.53 1490.48L132.671 1490.76L153.191 1480.25L157.986 1489.62L122.73 1507.67Z" fill="#5988FF"/>
<path d="M128.613 1430.16L133.346 1440.76L91.8495 1444.98L85.854 1431.56L116.685 1403.46L121.418 1414.06L98.7478 1433.68L98.874 1433.96L128.613 1430.16ZM115.229 1438.51L106.33 1418.59L113.676 1415.31L122.574 1435.23L115.229 1438.51Z" fill="#5988FF"/>
<path d="M113.448 1395.4L76.5838 1409.89L70.331 1393.97C69.2559 1391.24 68.8552 1388.63 69.1288 1386.15C69.4025 1383.68 70.2933 1381.48 71.8014 1379.57C73.3095 1377.67 75.3715 1376.2 77.9875 1375.17C80.6276 1374.13 83.1447 1373.82 85.5388 1374.24C87.9282 1374.64 90.0599 1375.7 91.9339 1377.4C93.8031 1379.09 95.2894 1381.34 96.3928 1384.15L100.128 1393.65L92.3514 1396.71L89.4089 1389.22C88.9468 1388.04 88.3491 1387.12 87.6157 1386.45C86.8656 1385.78 86.0193 1385.37 85.0768 1385.23C84.1296 1385.07 83.134 1385.2 82.09 1385.61C81.034 1386.03 80.2236 1386.61 79.6588 1387.36C79.0772 1388.1 78.7535 1388.97 78.6876 1389.96C78.6049 1390.95 78.7947 1392.03 79.2568 1393.21L80.6431 1396.74L109.516 1385.39L113.448 1395.4Z" fill="#5988FF"/>
<path d="M65.7281 1345.21C64.5428 1345.73 63.7496 1346.52 63.3485 1347.57C62.9433 1348.61 63.0243 1349.95 63.5916 1351.6C63.953 1352.64 64.3773 1353.46 64.8644 1354.04C65.3351 1354.62 65.8384 1354.99 66.3743 1355.16C66.9102 1355.33 67.4545 1355.32 68.0072 1355.15C68.4666 1355.02 68.8476 1354.8 69.1503 1354.49C69.4365 1354.17 69.6545 1353.75 69.8041 1353.24C69.9416 1352.73 70.0148 1352.11 70.0237 1351.38C70.0326 1350.66 69.975 1349.82 69.8511 1348.86L69.4503 1345.57C69.1748 1343.34 69.1423 1341.37 69.353 1339.65C69.5637 1337.92 69.9948 1336.42 70.6464 1335.15C71.2858 1333.88 72.1332 1332.82 73.1887 1331.96C74.2399 1331.09 75.4765 1330.41 76.8985 1329.9C79.365 1329.07 81.6615 1328.96 83.7883 1329.59C85.915 1330.23 87.8141 1331.52 89.4856 1333.48C91.1528 1335.43 92.5327 1337.99 93.6253 1341.16C94.7474 1344.41 95.245 1347.42 95.1183 1350.18C94.9874 1352.92 94.1536 1355.31 92.6168 1357.34C91.0636 1359.36 88.7227 1360.92 85.5943 1362.01L82.2661 1352.36C83.3908 1351.9 84.2551 1351.28 84.8587 1350.5C85.4623 1349.72 85.8055 1348.8 85.8884 1347.73C85.9671 1346.66 85.7837 1345.47 85.3383 1344.18C84.9643 1343.09 84.5171 1342.23 83.9968 1341.59C83.4765 1340.95 82.9135 1340.53 82.3079 1340.31C81.7022 1340.1 81.0925 1340.09 80.4789 1340.29C79.9102 1340.5 79.4755 1340.86 79.175 1341.37C78.858 1341.88 78.6697 1342.6 78.6099 1343.53C78.538 1344.47 78.5892 1345.69 78.7635 1347.18L79.2449 1351.19C79.6688 1354.75 79.3695 1357.78 78.3472 1360.28C77.3084 1362.76 75.3242 1364.5 72.3945 1365.5C70.0218 1366.33 67.725 1366.42 65.5041 1365.75C63.2669 1365.07 61.2555 1363.77 59.4702 1361.83C57.6806 1359.89 56.2753 1357.43 55.2541 1354.47C54.2119 1351.45 53.8164 1348.66 54.0675 1346.1C54.3186 1343.55 55.1585 1341.35 56.5873 1339.53C57.9997 1337.69 59.9288 1336.34 62.3746 1335.48L65.7281 1345.21Z" fill="#5988FF"/>
<path d="M43.7287 1270.79C42.5071 1271.21 41.6559 1271.93 41.1753 1272.95C40.6913 1273.96 40.669 1275.3 41.1082 1276.99C41.388 1278.06 41.7484 1278.91 42.1893 1279.52C42.6145 1280.13 43.0878 1280.54 43.609 1280.75C44.1303 1280.96 44.6733 1281 45.2379 1280.87C45.7061 1280.77 46.1029 1280.58 46.4283 1280.3C46.7381 1280 46.9874 1279.61 47.1762 1279.1C47.3525 1278.6 47.473 1277.99 47.5376 1277.27C47.6022 1276.55 47.6093 1275.7 47.559 1274.75L47.4128 1271.43C47.3088 1269.19 47.4281 1267.22 47.7705 1265.52C48.1129 1263.81 48.6579 1262.35 49.4054 1261.13C50.1405 1259.91 51.0671 1258.92 52.1851 1258.15C53.2999 1257.36 54.5855 1256.77 56.0419 1256.38C58.5654 1255.74 60.8631 1255.81 62.9351 1256.6C65.0071 1257.39 66.8011 1258.83 68.317 1260.92C69.8297 1262.99 71.0089 1265.64 71.8549 1268.89C72.7236 1272.22 72.9888 1275.26 72.6507 1278C72.3092 1280.72 71.2944 1283.04 69.6062 1284.95C67.9023 1286.84 65.4488 1288.22 62.2457 1289.07L59.6689 1279.18C60.8254 1278.81 61.7345 1278.26 62.3963 1277.53C63.0582 1276.8 63.4713 1275.91 63.6357 1274.85C63.7969 1273.78 63.7051 1272.59 63.3602 1271.26C63.0707 1270.15 62.691 1269.26 62.2213 1268.58C61.7517 1267.91 61.2231 1267.44 60.6357 1267.18C60.0482 1266.92 59.441 1266.86 58.8139 1267.01C58.2308 1267.18 57.7697 1267.5 57.4307 1267.99C57.0759 1268.47 56.8328 1269.18 56.7015 1270.1C56.5576 1271.03 56.5152 1272.25 56.5742 1273.75L56.7464 1277.79C56.8952 1281.37 56.3642 1284.37 55.1533 1286.78C53.9267 1289.18 51.8146 1290.76 48.8171 1291.53C46.3875 1292.17 44.0911 1292.08 41.928 1291.25C39.7491 1290.4 37.8439 1288.95 36.2125 1286.88C34.5778 1284.8 33.3651 1282.25 32.5745 1279.21C31.7676 1276.12 31.5875 1273.31 32.0342 1270.78C32.4808 1268.25 33.4866 1266.13 35.0517 1264.41C36.601 1262.69 38.6279 1261.5 41.1323 1260.83L43.7287 1270.79Z" fill="#5988FF"/>
<path d="M21.5212 1229.6L19.2655 1219.08L44.0751 1213.76C47.025 1213.12 49.7293 1213.28 52.1879 1214.23C54.6312 1215.17 56.7082 1216.77 58.4189 1219.03C60.1169 1221.29 61.3216 1224.08 62.033 1227.39C62.7498 1230.73 62.7974 1233.78 62.1758 1236.54C61.5417 1239.3 60.3031 1241.61 58.4603 1243.47C56.6021 1245.32 54.198 1246.56 51.2481 1247.19L26.4385 1252.52L24.1827 1242L48.0846 1236.87C49.2823 1236.62 50.297 1236.12 51.1289 1235.39C51.9482 1234.66 52.5225 1233.77 52.8518 1232.73C53.1784 1231.67 53.2133 1230.54 52.9563 1229.34C52.6967 1228.13 52.202 1227.11 51.4724 1226.3C50.7428 1225.48 49.8547 1224.9 48.8082 1224.57C47.7491 1224.25 46.6208 1224.21 45.4232 1224.47L21.5212 1229.6Z" fill="#5988FF"/>
<path d="M56.145 1200.84L17.0915 1207.45L14.2395 1190.59C13.7491 1187.69 13.8921 1185.06 14.6684 1182.69C15.4448 1180.33 16.7669 1178.36 18.6348 1176.8C20.5026 1175.25 22.8222 1174.23 25.5936 1173.76C28.3904 1173.29 30.9176 1173.5 33.1751 1174.4C35.4305 1175.29 37.3004 1176.76 38.785 1178.81C40.2674 1180.85 41.2602 1183.35 41.7635 1186.33L43.467 1196.4L35.2291 1197.79L33.887 1189.86C33.6762 1188.61 33.2805 1187.59 32.6999 1186.78C32.1044 1185.97 31.36 1185.4 30.4668 1185.06C29.5715 1184.72 28.5708 1184.64 27.4648 1184.82C26.3461 1185.01 25.4335 1185.42 24.727 1186.03C24.0057 1186.64 23.5106 1187.42 23.2416 1188.38C22.9578 1189.33 22.9213 1190.43 23.132 1191.68L23.7644 1195.42L54.3512 1190.24L56.145 1200.84Z" fill="#5988FF"/>
<path d="M49.4297 1159.71L10.1311 1164.66L7.99662 1147.69C7.62961 1144.78 7.88413 1142.15 8.7602 1139.82C9.63626 1137.49 11.0404 1135.58 12.9727 1134.1C14.9049 1132.63 17.2654 1131.71 20.0542 1131.36C22.8686 1131.01 25.3844 1131.33 27.6018 1132.32C29.8175 1133.3 31.6235 1134.85 33.0198 1136.96C34.4144 1139.06 35.3001 1141.61 35.6768 1144.6L36.9517 1154.73L28.6621 1155.78L27.6576 1147.79C27.4999 1146.54 27.148 1145.5 26.602 1144.67C26.0416 1143.83 25.3222 1143.23 24.4439 1142.86C23.564 1142.47 22.5676 1142.35 21.4547 1142.49C20.3289 1142.63 19.4001 1143 18.6681 1143.58C17.9217 1144.16 17.3938 1144.92 17.0844 1145.87C16.7605 1146.81 16.6774 1147.9 16.8352 1149.16L17.3084 1152.92L48.0872 1149.04L49.4297 1159.71Z" fill="#5988FF"/>
<path d="M44.5003 1118.31L5.03615 1121.69L4.11892 1110.97L34.9503 1108.33L33.5844 1092.38L42.2171 1091.64L44.5003 1118.31Z" fill="#5988FF"/>
<path d="M41.5829 1081.97L2.01803 1083.83L0.678121 1055.31L9.33294 1054.91L10.1681 1072.68L16.9683 1072.36L16.2021 1056.06L24.857 1055.65L25.6231 1071.96L32.4233 1071.64L31.5918 1053.94L40.2466 1053.53L41.5829 1081.97Z" fill="#5988FF"/>
<path d="M0 1025.34L0.249835 1011.96L22.8523 1003.17L22.861 1002.71L0.602203 993.083L0.852038 979.701L40.4537 980.44L40.2573 990.961L17.3626 990.533L17.3568 990.842L39.7775 1000.08L39.659 1006.43L16.7544 1014.82L16.7486 1015.13L39.798 1015.56L39.6016 1026.08L0 1025.34Z" fill="#5988FF"/>
<path d="M41.7863 959.798L40.955 971.374L2.38482 955.494L3.43778 940.832L43.8811 930.628L43.0498 942.203L13.8022 948.79L13.78 949.099L41.7863 959.798ZM26.0445 960.839L27.6073 939.077L35.6321 939.654L34.0693 961.416L26.0445 960.839Z" fill="#5988FF"/>
<path d="M44.8351 921.994L5.49939 917.353L7.50256 900.372C7.847 897.453 8.72459 894.966 10.1353 892.912C11.5461 890.858 13.3668 889.346 15.5974 888.376C17.8281 887.405 20.3391 887.085 23.1305 887.414C25.9475 887.747 28.3128 888.662 30.2263 890.16C32.1413 891.646 33.5228 893.581 34.371 895.966C35.2206 898.339 35.4687 901.023 35.1152 904.02L33.9187 914.162L25.6213 913.183L26.564 905.192C26.712 903.937 26.6205 902.842 26.2894 901.907C25.947 900.958 25.394 900.198 24.6304 899.628C23.8683 899.044 22.9302 898.687 21.8162 898.555C20.6894 898.423 19.7004 898.552 18.8491 898.945C17.9865 899.324 17.2911 899.937 16.7628 900.783C16.2232 901.616 15.8794 902.659 15.7313 903.914L15.2872 907.679L46.095 911.314L44.8351 921.994Z" fill="#5988FF"/>
<path d="M26.4705 855.218C25.1812 855.115 24.1114 855.432 23.2611 856.17C22.4128 856.895 21.8501 858.117 21.573 859.836C21.3965 860.931 21.3855 861.85 21.5399 862.593C21.6837 863.321 21.9516 863.887 22.3438 864.29C22.7359 864.693 23.2174 864.947 23.7881 865.052C24.255 865.153 24.6948 865.139 25.1074 865.01C25.5094 864.866 25.898 864.602 26.2733 864.218C26.6358 863.833 26.9924 863.322 27.3431 862.686C27.6937 862.05 28.0394 861.283 28.3801 860.385L29.5847 857.288C30.3919 855.197 31.2951 853.443 32.2945 852.023C33.2938 850.604 34.3817 849.486 35.558 848.67C36.7216 847.852 37.9705 847.316 39.3045 847.06C40.6406 846.793 42.0544 846.772 43.5457 847C46.1149 847.427 48.1879 848.421 49.7648 849.982C51.3416 851.542 52.4037 853.581 52.9512 856.099C53.5007 858.604 53.5087 861.511 52.9751 864.821C52.4271 868.22 51.4461 871.105 50.0321 873.476C48.6201 875.835 46.7574 877.546 44.4441 878.61C42.1201 879.659 39.3214 879.926 36.048 879.411L37.6735 869.328C38.8803 869.458 39.9341 869.321 40.835 868.917C41.7358 868.514 42.4743 867.863 43.0503 866.963C43.6284 866.05 44.0262 864.919 44.2438 863.57C44.4265 862.437 44.4393 861.466 44.2824 860.657C44.1255 859.848 43.8307 859.206 43.3979 858.731C42.9651 858.257 42.4315 857.962 41.7971 857.846C41.1968 857.763 40.6431 857.876 40.136 858.186C39.6182 858.481 39.1124 859.026 38.6185 859.822C38.1118 860.615 37.5824 861.712 37.0302 863.112L35.562 866.872C34.2528 870.214 32.5587 872.742 30.4799 874.457C28.3904 876.158 25.8192 876.756 22.7663 876.25C20.2821 875.863 18.2185 874.851 16.5756 873.214C14.922 871.563 13.7652 869.463 13.1052 866.914C12.4473 864.353 12.3677 861.525 12.8664 858.432C13.3754 855.275 14.3439 852.629 15.7719 850.495C17.1998 848.361 18.9754 846.826 21.0987 845.888C23.2112 844.936 25.5478 844.659 28.1083 845.059L26.4705 855.218Z" fill="#5988FF"/>
<path d="M42.2232 779.225C40.9456 779.023 39.8546 779.257 38.9501 779.928C38.0486 780.586 37.3937 781.761 36.9854 783.453C36.7254 784.531 36.6438 785.446 36.7407 786.199C36.828 786.937 37.0517 787.521 37.4118 787.953C37.7718 788.385 38.2324 788.675 38.7934 788.824C39.2511 788.961 39.6906 788.981 40.112 788.883C40.5238 788.771 40.9316 788.537 41.3352 788.184C41.7263 787.827 42.1211 787.345 42.5195 786.738C42.9179 786.131 43.3215 785.393 43.7303 784.523L45.1692 781.528C46.1345 779.506 47.1698 777.826 48.2753 776.487C49.3807 775.149 50.5511 774.118 51.7867 773.395C53.0097 772.669 54.2961 772.23 55.6458 772.078C56.9985 771.913 58.4096 772.002 59.8791 772.343C62.4079 772.967 64.3984 774.117 65.8508 775.794C67.3031 777.471 68.2055 779.585 68.5579 782.138C68.9134 784.678 68.698 787.577 67.9118 790.836C67.1043 794.183 65.9046 796.984 64.3126 799.24C62.7237 801.483 60.7351 803.046 58.347 803.929C55.9493 804.796 53.1383 804.847 49.9141 804.082L52.3092 794.155C53.5025 794.376 54.5638 794.321 55.4929 793.988C56.4221 793.655 57.2084 793.062 57.8519 792.209C58.4983 791.344 58.9818 790.247 59.3024 788.918C59.5716 787.802 59.659 786.835 59.5647 786.016C59.4704 785.198 59.2257 784.535 58.8306 784.029C58.4356 783.522 57.9262 783.187 57.3025 783.023C56.7104 782.894 56.1497 782.964 55.6203 783.234C55.0814 783.489 54.5351 783.994 53.9816 784.749C53.4155 785.501 52.8034 786.554 52.1453 787.907L50.3927 791.543C48.8306 794.774 46.9474 797.165 44.7429 798.716C42.529 800.251 39.9195 800.649 36.9144 799.911C34.4673 799.334 32.4875 798.166 30.9752 796.408C29.4532 794.635 28.4612 792.452 27.9989 789.86C27.5397 787.256 27.6775 784.43 28.4124 781.384C29.1624 778.276 30.3312 775.712 31.9188 773.694C33.5065 771.677 35.3948 770.282 37.5838 769.51C39.7632 768.723 42.1141 768.627 44.6364 769.222L42.2232 779.225Z" fill="#5988FF"/>
<path d="M42.0982 732.427L45.0751 722.093L69.4576 729.118C72.3567 729.954 74.6657 731.37 76.3846 733.369C78.0946 735.351 79.1705 737.741 79.6124 740.539C80.0419 743.333 79.7873 746.359 78.8486 749.618C77.9027 752.902 76.5047 755.612 74.6545 757.75C72.792 759.883 70.6095 761.335 68.1071 762.103C65.5958 762.856 62.8907 762.814 59.9915 761.979L35.609 754.954L38.5859 744.62L62.0764 751.388C63.2534 751.727 64.3814 751.77 65.4606 751.518C66.5273 751.261 67.4529 750.75 68.2374 749.983C69.0255 749.203 69.5891 748.225 69.9281 747.048C70.2708 745.858 70.314 744.73 70.0578 743.663C69.8016 742.597 69.29 741.671 68.5231 740.886C67.7438 740.098 66.7657 739.534 65.5887 739.195L42.0982 732.427Z" fill="#5988FF"/>
<path d="M86.194 723.436L48.6496 710.816L54.0966 694.608C55.0332 691.821 56.4027 689.568 58.2051 687.847C60.0074 686.127 62.0998 685.021 64.4822 684.529C66.8645 684.038 69.3878 684.24 72.0521 685.136C74.7408 686.039 76.8678 687.421 78.4328 689.28C80.002 691.127 80.9568 693.305 81.2971 695.814C81.6415 698.31 81.3331 700.988 80.3718 703.849L77.1184 713.529L69.1989 710.867L71.7622 703.24C72.1647 702.042 72.3 700.952 72.1679 699.969C72.0277 698.969 71.6425 698.112 71.0123 697.397C70.3862 696.669 69.5415 696.127 68.4783 695.769C67.4028 695.408 66.4081 695.332 65.4943 695.542C64.5723 695.735 63.7659 696.192 63.0751 696.912C62.3761 697.616 61.8253 698.566 61.4228 699.764L60.2151 703.358L89.62 713.242L86.194 723.436Z" fill="#5988FF"/>
<path d="M99.6972 684.011L62.7217 669.809L68.8512 653.847C69.9051 651.102 71.3689 648.909 73.2426 647.266C75.1163 645.624 77.2537 644.608 79.6548 644.218C82.0558 643.828 84.5683 644.137 87.1922 645.144C89.8402 646.161 91.9066 647.632 93.3915 649.556C94.8809 651.468 95.7424 653.684 95.976 656.205C96.2143 658.714 95.7925 661.377 94.7109 664.194L91.0499 673.727L83.2503 670.732L86.1348 663.22C86.5878 662.04 86.7691 660.957 86.6789 659.969C86.5812 658.965 86.2327 658.092 85.6334 657.35C85.0387 656.597 84.2178 656.019 83.1706 655.617C82.1115 655.21 81.1209 655.092 80.199 655.263C79.2697 655.417 78.4446 655.839 77.7239 656.529C76.9957 657.203 76.4051 658.129 75.9521 659.309L74.5931 662.848L103.552 673.971L99.6972 684.011Z" fill="#5988FF"/>
<path d="M114.905 645.186L78.5229 629.525L82.7741 619.646L111.197 631.882L117.528 617.171L125.487 620.597L114.905 645.186Z" fill="#5988FF"/>
<path d="M129.492 611.779L93.739 594.731L106.024 568.96L113.845 572.69L106.188 588.752L112.333 591.683L119.358 576.947L127.178 580.676L120.154 595.412L126.299 598.342L133.923 582.349L141.744 586.078L129.492 611.779Z" fill="#5988FF"/>
<path d="M119.58 542.22L126.119 530.542L150.192 533.473L150.418 533.068L135.343 514.071L141.882 502.393L176.44 521.749L171.299 530.93L151.321 519.739L151.169 520.01L166.569 538.744L163.469 544.279L139.316 540.86L139.165 541.13L159.279 552.396L154.138 561.576L119.58 542.22Z" fill="#5988FF"/>
<path d="M187.363 504.183L181.164 513.993L154.664 481.779L162.516 469.352L202.984 479.46L196.785 489.27L167.894 481.262L167.729 481.524L187.363 504.183ZM172.995 497.665L184.649 479.221L191.45 483.52L179.797 501.964L172.995 497.665Z" fill="#5988FF"/>
<path d="M207.9 472.3L175.419 449.63L185.203 435.609C186.886 433.198 188.834 431.42 191.047 430.276C193.26 429.132 195.579 428.659 198.004 428.857C200.428 429.056 202.793 429.959 205.098 431.568C207.424 433.192 209.076 435.115 210.056 437.34C211.042 439.554 211.346 441.912 210.967 444.415C210.596 446.908 209.547 449.391 207.82 451.866L201.976 460.241L195.125 455.459L199.729 448.86C200.452 447.824 200.889 446.816 201.038 445.835C201.185 444.837 201.056 443.906 200.653 443.042C200.256 442.168 199.598 441.41 198.678 440.768C197.748 440.118 196.815 439.766 195.879 439.71C194.94 439.636 194.037 439.848 193.172 440.345C192.303 440.823 191.507 441.581 190.784 442.617L188.615 445.726L214.054 463.481L207.9 472.3Z" fill="#5988FF"/>
<path d="M223.246 404.767C222.158 404.066 221.065 403.841 219.967 404.09C218.877 404.328 217.804 405.14 216.748 406.524C216.076 407.405 215.632 408.21 215.417 408.938C215.2 409.648 215.169 410.274 215.324 410.814C215.48 411.354 215.784 411.805 216.238 412.168C216.601 412.477 216.995 412.673 217.42 412.754C217.843 412.816 218.31 412.767 218.822 412.607C219.323 412.438 219.879 412.156 220.488 411.761C221.097 411.367 221.764 410.854 222.489 410.223L225.013 408.062C226.712 406.6 228.337 405.48 229.888 404.701C231.439 403.922 232.925 403.451 234.348 403.287C235.76 403.116 237.114 403.232 238.41 403.638C239.714 404.033 240.97 404.683 242.177 405.587C244.24 407.178 245.598 409.033 246.251 411.153C246.904 413.273 246.878 415.572 246.171 418.05C245.473 420.518 244.107 423.084 242.074 425.75C239.986 428.487 237.758 430.567 235.392 431.989C233.034 433.401 230.584 434.029 228.043 433.874C225.499 433.701 222.906 432.615 220.264 430.615L226.458 422.496C227.46 423.179 228.454 423.556 229.438 423.626C230.423 423.696 231.381 423.471 232.314 422.95C233.255 422.419 234.139 421.61 234.968 420.523C235.664 419.61 236.134 418.761 236.378 417.973C236.622 417.186 236.665 416.481 236.507 415.858C236.35 415.236 236.019 414.723 235.514 414.322C235.025 413.965 234.483 413.803 233.89 413.837C233.294 413.853 232.59 414.094 231.78 414.562C230.958 415.022 229.974 415.739 228.826 416.712L225.756 419.333C223.024 421.66 220.337 423.089 217.695 423.619C215.05 424.131 212.501 423.443 210.049 421.556C208.042 420.041 206.701 418.175 206.026 415.956C205.348 413.72 205.32 411.322 205.941 408.764C206.571 406.195 207.836 403.665 209.737 401.174C211.676 398.631 213.779 396.757 216.045 395.55C218.312 394.344 220.602 393.829 222.916 394.005C225.228 394.164 227.418 395.024 229.486 396.585L223.246 404.767Z" fill="#5988FF"/>
<path d="M273.015 345.221C271.984 344.44 270.912 344.131 269.798 344.295C268.693 344.449 267.561 345.175 266.402 346.474C265.664 347.302 265.159 348.07 264.889 348.779C264.618 349.471 264.539 350.092 264.653 350.642C264.766 351.193 265.035 351.666 265.459 352.062C265.798 352.399 266.176 352.624 266.594 352.737C267.01 352.832 267.479 352.819 268.002 352.698C268.515 352.569 269.091 352.331 269.729 351.984C270.366 351.637 271.071 351.177 271.842 350.603L274.525 348.643C276.33 347.316 278.036 346.324 279.643 345.666C281.249 345.009 282.767 344.653 284.198 344.599C285.619 344.537 286.96 344.757 288.222 345.261C289.492 345.755 290.694 346.499 291.828 347.494C293.762 349.238 294.974 351.192 295.462 353.356C295.95 355.52 295.747 357.811 294.853 360.227C293.967 362.633 292.408 365.087 290.176 367.589C287.884 370.158 285.503 372.06 283.035 373.297C280.575 374.523 278.084 374.962 275.562 374.612C273.039 374.244 270.538 372.961 268.057 370.764L274.856 363.145C275.803 363.904 276.765 364.356 277.741 364.501C278.717 364.647 279.69 364.495 280.66 364.048C281.639 363.59 282.583 362.851 283.493 361.832C284.257 360.975 284.791 360.164 285.094 359.398C285.398 358.632 285.495 357.932 285.386 357.299C285.277 356.666 284.986 356.13 284.514 355.691C284.053 355.297 283.525 355.094 282.931 355.083C282.336 355.053 281.616 355.24 280.771 355.644C279.917 356.039 278.881 356.678 277.661 357.56L274.4 359.938C271.497 362.048 268.708 363.266 266.033 363.592C263.356 363.899 260.868 363.018 258.568 360.947C256.683 359.283 255.49 357.319 254.986 355.055C254.482 352.773 254.639 350.38 255.455 347.877C256.28 345.365 257.736 342.939 259.822 340.601C261.951 338.215 264.192 336.508 266.544 335.479C268.896 334.451 271.219 334.113 273.513 334.467C275.806 334.802 277.924 335.828 279.866 337.544L273.015 345.221Z" fill="#5988FF"/>
<path d="M295.002 303.912L302.506 296.209L320.681 313.917C322.842 316.023 324.208 318.362 324.78 320.936C325.351 323.49 325.171 326.105 324.239 328.78C323.298 331.446 321.645 333.994 319.279 336.423C316.894 338.87 314.382 340.599 311.742 341.609C309.093 342.61 306.484 342.859 303.915 342.354C301.346 341.831 298.981 340.517 296.82 338.412L278.645 320.703L286.149 313L303.659 330.061C304.536 330.916 305.51 331.487 306.581 331.774C307.642 332.051 308.699 332.038 309.753 331.732C310.816 331.417 311.774 330.821 312.629 329.944C313.493 329.057 314.064 328.083 314.342 327.022C314.62 325.96 314.606 324.903 314.3 323.849C313.986 322.786 313.39 321.827 312.512 320.972L295.002 303.912Z" fill="#5988FF"/>
<path d="M338.117 316.814L310.983 287.957L323.437 276.243C325.579 274.229 327.85 272.89 330.251 272.224C332.652 271.559 335.019 271.573 337.351 272.265C339.683 272.957 341.812 274.327 343.737 276.374C345.681 278.441 346.903 280.663 347.405 283.041C347.916 285.411 347.729 287.781 346.844 290.153C345.969 292.516 344.432 294.732 342.234 296.799L334.795 303.795L329.072 297.708L334.933 292.196C335.853 291.33 336.487 290.433 336.835 289.504C337.184 288.557 337.249 287.619 337.031 286.691C336.823 285.754 336.334 284.877 335.566 284.06C334.789 283.233 333.948 282.696 333.043 282.45C332.139 282.185 331.213 282.206 330.264 282.515C329.315 282.805 328.381 283.383 327.46 284.249L324.699 286.846L345.951 309.447L338.117 316.814Z" fill="#5988FF"/>
<path d="M368.637 288.439L342.751 258.456L355.691 247.282C357.916 245.36 360.242 244.118 362.669 243.555C365.096 242.993 367.46 243.106 369.761 243.897C372.061 244.687 374.13 246.146 375.967 248.274C377.821 250.421 378.948 252.693 379.348 255.09C379.758 257.479 379.471 259.84 378.487 262.172C377.512 264.496 375.883 266.644 373.599 268.616L365.87 275.29L360.41 268.966L366.499 263.707C367.456 262.881 368.127 262.012 368.514 261.098C368.902 260.167 369.007 259.233 368.829 258.296C368.661 257.352 368.21 256.455 367.477 255.605C366.735 254.747 365.918 254.175 365.025 253.89C364.133 253.587 363.206 253.569 362.245 253.837C361.285 254.087 360.327 254.624 359.371 255.45L356.501 257.928L376.776 281.41L368.637 288.439Z" fill="#5988FF"/>
<path d="M400.375 261.398L375.701 230.41L384.113 223.711L403.389 247.92L415.916 237.943L421.313 244.722L400.375 261.398Z" fill="#5988FF"/>
<path d="M429.009 238.841L405.544 206.928L428.542 190.015L433.675 196.996L419.34 207.538L423.373 213.023L436.523 203.352L441.656 210.333L428.506 220.004L432.539 225.489L446.811 214.993L451.944 221.974L429.009 238.841Z" fill="#5988FF"/>
<path d="M453.117 172.847L464.396 165.642L484.231 179.594L484.622 179.344L480.304 155.479L491.583 148.274L512.904 181.658L504.038 187.322L491.711 168.022L491.45 168.189L496.178 191.976L490.832 195.391L471.157 180.969L470.896 181.136L483.305 200.566L474.439 206.231L453.117 172.847Z" fill="#5988FF"/>
<path d="M530.826 171.333L520.73 177.053L512.583 136.141L525.372 128.896L556.27 156.919L546.173 162.639L524.488 141.934L524.219 142.087L530.826 171.333ZM521.239 158.802L540.221 148.049L544.187 155.05L525.205 165.804L521.239 158.802Z" fill="#5988FF"/>
<path d="M563.985 152.931L546.059 117.607L561.305 109.869C563.926 108.538 566.483 107.892 568.974 107.928C571.465 107.965 573.732 108.644 575.776 109.964C577.819 111.284 579.477 113.197 580.749 115.704C582.033 118.233 582.581 120.71 582.394 123.133C582.218 125.55 581.372 127.773 579.856 129.8C578.352 131.822 576.255 133.516 573.564 134.881L564.458 139.503L560.677 132.052L567.851 128.41C568.978 127.838 569.839 127.156 570.434 126.362C571.034 125.551 571.361 124.67 571.413 123.718C571.476 122.76 571.254 121.781 570.746 120.781C570.233 119.769 569.577 119.017 568.778 118.526C567.985 118.018 567.09 117.778 566.092 117.807C565.101 117.819 564.042 118.111 562.915 118.683L559.535 120.398L573.574 148.064L563.985 152.931Z" fill="#5988FF"/>
<path d="M609.4 100.649C608.772 99.5186 607.915 98.8036 606.83 98.5043C605.756 98.1998 604.427 98.4081 602.843 99.1294C601.834 99.5889 601.063 100.089 600.53 100.629C600.003 101.152 599.68 101.689 599.562 102.239C599.444 102.788 599.499 103.33 599.728 103.863C599.902 104.308 600.157 104.667 600.494 104.938C600.836 105.193 601.271 105.371 601.799 105.471C602.32 105.559 602.943 105.573 603.666 105.513C604.39 105.453 605.22 105.316 606.157 105.102L609.402 104.389C611.59 103.903 613.551 103.683 615.286 103.729C617.021 103.775 618.554 104.062 619.885 104.589C621.21 105.105 622.349 105.847 623.3 106.817C624.263 107.781 625.063 108.947 625.7 110.315C626.767 112.691 627.088 114.967 626.663 117.145C626.237 119.322 625.128 121.336 623.336 123.186C621.555 125.032 619.139 126.649 616.088 128.038C612.955 129.464 610.01 130.246 607.252 130.382C604.507 130.513 602.051 129.91 599.884 128.573C597.723 127.219 595.951 125.036 594.566 122.026L603.86 117.794C604.42 118.87 605.118 119.672 605.953 120.199C606.788 120.725 607.739 120.979 608.807 120.96C609.887 120.936 611.049 120.641 612.293 120.075C613.337 119.599 614.153 119.072 614.739 118.493C615.326 117.915 615.697 117.313 615.852 116.69C616.008 116.067 615.958 115.459 615.702 114.867C615.439 114.321 615.038 113.922 614.499 113.672C613.967 113.404 613.233 113.285 612.297 113.315C611.356 113.332 610.149 113.499 608.678 113.815L604.735 114.675C601.228 115.436 598.185 115.426 595.605 114.645C593.032 113.848 591.11 112.038 589.839 109.216C588.786 106.933 588.485 104.654 588.937 102.379C589.396 100.088 590.503 97.9614 592.26 95.9999C594.028 94.0331 596.337 92.4005 599.189 91.1021C602.099 89.7771 604.838 89.118 607.405 89.125C609.973 89.132 612.235 89.7598 614.191 91.0083C616.154 92.2397 617.679 94.0322 618.764 96.3857L609.4 100.649Z" fill="#5988FF"/>
<path d="M681.388 71.67C680.848 70.4943 680.049 69.7155 678.99 69.3338C677.943 68.9477 676.602 69.0533 674.967 69.6508C673.925 70.0314 673.118 70.4706 672.545 70.9683C671.979 71.4495 671.617 71.9596 671.457 72.4986C671.297 73.0376 671.31 73.5818 671.497 74.1312C671.637 74.5882 671.864 74.9652 672.178 75.2622C672.5 75.5426 672.92 75.7529 673.438 75.8931C673.952 76.0212 674.571 76.083 675.297 76.0786C676.023 76.0741 676.861 76.0012 677.812 75.8598L681.103 75.3986C683.321 75.0822 685.293 75.0136 687.019 75.1927C688.746 75.3717 690.252 75.7753 691.539 76.4035C692.821 77.0195 693.899 77.8474 694.773 78.8871C695.659 79.9224 696.367 81.1464 696.897 82.559C697.779 85.01 697.924 87.3046 697.332 89.4427C696.741 91.5809 695.48 93.5037 693.551 95.211C691.634 96.9139 689.101 98.3407 685.952 99.4914C682.719 100.673 679.722 101.226 676.963 101.15C674.215 101.069 671.812 100.279 669.755 98.7797C667.704 97.2637 666.105 94.9516 664.955 91.8433L674.547 88.3382C675.023 89.4545 675.657 90.3073 676.449 90.8966C677.241 91.4859 678.17 91.8122 679.237 91.8755C680.315 91.9344 681.496 91.7293 682.78 91.2602C683.858 90.8663 684.711 90.4033 685.34 89.8713C685.97 89.3393 686.386 88.7686 686.589 88.159C686.791 87.5495 686.788 86.9397 686.579 86.3297C686.359 85.7649 685.99 85.3369 685.472 85.0458C684.961 84.7381 684.238 84.563 683.303 84.5204C682.363 84.4656 681.148 84.5392 679.657 84.7409L675.659 85.2958C672.104 85.785 669.07 85.5413 666.558 84.5647C664.054 83.5716 662.277 81.6195 661.227 78.7083C660.352 76.351 660.227 74.0558 660.853 71.8228C661.486 69.5733 662.753 67.5381 664.655 65.7174C666.569 63.8922 668.997 62.4419 671.94 61.3665C674.943 60.2689 677.725 59.8222 680.284 60.0264C682.843 60.2306 685.05 61.0303 686.905 62.4254C688.768 63.804 690.15 65.7083 691.052 68.1383L681.388 71.67Z" fill="#5988FF"/>
<path d="M720.276 45.6433L730.528 42.3976L738.186 66.5913C739.097 69.4679 739.196 72.1753 738.485 74.7134C737.782 77.2353 736.389 79.4551 734.304 81.3729C732.216 83.2783 729.556 84.7428 726.323 85.7663C723.065 86.7977 720.035 87.135 717.231 86.7785C714.423 86.4096 712.006 85.3963 709.98 83.7383C707.962 82.0642 706.498 79.7888 705.587 76.9121L697.929 52.7184L708.181 49.4727L715.559 72.7813C715.929 73.9492 716.518 74.9124 717.326 75.671C718.13 76.4172 719.068 76.9046 720.142 77.1329C721.227 77.3573 722.353 77.2847 723.521 76.915C724.701 76.5414 725.664 75.9524 726.41 75.1481C727.157 74.3438 727.644 73.405 727.872 72.3319C728.097 71.2464 728.024 70.1197 727.654 68.9518L720.276 45.6433Z" fill="#5988FF"/>
<path d="M752.186 77.3796L741.895 39.1271L758.405 34.6846C761.244 33.9207 763.878 33.8126 766.309 34.3604C768.739 34.9082 770.819 36.0377 772.548 37.7491C774.277 39.4605 775.506 41.6735 776.237 44.388C776.974 47.1275 777.002 49.6637 776.321 51.9968C775.652 54.3266 774.368 56.328 772.468 58.0009C770.581 59.6706 768.181 60.8974 765.267 61.6814L755.406 64.3348L753.236 56.266L761.005 54.1753C762.225 53.847 763.208 53.3556 763.953 52.701C764.707 52.0307 765.207 51.2351 765.454 50.3142C765.712 49.3899 765.696 48.3861 765.405 47.3028C765.11 46.207 764.622 45.3368 763.941 44.6921C763.269 44.0316 762.442 43.6131 761.46 43.4367C760.487 43.2445 759.391 43.3126 758.171 43.6409L754.51 44.626L762.57 74.5854L752.186 77.3796Z" fill="#5988FF"/>
<path d="M792.487 66.783L783.828 28.1283L800.511 24.39C803.379 23.7473 806.016 23.7511 808.421 24.4014C810.826 25.0518 812.856 26.2686 814.511 28.0518C816.166 29.8349 817.3 32.0981 817.915 34.8411C818.535 37.6094 818.456 40.1445 817.677 42.4467C816.91 44.746 815.542 46.6911 813.573 48.282C811.617 49.8701 809.166 50.9939 806.222 51.6536L796.258 53.8865L794.431 45.7328L802.282 43.9736C803.515 43.6973 804.517 43.248 805.29 42.6256C806.072 41.9879 806.605 41.2142 806.89 40.3046C807.188 39.3921 807.214 38.3886 806.969 37.2939C806.721 36.1866 806.271 35.2964 805.618 34.6234C804.975 33.935 804.166 33.4819 803.192 33.264C802.228 33.0307 801.13 33.0522 799.897 33.3285L796.198 34.1573L802.98 64.4317L792.487 66.783Z" fill="#5988FF"/>
<path d="M833.232 57.9379L826.116 18.9695L836.694 17.0374L842.253 47.4815L858.006 44.6041L859.563 53.1285L833.232 57.9379Z" fill="#5988FF"/>
<path d="M869.123 51.5778L863.51 12.3647L891.768 8.31884L892.996 16.8967L875.383 19.4185L876.347 26.1583L892.506 23.8448L893.734 32.4227L877.575 34.7362L878.54 41.4759L896.077 38.9651L897.305 47.543L869.123 51.5778Z" fill="#5988FF"/>
<path d="M921.537 4.79447L934.881 3.77061L945.776 25.4376L946.239 25.4021L953.702 2.32655L967.046 1.30269L970.076 40.7996L959.585 41.6045L957.834 18.7703L957.525 18.794L950.46 41.9942L944.135 42.4795L933.602 20.4744L933.293 20.498L935.057 43.4865L924.567 44.2914L921.537 4.79447Z" fill="#5988FF"/>
<path d="M990.75 40.1628L979.149 40.436L991.287 0.526223L1005.98 0.180232L1019.98 39.4745L1008.38 39.7476L999.046 11.2556L998.736 11.2629L990.75 40.1628ZM988.217 24.5896L1010.03 24.076L1010.22 32.1202L988.406 32.6337L988.217 24.5896Z" fill="#5988FF"/>
<path d="M1028.67 39.6032L1029.55 0L1046.64 0.379549C1049.58 0.44481 1052.14 1.08204 1054.31 2.29124C1056.49 3.50043 1058.17 5.1693 1059.35 7.29783C1060.53 9.42636 1061.08 11.8958 1061.02 14.7062C1060.96 17.5424 1060.27 19.9842 1058.96 22.0317C1057.67 24.0795 1055.87 25.639 1053.58 26.7102C1051.3 27.7817 1048.65 28.2839 1045.63 28.217L1035.42 27.9903L1035.61 19.6365L1043.65 19.8151C1044.92 19.8431 1046 19.6479 1046.9 19.2293C1047.81 18.7981 1048.51 18.1753 1049.01 17.3608C1049.52 16.5466 1049.78 15.5788 1049.81 14.4572C1049.83 13.3227 1049.61 12.3504 1049.14 11.5402C1048.68 10.7175 1048 10.0834 1047.11 9.6379C1046.23 9.17983 1045.16 8.93677 1043.9 8.90872L1040.11 8.82457L1039.42 39.8419L1028.67 39.6032Z" fill="#5988FF"/>
<path d="M1093.39 14.9699C1093.37 13.6764 1092.95 12.6415 1092.13 11.8651C1091.33 11.0896 1090.06 10.6456 1088.32 10.5332C1087.22 10.4615 1086.3 10.5379 1085.58 10.7624C1084.87 10.9748 1084.33 11.2953 1083.96 11.724C1083.6 12.1528 1083.39 12.6562 1083.34 13.2345C1083.29 13.7089 1083.34 14.1454 1083.51 14.5439C1083.69 14.9304 1083.99 15.2922 1084.41 15.6294C1084.83 15.9537 1085.37 16.2601 1086.04 16.5487C1086.7 16.8374 1087.5 17.1086 1088.43 17.3624L1091.62 18.2671C1093.78 18.8719 1095.61 19.6043 1097.12 20.4643C1098.63 21.3242 1099.84 22.301 1100.77 23.3946C1101.69 24.4752 1102.35 25.6675 1102.73 26.9714C1103.12 28.2762 1103.27 29.6817 1103.19 31.1881C1103.01 33.7866 1102.22 35.945 1100.81 37.6632C1099.41 39.3814 1097.48 40.6328 1095.03 41.4173C1092.59 42.2026 1089.69 42.487 1086.35 42.2705C1082.91 42.0481 1079.95 41.3458 1077.45 40.1635C1074.97 38.9821 1073.09 37.2904 1071.81 35.0884C1070.55 32.8745 1070.02 30.1135 1070.22 26.8056L1080.41 27.4652C1080.39 28.6789 1080.63 29.7151 1081.12 30.5736C1081.6 31.4321 1082.32 32.1053 1083.27 32.5933C1084.24 33.082 1085.4 33.3705 1086.76 33.4588C1087.91 33.5329 1088.88 33.4534 1089.67 33.2203C1090.46 32.9871 1091.07 32.6326 1091.5 32.1565C1091.93 31.6805 1092.17 31.1212 1092.23 30.4786C1092.25 29.873 1092.09 29.3325 1091.73 28.8571C1091.39 28.3698 1090.8 27.918 1089.96 27.5019C1089.12 27.073 1087.98 26.6502 1086.53 26.2335L1082.65 25.1294C1079.2 24.1437 1076.52 22.6976 1074.62 20.7911C1072.73 18.8726 1071.89 16.3695 1072.1 13.2821C1072.25 10.772 1073.06 8.62132 1074.53 6.83004C1076.02 5.02672 1078 3.67534 1080.47 2.77589C1082.96 1.87727 1085.77 1.52914 1088.89 1.73149C1092.08 1.93801 1094.81 2.65065 1097.07 3.86941C1099.33 5.08817 1101.03 6.70989 1102.16 8.73455C1103.31 10.7472 1103.81 13.0471 1103.65 15.6344L1093.39 14.9699Z" fill="#5988FF"/>
<path d="M1170.52 23.4257C1170.6 22.1345 1170.27 21.0706 1169.51 20.2338C1168.77 19.3989 1167.54 18.8587 1165.82 18.6131C1164.72 18.4567 1163.8 18.4625 1163.06 18.6306C1162.34 18.7877 1161.77 19.066 1161.38 19.4655C1160.98 19.8651 1160.74 20.3511 1160.64 20.9238C1160.55 21.3925 1160.57 21.832 1160.71 22.2422C1160.86 22.6415 1161.13 23.0253 1161.52 23.3935C1161.92 23.749 1162.43 24.0962 1163.07 24.4351C1163.72 24.7741 1164.49 25.1057 1165.39 25.4299L1168.51 26.5776C1170.62 27.3464 1172.39 28.2174 1173.82 29.1907C1175.26 30.1639 1176.4 31.2312 1177.24 32.3925C1178.08 33.5411 1178.64 34.78 1178.91 36.1093C1179.21 37.4404 1179.25 38.8537 1179.05 40.3491C1178.67 42.926 1177.72 45.0172 1176.19 46.6225C1174.66 48.2279 1172.64 49.3274 1170.13 49.921C1167.64 50.5164 1164.73 50.5777 1161.41 50.1048C1158 49.6192 1155.1 48.6912 1152.7 47.3208C1150.32 45.9522 1148.57 44.121 1147.47 41.8273C1146.38 39.5227 1146.06 36.7291 1146.51 33.4464L1156.62 34.8868C1156.52 36.0959 1156.67 37.1472 1157.09 38.0406C1157.51 38.934 1158.18 39.6605 1159.09 40.22C1160.01 40.7813 1161.15 41.1583 1162.5 41.3511C1163.64 41.513 1164.61 41.5081 1165.41 41.3363C1166.22 41.1646 1166.86 40.858 1167.32 40.4165C1167.79 39.975 1168.07 39.436 1168.18 38.7996C1168.25 38.1977 1168.13 37.6461 1167.81 37.1448C1167.5 36.6325 1166.95 36.1367 1166.14 35.6573C1165.34 35.1653 1164.24 34.656 1162.83 34.1295L1159.04 32.7304C1155.68 31.4825 1153.12 29.835 1151.36 27.7877C1149.63 25.7295 1148.98 23.1694 1149.43 20.1074C1149.77 17.6163 1150.75 15.5342 1152.35 13.8614C1153.97 12.1776 1156.05 10.9823 1158.59 10.2756C1161.13 9.57075 1163.96 9.43928 1167.06 9.88124C1170.23 10.3323 1172.89 11.2522 1175.05 12.641C1177.21 14.0297 1178.78 15.7771 1179.75 17.883C1180.74 19.9779 1181.06 22.3093 1180.71 24.877L1170.52 23.4257Z" fill="#5988FF"/>
<path d="M1217.09 18.8524L1227.66 20.8335L1222.99 45.7762C1222.43 48.742 1221.24 51.1755 1219.42 53.0767C1217.61 54.9677 1215.33 56.2662 1212.59 56.9722C1209.85 57.6655 1206.81 57.6998 1203.48 57.0751C1200.12 56.4456 1197.29 55.3115 1194.98 53.6728C1192.68 52.0214 1191.03 49.9866 1190.03 47.5683C1189.04 45.1397 1188.82 42.4426 1189.38 39.4768L1194.05 14.534L1204.62 16.5151L1200.12 40.5453C1199.89 41.7494 1199.96 42.8765 1200.31 43.9269C1200.67 44.9645 1201.27 45.8374 1202.1 46.5455C1202.96 47.256 1203.98 47.724 1205.19 47.9497C1206.4 48.1777 1207.53 48.1135 1208.57 47.7569C1209.61 47.4004 1210.48 46.803 1211.19 45.9649C1211.9 45.1141 1212.36 44.0867 1212.59 42.8827L1217.09 18.8524Z" fill="#5988FF"/>
<path d="M1230.24 61.8976L1239.23 23.3189L1255.88 27.2006C1258.74 27.8681 1261.11 29.0172 1263 30.648C1264.88 32.2788 1266.18 34.2568 1266.9 36.5818C1267.61 38.9069 1267.65 41.4383 1267.01 44.176C1266.37 46.9388 1265.2 49.1877 1263.49 50.9227C1261.81 52.6606 1259.73 53.8182 1257.26 54.3955C1254.81 54.9758 1252.12 54.9234 1249.18 54.2384L1239.23 51.9199L1241.13 43.7822L1248.97 45.6089C1250.2 45.8958 1251.29 45.9268 1252.26 45.7018C1253.24 45.4672 1254.06 45.0021 1254.71 44.3067C1255.37 43.6142 1255.83 42.7217 1256.09 41.6292C1256.35 40.524 1256.33 39.5266 1256.03 38.6367C1255.75 37.7372 1255.22 36.9778 1254.44 36.3585C1253.67 35.7295 1252.67 35.2716 1251.44 34.9847L1247.75 34.1241L1240.71 64.339L1230.24 61.8976Z" fill="#5988FF"/>
<path d="M1270.76 71.5921L1281.38 33.4295L1297.85 38.014C1300.69 38.8023 1303.01 40.051 1304.82 41.7603C1306.63 43.4695 1307.85 45.5008 1308.47 47.8542C1309.08 50.2075 1309.01 52.7383 1308.26 55.4464C1307.5 58.1794 1306.23 60.3766 1304.46 62.0378C1302.7 63.7025 1300.57 64.771 1298.09 65.2432C1295.61 65.719 1292.92 65.5523 1290.01 64.7433L1280.18 62.0051L1282.42 53.9552L1290.17 56.1126C1291.38 56.4514 1292.48 56.5289 1293.45 56.3451C1294.45 56.1523 1295.28 55.7223 1295.96 55.0552C1296.66 54.3915 1297.15 53.5193 1297.45 52.4385C1297.76 51.3453 1297.78 50.348 1297.52 49.4464C1297.28 48.5358 1296.78 47.7546 1296.03 47.1026C1295.29 46.4417 1294.31 45.9418 1293.09 45.603L1289.44 44.5865L1281.12 74.4755L1270.76 71.5921Z" fill="#5988FF"/>
<path d="M1310.85 83.0397L1322.98 45.3296L1333.22 48.6227L1323.74 78.0837L1338.99 82.9878L1336.34 91.2369L1310.85 83.0397Z" fill="#5988FF"/>
<path d="M1345.49 94.3852L1359.06 57.1692L1385.88 66.9496L1382.91 75.0905L1366.2 68.9944L1363.86 75.3909L1379.2 80.9834L1376.23 89.1244L1360.9 83.5319L1358.56 89.9284L1375.21 95.998L1372.24 104.139L1345.49 94.3852Z" fill="#5988FF"/>
<path d="M1413.79 77.9023L1426.03 83.3024L1425.4 107.547L1425.83 107.734L1443.3 90.9188L1455.55 96.3189L1439.57 132.565L1429.94 128.32L1439.18 107.365L1438.9 107.24L1421.71 124.353L1415.91 121.794L1417.02 97.422L1416.73 97.2972L1407.43 118.393L1397.81 114.148L1413.79 77.9023Z" fill="#5988FF"/>
<path d="M1458.09 141.769L1447.74 136.531L1477.28 107.085L1490.4 113.72L1484.19 154.97L1473.83 149.732L1479.05 120.207L1478.78 120.067L1458.09 141.769ZM1463.21 126.846L1482.68 136.694L1479.05 143.874L1459.58 134.026L1463.21 126.846Z" fill="#5988FF"/>
<path d="M1491.78 159.184L1511.26 124.691L1526.14 133.099C1528.7 134.544 1530.66 136.314 1532.01 138.409C1533.36 140.504 1534.05 142.768 1534.08 145.2C1534.11 147.633 1533.44 150.073 1532.06 152.521C1530.66 154.991 1528.9 156.819 1526.78 158.006C1524.67 159.198 1522.35 159.725 1519.83 159.586C1517.31 159.453 1514.74 158.645 1512.11 157.162L1503.22 152.14L1507.33 144.864L1514.33 148.82C1515.43 149.442 1516.48 149.78 1517.47 149.836C1518.48 149.887 1519.39 149.67 1520.21 149.186C1521.05 148.709 1521.74 147.981 1522.29 147.005C1522.85 146.016 1523.11 145.054 1523.08 144.117C1523.06 143.175 1522.76 142.297 1522.19 141.482C1521.63 140.663 1520.8 139.943 1519.7 139.321L1516.4 137.457L1501.14 164.472L1491.78 159.184Z" fill="#5988FF"/>
<path d="M1560.46 168.039C1561.05 166.89 1561.17 165.78 1560.82 164.711C1560.48 163.648 1559.57 162.657 1558.09 161.738C1557.15 161.152 1556.31 160.787 1555.56 160.642C1554.84 160.493 1554.21 160.522 1553.69 160.728C1553.16 160.934 1552.74 161.28 1552.43 161.766C1552.15 162.158 1552 162.569 1551.96 162.999C1551.93 163.426 1552.03 163.886 1552.24 164.381C1552.45 164.864 1552.78 165.39 1553.24 165.959C1553.69 166.528 1554.26 167.144 1554.96 167.805L1557.35 170.113C1558.96 171.665 1560.23 173.176 1561.16 174.646C1562.08 176.116 1562.69 177.551 1562.99 178.952C1563.29 180.341 1563.31 181.7 1563.03 183.03C1562.76 184.366 1562.23 185.678 1561.44 186.965C1560.06 189.17 1558.34 190.699 1556.29 191.551C1554.24 192.402 1551.95 192.594 1549.42 192.127C1546.9 191.666 1544.21 190.55 1541.36 188.779C1538.44 186.961 1536.16 184.941 1534.52 182.721C1532.89 180.508 1532.03 178.128 1531.94 175.583C1531.87 173.034 1532.71 170.349 1534.45 167.529L1543.12 172.923C1542.53 173.986 1542.25 175.011 1542.28 175.998C1542.3 176.985 1542.62 177.918 1543.22 178.797C1543.84 179.683 1544.73 180.486 1545.89 181.208C1546.87 181.815 1547.76 182.202 1548.56 182.369C1549.37 182.537 1550.08 182.513 1550.68 182.297C1551.29 182.081 1551.76 181.703 1552.12 181.162C1552.42 180.641 1552.53 180.086 1552.44 179.499C1552.37 178.907 1552.06 178.23 1551.52 177.467C1550.99 176.693 1550.18 175.781 1549.1 174.731L1546.2 171.924C1543.62 169.426 1541.95 166.886 1541.17 164.306C1540.41 161.721 1540.85 159.118 1542.49 156.497C1543.81 154.356 1545.54 152.843 1547.68 151.959C1549.85 151.072 1552.23 150.816 1554.84 151.192C1557.45 151.574 1560.09 152.593 1562.75 154.248C1565.47 155.937 1567.53 157.853 1568.95 159.994C1570.36 162.136 1571.1 164.367 1571.14 166.688C1571.2 169.005 1570.55 171.267 1569.2 173.475L1560.46 168.039Z" fill="#5988FF"/>
</svg>
