<svg width="18" height="18" viewBox="0 0 18 18" fill="none" xmlns="http://www.w3.org/2000/svg">
<path d="M0.5 5V13C0.5 15.4853 2.51472 17.5 5 17.5H13C15.4853 17.5 17.5 15.4853 17.5 13V5C17.5 2.51472 15.4853 0.5 13 0.5H5C2.51472 0.5 0.5 2.51472 0.5 5Z" fill="#313131" stroke="#FAFAFA"/>
<path d="M7.15381 5V13H5.70459V6.41016H5.65771L3.78662 7.60547V6.27734L5.7749 5H7.15381ZM12.1421 13.1523C11.4989 13.1523 10.9468 12.9896 10.4858 12.6641C10.0275 12.3359 9.67464 11.8633 9.42725 11.2461C9.18245 10.6263 9.06006 9.88021 9.06006 9.00781C9.06266 8.13542 9.18636 7.39323 9.43115 6.78125C9.67855 6.16667 10.0314 5.69792 10.4897 5.375C10.9507 5.05208 11.5015 4.89062 12.1421 4.89062C12.7827 4.89062 13.3335 5.05208 13.7944 5.375C14.2554 5.69792 14.6082 6.16667 14.853 6.78125C15.1004 7.39583 15.2241 8.13802 15.2241 9.00781C15.2241 9.88281 15.1004 10.6302 14.853 11.25C14.6082 11.8672 14.2554 12.3385 13.7944 12.6641C13.3361 12.9896 12.7853 13.1523 12.1421 13.1523ZM12.1421 11.9297C12.6421 11.9297 13.0366 11.6836 13.3257 11.1914C13.6174 10.6966 13.7632 9.96875 13.7632 9.00781C13.7632 8.3724 13.6968 7.83854 13.564 7.40625C13.4312 6.97396 13.2437 6.64844 13.0015 6.42969C12.7593 6.20833 12.4728 6.09766 12.1421 6.09766C11.6447 6.09766 11.2515 6.34505 10.9624 6.83984C10.6733 7.33203 10.5275 8.05469 10.5249 9.00781C10.5223 9.64583 10.5861 10.1823 10.7163 10.6172C10.8491 11.0521 11.0366 11.3802 11.2788 11.6016C11.521 11.8203 11.8088 11.9297 12.1421 11.9297Z" fill="white"/>
</svg>
