<svg width="18" height="18" viewBox="0 0 18 18" fill="none" xmlns="http://www.w3.org/2000/svg">
<path d="M0.5 5V13C0.5 15.4853 2.51472 17.5 5 17.5H13C15.4853 17.5 17.5 15.4853 17.5 13V5C17.5 2.51472 15.4853 0.5 13 0.5H5C2.51472 0.5 0.5 2.51472 0.5 5Z" fill="#313131" stroke="#FAFAFA"/>
<path d="M6.29492 13V11.9531L9.07227 9.23047C9.33789 8.96224 9.55925 8.72396 9.73633 8.51562C9.91341 8.30729 10.0462 8.10547 10.1348 7.91016C10.2233 7.71484 10.2676 7.50651 10.2676 7.28516C10.2676 7.03255 10.2103 6.81641 10.0957 6.63672C9.98112 6.45443 9.82357 6.3138 9.62305 6.21484C9.42253 6.11589 9.19466 6.06641 8.93945 6.06641C8.67643 6.06641 8.44596 6.12109 8.24805 6.23047C8.05013 6.33724 7.89648 6.48958 7.78711 6.6875C7.68034 6.88542 7.62695 7.12109 7.62695 7.39453H6.24805C6.24805 6.88672 6.36393 6.44531 6.5957 6.07031C6.82747 5.69531 7.14648 5.40495 7.55273 5.19922C7.96159 4.99349 8.43034 4.89062 8.95898 4.89062C9.49544 4.89062 9.9668 4.99089 10.373 5.19141C10.7793 5.39193 11.0944 5.66667 11.3184 6.01562C11.5449 6.36458 11.6582 6.76302 11.6582 7.21094C11.6582 7.51042 11.6009 7.80469 11.4863 8.09375C11.3717 8.38281 11.1699 8.70312 10.8809 9.05469C10.5944 9.40625 10.1921 9.83203 9.67383 10.332L8.29492 11.7344V11.7891H11.7793V13H6.29492Z" fill="white"/>
</svg>
