<svg width="18" height="18" viewBox="0 0 18 18" fill="none" xmlns="http://www.w3.org/2000/svg">
<path d="M0.5 5V13C0.5 15.4853 2.51472 17.5 5 17.5H13C15.4853 17.5 17.5 15.4853 17.5 13V5C17.5 2.51472 15.4853 0.5 13 0.5H5C2.51472 0.5 0.5 2.51472 0.5 5Z" fill="#313131" stroke="#FAFAFA"/>
<path d="M8.99951 13.1094C8.43701 13.1094 7.93701 13.013 7.49951 12.8203C7.06462 12.6276 6.72087 12.3594 6.46826 12.0156C6.21566 11.6719 6.08154 11.2747 6.06592 10.8242H7.53467C7.54769 11.0404 7.6193 11.2292 7.74951 11.3906C7.87972 11.5495 8.0529 11.6732 8.26904 11.7617C8.48519 11.8503 8.72738 11.8945 8.99561 11.8945C9.28206 11.8945 9.53597 11.8451 9.75732 11.7461C9.97868 11.6445 10.1519 11.5039 10.2769 11.3242C10.4019 11.1445 10.4631 10.9375 10.4604 10.7031C10.4631 10.4609 10.4006 10.2474 10.2729 10.0625C10.1453 9.8776 9.96045 9.73307 9.71826 9.62891C9.47868 9.52474 9.18962 9.47266 8.85107 9.47266H8.14404V8.35547H8.85107C9.12972 8.35547 9.37321 8.30729 9.58154 8.21094C9.79248 8.11458 9.95785 7.97917 10.0776 7.80469C10.1974 7.6276 10.256 7.42318 10.2534 7.19141C10.256 6.96484 10.2052 6.76823 10.1011 6.60156C9.99951 6.43229 9.85498 6.30078 9.66748 6.20703C9.48258 6.11328 9.26514 6.06641 9.01514 6.06641C8.77035 6.06641 8.54378 6.11068 8.33545 6.19922C8.12712 6.28776 7.95915 6.41406 7.83154 6.57813C7.70394 6.73958 7.63623 6.93229 7.62842 7.15625H6.23389C6.2443 6.70833 6.37321 6.3151 6.62061 5.97656C6.87061 5.63542 7.20394 5.36979 7.62061 5.17969C8.03727 4.98698 8.50472 4.89062 9.02295 4.89062C9.5568 4.89062 10.0203 4.99089 10.4136 5.19141C10.8094 5.38932 11.1154 5.65625 11.3315 5.99219C11.5477 6.32812 11.6558 6.69922 11.6558 7.10547C11.6584 7.55599 11.5256 7.93359 11.2573 8.23828C10.9917 8.54297 10.6427 8.74219 10.2104 8.83594V8.89844C10.7729 8.97656 11.2039 9.1849 11.5034 9.52344C11.8055 9.85937 11.9552 10.2773 11.9526 10.7773C11.9526 11.2253 11.825 11.6263 11.5698 11.9805C11.3172 12.332 10.9683 12.6081 10.5229 12.8086C10.0802 13.0091 9.57243 13.1094 8.99951 13.1094Z" fill="white"/>
</svg>
