<svg width="18" height="18" viewBox="0 0 18 18" fill="none" xmlns="http://www.w3.org/2000/svg">
<path d="M0.5 5V13C0.5 15.4853 2.51472 17.5 5 17.5H13C15.4853 17.5 17.5 15.4853 17.5 13V5C17.5 2.51472 15.4853 0.5 13 0.5H5C2.51472 0.5 0.5 2.51472 0.5 5Z" fill="#313131" stroke="#FAFAFA"/>
<path d="M9.01172 13.1094C8.49089 13.1094 8.02474 13.0117 7.61328 12.8164C7.20182 12.6185 6.875 12.3477 6.63281 12.0039C6.39323 11.6602 6.26563 11.2669 6.25 10.8242H7.65625C7.68229 11.1523 7.82422 11.4206 8.08203 11.6289C8.33984 11.8346 8.64974 11.9375 9.01172 11.9375C9.29557 11.9375 9.54818 11.8724 9.76953 11.7422C9.99089 11.612 10.1654 11.431 10.293 11.1992C10.4206 10.9674 10.4831 10.7031 10.4805 10.4062C10.4831 10.1042 10.4193 9.83594 10.2891 9.60156C10.1589 9.36719 9.98047 9.18359 9.75391 9.05078C9.52734 8.91536 9.26693 8.84766 8.97266 8.84766C8.73307 8.84505 8.4974 8.88932 8.26563 8.98047C8.03385 9.07161 7.85026 9.19141 7.71484 9.33984L6.40625 9.125L6.82422 5H11.4648V6.21094H8.02344L7.79297 8.33203H7.83984C7.98828 8.15755 8.19792 8.01302 8.46875 7.89844C8.73958 7.78125 9.03646 7.72266 9.35938 7.72266C9.84375 7.72266 10.276 7.83724 10.6563 8.06641C11.0365 8.29297 11.3359 8.60547 11.5547 9.00391C11.7734 9.40234 11.8828 9.85807 11.8828 10.3711C11.8828 10.8997 11.7604 11.3711 11.5156 11.7852C11.2734 12.1966 10.9362 12.5208 10.5039 12.7578C10.0742 12.9922 9.57682 13.1094 9.01172 13.1094Z" fill="white"/>
</svg>
