<svg width="18" height="18" viewBox="0 0 18 18" fill="none" xmlns="http://www.w3.org/2000/svg">
<path d="M0.5 5V13C0.5 15.4853 2.51472 17.5 5 17.5H13C15.4853 17.5 17.5 15.4853 17.5 13V5C17.5 2.51472 15.4853 0.5 13 0.5H5C2.51472 0.5 0.5 2.51472 0.5 5Z" fill="#313131" stroke="#FAFAFA"/>
<path d="M9.07422 13.1094C8.69141 13.1068 8.31771 13.0404 7.95313 12.9102C7.58854 12.7773 7.26042 12.5625 6.96875 12.2656C6.67708 11.9661 6.44531 11.569 6.27344 11.0742C6.10156 10.5768 6.01693 9.96094 6.01953 9.22656C6.01953 8.54167 6.09245 7.93099 6.23828 7.39453C6.38411 6.85807 6.59375 6.40495 6.86719 6.03516C7.14063 5.66276 7.47005 5.37891 7.85547 5.18359C8.24349 4.98828 8.67708 4.89062 9.15625 4.89062C9.65885 4.89062 10.1042 4.98958 10.4922 5.1875C10.8828 5.38542 11.1979 5.65625 11.4375 6C11.6771 6.34115 11.8255 6.72656 11.8828 7.15625H10.457C10.3841 6.84896 10.2344 6.60417 10.0078 6.42187C9.78385 6.23698 9.5 6.14453 9.15625 6.14453C8.60156 6.14453 8.17448 6.38542 7.875 6.86719C7.57813 7.34896 7.42839 8.01042 7.42578 8.85156H7.48047C7.60807 8.6224 7.77344 8.42578 7.97656 8.26172C8.17969 8.09766 8.40885 7.97135 8.66406 7.88281C8.92188 7.79167 9.19401 7.74609 9.48047 7.74609C9.94922 7.74609 10.3698 7.85807 10.7422 8.08203C11.1172 8.30599 11.4141 8.61458 11.6328 9.00781C11.8516 9.39844 11.9596 9.84635 11.957 10.3516C11.9596 10.8776 11.8398 11.3503 11.5977 11.7695C11.3555 12.1862 11.0182 12.5143 10.5859 12.7539C10.1536 12.9935 9.64974 13.112 9.07422 13.1094ZM9.06641 11.9375C9.35026 11.9375 9.60417 11.8685 9.82813 11.7305C10.0521 11.5924 10.2292 11.4062 10.3594 11.1719C10.4896 10.9375 10.5534 10.6745 10.5508 10.3828C10.5534 10.0964 10.4909 9.83724 10.3633 9.60547C10.2383 9.3737 10.0651 9.1901 9.84375 9.05469C9.6224 8.91927 9.36979 8.85156 9.08594 8.85156C8.875 8.85156 8.67839 8.89193 8.49609 8.97266C8.3138 9.05339 8.15495 9.16536 8.01953 9.30859C7.88411 9.44922 7.77734 9.61328 7.69922 9.80078C7.6237 9.98568 7.58464 10.1836 7.58203 10.3945C7.58464 10.6732 7.64974 10.9297 7.77734 11.1641C7.90495 11.3984 8.08073 11.5859 8.30469 11.7266C8.52865 11.8672 8.78255 11.9375 9.06641 11.9375Z" fill="white"/>
</svg>
