<svg width="18" height="18" viewBox="0 0 18 18" fill="none" xmlns="http://www.w3.org/2000/svg">
<path d="M0.5 5V13C0.5 15.4853 2.51472 17.5 5 17.5H13C15.4853 17.5 17.5 15.4853 17.5 13V5C17.5 2.51472 15.4853 0.5 13 0.5H5C2.51472 0.5 0.5 2.51472 0.5 5Z" fill="#313131" stroke="#FAFAFA"/>
<path d="M9.00439 13.1094C8.42367 13.1094 7.90804 13.0117 7.45752 12.8164C7.0096 12.6211 6.65804 12.3542 6.40283 12.0156C6.15023 11.6745 6.02523 11.2878 6.02783 10.8555C6.02523 10.5195 6.09814 10.2109 6.24658 9.92969C6.39502 9.64844 6.59554 9.41406 6.84814 9.22656C7.10335 9.03646 7.38721 8.91536 7.69971 8.86328V8.80859C7.28825 8.71745 6.95492 8.50781 6.69971 8.17969C6.4471 7.84896 6.3221 7.46745 6.32471 7.03516C6.3221 6.6237 6.43669 6.25651 6.66846 5.93359C6.90023 5.61068 7.21794 5.35677 7.62158 5.17187C8.02523 4.98437 8.48617 4.89062 9.00439 4.89062C9.51742 4.89062 9.97445 4.98437 10.3755 5.17187C10.7791 5.35677 11.0968 5.61068 11.3286 5.93359C11.563 6.25651 11.6802 6.6237 11.6802 7.03516C11.6802 7.46745 11.5513 7.84896 11.2935 8.17969C11.0382 8.50781 10.7088 8.71745 10.3052 8.80859V8.86328C10.6177 8.91536 10.8989 9.03646 11.1489 9.22656C11.4015 9.41406 11.6021 9.64844 11.7505 9.92969C11.9015 10.2109 11.9771 10.5195 11.9771 10.8555C11.9771 11.2878 11.8494 11.6745 11.5942 12.0156C11.339 12.3542 10.9875 12.6211 10.5396 12.8164C10.0942 13.0117 9.58252 13.1094 9.00439 13.1094ZM9.00439 11.9922C9.30387 11.9922 9.56429 11.9414 9.78564 11.8398C10.007 11.7357 10.1789 11.5898 10.3013 11.4023C10.4237 11.2148 10.4862 10.9987 10.4888 10.7539C10.4862 10.4987 10.4198 10.2734 10.2896 10.0781C10.1619 9.88021 9.98617 9.72526 9.76221 9.61328C9.54085 9.5013 9.28825 9.44531 9.00439 9.44531C8.71794 9.44531 8.46273 9.5013 8.23877 9.61328C8.01481 9.72526 7.83773 9.88021 7.70752 10.0781C7.57992 10.2734 7.51742 10.4987 7.52002 10.7539C7.51742 10.9987 7.57731 11.2148 7.69971 11.4023C7.8221 11.5872 7.99398 11.7318 8.21533 11.8359C8.43929 11.9401 8.70231 11.9922 9.00439 11.9922ZM9.00439 8.34766C9.24919 8.34766 9.46533 8.29818 9.65283 8.19922C9.84294 8.10026 9.99268 7.96224 10.1021 7.78516C10.2114 7.60807 10.2674 7.40365 10.27 7.17187C10.2674 6.94271 10.2127 6.74219 10.106 6.57031C9.99919 6.39583 9.85075 6.26172 9.66064 6.16797C9.47054 6.07161 9.25179 6.02344 9.00439 6.02344C8.75179 6.02344 8.52913 6.07161 8.33643 6.16797C8.14632 6.26172 7.99788 6.39583 7.89111 6.57031C7.78695 6.74219 7.73617 6.94271 7.73877 7.17187C7.73617 7.40365 7.78825 7.60807 7.89502 7.78516C8.00439 7.95964 8.15413 8.09766 8.34424 8.19922C8.53695 8.29818 8.757 8.34766 9.00439 8.34766Z" fill="white"/>
</svg>
