<svg width="18" height="18" viewBox="0 0 18 18" fill="none" xmlns="http://www.w3.org/2000/svg">
<path d="M0.5 5V13C0.5 15.4853 2.51472 17.5 5 17.5H13C15.4853 17.5 17.5 15.4853 17.5 13V5C17.5 2.51472 15.4853 0.5 13 0.5H5C2.51472 0.5 0.5 2.51472 0.5 5Z" fill="#313131" stroke="#FAFAFA"/>
<path d="M8.92188 4.89062C9.30469 4.89323 9.67708 4.96094 10.0391 5.09375C10.4036 5.22396 10.7318 5.4375 11.0234 5.73437C11.3151 6.02865 11.5469 6.42318 11.7188 6.91797C11.8906 7.41276 11.9766 8.02474 11.9766 8.75391C11.9792 9.44141 11.9063 10.056 11.7578 10.5977C11.612 11.1367 11.4023 11.5924 11.1289 11.9648C10.8555 12.3372 10.526 12.6211 10.1406 12.8164C9.75521 13.0117 9.32161 13.1094 8.83984 13.1094C8.33464 13.1094 7.88672 13.0104 7.49609 12.8125C7.10807 12.6146 6.79427 12.3437 6.55469 12C6.3151 11.6562 6.16797 11.263 6.11328 10.8203H7.53906C7.61198 11.138 7.76042 11.3906 7.98438 11.5781C8.21094 11.763 8.49609 11.8555 8.83984 11.8555C9.39453 11.8555 9.82161 11.6146 10.1211 11.1328C10.4206 10.651 10.5703 9.98177 10.5703 9.125H10.5156C10.388 9.35417 10.2227 9.55208 10.0195 9.71875C9.81641 9.88281 9.58594 10.0091 9.32813 10.0977C9.07292 10.1862 8.80208 10.2305 8.51562 10.2305C8.04688 10.2305 7.625 10.1185 7.25 9.89453C6.8776 9.67057 6.58203 9.36328 6.36328 8.97266C6.14714 8.58203 6.03776 8.13542 6.03516 7.63281C6.03516 7.11198 6.15495 6.64453 6.39453 6.23047C6.63672 5.8138 6.97396 5.48568 7.40625 5.24609C7.83854 5.00391 8.34375 4.88542 8.92188 4.89062ZM8.92578 6.0625C8.64453 6.0625 8.39062 6.13151 8.16406 6.26953C7.9401 6.40495 7.76302 6.58984 7.63281 6.82422C7.50521 7.05599 7.44141 7.3151 7.44141 7.60156C7.44401 7.88542 7.50781 8.14323 7.63281 8.375C7.76042 8.60677 7.93359 8.79036 8.15234 8.92578C8.3737 9.0612 8.6263 9.12891 8.91016 9.12891C9.12109 9.12891 9.31771 9.08854 9.5 9.00781C9.68229 8.92708 9.84115 8.8151 9.97656 8.67188C10.1146 8.52604 10.2214 8.36068 10.2969 8.17578C10.375 7.99089 10.4128 7.79557 10.4102 7.58984C10.4102 7.31641 10.3451 7.0638 10.2148 6.83203C10.0872 6.60026 9.91146 6.41406 9.6875 6.27344C9.46615 6.13281 9.21224 6.0625 8.92578 6.0625Z" fill="white"/>
</svg>
