<svg width="18" height="19" viewBox="0 0 18 19" fill="none" xmlns="http://www.w3.org/2000/svg">
<path d="M5 3V12V16C5 16.5523 5.44771 17 6 17H15C15.5523 17 16 16.5523 16 16V3C16 2.44772 15.5523 2 15 2H6C5.44772 2 5 2.44772 5 3Z" fill="#FEFEFE" stroke="#FEFEFE" stroke-width="3" stroke-linecap="round" stroke-linejoin="round"/>
<path d="M5 3V12V16C5 16.5523 5.44771 17 6 17H15C15.5523 17 16 16.5523 16 16V3C16 2.44772 15.5523 2 15 2H6C5.44772 2 5 2.44772 5 3Z" fill="#FEFEFE"/>
<path d="M2 9.5H12M12 9.5L9.5 7M12 9.5L9.5 12" stroke="#FEFEFE" stroke-width="3" stroke-linecap="round" stroke-linejoin="round"/>
<path d="M5 7V3C5 2.44772 5.44772 2 6 2H15C15.5523 2 16 2.44772 16 3V16C16 16.5523 15.5523 17 15 17H6C5.44771 17 5 16.5523 5 16V12" stroke="#58596B" stroke-width="1.5" stroke-linecap="round" stroke-linejoin="round"/>
<path d="M2 9.5H12M12 9.5L9.5 7M12 9.5L9.5 12" stroke="#58596B" stroke-width="1.5" stroke-linecap="round" stroke-linejoin="round"/>
</svg>
