<svg width="17" height="25" viewBox="0 0 17 25" fill="none" xmlns="http://www.w3.org/2000/svg">
<path fill-rule="evenodd" clip-rule="evenodd" d="M3.6 8.5C3.6 11.2062 5.7938 13.4 8.5 13.4C11.2062 13.4 13.4 11.2062 13.4 8.5C13.4 5.7938 11.2062 3.6 8.5 3.6C5.7938 3.6 3.6 5.7938 3.6 8.5Z" fill="#D74040"/>
<path fill-rule="evenodd" clip-rule="evenodd" d="M0 8.5C0 3.80558 3.80558 0 8.5 0C13.1944 0 17 3.80558 17 8.5C17 15.6 9.5 17.2 9.5 23.7C9.5 24.4 9.05229 24.7 8.5 24.7C7.94772 24.7 7.5 24.4 7.5 23.7C7.5 17.2 0 15.6 0 8.5ZM3.6 8.5C3.6 11.2062 5.7938 13.4 8.5 13.4C11.2062 13.4 13.4 11.2062 13.4 8.5C13.4 5.7938 11.2062 3.6 8.5 3.6C5.7938 3.6 3.6 5.7938 3.6 8.5Z" fill="#D74040"/>
<path d="M3.59998 8.49998C3.59998 11.2062 5.79378 13.4 8.49998 13.4C11.2062 13.4 13.4 11.2062 13.4 8.49998C13.4 5.79378 11.2062 3.59998 8.49998 3.59998C5.79378 3.59998 3.59998 5.79378 3.59998 8.49998Z" fill="white"/>
</svg>
