<svg width="16" height="16" viewBox="0 0 16 16" fill="none" xmlns="http://www.w3.org/2000/svg">
<path d="M8 0C12.4183 0 16 3.58172 16 8C16 12.4183 12.4183 16 8 16C3.58172 16 0 12.4183 0 8C0 3.58172 3.58172 0 8 0Z" fill="#6ECCB5"/>
<path d="M4 11.5H5.5M12 11.5H10.5M8 11.5L8 5.5M8 11.5H5.5M8 11.5L10.5 11.5M5.5 11.5L5.5 5.5M5.5 11.5L10.5 11.5M10.5 11.5L10.5 5.5" stroke="#FAFAFA" stroke-width="1.5" stroke-linecap="square"/>
<path d="M8 3.5L3.5 5.5L12.5 5.5L8 3.5Z" fill="#FAFAFA" stroke="#FAFAFA" stroke-linejoin="round"/>
<path d="M3.5 6L12.5 6" stroke="#FAFAFA" stroke-linejoin="round"/>
<path d="M4 11L12 11" stroke="#FAFAFA" stroke-linejoin="round"/>
</svg>
