<svg width="16" height="16" viewBox="0 0 16 16" fill="none" xmlns="http://www.w3.org/2000/svg">
<path d="M8 0C12.4183 0 16 3.58172 16 8C16 12.4183 12.4183 16 8 16C3.58172 16 0 12.4183 0 8C0 3.58172 3.58172 0 8 0Z" fill="#8846E2"/>
<path d="M3.5 6.5C4.5 6.5 4.78845 5.5 5.75 5.5C6.71155 5.5 7.03845 6.5 8 6.5C8.96155 6.5 9.28845 5.5 10.25 5.5C11.2116 5.5 11.5 6.5 12.5 6.5" stroke="#FAFAFA" stroke-linecap="square" stroke-linejoin="round"/>
<path d="M3.5 8.5C4.5 8.5 4.78845 7.5 5.75 7.5C6.71155 7.5 7.03845 8.5 8 8.5C8.96155 8.5 9.28845 7.5 10.25 7.5C11.2116 7.5 11.5 8.5 12.5 8.5" stroke="#FAFAFA" stroke-linecap="square" stroke-linejoin="round"/>
<path d="M3.5 10.5C4.5 10.5 4.78845 9.5 5.75 9.5C6.71155 9.5 7.03845 10.5 8 10.5C8.96155 10.5 9.28845 9.5 10.25 9.5C11.2116 9.5 11.5 10.5 12.5 10.5" stroke="#FAFAFA" stroke-linecap="square" stroke-linejoin="round"/>
</svg>
