<svg width="16" height="16" viewBox="0 0 16 16" fill="none" xmlns="http://www.w3.org/2000/svg">
<path d="M8 0C12.4183 0 16 3.58172 16 8C16 12.4183 12.4183 16 8 16C3.58172 16 0 12.4183 0 8C0 3.58172 3.58172 0 8 0Z" fill="#D74040"/>
<path d="M3.5 8C3.5 5.51472 5.51472 3.5 8 3.5C10.4853 3.5 12.5 5.51472 12.5 8C12.5 10.4853 10.4853 12.5 8 12.5C5.51472 12.5 3.5 10.4853 3.5 8Z" stroke="#FAFAFA" stroke-linejoin="round"/>
<path d="M4.5 11C3.7023 10.0573 3.5 8 3.5 8M4.5 11V11C6.15966 12.9614 9.84034 12.9614 11.5 11V11M4.5 11L11.5 5M11.5 11C12.2977 10.0573 12.5 8 12.5 8M11.5 11L8 8M11.5 5C12.2977 5.94274 12.5 8 12.5 8M11.5 5C10.5394 3.86479 8 3.5 8 3.5M4.5 5C3.5 6 3.5 8 3.5 8M4.5 5C5.5 4 8 3.5 8 3.5M4.5 5L8 8M3.5 8H12.5M8 3.5V8" stroke="#FAFAFA" stroke-width="0.5" stroke-linejoin="round"/>
<path d="M2.9 8.5L4.1 8.5L4.5 7.5L2.5 7.5L2.9 8.5Z" fill="#FAFAFA" stroke="#FAFAFA" stroke-linejoin="round"/>
<path d="M11.9 8.5L13.1 8.5L13.5 7.5L11.5 7.5L11.9 8.5Z" fill="#FAFAFA" stroke="#FAFAFA" stroke-linejoin="round"/>
<path d="M7.4 4L8.6 4L9 3L7 3L7.4 4Z" fill="#FAFAFA" stroke="#FAFAFA" stroke-linejoin="round"/>
<path d="M5.5 14L7.52913 8.31844C7.68714 7.876 8.31286 7.876 8.47087 8.31844L10.5 14" stroke="#FAFAFA" stroke-linejoin="round"/>
</svg>
