<svg width="16" height="16" viewBox="0 0 16 16" fill="none" xmlns="http://www.w3.org/2000/svg">
<path d="M8 0C12.4183 0 16 3.58172 16 8C16 12.4183 12.4183 16 8 16C3.58172 16 0 12.4183 0 8C0 3.58172 3.58172 0 8 0Z" fill="#8FADFC"/>
<path d="M8 11.5C8 11.5 8.00281 7.63256 8.00281 6.07046M8.00281 6.07046C7.86474 5.10396 6.92347 4.2455 6.00281 4.57043C5.33892 4.80475 4.96376 5.36749 5.00281 6.07043M8.00281 6.07046C7.94866 5.09565 9.08216 4.24552 10.0028 4.57046C10.6667 4.80478 11.0419 5.36752 11.0028 6.07046M4 9.17373C4.19902 8.36958 4.69581 7.87277 5.49996 7.67373C6.62006 7.39648 7.86474 8.27767 8.00281 9.24417C7.94866 8.26936 9.38143 7.39807 10.5 7.67373C11.3043 7.87196 11.8018 8.36937 12 9.17373" stroke="#FAFAFA" stroke-linecap="round" stroke-linejoin="round"/>
</svg>
