<svg width="16" height="16" viewBox="0 0 16 16" fill="none" xmlns="http://www.w3.org/2000/svg">
<path d="M8 0C12.4183 0 16 3.58172 16 8C16 12.4183 12.4183 16 8 16C3.58172 16 0 12.4183 0 8C0 3.58172 3.58172 0 8 0Z" fill="#F9CF3D"/>
<path d="M8 12H6H5.5C5.5 7 8 6 8 6C8 6 10.5 7 10.5 12H10H8Z" fill="#FAFAFA"/>
<path d="M4 12C4 12 5.10948 12 5.5 12M12 12C12 12 10.8905 12 10.5 12M8 2V6M8 6C8 6 5.5 7 5.5 12M8 6C8 6 10.5 7 10.5 12M6 12H8H10M6 12H10M6 12C6 12 5.89052 12 5.5 12M6 12H5.5M10 12C10 12 10.1095 12 10.5 12M10 12H10.5M7 4H9" stroke="#FAFAFA" stroke-linejoin="round"/>
</svg>
