<svg width="16" height="16" viewBox="0 0 16 16" fill="none" xmlns="http://www.w3.org/2000/svg">
<path fill-rule="evenodd" clip-rule="evenodd" d="M0 8C0 12.4183 3.58172 16 8 16C12.4183 16 16 12.4183 16 8C16 3.58172 12.4183 0 8 0C3.58172 0 0 3.58172 0 8ZM3.38824 8C3.38824 10.547 5.45299 12.6118 8 12.6118C10.547 12.6118 12.6118 10.547 12.6118 8C12.6118 5.45299 10.547 3.38824 8 3.38824C5.45299 3.38824 3.38824 5.45299 3.38824 8Z" fill="url(#paint0_linear_52_132)"/>
<g filter="url(#filter0_i_52_132)">
<path d="M3 8C3 10.7614 5.23858 13 8 13C10.7614 13 13 10.7614 13 8C13 5.23858 10.7614 3 8 3C5.23858 3 3 5.23858 3 8Z" fill="#EEF3FF"/>
</g>
<defs>
<filter id="filter0_i_52_132" x="3" y="3" width="11" height="11" filterUnits="userSpaceOnUse" color-interpolation-filters="sRGB">
<feFlood flood-opacity="0" result="BackgroundImageFix"/>
<feBlend mode="normal" in="SourceGraphic" in2="BackgroundImageFix" result="shape"/>
<feColorMatrix in="SourceAlpha" type="matrix" values="0 0 0 0 0 0 0 0 0 0 0 0 0 0 0 0 0 0 127 0" result="hardAlpha"/>
<feOffset dx="1" dy="1"/>
<feGaussianBlur stdDeviation="1.5"/>
<feComposite in2="hardAlpha" operator="arithmetic" k2="-1" k3="1"/>
<feColorMatrix type="matrix" values="0 0 0 0 0 0 0 0 0 0 0 0 0 0 0 0 0 0 0.25 0"/>
<feBlend mode="normal" in2="shape" result="effect1_innerShadow_52_132"/>
</filter>
<linearGradient id="paint0_linear_52_132" x1="-1.1261e-07" y1="11.5633" x2="16" y2="11.5633" gradientUnits="userSpaceOnUse">
<stop stop-color="#5988FF"/>
<stop offset="1" stop-color="#274DB0"/>
</linearGradient>
</defs>
</svg>
